<?xml version="1.0" encoding="utf-8"?>
<!-- Generator: Adobe Illustrator 16.0.0, SVG Export Plug-In . SVG Version: 6.00 Build 0)  -->
<svg version="1.1"
  id="Layer_1"
  xmlns:svg="http://www.w3.org/2000/svg" xmlns="http://www.w3.org/2000/svg" xmlns:xlink="http://www.w3.org/1999/xlink"
  viewBox="14.611 -138.841 418 609.33" enable-background="new 14.611 -138.841 418 609.33" xml:space="preserve">
  
  <title>Eukaryotic DNA Replication</title>
  
  <metadata>
    <rdf:RDF xmlns:rdf="http://www.w3.org/1999/02/22-rdf-syntax-ns#"
             xmlns:dc="http://purl.org/dc/elements/1.1/"
             xmlns:cc="http://creativecommons.org/ns#">
      <cc:Work rdf:about="">
        <dc:title>Eukaryotic DNA Replication</dc:title>
        <dc:format>image/svg+xml</dc:format>
        <dc:type rdf:resource="http://purl.org/dc/dcmitype/StillImage" />
        <cc:attributionName>Mariana Ruiz Villarreal</cc:attributionName>
        <cc:attributionURL rdf:resource="https://commons.wikimedia.org/wiki/File%3AEukaryotic_DNA_replication.svg"/>
        <cc:license rdf:resource="http://creativecommons.org/publicdomain/zero/1.0/" />
      </cc:Work>
    </rdf:RDF>
  </metadata>
  
  <style type="text/css">
    .poly1 {fill:#F9E84B; stroke:#935D07; stroke-width:0.5; stroke-miterlimit:10; }
    .poly2 {fill:#B3D343; stroke:#06440B; stroke-width:0.5; stroke-miterlimit:10; }
    .poly3 {fill:#9DDCF4; stroke:#000000; stroke-width:0.5; stroke-miterlimit:10; }
    .poly4 {fill:#5E9EFC; stroke:#000000;                   stroke-miterlimit:10; }
    .poly5 {fill:#6CCDEF; stroke:#1C54B7; stroke-width:2;   stroke-miterlimit:10; }
    .poly6 {fill:#FC7D70; stroke:#000000;                   stroke-miterlimit:10; }
    .poly7 {fill:#F92121; stroke:#000000; stroke-linejoin:round; stroke-miterlimit:10; }
    
    .leader {fill:none; stroke:#020202; stroke-width:2; stroke-linecap:round; stroke-miterlimit:10;}
    
    .text1 {fill:#8E8E8E; font-family:Arial, sans-serif;      font-weight:bold; font-size:14px;}
    .text2 {              font-family:Arial, sans-serif;                        font-size:12px;}
    .text3 {              font-family:Arial, sans-serif;      font-weight:bold; font-size:10px;}
    .text4 {fill:#6F7070; font-family:Myriad Pro, sans-serif;                   font-size:10px;}
  </style>
  
  <defs>
    <linearGradient id="SVGID_1_" gradientUnits="userSpaceOnUse" x1="295.792" y1="316.7622" x2="342.3965" y2="316.7622">
      <stop  offset="0.1613" stop-color="#ADADAD"/>
      <stop  offset="0.5085" stop-color="#D7D7D7"/>
      <stop  offset="0.8081" stop-color="#F4F4F4"/>
      <stop  offset="0.9785" stop-color="#FFFFFF"/>
    </linearGradient>
    <linearGradient id="SVGID_2_" gradientUnits="userSpaceOnUse" x1="310.4121" y1="299.7397" x2="325.7447" y2="328.738">
      <stop  offset="0" stop-color="#ADADAD"/>
      <stop  offset="0.4158" stop-color="#D7D7D7"/>
      <stop  offset="0.7745" stop-color="#F4F4F4"/>
      <stop  offset="0.9785" stop-color="#FFFFFF"/>
    </linearGradient>
    <linearGradient id="SVGID_3_" gradientUnits="userSpaceOnUse" x1="279.6978" y1="286.4614" x2="326.6577" y2="286.4614">
      <stop  offset="0" stop-color="#FC7D70"/>
      <stop  offset="0.3065" stop-color="#ADADAD"/>
    </linearGradient>
    <linearGradient id="SVGID_4_" gradientUnits="userSpaceOnUse" x1="279.9258" y1="286.3062" x2="289.875" y2="286.3062">
      <stop  offset="0" stop-color="#000000"/>
      <stop  offset="1" stop-color="#ADADAD"/>
    </linearGradient>
    <linearGradient id="SVGID_5_" gradientUnits="userSpaceOnUse" x1="284.6514" y1="283.5356" x2="294.6016" y2="283.5356" gradientTransform="matrix(0.9982 -0.0596 0.0596 0.9982 -16.6499 17.6429)">
      <stop  offset="0" stop-color="#000000"/>
      <stop  offset="1" stop-color="#ADADAD"/>
    </linearGradient>
    <linearGradient id="SVGID_6_" gradientUnits="userSpaceOnUse" x1="295.7476" y1="272.9243" x2="313.4947" y2="308.7595">
      <stop  offset="0" stop-color="#F92121"/>
      <stop  offset="0.0603" stop-color="#F62727"/>
      <stop  offset="0.1405" stop-color="#ED3838"/>
      <stop  offset="0.2319" stop-color="#DE5353"/>
      <stop  offset="0.3317" stop-color="#C97A7A"/>
      <stop  offset="0.4371" stop-color="#AEABAB"/>
      <stop  offset="0.4409" stop-color="#ADADAD"/>
    </linearGradient>
    <linearGradient id="SVGID_7_" gradientUnits="userSpaceOnUse" x1="311.0303" y1="268.5103" x2="313.4839" y2="282.1656">
      <stop  offset="0" stop-color="#000000"/>
      <stop  offset="1" stop-color="#ADADAD"/>
    </linearGradient>
    <linearGradient id="SVGID_8_" gradientUnits="userSpaceOnUse" x1="305.3994" y1="270.8726" x2="307.8257" y2="284.3756" gradientTransform="matrix(0.9924 0.123 -0.123 0.9924 36.2246 -35.5635)">
      <stop  offset="0" stop-color="#000000"/>
      <stop  offset="1" stop-color="#ADADAD"/>
    </linearGradient>
  </defs>
  
  <text transform="matrix(1 0 0 1 166.7085 -115.0938)" class="text1">Eukaryotic DNA replication</text>
  
  <g>
 <polygon fill="#E8E8E8" points="309.269,331.883 311.256,333.769 319.57,325.007 317.571,323.132  "/>
 <path fill="#ADADAD" stroke="#06440B" stroke-width="0.5" stroke-miterlimit="10" d="M311.009,272.023l-13.064,6.015l1.153,2.486
  l11.829-5.443C310.766,274.001,310.636,273.007,311.009,272.023z"/>
 <polygon fill="#ADADAD" points="323.396,300.785 312.734,306.42 314.019,308.84 324.678,303.206  "/>
 <path fill="url(#SVGID_1_)" d="M323.096,316.659c-9.318-0.532-19.881-1.136-22.917-6.681l-4.387,2.405
  c4.373,7.972,16.404,8.659,27.02,9.267c5.18,0.295,10.879,0.626,13.828,1.896c2.001-0.407,3.866-1.073,5.757-1.692
  C339.377,317.594,331.807,317.155,323.096,316.659z"/>
 <path fill="#ADADAD" d="M307.209,317.279c0.388,1.067,1.445,0.986,1.445,0.986l9.083-3.488l-0.99-2.558l-9.033,3.472
  C307.714,315.691,306.822,316.21,307.209,317.279z"/>
 <path fill="url(#SVGID_2_)" d="M326.658,292.484c2.681,4.89-0.766,11.755-5.25,19.746c-4.567,8.139-9.744,17.367-6.706,22.911
  l-1.916,1.954l-2.468,0.447c-4.372-7.973,1.525-18.485,6.728-27.759c3.282-5.851,6.576-12.441,5.228-14.898"/>
 <polygon fill="#ADADAD" points="296.669,308.964 298.476,311.022 310.141,300.785 308.328,298.729  "/>
 <path fill="#ADADAD" d="M318.985,289.377l-10.657,9.352l1.813,2.056l10.976-9.636c0,0,0.861-1.172,0.091-1.794
  C319.943,288.333,318.985,289.377,318.985,289.377z"/>
 <polygon fill="#ADADAD" points="296.224,302.122 298.26,303.958 306.224,295.127 304.176,293.302  "/>
 <path fill="#ADADAD" d="M308.994,287.96l-4.818,5.342l2.048,1.825l5.193-5.76c0,0-0.021-1.184-0.843-1.596
  C309.751,287.358,308.994,287.96,308.994,287.96z"/>
 <path fill="#ADADAD" d="M292.944,288.783c0.342,0.913,1.6,1.023,1.6,1.023l6.688-2.133l-0.839-2.611l-7.033,2.244
  C293.359,287.306,292.601,287.867,292.944,288.783z"/>
 <path fill="#ADADAD" d="M305.656,283.384l-5.264,1.678l0.839,2.611l2.786-0.889C304.659,285.597,305.322,284.475,305.656,283.384z"/>
 <path fill="#ADADAD" stroke="#935D07" stroke-width="0.5" stroke-miterlimit="10" d="M285.614,285.222
  c0.468,1.09,1.424,0.851,1.424,0.851l12.06-5.549l-1.153-2.486l-12.051,5.546C285.894,283.583,285.091,284.085,285.614,285.222z"/>
 <path fill="#E8E8E8" d="M321.721,318.759l-4.149,4.373l1.999,1.875l4.663-4.913c0,0,0.221-1.028-0.565-1.637
  C322.771,317.766,321.721,318.759,321.721,318.759z"/>
 <path fill="#ADADAD" d="M300.37,314.622c0.442,1.106,1.81,0.475,1.81,0.475l11.838-6.256l-1.285-2.42l-12.264,6.48
  C300.47,312.901,299.871,313.371,300.37,314.622z"/>
 <polygon fill="#F4F4F4" points="333.996,319.333 320.639,328.156 322.145,330.446 335.505,321.621  "/>
 <g>
   <path fill="url(#SVGID_3_)" d="M306.139,287.054c-14.311,2.614-20.092-5.207-21.761-7.258l-0.573-1.759
    c-1.415,0.545-2.972,1.267-4.107,2.092l0.25,2.036c0,0,6.498,12.501,26.692,9.448c8.397-1.271,14.287,0.815,15.633,3.271
    l4.384-2.401C323.979,287.594,318.825,284.736,306.139,287.054z"/>
 </g>
</g>
  <polygon class="poly2" points="129.861,-44.858 129.861,-42.117 141.987,-42.117 141.971,-44.858 "/>
  <polygon class="poly2" points="161.239,-44.858 141.971,-44.858 141.987,-42.117 161.239,-42.117 "/>
  <polygon class="poly1" points="129.861,-36.655 129.861,-33.914 145.5,-33.914 145.492,-36.655 "/>
  <polygon class="poly1" points="129.861,-28.451 129.861,-25.71 145.524,-25.71 145.516,-28.451 "/>
  <polygon class="poly1" points="129.899,1.646 129.833,4.387 142.254,4.685 142.239,1.942 "/>
  <polygon class="poly1" points="128.752,8.236 128.389,10.953 144.264,13.073 144.546,10.346 "/>
  <polygon class="poly2" points="171,-0.248 160.421,11.003 162.475,12.822 172.996,1.629 "/>
  <path class="poly1" d="M145.232,19.276l-20.189-4.169l-0.554,2.684 l19.574,4.042C144.7,20.98,145.291,20.128,145.232,19.276z"/>
  <path class="poly2" d="M178.191,3.287l-5.87,9.021 c0.815,0.256,1.393,1.117,1.955,2.021l6.212-9.548L178.191,3.287z"/>
  <polygon class="poly2" points="184.11,4.455 176.593,17.331 178.567,19.388 186.478,5.838 "/>
  <polygon class="poly1" points="119.055,21.656 118.139,24.24 132.926,29.479 134.577,27.156 "/>
  <polygon class="poly1" points="114.506,27.492 113.601,30.079 125.373,34.2 126.845,31.811 "/>
  <polygon class="poly2" points="192.338,7.823 181.576,22.63 183.441,24.728 194.555,9.435 "/>
  <polygon class="poly1" points="110.235,34.375 109.402,36.986 124.229,41.713 125.897,39.368 "/>
  <polygon class="poly2" points="199.831,13.67 187.685,22.367 188.567,25.106 201.426,15.899 "/>
  <polygon class="poly1" points="105.701,41.885 104.98,44.529 119.428,48.467 121.119,46.088 "/>
  <polygon class="poly2" points="189.749,29.728 204.3,22.158 203.035,19.727 189.376,26.833 "/>
  <polygon class="poly1" points="101.66,50.309 101.218,53.015 112.629,54.877 114.185,52.354 "/>
  <polygon class="poly2" points="207.087,26.539 189.974,34.045 190.042,37.009 208.188,29.05 "/>
  <polygon class="poly1" points="99.261,58.279 98.992,61.007 117.841,62.866 118.312,60.158 "/>
  <polygon class="poly1" points="96.484,67.351 96.484,70.092 116.81,70.092 117.287,67.351 "/>
  <rect x="96.484" y="75.555" class="poly1" width="16.121" height="2.741"/>
  <rect x="96.484" y="83.758" class="poly1" width="12.461" height="2.741"/>
  <rect x="97.484" y="91.962" class="poly1" width="15.095" height="2.74"/>
  <rect x="97.484" y="100.166" class="poly1" width="19.128" height="2.74"/>
  <rect x="97.484" y="108.369" class="poly1" width="15.069" height="2.74"/>
  <rect x="112.555" y="108.369" class="poly3" width="16.304" height="2.74"/>
  <rect x="97.484" y="116.572" class="poly1" width="15.057" height="2.742"/>
  <rect x="112.543" y="116.572" class="poly3" width="16.316" height="2.742"/>
  <rect x="97.484" y="124.776" class="poly1" width="19.128" height="2.741"/>
  <rect x="116.612" y="124.776" class="poly3" width="12.25" height="2.741"/>
  <polygon class="poly1" points="97.484,131.98 97.484,134.72 109.835,134.72 109.886,131.98 "/>
  <polygon class="poly2" points="128.861,131.98 109.886,131.98 109.835,134.72 128.861,134.72 "/>
  <polygon class="poly1" points="97.484,140.183 97.484,142.924 109.684,142.924 109.734,140.183 "/>
  <polygon class="poly2" points="128.861,140.183 109.734,140.183 109.684,142.924 128.861,142.924 "/>
  <rect x="97.484" y="148.386" class="poly2" width="15.007" height="2.742"/>
  <rect x="112.493" y="148.386" class="poly2" width="16.366" height="2.742"/>
  <rect x="97.484" y="156.59" class="poly2" width="19.461" height="2.741"/>
  <rect x="97.484" y="164.794" class="poly2" width="19.461" height="2.74"/>
  <rect x="97.484" y="172.998" class="poly1" width="14.969" height="2.74"/>
  <rect x="97.484" y="181.201" class="poly1" width="14.957" height="2.741"/>
  <rect x="96.984" y="189.751" class="poly1" width="15.443" height="2.74"/>
  <polygon class="poly1" points="96.984,197.955 96.984,200.695 109.494,200.695 109.546,197.955 "/>
  <polygon class="poly1" points="96.984,206.158 96.984,208.898 109.339,208.898 109.391,206.158 "/>
  <rect x="96.984" y="214.361" class="poly1" width="15.405" height="2.742"/>
  <rect x="96.984" y="222.565" class="poly1" width="20.294" height="2.741"/>
  <polygon class="poly1" points="96.984,230.769 96.984,233.509 107.91,233.509 107.757,230.769 "/>
  <rect x="96.984" y="238.972" class="poly1" width="15.367" height="2.74"/>
  <rect x="112.353" y="238.972" class="poly3" width="16.006" height="2.74"/>
  <rect x="96.984" y="247.175" class="poly1" width="18.961" height="2.742"/>
  <rect x="115.945" y="247.175" class="poly3" width="12.417" height="2.742"/>
  <polygon class="poly1" points="96.984,255.379 96.984,258.121 108.834,258.121 108.895,255.379 "/>
  <polygon class="poly3" points="128.361,255.379 108.895,255.379 108.834,258.121 128.361,258.121 "/>
  <polygon class="poly1" points="96.984,263.583 96.984,266.324 108.652,266.324 108.713,263.583 "/>
  <polygon class="poly2" points="128.361,263.583 108.713,263.583 108.652,266.324 128.361,266.324 "/>
  <rect x="96.984" y="271.787" class="poly1" width="15.315" height="2.74"/>
  <rect x="112.302" y="271.787" class="poly2" width="16.058" height="2.74"/>
  <rect x="96.984" y="279.99" class="poly1" width="15.303" height="2.741"/>
  <rect x="112.289" y="279.99" class="poly2" width="16.07" height="2.741"/>
  <polygon class="poly1" points="97.984,288.194 97.984,290.935 116.734,290.935 116.473,288.194 "/>
  <polygon class="poly2" points="129.361,288.194 116.473,288.194 116.734,290.935 129.361,290.935 "/>
  <polygon class="poly1" points="97.984,296.398 97.984,299.138 113.9,299.138 113.921,296.398 "/>
  <polygon class="poly2" points="129.361,296.398 113.921,296.398 113.9,299.138 129.361,299.138 "/>
  <polygon class="poly1" points="97.984,304.601 97.984,307.341 113.84,307.341 113.86,304.601 "/>
  <polygon class="poly2" points="129.361,304.601 113.86,304.601 113.84,307.341 129.361,307.341 "/>
  <rect x="97.984" y="312.804" class="poly2" width="18.627" height="2.742"/>
  <rect x="116.611" y="312.804" class="poly2" width="12.75" height="2.742"/>
  <polygon class="poly2" points="129.361,321.007 113.739,321.007 113.718,323.75 129.361,323.75 "/>
  <polygon class="poly2" points="97.984,321.007 97.984,323.75 113.718,323.75 113.739,321.007 "/>
  <rect x="97.984" y="329.212" class="poly2" width="18.627" height="2.74"/>
  <rect x="116.611" y="329.212" class="poly2" width="12.75" height="2.74"/>
  <polygon class="poly1" points="97.984,337.416 97.984,340.156 110.154,340.156 109.812,337.416 "/>
  <polygon class="poly1" points="97.984,345.619 97.984,348.361 116.863,348.361 116.899,345.619 "/>
  <polygon class="poly2" points="129.361,353.822 113.496,353.822 113.475,356.564 129.361,356.564 "/>
  <polygon class="poly1" points="97.984,353.822 97.984,356.564 113.475,356.564 113.496,353.822 "/>
  <polygon class="poly1" points="97.984,362.027 97.984,364.767 116.647,364.767 116.684,362.027 "/>
  <polygon class="poly2" points="129.361,362.027 116.684,362.027 116.647,364.767 129.361,364.767 "/>
  <polygon class="poly1" points="97.984,370.23 97.984,372.97 113.354,372.97 113.374,370.23 "/>
  <polygon class="poly2" points="129.361,370.23 113.374,370.23 113.354,372.97 129.361,372.97 "/>
  <path class="poly1" d="M97.984,378.433v2.74h19.874 c-0.05-0.918-0.132-1.84-0.26-2.74H97.984z"/>
  <path class="poly2" d="M129.361,378.433h-11.764 c0.128,0.9,0.21,1.822,0.26,2.74h11.504V378.433z"/>
<rect x="145.63" y="401.802" class="poly2" width="2.74" height="19.344"/>
<rect x="145.63" y="421.146" class="poly1" width="2.74" height="12.034"/>
<polygon class="poly2" points="156.545,401.802 153.805,401.802 153.805,417.47 156.545,417.46 "/>
<polygon class="poly1" points="153.805,417.47 153.805,433.18 156.545,433.18 156.545,417.46 "/>
<polygon class="poly2" points="164.72,401.802 161.979,401.802 161.979,417.443 164.72,417.434 "/>
<polygon class="poly1" points="161.979,417.443 161.979,433.18 164.72,433.18 164.72,417.434 "/>
<polygon class="poly2" points="172.896,401.802 170.153,401.802 170.153,420.442 172.896,420.875 "/>
<polygon class="poly1" points="170.153,420.442 170.153,433.18 172.896,433.18 172.896,420.875 "/>
<polygon class="poly2" points="181.069,401.802 178.328,401.802 178.328,412.76 181.069,413.491 "/>
<polygon class="poly1" points="178.328,412.76 178.328,433.18 181.069,433.18 181.069,413.491 "/>
<polygon class="poly1" points="186.503,413.026 186.503,433.18 189.244,433.18 189.244,413.399 "/>
<polygon class="poly2" points="189.244,401.802 186.503,401.802 186.503,413.026 189.244,413.399 "/>
<polygon class="poly2" points="197.418,401.802 194.678,401.802 194.678,417.334 197.418,417.326 "/>
<polygon class="poly1" points="194.678,417.334 194.678,433.18 197.418,433.18 197.418,417.326 "/>
<rect x="202.852" y="413.48" class="poly1" width="2.742" height="19.7"/>
<polygon class="poly1" points="211.026,417.28 211.026,433.18 213.768,433.18 213.768,417.271 "/>
<polygon class="poly1" points="219.202,421.861 219.202,433.18 221.942,433.18 221.942,421.919 "/>
<polygon class="poly1" points="227.376,422.035 227.376,433.18 230.116,433.18 230.116,422.093 "/>
<polygon class="poly2" points="230.116,401.802 227.376,401.802 227.376,422.035 230.116,422.093 "/>
<polygon class="poly2" points="238.292,401.802 235.55,401.802 235.55,417.199 238.292,417.19 "/>
<polygon class="poly1" points="235.55,417.199 235.55,433.18 238.292,433.18 238.292,417.19 "/>
<polygon class="poly2" points="246.466,401.802 243.725,401.802 243.725,417.171 246.466,417.163 "/>
<polygon class="poly1" points="243.725,417.171 243.725,433.18 246.466,433.18 246.466,417.163 "/>
<polygon class="poly2" points="254.64,401.802 251.9,401.802 251.9,413.372 254.64,413.189 "/>
<polygon class="poly1" points="251.9,413.372 251.9,433.18 254.64,433.18 254.64,413.189 "/>
<rect x="260.075" y="401.802" class="poly2" width="2.74" height="21.011"/>
<rect x="260.075" y="422.813" class="poly1" width="2.74" height="10.367"/>
<polygon class="poly2" points="270.99,401.802 268.249,401.802 268.249,417.09 270.99,417.082 "/>
<polygon class="poly1" points="268.249,417.09 268.249,433.18 270.99,433.18 270.99,417.082 "/>
<polygon class="poly2" points="279.165,401.802 276.423,401.802 276.423,413.185 279.165,413.243 "/>
<polygon class="poly1" points="276.423,413.185 276.423,433.18 279.165,433.18 279.165,413.243 "/>
<polygon class="poly2" points="287.338,401.802 284.598,401.802 284.598,413.359 287.338,413.417 "/>
<polygon class="poly1" points="284.598,413.359 284.598,433.18 287.338,433.18 287.338,413.417 "/>
<polygon class="poly1" points="292.773,421.172 292.773,433.18 295.513,433.18 295.513,421.211 "/>
<polygon class="poly2" points="295.513,401.802 292.773,401.802 292.773,421.172 295.513,421.211 "/>
<polygon class="poly2" points="303.688,401.802 300.947,401.802 300.947,416.982 303.688,416.972 "/>
<polygon class="poly1" points="300.947,416.982 300.947,433.18 303.688,433.18 303.688,416.972 "/>
<polygon class="poly2" points="311.863,401.802 309.121,401.802 309.121,421.406 311.863,421.446 "/>
<polygon class="poly1" points="309.121,421.406 309.121,433.18 311.863,433.18 311.863,421.446 "/>
<rect x="129.861" y="-21.218" class="poly1" width="19.395" height="2.741"/>
<polygon class="poly1" points="129.861,-13.015 129.861,-10.274 142.169,-10.274 142.153,-13.015 "/>
<polygon class="poly1" points="129.861,-4.811 129.861,-2.07 145.591,-2.07 145.583,-4.811 "/>
<polygon class="poly1" points="99.144,389.652 99.654,392.344 115.072,389.423 114.379,386.765 "/>
<polygon class="poly2" points="129.974,383.811 114.379,386.765 115.072,389.423 130.484,386.503 "/>
<polygon class="poly1" points="101.613,399.967 102.652,402.504 116.957,396.647 116.259,393.97 "/>
<polygon class="poly2" points="130.651,388.078 116.259,393.97 116.957,396.647 131.689,390.615 "/>
<polygon class="poly1" points="136.036,431.424 138.75,431.805 140.951,416.13 138.266,415.546 "/>
<polygon class="poly2" points="140.4,400.351 138.266,415.546 140.951,416.13 143.113,400.732 "/>
<path class="poly1" d="M125.677,428.341l2.615,0.822l3.544-11.273 c-0.896-0.512-1.63-0.966-2.494-1.209L125.677,428.341z"/>
<path class="poly2" d="M135.087,398.409l-5.745,18.272 c0.863,0.243,1.598,0.697,2.494,1.209l5.867-18.659L135.087,398.409z"/>
<path class="poly1" d="M105.8,409.671l1.455,2.322l9.455-5.922 c-0.566-0.759-0.994-1.553-1.287-2.427L105.8,409.671z"/>
<path class="poly2" d="M132.393,393.016l-16.97,10.629 c0.292,0.874,0.721,1.668,1.287,2.427l17.138-10.733L132.393,393.016z"/>
<polygon class="poly1" points="112.448,418.834 114.503,420.648 124.63,409.174 122.582,407.353 "/>
<polygon class="poly2" points="133.212,395.309 122.582,407.353 124.63,409.174 135.268,397.123 "/>
<polygon class="poly2" points="344.561,401.802 341.82,401.802 341.82,416.846 344.561,416.837 "/>
<polygon class="poly2" points="341.82,416.846 341.82,433.18 344.561,433.18 344.561,416.837 "/>
<polygon class="poly2" points="320.037,401.802 317.297,401.802 317.297,416.927 320.037,416.918 "/>
<polygon class="poly1" points="317.297,416.927 317.297,433.18 320.037,433.18 320.037,416.918 "/>
<rect x="325.472" y="401.802" class="poly2" width="2.74" height="10.344"/>
<rect x="325.472" y="412.146" class="poly1" width="2.74" height="21.034"/>
<polygon class="poly2" points="336.386,401.802 333.646,401.802 333.646,416.874 336.386,416.864 "/>
<polygon class="poly2" points="333.646,416.874 333.646,433.18 336.386,433.18 336.386,416.864 "/>
<polygon class="poly2" points="208.215,33.593 196.838,38.09 197.658,40.713 209.223,36.143 "/>
<polygon class="poly2" points="210.856,39.275 201.146,43.459 201.792,46.166 211.941,41.792 "/>
<rect x="191.752" y="48.346" transform="matrix(-0.3955 -0.9185 0.9185 -0.3955 217.6883 256.092)" class="poly2" width="2.741" height="16.121"/>
<rect x="199.904" y="48.828" transform="matrix(0.9184 -0.3957 0.3957 0.9184 -2.9253 86.2134)" class="poly2" width="15.254" height="2.741"/>
<rect x="193.317" y="58.434" transform="matrix(-0.3958 -0.9184 0.9184 -0.3958 212.3541 269.0489)" class="poly1" width="2.741" height="12.462"/>
<rect x="199.638" y="57.085" transform="matrix(0.9184 -0.3957 0.3957 0.9184 -6.064 87.5158)" class="poly2" width="18.916" height="2.742"/>
<rect x="206.331" y="63.703" transform="matrix(0.9184 -0.3957 0.3957 0.9184 -8.2433 90.1867)" class="poly2" width="16.278" height="2.74"/>
<rect x="198.692" y="63.734" transform="matrix(-0.3957 -0.9184 0.9184 -0.3957 213.7739 283.2204)" class="poly1" width="2.74" height="15.095"/>
<rect x="203.791" y="68.454" transform="matrix(-0.3956 -0.9184 0.9184 -0.3956 214.6684 297.3053)" class="poly1" width="2.74" height="19.128"/>
<rect x="213.444" y="70.438" transform="matrix(0.9184 -0.3957 0.3957 0.9184 -10.4942 92.7379)" class="poly2" width="12.249" height="2.741"/>
<rect x="205.173" y="78.819" transform="matrix(-0.3955 -0.9185 0.9185 -0.3955 208.9256 310.2089)" class="poly1" width="2.741" height="15.07"/>
<rect x="212.799" y="78.775" transform="matrix(0.9183 -0.3958 0.3958 0.9183 -13.6782 93.9903)" class="poly2" width="16.304" height="2.74"/>
<rect x="208.412" y="86.362" transform="matrix(-0.3956 -0.9184 0.9184 -0.3956 206.5519 323.7038)" class="poly1" width="2.742" height="15.058"/>
<rect x="216.034" y="86.311" transform="matrix(0.9184 -0.3957 0.3957 0.9184 -16.3969 95.8795)" class="poly2" width="16.316" height="2.742"/>
<rect x="213.529" y="91.055" transform="matrix(-0.396 -0.9183 0.9183 -0.396 207.602 337.7956)" class="poly1" width="2.741" height="19.128"/>
<rect x="223.183" y="93.04" transform="matrix(0.9184 -0.3957 0.3957 0.9184 -18.6419 98.4504)" class="poly2" width="12.25" height="2.741"/>
<polygon class="poly1" points="208.425,109.761 209.509,112.278 220.853,107.39 219.814,104.854 "/>
<polygon class="poly2" points="237.241,97.345 219.814,104.854 220.853,107.39 238.325,99.861 "/>
<polygon class="poly1" points="211.67,117.295 212.755,119.812 223.959,114.984 222.921,112.446 "/>
<polygon class="poly2" points="240.487,104.877 222.921,112.446 223.959,114.984 241.571,107.396 "/>
<rect x="220.979" y="115.614" transform="matrix(-0.3957 -0.9184 0.9184 -0.3957 197.2551 376.0364)" class="poly1" width="2.743" height="15.008"/>
<rect x="228.576" y="115.538" transform="matrix(0.9184 -0.3957 0.3957 0.9184 -26.9374 103.2413)" class="poly2" width="16.365" height="2.742"/>
<rect x="226.272" y="120.04" transform="matrix(-0.3955 -0.9185 0.9185 -0.3955 198.4753 390.1752)" class="poly1" width="2.741" height="19.462"/>
<rect x="236.092" y="122.192" transform="matrix(0.9184 -0.3958 0.3958 0.9184 -29.1387 105.8829)" class="poly2" width="11.916" height="2.741"/>
<rect x="229.518" y="127.574" transform="matrix(-0.3956 -0.9184 0.9184 -0.3956 196.1229 403.6749)" class="poly1" width="2.74" height="19.461"/>
<rect x="239.338" y="129.726" transform="matrix(0.9184 -0.3958 0.3958 0.9184 -31.8549 107.7799)" class="poly2" width="11.917" height="2.74"/>
<rect x="230.701" y="138.242" transform="matrix(-0.3959 -0.9183 0.9183 -0.3959 190.1279 416.5294)" class="poly1" width="2.741" height="14.969"/>
<rect x="238.278" y="138.149" transform="matrix(0.9184 -0.3957 0.3957 0.9184 -35.0905 108.9274)" class="poly2" width="16.405" height="2.739"/>
<polygon class="poly1" points="227.901,154.964 228.987,157.481 242.722,151.563 241.642,149.044 "/>
<polygon class="poly2" points="256.718,142.547 241.642,149.044 242.722,151.563 257.803,145.065 "/>
<rect x="237.09" y="153.495" transform="matrix(-0.3957 -0.9184 0.9184 -0.3957 184.7743 444.0096)" class="poly1" width="2.74" height="15.443"/>
<rect x="244.903" y="153.639" transform="matrix(0.9184 -0.3957 0.3957 0.9184 -40.6999 112.7264)" class="poly2" width="15.93" height="2.739"/>
<polygon class="poly2" points="262.89,158.131 245.609,165.577 246.646,168.115 263.974,160.648 "/>
<polygon class="poly1" points="234.073,170.548 235.158,173.065 246.646,168.115 245.609,165.577 "/>
<polygon class="poly1" points="237.319,178.081 238.403,180.599 249.75,175.709 248.714,173.172 "/>
<polygon class="poly2" points="266.135,165.665 248.714,173.172 249.75,175.709 267.219,168.182 "/>
<rect x="246.809" y="176.123" transform="matrix(-0.3955 -0.9185 0.9185 -0.3955 177.5092 484.4763)" class="poly1" width="2.744" height="15.405"/>
<rect x="254.605" y="176.247" transform="matrix(0.9184 -0.3957 0.3957 0.9184 -48.8496 118.3979)" class="poly2" width="15.968" height="2.742"/>
<rect x="252.302" y="180.245" transform="matrix(-0.3954 -0.9185 0.9185 -0.3954 179.0846 498.6707)" class="poly1" width="2.743" height="20.294"/>
<rect x="262.539" y="182.813" transform="matrix(0.9183 -0.3958 0.3958 0.9183 -51.0074 121.1459)" class="poly2" width="11.083" height="2.741"/>
<polygon class="poly2" points="275.874,188.267 256.952,196.421 258.176,198.878 276.958,190.784 "/>
<polygon class="poly1" points="247.058,200.683 248.143,203.2 258.176,198.878 256.952,196.421 "/>
<rect x="256.533" y="198.753" transform="matrix(-0.3959 -0.9183 0.9183 -0.3959 170.429 524.9921)" class="poly1" width="2.739" height="15.366"/>
<rect x="264.308" y="198.857" transform="matrix(0.9184 -0.3957 0.3957 0.9184 -57.0004 124.0803)" class="poly2" width="16.006" height="2.741"/>
<rect x="261.429" y="203.778" transform="matrix(-0.3959 -0.9183 0.9183 -0.3959 171.0139 539.0168)" class="poly2" width="2.742" height="18.961"/>
<rect x="270.999" y="205.68" transform="matrix(0.9184 -0.3957 0.3957 0.9184 -59.3029 126.5848)" class="poly2" width="12.417" height="2.742"/>
<g>
 <path class="poly6" d="M143.121,430.747c-11.272,0-20.563-3.661-27.612-10.884
  c-16.258-16.656-15.715-46.988-15.708-47.293l-2.38-0.06h2.164l0.17-295.772c-0.046-0.233-4.342-23.651,23.623-55.105
  c5.951-5.88,9.227-13.398,9.227-21.178l-0.336-49.335c-1.479,0.192-2.966,0.397-4.463,0.609V0.455
  c0,6.508-2.788,12.834-7.851,17.813l-0.11,0.115C90.249,51.636,94.839,76.633,95.049,77.68l0.17,294.775l-0.216-0.006
  c-0.033,1.323-0.615,32.627,17.056,50.75c7.989,8.193,18.439,12.348,31.062,12.348h194.824c0-1.601,0-3.2,0-4.801H143.121z"/>
 <path class="poly7" d="M125.838,123.147v30.679
  c1.452,0.022,2.909,0.105,4.366,0.226v-30.904C128.77,123.147,127.294,123.147,125.838,123.147z"/>
 <path class="poly7" d="M130.205,237.787
  c-1.483-0.075-2.952-0.068-4.366,0.072v84.483c1.425-0.63,2.877-1.231,4.366-1.754V237.787z"/>
 <path class="poly7" d="M152.394,400.428
  c-6.552-0.062-11.738-2.096-15.414-6.045c-7.246-7.784-6.579-20.628-6.563-20.896v-0.003l-2.395-0.152h2.183v-13.396
  c-1.449-0.099-2.909-0.153-4.366-0.195v13.449l-0.212-0.014c-0.04,0.611-0.874,15.091,7.818,24.454
  c4.61,4.966,10.97,7.522,18.927,7.599h47.038c-0.247-1.601-0.499-3.2-0.622-4.801H152.394z"/>
 <path class="poly7" d="M222.011,400.428
  c-0.148,1.584-0.142,3.187-0.035,4.801h120.969c0-1.601,0-3.2,0-4.801H222.011z"/>
 <path class="poly6" d="M179.872,37.995l0.142-0.099
  c-0.023-0.033-0.425-0.643-1.004-1.804c-1.426,0.726-2.87,1.426-4.328,2.103c0.731,1.454,1.272,2.269,1.381,2.426l0.143-0.098
  l76.492,177.955c1.214-0.853,2.454-1.654,3.717-2.409L179.872,37.995z"/>
 <path class="poly7" d="M275.341,182.563
  c-4.282-9.962-8.564-19.923-12.846-29.885c-4.243-9.871-8.486-19.741-12.729-29.612c-4.008-9.324-8.016-18.648-12.023-27.973
  c-3.577-8.322-7.154-16.644-10.731-24.966c-2.951-6.864-5.901-13.728-8.852-20.592c-2.128-4.95-4.256-9.901-6.384-14.852
  c-1.128-2.625-2.525-5.194-3.556-7.828c-1.146-2.926-5.575-11.094-5.575-11.094c-2.173-5.621-7.499-11.381-18.242-13.46
  c-14.276-2.764-20.283-9.155-21.334-17.096l-0.191-33.019c-1.466-0.426-2.923-0.78-4.373-1.07l0.199,34.364
  c0,0,1.297,7.335,5.542,11.733c5.145,5.332,18.5,8.264,18.5,8.264c8.75,2.293,12.943,4.947,16.143,11.452
  c2.193,4.459,5.286,10.894,5.286,10.894l-0.083,0.036l76.732,178.512c1.418-0.384,2.844-0.753,4.275-1.112
  C281.846,197.695,278.593,190.128,275.341,182.563z"/>
</g>
<polygon class="poly2" points="161.239,-36.655 145.492,-36.655 145.5,-33.914 161.239,-33.914 "/>
<polygon class="poly2" points="161.239,-28.451 145.516,-28.451 145.524,-25.71 161.239,-25.71 "/>
<polygon class="poly2" points="167.298,-2.998 149.502,3.754 150.55,6.288 168.27,-0.435 "/>
<rect x="149.254" y="-21.218" class="poly2" width="11.987" height="2.741"/>
<polygon class="poly2" points="161.239,-13.015 142.153,-13.015 142.169,-10.274 161.239,-10.274 "/>
<polygon class="poly2" points="164.8,-7.205 149.282,-5.133 149.652,-2.417 165.162,-4.488 "/>
<path class="poly4" d="M130.204,124.717l0.244-17.691l-4.948,0.062l-0.206,20.814
 l0.174-0.002c0.444,1.065,1.697,1.83,3.182,1.812c1.84-0.022,3.319-1.232,3.3-2.701
 C131.938,126.011,131.229,125.159,130.204,124.717z"/>
<path class="poly5" d="M136.015,159.866
 c0,5.977-4.283,10.821-9.565,10.821H98.844c-5.283,0-9.565-4.845-9.565-10.821l0,0c0-5.977,4.283-10.822,9.565-10.822h27.606
 C131.732,149.044,136.015,153.889,136.015,159.866L136.015,159.866z"/>
<path class="poly4" d="M130.942,254.753l0.244-17.69l-4.948,0.061l-0.206,20.814
 l0.174-0.002c0.444,1.064,1.697,1.83,3.182,1.811c1.84-0.021,3.319-1.231,3.3-2.7C132.677,256.047,131.967,255.195,130.942,254.753z
 "/>
<path class="poly4" d="M130.204,369.746l0.244-17.69l-4.948,0.061l-0.206,20.814
 l0.174-0.002c0.444,1.064,1.697,1.83,3.182,1.811c1.84-0.021,3.319-1.231,3.3-2.7C131.938,371.04,131.229,370.187,130.204,369.746z"
 />
<path class="poly5" d="M135.476,323.39
 c0,5.977-4.283,10.821-9.565,10.821H98.304c-5.283,0-9.565-4.845-9.565-10.821l0,0c0-5.977,4.283-10.821,9.565-10.821h27.606
 C131.193,312.569,135.476,317.414,135.476,323.39L135.476,323.39z"/>
<path fill="#9342E2" stroke="#000000" stroke-miterlimit="10" d="M132.277,304.341c0,1.887-1.529,3.416-3.417,3.416H95.354
 c-1.887,0-3.417-1.529-3.417-3.416l0,0c0-1.888,1.53-3.417,3.417-3.417h33.507C130.748,300.924,132.277,302.454,132.277,304.341
 L132.277,304.341z"/>
<path class="poly5" d="M240.041,357.151
 c4.499,3.935,5.325,10.348,1.847,14.323l-18.175,20.779c-3.479,3.976-9.945,4.01-14.443,0.075l0,0
 c-4.499-3.935-5.326-10.348-1.847-14.323l18.175-20.779C229.076,353.25,235.542,353.216,240.041,357.151L240.041,357.151z"/>
<ellipse transform="matrix(0.938 0.3467 -0.3467 0.938 166.3532 -49.8014)" fill="#F47A0C" stroke="#FF9E29" stroke-miterlimit="10" cx="222.351" cy="439.987" rx="11.54" ry="15.667"/>
<path fill="none" stroke="#000000" stroke-miterlimit="10" d="M369.085,401.802"/>
<path fill="#F92121" d="M372.896,436.664c-9.094,0-15.479-10.222-21.111-19.24c-3.553-5.689-7.58-12.138-10.381-12.138v-5
 c5.575,0,9.768,6.714,14.624,14.488c4.943,7.917,10.547,16.89,16.869,16.89"/>
<path fill="none" stroke="#000000" stroke-linejoin="round" stroke-miterlimit="10" d="M341.452,400.286
 c5.575,0,9.769,6.714,14.624,14.488c4.943,7.917,10.547,16.89,16.869,16.89"/>
<path fill="none" stroke="#000000" stroke-linejoin="round" stroke-miterlimit="10" d="M372.896,436.607
 c-9.094,0-15.479-10.222-21.111-19.24c-3.553-5.689-7.579-12.138-10.381-12.138"/>
<path class="poly2" d="M365.31,430.556
 c1.35,0.211,1.412-1.075,1.412-1.075l-0.092-14.059l-2.74,0.026l0.089,13.378C363.979,428.827,363.96,430.345,365.31,430.556z"/>
<polygon class="poly1" points="366.63,415.422 366.545,402.557 
 365.223,401.017 363.816,404.037 363.89,415.449 "/>
<path class="poly2" d="M361.611,424.963
 c-0.119-2.41-0.8-4.875-0.8-7.253c0,0-2.707,0.421-2.708,0.421c-0.01,0.002,0.514,3.289,0.542,3.552
 c0.177,1.667,0.362,3.281,1.951,4.261c1.069,0.658,1.062,0.236,1.021-0.806C361.616,425.08,361.614,425.021,361.611,424.963z"/>
<path class="poly1" d="M357.15,411.881l0.953,6.25l2.708-0.421 l-1.325-8.688C358.637,409.941,357.846,410.887,357.15,411.881z"/>
<path class="poly2" d="M347.988,407.742l1.336,11.898l2.723-0.306 l-1.315-11.726C349.51,406.966,348.632,407.121,347.988,407.742z"/>
<path class="poly6" d="M367.714,399.169c5.575,0,9.769,6.714,14.624,14.488
 c4.943,7.917,10.547,16.89,16.869,16.89v5c-9.094,0-15.479-10.222-21.111-19.24c-3.553-5.689-7.58-12.138-10.382-12.138"/>
<path class="poly2" d="M395.607,408.768
 c-0.646-0.052-1.396,0.782-1.679,1.448c-0.431,1.016-0.551,2.177-0.672,3.263c-0.187,1.666-0.372,3.331-0.558,4.996l2.726,0.296
 c0.119-1.069,0.238-2.139,0.357-3.207c0.116-1.046,0.232-2.093,0.349-3.139c0.084-0.75,0.532-2.169,0.262-2.884
 C396.193,409.014,395.911,408.793,395.607,408.768z"/>
<path class="poly1" d="M392.699,418.475
 c-0.267,2.393-0.533,4.785-0.8,7.178c-0.144,1.29-0.744,3.229-0.184,4.419c0.258,0.546,1.16,1.529,1.868,1.286
 c0.69-0.236,0.566-1.131,0.627-1.715c0.128-1.238,0.276-2.475,0.414-3.712c0.267-2.387,0.533-4.773,0.8-7.16L392.699,418.475z"/>
<path class="poly2" d="M371.153,414.284l-2.865,18.275
 c1.104-0.205,2.053-0.428,2.886-0.701l2.683-17.11L371.153,414.284z"/>
<path class="poly1" d="M373.856,414.748
 c0.236-1.508,2.364-9.03-0.43-9.212c-1.104-0.072-1.107,1.362-1.239,2.153c-0.368,2.194-0.689,4.396-1.034,6.595L373.856,414.748z"
 />
<path class="poly5" d="M215.31,27.326
 c2.469,5.442,0.571,11.624-4.24,13.806l-25.14,11.405c-4.811,2.183-10.713-0.46-13.182-5.903l0,0
 c-2.469-5.442-0.571-11.624,4.24-13.807l25.14-11.405C206.938,19.24,212.84,21.883,215.31,27.326L215.31,27.326z"/>
<path fill="#9342E2" stroke="#000000" stroke-miterlimit="10" d="M219.721,44.63c0.752,1.73-0.041,3.743-1.771,4.495l-30.728,13.36
 c-1.73,0.752-3.743-0.041-4.496-1.771l0,0c-0.752-1.731,0.041-3.744,1.771-4.496l30.728-13.36
 C216.956,42.106,218.968,42.899,219.721,44.63L219.721,44.63z"/>
<path fill="#F2C819" stroke="#EA490A" stroke-miterlimit="10" d="M172.996-43.11c0,3.521-4.537,6.636-11.495,8.537
 c-4.476,1.222-9.954-3.06-15.871-3.06c-5.875,0-11.316,4.292-15.774,3.086c-7.012-1.897-11.591-5.025-11.591-8.563
 c0-5.786,12.251-10.476,27.365-10.476S172.996-48.896,172.996-43.11z"/>
<polygon class="poly1" points="129.659,-49.869 130.535,-47.271 141.979,-51.133 141.089,-53.726 "/>
<path fill="#0F630F" stroke="#4AE823" stroke-width="2" stroke-miterlimit="10" d="M187.177-7.88
 c5.129,3.919,6.688,10.5,3.479,14.697l-16.76,21.936c-2.932,3.835-8.313,3.948-12.781,1.969
 c-5.897-2.612-10.853-8.861-12.148-14.947c-0.16-0.751-0.46-3.934,0.533-4.186c0.623-0.158,4.656,4.461,5.921,4.931
 c-0.679-0.251,6.122-10.146,6.804-11.068c3.194-4.317,6.578-8.538,9.855-12.828C175.288-11.575,182.046-11.8,187.177-7.88z"/>
  
<path fill="#65479C" stroke="#000000" stroke-linejoin="round" stroke-miterlimit="10" d="M99.376,92.17c0,0,5.174,1.626,1.12,5.233
 c0.553-2.764-2.187-1.827-2.187-1.827c-1.078,1.547-2.87,2.56-4.898,2.56c-3.294,0-5.965-2.671-5.965-5.965s2.67-5.965,5.965-5.965
 C96.706,86.205,99.376,88.876,99.376,92.17z"/>
  
  <g>
    <text transform="matrix(1 0 0 1 242.8604 -59.7466)" class="text2">Topoisomerase</text>
    <text transform="matrix(1 0 0 1 244.5669 -47.1987)" class="text4">Enables DNA to unwind</text>
    <line class="leader" x1="170.153" y1="-43.96" x2="239.818" y2="-60.536"/>
  </g>
  <g>
    <text transform="matrix(1 0 0 1 244.1743 -22.6182)" class="text2">CMG Helicase</text>
    <line class="leader" x1="239.818" y1="-25.274" x2="181.576" y2="-0.869"/>
  </g>
  <g>
    <text transform="matrix(1 0 0 1 244.1743 1.9463)" class="text2">Pol ε (epsilon)</text>
    <text transform="matrix(1 0 0 1 244.1743 14.2451)" class="text4">Primary leading strand polymerase</text>
    <line class="leader" x1="208.425" y1="31.774" x2="238.85" y2="2.18"/>
  </g>
  <g>
    <text transform="matrix(1 0 0 1 244.1421 37.2827)" class="text2">Sliding Clamp </text>
    <text transform="matrix(1 0 0 1 244.5669 47.1147)" class="text4">(PCNA)</text>
    <line class="leader" x1="213.994" y1="45.921" x2="239.818" y2="33.316"/>
  </g>
  
<g>
 <path fill="#923DD3" stroke="#D263F7" stroke-miterlimit="10" d="M93.371,2.146c-0.521,1.294-1.12,2.554-1.879,3.771
  c-0.869,1.394-2.031,3.244-3.454,4.118c-1.69,1.039-3.748,1.122-5.576,0.523c-1.983-0.648-3.801-0.936-5.625-2.074
  c-2.71-1.69-5.505-3.738-7.643-6.128c-1.518-1.699-2.904-3.588-3.918-5.632c-0.755-1.521-1.451-3.735-0.552-5.291
  c0.971-1.681,2.982-2.726,4.784-3.258c2.825-0.835,5.843-0.703,8.628-1.671c2.641-0.917,4.629-2.546,6.696-4.389
  c0.659-0.586,1.31-1.179,1.959-1.774c0.623-0.569,1.384-1.044,2.237-1.151c3.55-0.441,6.581,3.494,7.109,6.635
  c0.36,2.14,0.381,4.132,0.137,6.283c-0.183,1.617-0.494,3.094-1.015,4.636C94.637-1.414,94.076,0.396,93.371,2.146z"/>
 <g>
  <polygon class="poly3" points="90.316,11.255 104.815,23.043 107.419,21.628 92.044,9.127"/>
  <polygon class="poly3" points="95.397,6.344 104.809,14.159 106.715,12.179 97.149,4.235"/>
  <polygon class="poly3" points="99.322,1.248 107.482,7.971 109.595,6.159 101.065,-0.869"/>
  <path class="poly4" d="M97.417-2.393L87.254,10.844l3.184,2.336l12.012-15.757
   l-0.111-0.082c0.354-1.067,0.017-2.283-0.94-2.984c-1.185-0.869-2.85-0.612-3.718,0.572C97.089-4.265,97.031-3.242,97.417-2.393z"
   />
 </g>
</g>
  <g>
    <text transform="matrix(1 0 0 1 22.9688 -46.001)" class="text2">Primase</text>
    <text transform="matrix(1 0 0 1 22.9688 -34.396)" class="text4"><tspan x="0" y="0">Creates </tspan><tspan x="0" y="12">RNA primers</tspan></text>
    <line class="leader" x1="87.446" y1="-43.96" x2="87.254" y2="-7.618"/>
  </g>
  
  <g>
    <text transform="matrix(1 0 0 1 122.6563 186.3843)" class="text2">Pol α (alpha)</text>
    <text transform="matrix(1 0 0 1 122.21 197.8101)" class="text4"><tspan x="0" y="0">Synthesizes first stretch</tspan><tspan x="0" y="12">of DNA after primer</tspan></text>
  </g>
  <g>
    <text transform="matrix(1 0 0 1 140.6895 315.3101)" class="text2">Pol δ (delta)</text>
    <text transform="matrix(1 0 0 1 148.3706 326.5952)" class="text4"><tspan x="0" y="0">Primary lagging </tspan><tspan x="0" y="12">strand polymerase</tspan></text>
  </g>
  <g>
    <text transform="matrix(1 0 0 1 242.0117 350.6548)" class="text2">Pol α (alpha)</text>
    <text transform="matrix(1 0 0 1 250.9194 362.4731)" class="text4">Fills gap left by primer</text>
  </g>
  <g>
    <text transform="matrix(1 0 0 1 248.6865 449.9595)" class="text2">RNAse</text>
    <text transform="matrix(1 0 0 1 258.6597 460.4829)" class="text4">Exonuclease removes RNA Primer</text>
  </g>
<g>
 <polygon class="poly2" points="228.933,457.891 245.708,466.123 247.929,464.159 230.14,455.43  "/>
 <polygon class="poly2" points="229.417,439.436 241.587,438.194 241.509,435.445 229.139,436.708  "/>
 <polygon class="poly4" points="226.092,442.488 229.987,441.972 228.966,434.897 225.097,435.427  "/>
 <polygon class="poly4" points="225.857,458.178 229.486,459.739 231.897,454.409 228.336,452.748  "/>
</g>
  <text transform="matrix(1 0 0 1 298.7993 392.3442)" class="text2">Ligase</text>
  
<rect x="149.119" y="-110.487" class="poly2" width="12.122" height="2.741"/>
<path class="poly2" d="M159.169-101.977l-14.362-0.789l-0.143,2.737 l13.003,0.714C158.03-100.345,158.38-101.283,159.169-101.977z"/>
<rect x="146.463" y="-72.55" class="poly1" width="12.06" height="2.741"/>
<path class="poly7" d="M149.241-56.74
 c-7.99-4.826-17.046-10.294-17.141-16.614l-5,0.076c0.138,9.092,10.454,15.321,19.556,20.818c4.441,2.682,9.327,5.638,11.339,8.137
 c1.96,0.577,3.921,0.858,5.882,1.194C163.196-48.305,156.71-52.231,149.241-56.74z"/>
<path class="poly2" d="M134.664-63.743
 c-0.156,1.125,0.816,1.547,0.816,1.547l9.661,1.16l0.319-2.723l-9.608-1.153C135.852-64.912,134.82-64.868,134.664-63.743z"/>
<path class="poly6" d="M164.12-76.756c0.083,5.575-6.567,9.87-14.267,14.84
 c-7.842,5.063-16.729,10.801-16.634,17.122l-2.607,0.834l-2.392-0.759c-0.138-9.092,9.987-15.63,18.92-21.398
 c5.635-3.638,12.022-7.762,11.979-10.563"/>
<path class="poly6" d="M164.102-76.585c-0.084-5.575-3.308-10.512-15.605-14.389
 c-13.875-4.375-15.989-14.034-16.507-16.625l-0.043-7.494c-1.457,0.143-2.905,0.312-4.364,0.503l0.041,7.057
 c0,0-0.094,14.088,19.186,20.825c8.018,2.802,12.25,7.396,12.293,10.198"/>
<path fill="none" stroke="#000000" stroke-linecap="round" stroke-linejoin="round" stroke-miterlimit="10" d="M156.107-72.416
 c0,0,3.839-3.405,5.437-7.998"/>
<polygon class="poly2" points="129.229,-76.02 129.865,-73.354 144.962,-76.956 144.319,-79.619 "/>
<path class="poly1" d="M158.111-82.91l-13.792,3.291l0.643,2.664 l14.207-3.389c0,0,1.309-0.638,0.918-1.545C159.445-83.383,158.111-82.91,158.111-82.91z"/>
<polygon class="poly2" points="132.035,-82.277 132.977,-79.703 144.143,-83.789 143.187,-86.358 "/>
<path class="poly1" d="M149.941-88.83l-6.755,2.472l0.957,2.569 l7.283-2.665c0,0,0.536-1.055,0-1.805S149.941-88.83,149.941-88.83z"/>
<path class="poly1" d="M135.367-95.602
 c-0.125,0.969,0.937,1.651,0.937,1.651l6.908,1.24l0.477-2.699l-7.266-1.304C136.422-96.714,135.492-96.571,135.367-95.602z"/>
<path class="poly2" d="M149.127-94.434l-5.439-0.976l-0.477,2.699 l2.88,0.517C147.212-92.945,148.324-93.625,149.127-94.434z"/>
<path fill="#F92121" stroke="#000000" stroke-linecap="round" stroke-miterlimit="10" d="M131.575-71.974
 c1.014-5.409,9.317-12.134,17.159-17.197c7.7-4.972,14.35-9.266,14.267-14.84l-0.546-30.342l-4.368-0.321l-0.085,30.738
 c0.042,2.801-6.345,6.925-11.98,10.563c-8.932,5.768-19.014,11.866-18.876,20.958"/>
<path fill="none" stroke="#000000" stroke-linecap="round" stroke-miterlimit="10" d="M132.589-74.734c0,0-2.834,5.539-0.709,9.851" />
<path class="poly1" d="M129.023-109.117
 c-0.026,1.093,0.989,1.371,0.989,1.371h19.109l-0.004-2.741h-19.119C129.998-110.487,129.049-110.209,129.023-109.117z"/>
<path class="poly1" d="M130.55-102.176
 c-0.096,1.183,0.862,1.419,0.862,1.419l13.253,0.728l0.143-2.737l-13.246-0.728C131.562-103.493,130.619-103.425,130.55-102.176z"/>
<path class="poly2" d="M146.802-55.654l-5.713,1.928l0.891,2.592
 l6.419-2.167c0,0,0.676-0.804,0.265-1.708C148.195-56.04,146.802-55.654,146.802-55.654z"/>
<path class="poly2" d="M131.696-71.073
 c-0.126,1.181,1.379,1.264,1.379,1.264h13.39l-0.004-2.741h-13.872C132.589-72.55,131.84-72.416,131.696-71.073z"/>
<path class="poly2" d="M155.193-50.583
 c-0.89-1.361-2.123-0.665-2.123-0.665l-12.513,5.401c2.407-0.421,5.048-0.508,7.565-0.281l6.433-2.776
 C154.555-48.903,155.735-49.757,155.193-50.583z"/>
<path fill="none" stroke="#EA490A" stroke-linecap="round" stroke-miterlimit="10" d="M125.21-45.445
 c7.417,4.5,11.591-1.248,21.352-0.684c7.648,0.1,13.731,3.684,19.148,2.684"/>
<path fill="#65479C" stroke="#000000" stroke-linejoin="round" stroke-miterlimit="10" d="M104.215,44.316
 c0,0,5.174,1.626,1.12,5.233c0.553-2.764-2.187-1.827-2.187-1.827c-1.078,1.547-2.87,2.56-4.898,2.56
 c-3.294,0-5.965-2.671-5.965-5.965s2.67-5.965,5.965-5.965C101.544,38.351,104.215,41.021,104.215,44.316z"/>
  
  <g>
    <text transform="matrix(1 0 0 1 21.9688 52.3726)" class="text2">SSB’s</text>
    <text transform="matrix(1 0 0 1 21.9688 64.1851)" class="text4"><tspan x="0" y="0">Single strand </tspan><tspan x="0" y="12">binding protein </tspan></text>
    <line class="leader" x1="65.298" y1="50.309" x2="99.585" y2="44.316"/>
  </g>
  
<polygon fill="#FFFFFF" points="127.436,157.917 118.038,157.953 122.92,164.328 "/>
<polygon fill="#FFFFFF" points="183.659,45.649 192.114,41.546 184.953,37.915 "/>
<polygon fill="#FFFFFF" points="128.178,321.39 118.78,321.425 123.663,327.8 "/>
<polygon fill="#FFFFFF" points="232.789,361.105 226.602,368.177 234.613,368.731 "/>
<polygon class="poly1" points="279.698,276.644 281.497,278.711 
 290.61,270.784 288.8,268.727 "/>
<rect x="274.688" y="210.771" transform="matrix(0.9248 -0.3805 0.3805 0.9248 -59.6022 122.7816)" class="poly2" width="12.122" height="2.742"/>
<path class="poly2" d="M287.156,217.225l-13.581,4.737l0.91,2.585
 l12.295-4.288C286.723,219.169,286.69,218.167,287.156,217.225z"/>
<rect x="286.672" y="246.877" transform="matrix(0.9247 -0.3807 0.3807 0.9247 -72.461 130.1078)" class="poly1" width="12.06" height="2.74"/>
<path class="poly7" d="M295.191,262.836
 c-9.225-1.421-19.681-3.032-22.174-8.841l-4.595,1.975c3.588,8.354,15.499,10.188,26.008,11.809
 c5.128,0.789,10.77,1.662,13.583,3.209c2.031-0.214,3.951-0.699,5.892-1.134C311.308,265.326,303.814,264.164,295.191,262.836z"/>
<path class="poly1" d="M291.373,274.02l-8.89,4.72
 c0.377,0.955,0.722,1.801,1.521,2.295l8.649-4.591L291.373,274.02z"/>
<path class="poly2" d="M279.045,261.909
 c0.284,1.1,1.344,1.12,1.344,1.12l9.375-2.604l-0.741-2.64l-9.324,2.592C279.7,260.376,278.762,260.808,279.045,261.909z"/>
<path fill="#FC7D70" d="M300.777,239.087c2.2,5.123-1.887,11.627-7.115,19.154c-5.325,7.664-11.473,16.623-8.979,22.433l-1.143,2.71
 l-3.338-1.007c-3.589-8.354,3.286-18.255,9.352-26.988c3.826-5.51,7.735-11.755,6.628-14.33"/>
<path fill="none" stroke="#000000" stroke-miterlimit="10" d="M300.777,239.087c2.2,5.123-1.887,11.627-7.115,19.154
 c-5.325,7.664-11.36,16.354-8.866,22.164"/>
<g>
 <g>
  <path fill="#FC7D70" d="M300.777,239.087c-2.2-5.124-7.058-8.462-19.906-7.366c-14.496,1.233-20.127-6.894-21.592-9.094
   l-2.892-6.912c-0.776,0.412-1.948-0.426-2.714,0c-0.512,0.285-0.619,1.831-1.13,2.124l2.724,6.511c0,0,5.274,13.064,25.667,11.957
   c8.48-0.462,14.144,2.178,15.249,4.752"/>
  <path fill="none" stroke="#000000" stroke-miterlimit="10" d="M252.543,217.839l2.724,6.511c0,0,5.274,13.064,25.667,11.957
   c8.48-0.462,14.144,2.178,15.249,4.752"/>
 </g>
 <path fill="none" stroke="#000000" stroke-miterlimit="10" d="M300.777,239.087c-2.2-5.124-7.058-8.462-19.906-7.366
  c-14.496,1.233-20.127-6.894-21.592-9.094l-2.892-6.912"/>
</g>
<polygon class="poly2" points="269.348,252.625 270.95,254.846 283.541,245.77 281.933,243.551 "/>
<path class="poly1" d="M293.435,235.261l-11.501,8.29l1.607,2.219
 l11.848-8.541c0,0,0.968-1.086,0.261-1.777C294.488,234.314,293.435,235.261,293.435,235.261z"/>
<polygon class="poly2" points="269.561,245.771 271.411,247.793 280.183,239.765 278.32,237.751 "/>
<path class="poly1" d="M283.626,232.895l-5.306,4.856l1.862,2.014
 l5.72-5.237c0,0,0.093-1.18-0.687-1.669C284.437,232.369,283.626,232.895,283.626,232.895z"/>
<path class="poly1" d="M267.57,232.179
 c0.253,0.942,1.496,1.171,1.496,1.171l6.86-1.482l-0.586-2.679l-7.216,1.561C268.124,230.75,267.317,231.235,267.57,232.179z"/>
<path class="poly2" d="M280.74,228.022l-5.4,1.167l0.586,2.679 l2.859-0.618C279.536,230.129,280.304,229.076,280.74,228.022z"/>
<g>
 <path fill="#F92121" d="M273.058,255.472c-1.122-5.388,3.997-14.767,9.322-22.433c5.229-7.528,9.744-14.029,7.546-19.154
  l-12.048-26.249h-4.753l12.206,28.222c1.106,2.574-3.232,8.819-7.059,14.328c-6.065,8.733-13.067,18.209-9.48,26.565"/>
 <path fill="none" stroke="#000000" stroke-linecap="round" stroke-miterlimit="10" d="M273.125,187.636l12.206,28.222
  c1.106,2.574-3.232,8.819-7.059,14.328c-6.065,8.733-13.067,18.209-9.48,26.565"/>
 <path fill="none" stroke="#000000" stroke-linecap="round" stroke-miterlimit="10" d="M273.058,255.472
  c-1.122-5.388,3.997-14.767,9.322-22.433c5.229-7.528,9.744-14.029,7.546-19.154l-12.048-26.249"/>
</g>
<path fill="none" stroke="#000000" stroke-linecap="round" stroke-miterlimit="10" d="M272.944,252.534c0,0-0.513,6.2,3.093,9.379"/>
<path class="poly1" d="M256.561,222.096
 c0.392,1.021,1.436,0.891,1.436,0.891l17.67-7.271l-1.047-2.534l-17.68,7.276C256.94,220.458,256.168,221.076,256.561,222.096z"/>
<path class="poly1" d="M260.615,227.934
 c0.362,1.13,1.336,0.983,1.336,0.983l12.534-4.37l-0.91-2.585l-12.526,4.367C261.049,226.33,260.203,226.753,260.615,227.934z"/>
<path class="poly2" d="M293.35,264.77l-4.549,3.957l1.81,2.057
 l5.112-4.444c0,0,0.318-1.002-0.407-1.683C294.49,263.882,293.35,264.77,293.35,264.77z"/>
<path class="poly2" d="M273.511,256.258
 c0.333,1.143,1.756,0.645,1.756,0.645l12.382-5.095l-1.046-2.532l-12.827,5.278C273.776,254.554,273.134,254.964,273.511,256.258z"
 />
<rect x="291.079" y="270.109" transform="matrix(0.8833 -0.4688 0.4688 0.8833 -92.3698 171.8964)" class="poly2" width="16.006" height="2.741"/>
<rect x="237.948" y="185.869" transform="matrix(0.9173 -0.3981 0.3981 0.9173 -55.5121 119.8032)" fill="#F2AE25" stroke="#CC660A" stroke-miterlimit="10" width="45.558" height="15.408"/>
<path fill="#FC7D70" d="M367.89,399.169c-5.575,0-9.769,6.714-14.624,14.488c-4.944,7.917-10.548,16.89-16.87,16.89v5
 c9.094,0,15.478-10.222,21.111-19.24c3.553-5.689,7.58-12.138,10.383-12.138"/>
<path fill="none" stroke="#000000" stroke-miterlimit="10" d="M336.396,435.547c9.094,0,15.478-10.222,21.111-19.24
 c3.553-5.689,7.58-12.138,10.383-12.138"/>
<path fill="none" stroke="#000000" stroke-miterlimit="10" d="M367.89,399.169c-5.575,0-9.769,6.714-14.624,14.488
 c-4.944,7.917-10.548,16.89-16.87,16.89"/>
<rect x="287.803" y="408.837" transform="matrix(0.0036 -1 1 0.0036 -110.4608 723.4698)" fill="#F2AE25" stroke="#CC660A" stroke-miterlimit="10" width="39.987" height="16.651"/>
<path class="poly7" d="M372.702,436.664
 c9.094,0,15.478-10.222,21.11-19.24c3.553-5.689,7.58-12.138,10.383-12.138v-5c-5.575,0-9.769,6.714-14.624,14.488
 c-4.944,7.917-10.548,16.89-16.869,16.89"/>
<path fill="none" stroke="#000000" stroke-linecap="round" stroke-miterlimit="10" d="M371.571,402.617c0,0-2.375-0.583-4.895,1.896
 "/>
<path fill="none" stroke="#000000" stroke-linecap="round" stroke-linejoin="round" stroke-miterlimit="10" d="M366.164,432.054
 c1.321,0.345,2.701,0.574,4.07,0.485c0.984-0.064,1.811-0.307,2.711-0.673c0.798-0.324,1.491-0.749,2.25-1.156"/>

  <text transform="matrix(1 0 0 1 132.5894 112.4463)" class="text3">5&apos;</text>
  <text transform="matrix(1 0 0 1 132.5894 148.9595)" class="text3">3&apos;</text>
  <text transform="matrix(1 0 0 1 135.2676 238.9722)" class="text3">5&apos;</text>
  <text transform="matrix(1 0 0 1 134.5771 301.5269)" class="text3">3&apos;</text>
  <text transform="matrix(1 0 0 1 82.9688 249.9175)" class="text3">5&apos;</text>
  <text transform="matrix(1 0 0 1 82.9688 217.8218)" class="text3">3&apos;</text>
  <text transform="matrix(1 0 0 1 239.2822 89.6504)" class="text3">5&apos;</text>
  <text transform="matrix(1 0 0 1 250.3042 112.2778)" class="text3">3&apos;</text>
  <text transform="matrix(1 0 0 1 205.5938 137.3037)" class="text3">5&apos;</text>
  <text transform="matrix(1 0 0 1 192.3242 109.9302)" class="text3">3&apos;</text>
  <text transform="matrix(1 0 0 1 147.4253 -126.3774)" class="text3">5&apos;</text>
  <text transform="matrix(1 0 0 1 120.6763 -118.3765)" class="text3">3&apos;</text>
  <text transform="matrix(1 0 0 1 282.4824 300.7847)" class="text3">5&apos;</text>
  <text transform="matrix(1 0 0 1 315.7388 280.5239)" class="text3">3&apos;</text>

  <text transform="matrix(1 0 0 1 135.9238 126.1465)" class="text2">Primer</text>

  <text transform="matrix(1 0 0 1 133.8472 356.564)" class="text3">5&apos;</text>
  <text transform="matrix(1 0 0 1 193.1226 396.647)" class="text3">3&apos;</text>
  <text transform="matrix(1 0 0 1 401.9302 438.7358)" class="text3">5&apos;</text>
  <text transform="matrix(1 0 0 1 407.9448 401.8022)" class="text3">3&apos;</text>

  <g>
    <text transform="matrix(1 0 0 1 291.3726 195.6675)" class="text2">Ligase</text>
    <text transform="matrix(1 0 0 1 298.7993 207.1577)" class="text4">Rejoins stands</text>
  </g>
  
<path fill="#B3D343" stroke="#06440B" stroke-width="0.5" stroke-linejoin="round" stroke-miterlimit="10" d="M376.45,423.342
 l-2.594,8.221c1.084-0.705,2.283-1.245,3.456-1.847l1.755-5.559L376.45,423.342z"/>
<path class="poly1" d="M379.235,414.52l-2.785,8.822l2.617,0.815 l2.731-8.655C381.426,414.689,380.659,414.246,379.235,414.52z"/>
<path fill="url(#SVGID_4_)" d="M289.382,290.117c0.049,0.016,0.404,0.233,0.47,0.02c0.082-0.264-0.066-0.544-0.33-0.626
 c-0.056-0.018-5.537-1.775-8.733-7.127c-0.28,0.178-0.57,0.346-0.864,0.492C283.346,288.566,289.14,290.042,289.382,290.117z"/>
<path d="M296.643,240.862c-0.11-0.254-0.404-0.374-0.657-0.262c-0.254,0.108-0.371,0.402-0.262,0.656
 c1.161,2.701-4.463,10.799-6.58,13.848c-6.14,8.84-13.1,18.86-9.375,27.522c0.05,0.087,0.105,0.164,0.157,0.249
 c0.294-0.146,0.584-0.314,0.864-0.492c-0.042-0.069-0.087-0.133-0.127-0.203c-3.48-8.102,3.312-17.879,9.303-26.506
 C295.613,247.542,297.609,243.113,296.643,240.862z"/>
<path fill="url(#SVGID_5_)" d="M294.054,286.941c0.05,0.013,0.417,0.209,0.47-0.008c0.066-0.269-0.098-0.539-0.366-0.605
 c-0.057-0.015-5.632-1.442-9.143-6.594c-0.269,0.194-0.548,0.379-0.833,0.543C287.936,285.753,293.807,286.88,294.054,286.941z"/>
 <path fill="url(#SVGID_6_)" d="M313.255,268.826l-1.838-0.875l-3.089-0.042l-0.301,1.791l0.543,1.543
  c1.348,2.456-2.074,9.073-5.356,14.923c-5.202,9.273-11.266,19.376-6.896,27.351l4.124-1.682
  c-1.633-5.255,2.567-15.081,7.135-23.221c4.204-7.494,7.871-14.03,6.106-18.848C313.565,269.445,313.423,269.131,313.255,268.826z"
  />
<path fill="url(#SVGID_7_)" d="M311.862,281.7l-1.414,1.685c0.036-0.072,6.538-11.904,1.414-15.222l0.978-0.423
 C317.778,271.48,312.021,281.375,311.862,281.7z"/>
<path fill="url(#SVGID_8_)" d="M305.064,283.645l-1.388,1.692c1.34-2.462,2.752-4.883,3.697-7.5
 c0.456-1.262,0.814-2.597,0.833-3.946c0.008-0.604-0.054-1.216-0.235-1.795c-0.083-0.263-0.176-0.579-0.364-0.78
 c-0.17-0.183-0.739-0.356-0.749-0.657c-0.015-0.431,1.02-0.419,1.277-0.267c0.351,0.207,0.583,0.823,0.725,1.186
 c0.337,0.856,0.417,1.791,0.35,2.702c-0.144,1.95-0.906,3.834-1.792,5.557C306.73,281.176,305.885,282.389,305.064,283.645z"/>

  <g>
    <title>information box</title>
    <rect x="278.04" y="61.524" fill="none" stroke="#000000" stroke-width="2" stroke-miterlimit="10" width="147.238" height="110.01"/>
    <text transform="matrix(1 0 0 1 351.5 74.7661)" text-anchor="middle" class="text4"><tspan x="0" y="0">DNA polymerase catalyzes </tspan><tspan x="0" y="12">addition of nucleotides at </tspan><tspan x="0" y="24">the 3&apos; hydroxyl (OH)</tspan></text>
    <g>
      <g>
        <rect x="310.006" y="136.129" class="poly1" width="2.74" height="15.095"/>
        <rect x="318.209" y="132.096" class="poly1" width="2.74" height="19.128"/>
        <rect x="326.413" y="136.154" class="poly1" width="2.74" height="15.07"/>
        <rect x="326.413" y="119.849" class="poly2" width="2.74" height="16.303"/>
        <rect x="334.616" y="136.167" class="poly1" width="2.742" height="15.057"/>
        <rect x="334.616" y="119.849" class="poly2" width="2.742" height="16.316"/>
        <rect x="342.819" y="132.096" class="poly1" width="2.742" height="19.128"/>
        <rect x="342.819" y="119.847" class="poly2" width="2.742" height="12.249"/>
        <polygon class="poly1" points="350.025,151.224 352.765,151.224 352.765,138.872 350.025,138.821"/>
        <polygon class="poly2" points="350.025,119.847 350.025,138.821 352.765,138.872 352.765,119.847"/>
        <polygon class="poly1" points="358.228,151.224 360.968,151.224 360.968,139.024 358.228,138.974"/>
        <polygon class="poly2" points="358.228,119.847 358.228,138.974 360.968,139.024 360.968,119.847"/>
  
        <rect x="366.431" y="136.216" class="poly1" width="2.742" height="15.008"/>
        <rect x="366.431" y="119.849" class="poly2" width="2.742" height="16.365"/>
        <rect x="374.634" y="131.763" class="poly1" width="2.742" height="19.461"/>
        <rect x="382.839" y="131.763" class="poly1" width="2.74" height="19.461"/>
  
        <rect x="391.042" y="136.255" class="poly1" width="2.74" height="14.969"/>
        <path fill="#FFFFFF" stroke="#000000" stroke-miterlimit="10" d="M340.536,122.796h30.679c0.021-1.452,0.105-2.909,0.227-4.367
          h-30.905C340.536,119.864,340.536,121.34,340.536,122.796z"/>
        <path class="poly4" d="M342.76,118.504l-17.69-0.244l0.062,4.948l20.814,0.205
          l-0.003-0.174c1.066-0.444,1.83-1.697,1.813-3.183c-0.021-1.841-1.232-3.319-2.702-3.3
          C344.054,116.769,343.202,117.479,342.76,118.504z"/>
  
        <rect x="300.487" y="148.878" fill="#FFFFFF" stroke="#000000" stroke-linejoin="round" stroke-miterlimit="10" width="101.667" height="4.17"/>
      </g>
      <path class="poly5" d="M377.91,112.692
        c5.977,0,10.822,4.283,10.822,9.565v27.607c0,5.281-4.846,9.564-10.822,9.564l0,0c-5.977,0-10.822-4.283-10.822-9.564v-27.607
        C367.087,116.976,371.933,112.692,377.91,112.692L377.91,112.692z">
        <title>Polymerase</title>
      </path>
      <polygon fill="#FFFFFF" points="375.738,121.272 375.705,130.67 382.115,125.834  "/>
    </g>
  
    <text transform="matrix(1 0 0 1 318.2095 116.5303)" class="text3">5&apos;</text>
    <text transform="matrix(1 0 0 1 347.7544 114.9556)" class="text3">3&apos;</text>
    <text transform="matrix(1 0 0 1 399.3433 162.2656)" class="text3">5&apos;</text>
    <text transform="matrix(1 0 0 1 297.3882 162.2661)" class="text3">3&apos;</text>
  
    <circle fill="none" stroke="#FF1A1A" stroke-miterlimit="10" cx="345.209" cy="120.085" r="4.896"/>
  </g>

</svg>
