<?xml version="1.0" encoding="UTF-8" standalone="no"?>
<!-- Created with Inkscape (http://www.inkscape.org/) -->

<svg
   xmlns:dc="http://purl.org/dc/elements/1.1/"
   xmlns:cc="http://creativecommons.org/ns#"
   xmlns:rdf="http://www.w3.org/1999/02/22-rdf-syntax-ns#"
   xmlns:svg="http://www.w3.org/2000/svg"
   xmlns="http://www.w3.org/2000/svg"
   xmlns:sodipodi="http://sodipodi.sourceforge.net/DTD/sodipodi-0.dtd"
   xmlns:inkscape="http://www.inkscape.org/namespaces/inkscape"
   width="2445.8367"
   height="1416.7555"
   id="svg28898"
   sodipodi:version="0.32"
   inkscape:version="0.48.3.1 r9886"
   version="1.0"
   sodipodi:docname="ConductionsystemoftheheartwithoutHeart.svg"
   inkscape:output_extension="org.inkscape.output.svg.inkscape"
   inkscape:export-filename="C:\Documents and Settings\Madhero88\My Documents\Conductionsystemoftheheartwithouttheheart.png"
   inkscape:export-xdpi="90"
   inkscape:export-ydpi="90">
  <defs
     id="defs28900">
    <clipPath
       clipPathUnits="userSpaceOnUse"
       id="clipPath6099">
      <path
         d="m 128.752,578.626 201.102,0 0,150.333 -201.102,0 0,-150.333 z"
         id="path6101"
         inkscape:connector-curvature="0" />
    </clipPath>
    <clipPath
       clipPathUnits="userSpaceOnUse"
       id="clipPath6111">
      <path
         d="m 128.752,578.626 201.102,0 0,150.333 -201.102,0 0,-150.333 z"
         id="path6113"
         inkscape:connector-curvature="0" />
    </clipPath>
  </defs>
  <sodipodi:namedview
     id="base"
     pagecolor="#ffffff"
     bordercolor="#666666"
     borderopacity="1.0"
     gridtolerance="10000"
     guidetolerance="10"
     objecttolerance="10"
     inkscape:pageopacity="0.0"
     inkscape:pageshadow="2"
     inkscape:zoom="0.21435469"
     inkscape:cx="2494.5508"
     inkscape:cy="1076.4043"
     inkscape:document-units="px"
     inkscape:current-layer="layer1"
     showgrid="false"
     inkscape:window-width="1280"
     inkscape:window-height="746"
     inkscape:window-x="0"
     inkscape:window-y="24"
     showguides="true"
     inkscape:guide-bbox="true"
     inkscape:window-maximized="1"
     fit-margin-left="10"
     fit-margin-right="10"
     fit-margin-top="10"
     fit-margin-bottom="10" />
  <metadata
     id="metadata28903">
    <rdf:RDF>
      <cc:Work
         rdf:about="">
        <dc:format>image/svg+xml</dc:format>
        <dc:type
           rdf:resource="http://purl.org/dc/dcmitype/StillImage" />
      </cc:Work>
    </rdf:RDF>
  </metadata>
  <g
     inkscape:label="Layer 1"
     inkscape:groupmode="layer"
     id="layer1"
     transform="translate(706.38902,233.60515)">
    <g
       id="g4161"
       transform="translate(872.67325,-369.07524)">
      <g
         id="g6095"
         transform="matrix(14.2383,0,0,-14.2383,-3577.22,9824.1)">
        <g
           clip-path="url(#clipPath6099)"
           id="g6097">
          <g
             transform="translate(213.132,652.144)"
             id="g6103">
            <path
               inkscape:connector-curvature="0"
               id="path6105"
               style="fill:#fedd03;fill-opacity:1;fill-rule:nonzero;stroke:none"
               d="m 0,0 c -0.6,-0.937 -1.061,-1.991 -1.606,-2.974 -1.402,0.28 -2.797,0.619 -4.208,0.837 -2.366,0.364 -4.826,0.713 -7.097,1.484 -1.672,0.569 -3.744,1.361 -5.086,2.53 -0.696,0.605 -1.049,0.957 -1.806,1.493 -0.632,0.447 -1.266,1.223 -1.563,2 -0.315,0.823 -0.67,1.304 -1.562,1.812 -0.35,0.2 -1.389,0.698 -1.563,1.083 0.541,0.439 1.825,1.367 2.125,1.667 3,3 5.625,6.125 6.125,7.875 0.41,1.433 0.425,2.481 0.077,3.073 -0.235,0.398 4.849,3.132 5.362,3.255 2.256,0.538 4.324,-1.326 5.426,-3.111 0.677,-1.096 1.229,-2.371 1.642,-3.589 0.837,-2.466 1.005,-5.08 1.244,-7.654 C -2.37,8.482 -2.236,7.18 -1.984,5.899 -1.493,3.413 -1.251,2.528 0.31,1.377 0.501,1.236 0.687,1.118 0.865,0.994 0.574,0.768 0.283,0.441 0,0 m -3.954,-7.413 c -0.38,0.18 -0.709,0.418 -1.019,0.675 0.873,0.323 3.082,0.636 4.435,1.227 0.345,-0.406 0.962,-0.817 1.463,-0.991 0.007,-0.002 0.014,-0.002 0.021,-0.004 -1.074,-1.135 -3.234,-1.7 -4.9,-0.907 m -4.537,4.391 c -0.221,0.163 -0.45,0.318 -0.677,0.471 0.053,-0.036 1.448,-0.058 1.654,-0.092 0.78,-0.128 1.567,-0.22 2.348,-0.343 0.525,-0.083 2.525,-0.59 3.791,-0.785 0.101,-0.629 0.243,-0.73 0.507,-1.075 -1.461,-0.853 -2.379,-0.901 -3.226,-1.116 -0.435,-0.111 -0.91,-0.219 -1.311,-0.389 -1.068,1.055 -1.86,2.429 -3.086,3.329 m -2.842,-6.126 c -2.88,-2.198 -5.24,-5.047 -8.548,-6.657 -2.618,-1.275 -5.964,-1.724 -8.693,-0.347 -3.152,1.59 -2.478,6.019 -2.604,8.897 -0.06,1.371 0.049,2.746 0.305,4.094 0.273,1.442 0.631,2.613 1.132,3.968 0.685,1.854 2.928,5.302 4.375,6.708 1.042,-0.791 2.476,-0.406 3.315,-2.282 0.824,-1.845 2.426,-2.483 3.851,-3.826 3.348,-3.154 8.795,-2.971 11.529,-6.862 0.282,-0.402 0.556,-0.754 0.831,-1.078 -1.88,-0.757 -3.767,-1.297 -5.493,-2.615 M 65.818,-51.86 c -0.299,2.931 -0.931,5.497 -1.322,8.406 -0.141,1.046 -0.359,2.029 -0.404,3.094 -0.086,2.028 -0.578,4.563 -0.166,6.541 0.084,0.401 0.324,1.182 0.541,1.5 0.338,0.492 1.248,0.599 1.365,1.281 -1.693,-1.053 -1.6,0.195 -1.447,1.428 0.131,1.073 0.291,3.208 -0.131,3.637 -0.11,-1.637 -0.385,-4.535 -0.328,-6.137 -0.471,0.241 -0.871,3.688 -0.83,4.328 0.08,1.255 -0.631,2.323 -0.836,3.499 -0.102,0.586 -0.264,0.971 -0.418,1.507 -0.168,0.584 -0.334,1.36 -0.522,1.978 -0.334,1.108 -0.353,2.063 -1.06,3.313 -0.444,0.783 -0.922,0.882 -0.914,1.702 0.005,0.642 0.345,1.338 0.183,1.915 -0.234,-0.393 -0.555,-1.677 -0.687,-1.658 0.154,1.069 -2.451,5.042 -1.83,5.535 0.185,0.543 0.058,2.104 -0.237,2.54 0.315,-0.466 0.026,-1.547 -0.308,-1.913 -0.287,0.205 -0.448,0.572 -0.625,0.856 -0.352,0.557 -0.869,0.947 -1.291,1.44 -0.448,0.525 -0.393,0.904 -0.416,1.625 -0.028,0.783 0.072,1.962 -0.336,2.694 -0.039,-0.204 -0.016,-2.499 -0.207,-2.611 -0.5,-0.292 -1.946,4.014 -2.823,4.577 0.145,-0.285 0.141,-0.876 0.178,-1.222 0.496,-0.318 1.526,-2.439 1.875,-3.191 0.486,-1.05 1.412,-2.197 2.125,-3.145 0.453,-0.603 1.367,-1.175 1.299,-2.006 -0.197,-0.017 -0.371,-0.157 -0.496,-0.18 0.828,-0.757 1.066,-1.221 1.635,-2.166 0.541,-0.898 0.785,-2.29 1.191,-3.217 0.391,-0.887 1.357,-1.829 1.598,-2.589 0.248,-0.785 0.578,-2.015 0.765,-2.941 0.205,-1.014 1.039,-2.816 0.946,-3.836 -0.619,0.304 -1.184,1.41 -1.518,1.94 -0.484,0.765 -0.726,0.858 -1.275,1.435 -0.723,0.758 -0.709,2.892 -1.172,3.447 -0.408,-0.75 0.529,-1.786 -0.078,-2.364 -0.36,-0.342 -2.037,-0.02 -2.457,0.125 -0.717,0.248 -0.526,0.203 -0.875,0.875 -0.258,0.494 -0.709,2.208 -1.237,2.111 0.178,-0.556 0.721,-1.452 0.686,-2.088 0.189,-0.349 0.359,-0.676 0.537,-1.048 -0.486,-0.231 -1.441,-0.334 -1.391,-1.004 0.594,0.079 1.028,0.482 1.606,0.591 0.482,0.091 1.193,0.011 1.691,-0.011 1.065,-0.048 1.6,-0.325 2.373,-1.02 1.252,-1.125 2.11,-2.99 3.401,-4.282 0.767,-0.767 0.433,-1.955 0.666,-3 -0.287,0.054 -0.608,-0.115 -0.743,-0.129 1.161,-0.197 0.768,-1.261 0.897,-2.104 0.07,-0.453 0.389,-2.351 0.18,-2.767 -0.209,-0.416 -1.256,2.331 -1.528,2.753 -0.424,0.654 -1.338,1.652 -2.019,2.023 -0.934,0.508 -1.809,-0.094 -2.774,0.279 -0.039,0.069 0.002,0.149 -0.023,0.224 -1.658,0.879 -1.793,2.965 -2.922,4.301 -0.514,0.608 0.121,0.624 0.51,1.007 0.269,0.267 0.627,0.723 0.658,1.112 0.002,0.022 -0.687,-0.608 -0.75,-0.674 -0.238,-0.251 -0.557,-0.415 -0.875,-0.552 0.039,0.418 0.346,1.182 -0.18,1.392 -0.045,-0.722 -0.252,-1.457 -0.072,-2.051 0.16,-0.529 0.777,-1.034 0.713,-1.759 -0.658,-0.015 -0.924,0.594 -1.488,0.654 -0.459,0.05 -1.094,-0.422 -1.491,-0.602 -0.701,-0.32 -0.968,-0.073 -1.689,0.021 -0.303,0.04 -0.672,-0.076 -0.953,-0.214 0.578,-0.017 0.902,-0.182 1.39,-0.413 -0.351,-0.289 -0.761,-0.908 -0.792,-1.341 0.927,0.721 3.033,2.925 4.248,1.497 -0.297,-0.183 -0.596,-0.339 -0.877,-0.544 -0.233,-0.168 -0.7,-0.694 -0.975,-0.743 0.553,0.098 1.078,0.361 1.592,0.576 0.469,0.198 1.01,0.597 1.512,0.272 0.271,-0.174 0.953,-0.919 0.89,-1.264 -0.062,-0.339 -0.558,-0.279 -0.793,-0.177 0.776,-0.336 1.627,-0.696 2.26,-1.272 0.75,-0.683 0.252,-1.589 0.107,-2.435 0.803,0.431 0.506,1.467 1.182,1.926 0.592,0.401 1.451,0.011 1.969,-0.331 1.103,-0.727 1.633,-2.433 2.26,-3.592 0.367,-0.679 0.564,-1.431 0.921,-2.114 0.088,-0.169 0.161,-1.364 0.231,-1.704 0.121,-0.596 0.189,-1.299 0.006,-1.89 -0.825,1.505 -2.067,2.552 -3.578,3.379 -1.004,0.55 -2.225,0.743 -3.098,1.52 -0.652,0.582 -0.746,1.276 -0.783,2.125 -0.012,0.316 -0.01,0.633 -0.043,0.948 -0.01,0.093 -0.203,0.837 -0.182,0.861 -0.74,-0.798 0.014,-1.814 -0.582,-2.559 -0.719,0.384 -2.492,1.173 -2.734,1.945 -0.162,0.511 0.226,1.091 0.006,1.692 -0.213,0.583 -0.59,0.847 -0.584,1.483 -0.942,-0.567 -1.94,-0.719 -2.766,-1.05 0.953,0.026 2.389,0.845 2.898,-0.239 0.239,-0.51 0.338,-1.765 -0.308,-1.934 -1.549,0.704 -1.705,0.767 -1.737,0.611 -0.031,-0.157 1.844,-0.938 3.795,-2.271 1.039,-0.711 2.981,-2.127 3.938,-3.031 -0.766,0.164 -1.504,0.271 -2.242,0.559 -0.748,0.291 -1.217,0.347 -2.012,0.34 -1.523,-0.014 -2.154,0.586 -3.465,1.226 -0.64,0.311 -2.281,1.375 -1.451,2.06 -1.504,-0.744 -1.68,0.21 -2.869,0.972 -0.846,0.542 -0.563,-0.042 0.508,-0.845 0.5,-0.375 0.568,-0.679 1.459,-1.031 0.554,-0.219 1.191,-0.945 1.574,-1.481 -0.649,-0.252 -1.43,0.051 -2.121,-0.102 -0.565,-0.124 -0.983,-0.337 -1.508,-0.584 0.666,-0.251 1.301,0.173 1.963,0.249 0.672,0.078 1.346,-0.085 2.012,-0.106 0.642,-0.021 1.31,0.203 1.789,-0.434 0.597,-0.797 -0.194,-0.722 -0.7,-1.292 -0.474,-0.533 -0.209,-0.993 -1.082,-1.062 0.276,-0.198 0.651,-0.089 0.957,-0.032 0.174,0.55 1,1.594 2.481,1.846 1.062,0.181 4.07,-0.277 2.205,-1.169 0.641,-0.459 0.887,0.413 1.596,0.448 0.679,0.035 2.254,-0.383 2.886,-0.656 2.774,-1.193 3.918,-4.147 4.452,-6.87 0.185,-0.952 1.033,-3.358 0.517,-4.166 -0.721,1.258 -1.592,2.428 -2.365,3.657 -0.354,0.562 -0.619,0.931 -0.742,1.575 -0.117,0.622 0.271,1.385 -0.082,1.895 -0.305,-0.461 -0.473,-1.209 -0.463,-1.759 0.015,-0.977 0.553,-1.256 -0.446,-0.917 -0.939,0.319 -2.478,1.331 -2.867,2.378 -0.291,0.784 0.614,1.218 0.276,2.01 -0.621,-1.021 -0.649,-1.319 -1.811,-0.743 -0.844,0.419 -1.785,0.848 -2.762,0.564 1.178,-0.345 2.317,-0.26 3.215,-1.259 0.453,-0.504 1.582,-1.948 1.68,-2.559 -0.524,0.083 -1.059,0.103 -1.543,-0.098 1.199,-0.371 2.432,-0.231 3.416,-0.719 1.643,-0.813 2.541,-2.647 3.863,-4.421 1.387,-1.86 1.637,-7.266 0.762,-8.547 -0.469,1.437 -1.719,1.062 -1.738,5.325 -0.35,-0.671 -0.047,-1.711 -0.244,-2.46 -0.487,0.233 -1.327,1.761 -1.35,2.394 -0.682,-0.276 0.055,-1.404 0.488,-2.103 0.436,-0.699 2.571,-2.673 1.862,-3.843 -0.862,-1.418 -4.278,-0.097 -5.268,0.468 -0.791,0.451 -1.652,1.16 -2.438,1.625 0.629,0.112 1.959,0.582 2.262,1.174 0.403,0.781 -0.254,1.651 -0.162,2.365 0.074,0.592 0.51,0.733 0.619,1.367 0.158,0.912 -0.213,1.394 -0.58,2.137 -0.42,0.845 0.209,1.71 -0.207,2.562 -0.377,-0.581 0.248,-1.799 -0.932,-1.168 -0.755,0.405 -0.945,1.12 -2.06,1.26 1.066,-0.679 2.578,-2.415 3.113,-3.556 0.367,-0.784 0.346,-1.911 -0.785,-1.909 -0.857,0.002 -1.494,1.084 -1.891,1.716 -0.544,0.867 -0.814,1.851 -1.32,2.737 0.059,-1.013 0.42,-2.088 0.942,-2.948 0.599,-0.989 1.345,-1.893 2.22,-2.518 0.672,-0.481 0.94,-1.931 -0.582,-2.306 -1.246,-0.307 -2.054,0.761 -3.041,1.202 -0.478,0.214 -1.375,0.114 -1.568,0.696 -0.135,0.411 0.492,1.366 0.615,1.772 -0.631,-0.483 -0.902,-1.18 -1.769,-1.219 -0.723,-0.032 -1.547,0.559 -2.176,0.841 -1.694,0.761 -3.321,1.762 -4.885,2.732 -1.678,1.041 -3.186,2.195 -4.74,3.422 -0.664,0.524 -1.266,0.965 -2.014,1.237 1.531,0.07 3.344,1.538 4.754,2.06 1.246,0.461 2.996,0.645 4.301,0.091 0.972,-0.413 1.047,-1.242 0.013,-1.699 0.616,-0.041 0.854,0.148 1.223,0.567 0.514,0.582 -0.482,1.025 0.4,0.885 1.065,-0.169 1.932,-1.626 3.018,-1.789 0.029,0.03 0.059,0.061 0.088,0.092 -0.428,0.477 -0.953,0.821 -1.313,1.379 0.956,0.053 2.53,-0.04 2.961,1.041 -0.535,-0.254 -1,-0.393 -1.535,-0.473 -0.707,-0.107 -1.58,0.073 -2.265,0.175 -1.338,0.199 -2.592,0.596 -3.918,0.858 -0.754,0.149 -1.756,-0.34 -2.504,-0.127 0.267,0.633 0.818,1.046 0.783,1.791 -0.031,0.596 -0.367,1.207 -0.447,1.789 -0.182,1.319 0.465,2.301 0.4,3.538 -0.449,-0.722 -0.533,-1.998 -1.049,-2.68 -0.463,-0.616 -1.375,-0.282 -2.011,-1.317 1.003,0.619 2.445,0.873 2.585,-0.71 0.094,-1.049 -0.992,-2.402 -1.761,-3.005 -0.795,-0.621 -2.02,-1.143 -2.991,-1.419 -1.302,-0.372 -2.306,0.365 -3.431,0.905 -1.239,0.594 -2.155,1.328 -3.235,2.134 1.093,-0.087 2.169,-0.314 3.327,-0.151 5.3,0.748 11.459,14.162 17.5,21.917 0.652,0.837 0.398,1.27 -0.334,0.333 -5.332,-6.833 -12.221,-20.75 -17.198,-21.708 -1.76,-0.339 -3.366,0.28 -4.551,0.541 3.416,0.084 4.333,0.167 5.749,1.167 1.418,1 13.334,18.501 14.5,20.167 0.779,1.112 0.349,1.414 -0.43,0.302 -1.166,-1.667 -12.625,-18.625 -14.406,-19.938 -1.155,-0.85 -5.331,-2.031 -8.747,0.469 4.25,-0.5 5.75,-0.166 7.833,1.667 2.084,1.833 12.668,17.416 13.668,18.916 1,1.5 0.582,1.917 -0.418,0.417 -1,-1.5 -10.979,-16.663 -13.582,-18.833 -2.605,-2.17 -5.546,-1.615 -6.878,-1.448 2.5,0.344 5.312,1.024 7.21,3.114 1.896,2.09 10.584,16.25 11.668,17.75 1.082,1.5 0.582,1.834 -0.418,0.334 -1,-1.5 -10.082,-16.084 -11.582,-17.584 -1.501,-1.5 -4.611,-2.931 -8.41,-2.677 3.502,0.241 5.741,1.343 7.741,3.677 2.001,2.334 10.669,15.75 11.751,17.5 1.084,1.75 0.502,2.334 -0.582,0.417 -1.084,-1.917 -9.584,-15.167 -11.501,-17.417 -1.918,-2.25 -5.584,-4.416 -10.084,-2.833 5.918,0.167 6.834,0.916 9.166,3.583 2.335,2.667 9.919,14.75 11.669,17.167 1.75,2.417 1.166,2.999 -0.418,0.333 -1.582,-2.666 -9.751,-15 -11.751,-17.083 -1.998,-2.083 -3.78,-3.496 -8.498,-3.25 -1.082,0.057 -5.084,3.501 -6.668,5.417 -1.583,1.916 -4.333,9.916 -4.75,12.333 -0.416,2.417 0.084,5.083 -1.666,7.583 -1.617,2.31 -5.007,3.482 -5.645,4.435 0.141,1.057 -0.061,2.208 -0.38,3.162 C 3.499,0.777 2.451,1.711 1.349,1.271 1.165,1.408 0.982,1.54 0.817,1.669 c -1.613,1.268 -1.866,3.895 -2.214,5.789 -0.429,2.335 -0.442,4.716 -0.969,7.037 -0.452,1.991 -0.895,3.32 -1.687,5.25 -0.497,1.209 -1.61,3.005 -2.625,3.875 -0.759,0.65 -1.252,0.727 -2.006,1.375 0.676,0.958 3.407,1.184 4.497,1.364 1.799,0.298 3.635,0.363 5.446,0.136 10.373,-1.3 18.203,-1.694 24.201,-3.398 0.252,-0.071 0.484,-0.158 0.728,-0.235 3.823,-1.714 3.44,-6.168 6.633,-8.055 -2.373,1.825 -2.748,5.564 -5.154,7.558 0.529,-0.198 1.051,-0.403 1.549,-0.633 4.381,-2.14 6.76,-7.823 10.106,-9.8 -2.371,1.822 -4.668,5.964 -7.786,8.584 7.267,-4.088 7.323,-7.112 11.224,-7.709 -4.547,1.276 -3.862,4.684 -13.599,9.269 -1.162,0.548 -2.35,0.992 -3.59,1.363 -5.758,1.723 -12.696,1.874 -23.999,3.493 -9.499,1.361 -18.509,-5.517 -18.579,-5.508 -1.098,0.145 -3.003,-0.854 -5.609,-3.242 -3.193,-2.927 -5.125,-8.75 -6.75,-12.125 -1.625,-3.375 -2.75,-7.5 -3,-11.125 -0.158,-2.288 0.018,-4.733 0.324,-7.005 0.256,-1.894 1.162,-3.883 2.952,-4.77 1.229,-0.611 2.67,-0.927 4.039,-0.969 1.663,-0.052 4.093,0.578 5.523,1.358 2.644,1.439 3.924,2.781 6.258,4.699 1.617,1.328 3.219,2.712 5.059,3.728 0.861,0.476 1.796,0.779 2.72,1.102 1.083,-1.116 2.839,-1.805 4.765,-1.086 0.668,0.249 1.85,0.739 2.494,1.353 0.957,-0.053 1.078,-0.039 1.757,0.598 0.01,0.007 0.016,0.005 0.027,0.013 0.549,0.404 0.957,0.854 2.832,-0.458 1.875,-1.313 2.375,-1.5 2.25,-2.75 -0.125,-1.25 -0.937,-5.25 -0.812,-7.188 0.125,-1.937 1.812,-5.812 2.75,-8.375 0.937,-2.562 2.437,-5.312 4.875,-7.875 2.437,-2.562 5.187,-5.5 8.749,-8.062 1.61,-1.157 6.326,-3.673 5.057,-6.186 -0.803,-1.587 -2.531,-0.847 -3.676,-0.114 -2.91,1.862 -5.584,4.114 -8.418,6.09 -1.409,0.98 -2.695,1.938 -3.801,3.262 0.767,-1.215 1.621,-2.106 2.826,-3.126 1.231,-1.04 2.815,-1.922 3.983,-3.014 -1.486,-0.112 -2.322,0.788 -3.628,1.239 1.239,-0.887 1.919,-1.32 3.386,-1.668 1.474,-0.35 1.857,-0.877 3.123,-1.683 0.533,-0.339 2.48,-1.538 2.199,-1.554 -0.656,-0.038 -1.289,-1.448 -1.707,-2.023 1.269,0.397 0.891,1.803 2.551,1.516 1.166,-0.202 2.451,-0.823 3.486,-1.287 -0.051,0.422 -1.299,0.912 0.139,1.943 1.009,0.725 -0.535,2.646 1.748,1.094 1.47,-0.998 3.899,-2.459 5.03,-3.208 2.816,-1.865 5.939,-3.314 8.859,-5.01 3.36,-1.953 6.514,-3.423 9.674,-5.688 1.281,-0.918 2.994,-2.792 3.66,-4.299 0.719,-1.625 0.006,-3.404 -1.588,-4.153 -1.476,-0.694 -3.539,-0.538 -4.656,0.731 -1.006,1.143 -1.056,2.98 -2.072,4.158 -0.242,0.281 -0.688,0.337 -0.957,0.592 0.777,-0.706 1.863,-3.217 1.738,-3.654 -0.125,-0.438 -3.015,1.519 -3.562,2.187 -0.795,0.972 -1.078,2.387 -1.981,3.325 -0.015,-0.581 0.643,-1.43 0.838,-2.043 0.242,-0.763 0.459,-1.232 0.986,-1.818 1.125,-1.249 2.965,-1.779 4.293,-2.894 0.502,-0.422 1.551,-0.853 1.604,-1.557 -2.617,-0.084 -5.824,0.192 -8.326,0.939 -1.934,0.578 -4.955,2.302 -5.188,4.569 -0.107,1.027 0.092,1.481 -0.383,1.948 0.282,1 1.186,1.703 1.375,2.033 -0.906,0.299 -1.527,-0.765 -1.644,-1.489 -0.596,0.062 -0.947,0.577 -1.543,0.831 -0.715,0.306 -1.004,0.369 -1.647,0.908 -1.238,1.04 -1.382,1.74 -1.796,3.113 -0.261,0.867 -0.88,1.023 -1.24,1.71 -0.099,-0.7 0.547,-0.978 0.745,-1.481 0.134,-0.343 0.058,-0.938 0.214,-1.368 0.283,-0.767 1.06,-1.835 1.693,-2.32 0.855,-0.655 1.988,-0.961 2.791,-1.572 1.236,-0.937 0.644,-1.526 0.992,-2.803 0.322,-1.187 2.092,-2.843 2.779,-3.656 -0.992,-0.576 -5.099,1.745 -6.156,2.154 -1.578,0.612 -2.831,1.746 -3.595,3.288 -0.556,1.123 -0.685,2.417 -1.174,3.576 -0.513,1.224 -1.257,2.351 -2.007,3.442 -0.969,1.412 -2.6,2.053 -3.963,2.936 -0.983,0.635 -0.795,1.332 -1.477,2.05 -0.23,-0.315 0.026,-0.978 0.123,-1.352 -1.572,0.135 -2.062,1.987 -3.293,2.44 0.274,-0.857 1.473,-1.339 1.699,-2.284 -0.593,-0.321 -1.728,-0.603 -2.125,-1.195 1.565,0.477 2.145,1.072 3.774,0.3 1.142,-0.541 2.23,-1.177 3.285,-1.877 0.385,-0.257 1.92,-1.046 0.94,-1.371 0.73,-0.337 2.419,-2.251 2.5,-3.044 -0.247,0.133 -0.803,0.317 -1.079,0.382 0.371,-0.61 1.162,-0.956 1.51,-1.715 0.346,-0.76 0.635,-1.874 0.881,-2.605 -0.172,0.084 -0.791,0.418 -0.959,0.487 0.582,-0.916 1.584,-1.206 1.881,-2.47 -1.199,-0.094 -2.647,0.759 -3.666,1.315 -1.279,0.697 -3.193,0.569 -4.504,1.106 -0.647,0.264 -2.127,1.267 -2.844,1.375 -1.185,0.176 -1.906,0.998 -2.387,2.107 -0.511,1.179 -0.339,2.567 -1.328,3.564 1.186,1.186 0.258,2.395 -0.285,3.547 -0.328,0.697 -0.535,0.871 -0.877,1.453 0.125,-0.43 0.139,-0.889 0.338,-1.315 0.266,-0.563 0.793,-1.16 0.945,-1.794 0.555,-2.311 -1.828,-0.884 -2.77,-0.327 -0.368,0.218 -1.83,0.655 -2.267,0.801 -0.127,0.671 0.032,1.489 -0.198,2.14 -0.348,-0.534 -0.14,-1.989 -0.359,-1.895 -0.219,0.094 -1.792,1.338 -2.049,1.561 -0.664,0.578 -1.697,2.182 -2.668,2.32 -0.009,-0.698 0.767,-0.799 1.184,-1.193 0.487,-0.461 0.842,-1.06 1.381,-1.522 0.273,-0.232 1.443,-0.933 1.534,-1.276 0.217,-0.823 -0.692,-0.53 -1.23,-0.35 -0.657,0.219 -1.407,0.991 -2.118,0.697 0.617,-0.262 2.738,-1.046 2.662,-1.816 -0.623,-0.344 -1.187,-0.902 -1.746,-1.262 0.358,-0.283 0.881,-0.113 1.343,-0.228 0.444,-0.112 0.916,-0.439 1.305,-0.597 -0.259,0.502 -1.31,1.03 -1.848,1.103 0.722,0.409 1.288,0.794 2.031,1.532 0.532,0.527 1.936,-0.286 2.61,-0.521 1.435,-0.499 3.108,-1.013 3.563,-2.65 0.264,-0.948 -0.137,-1.884 0.349,-2.808 -0.488,-0.822 -4.302,0.778 -5.178,1.01 -1.79,0.471 -3.532,1.376 -5.268,2.041 -3.416,1.31 -6.765,2.409 -9.723,4.605 -1.426,1.059 -3.099,2.23 -4.735,2.914 -0.031,-0.031 -0.063,-0.062 -0.095,-0.093 0.563,-0.772 1.393,-0.878 2.302,-1.496 0.64,-0.437 3.442,-2.003 3.508,-2.885 -1.491,-0.186 -3.949,0.69 -5.221,1.394 -1.674,0.926 -0.776,1.329 -1.401,2.034 -0.437,0.494 -1.381,1.123 -1.861,1.544 -0.752,0.662 -1.278,1.096 -2.222,1.438 0.688,-0.802 1.952,-1.628 2.497,-2.09 0.546,-0.462 1.294,-1.026 1.382,-1.632 -1,-0.103 -1.944,0.226 -3.007,0.726 -0.967,0.455 -2.254,1.583 -3.308,1.959 0.316,-0.829 1.998,-1.632 2.821,-2.148 1.203,-0.754 2.595,-0.85 3.839,-1.679 2.178,-1.45 4.481,-1.71 6.978,-2.407 5.233,-1.46 10.081,-3.869 15.26,-5.483 1.385,-0.431 2.751,-0.89 4.139,-1.287 1.075,-0.307 3.083,-0.666 3.86,-1.448 -1.828,-0.562 -3.471,0.655 -5.065,0.677 1.43,-0.71 2.666,-1.258 4.319,-1.282 1.619,-0.023 2.711,0.101 4.236,-0.354 2.922,-0.872 3.639,-1.704 6.358,-1.767 1.139,-0.026 5.407,-2.25 6.92,-2.879 -0.054,-0.083 -0.431,-0.482 -0.482,-0.558 3,0.875 7.346,-1.011 10.902,-1.185 2.795,-0.138 7.084,-0.003 8.575,2.898 1.595,3.104 -1.69,6.277 -3.911,7.968 -3.431,2.614 -7.451,4.372 -11.222,6.428 -3.891,2.122 -7.379,4.964 -11.224,7.09 -0.818,0.452 -1.668,0.873 -2.447,1.402 -1.606,1.092 -2.895,2.586 -4.451,3.715 -1.67,1.209 -3.518,2.092 -5.028,3.561 -1.437,1.398 -2.3,2.555 -3.849,3.779 -0.95,0.749 -1.739,2.039 -2.532,2.906 -1.31,1.433 -2.241,3.526 -3,5.325 -0.574,1.362 -1.05,2.741 -1.609,4.097 -1.178,2.853 -1.598,4.625 -1.357,7.578 0.092,1.131 0.248,3.065 0.728,4.072 1.842,-1.263 1.316,-4.657 1.643,-6.649 0.4,-2.439 1.32,-4.474 2.029,-6.814 0.661,-2.18 1.396,-4.038 2.822,-5.856 1.019,-1.299 2.473,-2.745 3.776,-3.748 2.459,-1.893 4.55,-4.248 7.08,-6.044 2.943,-2.09 5.826,-4.309 8.876,-6.242 2.898,-1.835 5.365,-4.08 8.41,-5.746 1.467,-0.804 2.836,-1.587 4.351,-2.317 0.76,-0.365 1.686,-0.766 2.35,-1.283 0.563,-0.436 0.818,-1.18 1.297,-1.673 0.26,-0.266 0.457,-0.489 0.84,-0.603 -0.266,0.475 -0.891,1.095 -1.067,1.639 3.2,-1.618 6.454,-4.699 10.086,-5.142 4.869,-0.594 4.202,4.976 3.879,8.156" />
          </g>
        </g>
      </g>
      <g
         transform="matrix(14.2383,0,0,-14.2383,-3577.22,9824.1)"
         id="g6109"
         clip-path="url(#clipPath6111)">
        <g
           id="g6115"
           transform="translate(213.132,652.144)">
          <path
             d="m 0,0 c -0.6,-0.937 -1.061,-1.991 -1.606,-2.974 -1.402,0.28 -2.797,0.619 -4.208,0.837 -2.366,0.364 -4.826,0.713 -7.097,1.484 -1.672,0.569 -3.744,1.361 -5.086,2.53 -0.696,0.605 -1.049,0.957 -1.806,1.493 -0.632,0.447 -1.266,1.223 -1.563,2 -0.315,0.823 -0.67,1.304 -1.562,1.812 -0.35,0.2 -1.389,0.698 -1.563,1.083 0.541,0.439 1.825,1.367 2.125,1.667 3,3 5.625,6.125 6.125,7.875 0.41,1.433 0.425,2.481 0.077,3.073 -0.235,0.398 4.849,3.132 5.362,3.255 2.256,0.538 4.324,-1.326 5.426,-3.111 0.677,-1.096 1.229,-2.371 1.642,-3.589 0.837,-2.466 1.005,-5.08 1.244,-7.654 C -2.37,8.482 -2.236,7.18 -1.984,5.899 -1.493,3.413 -1.251,2.528 0.31,1.377 0.501,1.236 0.687,1.118 0.865,0.994 0.574,0.768 0.283,0.441 0,0 z m -3.954,-7.413 c -0.38,0.18 -0.709,0.418 -1.019,0.675 0.873,0.323 3.082,0.636 4.435,1.227 0.345,-0.406 0.962,-0.817 1.463,-0.991 0.007,-0.002 0.014,-0.002 0.021,-0.004 -1.074,-1.135 -3.234,-1.7 -4.9,-0.907 z m -4.537,4.391 c -0.221,0.163 -0.45,0.318 -0.677,0.471 0.053,-0.036 1.448,-0.058 1.654,-0.092 0.78,-0.128 1.567,-0.22 2.348,-0.343 0.525,-0.083 2.525,-0.59 3.791,-0.785 0.101,-0.629 0.243,-0.73 0.507,-1.075 -1.461,-0.853 -2.379,-0.901 -3.226,-1.116 -0.435,-0.111 -0.91,-0.219 -1.311,-0.389 -1.068,1.055 -1.86,2.429 -3.086,3.329 z m -2.842,-6.126 c -2.88,-2.198 -5.24,-5.047 -8.548,-6.657 -2.618,-1.275 -5.964,-1.724 -8.693,-0.347 -3.152,1.59 -2.478,6.019 -2.604,8.897 -0.06,1.371 0.049,2.746 0.305,4.094 0.273,1.442 0.631,2.613 1.132,3.968 0.685,1.854 2.928,5.302 4.375,6.708 1.042,-0.791 2.476,-0.406 3.315,-2.282 0.824,-1.845 2.426,-2.483 3.851,-3.826 3.348,-3.154 8.795,-2.971 11.529,-6.862 0.282,-0.402 0.556,-0.754 0.831,-1.078 -1.88,-0.757 -3.767,-1.297 -5.493,-2.615 z M 65.818,-51.86 c -0.299,2.931 -0.931,5.497 -1.322,8.406 -0.141,1.046 -0.359,2.029 -0.404,3.094 -0.086,2.028 -0.578,4.563 -0.166,6.541 0.084,0.401 0.324,1.182 0.541,1.5 0.338,0.492 1.248,0.599 1.365,1.281 -1.693,-1.053 -1.6,0.195 -1.447,1.428 0.131,1.073 0.291,3.208 -0.131,3.637 -0.11,-1.637 -0.385,-4.535 -0.328,-6.137 -0.471,0.241 -0.871,3.688 -0.83,4.328 0.08,1.255 -0.631,2.323 -0.836,3.499 -0.102,0.586 -0.264,0.971 -0.418,1.507 -0.168,0.584 -0.334,1.36 -0.522,1.978 -0.334,1.108 -0.353,2.063 -1.06,3.313 -0.444,0.783 -0.922,0.882 -0.914,1.702 0.005,0.642 0.345,1.338 0.183,1.915 -0.234,-0.393 -0.555,-1.677 -0.687,-1.658 0.154,1.069 -2.451,5.042 -1.83,5.535 0.185,0.543 0.058,2.104 -0.237,2.54 0.315,-0.466 0.026,-1.547 -0.308,-1.913 -0.287,0.205 -0.448,0.572 -0.625,0.856 -0.352,0.557 -0.869,0.947 -1.291,1.44 -0.448,0.525 -0.393,0.904 -0.416,1.625 -0.028,0.783 0.072,1.962 -0.336,2.694 -0.039,-0.204 -0.016,-2.499 -0.207,-2.611 -0.5,-0.292 -1.946,4.014 -2.823,4.577 0.145,-0.285 0.141,-0.876 0.178,-1.222 0.496,-0.318 1.526,-2.439 1.875,-3.191 0.486,-1.05 1.412,-2.197 2.125,-3.145 0.453,-0.603 1.367,-1.175 1.299,-2.006 -0.197,-0.017 -0.371,-0.157 -0.496,-0.18 0.828,-0.757 1.066,-1.221 1.635,-2.166 0.541,-0.898 0.785,-2.29 1.191,-3.217 0.391,-0.887 1.357,-1.829 1.598,-2.589 0.248,-0.785 0.578,-2.015 0.765,-2.941 0.205,-1.014 1.039,-2.816 0.946,-3.836 -0.619,0.304 -1.184,1.41 -1.518,1.94 -0.484,0.765 -0.726,0.858 -1.275,1.435 -0.723,0.758 -0.709,2.892 -1.172,3.447 -0.408,-0.75 0.529,-1.786 -0.078,-2.364 -0.36,-0.342 -2.037,-0.02 -2.457,0.125 -0.717,0.248 -0.526,0.203 -0.875,0.875 -0.258,0.494 -0.709,2.208 -1.237,2.111 0.178,-0.556 0.721,-1.452 0.686,-2.088 0.189,-0.349 0.359,-0.676 0.537,-1.048 -0.486,-0.231 -1.441,-0.334 -1.391,-1.004 0.594,0.079 1.028,0.482 1.606,0.591 0.482,0.091 1.193,0.011 1.691,-0.011 1.065,-0.048 1.6,-0.325 2.373,-1.02 1.252,-1.125 2.11,-2.99 3.401,-4.282 0.767,-0.767 0.433,-1.955 0.666,-3 -0.287,0.054 -0.608,-0.115 -0.743,-0.129 1.161,-0.197 0.768,-1.261 0.897,-2.104 0.07,-0.453 0.389,-2.351 0.18,-2.767 -0.209,-0.416 -1.256,2.331 -1.528,2.753 -0.424,0.654 -1.338,1.652 -2.019,2.023 -0.934,0.508 -1.809,-0.094 -2.774,0.279 -0.039,0.069 0.002,0.149 -0.023,0.224 -1.658,0.879 -1.793,2.965 -2.922,4.301 -0.514,0.608 0.121,0.624 0.51,1.007 0.269,0.267 0.627,0.723 0.658,1.112 0.002,0.022 -0.687,-0.608 -0.75,-0.674 -0.238,-0.251 -0.557,-0.415 -0.875,-0.552 0.039,0.418 0.346,1.182 -0.18,1.392 -0.045,-0.722 -0.252,-1.457 -0.072,-2.051 0.16,-0.529 0.777,-1.034 0.713,-1.759 -0.658,-0.015 -0.924,0.594 -1.488,0.654 -0.459,0.05 -1.094,-0.422 -1.491,-0.602 -0.701,-0.32 -0.968,-0.073 -1.689,0.021 -0.303,0.04 -0.672,-0.076 -0.953,-0.214 0.578,-0.017 0.902,-0.182 1.39,-0.413 -0.351,-0.289 -0.761,-0.908 -0.792,-1.341 0.927,0.721 3.033,2.925 4.248,1.497 -0.297,-0.183 -0.596,-0.339 -0.877,-0.544 -0.233,-0.168 -0.7,-0.694 -0.975,-0.743 0.553,0.098 1.078,0.361 1.592,0.576 0.469,0.198 1.01,0.597 1.512,0.272 0.271,-0.174 0.953,-0.919 0.89,-1.264 -0.062,-0.339 -0.558,-0.279 -0.793,-0.177 0.776,-0.336 1.627,-0.696 2.26,-1.272 0.75,-0.683 0.252,-1.589 0.107,-2.435 0.803,0.431 0.506,1.467 1.182,1.926 0.592,0.401 1.451,0.011 1.969,-0.331 1.103,-0.727 1.633,-2.433 2.26,-3.592 0.367,-0.679 0.564,-1.431 0.921,-2.114 0.088,-0.169 0.161,-1.364 0.231,-1.704 0.121,-0.596 0.189,-1.299 0.006,-1.89 -0.825,1.505 -2.067,2.552 -3.578,3.379 -1.004,0.55 -2.225,0.743 -3.098,1.52 -0.652,0.582 -0.746,1.276 -0.783,2.125 -0.012,0.316 -0.01,0.633 -0.043,0.948 -0.01,0.093 -0.203,0.837 -0.182,0.861 -0.74,-0.798 0.014,-1.814 -0.582,-2.559 -0.719,0.384 -2.492,1.173 -2.734,1.945 -0.162,0.511 0.226,1.091 0.006,1.692 -0.213,0.583 -0.59,0.847 -0.584,1.483 -0.942,-0.567 -1.94,-0.719 -2.766,-1.05 0.953,0.026 2.389,0.845 2.898,-0.239 0.239,-0.51 0.338,-1.765 -0.308,-1.934 -1.549,0.704 -1.705,0.767 -1.737,0.611 -0.031,-0.157 1.844,-0.938 3.795,-2.271 1.039,-0.711 2.981,-2.127 3.938,-3.031 -0.766,0.164 -1.504,0.271 -2.242,0.559 -0.748,0.291 -1.217,0.347 -2.012,0.34 -1.523,-0.014 -2.154,0.586 -3.465,1.226 -0.64,0.311 -2.281,1.375 -1.451,2.06 -1.504,-0.744 -1.68,0.21 -2.869,0.972 -0.846,0.542 -0.563,-0.042 0.508,-0.845 0.5,-0.375 0.568,-0.679 1.459,-1.031 0.554,-0.219 1.191,-0.945 1.574,-1.481 -0.649,-0.252 -1.43,0.051 -2.121,-0.102 -0.565,-0.124 -0.983,-0.337 -1.508,-0.584 0.666,-0.251 1.301,0.173 1.963,0.249 0.672,0.078 1.346,-0.085 2.012,-0.106 0.642,-0.021 1.31,0.203 1.789,-0.434 0.597,-0.797 -0.194,-0.722 -0.7,-1.292 -0.474,-0.533 -0.209,-0.993 -1.082,-1.062 0.276,-0.198 0.651,-0.089 0.957,-0.032 0.174,0.55 1,1.594 2.481,1.846 1.062,0.181 4.07,-0.277 2.205,-1.169 0.641,-0.459 0.887,0.413 1.596,0.448 0.679,0.035 2.254,-0.383 2.886,-0.656 2.774,-1.193 3.918,-4.147 4.452,-6.87 0.185,-0.952 1.033,-3.358 0.517,-4.166 -0.721,1.258 -1.592,2.428 -2.365,3.657 -0.354,0.562 -0.619,0.931 -0.742,1.575 -0.117,0.622 0.271,1.385 -0.082,1.895 -0.305,-0.461 -0.473,-1.209 -0.463,-1.759 0.015,-0.977 0.553,-1.256 -0.446,-0.917 -0.939,0.319 -2.478,1.331 -2.867,2.378 -0.291,0.784 0.614,1.218 0.276,2.01 -0.621,-1.021 -0.649,-1.319 -1.811,-0.743 -0.844,0.419 -1.785,0.848 -2.762,0.564 1.178,-0.345 2.317,-0.26 3.215,-1.259 0.453,-0.504 1.582,-1.948 1.68,-2.559 -0.524,0.083 -1.059,0.103 -1.543,-0.098 1.199,-0.371 2.432,-0.231 3.416,-0.719 1.643,-0.813 2.541,-2.647 3.863,-4.421 1.387,-1.86 1.637,-7.266 0.762,-8.547 -0.469,1.437 -1.719,1.062 -1.738,5.325 -0.35,-0.671 -0.047,-1.711 -0.244,-2.46 -0.487,0.233 -1.327,1.761 -1.35,2.394 -0.682,-0.276 0.055,-1.404 0.488,-2.103 0.436,-0.699 2.571,-2.673 1.862,-3.843 -0.862,-1.418 -4.278,-0.097 -5.268,0.468 -0.791,0.451 -1.652,1.16 -2.438,1.625 0.629,0.112 1.959,0.582 2.262,1.174 0.403,0.781 -0.254,1.651 -0.162,2.365 0.074,0.592 0.51,0.733 0.619,1.367 0.158,0.912 -0.213,1.394 -0.58,2.137 -0.42,0.845 0.209,1.71 -0.207,2.562 -0.377,-0.581 0.248,-1.799 -0.932,-1.168 -0.755,0.405 -0.945,1.12 -2.06,1.26 1.066,-0.679 2.578,-2.415 3.113,-3.556 0.367,-0.784 0.346,-1.911 -0.785,-1.909 -0.857,0.002 -1.494,1.084 -1.891,1.716 -0.544,0.867 -0.814,1.851 -1.32,2.737 0.059,-1.013 0.42,-2.088 0.942,-2.948 0.599,-0.989 1.345,-1.893 2.22,-2.518 0.672,-0.481 0.94,-1.931 -0.582,-2.306 -1.246,-0.307 -2.054,0.761 -3.041,1.202 -0.478,0.214 -1.375,0.114 -1.568,0.696 -0.135,0.411 0.492,1.366 0.615,1.772 -0.631,-0.483 -0.902,-1.18 -1.769,-1.219 -0.723,-0.032 -1.547,0.559 -2.176,0.841 -1.694,0.761 -3.321,1.762 -4.885,2.732 -1.678,1.041 -3.186,2.195 -4.74,3.422 -0.664,0.524 -1.266,0.965 -2.014,1.237 1.531,0.07 3.344,1.538 4.754,2.06 1.246,0.461 2.996,0.645 4.301,0.091 0.972,-0.413 1.047,-1.242 0.013,-1.699 0.616,-0.041 0.854,0.148 1.223,0.567 0.514,0.582 -0.482,1.025 0.4,0.885 1.065,-0.169 1.932,-1.626 3.018,-1.789 0.029,0.03 0.059,0.061 0.088,0.092 -0.428,0.477 -0.953,0.821 -1.313,1.379 0.956,0.053 2.53,-0.04 2.961,1.041 -0.535,-0.254 -1,-0.393 -1.535,-0.473 -0.707,-0.107 -1.58,0.073 -2.265,0.175 -1.338,0.199 -2.592,0.596 -3.918,0.858 -0.754,0.149 -1.756,-0.34 -2.504,-0.127 0.267,0.633 0.818,1.046 0.783,1.791 -0.031,0.596 -0.367,1.207 -0.447,1.789 -0.182,1.319 0.465,2.301 0.4,3.538 -0.449,-0.722 -0.533,-1.998 -1.049,-2.68 -0.463,-0.616 -1.375,-0.282 -2.011,-1.317 1.003,0.619 2.445,0.873 2.585,-0.71 0.094,-1.049 -0.992,-2.402 -1.761,-3.005 -0.795,-0.621 -2.02,-1.143 -2.991,-1.419 -1.302,-0.372 -2.306,0.365 -3.431,0.905 -1.239,0.594 -2.155,1.328 -3.235,2.134 1.093,-0.087 2.169,-0.314 3.327,-0.151 5.3,0.748 11.459,14.162 17.5,21.917 0.652,0.837 0.398,1.27 -0.334,0.333 -5.332,-6.833 -12.221,-20.75 -17.198,-21.708 -1.76,-0.339 -3.366,0.28 -4.551,0.541 3.416,0.084 4.333,0.167 5.749,1.167 1.418,1 13.334,18.501 14.5,20.167 0.779,1.112 0.349,1.414 -0.43,0.302 -1.166,-1.667 -12.625,-18.625 -14.406,-19.938 -1.155,-0.85 -5.331,-2.031 -8.747,0.469 4.25,-0.5 5.75,-0.166 7.833,1.667 2.084,1.833 12.668,17.416 13.668,18.916 1,1.5 0.582,1.917 -0.418,0.417 -1,-1.5 -10.979,-16.663 -13.582,-18.833 -2.605,-2.17 -5.546,-1.615 -6.878,-1.448 2.5,0.344 5.312,1.024 7.21,3.114 1.896,2.09 10.584,16.25 11.668,17.75 1.082,1.5 0.582,1.834 -0.418,0.334 -1,-1.5 -10.082,-16.084 -11.582,-17.584 -1.501,-1.5 -4.611,-2.931 -8.41,-2.677 3.502,0.241 5.741,1.343 7.741,3.677 2.001,2.334 10.669,15.75 11.751,17.5 1.084,1.75 0.502,2.334 -0.582,0.417 -1.084,-1.917 -9.584,-15.167 -11.501,-17.417 -1.918,-2.25 -5.584,-4.416 -10.084,-2.833 5.918,0.167 6.834,0.916 9.166,3.583 2.335,2.667 9.919,14.75 11.669,17.167 1.75,2.417 1.166,2.999 -0.418,0.333 -1.582,-2.666 -9.751,-15 -11.751,-17.083 -1.998,-2.083 -3.78,-3.496 -8.498,-3.25 -1.082,0.057 -5.084,3.501 -6.668,5.417 -1.583,1.916 -4.333,9.916 -4.75,12.333 -0.416,2.417 0.084,5.083 -1.666,7.583 -1.617,2.31 -5.007,3.482 -5.645,4.435 0.141,1.057 -0.061,2.208 -0.38,3.162 C 3.499,0.777 2.451,1.711 1.349,1.271 1.165,1.408 0.982,1.54 0.817,1.669 c -1.613,1.268 -1.866,3.895 -2.214,5.789 -0.429,2.335 -0.442,4.716 -0.969,7.037 -0.452,1.991 -0.895,3.32 -1.687,5.25 -0.497,1.209 -1.61,3.005 -2.625,3.875 -0.759,0.65 -1.252,0.727 -2.006,1.375 0.676,0.958 3.407,1.184 4.497,1.364 1.799,0.298 3.635,0.363 5.446,0.136 10.373,-1.3 18.203,-1.694 24.201,-3.398 0.252,-0.071 0.484,-0.158 0.728,-0.235 3.823,-1.714 3.44,-6.168 6.633,-8.055 -2.373,1.825 -2.748,5.564 -5.154,7.558 0.529,-0.198 1.051,-0.403 1.549,-0.633 4.381,-2.14 6.76,-7.823 10.106,-9.8 -2.371,1.822 -4.668,5.964 -7.786,8.584 7.267,-4.088 7.323,-7.112 11.224,-7.709 -4.547,1.276 -3.862,4.684 -13.599,9.269 -1.162,0.548 -2.35,0.992 -3.59,1.363 -5.758,1.723 -12.696,1.874 -23.999,3.493 -9.499,1.361 -18.509,-5.517 -18.579,-5.508 -1.098,0.145 -3.003,-0.854 -5.609,-3.242 -3.193,-2.927 -5.125,-8.75 -6.75,-12.125 -1.625,-3.375 -2.75,-7.5 -3,-11.125 -0.158,-2.288 0.018,-4.733 0.324,-7.005 0.256,-1.894 1.162,-3.883 2.952,-4.77 1.229,-0.611 2.67,-0.927 4.039,-0.969 1.663,-0.052 4.093,0.578 5.523,1.358 2.644,1.439 3.924,2.781 6.258,4.699 1.617,1.328 3.219,2.712 5.059,3.728 0.861,0.476 1.796,0.779 2.72,1.102 1.083,-1.116 2.839,-1.805 4.765,-1.086 0.668,0.249 1.85,0.739 2.494,1.353 0.957,-0.053 1.078,-0.039 1.757,0.598 0.01,0.007 0.016,0.005 0.027,0.013 0.549,0.404 0.957,0.854 2.832,-0.458 1.875,-1.313 2.375,-1.5 2.25,-2.75 -0.125,-1.25 -0.937,-5.25 -0.812,-7.188 0.125,-1.937 1.812,-5.812 2.75,-8.375 0.937,-2.562 2.437,-5.312 4.875,-7.875 2.437,-2.562 5.187,-5.5 8.749,-8.062 1.61,-1.157 6.326,-3.673 5.057,-6.186 -0.803,-1.587 -2.531,-0.847 -3.676,-0.114 -2.91,1.862 -5.584,4.114 -8.418,6.09 -1.409,0.98 -2.695,1.938 -3.801,3.262 0.767,-1.215 1.621,-2.106 2.826,-3.126 1.231,-1.04 2.815,-1.922 3.983,-3.014 -1.486,-0.112 -2.322,0.788 -3.628,1.239 1.239,-0.887 1.919,-1.32 3.386,-1.668 1.474,-0.35 1.857,-0.877 3.123,-1.683 0.533,-0.339 2.48,-1.538 2.199,-1.554 -0.656,-0.038 -1.289,-1.448 -1.707,-2.023 1.269,0.397 0.891,1.803 2.551,1.516 1.166,-0.202 2.451,-0.823 3.486,-1.287 -0.051,0.422 -1.299,0.912 0.139,1.943 1.009,0.725 -0.535,2.646 1.748,1.094 1.47,-0.998 3.899,-2.459 5.03,-3.208 2.816,-1.865 5.939,-3.314 8.859,-5.01 3.36,-1.953 6.514,-3.423 9.674,-5.688 1.281,-0.918 2.994,-2.792 3.66,-4.299 0.719,-1.625 0.006,-3.404 -1.588,-4.153 -1.476,-0.694 -3.539,-0.538 -4.656,0.731 -1.006,1.143 -1.056,2.98 -2.072,4.158 -0.242,0.281 -0.688,0.337 -0.957,0.592 0.777,-0.706 1.863,-3.217 1.738,-3.654 -0.125,-0.438 -3.015,1.519 -3.562,2.187 -0.795,0.972 -1.078,2.387 -1.981,3.325 -0.015,-0.581 0.643,-1.43 0.838,-2.043 0.242,-0.763 0.459,-1.232 0.986,-1.818 1.125,-1.249 2.965,-1.779 4.293,-2.894 0.502,-0.422 1.551,-0.853 1.604,-1.557 -2.617,-0.084 -5.824,0.192 -8.326,0.939 -1.934,0.578 -4.955,2.302 -5.188,4.569 -0.107,1.027 0.092,1.481 -0.383,1.948 0.282,1 1.186,1.703 1.375,2.033 -0.906,0.299 -1.527,-0.765 -1.644,-1.489 -0.596,0.062 -0.947,0.577 -1.543,0.831 -0.715,0.306 -1.004,0.369 -1.647,0.908 -1.238,1.04 -1.382,1.74 -1.796,3.113 -0.261,0.867 -0.88,1.023 -1.24,1.71 -0.099,-0.7 0.547,-0.978 0.745,-1.481 0.134,-0.343 0.058,-0.938 0.214,-1.368 0.283,-0.767 1.06,-1.835 1.693,-2.32 0.855,-0.655 1.988,-0.961 2.791,-1.572 1.236,-0.937 0.644,-1.526 0.992,-2.803 0.322,-1.187 2.092,-2.843 2.779,-3.656 -0.992,-0.576 -5.099,1.745 -6.156,2.154 -1.578,0.612 -2.831,1.746 -3.595,3.288 -0.556,1.123 -0.685,2.417 -1.174,3.576 -0.513,1.224 -1.257,2.351 -2.007,3.442 -0.969,1.412 -2.6,2.053 -3.963,2.936 -0.983,0.635 -0.795,1.332 -1.477,2.05 -0.23,-0.315 0.026,-0.978 0.123,-1.352 -1.572,0.135 -2.062,1.987 -3.293,2.44 0.274,-0.857 1.473,-1.339 1.699,-2.284 -0.593,-0.321 -1.728,-0.603 -2.125,-1.195 1.565,0.477 2.145,1.072 3.774,0.3 1.142,-0.541 2.23,-1.177 3.285,-1.877 0.385,-0.257 1.92,-1.046 0.94,-1.371 0.73,-0.337 2.419,-2.251 2.5,-3.044 -0.247,0.133 -0.803,0.317 -1.079,0.382 0.371,-0.61 1.162,-0.956 1.51,-1.715 0.346,-0.76 0.635,-1.874 0.881,-2.605 -0.172,0.084 -0.791,0.418 -0.959,0.487 0.582,-0.916 1.584,-1.206 1.881,-2.47 -1.199,-0.094 -2.647,0.759 -3.666,1.315 -1.279,0.697 -3.193,0.569 -4.504,1.106 -0.647,0.264 -2.127,1.267 -2.844,1.375 -1.185,0.176 -1.906,0.998 -2.387,2.107 -0.511,1.179 -0.339,2.567 -1.328,3.564 1.186,1.186 0.258,2.395 -0.285,3.547 -0.328,0.697 -0.535,0.871 -0.877,1.453 0.125,-0.43 0.139,-0.889 0.338,-1.315 0.266,-0.563 0.793,-1.16 0.945,-1.794 0.555,-2.311 -1.828,-0.884 -2.77,-0.327 -0.368,0.218 -1.83,0.655 -2.267,0.801 -0.127,0.671 0.032,1.489 -0.198,2.14 -0.348,-0.534 -0.14,-1.989 -0.359,-1.895 -0.219,0.094 -1.792,1.338 -2.049,1.561 -0.664,0.578 -1.697,2.182 -2.668,2.32 -0.009,-0.698 0.767,-0.799 1.184,-1.193 0.487,-0.461 0.842,-1.06 1.381,-1.522 0.273,-0.232 1.443,-0.933 1.534,-1.276 0.217,-0.823 -0.692,-0.53 -1.23,-0.35 -0.657,0.219 -1.407,0.991 -2.118,0.697 0.617,-0.262 2.738,-1.046 2.662,-1.816 -0.623,-0.344 -1.187,-0.902 -1.746,-1.262 0.358,-0.283 0.881,-0.113 1.343,-0.228 0.444,-0.112 0.916,-0.439 1.305,-0.597 -0.259,0.502 -1.31,1.03 -1.848,1.103 0.722,0.409 1.288,0.794 2.031,1.532 0.532,0.527 1.936,-0.286 2.61,-0.521 1.435,-0.499 3.108,-1.013 3.563,-2.65 0.264,-0.948 -0.137,-1.884 0.349,-2.808 -0.488,-0.822 -4.302,0.778 -5.178,1.01 -1.79,0.471 -3.532,1.376 -5.268,2.041 -3.416,1.31 -6.765,2.409 -9.723,4.605 -1.426,1.059 -3.099,2.23 -4.735,2.914 -0.031,-0.031 -0.063,-0.062 -0.095,-0.093 0.563,-0.772 1.393,-0.878 2.302,-1.496 0.64,-0.437 3.442,-2.003 3.508,-2.885 -1.491,-0.186 -3.949,0.69 -5.221,1.394 -1.674,0.926 -0.776,1.329 -1.401,2.034 -0.437,0.494 -1.381,1.123 -1.861,1.544 -0.752,0.662 -1.278,1.096 -2.222,1.438 0.688,-0.802 1.952,-1.628 2.497,-2.09 0.546,-0.462 1.294,-1.026 1.382,-1.632 -1,-0.103 -1.944,0.226 -3.007,0.726 -0.967,0.455 -2.254,1.583 -3.308,1.959 0.316,-0.829 1.998,-1.632 2.821,-2.148 1.203,-0.754 2.595,-0.85 3.839,-1.679 2.178,-1.45 4.481,-1.71 6.978,-2.407 5.233,-1.46 10.081,-3.869 15.26,-5.483 1.385,-0.431 2.751,-0.89 4.139,-1.287 1.075,-0.307 3.083,-0.666 3.86,-1.448 -1.828,-0.562 -3.471,0.655 -5.065,0.677 1.43,-0.71 2.666,-1.258 4.319,-1.282 1.619,-0.023 2.711,0.101 4.236,-0.354 2.922,-0.872 3.639,-1.704 6.358,-1.767 1.139,-0.026 5.407,-2.25 6.92,-2.879 -0.054,-0.083 -0.431,-0.482 -0.482,-0.558 3,0.875 7.346,-1.011 10.902,-1.185 2.795,-0.138 7.084,-0.003 8.575,2.898 1.595,3.104 -1.69,6.277 -3.911,7.968 -3.431,2.614 -7.451,4.372 -11.222,6.428 -3.891,2.122 -7.379,4.964 -11.224,7.09 -0.818,0.452 -1.668,0.873 -2.447,1.402 -1.606,1.092 -2.895,2.586 -4.451,3.715 -1.67,1.209 -3.518,2.092 -5.028,3.561 -1.437,1.398 -2.3,2.555 -3.849,3.779 -0.95,0.749 -1.739,2.039 -2.532,2.906 -1.31,1.433 -2.241,3.526 -3,5.325 -0.574,1.362 -1.05,2.741 -1.609,4.097 -1.178,2.853 -1.598,4.625 -1.357,7.578 0.092,1.131 0.248,3.065 0.728,4.072 1.842,-1.263 1.316,-4.657 1.643,-6.649 0.4,-2.439 1.32,-4.474 2.029,-6.814 0.661,-2.18 1.396,-4.038 2.822,-5.856 1.019,-1.299 2.473,-2.745 3.776,-3.748 2.459,-1.893 4.55,-4.248 7.08,-6.044 2.943,-2.09 5.826,-4.309 8.876,-6.242 2.898,-1.835 5.365,-4.08 8.41,-5.746 1.467,-0.804 2.836,-1.587 4.351,-2.317 0.76,-0.365 1.686,-0.766 2.35,-1.283 0.563,-0.436 0.818,-1.18 1.297,-1.673 0.26,-0.266 0.457,-0.489 0.84,-0.603 -0.266,0.475 -0.891,1.095 -1.067,1.639 3.2,-1.618 6.454,-4.699 10.086,-5.142 4.869,-0.594 4.202,4.976 3.879,8.156 z M 0.865,0.994 C 1.181,0.775 1.547,0.45 1.141,-0.422 M 1.349,1.271 C 2.014,0.775 2.116,0.227 2.46,0.308 m -4.066,-3.282 c 0.454,-0.106 0.759,-0.025 0.901,0.178 m -0.67,-0.975 c 0.386,-0.081 0.69,-0.162 0.872,-0.324 m -0.365,-0.751 c 0.325,0.183 0.467,0.265 0.548,0.487 m -0.218,-1.152 c 0.401,0.138 0.806,0.238 0.989,0.198 m 0.474,-1.189 c 0.338,0.317 0.602,0.824 0.419,1.291 m 0.424,-1.447 c 0.489,0.453 0.712,0.898 1.037,0.959 m 1.643,1.607 C 4.388,-4.541 4.429,-4.683 4.55,-4.826 M -5.84,-6.533 c 0.183,0.069 0.435,0.182 0.435,0.182 m -0.086,-0.574 c 0.183,0.068 0.518,0.187 0.518,0.187 M -25.366,7.515 c -0.375,0.25 -0.999,0.334 -1.208,0.042 m 2.083,0.708 c -0.166,0.292 -0.041,0.959 0.209,1.084"
             style="fill:none;stroke:#231f20;stroke-width:0.18000001;stroke-linecap:round;stroke-linejoin:round;stroke-miterlimit:4;stroke-opacity:1;stroke-dasharray:none"
             id="path6117"
             inkscape:connector-curvature="0" />
        </g>
      </g>
    </g>
    <text
       id="text7963"
       x="-1743.7244"
       y="345.65875"
       style="font-size:170.859375px">
      <tspan
         style="font-size:106.78710938px;font-variant:normal;font-weight:normal;font-stretch:semi-condensed;writing-mode:lr-tb;fill:#231f20;fill-opacity:1;fill-rule:nonzero;stroke:none;font-family:Arial Narrow;-inkscape-font-specification:ArialNarrow"
         sodipodi:role="line"
         id="tspan7965"
         x="-1743.7244"
         y="345.65875" />
    </text>
    <text
       id="text7967"
       x="-1743.9379"
       y="633.77032"
       style="font-size:170.859375px">
      <tspan
         style="font-size:106.78710938px;font-variant:normal;font-weight:normal;font-stretch:semi-condensed;writing-mode:lr-tb;fill:#231f20;fill-opacity:1;fill-rule:nonzero;stroke:none;font-family:Arial Narrow;-inkscape-font-specification:ArialNarrow"
         sodipodi:role="line"
         id="tspan7969"
         x="-1743.9379"
         y="633.77032" />
    </text>
    <text
       id="text7971"
       x="-1549.3718"
       y="747.71222"
       style="font-size:170.859375px">
      <tspan
         style="font-size:106.78710938px;font-variant:normal;font-weight:normal;font-stretch:semi-condensed;writing-mode:lr-tb;fill:#231f20;fill-opacity:1;fill-rule:nonzero;stroke:none;font-family:Arial Narrow;-inkscape-font-specification:ArialNarrow"
         sodipodi:role="line"
         id="tspan7973"
         x="-1549.3718"
         y="747.71222" />
    </text>
    <text
       xml:space="preserve"
       style="font-size:40px;font-style:normal;font-weight:normal;line-height:125%;letter-spacing:0px;word-spacing:0px;fill:#000000;fill-opacity:1;stroke:none;font-family:Sans"
       x="-983.86456"
       y="105.81331"
       id="text3807"
       sodipodi:linespacing="125%"><tspan
         sodipodi:role="line"
         id="tspan3809"
         x="-983.86456"
         y="105.81331" /></text>
    <text
       xml:space="preserve"
       style="font-size:40px;font-style:normal;font-variant:normal;font-weight:bold;font-stretch:normal;line-height:125%;letter-spacing:0px;word-spacing:0px;fill:#000000;fill-opacity:1;stroke:none;font-family:Arial;-inkscape-font-specification:Arial Bold"
       x="162.11716"
       y="466.30621"
       id="text4170"
       sodipodi:linespacing="125%"
       transform="translate(-1032.64,-562.48767)"><tspan
         sodipodi:role="line"
         id="tspan4172"
         x="162.11716"
         y="466.30621" /></text>
    <text
       xml:space="preserve"
       style="font-size:64px;font-style:normal;font-variant:normal;font-weight:bold;font-stretch:normal;line-height:125%;letter-spacing:0px;word-spacing:0px;fill:#000000;fill-opacity:1;stroke:none;font-family:Arial;-inkscape-font-specification:Arial Bold"
       x="286.29202"
       y="487.00201"
       id="text4174"
       sodipodi:linespacing="125%"
       transform="translate(-1032.64,-562.48767)"><tspan
         sodipodi:role="line"
         id="tspan4176"
         x="286.29202"
         y="487.00201" /></text>
    <text
       xml:space="preserve"
       style="font-size:64px;font-style:normal;font-variant:normal;font-weight:bold;font-stretch:normal;line-height:125%;letter-spacing:0px;word-spacing:0px;fill:#000000;fill-opacity:1;stroke:none;font-family:Arial;-inkscape-font-specification:Arial Bold"
       x="-682.23999"
       y="-47.646103"
       id="text4178"
       sodipodi:linespacing="125%"><tspan
         sodipodi:role="line"
         id="tspan4180"
         x="-682.23999"
         y="-47.646103"
         style="font-size:72px">Sinoatrial node</tspan></text>
    <text
       xml:space="preserve"
       style="font-size:64px;font-style:normal;font-variant:normal;font-weight:bold;font-stretch:normal;text-align:center;line-height:125%;letter-spacing:0px;word-spacing:0px;text-anchor:middle;fill:#000000;fill-opacity:1;stroke:none;font-family:Arial;-inkscape-font-specification:Arial Bold"
       x="604.42285"
       y="814.68567"
       id="text4182"
       sodipodi:linespacing="125%"
       transform="translate(-1032.64,-562.48767)"><tspan
         sodipodi:role="line"
         id="tspan4184"
         x="604.42285"
         y="814.68567"
         style="font-size:72px">Atrioventricular</tspan><tspan
         sodipodi:role="line"
         x="604.42285"
         y="904.68567"
         id="tspan4186"
         style="font-size:72px">node</tspan></text>
    <text
       xml:space="preserve"
       style="font-size:64px;font-style:normal;font-variant:normal;font-weight:bold;font-stretch:normal;text-align:center;line-height:125%;letter-spacing:0px;word-spacing:0px;text-anchor:middle;fill:#000000;fill-opacity:1;stroke:none;font-family:Arial;-inkscape-font-specification:Arial Bold"
       x="-397.80008"
       y="589.8111"
       id="text4188"
       sodipodi:linespacing="125%"><tspan
         sodipodi:role="line"
         id="tspan4190"
         x="-397.80008"
         y="589.8111"
         style="font-size:72px">Left posterior</tspan><tspan
         sodipodi:role="line"
         x="-397.80008"
         y="679.8111"
         id="tspan4192"
         style="font-size:72px">bundle</tspan></text>
    <text
       xml:space="preserve"
       style="font-size:64px;font-style:normal;font-variant:normal;font-weight:bold;font-stretch:normal;line-height:125%;letter-spacing:0px;word-spacing:0px;fill:#000000;fill-opacity:1;stroke:none;font-family:Arial;-inkscape-font-specification:Arial Bold"
       x="-632.21643"
       y="896.79889"
       id="text4194"
       sodipodi:linespacing="125%"><tspan
         sodipodi:role="line"
         id="tspan4196"
         x="-632.21643"
         y="896.79889"
         style="font-size:72px">Right bundle</tspan></text>
    <text
       xml:space="preserve"
       style="font-size:64px;font-style:normal;font-variant:normal;font-weight:normal;font-stretch:normal;text-align:center;line-height:125%;letter-spacing:0px;word-spacing:0px;text-anchor:middle;fill:#000000;fill-opacity:1;stroke:none;font-family:Arial;-inkscape-font-specification:Arial"
       x="1362.8518"
       y="-172.06609"
       id="text4198"
       sodipodi:linespacing="125%"><tspan
         sodipodi:role="line"
         id="tspan4200"
         x="1362.8518"
         y="-172.06609"
         style="font-size:72px;font-weight:bold;text-align:center;text-anchor:middle;-inkscape-font-specification:Arial Bold">Bachmann's</tspan><tspan
         sodipodi:role="line"
         x="1362.8518"
         y="-82.066086"
         id="tspan4202"
         style="font-size:72px;font-weight:bold;text-align:center;text-anchor:middle;-inkscape-font-specification:Arial Bold">bundle</tspan></text>
    <text
       xml:space="preserve"
       style="font-size:64px;font-style:normal;font-variant:normal;font-weight:normal;font-stretch:normal;line-height:125%;letter-spacing:0px;word-spacing:0px;fill:#000000;fill-opacity:1;stroke:none;font-family:Arial;-inkscape-font-specification:Arial"
       x="1363.9985"
       y="294.71469"
       id="text4204"
       sodipodi:linespacing="125%"><tspan
         sodipodi:role="line"
         id="tspan4206"
         x="1363.9985"
         y="294.71469"
         style="font-size:72px;font-weight:bold;-inkscape-font-specification:Arial Bold">His bundle</tspan></text>
    <text
       xml:space="preserve"
       style="font-size:64px;font-style:normal;font-variant:normal;font-weight:bold;font-stretch:normal;text-align:center;line-height:125%;letter-spacing:0px;word-spacing:0px;text-anchor:middle;fill:#000000;fill-opacity:1;stroke:none;font-family:Arial;-inkscape-font-specification:Arial Bold"
       x="1584.0088"
       y="800.58734"
       id="text4208"
       sodipodi:linespacing="125%"><tspan
         sodipodi:role="line"
         id="tspan4210"
         x="1584.0088"
         y="800.58734"
         style="font-size:72px">Purkinje</tspan><tspan
         sodipodi:role="line"
         x="1584.0088"
         y="890.58734"
         id="tspan4212"
         style="font-size:72px">fibers</tspan></text>
    <path
       style="fill:none;stroke:#000000;stroke-width:6.04677486;stroke-linecap:butt;stroke-linejoin:miter;stroke-miterlimit:4;stroke-opacity:1;stroke-dasharray:none"
       d="m 738.13833,-148.00721 392.63627,0"
       id="path4214"
       inkscape:connector-curvature="0" />
    <path
       style="fill:none;stroke:#000000;stroke-width:6;stroke-linecap:butt;stroke-linejoin:miter;stroke-miterlimit:4;stroke-opacity:1;stroke-dasharray:none"
       d="m 1071.9512,492.52924 -189.02437,0"
       id="path4216"
       inkscape:connector-curvature="0"
       transform="translate(-1032.64,-562.48767)" />
    <path
       style="fill:none;stroke:#000000;stroke-width:6;stroke-linecap:butt;stroke-linejoin:miter;stroke-miterlimit:4;stroke-opacity:1;stroke-dasharray:none"
       d="m 1381.7073,790.09022 -504.87803,0"
       id="path4218"
       inkscape:connector-curvature="0"
       transform="translate(-1032.64,-562.48767)" />
    <path
       style="fill:none;stroke:#000000;stroke-width:5.99247789;stroke-linecap:butt;stroke-linejoin:miter;stroke-miterlimit:4;stroke-opacity:1;stroke-dasharray:none"
       d="m 855.16488,508.09031 -855.17371348,0"
       id="path4220"
       inkscape:connector-curvature="0" />
    <path
       style="fill:none;stroke:#000000;stroke-width:6;stroke-linecap:butt;stroke-linejoin:miter;stroke-miterlimit:4;stroke-opacity:1;stroke-dasharray:none"
       d="m 900.2868,569.06593 -1049.10169,0"
       id="path4222"
       inkscape:connector-curvature="0" />
    <path
       style="fill:none;stroke:#000000;stroke-width:6;stroke-linecap:butt;stroke-linejoin:miter;stroke-miterlimit:4;stroke-opacity:1;stroke-dasharray:none"
       d="m 923.4576,628.82203 -925.3076552,0"
       id="path4224"
       inkscape:connector-curvature="0" />
    <path
       style="fill:none;stroke:#000000;stroke-width:6.09268045;stroke-linecap:butt;stroke-linejoin:miter;stroke-miterlimit:4;stroke-opacity:1;stroke-dasharray:none"
       d="m 1.2971014,505.51465 0,125.51802"
       id="path4226"
       inkscape:connector-curvature="0" />
    <path
       style="fill:none;stroke:#000000;stroke-width:6;stroke-linecap:butt;stroke-linejoin:miter;stroke-miterlimit:4;stroke-opacity:1;stroke-dasharray:none"
       d="m 591.75022,671.50501 -560.844653,197.96646 -206.913587,0"
       id="path4229"
       inkscape:connector-curvature="0" />
    <path
       style="fill:none;stroke:#000000;stroke-width:6;stroke-linecap:butt;stroke-linejoin:miter;stroke-miterlimit:4;stroke-opacity:1;stroke-dasharray:none"
       d="m 447.8478,271.50499 906.4473,0"
       id="path4231"
       inkscape:connector-curvature="0" />
    <path
       style="fill:none;stroke:#000000;stroke-width:6;stroke-linecap:butt;stroke-linejoin:miter;stroke-miterlimit:4;stroke-opacity:1;stroke-dasharray:none"
       d="m 783.28553,1047.8647 565.10157,0"
       id="path4233"
       inkscape:connector-curvature="0" />
    <path
       style="fill:none;stroke:#000000;stroke-width:6;stroke-linecap:butt;stroke-linejoin:miter;stroke-miterlimit:4;stroke-opacity:1;stroke-dasharray:none"
       d="m 994.4224,772.60253 434.5351,0"
       id="path4235"
       inkscape:connector-curvature="0" />
    <path
       style="fill:none;stroke:#000000;stroke-width:6;stroke-linecap:butt;stroke-linejoin:miter;stroke-miterlimit:4;stroke-opacity:1;stroke-dasharray:none"
       d="m 1187.9785,507.73633 158.6156,0 0,542.04717"
       id="path4237"
       inkscape:connector-curvature="0" />
  </g>
</svg>
