<?xml version="1.0" encoding="UTF-8" standalone="no"?>
<svg
   xmlns:dc="http://purl.org/dc/elements/1.1/"
   xmlns:cc="http://creativecommons.org/ns#"
   xmlns:rdf="http://www.w3.org/1999/02/22-rdf-syntax-ns#"
   xmlns:svg="http://www.w3.org/2000/svg"
   xmlns="http://www.w3.org/2000/svg"
   xmlns:sodipodi="http://sodipodi.sourceforge.net/DTD/sodipodi-0.dtd"
   xmlns:inkscape="http://www.inkscape.org/namespaces/inkscape"
   enable-background="new 0 0 830.979 914.328"
   version="1.1"
   viewBox="0 0 1160 665"
   x="0px"
   xml:space="preserve"
   y="0px"
   id="svg2"
   inkscape:version="0.48pre1 r9509"
   width="100%"
   height="100%"
   sodipodi:docname="Coronary_arteries.svg"
   inkscape:export-filename="C:\Users\Mikael\Pictures\Internet\Wikipedia\2010\09 (sept)\Coronary\Coronary_arteries.png"
   inkscape:export-xdpi="95"
   inkscape:export-ydpi="95"><metadata
   id="metadata132"><rdf:RDF><cc:Work
       rdf:about=""><dc:format>image/svg+xml</dc:format><dc:type
         rdf:resource="http://purl.org/dc/dcmitype/StillImage" /><dc:title /></cc:Work></rdf:RDF></metadata><defs
   id="defs130"><inkscape:perspective
     sodipodi:type="inkscape:persp3d"
     inkscape:vp_x="0 : 457.164 : 1"
     inkscape:vp_y="0 : 1000 : 0"
     inkscape:vp_z="830.979 : 457.164 : 1"
     inkscape:persp3d-origin="415.4895 : 304.776 : 1"
     id="perspective3327" /></defs><sodipodi:namedview
   pagecolor="#ffffff"
   bordercolor="#666666"
   borderopacity="1"
   objecttolerance="10"
   gridtolerance="10"
   guidetolerance="10"
   inkscape:pageopacity="0"
   inkscape:pageshadow="2"
   inkscape:window-width="1145"
   inkscape:window-height="609"
   id="namedview128"
   showgrid="false"
   inkscape:zoom="0.70710678"
   inkscape:cx="540.05787"
   inkscape:cy="361.04057"
   inkscape:window-x="0"
   inkscape:window-y="0"
   inkscape:window-maximized="0"
   inkscape:current-layer="svg2" />
<path
   d="m 466.67035,-206.52442 -90.765,0 c 0,0 0,22.743 0.369,33.081 0.369,10.338 3.321,26.188 4.058,36.526 0.738,10.338 0,21.364 0,34.114 0,12.75 -1.475,35.493 -1.844,47.897 -0.369,12.405 -0.738,29.979 -2.583,48.242 -1.845,18.263 -3.321,27.912 -4.427,46.175 -1.107,18.263 -0.738,40.316 -0.369,53.411 0.369,13.094 1.107,32.047 1.107,37.904 0,5.857 0.738,12.405 0.738,12.405 0,0 -7.379,16.196 -11.807,26.878 -4.427,10.682 -12.175,23.087 -16.234,30.668 -4.059,7.582 -10.332,15.506 -14.759,22.397 -4.427,6.893 -9.224,11.373 -11.069,17.23 -1.846,5.857 -6.273,21.709 -9.224,29.979 -2.952,8.271 -4.427,9.994 -8.486,17.574 -4.059,7.582 -7.748,13.094 -9.224,20.332 -1.476,7.234 -1.844,14.127 -3.69,18.262 -1.844,4.137 -7.01,18.264 -8.117,26.189 -1.107,7.924 0,27.566 0.369,29.979 0.369,2.412 -2.214,7.582 -3.321,12.061 -1.106,4.48 -4.796,20.332 -4.059,30.322 0.738,9.994 2.583,23.434 6.642,31.703 5.301,10.801 6.642,13.783 8.486,20.676 1.845,6.891 3.321,16.539 6.642,21.021 3.321,4.479 14.021,20.33 17.711,23.775 3.689,3.445 5.534,5.168 9.962,7.926 4.427,2.754 9.962,4.479 12.175,6.891 2.214,2.412 6.273,9.648 11.438,13.094 5.165,3.446 15.127,11.717 23.614,17.23 8.486,5.514 23.613,14.473 32.468,21.02 8.855,6.549 15.127,12.063 23.245,16.541 8.118,4.478 24.72,16.195 35.789,19.297 11.069,3.102 29.147,6.891 42.062,6.201 40.61943,8.80397 90.84529,16.49376 139.17652,22.82122 115.68578,15.14542 215.46011,7.23984 111.37102,-287.56996 -3.84246,-11.94287 -6.66354,-23.67026 -8.14054,-28.83826 -1.477,-5.17 -8.855,-19.986 -14.759,-27.566 -5.904,-7.582 -13.284,-17.23 -13.284,-17.23 0,0 5.904,-36.871 8.486,-49.275 2.583,-12.406 5.904,-45.832 8.485,-64.094 2.584,-18.263 4.06,-36.871 4.06,-36.871 0,0 11.807,-3.101 17.341,-8.614 5.534,-5.513 14.012,-18.075 15.496,-23.777 3.321,-12.75 -3.689,-16.195 -3.689,-16.195 l -27.304,-21.02 c 0,0 -0.738,-15.506 -1.476,-21.709 -0.737,-6.203 -3.689,-19.987 -3.689,-19.987 0,0 15.497,-7.581 18.08,-8.959 2.583,-1.378 5.903,-3.446 6.272,-7.236 0.369,-3.79 0.369,-10.337 -2.215,-13.439 -2.582,-3.102 -4.313,-7.326 -5.789,-7.67 -1.477,-0.344 -4.175,-1.881 -4.175,-1.881 l -6.269,1.971 -14.758,6.892 c 0,0 -4.796,-13.095 -8.117,-19.986 -3.322,-6.892 -15.497,-26.878 -20.293,-32.392 -4.796,-5.514 -18.449,-16.541 -24.721,-20.676 -6.271,-4.135 -23.613,-12.404 -26.196,-14.817 -2.584,-2.413 -5.534,-6.203 -6.273,-12.75 -0.737,-6.547 -0.369,-20.676 1.476,-24.466 1.845,-3.79 4.059,-5.514 4.059,-5.514 0,0 27.672,-11.716 31.731,-13.784 4.059,-2.068 6.209,-3.922 8.636,-7.037 2.952,-3.791 -0.149,-16.05 -1.626,-20.185 -1.475,-4.135 -6.272,-10.682 -8.854,-14.817 -5.353,-8.57 -10.7,-8.615 -14.021,-8.27 -3.321,0.344 0,-11.372 0,-11.372 l -90.766,0 -12.544,46.175 c 0,0 -40.955,8.27 -50.179,11.371 -9.224,3.102 -30.624,10.683 -30.624,10.683 0,0 -1.107,0.689 -2.583,-4.479 -1.476,-5.168 -6.273,-26.533 -7.011,-37.904 -0.75,-11.36 -2.23,-26.52 -2.23,-26.52 z"
   id="path4"
   inkscape:connector-curvature="0"
   style="fill:#eaceb7"
   sodipodi:nodetypes="ccscssscsscccccccccccccccccccsccsscscccccccscccccssccccccscccscscccccccccsccc" />

<path
   d="m 722.86773,309.07497 c -3.65045,3.48384 -16.00224,11.31728 -22.93993,14.06893 -6.93721,2.75283 -25.25677,6.01621 -31.46345,8.74275 -6.20822,2.72783 -18.8676,5.38501 -27.02035,10.97831 -8.15348,5.59496 -20.45629,16.23083 -25.31116,19.61445 -3.59058,2.49932 -9.919,6.35277 -13.32704,7.58526 -5.96361,2.15805 -14.12019,2.70693 -19.2319,4.55485 -5.11278,1.85039 -10.52987,1.8881 -15.94489,5.28986 -5.41514,3.39976 -11.927,5.99776 -14.17803,10.41767 -2.2495,4.41861 -4.07316,8.68356 -7.23743,11.03041 -3.16393,2.34603 -8.09325,4.60961 -10.4669,5.94966 -2.37281,1.3404 -4.07684,1.95664 -5.11056,3.53194 -1.03406,1.57613 -0.72774,3.38869 -1.76146,4.96399 -1.0349,1.57578 -2.79843,3.17573 -4.32054,4.20647 -1.51962,1.0318 -4.319,4.20515 -5.04931,5.91313 -0.72891,1.70466 -2.43224,4.00375 -2.30984,5.40194 0.12241,1.39819 1.58162,-2.01443 3.71078,-4.46718 2.12717,-2.45263 4.01455,-4.33535 6.0829,-5.80594 2.06836,-1.47058 3.34412,-5.2964 4.56058,-6.45685 1.21682,-1.16128 3.77217,-3.7685 8.57977,-5.74743 4.80761,-1.97893 8.1543,-5.59461 10.9512,-8.76903 2.79843,-3.17572 8.88168,-8.98248 12.59316,-11.76681 3.71265,-2.7848 8.76356,-5.33506 14.66648,-6.50893 5.90326,-1.1747 12.47662,-3.07202 14.66821,-3.14406 2.19123,-0.0712 6.63509,-1.19945 4.93057,1.10011 -1.70416,2.29874 -4.01504,6.01868 -5.41087,10.12986 -1.39749,4.11048 -3.5861,10.9111 -3.88731,14.14449 -0.30121,3.2334 -0.29892,8.27912 -1.27127,10.55311 -0.97269,2.27481 -3.64754,6.84824 -5.77718,9.29982 -2.12786,2.45427 -7.90934,6.70848 -9.91679,8.87657 -2.00745,2.16808 -4.19882,3.92179 -5.29323,6.48127 -1.09406,2.55865 -1.94503,4.54879 -2.24742,7.78266 -0.30286,3.23268 -0.0587,4.34621 -2.00552,7.21463 -1.94641,2.8676 -4.01267,6.01773 -7.29949,8.64889 -3.28517,2.63186 -5.23192,3.81578 -5.84017,5.23826 -0.60788,1.42165 -0.85029,3.67299 -1.88318,5.24865 -1.03419,1.57413 -2.79808,3.17489 -5.47536,4.3851 -2.67823,1.20785 2.25331,0.62582 4.56404,-1.41161 2.31227,-2.03872 3.10104,-4.7279 5.10931,-6.89564 2.00698,-2.16927 4.13697,-4.62166 6.63233,-6.24636 2.49419,-1.62423 5.71996,-3.27039 7.66591,-6.13917 1.94607,-2.86677 4.01143,-9.38143 4.80173,-12.07191 0.78995,-2.68966 2.36983,-6.38447 4.2559,-8.26872 1.88644,-1.88507 8.76184,-7.01543 10.52537,-8.61538 1.76437,-1.59958 5.96132,-7.20377 7.5419,-10.90023 1.58058,-3.69646 2.97406,-16.21754 3.8842,-19.19057 0.91214,-2.97314 5.04564,-12.64005 9.24482,-16.56267 4.19799,-3.92215 11.74809,-12.02958 16.851,-15.83123 5.01942,-3.73878 13.99306,-11.67182 20.13872,-15.09786 6.14567,-3.42605 19.6565,-9.75669 27.56826,-11.41745 7.9121,-1.66159 17.22293,-4.06996 22.51811,-5.50468 5.29634,-1.43519 25.13311,-10.77809 28.60231,-12.99359 3.46875,-2.21666 7.54419,-5.8545 7.54419,-5.8545 1.00854,-6.24396 2.80977,-13.84836 -6.21117,-5.68524 z"
   id="path8"
   inkscape:connector-curvature="0"
   style="fill:#e1a6aa"
   sodipodi:nodetypes="ccccccccccccccsscscsccccccsscsscccscccccccccscccsccccc" />
<path
   d="m 638.33035,98.18458 c 0,0 10.699,-0.345 18.079,1.033 7.379,1.378 16.603,2.413 23.613,6.547 7.011,4.135 19.556,10.683 24.352,14.473 4.796,3.791 25.09,17.918 25.09,17.918 l 8.486,3.791 c 0,0 -3.321,31.358 -4.797,44.797 -1.477,13.439 -4.428,42.04 -6.642,51 -2.213,8.959 -9.594,54.445 -9.594,54.445 0,0 -9.962,-12.062 -11.067,-16.54 -1.106,-4.48 -5.534,-13.439 -3.321,-15.506 2.215,-2.068 10.7,-8.271 12.545,-11.716 1.844,-3.447 2.952,-4.48 3.32,-9.649 0.369,-5.168 -0.922,-7.751 -3.781,-12.492 -2.859,-4.738 -5.903,-10.767 -9.315,-11.456 -3.413,-0.689 -4.98,-2.241 -8.302,-1.552 -3.32,0.691 -8.484,4.136 -11.807,5.17 -3.321,1.033 -12.545,2.413 -12.545,2.413 0,0 -4.796,-9.649 -7.379,-14.129 -2.584,-4.479 -12.176,-9.648 -13.282,-12.06 -1.106,-2.412 -0.37,-6.547 2.951,-10.683 3.32,-4.135 12.913,-15.852 14.02,-18.952 1.107,-3.1 1.477,-7.582 0.369,-10.337 -1.106,-2.756 -4.796,-9.994 -7.379,-12.405 -2.583,-2.413 -7.38,-5.515 -11.438,-5.859 -4.06,-0.345 -7.749,1.034 -9.224,2.413 -1.477,1.377 -9.5,5.599 -9.5,5.599 l 3.598,-22.14 2.95,-24.12 z"
   id="path10"
   inkscape:connector-curvature="0"
   style="fill:#ea5e75" />
<path
   d="m 533.91035,166.76458 c 0,0 25.479,4.368 35.788,7.236 17.341,4.824 33.208,16.195 40.586,20.675 7.378,4.48 23.244,17.918 26.197,22.743 2.952,4.825 13.282,19.641 13.282,19.641 0,0 -13.282,-7.925 -15.864,-9.305 -2.584,-1.377 -9.964,-5.858 -11.439,-6.203 -1.475,-0.344 -5.533,-0.344 -5.533,-0.344 0,0 -4.059,-4.479 -8.118,-8.614 -4.058,-4.136 -14.39,-12.751 -22.138,-16.196 -7.749,-3.445 -19.555,-8.615 -23.982,-9.648 -4.428,-1.034 -11.808,-0.69 -11.808,-0.69 l -4.059,1.034 -17.71,-21.365 4.79,1.03 z"
   id="path12"
   inkscape:connector-curvature="0"
   style="fill:#e1a6aa" />
<path
   d="m 433.18035,-206.42842 h 32.469 c 0,0 1.475,21.709 2.583,28.946 1.106,7.236 6.272,34.114 7.01,37.215 0.738,3.102 0.738,3.102 1.476,2.757 0.738,-0.344 -17.71,6.892 -22.507,10.338 -4.796,3.446 -13.652,8.27 -13.652,8.27 0,0 -3.321,-8.27 -5.166,-13.784 -1.844,-5.514 -2.583,-15.851 -3.321,-24.122 -0.738,-8.27 0.369,-26.877 0.369,-32.391 0,-5.514 0.74,-17.229 0.74,-17.229 z"
   id="path14"
   inkscape:connector-curvature="0"
   style="fill:#ea5e75" />
<path
   d="m 558.26035,-159.56442 12.914,-46.175 h 90.765 l -1.476,11.372 c 0,0 -11.807,2.412 -22.875,6.892 -11.068,4.48 -28.41,11.716 -38.742,15.506 -10.32,3.79 -40.58,12.405 -40.58,12.405 z"
   id="path16"
   inkscape:connector-curvature="0"
   style="fill:#ea5e75" />
<path
   d="m 701.05035,45.81458 c -0.369,-2.413 10.331,-6.203 16.604,-8.615 6.273,-2.412 16.972,-6.547 16.972,-6.547 0,0 2.214,11.716 3.689,18.607 1.476,6.892 1.476,23.087 1.476,23.087 0,0 -9.592,-6.892 -13.651,-9.304 -4.059,-2.413 -18.448,-9.649 -21.398,-11.716 -2.95,-2.07 -3.53,-4.49 -3.69,-5.51 z"
   id="path18"
   inkscape:connector-curvature="0"
   style="fill:#ea5e75" />
<path
   d="m 403.48035,174.68458 c -3.726,-7.457 -11.253,-33.082 -11.991,-37.56 -0.738,-4.479 -5.534,-30.668 -6.273,-42.039 -0.737,-11.372 0.738,-25.5 2.398,-34.804 1.66,-9.304 5.904,-24.293 8.117,-29.979 2.213,-5.686 10.515,-25.5 18.263,-36.699 7.749,-11.198 23.06,-30.84 30.439,-38.077 7.379,-7.236 19.555,-19.297 28.41,-25.671 8.855,-6.375 20.662,-15.334 32.653,-20.331 11.991,-4.997 19.555,-7.581 28.226,-9.476 8.67,-1.896 36.158,-6.547 48.888,-9.649 12.73,-3.102 25.828,-6.719 32.837,-9.131 7.01,-2.413 16.233,-6.03 20.293,-7.236 4.058,-1.207 6.824,-2.757 6.824,-2.757 0,0 -2.398,9.305 -2.583,14.99 -0.185,5.685 -0.369,13.439 1.106,17.057 1.476,3.619 2.951,8.615 7.38,10.683 4.427,2.068 14.204,6.892 20.292,10.854 6.088,3.963 19.37,12.75 26.749,21.193 7.379,8.442 14.574,20.158 17.895,25.844 3.321,5.686 12.36,27.912 12.36,27.912 0,0 -5.534,2.584 -12.729,4.824 -7.194,2.24 -21.029,6.719 -29.886,7.925 -8.855,1.207 -27.858,3.962 -40.401,4.652 -12.545,0.689 -19.74,0 -25.274,-0.517 -5.534,-0.517 -24.352,-3.273 -29.702,-3.273 -5.35,0 -8.117,-3.618 -17.341,-3.791 -9.224,-0.172 -21.215,0.689 -29.147,2.93 -7.933,2.24 -22.876,11.716 -28.964,17.746 -6.087,6.03 -16.05,20.158 -18.079,34.114 -2.029,13.956 -1.476,18.09 -1.845,23.949 -0.369,5.858 -3.136,17.746 -5.904,23.604 -2.767,5.858 -8.301,15.851 -13.282,21.364 -4.981,5.514 -16.419,18.09 -23.797,24.467 -7.378,6.376 -14.943,13.093 -20.478,16.367 -5.535,3.274 -16.972,6.892 -19.37,6.547 -2.42,-0.32 -4.82,-3.42 -6.11,-6.01 z"
   id="path20"
   inkscape:connector-curvature="0"
   style="fill:#ea5e75" />
<path
   d="m 406.99035,179.85458 c 0,0 4.427,8.097 5.35,11.198 0.922,3.102 2.583,5.341 4.981,8.787 1.996,2.868 4.243,11.198 4.981,18.607 0.738,7.41 1.106,9.133 1.292,14.129 0.171,4.638 1.66,14.99 1.66,14.99 0,0 2.583,7.581 3.69,11.199 1.106,3.618 5.534,14.817 8.302,18.263 2.768,3.446 7.563,9.305 11.253,11.197 3.69,1.896 16.788,5.342 24.905,4.997 8.117,-0.344 12.729,0 17.525,1.033 4.796,1.034 11.991,2.584 16.419,2.241 4.427,-0.346 19.001,-4.997 24.167,-9.133 5.166,-4.136 12.544,-9.476 15.497,-15.334 2.952,-5.859 6.273,-17.23 8.671,-21.193 2.397,-3.963 9.593,-12.75 11.069,-18.953 1.476,-6.201 2.214,-11.716 0.184,-17.401 -2.03,-5.685 -5.534,-13.266 -8.855,-17.057 -3.321,-3.791 -20.662,-22.226 -24.536,-27.223 -3.875,-4.997 -14.942,-19.125 -19.186,-26.706 -4.243,-7.581 -12.544,-24.293 -14.021,-28.6 -1.476,-4.308 -7.194,-22.054 -7.194,-22.054 0,0 -5.165,16.54 -9.593,24.121 -4.427,7.581 -11.992,17.917 -16.972,22.915 -4.981,4.997 -16.234,15.852 -20.847,19.986 -4.613,4.134 -18.08,14.99 -22.138,16.885 -4.059,1.895 -11.807,3.791 -14.205,3.446 -2.39,-0.37 -2.39,-0.37 -2.39,-0.37 z"
   id="path22"
   inkscape:connector-curvature="0"
   style="fill:#eec8c4" />
<path
   d="m 506.42035,222.41458 c -1.66,2.067 -2.214,3.445 -2.767,5.686 -0.553,2.239 -0.738,3.445 -0.369,4.824 0.369,1.377 1.66,-3.791 2.029,-5.513 0.37,-1.73 1.11,-5 1.11,-5 z"
   id="path24"
   inkscape:connector-curvature="0"
   style="fill:#737373" />
<path
   d="m 373.41035,151.25458 c 0,0 -1.475,-2.756 -2.214,-13.784 -0.738,-11.028 0,-29.634 -0.738,-47.553 -0.738,-17.918 0,-32.391 0,-47.553 0,-15.162 3.689,-40.662 5.165,-58.58 1.476,-17.918 1.476,-38.594 2.214,-53.756 0.738,-15.162 2.214,-42.729 2.214,-52.377 0,-9.649 -4.427,-39.283 -4.427,-47.553 0,-8.27 -0.738,-36.526 -0.738,-36.526 h 90.765 c 0,0 1.475,18.608 2.214,27.567 0.738,8.959 2.952,19.987 4.428,25.5 1.475,5.514 3.689,14.473 3.689,14.473"
   id="path26"
   inkscape:connector-curvature="0"
   style="fill:none;stroke:#333333;stroke-width:3.20910001;stroke-linecap:round" />
<path
   d="m 433.18035,-142.33542 c 0,0 2.214,13.095 3.69,18.608 1.476,5.514 -1.292,8.098 -1.292,8.098 l 6.826,-5.168 c 0,0 -5.534,-7.754 -7.749,-13.267 -2.214,-5.514 -2.952,-21.365 -2.952,-33.77 0,-12.405 1.476,-38.594 1.476,-38.594"
   id="path28"
   inkscape:connector-curvature="0"
   style="fill:#333333" />
<path
   d="m 433.18035,-142.33542 c 0,0 2.214,13.095 3.69,18.608 1.476,5.514 -1.292,8.098 -1.292,8.098 l 6.826,-5.168 c 0,0 -5.534,-7.754 -7.749,-13.267 -2.214,-5.514 -2.952,-21.365 -2.952,-33.77 0,-12.405 1.476,-38.594 1.476,-38.594"
   id="path30"
   inkscape:connector-curvature="0"
   style="fill:none;stroke:#333333;stroke-width:2.13940001;stroke-linecap:round;stroke-linejoin:round" />
<polyline
   points="296.54,57.042 308.716,12.246 399.48,12.246 398.005,22.584"
   id="polyline32"
   transform="translate(262.46035,-217.98542)"
   style="fill:none;stroke:#333333;stroke-width:3.20910001;stroke-linecap:round" />
<line
   x1="618.77234"
   x2="612.50037"
   y1="-205.73944"
   y2="-177.26941"
   id="line34"
   style="fill:none;stroke:#333333;stroke-width:2.49600005;stroke-linecap:round" />
<path
   d="m 413.08035,-94.60542 c 4.133,-3.438 5.68,-8.622 10.074,-11.932 7.588,-5.715 13.562,-11.626 21.77,-16.859 8.724,-5.562 17.163,-9.564 26.515,-13.104 12.538,-4.745 24.17,-10.315 37.568,-13.594 11.897,-2.91 23.412,-4.855 35.054,-7.572 2.011,-0.469 6.738,-1.023 8.423,-1.552 10.14,-3.177 17.188,-5.272 27.483,-8.064 16.852,-4.57 32.377,-10.425 47.968,-17.73 4.776,-2.238 7.656,-3.183 12.657,-4.946 2.72,-0.96 6.715,-2.633 7.969,-2.957 12.277,-3.172 17.098,-5.088 24.269,1.479 -1.339,-1.226 -5.162,-2.625 -8.157,-2.963 -8.138,-0.918 -15.877,3.813 -23.498,6.265 -2.076,0.668 -3.94,2.107 -6.044,2.689 -2.856,0.79 -5.345,2.133 -7.906,3.254 -4.398,1.925 -8.71,3.963 -13.173,5.65 -14.707,5.56 -28.896,11.262 -44.18,15.714 -11.344,3.304 -20.888,5.328 -32.508,8.113 -3.672,0.88 -8.06,1.689 -11.748,2.283 -5.501,0.886 -11.545,2.843 -17.305,4.243 -10.184,2.477 -20.071,6.15 -30.21,9.419 -10.84,3.496 -20.511,8.297 -30.453,14.43 -1.147,0.708 -2.372,1.261 -3.47,2.019 -5.821,4.014 -11.396,7.242 -16.55,11.742 -4.721,4.123 -9.092,8.267 -13.439,12.593"
   id="path36"
   inkscape:connector-curvature="0"
   style="fill:#333333" />
<path
   d="m 682.60035,-176.79342 c 3.45,6.661 8.118,23.777 2.215,27.223 -5.904,3.446 -12.913,0 -19.924,-15.506 -7.01,-15.506 -8.117,-27.223 -4.428,-29.29 3.68,-2.069 11.25,-3.447 22.13,17.573 z"
   id="path38"
   inkscape:connector-curvature="0"
   style="fill:none;stroke:#333333;stroke-width:2.13940001;stroke-linecap:round" />
<path
   d="m 674.30035,-150.94942 c -1.557,-0.923 2.767,2.154 2.951,3.36 0.185,1.207 0,2.24 -1.753,3.188 -1.753,0.948 -14.852,7.236 -20.939,9.476 -6.087,2.24 -33.944,13.267 -42.799,16.023 -8.854,2.757 -35.789,10.166 -51.655,12.405 -15.864,2.24 -31.546,5.168 -40.033,8.27 -8.486,3.101 -26.934,12.06 -33.944,16.368 -7.011,4.308 -24.905,18.263 -33.022,26.361 -8.117,8.098 -21.769,23.087 -27.119,29.463 -5.35,6.375 -16.049,22.742 -20.293,31.185 -4.242,8.442 -11.991,24.121 -16.419,42.384 -4.427,18.263 -7.01,26.878 -6.272,47.209 0.738,20.332 4.612,25.844 4.981,32.047 0.369,6.202 0.738,8.787 0.185,11.199 -0.554,2.413 -0.554,4.651 -2.214,5.34 -1.66,0.69 -4.612,0.69 -6.642,1.895 -2.029,1.206 -4.059,2.584 -5.35,4.307 -1.292,1.723 -2.952,3.963 -4.242,7.237 -1.292,3.273 -1.476,6.202 -1.845,8.787 -0.369,2.584 1.66,-4.651 3.875,-8.787 2.214,-4.135 3.689,-6.547 6.087,-8.098 2.398,-1.551 3.69,-1.896 6.457,-2.24 2.767,-0.345 3.689,-1.378 5.904,-0.345 2.214,1.033 3.136,0.689 3.875,3.445 0.738,2.757 1.66,6.892 2.583,10.51 0.922,3.619 1.66,6.547 3.321,10.855 1.66,4.308 1.66,5.168 4.427,9.993 2.767,4.825 4.981,7.237 6.088,10.166 1.107,2.929 1.292,5.514 2.952,7.753 1.66,2.239 3.504,3.619 5.719,5.341 2.214,1.722 3.136,-2.067 3.136,-2.067 0,0 -1.475,-1.551 -3.504,-4.136 -2.029,-2.584 -4.244,-7.409 -5.719,-9.304 -1.476,-1.895 -2.767,-4.136 -3.321,-5.168 -0.554,-1.033 -1.106,-1.895 1.107,-1.723 2.213,0.173 5.35,-0.344 7.194,-1.551 1.844,-1.206 -0.738,-2.067 -0.738,-2.067 0,0 -2.214,1.896 -4.244,1.378 -2.03,-0.518 -3.321,-0.345 -5.35,-3.101 -2.029,-2.757 -5.719,-9.132 -8.117,-17.402 -2.398,-8.27 -4.428,-17.574 -6.088,-24.981 -1.661,-7.41 -3.136,-11.028 -4.612,-19.987 -1.476,-8.958 -2.767,-19.813 -2.583,-29.117 0.184,-9.303 2.952,-37.043 11.622,-58.235 8.671,-21.193 19.74,-38.594 35.605,-56.685 15.865,-18.091 21.03,-23.777 30.624,-31.53 9.592,-7.753 20.662,-16.541 30.809,-21.709 10.146,-5.168 19.001,-9.303 28.595,-12.578 9.593,-3.274 19.555,-5.514 29.887,-6.892 10.331,-1.378 18.632,-2.757 31.73,-5.858 13.099,-3.102 25.458,-6.72 35.236,-9.821 9.778,-3.101 21.769,-8.442 30.992,-12.233 9.225,-3.79 22.508,-10.165 25.828,-11.716 3.32,-1.55 5.329,-3.552 7.194,-5.255 3.967,-3.619 2.952,-6.978 2.952,-6.978 0,0 -1.106,5.168 -3.874,5.686 -2.79,0.527 -4.45,0.785 -9.25,-2.057 z"
   id="path40"
   inkscape:connector-curvature="0"
   style="fill:#333333" />
<path
   d="m 594.79035,-112.18542 c 0,0 -0.554,1.378 0.739,4.308 1.291,2.93 1.475,3.791 5.904,5.686 4.428,1.896 14.943,4.824 22.322,7.236 7.379,2.413 22.138,8.27 29.518,12.061 7.379,3.79 33.392,19.125 43.168,31.357 9.777,12.233 17.895,27.739 21.03,34.287 3.135,6.548 6.641,14.646 6.825,16.195 0.185,1.551 2.215,-0.344 2.215,-0.344 0,0 -4.429,-15.334 -12.544,-28.773 -8.118,-13.439 -15.682,-26.877 -37.819,-41.696 -22.138,-14.817 -24.167,-13.266 -28.409,-16.195 -4.243,-2.929 -5.351,-5.858 -6.273,-9.476 -0.922,-3.618 -0.922,-3.618 -0.922,-3.618 0,0 -0.369,-10.51 0.369,-16.712 0.738,-6.202 2.215,-10.165 2.215,-10.165 l -2.029,1.034 c 0,0 -1.476,6.892 -1.845,11.371 -0.369,4.479 -0.555,7.408 -0.369,11.027 0.185,3.619 0.369,4.308 0.738,7.064 0.368,2.757 2.952,5.168 0.184,4.308 -2.767,-0.862 -14.942,-3.791 -20.478,-5.686 -5.534,-1.895 -13.098,-3.618 -15.68,-5.341 -2.583,-1.724 -4.795,-4.479 -5.35,-6.03 -0.554,-1.551 -0.554,-2.584 -0.554,-2.584 l -2.96,0.67 z"
   id="path42"
   inkscape:connector-curvature="0"
   style="fill:#333333" />
<path
   d="m 742.55035,8.60458 c -3.517,-7.664 -2.719,-15.346 1.781,-17.147 4.5,-1.801 11.006,2.957 14.523,10.621 3.517,7.664 2.719,15.346 -1.781,17.146 -4.5,1.81 -11,-2.95 -14.52,-10.62 z"
   id="path44"
   inkscape:connector-curvature="0"
   style="fill:none;stroke:#333333;stroke-width:2.49589992;stroke-linecap:round" />
<path
   d="m 746.61035,7.00458 c -2.27,-4.944 -2.285,-9.688 -0.035,-10.589 2.25,-0.901 5.918,2.38 8.188,7.325 2.27,4.945 2.285,9.688 0.035,10.589 -2.25,0.901 -5.92,-2.38 -8.19,-7.32 z"
   id="path46"
   inkscape:connector-curvature="0"
   style="fill:none;stroke:#333333;stroke-width:1.42630005;stroke-linecap:round" />
<path
   d="m 747.49035,-3.12542 c 2.252,-0.901 5.616,2.543 7.634,7.585 1.273,3.182 2.377,8.655 0.127,9.556 -2.252,0.901 -5.456,-1.604 -7.726,-6.551 -2.27,-4.94 -2.28,-9.68 -0.03,-10.59 z"
   id="path48"
   inkscape:connector-curvature="0"
   style="fill:#00addc;stroke:#333333;stroke-width:1.42630005;stroke-linecap:round" />
<path
   d="m 751.88035,19.19458 c -0.831,1.033 -0.737,1.12 -4.15,3.187 -3.413,2.068 -12.453,5.858 -16.234,7.495 -3.781,1.637 -8.394,3.36 -13.19,5.168 -4.795,1.809 -11.069,4.479 -14.573,5.427 -3.505,0.948 -5.995,1.981 -9.87,2.068 -3.874,0.086 -6.918,-0.259 -9.039,-1.034 -2.122,-0.775 -9.04,-4.221 -9.04,-4.221 0,0 8.947,6.203 12.359,7.323 3.414,1.119 5.905,2.068 8.486,3.36 2.584,1.292 3.412,2.154 7.287,3.963 3.874,1.809 8.3,4.394 11.529,6.375 3.229,1.981 4.611,2.498 8.117,4.566 3.507,2.068 12.729,8.012 20.109,13.525 7.378,5.514 10.792,7.15 13.928,9.82 3.136,2.67 4.704,4.479 6.181,5.944 1.476,1.465 3.967,3.36 5.258,4.911 1.292,1.551 3.874,1.551 1.569,-1.465 -2.306,-3.015 -11.898,-11.285 -17.895,-15.506 -5.995,-4.222 -11.715,-8.787 -17.895,-12.922 -6.18,-4.135 -21.769,-12.75 -25.366,-14.646 -3.598,-1.895 -6.273,-2.67 -6.456,-4.049 -0.185,-1.378 1.162,-3.214 2.767,-4.566 4.705,-3.963 12.453,-5.944 19.186,-8.27 6.733,-2.326 16.511,-6.719 20.478,-8.443 3.967,-1.722 11.715,-6.203 13.19,-7.925 1.475,-1.722 2.029,-3.705 2.213,-5.083 0.185,-1.378 -0.46,1.637 -1.752,3.016 -1.292,1.379 -2.214,2.154 -3.599,2.068 -1.41,-0.09 -3.62,-0.09 -3.62,-0.09 z"
   id="path50"
   inkscape:connector-curvature="0"
   style="fill:#333333" />
<path
   d="m 735.92035,31.25458 c 0.921,4.997 2.95,14.903 3.505,20.417 0.554,5.513 0.415,19.167 0.415,19.167 l -1.476,-1.033 c 0,0 0.323,-9.003 -0.782,-16.928 -1.107,-7.925 -1.661,-12.75 -2.584,-15.334 -0.922,-2.584 -1.891,-5.125 -1.891,-5.125 l 2.81,-1.18 z"
   id="path52"
   inkscape:connector-curvature="0"
   style="fill:#333333" />
<path
   d="m 769.59035,96.02458 c 5.997,3.966 1.827,18.758 -6.581,29.85 -8.409,11.093 -22.855,18.938 -28.854,14.973 -5.997,-3.966 -5.62,-14.743 6.582,-29.678 12.41,-15.19 22.86,-19.11 28.85,-15.14 z"
   id="path54"
   inkscape:connector-curvature="0"
   style="fill:none;stroke:#333333;stroke-width:2.13940001;stroke-linecap:round" />
<path
   d="m 764.12035,105.43458 c 2.953,2.152 -0.259,11.122 -7.174,19.398 -6.915,8.274 -14.915,13.236 -17.868,11.084 -2.953,-2.153 0.259,-10.606 7.174,-18.881 6.92,-8.28 14.92,-13.76 17.87,-11.6 z"
   id="path56"
   inkscape:connector-curvature="0"
   style="fill:none;stroke:#333333;stroke-width:2.13940001;stroke-linecap:round" />
<path
   d="m 764.86035,103.53458 c 2.953,2.153 -0.628,12.329 -7.542,20.603 -6.914,8.275 -15.283,13.927 -18.237,11.773 -2.953,-2.153 0.995,-13.019 7.911,-21.293 6.91,-8.27 14.91,-13.23 17.87,-11.08 z"
   id="path58"
   inkscape:connector-curvature="0"
   style="fill:#00addc;stroke:#333333;stroke-width:2.13940001;stroke-linecap:round" />
<path
   d="m 597.56035,122.30458 c 0,0 -0.738,0.516 2.951,3.618 3.69,3.102 5.719,5.686 7.194,8.442 1.476,2.757 2.767,6.203 4.981,8.959 2.213,2.757 2.767,4.137 5.903,6.03 0,0 8.118,6.202 11.253,9.304 3.136,3.102 7.195,10.165 9.04,14.302 1.845,4.135 7.011,8.442 9.04,11.198 2.028,2.757 6.273,10.51 6.273,10.51 0,0 2.214,1.895 3.505,2.413 1.291,0.517 6.088,4.479 8.117,7.924 2.029,3.447 7.38,14.473 9.778,19.986 2.398,5.513 6.088,12.233 9.963,16.712 3.873,4.48 11.808,14.302 15.127,19.47 3.321,5.169 6.274,11.372 7.935,15.162 1.66,3.791 1.845,4.997 3.874,7.581 2.028,2.584 13.835,14.645 18.816,22.398 4.982,7.753 7.194,11.372 10.516,17.401 3.32,6.03 6.272,11.027 6.825,23.432 63.30656,171.81712 64.58291,254.08962 24.77602,289.20427 -40.03733,35.31794 -121.63494,22.93045 -223.47994,5.9647 -21.24843,-3.80784 -41.55124,-8.82993 -55.55245,-11.72546 -45.57494,-9.42517 -57.96555,-15.50939 -100.87263,-44.98751 -8.486,-5.343 -21.215,-13.613 -29.886,-19.642 -8.671,-6.03 -19.555,-14.473 -23.982,-19.297 -4.427,-4.825 -6.457,-8.614 -9.777,-10.339 -3.321,-1.723 -9.962,-4.651 -15.497,-9.647 -5.534,-4.997 -15.127,-15.852 -19.001,-22.398 -3.874,-6.548 -7.195,-11.027 -8.301,-16.712 -1.106,-5.686 -0.554,-7.753 -2.398,-12.234 -1.845,-4.479 -9.593,-18.78 -10.884,-25.672 -1.292,-6.891 -3.69,-20.847 -2.583,-31.357 1.106,-10.51 2.029,-20.33 5.534,-27.396 3.504,-7.064 0.185,-7.925 0.185,-12.577 0,-4.652 -2.029,-11.37 1.107,-26.188 3.136,-14.817 6.642,-20.503 8.302,-26.878 1.661,-6.376 1.476,-12.062 2.952,-16.369 1.475,-4.306 4.058,-10.683 7.194,-16.195 3.136,-5.513 7.01,-10.683 9.04,-18.263 2.03,-7.58 6.642,-21.193 8.302,-26.017 1.66,-4.824 5.719,-14.99 9.224,-20.331 3.505,-5.342 10.146,-11.888 12.36,-16.024 2.214,-4.135 7.011,-13.611 10.884,-20.33 3.875,-6.719 9.777,-14.99 12.729,-22.226 2.952,-7.237 4.243,-11.544 6.272,-16.541 0,0 3.874,-8.27 4.612,-9.476 0.738,-1.206 2.398,-3.274 2.398,-3.274 l 0.369,6.03 c 0,0 -0.738,-0.518 -2.398,1.895 -1.661,2.413 -4.428,11.544 -6.273,16.023 -1.844,4.479 -5.904,14.473 -8.486,19.641 -2.583,5.168 -8.302,13.783 -10.885,18.435 -2.583,4.651 -6.642,10.854 -8.117,13.956 -1.476,3.102 -2.029,3.963 -2.029,5.513 0,1.552 -0.738,3.102 0,2.758 0.738,-0.345 5.534,-3.619 5.534,-3.619 0,0 -3.689,2.413 -4.243,4.136 -0.554,1.723 -2.398,4.479 -2.952,6.203 -0.554,1.723 -1.66,4.651 -2.583,6.029 -0.922,1.379 -2.214,4.996 -2.214,7.582 0,2.584 0.369,-6.721 1.66,-9.305 1.291,-2.584 1.845,-4.651 1.661,-6.03 -0.185,-1.377 -1.292,-1.723 -3.321,-0.346 -2.029,1.379 -6.457,5.688 -8.671,12.062 -2.214,6.374 -6.273,20.848 -7.379,25.499 -1.106,4.651 -0.738,7.237 -2.029,9.821 -1.291,2.584 -6.457,8.959 -10.331,16.023 -3.875,7.063 -6.457,13.094 -7.379,18.263 -0.923,5.169 -0.923,7.41 -2.398,12.577 -1.476,5.17 -2.952,9.648 -4.796,15.68 -1.844,6.03 -4.427,11.027 -4.981,19.813 -0.554,8.787 -0.369,14.473 0.184,17.058 0.554,2.584 0.738,3.962 1.66,4.822 0.923,0.861 2.029,1.034 1.661,1.897 -0.369,0.86 -1.845,3.1 -3.136,6.029 -1.291,2.929 -3.136,8.614 -4.058,12.922 -0.923,4.306 -2.767,13.268 -2.398,24.12 0.369,10.855 2.214,22.228 4.428,27.396 2.213,5.169 5.719,6.202 7.379,8.098 1.661,1.896 2.583,6.03 3.505,9.476 0.922,3.446 1.107,8.443 2.029,13.61 0.923,5.17 3.136,13.095 7.194,16.369 4.059,3.274 7.011,9.647 10.516,14.645 3.505,4.998 9.04,10.683 11.623,12.75 2.583,2.068 4.243,3.79 6.088,3.79 1.845,0 1.106,-1.722 0.554,-3.101 -0.554,-1.378 -3.875,-5.858 -5.534,-7.408 -1.659,-1.552 1.476,0 4.244,2.411 2.768,2.413 14.759,11.199 16.788,12.579 2.029,1.377 -5.35,-3.102 -6.826,-3.274 -1.476,-0.172 -2.398,0 -1.107,1.723 1.291,1.723 4.059,6.374 7.379,9.648 3.321,3.273 20.293,17.746 32.285,24.466 11.991,6.721 29.701,18.264 38.741,25.499 9.04,7.237 36.824,20.567 56.16,25.669 27.40607,4.75273 52.52965,12.88788 76.96505,17.23327 20.15692,3.58455 38.29656,6.92094 56.56426,10.14057 23.62037,4.16302 47.03027,5.49136 67.75888,7.20414 32.72041,2.70366 58.95801,1.28296 84.41394,-10.58929 8.97845,-4.1874 16.34466,-11.22046 26.29227,-20.99608 3.02579,-2.97347 10.22602,-16.30677 13.79819,-36.80658 2.78451,-15.97969 1.87762,-51.04118 -8.47605,-101.24326 -8.23984,-39.9527 -22.94315,-89.49482 -43.07054,-146.63977 -0.739,-5.687 -3.137,-11.027 -5.351,-14.129 -2.214,-3.102 -7.01,-8.787 -9.593,-13.266 -2.584,-4.48 -6.826,-8.616 -9.409,-12.061 -2.584,-3.447 -3.32,-5.17 -5.903,-8.787 -2.583,-3.62 -7.934,-11.718 -9.224,-15.336 -1.29,-3.617 -4.981,-10.509 -10.886,-18.778 -5.902,-8.271 -8.67,-10.339 -11.438,-14.129 -2.768,-3.79 -6.272,-9.648 -9.408,-16.713 -3.137,-7.064 -6.642,-14.645 -8.671,-18.09 -2.029,-3.445 -4.797,-6.719 -6.456,-7.582 -1.66,-0.861 -3.321,-2.067 -3.688,-1.206 -0.37,0.862 -0.555,4.137 -0.555,5.687 0,1.551 -0.369,4.997 -0.369,4.997 0,0 -0.554,-6.375 -1.845,-11.372 -1.291,-4.997 -2.767,-9.131 -5.35,-11.888 -2.583,-2.757 -6.642,-4.479 -8.486,-6.72 -1.845,-2.24 -2.951,-6.72 -4.611,-10.682 -1.66,-3.964 -3.874,-6.72 -6.641,-8.96 -2.768,-2.24 -8.117,-3.101 -10.33,-5.168 -2.214,-2.067 -5.719,-6.546 -6.642,-10.337 -0.922,-3.791 -2.398,-7.581 -4.243,-9.994 -1.845,-2.412 -4.981,-6.546 -6.457,-7.063 -1.476,-0.517 -2.952,-1.551 -2.952,-1.551 l 2.41,-2.9 z"
   id="path60"
   inkscape:connector-curvature="0"
   style="fill:#333333"
   sodipodi:nodetypes="cccccccccccscccccccscsccccccccccssccccsscccccscccccccsccsccssccsssccccscccscsccsccscsccccssccccssssssscscccccscsccscssccccccsccc" />
<path
   d="m 616.00035,147.55458 c 0,0 1.66,0.603 4.059,0.603 2.397,0 6.718,-1.74 8.671,-2.584 6.18,-2.672 9.408,-5.515 12.544,-7.754 3.136,-2.239 6.825,-3.274 9.593,-2.584 2.768,0.69 9.04,1.981 14.298,9.305 5.251,7.313 6.18,11.371 6.365,13.439 0.185,2.067 0.369,3.963 -1.475,7.581 -1.845,3.618 -6.274,9.476 -8.855,12.578 -2.584,3.101 -5.834,7.491 -6.642,10.165 -1.015,3.36 -0.83,5.772 -0.83,5.772 l -4.059,-6.547 c 0,0 4.795,-7.149 8.117,-11.113 3.136,-3.743 8.688,-9.682 10.053,-12.233 2.029,-3.791 0.923,-7.41 -0.553,-11.199 -1.477,-3.791 -2.859,-6.719 -5.442,-9.649 -2.653,-3.009 -6.734,-5.686 -9.869,-6.375 -3.136,-0.689 -4.428,-1.033 -7.011,0.69 -2.583,1.722 -5.719,3.963 -9.408,6.375 -3.688,2.413 -10.7,6.201 -11.991,6.719 -1.29,0.517 -1.198,0.602 -1.198,1.637 0.02,1.01 -6.35,-4.84 -6.35,-4.84 z"
   id="path62"
   inkscape:connector-curvature="0"
   style="fill:#333333" />
<path
   d="m 671.63035,217.41458 c 0,0 1.198,1.205 3.229,1.551 2.029,0.345 3.874,0.345 5.534,0 1.66,-0.346 8.854,-3.274 10.7,-4.307 1.845,-1.033 4.059,-2.584 6.457,-2.412 2.397,0.172 5.903,1.206 7.748,2.583 1.844,1.379 7.748,5.945 9.592,9.306 1.845,3.359 4.521,8.443 4.89,11.285 0.369,2.844 0.276,7.237 -0.369,9.649 -0.646,2.411 -3.78,5.943 -5.903,7.751 -2.121,1.81 -6.641,4.912 -7.655,6.376 -1.014,1.464 -2.029,3.617 -2.029,5.34 0,1.725 0.462,3.188 0.462,3.188 l -5.443,-8.699 c 0,0 0.831,0.344 1.569,0 0.737,-0.346 4.795,-3.964 7.011,-5.772 2.213,-1.808 6.824,-5.858 8.3,-8.7 1.476,-2.843 2.398,-6.806 2.029,-9.305 -0.369,-2.499 -1.476,-6.289 -3.135,-8.96 -1.661,-2.671 -3.967,-5.943 -5.904,-7.58 -1.937,-1.638 -5.258,-4.051 -6.824,-4.566 -1.568,-0.517 -4.612,-0.344 -6.457,0.173 -1.845,0.516 -4.61,2.584 -6.364,3.444 -1.754,0.861 -7.103,3.36 -9.04,3.791 -1.937,0.432 -5.339,0.775 -5.719,0.775 -0.39,0.01 -2.69,-4.9 -2.69,-4.9 z"
   id="path64"
   inkscape:connector-curvature="0"
   style="fill:#333333" />
<polygon
   points="369.318,362.434 371.716,360.883 377.527,317.551 374.206,317.551 "
   id="polygon66"
   transform="translate(262.46035,-217.98542)"
   style="fill:#333333" />
<path
   d="m 736.66035,142.85458 c 0,0 -6.457,59.055 -7.933,72.837 -1.476,13.784 -11.53,70.554 -12.269,72.967 -0.738,2.412 1.521,1.808 1.521,1.808 0,0 7.914,-41.038 10.747,-58.235 4.059,-24.638 10.377,-88.086 10.561,-89.463 0.18,-1.38 -2.63,0.08 -2.63,0.08 z"
   id="path68"
   inkscape:connector-curvature="0"
   style="fill:#333333" />
<path
   d="m 423.41035,243.17458 c 0.646,3.102 6.427,23.954 9.409,29.031 3.136,5.34 10.146,16.367 20.847,19.47 10.7,3.102 25.274,2.584 28.041,2.24 2.767,-0.346 9.04,2.584 14.205,3.445 5.165,0.86 20.662,1.377 28.779,-3.618 8.117,-4.996 16.05,-11.543 19.924,-15.852 3.875,-4.306 4.98,-8.271 6.456,-12.232 1.475,-3.963 4.058,-8.959 5.719,-12.231 1.66,-3.274 7.565,-12.407 9.224,-15.507 1.661,-3.102 3.599,-13.525 3.69,-15.506 0.128,-2.756 -0.645,-5.428 -1.66,-8.874 -1.015,-3.445 -4.981,-10.941 -7.38,-14.387 -2.398,-3.446 -8.67,-9.649 -11.254,-12.233 -2.583,-2.584 -11.898,-12.836 -16.88,-19.9 -4.981,-7.064 -14.574,-19.125 -19.094,-27.653 -2.821,-5.325 -9.962,-20.847 -13.098,-27.739 -3.136,-6.892 -5.627,-21.192 -5.627,-21.192 0,0 -0.461,1.206 -0.461,2.413 0,1.206 -1.292,6.719 -1.292,6.719 0,0 3.505,9.82 6.826,17.918 3.321,8.098 9.224,18.78 13.467,26.533 4.243,7.752 15.681,22.656 18.54,26.532 2.859,3.876 8.671,11.027 12.176,14.559 3.505,3.532 10.146,9.562 12.361,12.06 2.214,2.499 6.272,8.873 7.47,11.803 1.199,2.929 3.782,8.786 3.874,11.371 0.092,2.585 0.185,3.016 -1.475,8.961 -1.709,6.116 -5.904,12.921 -9.593,16.367 -3.689,3.445 -9.593,7.237 -14.574,8.441 -4.981,1.206 -11.253,1.896 -16.234,1.034 -4.981,-0.862 -12.36,-2.239 -13.836,-2.929 -1.476,-0.69 -2.214,-1.032 -2.952,-3.964 -0.738,-2.929 -3.875,-9.132 -5.35,-11.027 -1.475,-1.895 -4.427,-5.34 -6.088,-6.201 -1.66,-0.862 -6.457,-1.896 -8.302,-1.723 -1.845,0.173 3.689,0.517 5.719,1.55 2.029,1.034 4.428,2.413 6.273,5.686 1.844,3.274 3.689,4.826 4.796,8.96 1.106,4.136 2.767,6.892 2.029,11.027 -0.738,4.135 -2.952,9.476 -4.981,13.957 -2.029,4.479 -3.505,7.581 -6.642,10.337 -3.136,2.756 -5.904,4.823 -8.117,6.375 -2.214,1.55 -10.884,4.824 -10.884,4.824 l 12.729,0.173 c 0,0 1.106,-1.379 2.583,-3.102 1.476,-1.723 3.505,-4.308 6.642,-7.754 3.136,-3.445 6.457,-11.198 8.486,-14.644 2.029,-3.446 2.952,-6.548 4.796,-7.237 1.844,-0.688 4.427,-1.206 7.564,-1.033 3.137,0.173 8.302,0.86 11.807,0.689 3.504,-0.172 7.932,-1.205 10.146,-1.896 2.215,-0.689 3.874,-1.896 4.981,-0.173 1.106,1.725 3.136,3.619 1.66,7.754 -1.475,4.135 -4.796,10.855 -8.67,14.473 -3.874,3.618 -11.069,9.306 -17.341,11.716 -6.272,2.412 -10.146,3.618 -15.128,3.791 -4.981,0.171 -8.117,-1.206 -10.7,-1.552 -2.583,-0.344 -6.642,-1.55 -9.777,-1.723 -3.137,-0.171 -10.885,0.519 -15.865,0.69 -4.981,0.173 -12.883,-1.114 -15.865,-2.067 -7.011,-2.24 -12.176,-7.41 -15.682,-11.716 -3.504,-4.308 -6.087,-8.96 -7.748,-13.268 -1.66,-4.308 -3.751,-10.715 -4.427,-12.75 -0.831,-2.498 -2.168,-11.112 -2.168,-11.112 -0.323,-7.15 -0.691,-10.77 -1.061,-15.336 -0.369,-4.565 -0.738,-8.441 -1.568,-11.973 -0.83,-3.532 -1.476,-6.03 -2.029,-7.063 -0.554,-1.034 -1.476,-2.844 -1.015,0 0.461,2.843 1.292,7.235 1.476,9.477 0.185,2.238 -0.277,2.325 0.369,6.719 0.646,4.394 0.831,5.6 0.922,10.079 0.04,4.48 0.13,6.89 0.78,9.99 z"
   id="path70"
   inkscape:connector-curvature="0"
   style="fill:#737373" />

<path
   d="m 585.83163,647.29476 c -5.165,-0.689 -11.807,-2.414 -15.68,-5.343 -3.873,-2.929 -7.932,-7.063 -10.146,-11.027 -2.214,-3.963 -2.398,-10.51 -2.398,-13.438 0,-2.928 -0.369,-7.581 -2.398,-9.305 -2.029,-1.723 -8.855,-5.341 -11.253,-8.441 -2.398,-3.102 -3.875,-8.444 -4.243,-10.855 -0.369,-2.413 -0.738,-5.688 -1.845,-6.892 -1.106,-1.206 -3.136,-4.48 -4.796,-6.376 -1.66,-1.895 -1.476,-2.929 1.107,-0.688 2.582,2.239 4.796,3.617 5.719,6.03 0.922,2.413 2.214,6.546 3.137,9.13 0.923,2.585 2.029,5.343 4.612,7.583 2.583,2.239 6.272,3.618 8.486,5.686 2.214,2.068 5.165,4.136 5.35,7.235 0.185,3.102 -0.554,9.306 0.554,12.407 1.106,3.101 2.214,7.063 5.35,10.165 3.136,3.102 7.01,5.514 10.146,6.893 3.136,1.378 8.486,2.927 11.807,2.067 3.321,-0.861 6.642,-2.067 8.117,-3.102 1.475,-1.033 2.767,-2.067 2.767,-2.067 0,0 -1.844,3.273 -3.136,4.823 -1.292,1.552 -5.35,3.964 -6.826,4.479 -1.48,0.52 -4.43,1.04 -4.43,1.04 z"
   id="path74"
   inkscape:connector-curvature="0"
   style="fill:#e1a6aa" />
<path
   d="m 420.82035,216.38458 c 0,0 -10.515,13.782 -14.943,19.985 -4.427,6.202 -11.807,15.506 -13.652,20.676 -1.844,5.169 -9.593,19.986 -9.593,19.986 0,0 14.39,-5.514 17.341,-7.237 2.952,-1.723 5.166,-3.102 5.166,-3.102 0,0 1.106,-5.168 4.796,-12.06 3.689,-6.892 12.544,-18.953 12.544,-18.953 l -1.67,-19.31 z"
   id="path76"
   inkscape:connector-curvature="0"
   style="fill:#e1a6aa" />

<path
   d="m 423.04035,202.51458 c 0,0 4.796,3.791 6.365,5.944 1.568,2.154 4.796,5.686 5.073,13.526 0.277,7.839 -1.568,10.768 -2.214,12.663 -0.646,1.895 -1.568,5.944 -2.86,8.184 -1.31,2.272 -4.578,8.578 -7.379,11.631 -3.282,3.576 -9.686,8.441 -12.269,10.94 -2.583,2.498 -9.224,6.979 -13.005,8.614 -3.782,1.638 -11.069,5.342 -13.006,6.548 -1.937,1.206 -2.029,1.55 -2.86,3.272 -0.83,1.723 -2.306,5.86 -4.888,8.528 -2.583,2.671 -9.87,8.184 -12.545,10.424 -2.675,2.239 -4.796,4.048 -6.733,6.892 -1.937,2.844 -3.505,5.428 -6.642,8.012 -3.136,2.584 -6.272,5.082 -9.409,6.892 -3.136,1.81 -4.427,1.379 -6.088,3.188 -1.66,1.81 -4.427,6.634 -6.641,9.046 -2.214,2.412 -6.549,4.91 -8.948,7.666 -2.398,2.758 -5.627,6.116 -6.826,8.185 -1.199,2.067 -2.675,4.308 -2.859,5.083 -0.185,0.776 -2.767,4.997 -4.981,7.322 -2.214,2.326 -6.733,6.289 -9.224,8.27 -2.49,1.981 -7.103,5.944 -8.671,7.237 -1.568,1.292 -4.427,4.136 -4.427,4.136 l -2.398,-3.705 c 0,0 6.273,-4.651 10.792,-8.96 4.521,-4.306 10.332,-7.667 12.176,-10.423 1.844,-2.757 4.705,-9.994 5.627,-11.804 0.922,-1.808 2.675,-5.513 5.995,-7.751 3.321,-2.241 7.103,-4.308 9.04,-6.548 1.938,-2.241 2.767,-3.876 3.136,-4.824 0.369,-0.947 -0.092,-2.153 -2.121,-1.378 -2.029,0.774 -5.258,2.585 -7.103,2.757 -1.844,0.172 -4.981,0.344 -4.981,0.344 0,0 3.782,-1.12 5.627,-2.239 1.844,-1.121 4.52,-3.274 6.549,-5.515 2.029,-2.239 4.427,-5.082 5.719,-5.513 1.292,-0.431 2.49,-0.604 1.844,0.775 -0.646,1.379 -1.844,2.67 -1.752,3.532 0.092,0.859 0,1.119 1.661,0.258 1.66,-0.862 4.796,-1.379 8.855,-4.308 4.058,-2.929 8.763,-6.289 10.792,-8.528 2.029,-2.239 2.859,-4.91 4.243,-6.289 1.383,-1.379 5.442,-4.824 9.131,-7.149 3.69,-2.327 5.996,-4.912 8.301,-8.014 2.306,-3.101 3.136,-4.134 3.598,-5.082 0.461,-0.948 0.461,-1.55 -0.738,-1.638 -1.199,-0.085 -2.767,0 -3.782,-0.258 -1.015,-0.258 -1.568,-0.431 -2.675,-0.085 -1.107,0.344 -2.49,0.947 -3.228,1.206 -0.738,0.258 -3.598,2.584 -3.598,2.584 0,0 3.598,-3.704 4.889,-4.565 1.291,-0.861 4.427,-3.878 6.088,-5.343 1.66,-1.464 1.937,-2.584 3.228,-3.359 1.292,-0.776 1.199,-0.689 3.044,-1.465 1.844,-0.775 1.383,-0.173 -0.185,1.55 -1.568,1.723 -2.49,3.274 -2.767,3.79 -0.277,0.519 0.277,1.034 1.752,0.431 1.476,-0.603 3.506,-1.206 6.273,-2.238 2.767,-1.034 9.5,-4.138 11.898,-5.428 2.398,-1.292 4.612,-2.413 8.671,-5.342 4.059,-2.929 11.346,-8.614 14.021,-12.06 2.675,-3.446 5.534,-7.151 7.379,-11.112 1.845,-3.964 3.966,-8.358 4.427,-12.062 0.461,-3.704 0.554,-7.322 0,-9.82 -0.554,-2.498 -2.952,-7.753 -4.335,-9.046 -1.383,-1.292 -7.194,-5.427 -7.932,-5.944 -0.738,-0.516 2.214,-3.015 2.214,-3.015 l 1.68,1.4 z"
   id="path80"
   inkscape:connector-curvature="0"
   style="fill:#333333" />
<path
   d="m 741.82035,-8.37542 c -3.086,1.235 -9.686,4.221 -14.299,6.203 -4.611,1.982 -21.583,8.614 -33.113,11.199 -11.529,2.584 -23.982,5.513 -35.051,5.944 -11.069,0.431 -21.77,1.378 -29.058,1.292 -7.287,-0.086 -19.001,-1.378 -26.564,-2.326 -7.564,-0.947 -14.39,-1.378 -19.002,-2.412 -4.61,-1.034 -10.146,-4.049 -17.157,-4.824 -7.011,-0.775 -13.098,-0.603 -16.88,0.173 -3.782,0.775 -12.544,3.532 -17.341,6.03 -4.796,2.498 -10.607,5.341 -14.943,8.701 -4.335,3.36 -10.054,9.39 -13.375,13.955 -3.321,4.565 -8.855,13.87 -10.884,23.346 -2.029,9.476 -3.321,17.833 -3.413,24.982 -0.092,7.15 0.554,7.495 -0.369,12.836 -0.923,5.341 -2.214,7.064 -4.335,11.63 -2.122,4.566 -3.782,7.754 -7.472,13.354 -3.689,5.6 -7.656,10.51 -10.423,13.439 -2.767,2.93 -4.519,5.427 -8.486,9.046 -3.966,3.619 -6.365,5.686 -10.423,9.821 -4.058,4.135 -8.854,8.958 -14.758,13.266 -5.904,4.307 -8.025,5.6 -11.992,8.011 -3.967,2.412 -5.534,3.361 -6.549,3.876 -1.015,0.517 -1.106,2.153 1.015,1.55 2.121,-0.603 6.272,-1.808 10.7,-4.652 4.427,-2.843 6.733,-4.651 9.409,-6.461 2.675,-1.809 6.733,-4.738 10.792,-8.528 4.059,-3.791 16.88,-15.765 22.322,-22.399 5.442,-6.633 15.036,-19.556 18.817,-27.739 3.782,-8.184 5.996,-13.18 5.811,-21.192 -0.185,-8.011 -1.292,-15.679 1.383,-26.188 2.675,-10.51 7.749,-21.278 13.652,-27.912 5.903,-6.633 14.942,-13.008 20.385,-16.023 5.442,-3.016 8.301,-4.997 13.467,-5.083 5.167,-0.086 6.457,0.43 9.593,1.033 3.136,0.604 5.074,1.121 11.346,0.518 6.274,-0.604 9.779,-0.948 13.375,-1.121 3.599,-0.172 15.404,-0.517 23.521,0.345 8.118,0.862 11.346,2.068 18.818,3.274 7.471,1.206 17.803,3.876 24.26,5.513 6.455,1.636 8.67,3.36 13.374,5.083 4.704,1.723 6.642,2.584 6.642,2.584 0,0 -6.181,-2.498 -9.316,-4.222 -3.136,-1.723 -5.995,-3.618 -9.593,-4.479 -3.597,-0.861 -9.686,-2.24 -11.069,-2.929 -1.383,-0.689 -0.922,-1.292 1.476,-1.378 2.398,-0.086 25.828,-1.981 33.76,-2.757 7.935,-0.776 26.197,-4.997 33.853,-7.064 7.656,-2.068 20.017,-7.15 24.998,-9.304 4.979,-2.154 8.763,-4.394 10.238,-4.824 1.476,-0.43 0.83,-0.603 0.83,0.603 0,1.207 -0.184,3.273 0.185,4.566 0.368,1.292 0.646,2.929 0.646,2.929 0,0 -0.738,-6.461 0.554,-8.098 1.292,-1.637 1.752,-3.274 3.506,-3.446 1.752,-0.173 3.136,0 3.136,0 0,0 -1.2,-0.603 -2.399,-0.603 -1.21,-0.01 -2.32,0.33 -3.61,0.85 z"
   id="path82"
   inkscape:connector-curvature="0"
   style="fill:#333333" />
<path
   d="m 734.26035,142.81458 c -3.707,-1.154 -13.651,-8.615 -19.555,-12.578 -5.903,-3.964 -21.953,-15.334 -28.595,-18.608 -6.641,-3.273 -14.574,-8.615 -24.536,-9.821 -9.962,-1.206 -20.293,-2.412 -25.089,-1.551 -4.797,0.862 -15.681,3.274 -20.478,6.375 -4.796,3.101 -13.468,11.199 -16.05,14.301 -2.582,3.102 -7.379,9.648 -11.253,14.645 -3.874,4.997 -8.486,10.338 -13.282,12.921 -4.796,2.584 -11.254,4.824 -17.895,7.925 -6.642,3.101 -12.729,5.686 -15.128,10.166 -2.398,4.48 -5.904,11.371 -5.533,14.817 0.37,3.446 2.214,6.72 4.059,9.476 1.845,2.756 2.767,4.136 3.875,4.479 1.106,0.345 1.845,0.861 1.845,0.861 0,0 0,-1.033 0.738,-2.584 0.738,-1.551 2.583,-3.962 2.583,-3.962 0,0 -1.106,2.755 -1.292,5.341 -0.184,2.584 0.185,4.651 0.922,6.546 0.739,1.896 2.399,4.997 2.399,4.997 0,0 -3.504,-3.274 -4.244,-4.997 -0.738,-1.723 -0.922,-3.446 -1.844,-3.618 -0.922,-0.173 -1.475,-0.689 -1.845,0.861 -0.369,1.551 0.185,3.274 1.292,6.202 1.107,2.929 2.952,6.72 5.534,8.614 2.584,1.896 5.534,3.446 9.04,3.618 3.505,0.172 13.098,-1.207 18.079,-1.896 4.981,-0.689 11.808,-2.068 17.157,-1.896 5.35,0.173 9.409,0 14.205,1.723 4.796,1.723 6.826,3.445 8.855,3.791 2.029,0.345 3.505,0 4.428,-0.689 0.922,-0.689 1.291,-1.206 0.185,-2.413 -1.107,-1.206 -4.06,-3.445 -4.06,-3.445 0,0 1.845,1.551 5.166,2.584 3.321,1.034 11.991,3.445 11.991,3.445 0,0 -3.874,-0.688 -7.011,-0.688 -3.137,0 -4.612,-0.172 -4.796,0.86 -0.185,1.033 -0.738,1.723 1.476,2.756 2.214,1.034 8.118,4.997 13.467,8.271 5.35,3.273 6.273,5.34 10.516,6.202 4.244,0.861 6.642,1.032 8.485,0.171 1.845,-0.86 1.936,-1.465 1.106,-3.272 -0.829,-1.809 -2.03,-4.479 -1.936,-5.687 0.092,-1.205 1.014,1.722 1.66,3.101 0.646,1.379 1.844,2.07 3.32,3.017 1.475,0.948 10.607,3.705 10.607,3.705 0,0 -2.583,-0.519 -5.258,-0.861 -2.675,-0.346 -4.797,-0.948 -5.812,0 -1.015,0.947 -2.675,0.689 -2.029,2.239 0.646,1.551 1.568,1.465 4.151,3.704 2.582,2.24 7.47,4.739 12.269,8.184 4.796,3.447 9.039,9.133 11.253,12.234 2.213,3.102 4.98,5.34 7.933,8.958 2.951,3.619 4.981,5.342 6.825,5.688 1.845,0.344 2.768,-0.519 4.981,0.86 2.214,1.378 6.088,6.893 2.214,5.686 -3.874,-1.206 -7.195,-1.895 -10.331,-4.136 -3.135,-2.238 -8.484,-7.924 -13.835,-14.3 -5.35,-6.374 -10.33,-10.854 -15.313,-14.473 -4.98,-3.619 -9.408,-7.753 -12.544,-9.476 -3.137,-1.723 -4.429,-0.345 -8.486,-2.758 -4.059,-2.411 -8.118,-5.167 -15.128,-9.13 -7.01,-3.965 -10.7,-6.203 -12.913,-6.549 -2.215,-0.344 -4.244,0 -4.244,0 0,0 -1.845,-1.895 -6.826,-3.79 -4.98,-1.896 -8.485,-2.929 -15.497,-2.756 -7.011,0.172 -11.991,1.206 -16.972,1.895 -4.981,0.689 -8.118,2.239 -15.128,1.378 -7.011,-0.862 -9.593,-0.861 -13.099,-3.791 -3.504,-2.929 -6.825,-10.682 -7.748,-14.3 -0.922,-3.619 -0.554,-5.686 -1.476,-7.236 -0.922,-1.55 -3.321,-6.03 -4.427,-9.993 -1.107,-3.963 -2.029,-7.236 -1.107,-9.648 0.923,-2.412 3.875,-11.199 8.855,-13.957 4.981,-2.755 16.972,-8.097 22.875,-10.51 5.905,-2.411 9.593,-4.997 13.652,-9.475 4.06,-4.479 13.467,-19.641 18.08,-23.95 4.611,-4.307 8.671,-9.648 13.651,-12.06 4.981,-2.412 17.525,-8.959 28.043,-8.787 10.514,0.172 23.613,2.067 29.701,3.963 6.088,1.895 17.156,6.547 25.826,12.405 8.67,5.858 18.448,12.578 22.322,15.679 3.874,3.102 9.778,6.547 10.7,7.064 0.923,0.518 2.214,0 2.214,-0.861 0,-0.862 0.186,-3.274 0.186,-3.274 0,0 -0.555,4.306 0.554,6.03 1.108,1.723 2.214,3.964 4.61,4.652 2.399,0.69 5.166,0.173 7.011,-0.172 1.844,-0.344 -1.291,1.551 -3.69,1.723 -2.38,0.22 -2.93,0.39 -4.59,-0.12 z"
   id="path84"
   inkscape:connector-curvature="0"
   style="fill:#333333" />


		
		

		
		

		
		
		
		
		
		
		
		
<ellipse
   cx="411.37299"
   cy="46.439999"
   rx="6.7989998"
   ry="13.725"
   transform="matrix(0.9424,-0.3345,0.3345,0.9424,270.61915,-77.72242)"
   id="ellipse126"
   sodipodi:cx="411.37299"
   sodipodi:cy="46.439999"
   sodipodi:rx="6.7989998"
   sodipodi:ry="13.725"
   style="fill:#00addc;stroke:#56331d;stroke-width:2" />
<path
   style="fill:#d16563"
   d="m 612.5389,222.47584 c 7.96574,-0.25043 11.93738,-0.75836 14.34539,0.98779 2.40935,1.74791 1.18845,1.71515 0.9024,3.08794 -0.99404,4.76002 -6.05226,10.25557 -6.51613,16.82906 -0.46208,6.57438 -0.85904,15.4469 3.75983,23.37721 4.61977,7.93074 9.2602,16.63032 14.18803,23.95668 4.92783,7.32634 7.87438,13.68366 10.2066,21.24846 2.3309,7.56525 1.29782,11.21303 3.38599,16.017 2.09085,4.8009 8.51339,13.23931 12.25321,18.85183 3.74117,5.60988 10.03147,15.11713 11.67977,21.59346 1.65055,6.47413 3.62892,13.11225 5.87223,17.61182 2.24421,4.50002 6.73084,13.50135 6.379,18.23849 -0.35273,4.73891 0.0427,12.86619 -3.54533,23.95259 -3.5898,11.08772 -5.41569,15.48162 -5.37191,22.67783 0.0425,7.20105 3.25328,17.0867 2.41713,21.96469 -0.8366,4.87887 -5.10719,14.87634 -8.51918,20.75897 -3.41288,5.88439 -5.23944,15.94518 -5.54726,22.21472 -0.30963,6.27085 0.43741,15.327 -2.292,22.30073 -2.7294,6.97375 -7.98929,16.48407 -11.73133,22.2071 -3.74161,5.72215 -6.1185,13.623 -8.58341,18.45906 -2.46581,4.83783 -7.08757,13.90557 -11.33415,18.99973 -4.24747,5.09589 -9.24375,12.47031 -12.17143,18.2143 -2.92722,5.7431 -6.25162,14.6914 -10.67446,19.32418 -4.42194,4.63104 -17.09836,10.88621 -22.31247,10.59647 -5.21409,-0.28975 -10.86917,-4.57271 -10.86917,-4.57271 0,0 6.24919,2.30798 11.24392,0.60001 4.99427,-1.7071 9.61537,-5.10794 14.54453,-9.11317 4.9305,-4.00788 9.81542,-15.21284 14.30583,-23.2113 4.49041,-8.00066 6.99933,-11.30434 10.76249,-16.2594 3.76226,-4.95551 7.042,-9.77149 10.71893,-17.79267 3.67603,-8.02161 3.10325,-10.94468 6.18517,-16.99129 3.08148,-6.04575 8.9577,-11.09975 11.15878,-19.46504 2.20108,-8.36528 1.54273,-20.02355 1.71966,-25.22468 0.17647,-5.20245 1.49761,-15.88818 4.73333,-22.23655 3.23574,-6.34838 8.36382,-14.79076 8.23179,-19.38794 -0.13023,-4.59849 -0.3943,-13.79505 -0.94329,-15.95324 -0.54899,-2.15819 -2.35401,-2.66586 -4.28992,-2.10294 -1.93637,0.5616 -15.73187,1.73244 -18.32972,1.97089 -2.59649,0.23801 -6.95264,1.50249 -8.82479,4.364 -1.87035,2.8602 -4.77646,9.37126 -4.71044,11.66985 0.0647,2.29903 -2.53115,8.20348 -3.78717,9.85621 -1.25424,1.65139 -9.13241,4.96752 -12.52083,5.95208 -3.38931,0.98413 -6.07404,3.82336 -7.13136,6.70716 -1.05642,2.88202 -0.83727,10.54575 -2.37756,13.56774 -1.54118,3.02375 -3.54378,6.95277 -6.91109,8.7031 -3.36686,1.74944 -7.56921,2.71217 -10.4091,5.8536 -2.83763,3.14144 -5.30255,7.97751 -8.84566,9.26339 -3.54268,1.28501 -7.41586,2.41128 -10.01235,2.6493 -2.59649,0.23801 5.63239,-2.14969 8.00951,-4.38541 2.37623,-2.23615 4.05055,-6.32829 6.25097,-9.02668 2.20086,-2.69929 3.91607,-5.25728 7.613,-6.84492 3.69692,-1.58766 7.04223,-4.10417 8.40715,-7.59148 1.36448,-3.48643 -0.1085,-9.49743 1.10266,-12.68298 1.21023,-3.18379 3.98365,-8.62513 6.86663,-10.23462 2.883,-1.60948 10.31997,-3.25282 12.38858,-4.88325 2.06772,-1.63088 4.90805,-4.77319 5.45726,-8.28102 0.55055,-3.50827 0.55144,-3.50784 0.55144,-3.50784 0,0 0.85861,-4.11265 2.86165,-8.04257 2.0026,-3.92901 3.96254,-9.39088 13.33587,-11.59582 9.37289,-2.20407 13.46679,-1.33308 16.9879,-3.38516 3.52111,-2.05208 7.3714,-3.9428 9.37355,-7.87095 2.00305,-3.92992 5.81133,-13.02035 5.72331,-16.08514 -0.0876,-3.06567 3.41264,-11.55172 2.15863,-15.56414 -1.25357,-4.0155 -2.92433,-11.25933 -4.28815,-13.4376 -1.36471,-2.17871 -3.3004,-7.284 -4.57665,-6.3988 -1.27669,0.88608 -3.03635,1.91256 -4.59954,4.16791 -1.56229,2.25581 -3.8514,7.55631 -4.73246,10.90365 -0.88016,3.34559 -2.8621,8.04126 -5.37057,11.34624 -2.50847,3.30499 -6.05249,4.59043 -8.75833,6.66392 -2.70674,2.07304 -4.13678,3.25999 -5.21521,5.37583 -1.07887,2.11671 1.29891,-5.7859 3.85139,-7.5563 2.55293,-1.77127 4.97317,-2.47284 6.84263,-5.33348 1.87125,-2.86195 4.1819,-7.39537 4.60066,-9.83568 0.41874,-2.4403 1.36514,-9.15332 3.3902,-12.31704 2.02459,-3.16282 5.98647,-6.88901 6.22762,-9.79245 0.24293,-2.90475 -0.0429,-7.20016 -2.81454,-13.09129 -2.77074,-5.89288 -12.25322,-18.85183 -16.14775,-24.16083 -3.89451,-5.309 -7.74347,-14.75207 -8.68809,-19.37153 -0.94596,-4.61901 -1.42961,-10.14507 -2.2871,-11.69798 -0.85795,-1.55422 -1.84813,-2.03963 -3.85074,1.88941 -2.0026,3.92903 -8.67142,15.39428 -11.62265,26.03851 -2.9499,10.64381 -3.8974,23.02459 -3.12726,27.17917 0.76882,4.15502 1.55986,14.74357 -0.6401,17.44108 -2.20222,2.69972 -8.12246,6.22132 -10.16728,8.61664 -2.04705,2.3975 -3.54378,6.95277 -2.9939,9.11141 0.54899,2.15818 7.67126,9.22815 5.27923,13.92124 -1.69499,3.3255 -4.88515,5.53763 -7.13136,6.70713 -2.24398,1.16514 -4.6431,2.63465 -5.06095,5.07321 -0.41876,2.4403 0.064,7.96592 -0.50811,10.7071 -0.57165,2.74251 -3.25728,5.5813 -5.65551,7.05127 -2.39823,1.46776 -6.42477,2.89493 -6.42477,2.89493 0,0 5.30233,-2.31149 7.30538,-6.2414 2.00349,-3.93078 2.02572,-8.8306 1.60764,-12.05718 -0.41675,-3.22703 -0.17517,-6.13133 1.23244,-8.08582 1.40805,-1.95315 4.29105,-3.56262 5.70088,-5.5171 1.40893,-1.95492 2.31065,-4.53343 0.77013,-7.17877 -1.54007,-2.64403 -4.61976,-7.93074 -4.04676,-10.67369 0.5721,-2.74119 1.5854,-7.15518 3.80782,-9.08958 2.22243,-1.93219 8.80145,-5.12976 10.62824,-9.52323 1.82635,-4.39258 -0.9893,-11.81829 -0.79037,-16.25543 0.19892,-4.43714 0.64124,-11.77551 2.53336,-19.53685 1.89347,-7.76177 4.84292,-18.40468 8.38715,-25.35834 3.54379,-6.95278 6.51413,-11.16173 5.54615,-16.54913 -0.96796,-5.38522 -4.4644,-13.90116 -7.89616,-20.11589 -3.43132,-6.2156 -10.29419,-24.31413 -11.23969,-28.93183 -0.94462,-4.61946 -0.65836,-11.65826 -0.26122,-14.86345 1.74816,-8.53627 1.13854,-6.76288 3.66369,-14.45251 z"
   id="path72-8"
   inkscape:connector-curvature="0"
   sodipodi:nodetypes="cccccscccccccccccscscscsccccccsscscscccccccscccsccsccscccscssccccccscsccscccsccscccccscccccscccccccscsccccc" /><text
   xml:space="preserve"
   style="font-size:28px;font-style:normal;font-variant:normal;font-weight:normal;font-stretch:normal;text-indent:0;text-align:start;text-decoration:none;line-height:125%;letter-spacing:0;word-spacing:0;text-transform:none;direction:ltr;block-progression:tb;writing-mode:lr-tb;text-anchor:start;color:#000000;fill:#07008a;fill-opacity:1;fill-rule:nonzero;stroke:none;stroke-width:1px;marker:none;visibility:visible;display:inline;overflow:visible;enable-background:accumulate;font-family:Arial;-inkscape-font-specification:Arial"
   x="104.00455"
   y="635.02338"
   id="text3131"
   sodipodi:linespacing="125%"><tspan
     sodipodi:role="line"
     id="tspan3133"
     x="104.00455"
     y="635.02338">Right ventricle</tspan></text>


<text
   xml:space="preserve"
   style="font-size:28px;font-style:normal;font-variant:normal;font-weight:normal;font-stretch:normal;text-indent:0;text-align:start;text-decoration:none;line-height:125%;letter-spacing:0;word-spacing:0;text-transform:none;direction:ltr;block-progression:tb;writing-mode:lr-tb;text-anchor:start;color:#000000;fill:#07008a;fill-opacity:1;fill-rule:nonzero;stroke:none;stroke-width:1px;marker:none;visibility:visible;display:inline;overflow:visible;enable-background:accumulate;font-family:Arial;-inkscape-font-specification:Arial"
   x="42.011124"
   y="215.06119"
   id="text3135"
   sodipodi:linespacing="125%"><tspan
     sodipodi:role="line"
     id="tspan3137"
     x="42.011124"
     y="215.06119">Right atrium</tspan></text>


<path
   style="fill:#e1a7ab;fill-opacity:1"
   d="m 779.78302,469.69906 c 0.0492,7.05273 -1.96812,16.86293 -2.5472,24.53655 -0.57903,7.67362 -0.41427,10.11556 0.34078,18.59701 0.75536,8.48256 -0.5491,18.05781 -2.63374,24.15126 -2.08614,6.09151 -3.71795,10.78816 -4.81896,16.13873 -1.10001,5.35505 -3.27248,11.05761 -5.79323,15.21475 -2.52004,4.15571 -4.49962,7.30441 -4.5186,10.637 -0.0202,3.33177 -1.09043,3.68453 -2.37542,9.92944 -1.28397,6.24461 -2.55027,9.1558 -4.44112,12.6903 -1.89374,3.53546 6.57545,-11.72877 7.22213,-15.68448 0.64668,-3.95573 1.92064,-8.53201 3.72704,-12.45615 1.80672,-3.9182 7.30179,-13.63071 9.38624,-19.72045 2.08613,-6.09152 6.22884,-13.28071 7.60976,-20.80235 1.37972,-7.52245 2.66299,-13.76562 1.90125,-20.58227 -0.76347,-6.8149 -0.89917,-14.25294 0.22028,-22.93835 1.11901,-8.68285 2.69208,-18.76171 1.48436,-25.85001 -1.90977,-3.93533 -3.45882,5.02212 -4.76357,6.13902 z"
   id="path72-0-2"
   inkscape:connector-curvature="0"
   sodipodi:nodetypes="cscccccccsccccccc" /><path
   style="fill:none;stroke:#000000;stroke-width:1.60000002;stroke-linecap:butt;stroke-linejoin:miter;stroke-miterlimit:4;stroke-opacity:1;stroke-dasharray:none"
   d="m 696.90223,516.24794 148.85249,85.94003 47.35981,0"
   id="path3139-5"
   inkscape:connector-curvature="0"
   sodipodi:nodetypes="ccc" /><text
   xml:space="preserve"
   style="font-size:28px;font-style:normal;font-variant:normal;font-weight:normal;font-stretch:normal;text-indent:0;text-align:start;text-decoration:none;line-height:125%;letter-spacing:0;word-spacing:0;text-transform:none;direction:ltr;block-progression:tb;writing-mode:lr-tb;text-anchor:start;color:#000000;fill:#07008a;fill-opacity:1;fill-rule:nonzero;stroke:none;stroke-width:1px;marker:none;visibility:visible;display:inline;overflow:visible;enable-background:accumulate;font-family:Arial;-inkscape-font-specification:Arial"
   x="897.67999"
   y="609.46063"
   id="text3174"
   sodipodi:linespacing="125%"><tspan
     sodipodi:role="line"
     id="tspan3176"
     x="897.67999"
     y="609.46063">Left ventricle</tspan></text>


<text
   xml:space="preserve"
   style="font-size:28px;font-style:normal;font-variant:normal;font-weight:normal;font-stretch:normal;text-indent:0;text-align:start;text-decoration:none;line-height:125%;letter-spacing:0;word-spacing:0;text-transform:none;direction:ltr;block-progression:tb;writing-mode:lr-tb;text-anchor:start;color:#000000;fill:#07008a;fill-opacity:1;fill-rule:nonzero;stroke:none;stroke-width:1px;marker:none;visibility:visible;display:inline;overflow:visible;enable-background:accumulate;font-family:Arial;-inkscape-font-specification:Arial"
   x="181.04825"
   y="133.49002"
   id="text3178"
   sodipodi:linespacing="125%"><tspan
     sodipodi:role="line"
     id="tspan3180"
     x="181.04825"
     y="133.49002">Aorta</tspan></text>


<text
   xml:space="preserve"
   style="font-size:28px;font-style:normal;font-variant:normal;font-weight:normal;font-stretch:normal;text-indent:0;text-align:start;text-decoration:none;line-height:125%;letter-spacing:0;word-spacing:0;text-transform:none;direction:ltr;block-progression:tb;writing-mode:lr-tb;text-anchor:start;color:#000000;fill:#07008a;fill-opacity:1;fill-rule:nonzero;stroke:none;stroke-width:1px;marker:none;visibility:visible;display:inline;overflow:visible;enable-background:accumulate;font-family:Arial;-inkscape-font-specification:Arial"
   x="37.949707"
   y="36.49765"
   id="text3182"
   sodipodi:linespacing="125%"><tspan
     sodipodi:role="line"
     id="tspan3184"
     x="37.949707"
     y="36.49765">Superior vena cava</tspan></text>


<text
   xml:space="preserve"
   style="font-size:28px;font-style:normal;font-variant:normal;font-weight:normal;font-stretch:normal;text-indent:0;text-align:start;text-decoration:none;line-height:125%;letter-spacing:0;word-spacing:0;text-transform:none;direction:ltr;block-progression:tb;writing-mode:lr-tb;text-anchor:start;color:#000000;fill:#07008a;fill-opacity:1;fill-rule:nonzero;stroke:none;stroke-width:1px;marker:none;visibility:visible;display:inline;overflow:visible;enable-background:accumulate;font-family:Arial;-inkscape-font-specification:Arial"
   x="784.06348"
   y="37.187897"
   id="text3186"
   sodipodi:linespacing="125%"><tspan
     sodipodi:role="line"
     id="tspan3188"
     x="784.06348"
     y="37.187897">Left pulmonary artery</tspan></text>


<text
   xml:space="preserve"
   style="font-size:28px;font-style:normal;font-variant:normal;font-weight:normal;font-stretch:normal;text-indent:0;text-align:start;text-decoration:none;line-height:125%;letter-spacing:0;word-spacing:0;text-transform:none;direction:ltr;block-progression:tb;writing-mode:lr-tb;text-anchor:start;color:#000000;fill:#07008a;fill-opacity:1;fill-rule:nonzero;stroke:none;stroke-width:1px;marker:none;visibility:visible;display:inline;overflow:visible;enable-background:accumulate;font-family:Arial;-inkscape-font-specification:Arial"
   x="811.71307"
   y="105.25879"
   id="text3190"
   sodipodi:linespacing="125%"><tspan
     sodipodi:role="line"
     id="tspan3192"
     x="811.71307"
     y="105.25879">Left pulmonary veins</tspan></text>


<text
   xml:space="preserve"
   style="font-size:28px;font-style:normal;font-variant:normal;font-weight:normal;font-stretch:normal;text-indent:0;text-align:start;text-decoration:none;line-height:125%;letter-spacing:0;word-spacing:0;text-transform:none;direction:ltr;block-progression:tb;writing-mode:lr-tb;text-anchor:start;color:#000000;fill:#770000;fill-opacity:1;fill-rule:nonzero;stroke:none;stroke-width:1px;marker:none;visibility:visible;display:inline;overflow:visible;enable-background:accumulate;font-family:Arial;-inkscape-font-specification:Arial"
   x="823.77222"
   y="173.93353"
   id="text3194"
   sodipodi:linespacing="125%"><tspan
     sodipodi:role="line"
     id="tspan3196"
     x="823.77222"
     y="173.93353">Left coronary artery</tspan></text>


<path
   style="fill:none;stroke:#000000;stroke-width:1.60000002;stroke-linecap:butt;stroke-linejoin:miter;stroke-miterlimit:4;stroke-opacity:1;stroke-dasharray:none"
   d="m 599.61797,199.86872 148.2142,-34.80166 62.97244,0"
   id="path3198"
   inkscape:connector-curvature="0"
   sodipodi:nodetypes="ccc" /><text
   xml:space="preserve"
   style="font-size:28px;font-style:normal;font-variant:normal;font-weight:normal;font-stretch:normal;text-indent:0;text-align:start;text-decoration:none;line-height:125%;letter-spacing:0;word-spacing:0;text-transform:none;direction:ltr;block-progression:tb;writing-mode:lr-tb;text-anchor:start;color:#000000;fill:#770000;fill-opacity:1;fill-rule:nonzero;stroke:none;stroke-width:1px;marker:none;visibility:visible;display:inline;overflow:visible;enable-background:accumulate;font-family:Arial;-inkscape-font-specification:Arial"
   x="823.78094"
   y="424.495"
   id="text3200"
   sodipodi:linespacing="125%"><tspan
     sodipodi:role="line"
     id="tspan3202"
     x="823.78094"
     y="424.495">Left anterior descending </tspan><tspan
     sodipodi:role="line"
     x="823.78094"
     y="459.495"
     id="tspan4143">(or interventricular) artery</tspan></text>


<text
   xml:space="preserve"
   style="font-size:28px;font-style:normal;font-variant:normal;font-weight:normal;font-stretch:normal;text-indent:0;text-align:start;text-decoration:none;line-height:125%;letter-spacing:0;word-spacing:0;text-transform:none;direction:ltr;block-progression:tb;writing-mode:lr-tb;text-anchor:start;color:#000000;fill:#770000;fill-opacity:1;fill-rule:nonzero;stroke:none;stroke-width:1px;marker:none;visibility:visible;display:inline;overflow:visible;enable-background:accumulate;font-family:Arial;-inkscape-font-specification:Arial"
   x="825.80542"
   y="264.5166"
   id="text3204"
   sodipodi:linespacing="125%"><tspan
     sodipodi:role="line"
     id="tspan3206"
     x="825.80542"
     y="264.5166">Left circumflex artery</tspan></text>


<text
   xml:space="preserve"
   style="font-size:28px;font-style:normal;font-variant:normal;font-weight:normal;font-stretch:normal;text-indent:0;text-align:start;text-decoration:none;line-height:125%;letter-spacing:0;word-spacing:0;text-transform:none;direction:ltr;block-progression:tb;writing-mode:lr-tb;text-anchor:start;color:#000000;fill:#770000;fill-opacity:1;fill-rule:nonzero;stroke:none;stroke-width:1px;marker:none;visibility:visible;display:inline;overflow:visible;enable-background:accumulate;font-family:Arial;-inkscape-font-specification:Arial"
   x="9.07724"
   y="506.85291"
   id="text3230"
   sodipodi:linespacing="125%"><tspan
     sodipodi:role="line"
     id="tspan3232"
     x="9.07724"
     y="506.85291">Right </tspan><tspan
     sodipodi:role="line"
     x="9.07724"
     y="541.85291"
     id="tspan4147">marginal artery</tspan></text>


<path
   d="m 280.98142,435.69785 c 6.99026,3.55313 17.82663,8.33545 26.11864,8.60227 8.292,0.26681 21.36019,-0.58405 27.99104,-2.96061 6.63175,-2.377 30.71762,-15.3086 40.13776,-24.7253 9.42014,-9.41671 12.60745,-11.30778 16.16688,-14.13741 8.50353,-6.38221 6.89356,-5.29547 21.44683,-25.40196 0.96825,-3.1284 1.60933,-9.53188 5.2078,-13.14124 3.59757,-3.60894 7.60548,-8.94021 10.94045,-10.51948 3.33406,-1.57884 7.66952,-3.63188 14.22314,-4.44718 6.55495,-0.81482 12.44072,-1.31607 16.9225,-3.05778 4.48088,-1.74129 6.89392,-4.40757 9.93358,-6.61045 3.03961,-2.20064 4.48859,-5.17606 7.08657,-8.31164 2.59755,-3.13649 2.89833,-5.9477 5.41998,-7.52245 2.52118,-1.57341 2.85468,-1.73133 6.15103,-2.52996 3.29545,-0.79821 5.44366,-1.43486 8.44423,-2.85578 3.00147,-1.42134 4.55944,-3.30208 5.30281,-5.18101 0.74379,-1.87802 1.45073,-2.97404 2.67525,-4.69909 1.22447,-1.72281 1.59749,-2.6618 3.59666,-3.60851 2.00189,-0.94798 3.52039,-2.0499 5.18786,-2.83953 1.66749,-0.78964 -2.73929,-0.60924 -5.59173,1.12215 -2.85339,1.73405 -4.70714,2.99251 -6.11793,5.18639 -1.41165,2.19207 -1.19267,4.37653 -4.52763,5.95579 -3.33497,1.57927 -6.44506,1.90907 -8.92672,2.70142 -2.4826,0.79501 -5.96432,2.06204 -8.00211,3.78938 -2.04008,1.72953 -3.96882,4.54931 -5.04697,6.58345 -1.0773,2.03596 -4.67534,5.64622 -7.71542,7.8482 -3.03876,2.20245 -9.0417,5.04513 -12.67198,6.00078 -3.62985,0.95656 -7.88766,1.44924 -10.18262,1.77366 -2.29629,0.32395 -4.29727,1.27151 -5.03469,-0.28572 -0.73742,-1.55722 -1.43665,-3.89598 -1.46846,-6.54969 -0.0318,-2.65371 -0.50615,-6.24194 -2.46086,-9.50755 -1.95642,-3.26923 -5.5368,-8.24347 -6.73583,-10.34555 -1.19993,-2.10166 -2.91425,-5.29191 -2.91106,-7.00953 0.003,-1.71853 -0.0454,-5.69888 -0.0454,-5.69888 0,0 -0.98732,3.51805 -1.01005,5.62665 -0.0227,2.10861 0.2681,4.44714 1.44806,6.93887 1.17952,2.49084 3.10052,4.82308 3.91198,6.53665 0.81146,1.71358 2.3631,3.26585 3.06147,5.60281 0.69923,2.33876 1.85879,5.21967 1.83653,7.32695 -0.0227,2.10861 0.23353,3.51195 -0.34306,5.3108 -0.57793,1.79837 0.0859,3.20014 -1.67429,4.22398 -1.76017,1.02383 -6.85621,3.62736 -7.87534,4.49169 -1.02047,0.86386 -6.33554,3.00018 -8.76589,6.05749 -2.43035,3.05731 -5.82662,7.52359 -7.46548,12.68456 -1.63711,5.16234 -2.59034,9.6169 -4.42773,12.20201 -1.8374,2.5851 -6.58678,8.07497 -10.55198,10.90755 -3.96606,2.83078 -16.73843,12.50054 -20.57505,16.03458 -3.83838,3.53266 -8.1407,8.23989 -15.34947,12.41483 -7.20878,4.17494 -14.63706,7.884 -20.43376,9.86777 -5.79756,1.98196 -14.0764,4.75941 -20.07163,4.16732 -5.99657,-0.59257 -15.39587,-1.478 -20.28014,-3.17044 -4.88209,-1.69015 -11.44935,-3.91779 -17.51182,-8.10059 -13.50367,-3.47536 -6.57581,14.6824 0.56405,13.25933 z"
   id="path6-6"
   inkscape:connector-curvature="0"
   style="fill:#e1a6aa"
   sodipodi:nodetypes="cscscccsccccccsccssccsccccccsscccccsscccscscsccsccccc" /><path
   d="m 279.8407,422.87212 c 4.15056,9.91626 10.41509,20.05073 17.50552,28.56248 7.09326,8.51566 15.8772,17.91175 23.84764,26.41534 7.96872,8.50231 14.31224,18.38841 17.76878,25.59266 3.45653,7.20426 10.42642,17.53293 17.07648,22.88195 6.64887,5.34902 21.76196,15.11187 32.79568,20.39796 11.03479,5.28868 17.11828,9.28405 24.83439,15.07222 7.71382,5.78557 19.38538,17.86218 24.34131,22.32817 4.95483,4.4634 9.78911,10.74371 15.93456,13.83324 6.14545,3.08952 11.66233,5.73123 16.80199,7.47449 5.14082,1.7432 7.52089,2.16295 12.53888,5.7205 5.01744,3.55622 10.474,7.10771 14.29787,8.86905 3.82505,1.76132 5.70576,3.09293 8.33731,3.05673 2.63155,-0.0362 0.75139,-1.36651 -4.57776,-3.55964 -5.32793,-2.19313 -6.96001,-3.98462 -11.97855,-7.54346 -5.01744,-3.55622 -7.14778,-4.43322 -13.29324,-7.52275 -6.14545,-3.08951 -9.02618,-2.59476 -17.55686,-9.27802 -8.52907,-6.67936 -10.84945,-8.00755 -17.12697,-15.62815 -6.27694,-7.61926 -14.43451,-16.57277 -23.84248,-23.24135 -9.40797,-6.66856 -33.54715,-19.02879 -41.70012,-24.80964 -8.15242,-5.77953 -16.93457,-12.00684 -21.70634,-19.19169 -4.77177,-7.18484 -15.64194,-27.88572 -20.28736,-33.71481 -4.64422,-5.8291 -20.64481,-21.92785 -25.91776,-28.19949 -5.27342,-6.27558 -14.81686,-20.64791 -19.0283,-29.65572 -1.84528,-0.56754 -2.47414,5.10851 -9.06467,2.13993 z"
   id="path78"
   inkscape:connector-curvature="0"
   style="fill:#d16563"
   sodipodi:nodetypes="cccsccccscccsccsccscscccc" /><path
   d="m 382.33652,283.21389 c 0,0 -5.165,14.13307 -9.962,20.13986 -4.796,6.00781 -10.7,13.4276 -16.234,18.3731 -5.534,4.94652 -10.331,8.48107 -15.127,12.36836 -4.796,3.88729 -7.748,8.12526 -11.438,12.01358 -3.689,3.88626 -6.272,10.59955 -9.224,13.42555 -2.952,2.826 -8.48601,8.12731 -10.70001,10.95433 -2.213,2.826 -5.534,10.95332 -7.748,15.19334 -2.214,4.24105 -11.069,14.48786 -12.914,19.43234 -1.844,4.94652 -11.88888,14.67118 -15.59391,18.045 -2.73838,4.53649 1.30651,10.33669 1.30651,10.33669 -1.52683,-3.36202 11.2017,-2.13895 22.7724,-26.96664 1.846,-2.826 8.486,-11.30605 11.069,-13.77931 2.583,-2.47327 7.748,-8.48005 11.06901,-13.07384 3.321,-4.59379 9.962,-13.78136 13.282,-17.31489 3.321,-3.53352 4.428,-9.18655 9.593,-14.13307 5.165,-4.94653 11.069,-10.24682 15.127,-13.4276 4.058,-3.18079 8.117,-8.48108 10.332,-9.54032 2.214,-1.05923 3.32,-2.47428 5.534,0 2.214,2.47327 4.796,4.59277 5.166,7.77355 0.369,3.18182 0.738,9.54134 0.738,14.8406 0,5.30029 0.737,10.95434 2.583,14.48787 1.845,3.5325 6.64099,8.48005 8.85399,10.95433 2.213,2.47429 4.059,6.00679 4.428,8.83279 0.369,2.826 0.369,5.65303 1.476,8.83279 1.106,3.18079 2.583,6.71329 3.689,8.12731 1.106,1.41198 3.321,3.18079 3.321,3.18079 0,0 -2.952,-3.88831 -3.321,-6.71534 -0.369,-2.826 -1.476,-6.71226 -1.476,-9.54134 0,-2.826 -0.369,-8.48107 -2.214,-10.59955 -1.845,-2.12052 -6.642,-8.83278 -8.117,-11.65878 -1.476,-2.82703 -3.68999,-7.06808 -3.68999,-10.95639 0,-3.88626 0.369,-7.77355 0.738,-11.65879 0.36899,-3.88729 -0.369,-7.42081 -1.476,-11.30707 -1.106,-3.88729 -4.427,-6.00679 -4.796,-8.83382 -0.369,-2.826 0,-7.41876 1.475,-10.24681 1.476,-2.82395 8.85499,-14.13307 11.43799,-17.31386 2.583,-3.18079 5.904,-12.36631 7.011,-14.8406 1.106,-2.47429 3.321,-9.54134 3.321,-9.54134 0,0 -9.593,5.65405 -12.914,6.71431 -3.321,1.05924 -7.00999,3.88627 -7.00999,3.88627 l -0.37,3.58889 z"
   id="path78-5"
   inkscape:connector-curvature="0"
   style="fill:#d16563"
   sodipodi:nodetypes="cccscsccccccsscsscccscssccccsccsccccscccccc" /><path
   d="m 384.15074,403.61017 c 7.04106,-1.91553 17.81892,-4.22373 25.42462,-2.89878 7.60567,1.32493 19.3518,4.57144 24.94405,7.99074 5.59299,3.41988 25.09333,19.75719 31.89571,30.11855 6.80239,10.36139 9.34889,12.68717 12.05696,15.93848 2.70736,3.25071 6.39838,8.04922 10.07321,10.01907 0.84373,5.11714 2.66075,6.21799 4.66438,17.18149 0.29062,3.03353 -0.33617,8.98928 2.26001,12.95841 2.59543,3.96859 5.23907,9.58406 7.97907,11.65366 2.73927,2.06904 6.30127,4.75951 12.1184,6.74168 5.8184,1.98199 11.08642,3.55173 14.84062,5.9862 3.75343,2.43389 5.44787,5.3196 7.80087,7.90156 2.35338,2.57989 3.11096,5.56494 4.88516,8.91322 1.77362,3.34899 1.51607,5.9673 3.51585,7.87898 1.99963,1.91037 2.27363,2.11731 5.12608,3.46834 2.85169,1.35047 4.68863,2.33678 7.15385,4.19886 2.46601,1.86266 3.52995,3.8709 3.85191,5.72343 0.32256,1.85183 0.75943,2.98418 1.54892,4.78748 0.78991,1.8013 0.95217,2.7274 2.59474,3.968 1.64469,1.24233 2.8199,2.53345 4.18992,3.56831 1.37002,1.03475 -2.61116,0.0371 -4.88268,-2.07988 -2.27193,-2.11955 -3.72305,-3.61675 -4.59356,-5.8825 -0.87174,-2.26425 -0.25907,-4.21315 -2.99908,-6.28278 -2.74001,-2.0696 -5.51138,-2.95822 -7.62269,-4.14946 -2.11168,-1.19383 -5.04445,-3.00667 -6.57452,-4.96591 -1.53176,-1.96162 -2.75587,-4.8956 -3.35357,-6.95288 -0.59658,-2.05876 -3.1922,-6.02865 -5.54575,-8.60986 -2.35225,-2.58141 -7.28425,-6.30667 -10.41127,-7.8639 -3.12642,-1.55801 -6.91274,-2.81208 -8.94244,-3.54164 -2.031,-0.72941 -3.67499,-1.97117 -4.64137,-0.69174 -0.96636,1.27938 -2.04574,3.2781 -2.57656,5.69004 -0.53078,2.41188 -1.64153,5.59159 -4.0401,8.19739 -2.4008,2.60879 -6.6037,6.46397 -8.0937,8.15255 -1.49075,1.68798 -3.65604,4.2706 -3.97794,5.8362 -0.32224,1.56641 -1.11904,5.18393 -1.11904,5.18393 0,0 -0.23432,-3.39218 0.14376,-5.31771 0.37806,-1.92555 1.08524,-4.00129 2.63156,-6.04848 1.54574,-2.04648 3.73708,-3.80821 4.80049,-5.21608 1.0634,-1.40787 2.77072,-2.52879 3.84896,-4.52606 1.07937,-1.9987 2.68069,-4.40437 3.05891,-6.3286 0.37804,-1.92556 0.8769,-3.15574 0.6917,-4.90379 -0.18649,-1.74789 0.68343,-2.89955 -0.72675,-4.16528 -1.41016,-1.26571 -5.56107,-4.60159 -6.32618,-5.58184 -0.76651,-0.98004 -5.20527,-3.93167 -6.84153,-7.17692 -1.63625,-3.24525 -3.88616,-7.95692 -4.40344,-12.96924 -0.51543,-5.01323 -0.54159,-9.25225 -1.72687,-11.9551 -1.18529,-2.70287 -4.47451,-8.60308 -7.55173,-11.9338 -3.07834,-3.32926 -12.88725,-14.55512 -15.71468,-18.50067 -2.82929,-3.94461 -5.85917,-9.04717 -11.63792,-14.21436 -5.77876,-5.16718 -11.04561,-11.1514 -15.95212,-14.05507 -4.90762,-2.90219 -13.32562,-8.59842 -18.90011,-9.19265 -5.57581,-0.59406 -13.30739,-1.76474 -18.07771,-1.14632 -4.76793,0.61675 -11.77291,1.20457 -18.08767,3.86928 -12.96103,0.61297 -3.01504,-11.42134 3.22132,-8.77454 z"
   id="path6-6-3"
   inkscape:connector-curvature="0"
   style="fill:#e1a6aa"
   sodipodi:nodetypes="cscsccccsccccccsccssccsccccccsscccccsscccscscsccscccccc"
   inkscape:transform-center-x="-92.625721"
   inkscape:transform-center-y="77.489734" /><path
   style="fill:none;stroke:#000000;stroke-width:1.60000002;stroke-linecap:butt;stroke-linejoin:miter;stroke-miterlimit:4;stroke-opacity:1;stroke-dasharray:none"
   d="m 520.82028,472.24286 -155.92356,155.2394 -72.79512,0"
   id="path3139"
   inkscape:connector-curvature="0"
   sodipodi:nodetypes="ccc" /><path
   style="fill:#d16563"
   d="m 716.75385,294.07959 c -8.63486,-2.55802 -21.53045,-8.7031 -28.9871,-14.55953 -7.45663,-5.85646 -21.12122,-17.98451 -21.12122,-17.98451 0,0 -8.03891,-7.63865 -11.85583,-12.11665 -5.45477,-5.94906 -5.30667,-7.89529 -7.37875,-12.43238 -3.21992,-0.44176 -24.12248,-16.26208 -24.13255,-14.59382 1.77372,6.10561 17.19716,29.54875 24.1453,38.47104 3.31757,4.00872 4.95002,2.88415 9.47146,7.6316 4.51975,4.74437 16.93368,17.28346 24.12959,21.97951 7.19739,4.69797 20.00444,10.45358 24.52564,15.19991 4.51998,4.74551 14.84778,23.37609 16.05499,30.46217 1.20842,7.08689 6.46386,8.26248 10.18271,12.8594 3.71933,4.59437 11.96725,12.2688 14.16275,18.61417 2.19331,6.34483 1.61328,14.01876 5.23712,19.89213 3.62195,5.87398 4.61464,12.85085 6.71993,18.80849 2.10672,5.95953 3.9138,17.41937 3.87589,24.08456 -0.0379,6.66519 5.93527,13.60671 9.63535,21.53254 3.70012,7.92583 7.13709,15.43332 12.42351,18.88213 1.75176,5.16549 1.64393,2.46774 1.16127,-5.81153 -1.20766,-7.08356 -7.69196,-14.17909 -9.26691,-19.4802 -1.57467,-5.3 -6.66943,-10.03599 -6.89249,-17.86267 -0.22352,-7.82414 -1.59529,-17.35105 -5.03444,-24.11536 -3.44061,-6.76623 -2.29634,-12.78366 -4.05601,-17.19383 -1.75964,-4.41017 -4.20239,-13.58289 -6.31054,-19.53956 -2.10527,-5.95763 -8.11529,-15.61719 -12.19129,-20.09519 -4.07429,-4.47498 -8.51948,-7.16995 -10.36499,-11.96684 -1.84429,-4.79611 -5.58953,-15.14384 -6.64206,-18.1245 -1.05395,-2.97775 -5.54802,-9.62097 -5.54802,-9.62097 0,0 7.33937,2.73466 9.30026,2.91966 5.34604,-2.53678 -0.27117,-12.53879 -11.24357,-15.83977 z"
   id="path72-0"
   inkscape:connector-curvature="0"
   sodipodi:nodetypes="cscccccccccccccsscccccsccccccc" /><path
   style="fill:#d16563"
   d="m 728.9687,439.43977 c -0.0484,-5.71299 -0.002,-12.54511 -3.69595,-17.56481 -3.69345,-5.01958 -8.98729,-10.54979 -14.20836,-14.76253 -5.21969,-4.21177 -12.42049,-11.87055 -15.99532,-17.65515 -3.57484,-5.78461 -9.76896,-17.207 -9.76896,-17.207 0,0 -5.8977,-6.14707 -10.65031,-9.76485 -4.75355,-3.6164 -6.95396,-5.65804 -9.19797,-5.6168 -2.24561,0.0418 -1.48553,0.55176 -1.91894,1.53085 -0.35458,4.1506 5.93911,6.95395 9.15434,9.53296 1.0532,0.42526 2.33901,1.14849 4.20078,5.36043 1.86141,4.2096 7.09968,15.4821 10.79389,20.5018 3.6947,5.0213 11.72035,11.29818 13.58224,15.50937 6.3774,5.41348 9.89221,8.02077 9.89221,8.02077 0,0 2.21968,1.9134 3.50623,2.63676 1.28646,0.72409 6.41393,9.10459 6.91681,11.27272 0.50043,2.16927 0.11548,6.017 0.32638,8.67582 0.37642,4.76293 1.7198,12.29209 3.5817,16.50327 1.86126,4.21035 4.37798,11.39994 4.90897,16.97054 0.53016,5.57122 0.3482,13.90757 -1.1076,17.86127 -1.45542,3.95604 -2.98783,6.5924 -3.62455,10.67313 -0.63695,4.08222 -0.18037,8.33585 -1.51829,11.52439 -1.33646,3.1888 -4.82619,7.6117 -6.08368,10.28944 -1.25758,2.6785 -2.39507,4.59219 -3.03203,8.67442 -0.63717,4.0837 -0.93289,6.89255 -1.82677,9.90918 -1.47826,4.99693 -2.86803,5.82453 -4.16015,6.93059 -1.29201,1.10529 -1.9182,1.53095 -2.62919,4.29395 -0.71034,2.7639 -0.64976,3.86331 -1.42309,5.52817 -2.31846,4.9955 2.39804,-5.50573 3.45742,-6.90902 1.05775,-1.40278 5.16494,-3.50692 6.10954,-5.97333 0.94452,-2.46565 2.53687,-8.97164 3.70961,-13.01196 1.81444,-6.25214 4.638,-9.99318 6.44132,-12.5865 1.80334,-2.59335 3.96588,-7.48426 4.52314,-11.05556 0.18685,-1.19581 0.80317,-6.51837 1.63691,-9.12494 1.65739,-5.17756 4.33287,-11.21188 4.45042,-15.53822 0.17565,-6.50708 -0.22934,-14.67409 -1.61917,-20.11701 -1.38885,-5.44429 -3.33109,-9.1454 -3.90023,-14.46178 -0.52947,-5.30866 -0.75848,-7.43786 -0.78881,-10.84069 z"
   id="path72-3"
   inkscape:connector-curvature="0"
   sodipodi:nodetypes="cccscccccccccccccccsccscccccccsscccccc" /><path
   style="fill:none;stroke:#000000;stroke-width:1.60000002;stroke-linecap:butt;stroke-linejoin:miter;stroke-miterlimit:4;stroke-opacity:1;stroke-dasharray:none"
   d="m 677.78386,434.59243 83.71137,-20.74427 56.61341,0"
   id="path3208"
   inkscape:connector-curvature="0"
   sodipodi:nodetypes="ccc" /><text
   xml:space="preserve"
   style="font-size:28px;font-style:normal;font-variant:normal;font-weight:normal;font-stretch:normal;text-indent:0;text-align:start;text-decoration:none;line-height:125%;letter-spacing:0;word-spacing:0;text-transform:none;direction:ltr;block-progression:tb;writing-mode:lr-tb;text-anchor:start;color:#000000;fill:#770000;fill-opacity:1;fill-rule:nonzero;stroke:none;stroke-width:1px;marker:none;visibility:visible;display:inline;overflow:visible;enable-background:accumulate;font-family:Arial;-inkscape-font-specification:Arial"
   x="832.49176"
   y="337.03107"
   id="text3230-5"
   sodipodi:linespacing="125%"><tspan
     sodipodi:role="line"
     x="832.49176"
     y="337.03107"
     id="tspan4155">Left marginal artery</tspan></text>


<text
   xml:space="preserve"
   style="font-size:28px;font-style:normal;font-variant:normal;font-weight:normal;font-stretch:normal;text-indent:0;text-align:start;text-decoration:none;line-height:125%;letter-spacing:0;word-spacing:0;text-transform:none;direction:ltr;block-progression:tb;writing-mode:lr-tb;text-anchor:start;color:#000000;fill:#770000;fill-opacity:1;fill-rule:nonzero;stroke:none;stroke-width:1px;marker:none;visibility:visible;display:inline;overflow:visible;enable-background:accumulate;font-family:Arial;-inkscape-font-specification:Arial"
   x="7.5346985"
   y="389.32916"
   id="text4115"
   sodipodi:linespacing="125%"><tspan
     sodipodi:role="line"
     id="tspan4117"
     x="7.5346985"
     y="389.32916">Posterior </tspan><tspan
     sodipodi:role="line"
     x="7.5346985"
     y="424.32916"
     id="tspan4145">descending artery</tspan></text>


<text
   xml:space="preserve"
   style="font-size:28px;font-style:normal;font-variant:normal;font-weight:normal;font-stretch:normal;text-indent:0;text-align:start;text-decoration:none;line-height:125%;letter-spacing:0;word-spacing:0;text-transform:none;direction:ltr;block-progression:tb;writing-mode:lr-tb;text-anchor:start;color:#000000;fill:#770000;fill-opacity:1;fill-rule:nonzero;stroke:none;stroke-width:1px;marker:none;visibility:visible;display:inline;overflow:visible;enable-background:accumulate;font-family:Arial;-inkscape-font-specification:Arial"
   x="22.186325"
   y="285.53061"
   id="text4119"
   sodipodi:linespacing="125%"><tspan
     sodipodi:role="line"
     id="tspan4121"
     x="22.186325"
     y="285.53061">Right coronary </tspan><tspan
     sodipodi:role="line"
     x="22.186325"
     y="320.53061"
     id="tspan4157">artery</tspan></text>


<text
   xml:space="preserve"
   style="font-size:28px;font-style:normal;font-variant:normal;font-weight:normal;font-stretch:normal;text-indent:0;text-align:start;text-decoration:none;line-height:125%;letter-spacing:0;word-spacing:0;text-transform:none;direction:ltr;block-progression:tb;writing-mode:lr-tb;text-anchor:start;color:#000000;fill:#770000;fill-opacity:1;fill-rule:nonzero;stroke:none;stroke-width:1px;marker:none;visibility:visible;display:inline;overflow:visible;enable-background:accumulate;font-family:Arial;-inkscape-font-specification:Arial"
   x="831.15247"
   y="499.34698"
   id="text4123"
   sodipodi:linespacing="125%"><tspan
     sodipodi:role="line"
     id="tspan4125"
     x="831.15247"
     y="499.34698">diagonal branch</tspan></text>


<path
   style="fill:none;stroke:#000000;stroke-width:1.60000002;stroke-linecap:butt;stroke-linejoin:miter;stroke-miterlimit:4;stroke-opacity:1;stroke-dasharray:none"
   d="m 731.4908,492.4437 87.40632,0"
   id="path4127"
   inkscape:connector-curvature="0"
   sodipodi:nodetypes="cc" /><path
   style="fill:none;stroke:#000000;stroke-width:1.60000002;stroke-linecap:butt;stroke-linejoin:miter;stroke-miterlimit:4;stroke-opacity:1;stroke-dasharray:none"
   d="m 423.6291,125.3864 -166.7263,0"
   id="path4129"
   inkscape:connector-curvature="0" /><path
   style="fill:none;stroke:#000000;stroke-width:1.60000002;stroke-linecap:butt;stroke-linejoin:miter;stroke-miterlimit:4;stroke-opacity:1;stroke-dasharray:none"
   d="m 381.02127,49.43331 -38.80305,-22.40295 -51.97016,0"
   id="path4131"
   inkscape:connector-curvature="0" /><path
   style="fill:none;stroke:#000000;stroke-width:1.60000002;stroke-linecap:butt;stroke-linejoin:miter;stroke-miterlimit:4;stroke-opacity:1;stroke-dasharray:none"
   d="m 610.73305,64.25343 60.07372,-34.68358 114.06264,0"
   id="path4133"
   inkscape:connector-curvature="0" /><path
   style="fill:none;stroke:#000000;stroke-width:1.60000002;stroke-linecap:butt;stroke-linejoin:miter;stroke-miterlimit:4;stroke-opacity:1;stroke-dasharray:none"
   d="m 651.48837,153.17412 57.42795,-57.42795 87.06818,0"
   id="path4135"
   inkscape:connector-curvature="0" /><path
   style="fill:none;stroke:#000000;stroke-width:1.60000002;stroke-linecap:butt;stroke-linejoin:miter;stroke-miterlimit:4;stroke-opacity:1;stroke-dasharray:none"
   d="M 695.94872,229.12721 731.52769,96.34469"
   id="path4137"
   inkscape:connector-curvature="0" /><path
   style="fill:none;stroke:#000000;stroke-width:1.60000002;stroke-linecap:butt;stroke-linejoin:miter;stroke-miterlimit:4;stroke-opacity:1;stroke-dasharray:none"
   d="m 671.23423,276.30599 81.90938,-21.94755 64.80227,0"
   id="path3210"
   inkscape:connector-curvature="0" /><path
   style="fill:none;stroke:#000000;stroke-width:1.60000002;stroke-linecap:butt;stroke-linejoin:miter;stroke-miterlimit:4;stroke-opacity:1;stroke-dasharray:none"
   d="m 677.12889,334.59767 80.8879,-80.8879"
   id="path4139"
   inkscape:connector-curvature="0" /><path
   style="fill:none;stroke:#000000;stroke-width:1.60000002;stroke-linecap:butt;stroke-linejoin:miter;stroke-miterlimit:4;stroke-opacity:1;stroke-dasharray:none"
   d="m 744.59005,360.14122 39.26795,-33.97036 37.80908,0"
   id="path4141"
   inkscape:connector-curvature="0"
   sodipodi:nodetypes="ccc" /><path
   style="fill:none;stroke:#000000;stroke-width:1.60000002;stroke-linecap:butt;stroke-linejoin:miter;stroke-miterlimit:4;stroke-opacity:1;stroke-dasharray:none"
   d="m 395.84138,314.72461 -119.03057,-108.02009 -77.33596,0"
   id="path3141"
   inkscape:connector-curvature="0"
   sodipodi:nodetypes="ccc" /><path
   style="fill:none;stroke:#000000;stroke-width:1.60000002;stroke-linecap:butt;stroke-linejoin:miter;stroke-miterlimit:4;stroke-opacity:1;stroke-dasharray:none"
   d="m 211.23912,278.5641 69.9028,0 64.50315,56.96186"
   id="path4149"
   inkscape:connector-curvature="0"
   sodipodi:nodetypes="ccc" /><path
   style="fill:none;stroke:#000000;stroke-width:1.60000002;stroke-linecap:butt;stroke-linejoin:miter;stroke-miterlimit:4;stroke-opacity:1;stroke-dasharray:none"
   d="m 248.36396,418.26789 144.99852,0 68.58936,21.92031"
   id="path4151"
   inkscape:connector-curvature="0"
   sodipodi:nodetypes="ccc" /><path
   style="fill:none;stroke:#000000;stroke-width:1.60000002;stroke-linecap:butt;stroke-linejoin:miter;stroke-miterlimit:4;stroke-opacity:1;stroke-dasharray:none"
   d="m 209.51472,537.06183 70.71068,0 63.63961,-31.1127"
   id="path4153"
   inkscape:connector-curvature="0" /></svg>