<?xml version="1.0" encoding="UTF-8" standalone="no"?>
<!-- Created with Inkscape (http://www.inkscape.org/) -->
<svg
   xmlns:dc="http://purl.org/dc/elements/1.1/"
   xmlns:cc="http://web.resource.org/cc/"
   xmlns:rdf="http://www.w3.org/1999/02/22-rdf-syntax-ns#"
   xmlns:svg="http://www.w3.org/2000/svg"
   xmlns="http://www.w3.org/2000/svg"
   xmlns:sodipodi="http://sodipodi.sourceforge.net/DTD/sodipodi-0.dtd"
   xmlns:inkscape="http://www.inkscape.org/namespaces/inkscape"
   id="svg1953"
   sodipodi:version="0.32"
   inkscape:version="0.44"
   width="632"
   height="404"
   version="1.0"
   sodipodi:docbase="C:\Documents and Settings\Administrator\Desktop\myndir-skjabord13agu06"
   sodipodi:docname="thorungar1.svg">
  <metadata
     id="metadata1958">
    <rdf:RDF>
      <cc:Work
         rdf:about="">
        <dc:format>image/svg+xml</dc:format>
        <dc:type
           rdf:resource="http://purl.org/dc/dcmitype/StillImage" />
        <dc:title>Þörungar</dc:title>
        <dc:creator>
          <cc:Agent>
            <dc:title>Salvör</dc:title>
          </cc:Agent>
        </dc:creator>
        <cc:license
           rdf:resource="http://creativecommons.org/licenses/by-nc-sa/2.5/" />
      </cc:Work>
      <cc:License
         rdf:about="http://creativecommons.org/licenses/by-nc-sa/2.5/">
        <cc:permits
           rdf:resource="http://web.resource.org/cc/Reproduction" />
        <cc:permits
           rdf:resource="http://web.resource.org/cc/Distribution" />
        <cc:requires
           rdf:resource="http://web.resource.org/cc/Notice" />
        <cc:requires
           rdf:resource="http://web.resource.org/cc/Attribution" />
        <cc:prohibits
           rdf:resource="http://web.resource.org/cc/CommercialUse" />
        <cc:permits
           rdf:resource="http://web.resource.org/cc/DerivativeWorks" />
        <cc:requires
           rdf:resource="http://web.resource.org/cc/ShareAlike" />
      </cc:License>
    </rdf:RDF>
  </metadata>
  <defs
     id="defs1956" />
  <sodipodi:namedview
     inkscape:window-height="573"
     inkscape:window-width="853"
     inkscape:pageshadow="2"
     inkscape:pageopacity="0.0"
     guidetolerance="10.0"
     gridtolerance="10.0"
     objecttolerance="10.0"
     borderopacity="1.0"
     bordercolor="#666666"
     pagecolor="#ffffff"
     id="base"
     showguides="true"
     inkscape:guide-bbox="true"
     inkscape:zoom="0.65984964"
     inkscape:cx="182.74434"
     inkscape:cy="157.41025"
     inkscape:window-x="23"
     inkscape:window-y="-3"
     inkscape:current-layer="svg1953" />
  <rect
     style="opacity:0.98333333;fill:#fcebba;fill-opacity:1;fill-rule:nonzero;stroke:#001010;stroke-width:2;stroke-linecap:round;stroke-miterlimit:4;stroke-dasharray:none;stroke-dashoffset:0;stroke-opacity:1"
     id="rect3232"
     width="651.66364"
     height="475.866"
     x="-7.5774837"
     y="-12.761609" />
  <path
     style="opacity:0.97222218;color:black;fill:#c00;fill-opacity:1;fill-rule:nonzero;stroke:black;stroke-width:1.00000036;stroke-linecap:round;stroke-linejoin:miter;marker:none;marker-start:none;marker-mid:none;marker-end:none;stroke-miterlimit:4;stroke-dasharray:none;stroke-dashoffset:41.85997672;stroke-opacity:1;visibility:visible;display:inline;overflow:visible"
     d="M 176.55537,60.739983 C 176.60738,63.038601 174.70376,60.592153 176.55537,60.739983 z "
     id="path1962" />
  <path
     style="opacity:0.97222218;color:black;fill:#c00;fill-opacity:1;fill-rule:nonzero;stroke:black;stroke-width:1.00000036;stroke-linecap:round;stroke-linejoin:miter;marker:none;marker-start:none;marker-mid:none;marker-end:none;stroke-miterlimit:4;stroke-dasharray:none;stroke-dashoffset:41.85997672;stroke-opacity:1;visibility:visible;display:inline;overflow:visible"
     d="M 175.03989,58.46674 C 178.16284,50.347052 185.53146,31.188612 178.3217,49.934005 C 177.22776,52.778249 176.13382,55.622497 175.03989,58.46674 z "
     id="path1964" />
  <path
     style="opacity:0.57777782;color:black;fill:#eeeeec;fill-opacity:1;fill-rule:nonzero;stroke:black;stroke-width:1.00000036;stroke-linecap:round;stroke-linejoin:miter;marker:none;marker-start:none;marker-mid:none;marker-end:none;stroke-miterlimit:4;stroke-dasharray:none;stroke-dashoffset:41.85997672;stroke-opacity:1;visibility:visible;display:inline;overflow:visible"
     d="M 150.79193,124.39085 C 131.52238,139.42562 113.95828,158.22019 105.31653,181.32925 C 92.413853,194.90672 125.94367,201.44735 105.80833,211.90629 C 96.323018,216.95198 114.38522,234.66447 114.62776,244.92192 C 119.99651,263.86853 134.99191,278.24616 140.04168,297.14185 C 142.97794,310.91729 129.56165,327.73944 140.22785,339.50407 C 150.959,323.41035 149.71382,300.77275 164.37972,287.23274 C 177.42554,281.82348 199.66899,279.58262 194.62133,299.87844 C 196.27289,309.40127 205.42139,332.99438 211.97042,331.37494 C 204.40348,313.56375 212.91059,294.8148 220.28684,278.44394 C 232.21473,259.60155 238.31958,237.56787 252.08799,219.72503 C 255.9697,211.51032 243.3246,200.84278 254.60346,194.86144 C 247.75104,177.46634 240.72962,158.73822 228.06078,144.92117 C 212.91958,132.30843 194.24978,120.27644 190.37763,99.391696 C 183.75208,87.238352 175.35525,66.13625 175.34645,57.84871 C 167.52562,75.171886 170.54875,95.987078 159.04147,112.12811 C 156.69449,116.46569 154.02296,120.65255 150.79193,124.39085 z "
     id="path1966" />
  <path
     style="opacity:1;color:black;fill:none;fill-opacity:1;fill-rule:nonzero;stroke:black;stroke-width:1px;stroke-linecap:butt;stroke-linejoin:miter;marker:none;marker-start:none;marker-mid:none;marker-end:none;stroke-miterlimit:4;stroke-dasharray:none;stroke-dashoffset:0;stroke-opacity:1;visibility:visible;display:inline;overflow:visible"
     d="M 134.87921,138.03032 C 152.85593,149.7734 164.94795,124.04302 168.82664,110.13324 C 173.0085,94.746185 170.89027,77.730021 178.00424,63.587359 L 178.82862,64.528725"
     id="path2854" />
  <path
     style="opacity:1;color:black;fill:none;fill-opacity:1;fill-rule:nonzero;stroke:black;stroke-width:1px;stroke-linecap:butt;stroke-linejoin:miter;marker:none;marker-start:none;marker-mid:none;marker-end:none;stroke-miterlimit:4;stroke-dasharray:none;stroke-dashoffset:0;stroke-opacity:1;visibility:visible;display:inline;overflow:visible"
     d="M 217.47379,138.78807 C 205.01057,157.21976 191.95828,127.91554 189.84383,116.17235 C 183.74617,101.5656 176.8583,87.053682 175.8262,70.86515 C 175.52172,68.505369 175.26191,66.139905 175.03988,63.770977"
     id="path2858" />
  <path
     style="opacity:1;color:black;fill:none;fill-opacity:1;fill-rule:nonzero;stroke:black;stroke-width:1px;stroke-linecap:butt;stroke-linejoin:miter;marker:none;marker-start:none;marker-mid:none;marker-end:none;stroke-miterlimit:4;stroke-dasharray:none;stroke-dashoffset:0;stroke-opacity:1;visibility:visible;display:inline;overflow:visible"
     d="M 150.03418,140.30356 C 162.51816,150.67966 171.13851,167.85637 178.37467,179.34517 C 189.07162,173.58578 181.9661,151.9689 199.67231,152.66524 C 203.05498,150.62502 205.85223,147.78428 209.13855,145.6078"
     id="path2860" />
  <path
     style="opacity:1;color:black;fill:none;fill-opacity:1;fill-rule:nonzero;stroke:black;stroke-width:1px;stroke-linecap:butt;stroke-linejoin:miter;marker:none;marker-start:none;marker-mid:none;marker-end:none;stroke-miterlimit:4;stroke-dasharray:none;stroke-dashoffset:0;stroke-opacity:1;visibility:visible;display:inline;overflow:visible"
     d="M 175.79762,181.97972 C 160.68183,189.7925 169.91539,227.90033 186.16412,207.64423 C 193.3783,198.33521 188.11647,185.33952 179.58637,178.94873"
     id="path2862" />
  <path
     style="opacity:1;color:black;fill:none;fill-opacity:1;fill-rule:nonzero;stroke:black;stroke-width:1px;stroke-linecap:butt;stroke-linejoin:miter;marker:none;marker-start:none;marker-mid:none;marker-end:none;stroke-miterlimit:4;stroke-dasharray:none;stroke-dashoffset:0;stroke-opacity:1;visibility:visible;display:inline;overflow:visible"
     d="M 142.4567,141.81906 C 128.84896,155.10239 116.72396,170.7541 115.24607,190.0333 C 112.21416,193.42692 107.14487,193.21864 103.05378,192.5882"
     id="path2864" />
  <path
     style="opacity:1;color:black;fill:none;fill-opacity:1;fill-rule:nonzero;stroke:black;stroke-width:1px;stroke-linecap:butt;stroke-linejoin:miter;marker:none;marker-start:none;marker-mid:none;marker-end:none;stroke-miterlimit:4;stroke-dasharray:none;stroke-dashoffset:0;stroke-opacity:1;visibility:visible;display:inline;overflow:visible"
     d="M 108.35802,194.1037 C 128.05947,193.34595 147.76093,192.5882 167.46239,191.83044"
     id="path2866" />
  <path
     style="opacity:1;color:black;fill:none;fill-opacity:1;fill-rule:nonzero;stroke:black;stroke-width:1px;stroke-linecap:butt;stroke-linejoin:miter;marker:none;marker-start:none;marker-mid:none;marker-end:none;stroke-miterlimit:4;stroke-dasharray:none;stroke-dashoffset:0;stroke-opacity:1;visibility:visible;display:inline;overflow:visible"
     d="M 190.19485,194.1037 C 207.17846,193.16147 224.23849,192.02097 241.12927,194.02468 C 245.12333,193.73192 249.59452,193.14144 253.08796,195.6192"
     id="path2868" />
  <path
     style="opacity:1;color:black;fill:none;fill-opacity:1;fill-rule:nonzero;stroke:black;stroke-width:1px;stroke-linecap:butt;stroke-linejoin:miter;marker:none;marker-start:none;marker-mid:none;marker-end:none;stroke-miterlimit:4;stroke-dasharray:none;stroke-dashoffset:0;stroke-opacity:1;visibility:visible;display:inline;overflow:visible"
     d="M 245.51048,192.5882 C 231.20758,181.33044 237.41839,156.84055 220.92368,148.06795 C 216.59807,145.96663 211.66157,144.916 206.86531,145.6078"
     id="path2870" />
  <path
     style="opacity:1;color:black;fill:none;fill-opacity:1;fill-rule:nonzero;stroke:black;stroke-width:1px;stroke-linecap:butt;stroke-linejoin:miter;marker:none;marker-start:none;marker-mid:none;marker-end:none;stroke-miterlimit:4;stroke-dasharray:none;stroke-dashoffset:0;stroke-opacity:1;visibility:visible;display:inline;overflow:visible"
     d="M 106.08477,212.28966 C 110.79366,211.14858 115.65475,210.85743 120.48199,210.77416"
     id="path2872" />
  <path
     style="opacity:1;color:black;fill:none;fill-opacity:1;fill-rule:nonzero;stroke:black;stroke-width:1px;stroke-linecap:butt;stroke-linejoin:miter;marker:none;marker-start:none;marker-mid:none;marker-end:none;stroke-miterlimit:4;stroke-dasharray:none;stroke-dashoffset:0;stroke-opacity:1;visibility:visible;display:inline;overflow:visible"
     d="M 162.15816,212.28966 C 162.15816,212.28966 162.15816,212.28966 162.15816,212.28966 z "
     id="path2874" />
  <path
     style="opacity:1;color:black;fill:none;fill-opacity:1;fill-rule:nonzero;stroke:black;stroke-width:1px;stroke-linecap:butt;stroke-linejoin:miter;marker:none;marker-start:none;marker-mid:none;marker-end:none;stroke-miterlimit:4;stroke-dasharray:none;stroke-dashoffset:0;stroke-opacity:1;visibility:visible;display:inline;overflow:visible"
     d="M 121.99749,210.0164 C 136.61226,206.80715 169.27888,201.24505 163.52987,226.01297 C 166.43927,243.34611 159.75258,265.46057 138.44857,263.18445 C 136.93514,263.30506 119.50505,266.06864 128.05948,263.81655"
     id="path2876" />
  <path
     style="opacity:1;color:black;fill:none;fill-opacity:1;fill-rule:nonzero;stroke:black;stroke-width:1px;stroke-linecap:butt;stroke-linejoin:miter;marker:none;marker-start:none;marker-mid:none;marker-end:none;stroke-miterlimit:4;stroke-dasharray:none;stroke-dashoffset:0;stroke-opacity:1;visibility:visible;display:inline;overflow:visible"
     d="M 155.33842,256.99683 C 163.13593,263.37141 182.2918,279.30641 178.32937,283.0323 L 178.19315,282.09033 L 178.07088,281.24475"
     id="path2878" />
  <path
     style="opacity:1;color:black;fill:none;fill-opacity:1;fill-rule:nonzero;stroke:black;stroke-width:1px;stroke-linecap:butt;stroke-linejoin:miter;marker:none;marker-start:none;marker-mid:none;marker-end:none;stroke-miterlimit:4;stroke-dasharray:none;stroke-dashoffset:0;stroke-opacity:1;visibility:visible;display:inline;overflow:visible"
     d="M 177.31313,276.69827 C 180.03506,264.51227 212.05792,259.81839 190.4946,248.24462 C 180.00428,235.19327 185.32177,209.13717 205.02046,209.86215 C 220.86518,211.1625 238.18283,206.99456 252.81337,214.41534 L 254.60346,215.32065"
     id="path2880" />
  <path
     style="opacity:1;color:black;fill:none;fill-opacity:1;fill-rule:nonzero;stroke:black;stroke-width:1px;stroke-linecap:butt;stroke-linejoin:miter;marker:none;marker-start:none;marker-mid:none;marker-end:none;stroke-miterlimit:4;stroke-dasharray:none;stroke-dashoffset:0;stroke-opacity:1;visibility:visible;display:inline;overflow:visible"
     d="M 200.80331,258.5123 C 209.24583,261.31468 218.03432,262.85102 226.56676,265.33205"
     id="path2882" />
  <path
     style="opacity:1;color:black;fill:none;fill-opacity:1;fill-rule:nonzero;stroke:black;stroke-width:1px;stroke-linecap:butt;stroke-linejoin:miter;marker:none;marker-start:none;marker-mid:none;marker-end:none;stroke-miterlimit:4;stroke-dasharray:none;stroke-dashoffset:0;stroke-opacity:1;visibility:visible;display:inline;overflow:visible"
     d="M 195.49908,195.6192 C 197.47953,200.77879 195.04869,206.24608 195.49908,211.53191"
     id="path2884" />
  <path
     style="opacity:1;color:black;fill:none;fill-opacity:1;fill-rule:nonzero;stroke:black;stroke-width:1px;stroke-linecap:butt;stroke-linejoin:miter;marker:none;marker-start:none;marker-mid:none;marker-end:none;stroke-miterlimit:4;stroke-dasharray:none;stroke-dashoffset:0;stroke-opacity:1;visibility:visible;display:inline;overflow:visible"
     d="M 225.05127,192.5882 C 224.16857,195.03295 225.7874,208.52001 223.53577,206.22767"
     id="path2886" />
  <path
     style="opacity:1;color:black;fill:none;fill-opacity:1;fill-rule:nonzero;stroke:black;stroke-width:1px;stroke-linecap:butt;stroke-linejoin:miter;marker:none;marker-start:none;marker-mid:none;marker-end:none;stroke-miterlimit:4;stroke-dasharray:none;stroke-dashoffset:0;stroke-opacity:1;visibility:visible;display:inline;overflow:visible"
     d="M 125.02848,196.37694 C 125.03075,199.4716 125.80016,202.48951 126.54398,205.46992"
     id="path2888" />
  <path
     style="opacity:1;color:black;fill:none;fill-opacity:1;fill-rule:nonzero;stroke:black;stroke-width:1px;stroke-linecap:butt;stroke-linejoin:miter;marker:none;marker-start:none;marker-mid:none;marker-end:none;stroke-miterlimit:4;stroke-dasharray:none;stroke-dashoffset:0;stroke-opacity:1;visibility:visible;display:inline;overflow:visible"
     d="M 160.64265,189.55721 C 160.53691,194.79946 164.3872,200.51879 161.40041,205.46992"
     id="path2890" />
  <path
     style="opacity:1;color:black;fill:none;fill-opacity:1;fill-rule:nonzero;stroke:black;stroke-width:1px;stroke-linecap:butt;stroke-linejoin:miter;marker:none;marker-start:none;marker-mid:none;marker-end:none;stroke-miterlimit:4;stroke-dasharray:none;stroke-dashoffset:0;stroke-opacity:1;visibility:visible;display:inline;overflow:visible"
     d="M 111.38901,201.68118 C 129.49923,197.48404 153.75595,204.6682 168.22014,200.92343"
     id="path2892" />
  <path
     style="opacity:1;color:black;fill:none;fill-opacity:1;fill-rule:nonzero;stroke:black;stroke-width:1px;stroke-linecap:butt;stroke-linejoin:miter;marker:none;marker-start:none;marker-mid:none;marker-end:none;stroke-miterlimit:4;stroke-dasharray:none;stroke-dashoffset:0;stroke-opacity:1;visibility:visible;display:inline;overflow:visible"
     d="M 138.66795,202.43893 C 146.89989,202.70339 125.67979,199.22729 140.3643,199.71025 C 147.00348,196.31133 139.69814,201.3078 138.66795,202.43893 z "
     id="path2894" />
  <path
     style="opacity:1;color:black;fill:none;fill-opacity:1;fill-rule:nonzero;stroke:black;stroke-width:1px;stroke-linecap:butt;stroke-linejoin:miter;marker:none;marker-start:none;marker-mid:none;marker-end:none;stroke-miterlimit:4;stroke-dasharray:none;stroke-dashoffset:0;stroke-opacity:1;visibility:visible;display:inline;overflow:visible"
     d="M 188.67935,204.71217 C 204.95193,203.83488 221.05295,199.65821 237.10126,203.99063 C 241.4272,204.07667 245.8037,204.11443 250.05697,203.19668"
     id="path2896" />
  <path
     style="opacity:1;color:black;fill:none;fill-opacity:1;fill-rule:nonzero;stroke:black;stroke-width:1px;stroke-linecap:butt;stroke-linejoin:miter;marker:none;marker-start:none;marker-mid:none;marker-end:none;stroke-miterlimit:4;stroke-dasharray:none;stroke-dashoffset:0;stroke-opacity:1;visibility:visible;display:inline;overflow:visible"
     d="M 209.13855,201.68118 C 215.65994,201.48053 217.24109,201.86094 209.13855,201.68118 z "
     id="path2898" />
  <path
     style="opacity:1;color:black;fill:none;fill-opacity:1;fill-rule:nonzero;stroke:black;stroke-width:1px;stroke-linecap:butt;stroke-linejoin:miter;marker:none;marker-start:none;marker-mid:none;marker-end:none;stroke-miterlimit:4;stroke-dasharray:none;stroke-dashoffset:0;stroke-opacity:1;visibility:visible;display:inline;overflow:visible"
     d="M 176.55537,215.32065 C 176.87788,228.96024 176.98789,210.36757 176.55537,215.32065 z "
     id="path2900" />
  <path
     style="opacity:1;color:black;fill:none;fill-opacity:1;fill-rule:nonzero;stroke:black;stroke-width:1px;stroke-linecap:butt;stroke-linejoin:miter;marker:none;marker-start:none;marker-mid:none;marker-end:none;stroke-miterlimit:4;stroke-dasharray:none;stroke-dashoffset:0;stroke-opacity:1;visibility:visible;display:inline;overflow:visible"
     d="M 178.07088,213.04741 C 178.28311,220.89495 187.03836,244.07676 177.39833,240.6099 C 174.37598,233.31614 171.33958,224.69172 173.52438,216.83615"
     id="path2902" />
  <path
     style="opacity:1;color:black;fill:none;fill-opacity:1;fill-rule:nonzero;stroke:black;stroke-width:1px;stroke-linecap:butt;stroke-linejoin:miter;marker:none;marker-start:none;marker-mid:none;marker-end:none;stroke-miterlimit:4;stroke-dasharray:none;stroke-dashoffset:0;stroke-opacity:1;visibility:visible;display:inline;overflow:visible"
     d="M 175.79762,234.26436 C 180.67103,247.7332 175.05558,236.06013 178.04041,237.54854 C 186.52081,253.09334 166.91421,267.5099 170.48098,283.69673 C 180.7351,297.68588 183.57039,316.80862 171.59612,330.62601 C 170.97563,337.65071 173.14987,347.64496 175.03988,352.47311"
     id="path2904" />
  <path
     style="opacity:1;color:black;fill:none;fill-opacity:1;fill-rule:nonzero;stroke:black;stroke-width:1px;stroke-linecap:butt;stroke-linejoin:miter;marker:none;marker-start:none;marker-mid:none;marker-end:none;stroke-miterlimit:4;stroke-dasharray:none;stroke-dashoffset:0;stroke-opacity:1;visibility:visible;display:inline;overflow:visible"
     d="M 162.91589,247.90382 C 171.47342,259.58075 186.55714,238.7373 191.71034,245.63058"
     id="path2906" />
  <path
     style="opacity:0.57777782;color:black;fill:#eeeeec;fill-opacity:1;fill-rule:nonzero;stroke:black;stroke-width:1.00000036;stroke-linecap:round;stroke-linejoin:miter;marker:none;marker-start:none;marker-mid:none;marker-end:none;stroke-miterlimit:4;stroke-dasharray:none;stroke-dashoffset:41.85997672;stroke-opacity:1;visibility:visible;display:inline;overflow:visible"
     d="M 353.8685,130.45284 C 334.59894,145.48759 317.03483,164.28217 308.39309,187.39123 C 295.49041,200.9687 329.02022,207.50933 308.88489,217.96827 C 299.39957,223.01396 317.46177,240.72645 317.70431,250.9839 C 323.07308,269.93051 338.06845,284.30815 343.11824,303.20384 C 346.05451,316.97927 332.6382,333.80142 343.30441,345.56605 C 354.03555,329.47234 352.79038,306.83472 367.45629,293.29473 C 380.50211,287.88548 402.74554,285.6446 397.69789,305.94042 C 399.34944,315.46325 408.49795,339.05636 415.04698,337.43692 C 407.48005,319.62573 415.98714,300.87678 423.36339,284.50592 C 435.29128,265.66352 441.39615,243.62985 455.16455,225.78701 C 459.04625,217.5723 446.40116,206.90476 457.68002,200.92342 C 450.82759,183.52833 443.80619,164.80019 431.13734,150.98316 C 415.99613,138.37042 397.32634,126.33842 393.45418,105.45368 C 386.82863,93.300336 378.43182,72.198239 378.42301,63.910696 C 370.60217,81.233869 373.62532,102.04907 362.11803,118.1901 C 359.77104,122.52768 357.09952,126.71453 353.8685,130.45284 z "
     id="path2908" />
  <path
     style="opacity:1;color:black;fill:none;fill-opacity:1;fill-rule:nonzero;stroke:black;stroke-width:1px;stroke-linecap:butt;stroke-linejoin:miter;marker:none;marker-start:none;marker-mid:none;marker-end:none;stroke-miterlimit:4;stroke-dasharray:none;stroke-dashoffset:0;stroke-opacity:1;visibility:visible;display:inline;overflow:visible"
     d="M 336.44028,144.85005 C 330.98945,157.01196 347.76186,171.08748 352.43986,153.8696 C 359.79669,147.18519 386.60855,130.67187 364.76928,125.41487 C 362.16181,124.07337 354.0919,124.64542 361.44598,127.42184"
     id="path2910" />
  <path
     style="opacity:1;color:black;fill:none;fill-opacity:1;fill-rule:nonzero;stroke:black;stroke-width:1px;stroke-linecap:butt;stroke-linejoin:miter;marker:none;marker-start:none;marker-mid:none;marker-end:none;stroke-miterlimit:4;stroke-dasharray:none;stroke-dashoffset:0;stroke-opacity:1;visibility:visible;display:inline;overflow:visible"
     d="M 369.78122,123.6331 C 380.8044,109.0685 378.61502,89.508777 377.94608,72.443512 C 376.46483,59.6377 374.79523,63.818619 376.60095,73.621704"
     id="path2912" />
  <path
     style="opacity:1;color:black;fill:none;fill-opacity:1;fill-rule:nonzero;stroke:black;stroke-width:1px;stroke-linecap:butt;stroke-linejoin:miter;marker:none;marker-start:none;marker-mid:none;marker-end:none;stroke-miterlimit:4;stroke-dasharray:none;stroke-dashoffset:0;stroke-opacity:1;visibility:visible;display:inline;overflow:visible"
     d="M 371.29672,133.48383 C 378.02345,125.26976 403.59633,136.93654 403.17599,121.61987"
     id="path2914"
     sodipodi:nodetypes="cc" />
  <path
     style="opacity:1;color:black;fill:none;fill-opacity:1;fill-rule:nonzero;stroke:black;stroke-width:1px;stroke-linecap:butt;stroke-linejoin:miter;marker:none;marker-start:none;marker-mid:none;marker-end:none;stroke-miterlimit:4;stroke-dasharray:none;stroke-dashoffset:0;stroke-opacity:1;visibility:visible;display:inline;overflow:visible"
     d="M 391.88593,131.02673 C 403.95512,134.17309 422.02698,156.04794 411.2791,167.57531 C 404.09605,185.68888 381.93322,172.17037 366.9688,174.22291 C 355.89524,176.21945 350.29166,157.69335 342.50227,160.76277"
     id="path2916"
     sodipodi:nodetypes="cccc" />
  <path
     style="opacity:1;color:black;fill:none;fill-opacity:1;fill-rule:nonzero;stroke:black;stroke-width:1px;stroke-linecap:butt;stroke-linejoin:miter;marker:none;marker-start:none;marker-mid:none;marker-end:none;stroke-miterlimit:4;stroke-dasharray:none;stroke-dashoffset:0;stroke-opacity:1;visibility:visible;display:inline;overflow:visible"
     d="M 337.95578,160.00502 C 321.5577,165.55646 320.40827,188.77074 309.10889,196.43709 C 307.3954,195.03521 305.59157,197.37045 306.88809,198.65019"
     id="path2918" />
  <path
     style="opacity:1;color:black;fill:none;fill-opacity:1;fill-rule:nonzero;stroke:black;stroke-width:1px;stroke-linecap:butt;stroke-linejoin:miter;marker:none;marker-start:none;marker-mid:none;marker-end:none;stroke-miterlimit:4;stroke-dasharray:none;stroke-dashoffset:0;stroke-opacity:1;visibility:visible;display:inline;overflow:visible"
     d="M 310.67685,200.1657 C 330.98822,189.648 354.43241,195.44089 376.25871,193.57368 C 393.93439,192.56017 411.28639,200.25632 428.74554,194.67262 C 437.30738,192.44394 445.81071,189.72355 454.64903,192.5882"
     id="path2920" />
  <path
     style="opacity:1;color:black;fill:none;fill-opacity:1;fill-rule:nonzero;stroke:black;stroke-width:1px;stroke-linecap:butt;stroke-linejoin:miter;marker:none;marker-start:none;marker-mid:none;marker-end:none;stroke-miterlimit:4;stroke-dasharray:none;stroke-dashoffset:0;stroke-opacity:1;visibility:visible;display:inline;overflow:visible"
     d="M 358.41498,174.40224 C 361.2012,179.92217 356.57366,186.50603 359.17273,191.83045"
     id="path2922" />
  <path
     style="opacity:1;color:black;fill:none;fill-opacity:1;fill-rule:nonzero;stroke:black;stroke-width:1px;stroke-linecap:butt;stroke-linejoin:miter;marker:none;marker-start:none;marker-mid:none;marker-end:none;stroke-miterlimit:4;stroke-dasharray:none;stroke-dashoffset:0;stroke-opacity:1;visibility:visible;display:inline;overflow:visible"
     d="M 407.66864,173.64449 C 406.77191,176.03779 417.79184,198.50523 411.45737,192.5882"
     id="path2924" />
  <path
     style="opacity:1;color:black;fill:none;fill-opacity:1;fill-rule:nonzero;stroke:black;stroke-width:1px;stroke-linecap:butt;stroke-linejoin:miter;marker:none;marker-start:none;marker-mid:none;marker-end:none;stroke-miterlimit:4;stroke-dasharray:none;stroke-dashoffset:0;stroke-opacity:1;visibility:visible;display:inline;overflow:visible"
     d="M 415.24612,158.48952 C 437.67577,149.57928 438.30807,176.41764 445.72836,190.16834 C 444.98821,192.05913 442.34332,187.96232 441.76731,188.04171"
     id="path2926" />
  <path
     style="opacity:1;color:black;fill:none;fill-opacity:1;fill-rule:nonzero;stroke:black;stroke-width:1px;stroke-linecap:butt;stroke-linejoin:miter;marker:none;marker-start:none;marker-mid:none;marker-end:none;stroke-miterlimit:4;stroke-dasharray:none;stroke-dashoffset:0;stroke-opacity:1;visibility:visible;display:inline;overflow:visible"
     d="M 428.88559,154.70078 C 430.56132,156.10598 431.03859,152.71913 432.67433,153.18529"
     id="path2928" />
  <path
     style="opacity:1;color:black;fill:none;fill-opacity:1;fill-rule:nonzero;stroke:black;stroke-width:1px;stroke-linecap:butt;stroke-linejoin:miter;marker:none;marker-start:none;marker-mid:none;marker-end:none;stroke-miterlimit:4;stroke-dasharray:none;stroke-dashoffset:0;stroke-opacity:1;visibility:visible;display:inline;overflow:visible"
     d="M 325.07407,196.37694 C 333.48271,196.97226 328.20452,215.30311 332.65155,211.53191"
     id="path2930" />
  <path
     style="opacity:1;color:black;fill:none;fill-opacity:1;fill-rule:nonzero;stroke:black;stroke-width:1px;stroke-linecap:butt;stroke-linejoin:miter;marker:none;marker-start:none;marker-mid:none;marker-end:none;stroke-miterlimit:4;stroke-dasharray:none;stroke-dashoffset:0;stroke-opacity:1;visibility:visible;display:inline;overflow:visible"
     d="M 378.87418,193.34595 C 375.10489,196.31153 386.64471,212.50083 381.90518,210.01641"
     id="path2932" />
  <path
     style="opacity:1;color:black;fill:none;fill-opacity:1;fill-rule:nonzero;stroke:black;stroke-width:1px;stroke-linecap:butt;stroke-linejoin:miter;marker:none;marker-start:none;marker-mid:none;marker-end:none;stroke-miterlimit:4;stroke-dasharray:none;stroke-dashoffset:0;stroke-opacity:1;visibility:visible;display:inline;overflow:visible"
     d="M 433.43207,194.1037 C 433.75676,199.43857 430.28057,208.64309 436.46307,211.53191"
     id="path2934" />
  <path
     style="opacity:1;color:black;fill:none;fill-opacity:1;fill-rule:nonzero;stroke:black;stroke-width:1px;stroke-linecap:butt;stroke-linejoin:miter;marker:none;marker-start:none;marker-mid:none;marker-end:none;stroke-miterlimit:4;stroke-dasharray:none;stroke-dashoffset:0;stroke-opacity:1;visibility:visible;display:inline;overflow:visible"
     d="M 304.61484,216.83615 C 330.97558,213.62261 357.33327,207.55688 383.98818,211.28949 C 401.63172,210.97328 418.79634,214.6681 436.46307,214.5629"
     id="path2936" />
  <path
     style="opacity:1;color:black;fill:none;fill-opacity:1;fill-rule:nonzero;stroke:black;stroke-width:1px;stroke-linecap:butt;stroke-linejoin:miter;marker:none;marker-start:none;marker-mid:none;marker-end:none;stroke-miterlimit:4;stroke-dasharray:none;stroke-dashoffset:0;stroke-opacity:1;visibility:visible;display:inline;overflow:visible"
     d="M 454.64902,214.5629 C 447.92503,215.08066 440.01655,211.14049 434.18982,216.0784"
     id="path2938" />
  <path
     style="opacity:1;color:black;fill:none;fill-opacity:1;fill-rule:nonzero;stroke:black;stroke-width:1px;stroke-linecap:butt;stroke-linejoin:miter;marker:none;marker-start:none;marker-mid:none;marker-end:none;stroke-miterlimit:4;stroke-dasharray:none;stroke-dashoffset:0;stroke-opacity:1;visibility:visible;display:inline;overflow:visible"
     d="M 437.97858,216.0784 C 421.29778,224.76828 420.9895,246.85523 408.06498,257.66078 C 400.97322,262.27998 385.71444,271.95443 381.14743,269.87854"
     id="path2940" />
  <path
     style="opacity:1;color:black;fill:none;fill-opacity:1;fill-rule:nonzero;stroke:black;stroke-width:1px;stroke-linecap:butt;stroke-linejoin:miter;marker:none;marker-start:none;marker-mid:none;marker-end:none;stroke-miterlimit:4;stroke-dasharray:none;stroke-dashoffset:0;stroke-opacity:1;visibility:visible;display:inline;overflow:visible"
     d="M 381.14743,269.87854 C 367.06888,264.3436 350.73992,265.22121 345.73748,248.18033 C 338.30033,239.38549 330.6596,215.10518 328.55146,213.41744 L 328.8628,216.0784"
     id="path2942" />
  <path
     style="opacity:1;color:black;fill:none;fill-opacity:1;fill-rule:nonzero;stroke:black;stroke-width:1px;stroke-linecap:butt;stroke-linejoin:miter;marker:none;marker-start:none;marker-mid:none;marker-end:none;stroke-miterlimit:4;stroke-dasharray:none;stroke-dashoffset:0;stroke-opacity:1;visibility:visible;display:inline;overflow:visible"
     d="M 306.88809,218.35165 C 311.51258,235.05337 321.93654,249.13133 335.40728,259.45932 C 335.8225,263.55884 328.05008,262.62077 326.58955,266.08979"
     id="path2944" />
  <path
     style="opacity:1;color:black;fill:none;fill-opacity:1;fill-rule:nonzero;stroke:black;stroke-width:1px;stroke-linecap:butt;stroke-linejoin:miter;marker:none;marker-start:none;marker-mid:none;marker-end:none;stroke-miterlimit:4;stroke-dasharray:none;stroke-dashoffset:0;stroke-opacity:1;visibility:visible;display:inline;overflow:visible"
     d="M 334.92477,263.05881 C 325.93181,263.85194 349.141,257.56635 350.07975,258.51231"
     id="path2946" />
  <path
     style="opacity:1;color:black;fill:none;fill-opacity:1;fill-rule:nonzero;stroke:black;stroke-width:1px;stroke-linecap:butt;stroke-linejoin:miter;marker:none;marker-start:none;marker-mid:none;marker-end:none;stroke-miterlimit:4;stroke-dasharray:none;stroke-dashoffset:0;stroke-opacity:1;visibility:visible;display:inline;overflow:visible"
     d="M 409.18414,257.75455 C 417.62294,260.83604 429.28428,259.95676 434.18982,269.12079"
     id="path2948" />
  <path
     style="opacity:1;color:black;fill:none;fill-opacity:1;fill-rule:nonzero;stroke:black;stroke-width:1px;stroke-linecap:butt;stroke-linejoin:miter;marker:none;marker-start:none;marker-mid:none;marker-end:none;stroke-miterlimit:4;stroke-dasharray:none;stroke-dashoffset:0;stroke-opacity:1;visibility:visible;display:inline;overflow:visible"
     d="M 379.63193,269.12079 C 381.61064,275.84521 378.83389,282.77054 379.63194,289.57999"
     id="path2950" />
  <text
     xml:space="preserve"
     style="font-size:24px;font-style:normal;font-variant:normal;font-weight:normal;font-stretch:normal;text-align:start;line-height:125%;writing-mode:lr-tb;text-anchor:start;fill:black;fill-opacity:1;stroke:none;stroke-width:1px;stroke-linecap:butt;stroke-linejoin:miter;stroke-opacity:1;font-family:Browallia New"
     x="8.792264"
     y="126.30244"
     id="text3066"
     sodipodi:linespacing="125%"><tspan
       sodipodi:role="line"
       id="tspan3068"
       x="8.792264"
       y="126.30244">epitheca</tspan></text>
  <text
     xml:space="preserve"
     style="font-size:24px;font-style:normal;font-variant:normal;font-weight:normal;font-stretch:normal;text-align:start;line-height:125%;writing-mode:lr-tb;text-anchor:start;fill:black;fill-opacity:1;stroke:none;stroke-width:1px;stroke-linecap:butt;stroke-linejoin:miter;stroke-opacity:1;font-family:Browallia New"
     x="8.7571077"
     y="203.19667"
     id="text3070"
     sodipodi:linespacing="125%"><tspan
       sodipodi:role="line"
       id="tspan3072"
       x="8.7571077"
       y="203.19667">cingulum</tspan></text>
  <text
     xml:space="preserve"
     style="font-size:24px;font-style:normal;font-variant:normal;font-weight:normal;font-stretch:normal;text-align:start;line-height:125%;writing-mode:lr-tb;text-anchor:start;fill:black;fill-opacity:1;stroke:none;stroke-width:1px;stroke-linecap:butt;stroke-linejoin:miter;stroke-opacity:1;font-family:Browallia New"
     x="8.3352327"
     y="280.487"
     id="text3074"
     sodipodi:linespacing="125%"><tspan
       sodipodi:role="line"
       id="tspan3076"
       x="8.3352327"
       y="280.487">hypotheca</tspan></text>
  <text
     xml:space="preserve"
     style="font-size:24px;font-style:normal;font-variant:normal;font-weight:normal;font-stretch:normal;text-align:start;line-height:125%;writing-mode:lr-tb;text-anchor:start;fill:black;fill-opacity:1;stroke:none;stroke-width:1px;stroke-linecap:butt;stroke-linejoin:miter;stroke-opacity:1;font-family:Browallia New"
     x="253.8457"
     y="274.42502"
     id="text3078"
     sodipodi:linespacing="125%"><tspan
       sodipodi:role="line"
       id="tspan3080"
       x="253.8457"
       y="274.42502">flagella</tspan></text>
  <text
     xml:space="preserve"
     style="font-size:24px;font-style:normal;font-variant:normal;font-weight:normal;font-stretch:normal;text-align:start;line-height:125%;writing-mode:lr-tb;text-anchor:start;fill:black;fill-opacity:1;stroke:none;stroke-width:1px;stroke-linecap:butt;stroke-linejoin:miter;stroke-opacity:1;font-family:Browallia New"
     x="243.23723"
     y="106.20489"
     id="text3082"
     sodipodi:linespacing="125%"><tspan
       sodipodi:role="line"
       id="tspan3084"
       x="243.23723"
       y="106.20489">flagellar</tspan><tspan
       sodipodi:role="line"
       x="243.23723"
       y="136.20489"
       id="tspan3086">por(s)</tspan></text>
  <text
     xml:space="preserve"
     style="font-size:24px;font-style:normal;font-variant:normal;font-weight:normal;font-stretch:normal;text-align:start;line-height:125%;writing-mode:lr-tb;text-anchor:start;fill:black;fill-opacity:1;stroke:none;stroke-width:1px;stroke-linecap:butt;stroke-linejoin:miter;stroke-opacity:1;font-family:Browallia New"
     x="212.16956"
     y="59.224487"
     id="text3088"
     sodipodi:linespacing="125%"><tspan
       sodipodi:role="line"
       id="tspan3090"
       x="212.16956"
       y="59.224487">apical horn</tspan></text>
  <text
     xml:space="preserve"
     style="font-size:24px;font-style:normal;font-variant:normal;font-weight:normal;font-stretch:normal;text-align:start;line-height:125%;writing-mode:lr-tb;text-anchor:start;fill:black;fill-opacity:1;stroke:none;stroke-width:1px;stroke-linecap:butt;stroke-linejoin:miter;stroke-opacity:1;font-family:Browallia New"
     x="437.97855"
     y="70.590714"
     id="text3096"
     sodipodi:linespacing="125%"><tspan
       sodipodi:role="line"
       id="tspan3098"
       x="437.97855"
       y="70.590714">plates</tspan></text>
  <text
     xml:space="preserve"
     style="font-size:22.30857468px;font-style:normal;font-variant:normal;font-weight:normal;font-stretch:normal;text-align:start;line-height:125%;writing-mode:lr-tb;text-anchor:start;fill:black;fill-opacity:1;stroke:none;stroke-width:1px;stroke-linecap:butt;stroke-linejoin:miter;stroke-opacity:1;font-family:Browallia New"
     x="408.52029"
     y="121.62158"
     id="text3100"
     sodipodi:linespacing="125%"
     transform="scale(1.07582,0.929524)"><tspan
       sodipodi:role="line"
       id="tspan3102"
       x="408.52029"
       y="121.62158">sutures</tspan></text>
  <text
     xml:space="preserve"
     style="font-size:24px;font-style:normal;font-variant:normal;font-weight:normal;font-stretch:normal;text-align:start;line-height:125%;writing-mode:lr-tb;text-anchor:start;fill:black;fill-opacity:1;stroke:none;stroke-width:1px;stroke-linecap:butt;stroke-linejoin:miter;stroke-opacity:1;font-family:Browallia New"
     x="436.46304"
     y="360.05057"
     id="text3104"
     sodipodi:linespacing="125%"><tspan
       sodipodi:role="line"
       id="tspan3106"
       x="436.46304"
       y="360.05057">antapical horns</tspan></text>
  <text
     xml:space="preserve"
     style="font-size:32px;font-style:normal;font-variant:normal;font-weight:bold;font-stretch:normal;text-align:start;line-height:125%;writing-mode:lr-tb;text-anchor:start;fill:black;fill-opacity:1;stroke:none;stroke-width:1px;stroke-linecap:butt;stroke-linejoin:miter;stroke-opacity:1;font-family:Browallia New"
     x="112.14677"
     y="391.87604"
     id="text3108"
     sodipodi:linespacing="125%"><tspan
       sodipodi:role="line"
       id="tspan3110"
       x="112.14677"
       y="391.87604">ventral view</tspan></text>
  <text
     xml:space="preserve"
     style="font-size:32px;font-style:normal;font-variant:normal;font-weight:bold;font-stretch:normal;text-align:start;line-height:125%;writing-mode:lr-tb;text-anchor:start;fill:black;fill-opacity:1;stroke:none;stroke-width:1px;stroke-linecap:butt;stroke-linejoin:miter;stroke-opacity:1;font-family:Browallia New"
     x="351.59525"
     y="390.36053"
     id="text3112"
     sodipodi:linespacing="125%"><tspan
       sodipodi:role="line"
       id="tspan3114"
       x="351.59525"
       y="390.36053">dorsal view</tspan></text>
  <text
     xml:space="preserve"
     style="font-size:24px;font-style:normal;font-variant:normal;font-weight:normal;font-stretch:normal;text-align:start;line-height:125%;writing-mode:lr-tb;text-anchor:start;fill:black;fill-opacity:1;stroke:none;stroke-width:1px;stroke-linecap:butt;stroke-linejoin:miter;stroke-opacity:1;font-family:Browallia New"
     x="190.95261"
     y="366.11258"
     id="text3116"
     sodipodi:linespacing="125%"><tspan
       sodipodi:role="line"
       id="tspan3118"
       x="190.95261"
       y="366.11258"
       style="font-size:28px;font-style:italic">antapex or posterior</tspan></text>
  <path
     style="opacity:1;color:black;fill:none;fill-opacity:1;fill-rule:nonzero;stroke:black;stroke-width:1px;stroke-linecap:butt;stroke-linejoin:miter;marker:none;marker-start:none;marker-mid:none;marker-end:none;stroke-miterlimit:4;stroke-dasharray:none;stroke-dashoffset:0;stroke-opacity:1;visibility:visible;display:inline;overflow:visible"
     d="M 224.29352,202.43893 C 224.29352,201.93377 224.29352,201.4286 224.29352,202.43893 z "
     id="path3134" />
  <path
     style="opacity:1;color:black;fill:#ef2929;fill-opacity:1;fill-rule:nonzero;stroke:#ef1010;stroke-width:2;stroke-linecap:butt;stroke-linejoin:miter;marker:none;marker-start:none;marker-mid:none;marker-end:none;stroke-miterlimit:4;stroke-dasharray:none;stroke-dashoffset:0;stroke-opacity:1;visibility:visible;display:inline;overflow:visible"
     d="M 225.80902,202.43893 C 231.36569,208.08526 239.83806,222.52996 250.05697,232.74887 C 256.95103,239.64293 264.72945,247.42135 268.24293,250.93483"
     id="path3136" />
  <path
     style="opacity:1;color:black;fill:#ef2929;fill-opacity:1;fill-rule:nonzero;stroke:#cf1a1a;stroke-width:1px;stroke-linecap:butt;stroke-linejoin:miter;marker:none;marker-start:none;marker-mid:none;marker-end:none;stroke-miterlimit:4;stroke-dasharray:none;stroke-dashoffset:0;stroke-opacity:1;visibility:visible;display:inline;overflow:visible"
     d="M 180.34411,303.97721 C 187.48823,311.12133 197.44794,292.93537 204.59206,285.79125 C 212.3788,278.00451 226.69675,270.72823 234.902,264.5743 C 237.613,262.54105 240.96399,261.5433 243.99498,260.02781"
     id="path3138" />
  <path
     style="opacity:1;color:black;fill:none;fill-opacity:1;fill-rule:nonzero;stroke:#ef1010;stroke-width:2.00000048;stroke-linecap:butt;stroke-linejoin:miter;marker:none;marker-start:none;marker-mid:none;marker-end:none;stroke-miterlimit:4;stroke-dasharray:none;stroke-dashoffset:0;stroke-opacity:1;visibility:visible;display:inline;overflow:visible"
     d="M 413.73062,332.77178 C 419.84211,335.43852 434.39761,338.71722 444.04055,344.14444 C 456.82989,351.34252 459.66888,347.03029 441.00956,349.83077 C 431.26047,351.29397 420.86936,350.96804 410.69962,350.96804 C 400.58148,350.96804 389.15984,347.21136 378.87419,345.28171 C 369.09541,343.44715 357.69064,340.75771 353.11075,337.32084"
     id="path3142" />
  <path
     style="opacity:1;color:black;fill:none;fill-opacity:1;fill-rule:nonzero;stroke:#ef1010;stroke-width:2;stroke-linecap:butt;stroke-linejoin:miter;marker:none;marker-start:none;marker-mid:none;marker-end:none;stroke-miterlimit:4;stroke-dasharray:none;stroke-dashoffset:0;stroke-opacity:1;visibility:visible;display:inline;overflow:visible"
     d="M 371.2967,170.6135 C 365.44719,171.78231 395.12686,154.63525 406.15313,146.36555 C 414.83526,139.85396 426.1052,131.78037 434.94757,125.1486 C 440.08527,121.29532 447.86717,116.05562 437.97856,116.05562"
     id="path3144"
     sodipodi:nodetypes="cssc" />
  <path
     style="opacity:1;color:black;fill:none;fill-opacity:1;fill-rule:nonzero;stroke:#ef1010;stroke-width:2;stroke-linecap:butt;stroke-linejoin:miter;marker:none;marker-start:none;marker-mid:none;marker-end:none;stroke-miterlimit:4;stroke-dasharray:none;stroke-dashoffset:0;stroke-opacity:1;visibility:visible;display:inline;overflow:visible"
     d="M 416.76161,158.48952 C 422.48082,154.20012 432.03538,141.70026 441.00956,132.72608 C 444.30284,129.4328 444.04055,123.74401 444.04055,119.08661"
     id="path3146" />
  <path
     style="opacity:1;color:black;fill:none;fill-opacity:1;fill-rule:nonzero;stroke:#ef1010;stroke-width:2;stroke-linecap:butt;stroke-linejoin:miter;marker:none;marker-start:none;marker-mid:none;marker-end:none;stroke-miterlimit:4;stroke-dasharray:none;stroke-dashoffset:0;stroke-opacity:1;visibility:visible;display:inline;overflow:visible"
     d="M 381.90519,105.44714 C 388.29475,100.86149 400.77105,92.225464 410.69963,87.261177 C 418.8205,83.200738 427.2529,77.608872 433.43208,75.137203"
     id="path3152" />
  <path
     style="opacity:1;color:black;fill:none;fill-opacity:1;fill-rule:nonzero;stroke:#ef1010;stroke-width:2;stroke-linecap:butt;stroke-linejoin:miter;marker:none;marker-start:none;marker-mid:none;marker-end:none;stroke-miterlimit:4;stroke-dasharray:none;stroke-dashoffset:0;stroke-opacity:1;visibility:visible;display:inline;overflow:visible"
     d="M 401.60664,134.24157 C 409.61315,130.23831 402.85442,114.80783 409.18412,108.47813 C 419.93873,97.723523 426.90786,95.172067 430.40108,81.19919 C 430.76864,79.728942 430.40108,78.168197 430.40108,76.6527"
     id="path3154" />
  <path
     style="opacity:1;color:black;fill:none;fill-opacity:1;fill-rule:nonzero;stroke:#ef1010;stroke-width:2;stroke-linecap:butt;stroke-linejoin:miter;marker:none;marker-start:none;marker-mid:none;marker-end:none;stroke-miterlimit:4;stroke-dasharray:none;stroke-dashoffset:0;stroke-opacity:1;visibility:visible;display:inline;overflow:visible"
     d="M 463.74201,49.373759 C 470.79374,54.037007 484.95896,55.728663 484.95896,70.590713 C 484.95896,75.960697 491.87329,79.896778 497.08294,81.199191 C 502.19955,82.478344 490.1778,91.636874 492.53645,96.354158 C 493.54678,98.374821 494.55711,100.39548 495.56744,102.41615 C 501.09664,113.47455 493.92317,128.25685 486.47446,132.72608 C 482.20817,135.28585 477.28503,136.56304 472.83499,138.78807"
     id="path3176" />
  <text
     xml:space="preserve"
     style="font-size:24px;font-style:normal;font-variant:normal;font-weight:normal;font-stretch:normal;text-align:start;line-height:125%;writing-mode:lr-tb;text-anchor:start;fill:black;fill-opacity:1;stroke:none;stroke-width:1px;stroke-linecap:butt;stroke-linejoin:miter;stroke-opacity:1;font-family:Browallia New"
     x="510.72241"
     y="63.013226"
     id="text3178"
     sodipodi:linespacing="125%"><tspan
       sodipodi:role="line"
       id="tspan3180"
       x="510.72241"
       y="63.013226"
       style="font-size:20px">Number and</tspan><tspan
       sodipodi:role="line"
       x="510.72241"
       y="88.013226"
       id="tspan3182"
       style="font-size:20px">arrangement</tspan><tspan
       sodipodi:role="line"
       x="510.72241"
       y="113.01323"
       id="tspan3184"
       style="font-size:20px">=tabulation</tspan></text>
  <path
     style="opacity:1;color:black;fill:none;fill-opacity:1;fill-rule:nonzero;stroke:#001010;stroke-width:2;stroke-linecap:butt;stroke-linejoin:miter;marker:none;marker-start:none;marker-mid:none;marker-end:none;stroke-miterlimit:4;stroke-dasharray:none;stroke-dashoffset:0;stroke-opacity:1;visibility:visible;display:inline;overflow:visible"
     d="M 313.70784,210.01641 C 316.503,204.80122 331.53649,204.1146 342.50227,208.50091 C 356.99995,214.29998 357.88337,213.74862 372.81221,210.01641 C 382.82159,207.51406 392.01624,205.46992 403.12215,205.46992 C 411.99707,205.46992 422.1673,206.98541 431.91658,206.98541 C 439.51089,206.98541 447.28148,206.65902 454.64903,208.50091 C 464.45069,210.95132 434.14075,210.95132 424.3391,208.50091 C 413.23083,205.72384 404.936,211.22762 394.02916,208.50091 C 382.73161,205.67652 373.80999,215.06179 363.71923,210.01641 C 349.80346,203.05852 345.27256,203.2917 337.95578,213.0474 C 333.06845,219.56384 320.99344,206.37361 313.70784,210.01641 z "
     id="path3186" />
  <text
     xml:space="preserve"
     style="font-size:24px;font-style:normal;font-variant:normal;font-weight:normal;font-stretch:normal;text-align:start;line-height:125%;writing-mode:lr-tb;text-anchor:start;fill:black;fill-opacity:1;stroke:none;stroke-width:1px;stroke-linecap:butt;stroke-linejoin:miter;stroke-opacity:1;font-family:Browallia New"
     x="19.494492"
     y="370.65906"
     id="text3188"
     sodipodi:linespacing="125%"><tspan
       sodipodi:role="line"
       id="tspan3190"
       x="19.494492"
       y="370.65906">suicus</tspan></text>
  <path
     style="opacity:1;color:black;fill:none;fill-opacity:1;fill-rule:nonzero;stroke:#ef1010;stroke-width:2;stroke-linecap:butt;stroke-linejoin:miter;marker:none;marker-start:none;marker-mid:none;marker-end:none;stroke-miterlimit:4;stroke-dasharray:none;stroke-dashoffset:0;stroke-opacity:1;visibility:visible;display:inline;overflow:visible"
     d="M 78.805832,196.37694 C 84.735868,197.99036 90.846188,199.40794 96.991793,199.40794"
     id="path3192" />
  <path
     style="opacity:1;color:black;fill:none;fill-opacity:1;fill-rule:nonzero;stroke:#ef1010;stroke-width:2;stroke-linecap:butt;stroke-linejoin:miter;marker:none;marker-start:none;marker-mid:none;marker-end:none;stroke-miterlimit:4;stroke-dasharray:none;stroke-dashoffset:0;stroke-opacity:1;visibility:visible;display:inline;overflow:visible"
     d="M 96.991793,210.01641 C 87.823137,205.37433 82.643289,214.75777 86.383315,229.71787 C 88.975108,240.08504 89.414309,248.89174 89.414309,260.02781 C 89.414309,293.54908 73.462054,254.92343 90.929806,278.21377 C 93.60742,281.78392 93.960799,302.28762 93.960799,308.5237 C 93.960799,321.1813 94.139832,326.04143 104.56928,331.25616 C 106.43224,332.18763 103.55895,327.21483 103.05378,325.19417"
     id="path3198" />
  <path
     style="opacity:1;color:black;fill:none;fill-opacity:1;fill-rule:nonzero;stroke:#ef1010;stroke-width:2;stroke-linecap:butt;stroke-linejoin:miter;marker:none;marker-start:none;marker-mid:none;marker-end:none;stroke-miterlimit:4;stroke-dasharray:none;stroke-dashoffset:0;stroke-opacity:1;visibility:visible;display:inline;overflow:visible"
     d="M 68.197354,352.47311 C 73.568269,349.06068 86.686944,335.49902 95.476296,326.70967 C 106.07017,316.11579 116.66612,308.55987 125.78623,296.39973 C 133.69179,285.85899 143.84615,272.825 150.03418,264.5743 C 155.5074,257.27667 176.15892,248.43244 165.18915,263.0588"
     id="path3202" />
  <path
     style="opacity:1;color:black;fill:none;fill-opacity:1;fill-rule:nonzero;stroke:#ef1010;stroke-width:2;stroke-linecap:butt;stroke-linejoin:miter;marker:none;marker-start:none;marker-mid:none;marker-end:none;stroke-miterlimit:4;stroke-dasharray:none;stroke-dashoffset:0;stroke-opacity:1;visibility:visible;display:inline;overflow:visible"
     d="M 203.07657,55.435745 C 201.43573,57.632331 188.82917,59.982235 180.34411,59.982235"
     id="path3204" />
  <path
     style="opacity:1;color:black;fill:none;fill-opacity:1;fill-rule:nonzero;stroke:#ef1010;stroke-width:2;stroke-linecap:butt;stroke-linejoin:miter;marker:none;marker-start:none;marker-mid:none;marker-end:none;stroke-miterlimit:4;stroke-dasharray:none;stroke-dashoffset:0;stroke-opacity:1;visibility:visible;display:inline;overflow:visible"
     d="M 175.79762,193.34595 C 173.6137,186.38308 176.41807,174.33273 184.8906,163.03601 C 192.98231,152.24707 196.71828,141.28354 206.10756,134.24158 C 214.02215,128.30563 222.74539,121.37617 233.3865,116.05562 C 235.73065,102.24051 236.41749,115.04528 237.93299,114.54012"
     id="path3206" />
  <text
     xml:space="preserve"
     style="font-size:32px;font-style:normal;font-variant:normal;font-weight:normal;font-stretch:normal;text-align:start;line-height:125%;writing-mode:lr-tb;text-anchor:start;fill:black;fill-opacity:1;stroke:none;stroke-width:1px;stroke-linecap:butt;stroke-linejoin:miter;stroke-opacity:1;font-family:Browallia New"
     x="187.9216"
     y="28.156805"
     id="text3208"
     sodipodi:linespacing="125%"><tspan
       sodipodi:role="line"
       id="tspan3210"
       x="187.9216"
       y="28.156805"
       style="font-style:italic">apex or anterior</tspan></text>
  <path
     style="opacity:1;color:black;fill:none;fill-opacity:1;fill-rule:nonzero;stroke:#ef1010;stroke-width:1.99999976;stroke-linecap:butt;stroke-linejoin:miter;marker:none;marker-start:none;marker-mid:none;marker-end:none;stroke-miterlimit:4;stroke-dasharray:none;stroke-dashoffset:0;stroke-opacity:1;visibility:visible;display:inline;overflow:visible"
     d="M 98.507289,40.129817 C 91.230527,33.488261 84.867819,35.718005 84.867819,53.197249 C 84.867819,64.037567 86.383315,72.94934 86.383315,83.687922 C 86.383315,95.615002 86.191524,103.77605 80.321328,111.27472 C 74.447664,118.77782 80.321328,108.04323 80.321328,128.69796 C 80.321328,138.25917 80.321328,147.10177 80.321328,157.7367 C 80.321328,169.05046 89.8735,174.37677 93.960799,175.15995"
     id="path3212" />
</svg>
