<?xml version="1.0" encoding="UTF-8" standalone="no"?>
<!-- Created with Inkscape (http://www.inkscape.org/) -->

<svg
   xmlns:dc="http://purl.org/dc/elements/1.1/"
   xmlns:cc="http://creativecommons.org/ns#"
   xmlns:rdf="http://www.w3.org/1999/02/22-rdf-syntax-ns#"
   xmlns:svg="http://www.w3.org/2000/svg"
   xmlns="http://www.w3.org/2000/svg"
   xmlns:xlink="http://www.w3.org/1999/xlink"
   xmlns:sodipodi="http://sodipodi.sourceforge.net/DTD/sodipodi-0.dtd"
   xmlns:inkscape="http://www.inkscape.org/namespaces/inkscape"
   width="199.77962mm"
   height="113.9091mm"
   viewBox="0 0 707.88053 403.61493"
   id="svg4949"
   version="1.1"
   inkscape:version="0.91 r13725"
   sodipodi:docname="Mature_flower_diagram.svg">
  <defs
     id="defs4951">
    <inkscape:perspective
       id="perspective733"
       inkscape:persp3d-origin="211.29848 : 72.180999 : 1"
       inkscape:vp_z="422.59696 : 108.2715 : 1"
       inkscape:vp_y="0 : 999.99998 : 0"
       inkscape:vp_x="0 : 108.2715 : 1"
       sodipodi:type="inkscape:persp3d" />
    <linearGradient
       id="XMLID_19_"
       gradientUnits="userSpaceOnUse"
       x1="444.76761"
       y1="128.19679"
       x2="463.03879"
       y2="104.4735"
       gradientTransform="matrix(0.9628,0.2703,-0.2703,0.9628,-46.5876,-124.1503)">
      <stop
         offset="0"
         style="stop-color:#F2CA20"
         id="stop339" />
      <stop
         offset="0.4479"
         style="stop-color:#F2C820"
         id="stop341" />
      <stop
         offset="0.6092"
         style="stop-color:#F0C11F"
         id="stop343" />
      <stop
         offset="0.7242"
         style="stop-color:#EEB61E"
         id="stop345" />
      <stop
         offset="0.8171"
         style="stop-color:#EBA51C"
         id="stop347" />
      <stop
         offset="0.8958"
         style="stop-color:#E78F19"
         id="stop349" />
      <stop
         offset="0.927"
         style="stop-color:#E58418"
         id="stop351" />
    </linearGradient>
    <linearGradient
       id="XMLID_20_"
       gradientUnits="userSpaceOnUse"
       x1="448.4707"
       y1="113.4624"
       x2="459.8165"
       y2="121.5665"
       gradientTransform="matrix(0.9628,0.2703,-0.2703,0.9628,-46.5876,-124.1503)">
      <stop
         offset="0.0056"
         style="stop-color:#A6430E"
         id="stop356" />
      <stop
         offset="0.3146"
         style="stop-color:#DD5913"
         id="stop358" />
      <stop
         offset="1"
         style="stop-color:#F29620"
         id="stop360" />
    </linearGradient>
    <radialGradient
       id="XMLID_21_"
       cx="450.19339"
       cy="116.519"
       r="3.8683"
       gradientTransform="matrix(0.9628,0.2703,-0.2703,0.9628,-46.5876,-124.1503)"
       gradientUnits="userSpaceOnUse">
      <stop
         offset="0"
         style="stop-color:#F2CA20"
         id="stop365" />
      <stop
         offset="0.0144"
         style="stop-color:#F2C71F"
         id="stop367" />
      <stop
         offset="0.3516"
         style="stop-color:#F88E12"
         id="stop369" />
      <stop
         offset="0.64"
         style="stop-color:#FC6308"
         id="stop371" />
      <stop
         offset="0.8654"
         style="stop-color:#FE4A02"
         id="stop373" />
      <stop
         offset="1"
         style="stop-color:#FF4000"
         id="stop375" />
    </radialGradient>
    <radialGradient
       id="XMLID_22_"
       cx="451.71289"
       cy="119.019"
       r="3.8680999"
       gradientTransform="matrix(0.9628,0.2703,-0.2703,0.9628,-46.5876,-124.1503)"
       gradientUnits="userSpaceOnUse">
      <stop
         offset="0"
         style="stop-color:#F2CA20"
         id="stop380" />
      <stop
         offset="0.0144"
         style="stop-color:#F2C71F"
         id="stop382" />
      <stop
         offset="0.3516"
         style="stop-color:#F88E12"
         id="stop384" />
      <stop
         offset="0.64"
         style="stop-color:#FC6308"
         id="stop386" />
      <stop
         offset="0.8654"
         style="stop-color:#FE4A02"
         id="stop388" />
      <stop
         offset="1"
         style="stop-color:#FF4000"
         id="stop390" />
    </radialGradient>
    <radialGradient
       id="XMLID_23_"
       cx="446.39359"
       cy="120.5327"
       r="3.8683"
       gradientTransform="matrix(0.9628,0.2703,-0.2703,0.9628,-46.5876,-124.1503)"
       gradientUnits="userSpaceOnUse">
      <stop
         offset="0"
         style="stop-color:#F2CA20"
         id="stop395" />
      <stop
         offset="0.0144"
         style="stop-color:#F2C71F"
         id="stop397" />
      <stop
         offset="0.3516"
         style="stop-color:#F88E12"
         id="stop399" />
      <stop
         offset="0.64"
         style="stop-color:#FC6308"
         id="stop401" />
      <stop
         offset="0.8654"
         style="stop-color:#FE4A02"
         id="stop403" />
      <stop
         offset="1"
         style="stop-color:#FF4000"
         id="stop405" />
    </radialGradient>
    <radialGradient
       id="XMLID_24_"
       cx="448.5654"
       cy="122.353"
       r="3.8676"
       gradientTransform="matrix(0.9628,0.2703,-0.2703,0.9628,-46.5876,-124.1503)"
       gradientUnits="userSpaceOnUse">
      <stop
         offset="0"
         style="stop-color:#F2CA20"
         id="stop410" />
      <stop
         offset="0.0144"
         style="stop-color:#F2C71F"
         id="stop412" />
      <stop
         offset="0.3516"
         style="stop-color:#F88E12"
         id="stop414" />
      <stop
         offset="0.64"
         style="stop-color:#FC6308"
         id="stop416" />
      <stop
         offset="0.8654"
         style="stop-color:#FE4A02"
         id="stop418" />
      <stop
         offset="1"
         style="stop-color:#FF4000"
         id="stop420" />
    </radialGradient>
    <radialGradient
       id="XMLID_25_"
       cx="454.53809"
       cy="110.8677"
       r="3.8680999"
       gradientTransform="matrix(0.9628,0.2703,-0.2703,0.9628,-46.5876,-124.1503)"
       gradientUnits="userSpaceOnUse">
      <stop
         offset="0"
         style="stop-color:#F2CA20"
         id="stop425" />
      <stop
         offset="0.0144"
         style="stop-color:#F2C71F"
         id="stop427" />
      <stop
         offset="0.3516"
         style="stop-color:#F88E12"
         id="stop429" />
      <stop
         offset="0.64"
         style="stop-color:#FC6308"
         id="stop431" />
      <stop
         offset="0.8654"
         style="stop-color:#FE4A02"
         id="stop433" />
      <stop
         offset="1"
         style="stop-color:#FF4000"
         id="stop435" />
    </radialGradient>
    <radialGradient
       id="XMLID_26_"
       cx="455.1221"
       cy="115.0483"
       r="3.8683"
       gradientTransform="matrix(0.9628,0.2703,-0.2703,0.9628,-46.5876,-124.1503)"
       gradientUnits="userSpaceOnUse">
      <stop
         offset="0"
         style="stop-color:#F2CA20"
         id="stop440" />
      <stop
         offset="0.0144"
         style="stop-color:#F2C71F"
         id="stop442" />
      <stop
         offset="0.3516"
         style="stop-color:#F88E12"
         id="stop444" />
      <stop
         offset="0.64"
         style="stop-color:#FC6308"
         id="stop446" />
      <stop
         offset="0.8654"
         style="stop-color:#FE4A02"
         id="stop448" />
      <stop
         offset="1"
         style="stop-color:#FF4000"
         id="stop450" />
    </radialGradient>
    <radialGradient
       id="XMLID_27_"
       cx="461.85449"
       cy="110.8682"
       r="3.8683"
       gradientTransform="matrix(0.9628,0.2703,-0.2703,0.9628,-46.5876,-124.1503)"
       gradientUnits="userSpaceOnUse">
      <stop
         offset="0"
         style="stop-color:#F2CA20"
         id="stop455" />
      <stop
         offset="0.0144"
         style="stop-color:#F2C71F"
         id="stop457" />
      <stop
         offset="0.3516"
         style="stop-color:#F88E12"
         id="stop459" />
      <stop
         offset="0.64"
         style="stop-color:#FC6308"
         id="stop461" />
      <stop
         offset="0.8654"
         style="stop-color:#FE4A02"
         id="stop463" />
      <stop
         offset="1"
         style="stop-color:#FF4000"
         id="stop465" />
    </radialGradient>
    <radialGradient
       id="XMLID_28_"
       cx="460.2959"
       cy="104.8306"
       r="3.8678"
       gradientTransform="matrix(0.9628,0.2703,-0.2703,0.9628,-46.5876,-124.1503)"
       gradientUnits="userSpaceOnUse">
      <stop
         offset="0"
         style="stop-color:#F2CA20"
         id="stop470" />
      <stop
         offset="0.0144"
         style="stop-color:#F2C71F"
         id="stop472" />
      <stop
         offset="0.3516"
         style="stop-color:#F88E12"
         id="stop474" />
      <stop
         offset="0.64"
         style="stop-color:#FC6308"
         id="stop476" />
      <stop
         offset="0.8654"
         style="stop-color:#FE4A02"
         id="stop478" />
      <stop
         offset="1"
         style="stop-color:#FF4000"
         id="stop480" />
    </radialGradient>
    <radialGradient
       id="XMLID_29_"
       cx="481.9111"
       cy="102.5952"
       r="3.8676"
       gradientTransform="matrix(0.9628,0.2703,-0.2703,0.9628,-46.5876,-124.1503)"
       gradientUnits="userSpaceOnUse">
      <stop
         offset="0"
         style="stop-color:#F2CA20"
         id="stop485" />
      <stop
         offset="0.0144"
         style="stop-color:#F2C71F"
         id="stop487" />
      <stop
         offset="0.3516"
         style="stop-color:#F88E12"
         id="stop489" />
      <stop
         offset="0.64"
         style="stop-color:#FC6308"
         id="stop491" />
      <stop
         offset="0.8654"
         style="stop-color:#FE4A02"
         id="stop493" />
      <stop
         offset="1"
         style="stop-color:#FF4000"
         id="stop495" />
    </radialGradient>
    <radialGradient
       id="XMLID_30_"
       cx="476.55569"
       cy="112.2339"
       r="3.8687999"
       gradientTransform="matrix(0.9628,0.2703,-0.2703,0.9628,-46.5876,-124.1503)"
       gradientUnits="userSpaceOnUse">
      <stop
         offset="0"
         style="stop-color:#F2CA20"
         id="stop500" />
      <stop
         offset="0.0144"
         style="stop-color:#F2C71F"
         id="stop502" />
      <stop
         offset="0.3516"
         style="stop-color:#F88E12"
         id="stop504" />
      <stop
         offset="0.64"
         style="stop-color:#FC6308"
         id="stop506" />
      <stop
         offset="0.8654"
         style="stop-color:#FE4A02"
         id="stop508" />
      <stop
         offset="1"
         style="stop-color:#FF4000"
         id="stop510" />
    </radialGradient>
    <radialGradient
       id="XMLID_31_"
       cx="467.6123"
       cy="107.0498"
       r="3.8683"
       gradientTransform="matrix(0.9628,0.2703,-0.2703,0.9628,-46.5876,-124.1503)"
       gradientUnits="userSpaceOnUse">
      <stop
         offset="0"
         style="stop-color:#F2CA20"
         id="stop515" />
      <stop
         offset="0.0144"
         style="stop-color:#F2C71F"
         id="stop517" />
      <stop
         offset="0.3516"
         style="stop-color:#F88E12"
         id="stop519" />
      <stop
         offset="0.64"
         style="stop-color:#FC6308"
         id="stop521" />
      <stop
         offset="0.8654"
         style="stop-color:#FE4A02"
         id="stop523" />
      <stop
         offset="1"
         style="stop-color:#FF4000"
         id="stop525" />
    </radialGradient>
    <radialGradient
       id="XMLID_32_"
       cx="459.39359"
       cy="114.2476"
       r="3.8683"
       gradientTransform="matrix(0.9628,0.2703,-0.2703,0.9628,-46.5876,-124.1503)"
       gradientUnits="userSpaceOnUse">
      <stop
         offset="0"
         style="stop-color:#F2CA20"
         id="stop530" />
      <stop
         offset="0.0144"
         style="stop-color:#F2C71F"
         id="stop532" />
      <stop
         offset="0.3516"
         style="stop-color:#F88E12"
         id="stop534" />
      <stop
         offset="0.64"
         style="stop-color:#FC6308"
         id="stop536" />
      <stop
         offset="0.8654"
         style="stop-color:#FE4A02"
         id="stop538" />
      <stop
         offset="1"
         style="stop-color:#FF4000"
         id="stop540" />
    </radialGradient>
    <radialGradient
       id="XMLID_33_"
       cx="454.8486"
       cy="118.668"
       r="3.8683"
       gradientTransform="matrix(0.9628,0.2703,-0.2703,0.9628,-46.5876,-124.1503)"
       gradientUnits="userSpaceOnUse">
      <stop
         offset="0"
         style="stop-color:#F2CA20"
         id="stop545" />
      <stop
         offset="0.0144"
         style="stop-color:#F2C71F"
         id="stop547" />
      <stop
         offset="0.3516"
         style="stop-color:#F88E12"
         id="stop549" />
      <stop
         offset="0.64"
         style="stop-color:#FC6308"
         id="stop551" />
      <stop
         offset="0.8654"
         style="stop-color:#FE4A02"
         id="stop553" />
      <stop
         offset="1"
         style="stop-color:#FF4000"
         id="stop555" />
    </radialGradient>
    <radialGradient
       id="XMLID_34_"
       cx="447.71881"
       cy="117.0371"
       r="3.8683"
       gradientTransform="matrix(0.9628,0.2703,-0.2703,0.9628,-46.5876,-124.1503)"
       gradientUnits="userSpaceOnUse">
      <stop
         offset="0"
         style="stop-color:#F2CA20"
         id="stop560" />
      <stop
         offset="0.0144"
         style="stop-color:#F2C71F"
         id="stop562" />
      <stop
         offset="0.3516"
         style="stop-color:#F88E12"
         id="stop564" />
      <stop
         offset="0.64"
         style="stop-color:#FC6308"
         id="stop566" />
      <stop
         offset="0.8654"
         style="stop-color:#FE4A02"
         id="stop568" />
      <stop
         offset="1"
         style="stop-color:#FF4000"
         id="stop570" />
    </radialGradient>
    <radialGradient
       id="XMLID_35_"
       cx="445.36621"
       cy="123.6655"
       r="3.8680999"
       gradientTransform="matrix(0.9628,0.2703,-0.2703,0.9628,-46.5876,-124.1503)"
       gradientUnits="userSpaceOnUse">
      <stop
         offset="0"
         style="stop-color:#F2CA20"
         id="stop575" />
      <stop
         offset="0.0144"
         style="stop-color:#F2C71F"
         id="stop577" />
      <stop
         offset="0.3516"
         style="stop-color:#F88E12"
         id="stop579" />
      <stop
         offset="0.64"
         style="stop-color:#FC6308"
         id="stop581" />
      <stop
         offset="0.8654"
         style="stop-color:#FE4A02"
         id="stop583" />
      <stop
         offset="1"
         style="stop-color:#FF4000"
         id="stop585" />
    </radialGradient>
    <radialGradient
       id="XMLID_36_"
       cx="456.53131"
       cy="106.1177"
       r="3.8678"
       gradientTransform="matrix(0.9628,0.2703,-0.2703,0.9628,-46.5876,-124.1503)"
       gradientUnits="userSpaceOnUse">
      <stop
         offset="0"
         style="stop-color:#F2CA20"
         id="stop590" />
      <stop
         offset="0.0144"
         style="stop-color:#F2C71F"
         id="stop592" />
      <stop
         offset="0.3516"
         style="stop-color:#F88E12"
         id="stop594" />
      <stop
         offset="0.64"
         style="stop-color:#FC6308"
         id="stop596" />
      <stop
         offset="0.8654"
         style="stop-color:#FE4A02"
         id="stop598" />
      <stop
         offset="1"
         style="stop-color:#FF4000"
         id="stop600" />
    </radialGradient>
    <radialGradient
       r="3.8678"
       cy="106.1177"
       cx="456.53131"
       gradientTransform="matrix(1.5160999,0.42563544,-0.42563544,1.5160999,-25.373243,47.008646)"
       gradientUnits="userSpaceOnUse"
       id="radialGradient3293"
       xlink:href="#XMLID_36_"
       inkscape:collect="always" />
    <radialGradient
       r="3.8680999"
       cy="123.6655"
       cx="445.36621"
       gradientTransform="matrix(1.5160999,0.42563544,-0.42563544,1.5160999,-25.373243,47.008646)"
       gradientUnits="userSpaceOnUse"
       id="radialGradient3296"
       xlink:href="#XMLID_35_"
       inkscape:collect="always" />
    <radialGradient
       r="3.8683"
       cy="117.0371"
       cx="447.71881"
       gradientTransform="matrix(1.5160999,0.42563544,-0.42563544,1.5160999,-25.373243,47.008646)"
       gradientUnits="userSpaceOnUse"
       id="radialGradient3299"
       xlink:href="#XMLID_34_"
       inkscape:collect="always" />
    <radialGradient
       r="3.8683"
       cy="118.668"
       cx="454.8486"
       gradientTransform="matrix(1.5160999,0.42563544,-0.42563544,1.5160999,-25.373243,47.008646)"
       gradientUnits="userSpaceOnUse"
       id="radialGradient3302"
       xlink:href="#XMLID_33_"
       inkscape:collect="always" />
    <radialGradient
       r="3.8683"
       cy="114.2476"
       cx="459.39359"
       gradientTransform="matrix(1.5160999,0.42563544,-0.42563544,1.5160999,-25.373243,47.008646)"
       gradientUnits="userSpaceOnUse"
       id="radialGradient3305"
       xlink:href="#XMLID_32_"
       inkscape:collect="always" />
    <radialGradient
       r="3.8683"
       cy="107.0498"
       cx="467.6123"
       gradientTransform="matrix(1.5160999,0.42563544,-0.42563544,1.5160999,-25.373243,47.008646)"
       gradientUnits="userSpaceOnUse"
       id="radialGradient3308"
       xlink:href="#XMLID_31_"
       inkscape:collect="always" />
    <radialGradient
       r="3.8687999"
       cy="112.2339"
       cx="476.55569"
       gradientTransform="matrix(1.5160999,0.42563544,-0.42563544,1.5160999,-25.373243,47.008646)"
       gradientUnits="userSpaceOnUse"
       id="radialGradient3311"
       xlink:href="#XMLID_30_"
       inkscape:collect="always" />
    <radialGradient
       r="3.8676"
       cy="102.5952"
       cx="481.9111"
       gradientTransform="matrix(1.5160999,0.42563544,-0.42563544,1.5160999,-25.373243,47.008646)"
       gradientUnits="userSpaceOnUse"
       id="radialGradient3314"
       xlink:href="#XMLID_29_"
       inkscape:collect="always" />
    <radialGradient
       r="3.8678"
       cy="104.8306"
       cx="460.2959"
       gradientTransform="matrix(1.5160999,0.42563544,-0.42563544,1.5160999,-25.373243,47.008646)"
       gradientUnits="userSpaceOnUse"
       id="radialGradient3317"
       xlink:href="#XMLID_28_"
       inkscape:collect="always" />
    <radialGradient
       r="3.8683"
       cy="110.8682"
       cx="461.85449"
       gradientTransform="matrix(1.5160999,0.42563544,-0.42563544,1.5160999,-25.373243,47.008646)"
       gradientUnits="userSpaceOnUse"
       id="radialGradient3320"
       xlink:href="#XMLID_27_"
       inkscape:collect="always" />
    <radialGradient
       r="3.8683"
       cy="115.0483"
       cx="455.1221"
       gradientTransform="matrix(1.5160999,0.42563544,-0.42563544,1.5160999,-25.373243,47.008646)"
       gradientUnits="userSpaceOnUse"
       id="radialGradient3323"
       xlink:href="#XMLID_26_"
       inkscape:collect="always" />
    <radialGradient
       r="3.8680999"
       cy="110.8677"
       cx="454.53809"
       gradientTransform="matrix(1.5160999,0.42563544,-0.42563544,1.5160999,-25.373243,47.008646)"
       gradientUnits="userSpaceOnUse"
       id="radialGradient3326"
       xlink:href="#XMLID_25_"
       inkscape:collect="always" />
    <radialGradient
       r="3.8676"
       cy="122.353"
       cx="448.5654"
       gradientTransform="matrix(1.5160999,0.42563544,-0.42563544,1.5160999,-25.373243,47.008646)"
       gradientUnits="userSpaceOnUse"
       id="radialGradient3329"
       xlink:href="#XMLID_24_"
       inkscape:collect="always" />
    <radialGradient
       r="3.8683"
       cy="120.5327"
       cx="446.39359"
       gradientTransform="matrix(1.5160999,0.42563544,-0.42563544,1.5160999,-25.373243,47.008646)"
       gradientUnits="userSpaceOnUse"
       id="radialGradient3332"
       xlink:href="#XMLID_23_"
       inkscape:collect="always" />
    <radialGradient
       r="3.8680999"
       cy="119.019"
       cx="451.71289"
       gradientTransform="matrix(1.5160999,0.42563544,-0.42563544,1.5160999,-25.373243,47.008646)"
       gradientUnits="userSpaceOnUse"
       id="radialGradient3335"
       xlink:href="#XMLID_22_"
       inkscape:collect="always" />
    <radialGradient
       r="3.8683"
       cy="116.519"
       cx="450.19339"
       gradientTransform="matrix(1.5160999,0.42563544,-0.42563544,1.5160999,-25.373243,47.008646)"
       gradientUnits="userSpaceOnUse"
       id="radialGradient3338"
       xlink:href="#XMLID_21_"
       inkscape:collect="always" />
    <linearGradient
       y2="121.5665"
       x2="459.8165"
       y1="113.4624"
       x1="448.4707"
       gradientTransform="matrix(1.5160999,0.42563544,-0.42563544,1.5160999,-25.373243,47.008646)"
       gradientUnits="userSpaceOnUse"
       id="linearGradient3341"
       xlink:href="#XMLID_20_"
       inkscape:collect="always" />
    <linearGradient
       y2="104.4735"
       x2="463.03879"
       y1="128.19679"
       x1="444.76761"
       gradientTransform="matrix(1.5160999,0.42563544,-0.42563544,1.5160999,-25.373243,47.008646)"
       gradientUnits="userSpaceOnUse"
       id="linearGradient3344"
       xlink:href="#XMLID_19_"
       inkscape:collect="always" />
  </defs>
  <sodipodi:namedview
     id="base"
     pagecolor="#ffffff"
     bordercolor="#666666"
     borderopacity="1.0"
     inkscape:pageopacity="0.0"
     inkscape:pageshadow="2"
     inkscape:zoom="0.9899495"
     inkscape:cx="108.66213"
     inkscape:cy="237.88894"
     inkscape:document-units="px"
     inkscape:current-layer="layer1"
     showgrid="false"
     fit-margin-top="0"
     fit-margin-left="0"
     fit-margin-right="0"
     fit-margin-bottom="0"
     inkscape:window-width="1366"
     inkscape:window-height="715"
     inkscape:window-x="-8"
     inkscape:window-y="-8"
     inkscape:window-maximized="1" />
  <metadata
     id="metadata4954">
    <rdf:RDF>
      <cc:Work
         rdf:about="">
        <dc:format>image/svg+xml</dc:format>
        <dc:type
           rdf:resource="http://purl.org/dc/dcmitype/StillImage" />
        <dc:title />
      </cc:Work>
    </rdf:RDF>
  </metadata>
  <g
     inkscape:label="Layer 1"
     inkscape:groupmode="layer"
     id="layer1"
     transform="translate(-19.70295,-191.99774)">
    <rect
       style="fill:#ffffff"
       y="191.99774"
       x="19.70295"
       id="rect6"
       height="403.61493"
       width="707.88055" />
    <path
       inkscape:connector-curvature="0"
       style="fill:#ffffff"
       id="path684"
       d="" />
    <g
       id="g6792">
      <path
         d="m 606.67349,446.36161 c -11.29989,-1.83293 -8.10172,-10.61648 -12.2321,-19.1906 -2.50216,-5.20274 -6.72545,-3.25959 -10.58341,-6.41997 -16.8585,-13.82882 10.98496,-29.48111 21.60301,-34.19255 12.04314,-5.34288 24.76338,-9.75671 37.97808,-10.80859 4.428,-0.35115 16.43649,-2.10849 15.68694,5.67829 -0.61727,6.41524 -15.20036,11.92503 -19.73229,15.4964 -2.95724,2.3258 -5.41374,5.10196 -8.78512,6.8719 7.56317,-3.96977 24.55867,-18.64104 33.55953,-15.17832 9.2906,3.57452 -0.69916,16.20186 -3.83591,20.88653 -8.82607,13.18005 -18.32925,25.54127 -32.74858,32.92336 -6.79788,3.48004 -13.1958,5.124 -20.74481,3.95874 -0.0551,-0.006 -0.1118,-0.0157 -0.16534,-0.0252 z"
         id="path8"
         style="fill:#ffff00;stroke:#000000;stroke-width:1.39217281"
         inkscape:connector-curvature="0" />
      <path
         inkscape:connector-curvature="0"
         style="fill:#ef9c22;stroke:#000000;stroke-width:0.69616508"
         id="path12"
         d="m 225.06762,377.39701 c 5.24683,-0.14802 9.71104,-4.88307 15.8082,-5.1051 5.23895,-0.19054 11.83055,-0.89127 16.65536,-3.31313 3.80757,-1.91165 5.06574,-4.23745 9.62129,-4.93346 4.22958,-0.64562 8.78827,0.0157 13.00841,-0.43146 -2.49901,0.26297 -10.23383,-5.4909 -13.16431,-6.55539 -5.56018,-2.01873 -11.73135,-3.48791 -17.62222,-2.11164 -10.41964,2.43288 -21.65654,11.85575 -24.30673,22.45018 z" />
      <path
         inkscape:connector-curvature="0"
         style="fill:#ef9c22;stroke:#000000;stroke-width:0.69616508"
         id="path14"
         d="m 526.86409,432.03204 c -4.69726,-4.70986 -13.64301,-3.11157 -17.4616,-7.96787 -4.37761,-5.56177 -3.22022,-15.68852 -7.45925,-22.2817 -2.14786,-3.33674 -4.1792,-6.06723 -7.16321,-8.75205 -3.88945,-3.50051 -3.74773,-1.89119 -3.67372,-7.67971 0.18581,-13.97841 -7.71593,-25.39325 -22.20139,-28.43396 -6.15384,-1.29123 -9.23391,-1.6849 -14.03038,-5.41374 -6.84827,-5.32399 -13.47767,-5.16179 -21.54317,-7.8419 -19.19374,-6.37744 -38.90084,-16.19083 -58.8898,-16.67584 -8.87961,-0.2173 -23.62332,5.261 -31.90455,1.86285 -6.57428,-2.69742 -5.16809,-6.9774 -13.5816,-5.21061 -11.50302,2.41713 -24.92715,3.09267 -33.84297,-5.95228 -8.88276,-9.01346 -5.79797,-18.86937 4.38862,-24.7067 26.94747,-15.43499 46.82148,-2.72577 71.25575,10.48263 7.08763,3.83277 14.27288,4.6642 22.10218,6.2436 7.82143,1.5794 15.48853,2.49586 23.08478,4.89882 6.71285,2.12424 13.15329,2.65806 19.51971,5.54444 6.06881,2.74939 12.4746,4.99016 18.98117,6.43729 21.75575,4.84528 38.04421,20.04407 52.88713,36.24436 11.7156,12.78323 28.71425,33.64614 27.6167,51.70927 -0.48973,8.07967 0.55271,12.20848 3.4265,19.33547 1.2314,3.0596 2.73679,8.16943 -1.21408,9.26226 -4.95866,1.37154 -7.61672,-8.41981 -10.29682,-11.10463 z" />
      <path
         inkscape:connector-curvature="0"
         style="fill:#f2ca20;stroke:#000000;stroke-width:0.69616508"
         id="path16"
         d="m 460.11979,348.23555 c 15.3106,-8.52688 31.91715,-18.89613 46.61047,-4.03747 6.06566,6.13337 12.17226,12.35492 17.09155,19.47719 4.29258,6.21683 5.90505,12.6856 8.8371,19.35752 3.03755,6.90338 5.10195,11.75339 5.3539,19.58111 0.21258,6.70026 -0.5039,13.50444 0.759,20.13226 1.13219,5.90977 5.59955,13.3265 5.04211,19.24414 -6.54908,1.93056 -8.52215,-4.53192 -10.02754,-9.24966 -2.22187,-6.96952 -4.34769,-14.0225 -9.50004,-19.44727 -5.7397,-6.04361 -13.1706,-7.1884 -21.6219,-6.48295 -25.34129,2.12267 -52.83674,9.05125 -72.25567,26.48451 -11.9644,10.73773 -20.65977,24.65158 -33.55323,34.42403 -5.7712,4.37446 -11.00228,8.58515 -17.81276,10.79284 -12.80213,4.14613 -30.63221,4.13983 -39.85195,-6.75221 -5.44681,-6.43414 -8.31902,-15.48381 -10.97236,-23.44538 -5.56648,-16.71678 -6.23729,-34.53111 -14.55474,-50.36293 -7.42776,-14.14375 -18.11667,-27.27027 -32.78795,-34.25082 -15.00983,-7.13959 -27.28916,-12.12187 -41.03768,0.22833 -3.6501,3.27533 -7.96472,10.1551 -12.26201,12.12187 -6.64357,3.03756 -5.87985,-3.83749 -5.6531,-9.89527 0.93379,-25.09407 26.24044,-28.88904 39.39057,-46.53803 2.93205,-3.9367 3.67845,-8.80245 5.77592,-12.81946 6.10975,-11.70615 22.11005,-16.65064 34.25082,-18.34027 14.7626,-2.05495 28.58827,9.39925 37.17184,20.50073 9.61499,12.43366 13.08558,29.02761 15.94047,44.08154 2.19825,11.58175 2.91158,23.19343 5.16337,34.54213 1.81875,9.18352 3.4202,21.18572 2.73364,30.51568 -0.24565,-10.9944 -1.15109,-21.76047 -1.96835,-32.65409 -1.09125,-14.58152 -0.33226,-29.87007 -3.59656,-44.16342 -3.25014,-14.22092 -10.50783,-27.7474 -19.15911,-39.40002 -4.07999,-5.49405 -14.73741,-14.31067 -21.79984,-14.22249 2.13369,-9.37878 20.33539,-8.00408 26.85928,-6.24044 27.00258,7.3002 46.73329,28.00722 75.91522,29.14098 14.46027,0.56216 32.06044,-6.32705 45.28144,1.04087 3.94457,2.19667 7.14904,5.70191 10.91252,8.1836 3.10841,2.05023 10.28894,5.58853 9.73938,10.2417 -0.58735,4.98701 -12.37697,9.21029 -16.11683,11.22588 -7.51751,4.0485 -14.0603,9.41658 -20.97156,14.37681 -17.13564,12.29036 -33.85872,30.11887 -46.38686,47.0372 2.0644,-5.96802 9.13628,-12.40846 13.43515,-16.90416 8.00252,-8.37571 17.22698,-16.82386 26.15383,-24.25162 6.04676,-5.03267 12.59585,-9.44492 19.47246,-13.27296 z" />
      <path
         inkscape:connector-curvature="0"
         style="fill:#e5ab05"
         id="path18"
         d="m 330.17265,418.87403 c 4.74923,11.17549 8.89378,22.31948 12.74702,33.79889 1.5605,4.64844 3.21706,16.51049 10.67946,14.49805 0.46768,-5.28146 -2.38248,-11.9581 -3.74301,-17.20493 -2.97456,-11.48097 -3.92409,-23.34617 -4.29887,-35.25074 -0.074,9.31422 4.79962,20.42043 8.20093,28.91424 1.56995,3.92252 2.78403,9.69687 5.8389,12.19273 -0.0331,-5.66254 -1.07235,-11.44161 -0.8519,-17.19706 5.02637,2.42658 9.55042,8.98669 15.33106,5.29722 5.01063,-3.19817 8.21038,-13.07613 10.60546,-18.24422 -4.71616,9.37091 -12.06991,18.37334 -14.3091,29.15516 2.88009,0.59838 3.5446,-2.22344 5.47831,-4.04062 6.231,-5.8578 11.93763,-11.78017 17.42696,-18.34972 11.29674,-13.52019 25.10824,-22.43601 37.41907,-34.50119 -4.49571,5.71293 -10.49523,10.06061 -15.7704,15.01455 -6.50342,6.11447 -12.07621,13.15643 -17.94818,19.87401 -6.49397,7.42933 -11.61482,16.09478 -18.25682,23.34932 13.84457,-7.37264 25.13974,-22.77456 37.37813,-32.83833 8.46547,-6.95693 19.66931,-15.67119 30.03384,-19.40003 -15.59561,12.82732 -29.97872,26.48923 -44.93029,39.99209 -7.75214,7.00417 -16.43806,11.766 -24.73976,17.93873 -3.17455,2.35887 -8.14266,5.55704 -9.92362,9.204 10.69363,-5.85151 20.70386,-10.68104 30.11886,-18.8237 12.65569,-10.95189 24.24532,-23.50994 38.27885,-32.79897 15.82078,-10.47948 33.20838,-17.01912 51.62424,-21.34476 6.36957,-1.49752 13.88865,-4.67049 20.56529,-3.89418 -6.92386,-2.8045 -21.35578,-0.63774 -28.83078,0.42202 -7.67813,1.09125 -15.80347,3.99338 -23.55088,3.53357 16.12942,-10.1488 34.63976,-20.03462 53.34694,-24.25004 -20.10392,7.89544 -41.28491,13.04936 -61.26915,21.3857 -11.96125,4.99173 -22.19666,13.59105 -32.83046,20.4283 17.55766,-16.83646 36.85219,-33.70598 58.5481,-45.00744 11.492,-5.98535 20.92432,-11.05739 33.82251,-11.33926 -22.29744,-0.30076 -45.14759,11.91559 -63.206,23.73197 -16.72622,10.94401 -38.81423,24.2343 -49.78344,41.61874 8.22297,-11.13455 15.78772,-22.32578 25.48931,-32.48403 6.90654,-7.23092 14.99409,-12.79583 22.40137,-19.37484 -14.60356,10.93142 -26.68607,23.99179 -40.17003,36.11996 -4.36186,3.9241 -13.62097,8.95992 -12.54861,-0.80151 0.74797,-6.82938 7.87496,-16.46483 11.21171,-22.27697 6.33178,-11.03061 15.00668,-21.62662 23.74929,-30.85108 9.21344,-9.72364 19.33862,-20.10864 30.61804,-27.32067 -16.97188,6.26092 -32.97218,24.91928 -43.67842,38.81424 -7.97417,10.35036 -14.94054,21.80929 -21.94156,32.35648 -0.21416,-4.60751 1.97464,-8.94102 3.76663,-13.14226 3.72569,-8.73474 6.21525,-17.7482 8.97094,-26.82306 3.63278,-11.95338 6.49239,-25.49876 11.06998,-36.82857 -0.56688,5.99795 -5.77277,12.36909 -7.85292,18.11667 -3.67844,10.15825 -7.22147,20.07399 -10.2669,30.43222 -4.80906,16.36091 -11.19281,32.24468 -15.86488,48.59929 2.99347,-35.0728 9.34099,-75.62391 -2.27383,-109.19604 6.13809,20.95739 9.21344,44.75234 6.81521,66.68446 -0.84403,7.71434 -2.58248,15.63812 -4.4028,23.16508 -0.68656,2.82813 -0.896,5.65782 -2.98402,7.6183 -2.47697,-34.33428 -3.58239,-67.72533 -16.71363,-100.05504 3.2832,10.24013 7.72852,19.90078 10.04645,30.70937 3.41547,15.91842 3.1336,32.49663 1.73529,48.62763 -1.30856,15.09486 -3.86583,30.08737 -7.3191,44.58385 -0.63302,0.0268 -1.21565,0.0504 -1.85182,0.0268 -3.66743,-7.03251 -4.23904,-14.79724 -6.19636,-22.51317 -3.69262,-14.55789 -7.04196,-30.24326 -14.26343,-43.56818 4.35083,14.55317 10.2417,31.61795 9.32839,46.96949 -2.71947,-4.17447 -3.85954,-9.61499 -5.05944,-14.50593 -2.48957,-10.174 -6.32863,-18.6127 -11.21171,-27.86865 -8.96936,-17.00338 -21.9825,-42.02343 -41.23451,-49.44804 12.75804,11.38177 24.31775,29.12839 31.75495,44.27837 9.23549,18.80638 15.75308,37.35293 19.0536,57.86941 -11.7282,-21.31484 -22.56513,-45.10192 -37.56394,-64.56337 -6.3428,-8.22611 -13.70757,-17.5734 -22.77614,-23.00919 -2.96197,-1.77624 -11.41641,-6.79789 -14.49019,-5.18069 5.74128,2.40611 9.71419,6.22155 13.68868,10.72828 -5.45311,0.37162 -11.14085,-1.12117 -16.69001,-0.0976 -4.58231,0.84403 -9.06385,3.51468 -13.44618,4.92874 7.74427,-2.95724 17.75765,-3.047 25.75229,-0.97158 6.46562,1.67704 13.33909,7.98047 18.05525,12.62262 16.88685,16.61443 25.02321,40.42198 34.09178,61.76517 z" />
      <path
         d="m 343.37003,458.43466 c -0.79679,-0.81726 -1.53846,-1.60617 -2.06756,-2.38564 -3.0407,-4.49413 -5.33658,-9.79607 -6.84197,-14.9925 -4.66105,-16.07746 -5.54917,-36.19398 -3.89733,-52.82887 1.67861,-16.87897 5.7523,-34.89172 16.55144,-48.43552 1.74947,2.63286 -2.27069,8.25761 -3.65168,11.2558 -2.6801,5.82001 -5.10668,11.71245 -6.61207,18.06155 -3.83592,16.17195 -4.45004,34.69331 -2.05181,51.01169 2.03921,13.85874 3.90363,26.63726 16.56876,34.88857 -7.24981,-4.72246 -8.11903,-17.92299 -7.49546,-25.57907 1.1133,-13.67135 10.0055,-27.32539 18.60954,-37.62378 9.4213,-11.27942 16.7593,-25.22476 22.33208,-38.97328 2.19353,-5.40587 5.94441,-12.03369 5.09881,-18.07573 -0.72908,-5.2232 -5.45468,-10.35035 -2.43445,-15.93416 4.24061,-7.84032 5.6216,-0.32911 8.70482,0.91804 3.16195,1.28178 6.48925,-3.2155 10.04172,0.20785 5.88772,5.67357 -5.22163,17.50097 -7.51279,22.58246 -1.9337,4.29887 -4.34611,8.31902 -5.45626,13.08085 -2.59034,11.12195 -2.60294,23.72725 -0.82198,35.00351 1.98724,12.59113 5.13345,24.51931 4.21699,37.48049 -0.48658,6.83725 -2.24707,13.01943 -5.90977,18.86306 -2.98401,4.75553 -7.5805,8.05133 -10.81804,12.50295 6.40579,3.55247 15.10116,-7.69703 18.8615,-11.53767 8.57727,-8.76466 12.93125,-18.97644 16.37192,-30.76448 3.70049,-12.64624 2.60609,-24.90983 3.81387,-37.62378 0.6283,-6.63884 2.27384,-21.83921 8.94732,-25.45939 -0.31336,5.19643 -3.39343,10.26847 -4.76812,15.36098 -2.30533,8.52688 -2.55413,18.50876 -2.94308,27.35845 -0.73537,16.79237 -1.90693,29.37877 -10.44326,44.0091 -4.90355,8.40563 -15.18304,21.76205 -24.00754,25.83102 -3.43122,1.58255 -14.87756,1.01567 -12.41476,5.86567 0.76057,1.49752 2.3132,1.60932 2.02504,3.40131 -0.42674,2.66435 -5.38225,2.96039 -5.95071,5.44681 -1.13062,4.96338 7.48602,3.06432 10.07164,2.21085 11.84472,-3.90993 22.53364,-11.29359 31.04162,-20.3102 7.20258,-7.62774 15.99086,-16.62072 27.36318,-16.19084 -9.7693,3.184 -15.12321,9.93307 -21.16524,17.7545 -3.11787,4.04062 -6.33493,8.09384 -9.8071,11.64159 -7.54271,7.70805 -18.64733,9.40083 -27.99777,13.9422 -4.64215,2.25336 -7.07188,5.80269 -10.96291,8.28753 -2.78875,1.77781 -7.50334,1.96835 -8.38831,5.75702 -0.98417,4.20124 2.1888,8.60089 0.63302,13.5879 -2.2943,7.34429 -3.81544,14.94841 -6.55381,22.14942 -2.27068,5.96802 -6.66403,11.90928 -8.13321,18.08832 -0.68183,2.86749 1.06763,8.62766 -2.27541,9.18352 -6.32233,1.04716 -15.59876,-12.95645 -18.61269,-17.17658 -8.03716,-11.25738 1.29596,-19.4646 4.6516,-30.89676 1.32588,-4.51303 1.54161,-9.09849 3.98393,-13.26824 2.12267,-3.62175 7.612,-4.05952 8.87804,-6.80103 2.05653,-4.45476 -9.98819,-16.36563 -12.18958,-20.08817 -2.28644,-3.87055 -4.36974,-8.6308 -6.39162,-12.75961 -4.03433,-8.24659 -3.73356,-18.9355 -6.04047,-27.78204 -2.10219,-8.06865 -1.1999,-17.27264 -7.75371,-23.5808 12.57065,12.09825 13.08242,26.00895 17.44743,41.82344 1.51012,5.46098 3.83592,10.59601 7.38839,14.92007 1.74474,2.12582 6.72545,7.67971 9.89842,5.0311 2.99662,-2.49901 -1.34635,-4.52405 -1.23297,-7.29706 0.13542,-3.33517 2.02031,-1.67388 4.46579,-2.85174 0.78891,-3.26116 -2.02346,-5.89087 -4.36343,-8.29068 z"
         id="path24"
         style="fill:#00a33d;stroke:#000000;stroke-width:0.69616508"
         inkscape:connector-curvature="0" />
      <path
         d="m 360.44741,333.16431 c 1.51484,-4.23588 5.01377,-15.39563 -2.10377,-14.5642 -6.33336,0.73853 -12.56751,8.23557 -15.0555,13.64931 -1.0692,2.3258 -2.65648,6.46091 -1.40146,8.80245 1.13849,2.12897 3.78238,2.91473 5.36965,0.97788 -0.33226,4.91614 3.12731,5.59168 6.59003,2.74781 3.51153,-2.88481 5.13817,-7.51909 6.60105,-11.61325 z"
         id="path26"
         style="fill:#ffff00;stroke:#000000;stroke-width:0.69616508"
         inkscape:connector-curvature="0" />
      <path
         d="m 433.20068,355.00194 c 1.05818,-5.23895 1.80143,-21.94313 -7.97417,-15.33421 -4.64058,3.13676 -10.35666,14.36579 -9.204,20.07242 1.02197,5.06889 6.26565,3.66113 9.2103,1.30226 -0.31494,2.7793 1.70537,4.4154 3.90992,3.32887 2.72419,-1.3432 3.54145,-6.80419 4.05795,-9.36934 z"
         id="path28"
         style="fill:#ffff00;stroke:#000000;stroke-width:0.69616508"
         inkscape:connector-curvature="0" />
      <path
         d="m 391.43549,325.27517 c 2.35887,-2.1888 4.77285,-4.92086 7.87654,-4.16187 2.68325,0.65507 3.73356,3.86111 6.04362,4.6264"
         id="path30"
         style="fill:none;stroke:#000000;stroke-width:0.69616508"
         inkscape:connector-curvature="0" />
      <path
         d="m 348.90029,476.17183 c -3.78552,5.21534 -5.7397,4.28628 -10.09998,1.41091 -2.53208,-1.66758 -7.13329,-7.62144 -7.53326,-1.41878 -0.46768,7.24824 11.44633,12.16754 14.1847,18.20485 1.98724,4.38863 1.01567,6.54279 -2.64074,9.66852 -7.6671,6.55696 -18.45994,22.67379 -15.25233,33.32176 1.88489,6.25935 9.90945,10.08581 15.66648,6.53649 7.2939,-4.49728 12.26044,-19.96377 13.63356,-27.89069 1.00622,-5.78222 -5.31612,-12.77537 -0.20471,-17.67576 2.40611,-2.30691 8.0403,-3.14306 11.08573,-5.02008 4.08157,-2.51791 7.79151,-5.42634 12.53286,-6.65301 4.70829,-1.22038 9.9252,-1.80773 12.9785,-5.83733 -2.52421,-0.44406 -32.40845,12.7171 -26.29397,0.4976 0.89914,-1.80301 3.41862,-2.93048 3.04542,-5.23266 -0.44563,-2.74781 -3.9115,-2.09117 -2.26123,-5.21848 1.59829,-3.02811 6.39004,-4.63113 9.46696,-5.37753 0.88024,-0.21258 8.8985,-3.13518 8.16155,-3.35721 -5.39012,-1.61089 -14.8933,2.29903 -6.00109,-5.88615 13.9233,-12.81787 15.41452,-29.62284 14.10281,-47.46551 -0.56846,-7.66868 -2.54468,-15.32004 -3.96504,-22.82181 -0.88654,-4.66104 -3.62963,-11.98645 -9.56144,-8.1584 -5.39327,3.48003 -10.1488,8.59774 -14.46814,13.31705 -13.23045,14.46184 -25.6704,39.11027 -16.0255,58.46621 1.25345,2.51319 5.24998,6.01055 4.77442,8.78198 -2.16675,-0.30706 -11.29673,-3.63593 -10.81488,-6.63569 -0.85348,5.09408 4.71458,8.55837 7.00102,12.37854 2.52263,4.21069 1.19518,8.33477 -1.5117,12.06518 z"
         id="path32"
         style="fill:#16c14f"
         inkscape:connector-curvature="0" />
      <path
         d="m 363.33852,449.51569 c 0.45035,-1.22038 3.33989,-12.21793 2.68797,-12.35808 -0.12912,-0.0268 -0.25667,-0.0535 -0.38265,-0.0787 0.0567,-0.70546 0.0535,-1.45028 -0.46138,-1.79671 -0.29604,1.31643 -2.19825,4.26738 -3.94929,3.44067 -1.90063,-0.90229 -0.833,-5.50664 -0.23463,-6.88134 1.06764,-2.46279 5.76805,-7.22777 6.69081,-2.21872 0.49288,-2.01401 1.25817,-3.89418 1.68491,-5.95701 0.25352,-1.23927 0.85032,-2.71317 0.18266,-3.73986 -0.3795,-0.58735 -1.67073,0.622 -1.39044,-1.0629 -0.85978,1.181 -1.64239,4.67521 -3.72726,3.94929 -2.5809,-0.89914 -1.62665,-5.39327 -0.68656,-6.99945 1.60774,-2.74781 6.69395,-3.9918 6.94748,0.35431 0.56688,-1.45973 0.71647,-2.98402 1.16526,-4.51303 0.41886,-1.43611 1.36052,-3.16195 1.11644,-4.67364 -0.22518,0.22203 -0.66766,0.35745 -0.90229,0.5842 0.64405,-3.5383 -1.50854,-0.86922 -2.70844,0.0835 -1.94473,1.53846 -4.12251,0.58263 -3.72412,-2.26911 0.31651,-2.25966 2.4502,-5.20746 4.83112,-5.56649 1.77781,-0.26769 2.91787,1.02354 4.22013,1.9463 2.44863,-0.89599 2.45335,-5.93811 3.184,-7.98046 0.8519,-2.37147 1.07236,-4.2721 0.92276,-6.71915 -0.13857,-2.29588 -0.51019,-1.866 -2.3195,-0.49918 -4.99803,3.77608 -8.65285,8.19935 -12.52341,13.1155 -3.7871,4.81694 -7.22935,9.90944 -9.49846,15.63025 -3.19187,8.0466 -5.67041,17.0947 -4.23273,25.75543 0.65349,3.94772 1.82347,10.69521 5.56333,12.71395 4.30045,2.3132 5.96331,0.009 7.54429,-4.2595 z"
         id="path34"
         style="fill:#07772d"
         inkscape:connector-curvature="0" />
      <path
         d="m 381.29772,449.44483 c -2.1951,2.56357 -11.20069,9.38193 -12.44468,2.25808 -0.22361,-1.27234 -0.29604,-5.49562 1.32588,-6.00739 1.11644,-0.35273 1.90378,1.39831 2.95882,1.60617 1.62821,0.32281 2.42185,-0.93064 2.91945,-2.34312 0.72593,-2.0644 0.2173,-9.94094 -3.68947,-8.09385 -0.19054,-2.63128 -0.25825,-7.65136 1.54003,-9.6512 0.75742,1.30384 -0.21258,3.29265 0.79837,4.58861 1.43768,1.8471 2.95252,0.45036 3.71309,-1.18573 0.7275,-1.55735 0.45508,-8.75521 -2.80136,-7.20415 0.17637,-2.16518 -0.63302,-7.85922 2.4691,-8.31587 0.61097,1.42193 0.61885,4.83741 3.06117,3.23281 1.56523,-1.02826 1.77309,-5.28777 1.34478,-6.92858 -0.16692,-0.66924 -0.7275,-1.78096 -1.29281,-2.19825 -1.25187,-0.91961 -2.38406,-0.3795 -2.90371,-2.27699 -0.37635,-1.38571 0.34171,-2.09432 0.72908,-3.27533 1.0881,-3.31312 1.29753,-6.83882 2.55727,-10.13935 0.60626,-1.58255 2.36202,-9.85276 3.95402,-5.09251 2.55098,7.62144 4.56499,14.4398 5.17754,22.44389 0.53224,6.88921 0.50232,12.8163 -0.91961,19.60316 -0.54484,2.59035 -1.06763,5.31769 -2.08487,7.77576 -0.88655,2.13999 -1.8597,4.53822 -3.0722,6.53649 -0.91804,1.50539 -2.04393,3.15093 -3.33989,4.66735 z"
         id="path36"
         style="fill:#07772d"
         inkscape:connector-curvature="0" />
      <path
         d="m 429.60411,358.31979 c 1.46603,-3.72254 1.9652,-9.41027 1.74002,-13.55325 -0.30234,-5.53342 -2.87221,-6.1255 -5.82001,-1.39202 -2.19667,3.53043 -4.96811,9.55042 -3.8863,13.81623 1.09282,4.31619 6.1003,5.89244 7.96629,1.12904 z"
         id="path38"
         style="fill:#ffbf00;stroke:#000000;stroke-width:0.69616508"
         inkscape:connector-curvature="0" />
      <path
         d="m 350.25137,341.21406 c 2.04236,-0.55271 3.70207,-2.78403 4.77757,-4.44531 1.98409,-3.06275 6.41051,-10.22124 4.27053,-13.94535 -2.26596,-3.94142 -7.31911,1.37627 -8.92843,3.27691 -2.05653,2.42815 -4.10046,5.29091 -4.66262,8.49223 -0.55586,3.16668 0.2425,7.78836 4.54295,6.62152 z"
         id="path40"
         style="fill:#ffff00;stroke:#000000;stroke-width:0.69616508"
         inkscape:connector-curvature="0" />
      <circle
         style="fill:#ffff00;stroke:#ff7f00;stroke-width:0.69616508"
         id="circle42"
         r="0.86922216"
         cy="349.46539"
         cx="425.95087" />
      <ellipse
         style="fill:#ffff00;stroke:#ff7f00;stroke-width:0.69616508"
         id="ellipse44"
         ry="0.95740414"
         rx="0.78418958"
         cy="348.50797"
         cx="429.51752" />
      <circle
         style="fill:#ffff00;stroke:#ff7f00;stroke-width:0.69616508"
         id="circle46"
         r="0.9558295"
         cy="345.76645"
         cx="427.56018" />
      <ellipse
         style="fill:#ffff00;stroke:#ff7f00;stroke-width:0.69616508"
         id="ellipse48"
         ry="1.0440115"
         rx="0.86922216"
         cy="353.11862"
         cx="427.86407" />
      <ellipse
         style="fill:#ffff00;stroke:#ff7f00;stroke-width:0.69616508"
         id="ellipse50"
         ry="0.82670587"
         rx="0.92433596"
         cy="354.98935"
         cx="425.2879" />
      <path
         inkscape:connector-curvature="0"
         style="fill:#ffff00;stroke:#ff7f00;stroke-width:0.69616508"
         id="path52"
         d="m 429.08762,358.23948 c 0,0.6157 -0.54327,1.11645 -1.22038,1.11645 -0.67396,0 -1.21722,-0.50075 -1.21722,-1.11645 0,-0.61727 0.54483,-1.11645 1.21722,-1.11645 0.67711,0 1.22038,0.49918 1.22038,1.11645 z" />
      <circle
         style="fill:#ffff00;stroke:#ff7f00;stroke-width:0.69616508"
         id="circle54"
         r="0.88496894"
         cy="352.70291"
         cx="423.55264" />
      <ellipse
         style="fill:#ffff00;stroke:#ff7f00;stroke-width:0.69616508"
         id="ellipse56"
         ry="1.0361381"
         rx="0.80466038"
         cy="343.03281"
         cx="429.32227" />
      <ellipse
         style="fill:#ffff00;stroke:#ff7f00;stroke-width:0.69616508"
         id="ellipse58"
         ry="0.95740414"
         rx="0.97315091"
         cy="358.94809"
         cx="424.31317" />
      <line
         style="fill:none;stroke:#ff0000;stroke-width:1.39217281"
         id="line198"
         y2="441.21085"
         x2="320.44049"
         y1="428.29846"
         x1="284.15894" />
      <ellipse
         style="fill:#bf0000"
         id="ellipse200"
         ry="1.4915712"
         rx="1.7604555"
         cy="-537.04114"
         cx="-54.16325"
         transform="matrix(-0.91013726,0.41430685,-0.50493245,-0.86315886,0,0)" />
      <line
         x1="288.43423"
         y1="409.53934"
         x2="319.67899"
         y2="405.68768"
         id="line202"
         style="fill:none;stroke:#ff0000;stroke-width:1.39217281" />
      <ellipse
         transform="matrix(0.26639039,0.96386522,-0.96386522,0.26639039,0,0)"
         cx="475.88022"
         cy="-200.08066"
         rx="1.8093703"
         ry="1.5054463"
         id="ellipse204"
         style="fill:#bf0000" />
      <line
         style="fill:none;stroke:#ff0000;stroke-width:1.39217281"
         id="line208"
         y2="524.81995"
         x2="343.64087"
         y1="551.50757"
         x1="371.48117" />
      <ellipse
         style="fill:#bf0000"
         id="ellipse210"
         ry="1.447129"
         rx="1.5904247"
         cy="524.81995"
         cx="343.63773" />
      <ellipse
         cx="349.10342"
         cy="472.27451"
         rx="1.5904247"
         ry="1.4487036"
         id="ellipse212"
         style="fill:#bf0000" />
      <line
         style="fill:none;stroke:#ff0000;stroke-width:1.37510204"
         id="line216"
         y2="528.29169"
         x2="380.3884"
         y1="498.32718"
         x1="351.05994" />
      <ellipse
         style="fill:#bf0000"
         id="ellipse218"
         ry="1.447129"
         rx="1.5904247"
         cy="498.32913"
         cx="351.06232" />
      <line
         x1="398.39716"
         y1="501.61075"
         x2="361.27252"
         y2="464.48773"
         id="line220"
         style="fill:none;stroke:#ff0000;stroke-width:1.39217281" />
      <line
         x1="353.64636"
         y1="490.9187"
         x2="366.16193"
         y2="448.90314"
         id="line222"
         style="fill:none;stroke:#ccff00;stroke-width:0.69616508;stroke-dasharray:1.39217273" />
      <ellipse
         cx="361.27252"
         cy="464.48773"
         rx="1.5904247"
         ry="1.447129"
         id="ellipse224"
         style="fill:#bf0000" />
      <line
         x1="309.44989"
         y1="531.32019"
         x2="349.10501"
         y2="472.27451"
         id="line244"
         style="fill:none;stroke:#ff0000;stroke-width:1.39217281" />
      <path
         inkscape:connector-curvature="0"
         style="fill:#00a33d;stroke:#000000;stroke-width:1.00401461"
         id="path248"
         d="m 81.236545,349.52049 c 1.815603,6.23572 6.739621,11.3739 10.402322,16.64749 7.79623,11.21644 16.357753,22.00455 27.136423,30.33932 10.7456,8.31273 21.47703,16.80339 29.89526,27.57419 7.65923,9.79922 13.83827,20.97628 16.45224,33.2257 1.12904,5.29249 -3.0785,20.70072 1.61876,24.31303 7.02622,5.41217 11.06684,-37.1813 13.77371,-39.71968 -0.32596,0.30549 3.51153,11.29832 3.68632,12.85725 0.59838,5.34288 0.10078,9.44492 -1.48649,14.6571 -2.98874,9.81497 -10.31887,20.28343 -8.59774,30.97077 -7.14904,-2.24077 -8.28911,3.14778 -11.80694,7.5364 -1.01882,1.27234 -14.70119,14.83504 -12.89504,15.47436 -3.21706,-1.13691 -4.9807,-4.32721 -5.15864,-7.89228 -11.41327,-1.12905 -43.04067,3.96031 -49.169318,-9.92362 -4.851583,-10.99598 6.634118,-2.836 10.010228,-0.94323 8.10802,4.54294 22.52734,7.77576 30.96289,1.9274 -5.26572,-0.0488 -10.10471,-0.76057 -14.5516,-2.04236 -38.138697,-10.99597 -47.353712,-63.88625 -48.186716,-98.2599 -0.445634,-18.34657 -3.787101,-34.12642 -10.04802,-51.3345" />
      <path
         inkscape:connector-curvature="0"
         style="fill:#16c14f"
         id="path250"
         d="m 159.44922,451.25413 c -2.74939,-11.92031 -8.95992,-22.499 -18.04266,-30.5645 -5.609,-4.98543 -10.33618,-10.94243 -16.34673,-15.61923 -6.89394,-5.36965 -13.19423,-11.46208 -20.11493,-16.79709 -4.81222,-3.70836 -13.874492,-10.83221 -20.077148,-6.37902 -8.315874,5.97276 -6.895514,21.59829 -6.74592,30.55348 0.207857,12.52814 1.968347,25.07045 4.93819,37.23641 6.194783,25.35861 25.224768,55.62392 56.044358,47.2797 7.9474,-2.15258 14.88701,-7.15376 18.44578,-15.19879 4.41225,-9.96771 4.34296,-19.91495 1.89906,-30.51096 z" />
      <path
         inkscape:connector-curvature="0"
         style="fill:#07772d"
         id="path252"
         d="m 107.66909,484.48298 c 4.70514,3.97449 10.88732,9.49374 17.46475,9.53625 5.15077,0.0331 11.32508,-4.35556 9.88425,-10.04172 -1.37626,-5.42949 -6.03889,-12.01164 -9.10006,-16.66481 -0.0142,-0.0457 0.022,0.98417 0.0661,1.32587 -1.16212,-0.57475 -1.88962,-1.80143 -1.9652,-3.07534 2.55728,6.74277 -6.27509,7.65293 -9.46696,2.44232 -1.41879,-2.3132 -2.0959,-9.14887 0.69443,-10.87472 1.75419,-1.08653 4.23746,0.55743 5.78851,1.31328 -0.83143,-2.7053 -2.50846,-4.02803 -3.97921,-6.24045 -0.91331,-1.37469 -3.82017,-6.16171 -3.53987,-7.77733 -0.14802,0.85032 -0.51492,1.71325 -1.05504,2.35257 -0.74954,-0.88182 -1.0755,-2.13999 -1.40776,-3.36352 0.50705,3.18873 0.485,5.77907 -3.22022,6.46248 -3.20289,0.59051 -6.5853,-1.53216 -7.65608,-4.58389 -1.231397,-3.50995 0.55744,-8.4261 4.27998,-9.60553 2.21557,-0.70388 3.94299,0.55744 6.03574,1.23455 0.11652,0.14014 0.1055,0.15117 -0.0268,0.0252 -0.40942,-3.42335 -3.82805,-9.7756 -6.28769,-12.1077 0.022,0.64247 -0.29762,1.41564 -0.32439,1.95418 -0.65979,-0.97158 -1.03141,-2.12424 -1.15424,-3.29738 2.38722,7.93638 -9.237056,4.67207 -10.701506,-1.40461 -0.573183,-2.37146 0.03779,-6.01842 2.365166,-7.30493 1.546334,-0.85663 3.802847,-0.36375 5.522395,-0.4724 -0.500747,-3.99969 -3.585541,-8.59302 -5.454684,-12.14549 -1.49122,-2.83915 -6.060935,-14.83347 -10.288945,-9.70159 -3.440672,4.17447 -1.366821,13.39421 -0.974726,18.24579 0.357452,4.4091 -0.105503,8.90638 0.06771,13.39106 0.351153,9.14573 1.365246,18.26941 4.320916,26.97423 4.15715,12.24942 10.096835,24.93975 20.113364,33.40364 z" />
      <path
         inkscape:connector-curvature="0"
         style="fill:#07772d"
         id="path254"
         d="m 119.74057,406.75846 c -4.017,-3.10999 -7.71435,-7.02464 -11.89669,-10.13778 -2.8234,-2.10062 -5.33029,-4.59176 -8.133214,-6.71915 -1.05346,-0.80309 -5.111404,-4.18234 -6.5979,-3.73514 -2.612391,0.78104 -0.626722,5.56964 0.209432,7.30966 1.360521,2.82182 2.459647,5.83103 4.239033,8.4324 1.406187,2.05653 3.864259,3.16983 5.042119,5.28304 -1.44556,-6.16486 6.61522,-3.09581 9.03393,-1.20305 1.91638,1.50067 4.31146,3.97764 3.54932,6.67506 -1.09125,3.85481 -6.21683,3.35564 -8.18203,0.55901 0.137,0.45981 0.0205,0.95583 0.0992,1.37154 -0.70073,0.074 -2.3447,-0.30548 -2.51634,-1.24242 0.53854,2.94623 2.71317,4.84056 3.9115,7.43878 0.88655,1.92111 0.68499,3.70522 2.78088,4.92402 0.10551,-2.73049 2.9541,-3.85796 5.35076,-3.71152 4.40595,0.26612 7.30493,3.36667 8.63868,7.35217 0.78577,2.34628 1.08968,6.06094 -1.38256,7.55846 -2.81395,1.7038 -6.08456,-1.57468 -6.22156,-4.34139 1.20463,2.2077 -0.81253,4.15558 0.33698,6.78056 0.73066,1.66759 2.92103,6.46878 4.82954,6.97425 1.87229,0.49445 4.26265,-1.85497 6.28297,-2.03606 4.7571,-0.42673 8.51743,3.41233 8.7678,8.02614 0.34801,6.34595 -9.13943,8.63081 -8.71584,1.83607 -0.17479,1.04086 0.0268,2.09905 0.56531,2.98559 -0.18424,-0.14014 -0.90701,-0.38422 -1.19203,-0.61885 -0.34958,2.03291 1.01567,4.21227 2.01874,5.90032 3.51783,5.91449 7.60097,21.6597 16.63017,20.52278 9.92834,-1.2503 9.52838,-18.39066 8.35996,-25.41215 -3.43279,-20.63458 -19.84881,-38.43632 -35.77038,-50.7377 -0.011,-0.011 -0.0252,-0.0236 -0.0378,-0.0346 z" />
      <path
         d="m 444.01871,340.85031 c 2.77144,3.22179 4.56342,6.95693 5.41375,10.84481 0.25037,1.17471 0.42358,2.36517 0.50704,3.55877 0.0236,0.35903 74.61454,4.58861 118.03313,20.95109 l 2.02976,-5.92709 10.22439,12.83205 c 0,0 -16.67112,7.2451 -16.67112,7.30336 0,0.0882 2.15101,-6.75064 2.15101,-6.75064 -31.51875,-12.89504 -115.71835,-25.83574 -115.7404,-25.43105 -0.0709,1.44555 -0.26612,2.88481 -0.58735,4.30517 -1.14952,5.08306 -3.89261,9.86535 -8.15998,13.5375 -10.51098,9.03865 -26.29083,7.92221 -35.24917,-2.49271 -8.96149,-10.41492 -7.70805,-26.1869 2.79978,-35.22555 10.5094,-9.03865 26.28925,-7.9222 35.24916,2.49429 z m -33.36742,-0.33068 c -9.07802,7.80725 -10.10786,21.49593 -2.30061,30.57237 7.81356,9.07645 21.49908,10.10471 30.5771,2.29746 9.07802,-7.80883 10.10628,-21.4975 2.29903,-30.57395 -7.8104,-9.07802 -21.4975,-10.10786 -30.57552,-2.29588 z"
         id="path256"
         inkscape:connector-curvature="0" />
      <path
         d="m 357.93265,457.02218 c -3.85324,-1.78726 -7.02937,-4.44847 -9.40713,-7.64034 -0.71805,-0.96528 -1.3621,-1.97937 -1.93213,-3.03126 -0.17164,-0.31808 -87.75207,29.6134 -134.05705,32.65567 l 0.6031,6.23573 -14.61301,-7.4624 c 0,0 12.19115,-13.48712 12.16596,-13.53908 -0.0362,-0.0787 0.82828,7.03409 0.82828,7.03409 34.03351,-1.27707 133.96415,-27.24981 133.81613,-27.623 -0.53382,-1.34635 -0.94953,-2.73994 -1.24242,-4.16503 -1.05504,-5.1051 -0.53382,-10.59128 1.83765,-15.69954 5.83418,-12.57065 20.66135,-18.07415 33.1265,-12.29036 12.46357,5.78379 17.83952,20.66293 12.00534,33.23358 -5.83576,12.5738 -20.66292,18.0773 -33.13122,12.29194 z m 30.52985,-13.4824 c 5.03582,-10.86212 0.31809,-23.75401 -10.53932,-28.79141 -10.86055,-5.04054 -23.75244,-0.32281 -28.79141,10.53775 -5.04212,10.86213 -0.32123,23.75086 10.53617,28.79141 10.86213,5.04212 23.75402,0.32438 28.79456,-10.53775 z"
         id="path258"
         inkscape:connector-curvature="0" />
      <line
         x1="396.04456"
         y1="334.0304"
         x2="283.24094"
         y2="281.41409"
         id="line272"
         style="fill:none;stroke:#ff0000;stroke-width:1.39217281" />
      <line
         x1="388.38693"
         y1="359.58582"
         x2="255.48724"
         y2="293.38794"
         id="line274"
         style="fill:none;stroke:#ff0000;stroke-width:1.39217281" />
      <path
         d="m 548.52064,516.4458 c -3.0911,-12.05259 2.60294,-35.09013 4.43901,-40.41884 3.48319,-10.1047 8.51744,-20.62985 14.28233,-29.62914 6.49082,-10.13147 16.09006,-20.59048 25.16021,-28.50639 7.6923,-6.71128 17.1136,-10.56294 25.77747,-15.56884 8.10802,-4.68467 16.77662,-8.8182 25.68615,-11.74867 7.98204,-2.62499 14.29807,2.4502 5.50665,8.51586 -6.13652,4.23745 -13.06983,6.83252 -19.82205,9.74568 -16.53412,7.13171 -31.63055,16.67111 -43.57134,30.38341 -12.89031,14.79882 -21.57308,33.25562 -24.46104,52.684 -1.11645,7.50806 -0.55744,13.7674 0.006,21.1369"
         id="path334"
         style="fill:#00a33d;stroke:#000000;stroke-width:0.69616508"
         inkscape:connector-curvature="0" />
      <path
         d="m 637.97966,416.12307 c -0.0551,0.25352 -0.12597,0.50389 -0.20943,0.75427 -2.35887,6.96795 -18.45365,14.36736 -25.11769,16.60655 -10.32201,3.47374 -29.14413,5.94126 -28.52529,-10.1425 0.27242,-7.12384 6.8656,-14.86181 12.39587,-18.79693 4.96023,-3.532 11.12195,-7.5679 16.64749,-9.90315 6.231,-2.63129 9.24494,-0.16849 14.3343,3.98866 4.38232,3.58397 11.92661,11.00542 10.47475,17.4931 z"
         id="path336"
         style="fill:#ffff00;stroke:#000000;stroke-width:1.39217281"
         inkscape:connector-curvature="0" />
      <path
         d="m 625.13029,426.83717 c 0.24093,-0.10865 0.485,-0.2173 0.71805,-0.3291 4.60751,-2.20298 12.4935,-6.12865 11.78489,-12.3691 -0.49759,-4.40752 -4.12565,-9.72206 -7.39153,-12.63049 -0.87238,-0.77789 -1.82821,-1.52271 -2.70373,-2.26124 -2.78718,-2.34312 -8.43869,-7.52066 -12.44153,-4.57286 -1.51326,1.11645 -0.70703,2.39981 -1.19203,3.81229 -0.5905,1.73372 -2.85804,2.57775 -4.15715,3.71782 -1.64081,1.43925 -3.2832,2.7856 -5.07991,4.03117 -3.62491,2.50847 -7.55373,4.79017 -10.2732,8.34895 -2.41083,3.15408 -4.07526,7.66238 -3.14778,11.64946 0.7464,3.1903 4.00913,4.97441 6.87032,6.02472 2.44548,0.89757 4.87363,1.11015 7.41831,1.1007 7.41358,-0.0252 13.04936,-3.65483 19.59529,-6.52232 z"
         id="path353"
         style="fill:url(#linearGradient3344);stroke:#000000;stroke-width:0.3480038"
         inkscape:connector-curvature="0" />
      <path
         d="m 599.926,432.16431 c -2.08488,-0.20628 -4.0296,-0.94481 -5.66097,-2.49429 -7.47815,-7.08133 6.64829,-17.59703 11.99432,-20.38893 2.12897,-1.11172 4.37918,-1.96992 6.3617,-3.33359 1.3243,-0.91017 2.17463,-2.35729 3.58397,-3.25801 -0.73538,-1.39202 0.55586,-3.1903 1.83607,-3.69105 3.50996,-1.37154 6.68136,-0.0299 9.14888,2.58877 1.81245,1.92584 3.9052,3.98237 5.00118,6.43729 0.71018,1.59987 0.33698,3.32099 0.50862,4.98385 0.6157,5.89875 -2.56515,6.47508 -6.70341,9.53153 -2.98086,2.19825 -6.39004,3.77765 -9.79134,5.20431 -4.41068,1.84867 -10.82906,4.96023 -16.27902,4.42012 z"
         id="path362"
         style="fill:url(#linearGradient3341);stroke:#000000;stroke-width:0.3480038"
         inkscape:connector-curvature="0" />
      <path
         d="m 612.53602,418.28195 c -0.64877,2.3069 -3.13676,3.62491 -5.56491,2.94307 -2.42501,-0.67868 -3.86426,-3.10211 -3.21707,-5.41059 0.64562,-2.30848 3.13833,-3.62806 5.56491,-2.9478 2.42186,0.68341 3.86583,3.10684 3.21707,5.41532 z"
         id="path377"
         style="fill:url(#radialGradient3338);stroke:#000000;stroke-width:0.29430732"
         inkscape:connector-curvature="0" />
      <path
         d="m 613.77686,422.71624 c -0.64876,2.30691 -3.14148,3.62649 -5.56648,2.94465 -2.42501,-0.68026 -3.86741,-3.10211 -3.21707,-5.41059 0.64562,-2.30848 3.13676,-3.62649 5.56176,-2.94465 2.42501,0.67869 3.86584,3.10369 3.22179,5.41059 z"
         id="path392"
         style="fill:url(#radialGradient3335);stroke:#000000;stroke-width:0.29430732"
         inkscape:connector-curvature="0" />
      <path
         d="m 605.06575,422.74616 c -0.64562,2.30848 -3.13834,3.62806 -5.56492,2.9478 -2.42185,-0.68184 -3.86268,-3.10527 -3.21706,-5.41059 0.64876,-2.30848 3.1399,-3.62806 5.56648,-2.9478 2.42501,0.68183 3.86426,3.10369 3.2155,5.41059 z"
         id="path407"
         style="fill:url(#radialGradient3332);stroke:#000000;stroke-width:0.29430732"
         inkscape:connector-curvature="0" />
      <path
         d="m 607.58366,426.42933 c -0.6472,2.30848 -3.13991,3.62964 -5.56492,2.94623 -2.42343,-0.68027 -3.86583,-3.10212 -3.21706,-5.4106 0.64876,-2.30848 3.13833,-3.62806 5.56648,-2.94622 2.42343,0.68184 3.86269,3.10369 3.2155,5.41059 z"
         id="path422"
         style="fill:url(#radialGradient3329);stroke:#000000;stroke-width:0.29430732"
         inkscape:connector-curvature="0" />
      <path
         d="m 621.529,411.55808 c -0.64719,2.30847 -3.1399,3.62648 -5.56333,2.94779 -2.42501,-0.68183 -3.86584,-3.10369 -3.21865,-5.41059 0.64877,-2.30848 3.13991,-3.62806 5.56492,-2.94622 2.425,0.68026 3.86426,3.10369 3.21706,5.40902 z"
         id="path437"
         style="fill:url(#radialGradient3326);stroke:#000000;stroke-width:0.29430732"
         inkscape:connector-curvature="0" />
      <path
         d="m 620.63459,418.1481 c -0.65035,2.30848 -3.13834,3.62491 -5.56649,2.94622 -2.425,-0.68183 -3.86426,-3.10369 -3.21707,-5.41059 0.64877,-2.3069 3.14149,-3.62648 5.56334,-2.9478 2.42658,0.68184 3.86741,3.10369 3.22022,5.41217 z"
         id="path452"
         style="fill:url(#radialGradient3323);stroke:#000000;stroke-width:0.29430732"
         inkscape:connector-curvature="0" />
      <path
         d="m 632.62103,414.67279 c -0.65034,2.30848 -3.1399,3.62491 -5.56806,2.9478 -2.42343,-0.68184 -3.86426,-3.10527 -3.21706,-5.41375 0.64876,-2.30848 3.13833,-3.62491 5.56176,-2.94465 2.42973,0.67869 3.86898,3.1037 3.22336,5.4106 z"
         id="path467"
         style="fill:url(#radialGradient3320);stroke:#000000;stroke-width:0.29430732"
         inkscape:connector-curvature="0" />
      <path
         d="m 632.82574,404.8594 c -0.64404,2.3069 -3.13833,3.62805 -5.56491,2.94464 -2.42028,-0.68026 -3.86268,-3.10369 -3.21707,-5.41216 0.64877,-2.30533 3.13991,-3.62806 5.56492,-2.94623 2.425,0.68184 3.86426,3.10527 3.21706,5.41375 z"
         id="path482"
         style="fill:url(#radialGradient3317);stroke:#000000;stroke-width:0.29430732"
         inkscape:connector-curvature="0" />
      <path
         d="m 666.54747,410.66996 c -0.64877,2.30847 -3.13676,3.62648 -5.56649,2.94464 -2.42343,-0.68026 -3.86268,-3.10211 -3.21391,-5.41059 0.64561,-2.3069 3.13833,-3.62491 5.56176,-2.94622 2.425,0.68026 3.86583,3.10526 3.21864,5.41217 z"
         id="path497"
         style="fill:url(#radialGradient3314);stroke:#000000;stroke-width:0.29430732"
         inkscape:connector-curvature="0" />
      <path
         d="m 654.32954,423.00283 c -0.64876,2.30848 -3.14148,3.62806 -5.56491,2.9478 -2.425,-0.68183 -3.86583,-3.10211 -3.21864,-5.41059 0.64719,-2.30848 3.13991,-3.62649 5.56491,-2.9478 2.42501,0.68184 3.86741,3.10527 3.21864,5.41059 z"
         id="path512"
         style="fill:url(#radialGradient3311);stroke:#000000;stroke-width:0.29430732"
         inkscape:connector-curvature="0" />
      <path
         d="m 642.97612,411.33762 c -0.64877,2.30848 -3.14149,3.62648 -5.56649,2.94622 -2.42343,-0.68183 -3.86269,-3.10369 -3.21549,-5.41059 0.64876,-2.30848 3.13991,-3.62806 5.56333,-2.9478 2.42658,0.68184 3.86584,3.10369 3.21865,5.41217 z"
         id="path527"
         style="fill:url(#radialGradient3308);stroke:#000000;stroke-width:0.29430732"
         inkscape:connector-curvature="0" />
      <path
         d="m 627.45137,418.75278 c -0.6472,2.3069 -3.13676,3.62491 -5.56334,2.94622 -2.42658,-0.68026 -3.86583,-3.10369 -3.22022,-5.41217 0.64877,-2.30847 3.14149,-3.62648 5.56649,-2.94622 2.42658,0.68026 3.86426,3.10369 3.21707,5.41217 z"
         id="path542"
         style="fill:url(#radialGradient3305);stroke:#000000;stroke-width:0.29430732"
         inkscape:connector-curvature="0" />
      <path
         d="m 618.67884,423.51933 c -0.64562,2.3069 -3.13676,3.62648 -5.56177,2.94622 -2.42657,-0.68183 -3.86426,-3.10369 -3.21864,-5.41374 0.64719,-2.30533 3.13834,-3.62648 5.56334,-2.94465 2.42815,0.68184 3.86583,3.10369 3.21707,5.41217 z"
         id="path557"
         style="fill:url(#radialGradient3302);stroke:#000000;stroke-width:0.29430732"
         inkscape:connector-curvature="0" />
      <path
         d="m 608.56311,418.01111 c -0.64877,2.30847 -3.14149,3.62805 -5.56649,2.94622 -2.42343,-0.68184 -3.86426,-3.10212 -3.21549,-5.4106 0.64719,-2.3069 3.1399,-3.62648 5.56491,-2.94622 2.42343,0.68026 3.86268,3.10527 3.21707,5.4106 z"
         id="path572"
         style="fill:url(#radialGradient3299);stroke:#000000;stroke-width:0.29430732"
         inkscape:connector-curvature="0" />
      <path
         d="m 602.17621,427.0592 c -0.64877,2.30848 -3.13991,3.62491 -5.56491,2.94465 -2.425,-0.68026 -3.86426,-3.10369 -3.21864,-5.41059 0.65034,-2.30848 3.13833,-3.62648 5.56491,-2.94622 2.42815,0.68026 3.86583,3.10369 3.21864,5.41216 z"
         id="path587"
         style="fill:url(#radialGradient3296);stroke:#000000;stroke-width:0.29430732"
         inkscape:connector-curvature="0" />
      <path
         d="m 626.57112,405.20897 c -0.64877,2.30533 -3.13833,3.62491 -5.56176,2.94465 -2.42658,-0.68183 -3.86898,-3.10684 -3.21864,-5.41217 0.64562,-2.30847 3.14148,-3.62805 5.56333,-2.94779 2.42343,0.68341 3.86584,3.10369 3.21707,5.41531 z"
         id="path602"
         style="fill:url(#radialGradient3293);stroke:#000000;stroke-width:0.29430732"
         inkscape:connector-curvature="0" />
      <line
         x1="597.13568"
         y1="464.54285"
         x2="608.4718"
         y2="414.55154"
         id="line636"
         style="fill:none;stroke:#ff0000;stroke-width:1.39217281" />
      <line
         x1="241.52615"
         y1="309.82443"
         x2="337.25241"
         y2="361.20776"
         id="line638"
         style="fill:none;stroke:#ff0000;stroke-width:1.39217281" />
      <ellipse
         transform="matrix(0.26639039,0.96386522,-0.96386522,0.26639039,0,0)"
         cx="438.10629"
         cy="-228.30769"
         rx="1.8093703"
         ry="1.5038716"
         id="ellipse640"
         style="fill:#bf0000" />
      <line
         x1="600.43933"
         y1="356.827"
         x2="640.83142"
         y2="397.22064"
         id="line664"
         style="fill:none;stroke:#ff0000;stroke-width:1.39217281" />
      <ellipse
         transform="matrix(0.26669475,0.96378105,-0.96378105,0.26669475,0,0)"
         cx="553.7522"
         cy="-511.68448"
         rx="1.8109152"
         ry="1.503847"
         id="ellipse666"
         style="fill:#bf0000" />
      <path
         d="m 605.72711,451.32657 5.94441,5.94755 c 0,0 8.92527,6.27824 15.20037,0 6.27666,-6.27666 18.83472,-14.86968 18.83472,-14.86968 l 14.86811,4.29572 -3.96662,-13.21627 20.81567,-20.81567 c 0,0 9.25281,-6.60577 2.97614,-12.88559 -6.27981,-6.27824 -9.91417,-9.91259 -9.91417,-9.91259"
         id="path668"
         style="fill:none;stroke:#ff0000;stroke-width:1.39217281"
         inkscape:connector-curvature="0" />
      <polyline
         transform="matrix(1.5746779,0,0,1.5746779,47.987221,242.50538)"
         points="37.742,127.293 46.776,87.362 54.668,131.292   "
         id="polyline682"
         style="fill:none;stroke:#ff0000;stroke-width:0.88410002" />
      <polyline
         transform="matrix(1.5746779,0,0,1.5746779,47.987221,242.50538)"
         points="90.856,101.977 90.856,123.379 137.438,123.379   "
         id="polyline700"
         style="fill:none;stroke:#ff0000;stroke-width:1.25899994" />
      <text
         sodipodi:linespacing="100%"
         id="text6720"
         y="244.24017"
         x="330.31989"
         style="font-style:normal;font-variant:normal;font-weight:normal;font-stretch:normal;font-size:50px;line-height:100%;font-family:Arial;-inkscape-font-specification:'Arial, Normal';text-align:start;letter-spacing:0px;word-spacing:0px;writing-mode:lr-tb;text-anchor:start;fill:#000000;fill-opacity:1;stroke:none;stroke-width:1px;stroke-linecap:butt;stroke-linejoin:miter;stroke-opacity:1"
         xml:space="preserve"><tspan
           style="font-size:15px"
           y="244.24017"
           x="330.31989"
           id="tspan6722"
           sodipodi:role="line">Mature Flower </tspan></text>
      <text
         sodipodi:linespacing="100%"
         id="text6724"
         y="268.48383"
         x="236.3757"
         style="font-style:normal;font-variant:normal;font-weight:normal;font-stretch:normal;font-size:15px;line-height:100%;font-family:Arial;-inkscape-font-specification:'Arial, Normal';text-align:start;letter-spacing:0px;word-spacing:0px;writing-mode:lr-tb;text-anchor:start;fill:#000000;fill-opacity:1;stroke:none;stroke-width:1px;stroke-linecap:butt;stroke-linejoin:miter;stroke-opacity:1"
         xml:space="preserve"><tspan
           y="268.48383"
           x="236.3757"
           id="tspan6726"
           sodipodi:role="line">Stigma</tspan></text>
      <text
         sodipodi:linespacing="100%"
         id="text6728"
         y="288.68689"
         x="210.11172"
         style="font-style:normal;font-variant:normal;font-weight:normal;font-stretch:normal;font-size:15px;line-height:100%;font-family:Arial;-inkscape-font-specification:'Arial, Normal';text-align:start;letter-spacing:0px;word-spacing:0px;writing-mode:lr-tb;text-anchor:start;fill:#000000;fill-opacity:1;stroke:none;stroke-width:1px;stroke-linecap:butt;stroke-linejoin:miter;stroke-opacity:1"
         xml:space="preserve"><tspan
           y="288.68689"
           x="210.11172"
           id="tspan6730"
           sodipodi:role="line">Style</tspan></text>
      <text
         sodipodi:linespacing="100%"
         id="text6732"
         y="311.92038"
         x="176.77669"
         style="font-style:normal;font-variant:normal;font-weight:normal;font-stretch:normal;font-size:15px;line-height:100%;font-family:Arial;-inkscape-font-specification:'Arial, Normal';text-align:start;letter-spacing:0px;word-spacing:0px;writing-mode:lr-tb;text-anchor:start;fill:#000000;fill-opacity:1;stroke:none;stroke-width:1px;stroke-linecap:butt;stroke-linejoin:miter;stroke-opacity:1"
         xml:space="preserve"><tspan
           y="311.92038"
           x="176.77669"
           id="tspan6734"
           sodipodi:role="line">Filament</tspan></text>
      <text
         sodipodi:linespacing="100%"
         id="text6736"
         y="371.51938"
         x="111.11678"
         style="font-style:normal;font-variant:normal;font-weight:normal;font-stretch:normal;font-size:15px;line-height:100%;font-family:Arial;-inkscape-font-specification:'Arial, Normal';text-align:start;letter-spacing:0px;word-spacing:0px;writing-mode:lr-tb;text-anchor:start;fill:#000000;fill-opacity:1;stroke:none;stroke-width:1px;stroke-linecap:butt;stroke-linejoin:miter;stroke-opacity:1"
         xml:space="preserve"><tspan
           y="371.51938"
           x="111.11678"
           id="tspan6738"
           sodipodi:role="line">Ovule</tspan></text>
      <text
         sodipodi:linespacing="100%"
         id="text6740"
         y="345.25543"
         x="556.59406"
         style="font-style:normal;font-variant:normal;font-weight:normal;font-stretch:normal;font-size:15px;line-height:100%;font-family:Arial;-inkscape-font-specification:'Arial, Normal';text-align:start;letter-spacing:0px;word-spacing:0px;writing-mode:lr-tb;text-anchor:start;fill:#000000;fill-opacity:1;stroke:none;stroke-width:1px;stroke-linecap:butt;stroke-linejoin:miter;stroke-opacity:1"
         xml:space="preserve"><tspan
           y="345.25543"
           x="556.59406"
           id="tspan6742"
           sodipodi:role="line">Connective</tspan></text>
      <text
         sodipodi:linespacing="100%"
         id="text6748"
         y="484.65649"
         x="571.74634"
         style="font-style:normal;font-variant:normal;font-weight:normal;font-stretch:normal;font-size:15px;line-height:100%;font-family:Arial;-inkscape-font-specification:'Arial, Normal';text-align:start;letter-spacing:0px;word-spacing:0px;writing-mode:lr-tb;text-anchor:start;fill:#000000;fill-opacity:1;stroke:none;stroke-width:1px;stroke-linecap:butt;stroke-linejoin:miter;stroke-opacity:1"
         xml:space="preserve"><tspan
           y="484.65649"
           x="571.74634"
           id="tspan6750"
           sodipodi:role="line">Microsporangium</tspan></text>
      <text
         sodipodi:linespacing="100%"
         id="text6752"
         y="460.41281"
         x="661.6499"
         style="font-style:normal;font-variant:normal;font-weight:normal;font-stretch:normal;font-size:15px;line-height:100%;font-family:Arial;-inkscape-font-specification:'Arial, Normal';text-align:start;letter-spacing:0px;word-spacing:0px;writing-mode:lr-tb;text-anchor:start;fill:#000000;fill-opacity:1;stroke:none;stroke-width:1px;stroke-linecap:butt;stroke-linejoin:miter;stroke-opacity:1"
         xml:space="preserve"><tspan
           y="460.41281"
           x="661.6499"
           id="tspan6754"
           sodipodi:role="line">Anther</tspan></text>
      <text
         sodipodi:linespacing="100%"
         id="text6756"
         y="532.13361"
         x="537.40118"
         style="font-style:normal;font-variant:normal;font-weight:normal;font-stretch:normal;font-size:15px;line-height:100%;font-family:Arial;-inkscape-font-specification:'Arial, Normal';text-align:start;letter-spacing:0px;word-spacing:0px;writing-mode:lr-tb;text-anchor:start;fill:#000000;fill-opacity:1;stroke:none;stroke-width:1px;stroke-linecap:butt;stroke-linejoin:miter;stroke-opacity:1"
         xml:space="preserve"><tspan
           y="532.13361"
           x="537.40118"
           id="tspan6758"
           sodipodi:role="line">Stamen</tspan></text>
      <text
         sodipodi:linespacing="100%"
         id="text6760"
         y="508.39505"
         x="402.54578"
         style="font-style:normal;font-variant:normal;font-weight:normal;font-stretch:normal;font-size:15px;line-height:100%;font-family:Arial;-inkscape-font-specification:'Arial, Normal';text-align:start;letter-spacing:0px;word-spacing:0px;writing-mode:lr-tb;text-anchor:start;fill:#000000;fill-opacity:1;stroke:none;stroke-width:1px;stroke-linecap:butt;stroke-linejoin:miter;stroke-opacity:1"
         xml:space="preserve"><tspan
           y="508.39505"
           x="402.54578"
           id="tspan6762"
           sodipodi:role="line">Floral axis</tspan></text>
      <text
         sodipodi:linespacing="100%"
         id="text6764"
         y="535.16406"
         x="382.84781"
         style="font-style:normal;font-variant:normal;font-weight:normal;font-stretch:normal;font-size:15px;line-height:100%;font-family:Arial;-inkscape-font-specification:'Arial, Normal';text-align:start;letter-spacing:0px;word-spacing:0px;writing-mode:lr-tb;text-anchor:start;fill:#000000;fill-opacity:1;stroke:none;stroke-width:1px;stroke-linecap:butt;stroke-linejoin:miter;stroke-opacity:1"
         xml:space="preserve"><tspan
           y="535.16406"
           x="382.84781"
           id="tspan6766"
           sodipodi:role="line">Articulation</tspan></text>
      <text
         sodipodi:linespacing="100%"
         id="text6768"
         y="559.40778"
         x="377.29196"
         style="font-style:normal;font-variant:normal;font-weight:normal;font-stretch:normal;font-size:15px;line-height:100%;font-family:Arial;-inkscape-font-specification:'Arial, Normal';text-align:start;letter-spacing:0px;word-spacing:0px;writing-mode:lr-tb;text-anchor:start;fill:#000000;fill-opacity:1;stroke:none;stroke-width:1px;stroke-linecap:butt;stroke-linejoin:miter;stroke-opacity:1"
         xml:space="preserve"><tspan
           y="559.40778"
           x="377.29196"
           id="tspan6770"
           sodipodi:role="line">Pedicel</tspan></text>
      <text
         sodipodi:linespacing="100%"
         id="text6772"
         y="542.23517"
         x="254.55844"
         style="font-style:normal;font-variant:normal;font-weight:normal;font-stretch:normal;font-size:15px;line-height:100%;font-family:Arial;-inkscape-font-specification:'Arial, Normal';text-align:start;letter-spacing:0px;word-spacing:0px;writing-mode:lr-tb;text-anchor:start;fill:#000000;fill-opacity:1;stroke:none;stroke-width:1px;stroke-linecap:butt;stroke-linejoin:miter;stroke-opacity:1"
         xml:space="preserve"><tspan
           y="542.23517"
           x="254.55844"
           id="tspan6774"
           sodipodi:role="line">Nectary</tspan></text>
      <text
         sodipodi:linespacing="100%"
         id="text6776"
         y="535.16412"
         x="160.61426"
         style="font-style:normal;font-variant:normal;font-weight:normal;font-stretch:normal;font-size:15px;line-height:100%;font-family:Arial;-inkscape-font-specification:'Arial, Normal';text-align:start;letter-spacing:0px;word-spacing:0px;writing-mode:lr-tb;text-anchor:start;fill:#000000;fill-opacity:1;stroke:none;stroke-width:1px;stroke-linecap:butt;stroke-linejoin:miter;stroke-opacity:1"
         xml:space="preserve"><tspan
           y="535.16412"
           x="160.61426"
           id="tspan6778"
           sodipodi:role="line">Ovary</tspan></text>
      <text
         sodipodi:linespacing="100%"
         id="text6780"
         y="412.43057"
         x="195.46452"
         style="font-style:normal;font-variant:normal;font-weight:normal;font-stretch:normal;font-size:15px;line-height:100%;font-family:Arial;-inkscape-font-specification:'Arial, Normal';text-align:start;letter-spacing:0px;word-spacing:0px;writing-mode:lr-tb;text-anchor:start;fill:#000000;fill-opacity:1;stroke:none;stroke-width:1px;stroke-linecap:butt;stroke-linejoin:miter;stroke-opacity:1"
         xml:space="preserve"><tspan
           y="412.43057"
           x="195.46452"
           id="tspan6782"
           sodipodi:role="line">Petal:Corolla</tspan></text>
      <text
         sodipodi:linespacing="100%"
         id="text6784"
         y="428.08792"
         x="196.47467"
         style="font-style:normal;font-variant:normal;font-weight:normal;font-stretch:normal;font-size:15px;line-height:100%;font-family:Arial;-inkscape-font-specification:'Arial, Normal';text-align:start;letter-spacing:0px;word-spacing:0px;writing-mode:lr-tb;text-anchor:start;fill:#000000;fill-opacity:1;stroke:none;stroke-width:1px;stroke-linecap:butt;stroke-linejoin:miter;stroke-opacity:1"
         xml:space="preserve"><tspan
           y="428.08792"
           x="196.47467"
           id="tspan6786"
           sodipodi:role="line">Sepal:Calyx</tspan></text>
      <text
         sodipodi:linespacing="100%"
         id="text6788"
         y="394.7529"
         x="188.89851"
         style="font-style:normal;font-variant:normal;font-weight:normal;font-stretch:normal;font-size:15px;line-height:100%;font-family:Arial;-inkscape-font-specification:'Arial, Normal';text-align:start;letter-spacing:0px;word-spacing:0px;writing-mode:lr-tb;text-anchor:start;fill:#000000;fill-opacity:1;stroke:none;stroke-width:1px;stroke-linecap:butt;stroke-linejoin:miter;stroke-opacity:1"
         xml:space="preserve"><tspan
           style="fill:#d40000"
           y="394.7529"
           x="188.89851"
           id="tspan6790"
           sodipodi:role="line">Perianth</tspan></text>
    </g>
  </g>
</svg>
