<?xml version="1.0" encoding="UTF-8" standalone="no"?>
<!-- Created with Inkscape (http://www.inkscape.org/) -->

<svg
   xmlns:dc="http://purl.org/dc/elements/1.1/"
   xmlns:cc="http://creativecommons.org/ns#"
   xmlns:rdf="http://www.w3.org/1999/02/22-rdf-syntax-ns#"
   xmlns:svg="http://www.w3.org/2000/svg"
   xmlns="http://www.w3.org/2000/svg"
   xmlns:sodipodi="http://sodipodi.sourceforge.net/DTD/sodipodi-0.dtd"
   xmlns:inkscape="http://www.inkscape.org/namespaces/inkscape"
   width="675.15759"
   height="498.24149"
   id="svg5287"
   version="1.1"
   inkscape:version="0.92.1 r"
   sodipodi:docname="Homo_lineage_2017update.svg"
   viewBox="0 0 632.96027 467.10138">
  <defs
     id="defs5289" />
  <sodipodi:namedview
     id="base"
     pagecolor="#ffffff"
     bordercolor="#666666"
     borderopacity="1.0"
     inkscape:pageopacity="0.0"
     inkscape:pageshadow="2"
     inkscape:zoom="1.1303756"
     inkscape:cx="563.68273"
     inkscape:cy="360.92734"
     inkscape:document-units="px"
     inkscape:current-layer="layer1"
     showgrid="false"
     showguides="true"
     inkscape:guide-bbox="true"
     inkscape:snap-bbox="true"
     inkscape:object-nodes="true"
     inkscape:window-width="1869"
     inkscape:window-height="1025"
     inkscape:window-x="51"
     inkscape:window-y="27"
     inkscape:window-maximized="1"
     fit-margin-top="10"
     fit-margin-bottom="10"
     fit-margin-right="10"
     fit-margin-left="10"
     inkscape:bbox-nodes="true"
     inkscape:object-paths="true"
     inkscape:snap-global="true"
     inkscape:snap-object-midpoints="true"
     inkscape:snap-bbox-edge-midpoints="true" />
  <metadata
     id="metadata5292">
    <rdf:RDF>
      <cc:Work
         rdf:about="">
        <dc:format>image/svg+xml</dc:format>
        <dc:type
           rdf:resource="http://purl.org/dc/dcmitype/StillImage" />
        <dc:title />
      </cc:Work>
    </rdf:RDF>
  </metadata>
  <g
     inkscape:label="Layer 1"
     inkscape:groupmode="layer"
     id="layer1"
     transform="translate(-318.91473,1089.6902)">
    <path
       inkscape:connector-curvature="0"
       style="fill:#98d5f8;fill-opacity:1;stroke:#b3b3b3;stroke-width:1.5;stroke-linecap:butt;stroke-linejoin:miter;stroke-miterlimit:4;stroke-dasharray:none;stroke-opacity:1"
       d="m 941.1328,-1023.3827 v -21.4458 l -569.04325,-0.012 -5e-5,-3e-4 c 22.16996,7.388 84.65984,7.6709 112.83837,8.3344 112.3167,4.4723 107.68766,0.1702 100.77611,20.1309 -3.98328,12.7238 33.40437,16.3223 30.16677,24.22218 -4.2601,16.2502 19.78149,-0.4494 31.34375,19.875 6.96886,13.6559 25.28398,0.44627 35.61255,13.07937 28.10136,19.9351 11.49681,8.80877 38.33073,27.04615 14.10381,17.8556 10.33898,4.5949 23.58203,39.682 14.21151,26.87 -32.64246,24.45558 -19.02531,59.47378 18.33795,20.9195 -11.34811,11.94063 -8.09873,33.70523 2.12083,12.0641 -19.42209,18.91047 -31.24502,6.32597 -6.92212,-20.0075 -28.92529,-11.7325 -25.90625,-38.5625 6.95993,-55.2983 -23.12197,-18.0327 -29.125,-44.8125 -3.23134,-21.4353 -13.21803,-14.349 -4.96875,13.5938 20.78282,14.045 -26.44527,21.46939 -7.70895,52.10209 22.96129,12.9723 12.63748,20.50368 -13.79965,32.79771 -28.14277,-3.46116 -35.7186,-0.11274 -36.74904,-31.95244 0.61483,-39.006 -1.13795,-9.80326 4.32014,-48.29116 12.25566,-35.1547 -24.10275,-24.7425 -1.59375,-59.1562 7.92083,-29.8924 -1.30551,-31.80345 -13.48811,-32.1661 -5.79186,4.47153 -9.205,18.15492 -10.63689,22.6348 -2.45328,24.3444 15.11742,19.784 6.15625,41.9063 -7.08733,13.1757 -8.7675,14.873 -19.54908,3.7187 -7.18917,-5.1593 -11.01429,-4.8689 -5.04467,-24.6875 2.45994,-30.4684 -19.77446,-24.6486 -4.8125,-47.4375 4.78918,-31.7064 -13.05906,-17.62626 -19.9559,-14.76171 -7.94942,9.1889 -4.06893,11.08358 -5.98653,13.21223 -3.67188,26.90436 25.11826,14.51358 5.97373,34.83078 -10.59595,29.2733 26.0065,29.8984 12.59375,60 4.56109,25.98555 -69.79,-9.20596 -58.87505,-42.7188 16.88908,-25.954 -25.75078,-29.47262 -6.8656,-56.4375 -0.8325,-19.40931 -0.66883,-14.82891 -3.20737,-29.46981 4.01962,-5.43858 -13.2169,-6.56929 -5.27078,-27.06147 3.77783,-7.8467 -0.71241,-11.4911 -5.59375,-11.375 -5.53218,0.1319 -11.59048,5.0878 -6.71875,14.1876 17.45814,27.69268 -20.72232,27.77578 -2.90625,55.46868 16.43749,30.6817 5.62764,26.98728 3.5625,57.5937 20.27472,27.596 9.46604,27.40978 29.56125,52.81049 -0.56413,38.5202 13.78782,22.50235 29.61316,35.78995 24.29,14.53583 -1.28345,13.8493 29.31314,41.0339 10.50894,31.52137 22.02149,-4.69654 40.97096,46.20753 15.17312,24.35074 62.91741,-7.46744 88.39814,17.16758 17.66059,36.54232 40.12238,27.5383 51.53491,36.09482 56.20002,0.26518 31.69456,19.55749 73.21197,31.59943 h 56.34086 c 2.72991,-3.61562 27.72689,-14.61505 23.54064,-40.29722 -4.16203,-25.53351 8.40233,-20.38487 14.2829,-30.20718 10.13197,-16.92341 -17.36106,-39.3026 -27.13028,-20.42656 -31.93449,61.70366 -52.49631,52.86537 -54.66885,47.91481 -16.18402,-31.32325 26.9742,-27.35946 14.87389,-59.34375 8.70699,-35.17363 19.01706,-14.29811 49.47561,-56.47227 8.72786,-22.16436 38.01343,-23.24355 50.95459,-37.59586 6.09851,-6.76351 23.70683,-28.28789 19.61672,-57.48199 -3.03377,-21.65422 11.22331,-33.17189 12.73204,-40.02943 9.9694,-45.31343 -6.28493,-49.30021 -7.9448,-45.10067 -8.48987,21.47968 -28.72692,99.79938 -32.11372,101.04356 -6.79937,2.49783 -13.89252,-7.71256 -12.59471,-19.1611 5.28978,-46.66325 47.09533,-122.05132 49.85389,-126.87982 1.83516,-3.2123 11.09599,-0.2393 11.09599,-0.2393 z m -24.55046,-1.5375 c 4.47446,4.731 -11.84207,21.031 -42.36709,84.27462 -3.41931,7.08434 -32.87803,106.88346 -38.27444,105.76475 -17.33726,-3.59411 -1.86853,-45.43274 9.13897,-79.05081 4.82068,-13.13799 8.62126,-27.4535 13.49881,-38.80085 6.25632,-14.55496 35.3423,-70.68931 44.51372,-71.93901 9.17141,-1.2497 13.49003,-0.2487 13.49003,-0.2487 z m -317.30328,-5.8809 c 18.71905,2.1937 55.63182,1.4518 73.76206,5.1889 -5.82413,9.7847 -14.68802,-1.7919 -14.9566,15.8026 -0.0509,11.54318 33.50955,4.9443 24.34873,17.96878 -8.42903,11.0826 22.00906,16.9076 1.90625,16.875 -24.88181,0.2819 -10.74959,-12.4588 -25.84375,-11.1875 -16.14148,1.2135 -23.01655,-6.5899 -19.48224,-8.875 4.81164,-1.654 9.57175,-13.48338 -1.61564,-12.37498 -16.68071,5.1077 -41.7343,-13.0417 -38.11881,-23.3978 z m 288.76789,5.8337 c 9.16626,-2.7389 -19.76202,20 -23.722,33.63577 -4.65799,16.03925 -17.57341,38.80349 -17.57341,38.80349 -4.87717,12.75569 -3.96219,16.43193 -12.79419,31.60551 -5.08072,14.41865 -37.96289,23.11574 -36.57723,2.41164 0.20757,-12.21188 -2.54658,9.91525 8.39682,-15.7925 0.56366,-2.49726 30.08669,-38.39696 31.29865,-39.86865 l 41.31992,-50.17536 z m -29.06788,8.9122 c -8.07493,9.3171 -7.29808,12.3842 -17.00714,22.87169 -11.29858,12.20448 -36.27281,34.51703 -34.41103,31.79508 1.86177,-2.72195 12.49299,-30.21224 16.01581,-34.41774 1.16756,-7.32163 31.09268,-25.73533 40.25895,-28.47423 z m -164.92123,-11.2939 c 13.49656,0.014 34.87991,-5.163 58.34251,1.5969 16.45656,2.3498 17.64737,2.1709 44.36839,28.09207 19.65947,21.11932 -42.92297,47.26921 -69.30424,28.19431 -22.1463,-10.65 10.1477,-16.9801 -13.15625,-22.375 -31.12594,-5.9186 4.34163,-11.41968 -15.5625,-18.87498 -13.88686,-4.9049 -18.18447,-16.6475 -4.68791,-16.6333 z"
       id="path3003-4"
       sodipodi:nodetypes="ccccccccccccccccccccccccccccccccccccccccccccccccssscccsssssssccsscszcccccccccccsccccscccsscccccccccc" />
    <g
       id="g4377">
      <path
         sodipodi:nodetypes="ccccc"
         inkscape:connector-curvature="0"
         id="path3787-8"
         d="m 941.1328,-1044.8285 v 405.72258 H 370.89473 v -405.72258 z"
         style="fill:none;stroke:#000000;stroke-width:1.5;stroke-linecap:butt;stroke-linejoin:miter;stroke-miterlimit:4;stroke-dasharray:none;stroke-opacity:1" />
      <path
         sodipodi:nodetypes="cccccccccccccccc"
         inkscape:connector-curvature="0"
         id="path3881-8"
         d="m 360.87348,-1044.8285 h 10.02125 v 81.14453 h -10.02125 10.02125 v 81.14451 h -10.02125 10.02125 v 81.14451 h -10.02125 10.02125 v 81.14452 h -10.02125 10.02125 v 81.14451 h -10.02125"
         style="fill:none;stroke:#000000;stroke-width:1.5;stroke-linecap:butt;stroke-linejoin:miter;stroke-miterlimit:4;stroke-dasharray:none;stroke-opacity:1" />
    </g>
    <g
       id="g4387">
      <text
         id="text3891-2"
         y="-1038.5311"
         x="341.88739"
         style="font-style:normal;font-variant:normal;font-weight:normal;font-stretch:normal;line-height:0%;font-family:'Segoe UI';-inkscape-font-specification:'Segoe UI';letter-spacing:0px;word-spacing:0px;fill:#000000;fill-opacity:1;stroke:none"
         xml:space="preserve"><tspan
           style="font-size:18px;line-height:1.25"
           y="-1038.5311"
           x="341.88739"
           id="tspan3893-4"
           sodipodi:role="line">0</tspan></text>
      <text
         id="text3895-5"
         y="-957.38654"
         x="328.15887"
         style="font-style:normal;font-variant:normal;font-weight:normal;font-stretch:normal;line-height:0%;font-family:'Segoe UI';-inkscape-font-specification:'Segoe UI';letter-spacing:0px;word-spacing:0px;fill:#000000;fill-opacity:1;stroke:none"
         xml:space="preserve"><tspan
           style="font-size:18px;line-height:1.25"
           y="-957.38654"
           x="328.15887"
           id="tspan3897-5"
           sodipodi:role="line">0.4</tspan></text>
      <text
         id="text3899-1"
         y="-876.242"
         x="328.28192"
         style="font-style:normal;font-variant:normal;font-weight:normal;font-stretch:normal;line-height:0%;font-family:'Segoe UI';-inkscape-font-specification:'Segoe UI';letter-spacing:0px;word-spacing:0px;fill:#000000;fill-opacity:1;stroke:none"
         xml:space="preserve"><tspan
           style="font-size:18px;line-height:1.25"
           y="-876.242"
           x="328.28192"
           id="tspan3901-7"
           sodipodi:role="line">0.8</tspan></text>
      <text
         id="text3903-1"
         y="-795.04919"
         x="328.51044"
         style="font-style:normal;font-variant:normal;font-weight:normal;font-stretch:normal;line-height:0%;font-family:'Segoe UI';-inkscape-font-specification:'Segoe UI';letter-spacing:0px;word-spacing:0px;fill:#000000;fill-opacity:1;stroke:none"
         xml:space="preserve"><tspan
           style="font-size:18px;line-height:1.25"
           y="-795.04919"
           x="328.51044"
           id="tspan3905-1"
           sodipodi:role="line">1.2</tspan></text>
      <text
         id="text3907-5"
         y="-713.91785"
         x="328.26434"
         style="font-style:normal;font-variant:normal;font-weight:normal;font-stretch:normal;line-height:0%;font-family:'Segoe UI';-inkscape-font-specification:'Segoe UI';letter-spacing:0px;word-spacing:0px;fill:#000000;fill-opacity:1;stroke:none"
         xml:space="preserve"><tspan
           style="font-size:18px;line-height:1.25"
           y="-713.91785"
           x="328.26434"
           id="tspan3909-2"
           sodipodi:role="line">1.6</tspan></text>
      <text
         id="text3911-7"
         y="-632.80853"
         x="328.28192"
         style="font-style:normal;font-variant:normal;font-weight:normal;font-stretch:normal;line-height:0%;font-family:'Segoe UI';-inkscape-font-specification:'Segoe UI';letter-spacing:0px;word-spacing:0px;fill:#000000;fill-opacity:1;stroke:none"
         xml:space="preserve"><tspan
           style="font-size:18px;line-height:1.25"
           y="-632.80853"
           x="328.28192"
           id="tspan3913-6"
           sodipodi:role="line">2.0</tspan></text>
    </g>
    <text
       xml:space="preserve"
       style="font-style:normal;font-weight:normal;line-height:0%;font-family:sans-serif;letter-spacing:0px;word-spacing:0px;fill:#000000;fill-opacity:1;stroke:none"
       x="576.68365"
       y="-1058.6628"
       id="text3789-21"><tspan
         sodipodi:role="line"
         id="tspan3791-6"
         x="576.68365"
         y="-1058.6628"
         style="font-style:normal;font-variant:normal;font-weight:normal;font-stretch:normal;font-size:28px;line-height:1.25;font-family:'Segoe UI';-inkscape-font-specification:'Segoe UI';fill:#000000">Eurasia</tspan></text>
    <text
       xml:space="preserve"
       style="font-style:normal;font-weight:normal;line-height:0%;font-family:sans-serif;letter-spacing:0px;word-spacing:0px;fill:#000000;fill-opacity:1;stroke:none"
       x="787.42084"
       y="-1058.6628"
       id="text3789-8-8"><tspan
         sodipodi:role="line"
         id="tspan3791-8-5"
         x="787.42084"
         y="-1058.6628"
         style="font-style:normal;font-variant:normal;font-weight:normal;font-stretch:normal;font-size:28px;line-height:1.25;font-family:'Segoe UI';-inkscape-font-specification:'Segoe UI';fill:#000000">Africa</tspan></text>
    <text
       xml:space="preserve"
       style="font-style:normal;font-weight:normal;line-height:0%;font-family:sans-serif;letter-spacing:0px;word-spacing:0px;fill:#000000;fill-opacity:1;stroke:none"
       x="480.06537"
       y="-942.79523"
       id="text3789-2-5-18"><tspan
         sodipodi:role="line"
         id="tspan3791-4-5-9"
         x="480.06537"
         y="-942.79523"
         style="font-style:italic;font-variant:normal;font-weight:normal;font-stretch:normal;font-size:14px;line-height:1.25;font-family:'Segoe UI';-inkscape-font-specification:'Segoe UI';fill:#000000">Java Man</tspan></text>
    <text
       xml:space="preserve"
       style="font-style:normal;font-weight:normal;line-height:0%;font-family:sans-serif;letter-spacing:0px;word-spacing:0px;fill:#000000;fill-opacity:1;stroke:none"
       x="700.25055"
       y="-715.19849"
       id="text3789-2-5-1-2"><tspan
         sodipodi:role="line"
         id="tspan3791-4-5-7-7"
         x="700.25055"
         y="-715.19849"
         style="font-style:italic;font-variant:normal;font-weight:normal;font-stretch:normal;font-size:14px;line-height:1.25;font-family:'Segoe UI';-inkscape-font-specification:'Segoe UI';fill:#000000">erectus</tspan></text>
    <text
       xml:space="preserve"
       style="font-style:normal;font-weight:normal;line-height:0%;font-family:sans-serif;letter-spacing:0px;word-spacing:0px;fill:#000000;fill-opacity:1;stroke:none"
       x="604.64264"
       y="-843.19287"
       id="text3789-2-5-1-1-9"><tspan
         sodipodi:role="line"
         id="tspan3791-4-5-7-1-5"
         x="604.64264"
         y="-843.19287"
         style="font-style:italic;font-variant:normal;font-weight:normal;font-stretch:normal;font-size:14px;line-height:1.25;font-family:'Segoe UI';-inkscape-font-specification:'Segoe UI';fill:#000000">antecessor</tspan></text>
    <text
       xml:space="preserve"
       style="font-style:normal;font-weight:normal;line-height:0%;font-family:sans-serif;letter-spacing:0px;word-spacing:0px;fill:#000000;fill-opacity:1;stroke:none"
       x="696.21771"
       y="-949.27496"
       id="text3789-2-5-1-1-5-4"><tspan
         sodipodi:role="line"
         id="tspan3791-4-5-7-1-2-3"
         x="696.21771"
         y="-949.27496"
         style="font-style:italic;font-variant:normal;font-weight:normal;font-stretch:normal;font-size:14px;line-height:1.25;font-family:'Segoe UI';-inkscape-font-specification:'Segoe UI';fill:#000000">heidelbergensis</tspan></text>
    <text
       xml:space="preserve"
       style="font-style:normal;font-weight:normal;line-height:0%;font-family:sans-serif;letter-spacing:0px;word-spacing:0px;fill:#000000;fill-opacity:1;stroke:none"
       x="784.16748"
       y="-1010.5013"
       id="text3789-2-5-1-1-5-7-12"><tspan
         sodipodi:role="line"
         id="tspan3791-4-5-7-1-2-6-3"
         x="784.16748"
         y="-1010.5013"
         style="font-style:italic;font-variant:normal;font-weight:normal;font-stretch:normal;font-size:14px;line-height:1.25;font-family:'Segoe UI';-inkscape-font-specification:'Segoe UI';fill:#000000">sapiens</tspan></text>
    <text
       xml:space="preserve"
       style="font-style:normal;font-weight:normal;line-height:0%;font-family:sans-serif;letter-spacing:0px;word-spacing:0px;fill:#000000;fill-opacity:1;stroke:none"
       x="664.8266"
       y="-991.25317"
       id="text3789-2-5-1-1-5-7-1-3"><tspan
         sodipodi:role="line"
         id="tspan3791-4-5-7-1-2-6-4-4"
         x="664.8266"
         y="-991.25317"
         style="font-style:normal;font-variant:normal;font-weight:normal;font-stretch:normal;font-size:14px;line-height:1.25;font-family:'Segoe UI';-inkscape-font-specification:'Segoe UI';fill:#000000">Neanderthal</tspan></text>
    <text
       xml:space="preserve"
       style="font-style:normal;font-weight:normal;line-height:0%;font-family:sans-serif;letter-spacing:0px;word-spacing:0px;fill:#000000;fill-opacity:1;stroke:none"
       x="574.23798"
       y="-999.67969"
       id="text3789-2-5-1-1-5-7-1-2-1"><tspan
         sodipodi:role="line"
         id="tspan3791-4-5-7-1-2-6-4-3-1"
         x="574.23798"
         y="-999.67969"
         style="font-style:normal;font-variant:normal;font-weight:normal;font-stretch:normal;font-size:14px;line-height:1.25;font-family:'Segoe UI';-inkscape-font-specification:'Segoe UI';fill:#000000">Denisovans</tspan></text>
    <text
       xml:space="preserve"
       style="font-style:normal;font-weight:normal;line-height:0%;font-family:sans-serif;letter-spacing:0px;word-spacing:0px;fill:#000000;fill-opacity:1;stroke:none"
       x="400.57324"
       y="-979.30933"
       id="text3789-2-7"><tspan
         sodipodi:role="line"
         id="tspan3791-4-6"
         x="400.57324"
         y="-979.30933"
         style="font-style:italic;font-variant:normal;font-weight:normal;font-stretch:normal;font-size:14px;line-height:1.25;font-family:'Segoe UI';-inkscape-font-specification:'Segoe UI';fill:#000000">floresiensis</tspan></text>
    <text
       xml:space="preserve"
       style="font-style:normal;font-weight:normal;font-size:12px;line-height:0%;font-family:sans-serif;letter-spacing:0px;word-spacing:0px;fill:#000000;fill-opacity:1;stroke:none;stroke-width:1.00000012"
       x="536.10376"
       y="-921.05103"
       id="text3789-2-5-18-3"><tspan
         sodipodi:role="line"
         id="tspan3791-4-5-9-6"
         x="536.10376"
         y="-921.05103"
         style="font-style:italic;font-variant:normal;font-weight:normal;font-stretch:normal;font-size:14px;line-height:1.25;font-family:'Segoe UI';-inkscape-font-specification:'Segoe UI';fill:#000000;stroke-width:1.00000012">Peking Man</tspan></text>
    <text
       xml:space="preserve"
       style="font-style:normal;font-weight:normal;font-size:12px;line-height:0%;font-family:sans-serif;letter-spacing:0px;word-spacing:0px;fill:#000000;fill-opacity:1;stroke:none;stroke-width:1.00000012"
       x="782.05756"
       y="-642.22156"
       id="text3789-2-5-1-2-7"><tspan
         sodipodi:role="line"
         id="tspan3791-4-5-7-7-5"
         x="782.05756"
         y="-642.22156"
         style="font-style:italic;font-variant:normal;font-weight:normal;font-stretch:normal;font-size:14px;line-height:1.25;font-family:'Segoe UI';-inkscape-font-specification:'Segoe UI';fill:#000000;stroke-width:1.00000012">habilis</tspan></text>
    <text
       xml:space="preserve"
       style="font-style:normal;font-weight:normal;font-size:12px;line-height:0%;font-family:sans-serif;letter-spacing:0px;word-spacing:0px;fill:#000000;fill-opacity:1;stroke:none;stroke-width:1.00000012"
       x="897.12268"
       y="-951.48517"
       id="text3789-2-5-1-1-5-7-12-3"><tspan
         sodipodi:role="line"
         id="tspan3791-4-5-7-1-2-6-3-5"
         x="897.12268"
         y="-951.48517"
         style="font-style:italic;font-variant:normal;font-weight:normal;font-stretch:normal;font-size:14px;line-height:1.25;font-family:'Segoe UI';-inkscape-font-specification:'Segoe UI';fill:#000000;stroke-width:1.00000012">naledi</tspan></text>
    <path
       inkscape:connector-curvature="0"
       style="fill:#e40080;fill-opacity:1;stroke:#b3b3b3;stroke-width:1.5;stroke-linecap:butt;stroke-linejoin:miter;stroke-miterlimit:4;stroke-dasharray:none;stroke-opacity:1"
       d="m 922.85924,-639.10592 c -2.72789,-14.86837 1.39856,-19.44619 -8.62702,-50.74048 -2.07178,-17.96628 -8.02681,-33.11316 -7.08768,-50.85759 -1.23611,-8.95957 0.0747,-6.67692 -1.32655,-25.65785 -0.69694,-7.07661 -7.47296,-18.15059 -10.67031,-32.35685 -1.22912,-16.07981 -13.25782,-4.56137 -7.74235,11.5713 6.51419,15.47938 1.31441,30.9952 -0.96292,43.07488 9.44861,55.98949 -5.94186,33.16074 -8.007,63.76727 -5.13551,25.6713 -4.67327,24.9788 -23.24607,41.19932"
       id="path3003-4-2"
       sodipodi:nodetypes="ccccccccc" />
    <text
       xml:space="preserve"
       style="font-style:normal;font-weight:normal;font-size:12px;line-height:0%;font-family:sans-serif;letter-spacing:0px;word-spacing:0px;fill:#000000;fill-opacity:1;stroke:none;stroke-width:1.00000012"
       x="644.94073"
       y="902.61761"
       id="text3789-2-5-1-2-9"
       transform="rotate(-90)"><tspan
         sodipodi:role="line"
         id="tspan3791-4-5-7-7-1"
         x="644.94073"
         y="902.61761"
         style="font-style:italic;font-variant:normal;font-weight:normal;font-stretch:normal;font-size:14px;line-height:1.25;font-family:'Segoe UI';-inkscape-font-specification:'Segoe UI';fill:#000000;stroke-width:1.00000012">Paranthropus</tspan></text>
  </g>
</svg>
