<?xml version="1.0" encoding="UTF-8" standalone="no"?>
<svg xmlns:dc="http://purl.org/dc/elements/1.1/" xmlns:cc="http://creativecommons.org/ns#" xmlns:rdf="http://www.w3.org/1999/02/22-rdf-syntax-ns#" xmlns:svg="http://www.w3.org/2000/svg" xmlns="http://www.w3.org/2000/svg" xmlns:xlink="http://www.w3.org/1999/xlink" version="1.1" width="450" height="540">
  <title>A diagram showing the process of neurulation</title>
  <metadata>
    <rdf:RDF>
      <cc:Work rdf:about="">
        <dc:format>image/svg+xml</dc:format>
        <dc:type rdf:resource="http://purl.org/dc/dcmitype/StillImage"/>
        <dc:title>A diagram showing the process of neurulation</dc:title>
      </cc:Work>
    </rdf:RDF>
  </metadata>
  <g style="stroke:#000;stroke-width:0.5">
    <g>
      <path d="M 243.58,215.06 C 240.95,207.4 238.89,199.54 238,196 c 0,0 6.9581,-13.859 1,-22 -3.3984,-4.6435 -9,-5 -17,-3 -20.802,4.4209 -20.804,42.862 -21,40 14,13 4,58 27.877,74.14 11.12,3.86 27.39,-34.91 33.12,-46.14 l 9,-18 c 0,0 -24.11,3.6892 -27.42,-5.9416 z" style="fill:#d47afd"/>
      <path d="m 240,217 c 0,0 17.042,-37.859 23,-46 4,-3 10.887,-2.4751 19,-1 1.4608,7.2744 -3.6003,45.882 -23,41 -8.0861,-1.6172 -12.931,-1.0688 -17,3 m -41,-3 c 4.5049,6.876 13.73,6.8394 18.883,11.117 l 20.534,-45.604 c 0,0 -0.30056,-0.98876 -1.4163,-2.5133 -3.3984,-4.6435 -9.1051,-5.3812 -17,-3 l -3.3461,1.0092 -17.64,38.98" style="fill:#67fa52"/>
      <path d="M 280.48,169.73 C 292,171 300,176 300,176 l -21,41 c 0,0 -10,-4 -20,-6 z M 201,211 c -9.2602,2.3151 -26,12 -26,12 l 17,-37 c 8.8093,-5.0884 17.37,-10.258 26.654,-13.991 l -17.65,38.99" style="fill:#009dff"/>
      <path d="m 209,209.84 c -2.3358,-0.0146 -5,0.40625 -8,1.1562 -9.2602,2.3151 -26,12 -26,12 v 10 c 0,0 19,-12 24,-7 3,3 0,9 -2,18 7,25 18,60 33,60 15,0 34,-53 34,-61 0,-11 -11,-15 -5,-19 3.8817,-2.5878 20,4 20,4 v -11 c 0,0 -10,-4 -20,-6 -8.0861,-1.6172 -12.931,-1.0688 -17,3 -9,9 5,31 5,31 -2,8 -10,39 -17,39 -7,0 -14,-32 -16,-40 0,0 9.9581,-21.859 4,-30 -2.124,-2.9022 -5.1071,-4.132 -9,-4.1562 z" style="fill:#ac62ce"/>
      <path d="m 209,209.84 c -2.34,-0.01 -5,0.41 -8,1.16 -2.54,0.64 -5.65,1.83 -8.81,3.22 l 2.28,10.59 c 1.91,-0.15 3.51,0.17 4.53,1.19 1.14,1.14 1.42,2.69 1.22,4.69 l 19.5,-6.03 c 0.47,-4.18 0.16,-8.1 -1.72,-10.66 -2.12,-2.9 -5.11,-4.13 -9,-4.16 z m 42.12,0.32 c -3.75,0.12 -6.58,1.3 -9.12,3.84 -2.11,2.11 -2.94,4.94 -3,8.03 l 18.22,4.72 c -0.04,-0.97 0.44,-1.86 1.78,-2.75 0.87,-0.58 2.35,-0.69 4.12,-0.53 l 2.72,-10.81 c -2.2,-0.61 -4.51,-1.19 -6.84,-1.66 -3.03,-0.61 -5.62,-0.92 -7.88,-0.84 z" style="fill:#53cd41"/>
      <path d="m 201.41,210.91 c -0.1379,0.0334 -0.2669,0.0589 -0.40625,0.0937 -9.2602,2.3151 -26,12 -26,12 v 10 c 0,0 14.46,-9.1174 21.469,-8.125 z m 57.375,0.0625 2.5,12.469 c 5.81,-0.29 17.72,4.56 17.72,4.56 l 22,-43 -1,-9 -21,41 c 0,0 -10,-4 -20,-6 -0.0765,-0.0153 -0.14283,-0.0163 -0.21875,-0.0312 z" style="fill:#007ecd"/>
    </g>
    <g transform="translate(0,-2)">
      <path d="M 249,75 C 208.47,63.946 165.04,64.663 144,67 c -2.492,4.394 -9,17 -5,25 31.955,0 60.248,1.9931 101,12 28.528,-10.41 84.864,-12.892 100,-11 10,-4 15,-14 9,-25 -28,-3 -65,-5 -100,7 z" style="fill:#d47afd"/>
      <path d="m 340,93 c 0,0 5,6 8,1 12,-10 12,-20 10,-25 -2.6806,-0.19147 -5.0669,-0.5786 -9,-1 z M 144,67 c 0,0 -6.1342,0.81342 -8,1 -6,6 -11,21 -6,25 3.1744,2.2177 7.6331,-0.38614 9,-1 z" style="fill:#67fa52"/>
      <path d="m 240,113 c -33.667,-7.5475 -79.963,-10.337 -101,-8 -4,-1 -4,-11 0,-13 31.955,0 60.248,-2.0069 101,8 28.528,-10.41 84.864,-8.892 100,-7 3,4 2,9 0,13 -31.484,-1.3648 -62.992,-2.6825 -100,7 z" style="fill:#ac62ce"/>
      <path d="m 348,94 c 7,10 34,6 34,6 l 10,-25 c 0,0 -20,-5 -34,-6 z M 136,68 c -10,1 -31,6 -31,6 L 95,99 c 0,0 25,-1 35,-6 z" style="fill:#009dff"/>
      <path d="m 340,93 c 0,0 5.3371,0.63781 8,1 3.2354,4.9216 1.8701,9.0067 0,13 -2.6574,-0.40031 -4.0481,-0.82869 -8,-1 z m -201,12 c 0,0 -5.9965,0.69965 -9,1 -0.71558,-4.0948 -2.5878,-7.8041 0,-13 2.3002,-0.23002 7.4139,-1 9,-1 z" style="fill:#53cd41"/>
      <path d="m 348,94 c 11.351,1.5438 34,6 34,6 l 10,-25 v 14 l -10,24 c 0,0 -22.62,-4.2857 -34,-6 z m -218,12 c -10,1 -35,6 -35,6 V 99 c 0,0 25,-5 35,-6 z" style="fill:#007ecd"/>
    </g>
    <g>
      <path d="m 253.5,497.61 36.25,-79.86 c -45.931,-20.367 -49.91,-20.113 -83,26 2.0508,65.162 1.6646,100.49 46.748,53.865 z" style="fill:#d47afd"/>
      <path d="M 205.06,430.7 C 196.78,442.13 193,459.52 193,472 c 0,20 10.5,53 32.5,53 22,0 32.5,-33 32.5,-53 0,-12.346 -4.2088,-29.67 -12.593,-41.103 z m 19.38,2.3 c 3.0462,0 4.5625,24.906 4.5625,40 0,15.094 -1.4538,40 -4.5,40 -3.0462,0 -4.5,-24.906 -4.5,-40 0,-15.094 1.3914,-40 4.4375,-40 z" style="fill:#ac62ce"/>
      <path d="m 245.41,430.9 -40.35,-0.19387 11.543,-16.804 c 3.3341,-4.8537 37.058,-3.4086 35.065,1.5191 z" style="fill:#67fa52"/>
      <path d="m 245.41,430.9 c -5.2,-7.08 -12,-11.9 -20.41,-11.9 -8.3328,0 -14.944,4.7343 -19.942,11.703 l 16.476,12.245 c 0.7,-5.86 1.66,-9.94 2.9,-9.94 1.2294,0 2.2096,4.0569 2.9416,9.8882 z" style="fill:#53cd41"/>
      <path d="m 225,409 c -18,0 -95,20 -98,13 l 41,-57 c 22.75,0 58,-17 76,-17 31.965,0 60.359,26 100,26 8,0 13,-1 17,-2 0,8 -18,47 -25,59 -38.686,9.0479 -76.462,-20.843 -111,-22 z" style="fill:#009dff"/>
      <path d="m 226,403 c -18,0 -61,19 -99,19 v 11 c 43,0 81,-18 99,-18 31.965,0 53.359,23 93,23 8,0 13,-1 17,-2 10.483,-16.871 15.912,-35.906 25,-54 v -10 l -25,56 c -5,1 -9.9023,1 -17,1 -25.449,0 -65.808,-26 -93,-26 z" style="fill:#007ecd"/>
      <path d="m 263,427.5 a 7.5,3.5 0 1 1 -15,0 7.5,3.5 0 1 1 15,0 z" id="e" style="fill:#67fa52"/>
      <use x="15" y="6" xlink:href="#e"/>
      <use x="5" y="13" xlink:href="#e"/>
      <use x="25" y="16" xlink:href="#e"/>
      <use x="36" y="22" xlink:href="#e"/>
      <use x="42" y="14" xlink:href="#e"/>
      <use x="54" y="20" xlink:href="#e"/>
      <use x="-57" y="-1" xlink:href="#e"/>
      <use transform="matrix(1,0,0,0.85714286,-63,68.571427)" xlink:href="#e"/>
      <use transform="matrix(0.9,0,0,1,-53.5,6)" xlink:href="#e"/>
      <use transform="matrix(0.9,0,0,1,-47.5,15)" xlink:href="#e"/>
      <use transform="matrix(0.92857143,0,0,0.85714286,-67.285712,81.571427)" xlink:href="#e"/>
      <use transform="matrix(0.95,0,0,0.85714286,-83.9,74.571429)" xlink:href="#e"/>
      <use transform="matrix(0.92857137,0,0,0.85714286,-94.285697,71.571429)" xlink:href="#e"/>
    </g>
  </g>
  <g style="stroke:#000;stroke-width:2">
    <path d="m 156,180 c 24,0 39,-4 40,-9 1,-5 15,-9 40,-9 m -8,-5 8,5 -8,5" id="p" style="fill:none"/>
    <use transform="scale(-1,1)" x="-511" xlink:href="#p"/>
    <path d="m 111,441 46,0"/>
    <path d="m 247,477 46,0"/>
    <path d="m 307,392 0,-42"/>
    <path d="m 303,203 -46,0"/>
    <path d="m 139,73 0,-33"/>
    <path d="m 167.63,274 46,0"/>
    <path d="m 368.75,120.73 0,-33"/>
    <path d="m 323,73 0,-33"/>
  </g>

  <path d="m 240.5,338.5 -7.5,-7.5 4,0 0,-19 7,0 0,19 4,0 z" id="a" style="fill:#000"/>
  <use y="-190" xlink:href="#a"/>

  <g style="font-size:14px;text-align:center;text-anchor:middle;fill:#000;font-family:Liberation Sans, sans-serif">
    <g transform="translate(139,34)">
      <switch>
        <text systemLanguage="ru">Край нервной пластинки</text>
        <text systemLanguage="de">Grenze der Neuralplatte</text>
        <text systemLanguage="fr">Bord de la plaque neurale</text>
        <text systemLanguage="hr">rub neuralne ploče</text>
        <text>Neural plate border</text>
      </switch>
    </g>
    <g transform="translate(323,34)">
      <switch>
        <text systemLanguage="ru">Нервная пластинка</text>
        <text systemLanguage="de">Neuralplatte</text>
        <text systemLanguage="fr">Plaque neurale</text>
        <text systemLanguage="hr">neuralna ploča</text>
        <text>Neural plate</text>
      </switch>
    </g>
    <g transform="translate(369,135)" id="ep" style="fill:#000">
      <switch>
        <text systemLanguage="ru">Кожная эктодерма</text>
        <text systemLanguage="fr">Épiderme</text>
        <text systemLanguage="hr">epiderma</text>
        <text>Epidermis</text>
      </switch>
    </g>
    <g transform="translate(152,184)" style="text-align:end;text-anchor:end">
      <switch>
        <text systemLanguage="ru">Сближение</text>
        <text systemLanguage="de">Konvergenz</text>
        <text systemLanguage="fr">Convergence</text>
        <text systemLanguage="hr">konvergencija</text>
        <text>Convergence</text>
      </switch>
    </g>
    <g transform="translate(306,207)" style="text-align:start;text-anchor:start">
      <switch>
        <text systemLanguage="ru">Нервный валик</text>
        <text systemLanguage="de">Neuralfalten</text>
        <text systemLanguage="fr">Pli neural</text>
        <text systemLanguage="hr">neuralni nabor</text>
        <text>Neural fold</text>
      </switch>
    </g>
    <g transform="translate(165,278)" style="text-align:end;text-anchor:end;fill:#000">
      <switch>
        <text systemLanguage="ru">Нервный желобок</text>
        <text systemLanguage="de">Neuralrinne</text>
        <text systemLanguage="fr">Gouttière neurale</text>
        <text systemLanguage="hr">neuralni žlijeb</text>
        <text>Neural groove</text>
      </switch>
    </g>
    <use x="-61" y="209" xlink:href="#ep"/>
    <g transform="translate(106,446)" style="font-weight:bold;text-align:end;text-anchor:end">
      <switch>
        <text systemLanguage="ru">
			<tspan>Нервный</tspan>
			<tspan x="-8" y="20">гребень</tspan>
		</text>
        <text systemLanguage="de">Neuralleiste</text>
        <text systemLanguage="fr">Crête neurale</text>
        <text systemLanguage="hr">
			<tspan>neuralni</tspan>
			<tspan x="-6" y="20">greben</tspan>
		</text>
        <text>Neural crest</text>
      </switch>
    </g>
    <g transform="translate(296,482)" style="text-align:start;text-anchor:start">
      <switch>
        <text systemLanguage="ru">Нервная трубка</text>
        <text systemLanguage="de">Neuralrohr</text>
        <text systemLanguage="fr">Tube neural</text>
        <text systemLanguage="hr">neuralna cijev</text>
        <text>Neural tube</text>
      </switch>
    </g>
  </g>
</svg>
