<?xml version="1.0" encoding="UTF-8" standalone="no"?>
<!-- Created with Inkscape (http://www.inkscape.org/) -->
<svg
   xmlns:dc="http://purl.org/dc/elements/1.1/"
   xmlns:cc="http://creativecommons.org/ns#"
   xmlns:rdf="http://www.w3.org/1999/02/22-rdf-syntax-ns#"
   xmlns:svg="http://www.w3.org/2000/svg"
   xmlns="http://www.w3.org/2000/svg"
   xmlns:xlink="http://www.w3.org/1999/xlink"
   xmlns:sodipodi="http://sodipodi.sourceforge.net/DTD/sodipodi-0.dtd"
   xmlns:inkscape="http://www.inkscape.org/namespaces/inkscape"
   width="1045.9907"
   height="1220.8807"
   id="svg4190"
   sodipodi:version="0.32"
   inkscape:version="0.46"
   version="1.0"
   sodipodi:docname="Physiology of Nephron.svg"
   inkscape:output_extension="org.inkscape.output.svg.inkscape"
   inkscape:export-filename="C:\Documents and Settings\Administrator\Desktop\Physiology of Nephron.png"
   inkscape:export-xdpi="90"
   inkscape:export-ydpi="90">
  <defs
     id="defs4192">
    <linearGradient
       x1="0"
       y1="0"
       x2="1"
       y2="0"
       gradientUnits="userSpaceOnUse"
       gradientTransform="matrix(0,-8.9986,12.2705,0,410.48,573.637)"
       spreadMethod="pad"
       id="linearGradient333">
      <stop
         style="stop-opacity:1;stop-color:#df0024"
         offset="0"
         id="stop335" />
      <stop
         style="stop-opacity:1;stop-color:#4864ac"
         offset="1"
         id="stop337" />
    </linearGradient>
    <linearGradient
       inkscape:collect="always"
       xlink:href="#linearGradient333"
       id="linearGradient4188"
       gradientUnits="userSpaceOnUse"
       gradientTransform="matrix(0,-8.9986,12.2705,0,410.48,573.637)"
       spreadMethod="pad"
       x1="0"
       y1="0"
       x2="1"
       y2="0" />
    <clipPath
       clipPathUnits="userSpaceOnUse"
       id="clipPath325">
      <path
         d="M 420.688,574.471 C 420.688,574.471 420.151,570.579 420.188,569.158 C 420.251,566.762 420.688,564.116 420.751,563.908 L 412.938,563.825 C 412.938,563.825 412.48,566.742 412.48,569.304 C 412.48,571.554 412.918,574.533 412.918,574.533 L 420.688,574.471"
         id="path327" />
    </clipPath>
    <linearGradient
       x1="0"
       y1="0"
       x2="1"
       y2="0"
       gradientUnits="userSpaceOnUse"
       gradientTransform="matrix(0,-10.8327,10.9375,0,411.209,574.783)"
       spreadMethod="pad"
       id="linearGradient353">
      <stop
         style="stop-opacity:1;stop-color:#ef837c"
         offset="0"
         id="stop355" />
      <stop
         style="stop-opacity:1;stop-color:#9096c7"
         offset="1"
         id="stop357" />
    </linearGradient>
    <linearGradient
       inkscape:collect="always"
       xlink:href="#linearGradient353"
       id="linearGradient4186"
       gradientUnits="userSpaceOnUse"
       gradientTransform="matrix(0,-10.8327,10.9375,0,411.209,574.783)"
       spreadMethod="pad"
       x1="0"
       y1="0"
       x2="1"
       y2="0" />
    <clipPath
       clipPathUnits="userSpaceOnUse"
       id="clipPath345">
      <path
         d="M 420.084,563.45 C 420.084,563.45 419.418,567.262 419.438,569.221 C 419.459,571.179 419.855,574.409 420.001,574.867 C 420.146,575.325 413.793,574.867 413.793,574.867 C 413.793,574.867 413.209,571.929 413.251,569.096 C 413.287,566.655 413.522,564.908 413.751,563.45 L 420.084,563.45"
         id="path347" />
    </clipPath>
    <linearGradient
       x1="0"
       y1="0"
       x2="1"
       y2="0"
       gradientUnits="userSpaceOnUse"
       gradientTransform="matrix(0,-8.9998,-12.2705,0,451.938,573.637)"
       spreadMethod="pad"
       id="linearGradient421">
      <stop
         style="stop-opacity:1;stop-color:#df0024"
         offset="0"
         id="stop423" />
      <stop
         style="stop-opacity:1;stop-color:#4864ac"
         offset="1"
         id="stop425" />
    </linearGradient>
    <linearGradient
       inkscape:collect="always"
       xlink:href="#linearGradient421"
       id="linearGradient4184"
       gradientUnits="userSpaceOnUse"
       gradientTransform="matrix(0,-8.9998,-12.2705,0,451.938,573.637)"
       spreadMethod="pad"
       x1="0"
       y1="0"
       x2="1"
       y2="0" />
    <clipPath
       clipPathUnits="userSpaceOnUse"
       id="clipPath413">
      <path
         d="M 441.729,574.471 C 441.729,574.471 442.267,570.579 442.229,569.158 C 442.167,566.762 441.729,564.116 441.667,563.908 L 449.479,563.825 C 449.479,563.825 449.938,566.742 449.938,569.304 C 449.938,571.554 449.5,574.533 449.5,574.533 L 441.729,574.471"
         id="path415" />
    </clipPath>
    <linearGradient
       x1="0"
       y1="0"
       x2="1"
       y2="0"
       gradientUnits="userSpaceOnUse"
       gradientTransform="matrix(0,-10.834,-10.9375,0,451.209,574.783)"
       spreadMethod="pad"
       id="linearGradient441">
      <stop
         style="stop-opacity:1;stop-color:#ef837c"
         offset="0"
         id="stop443" />
      <stop
         style="stop-opacity:1;stop-color:#9096c7"
         offset="1"
         id="stop445" />
    </linearGradient>
    <linearGradient
       inkscape:collect="always"
       xlink:href="#linearGradient441"
       id="linearGradient4182"
       gradientUnits="userSpaceOnUse"
       gradientTransform="matrix(0,-10.834,-10.9375,0,451.209,574.783)"
       spreadMethod="pad"
       x1="0"
       y1="0"
       x2="1"
       y2="0" />
    <clipPath
       clipPathUnits="userSpaceOnUse"
       id="clipPath433">
      <path
         d="M 442.334,563.45 C 442.334,563.45 443,567.262 442.979,569.221 C 442.959,571.179 442.562,574.409 442.417,574.867 C 442.271,575.325 448.625,574.867 448.625,574.867 C 448.625,574.867 449.209,571.929 449.167,569.096 C 449.131,566.655 448.896,564.908 448.667,563.45 L 442.334,563.45"
         id="path435" />
    </clipPath>
    <linearGradient
       x1="0"
       y1="0"
       x2="1"
       y2="0"
       gradientUnits="userSpaceOnUse"
       gradientTransform="matrix(0,-9.5255,-11.4189,0,431.854,573.569)"
       spreadMethod="pad"
       id="linearGradient461">
      <stop
         style="stop-opacity:1;stop-color:#df0024"
         offset="0"
         id="stop463" />
      <stop
         style="stop-opacity:1;stop-color:#4864ac"
         offset="1"
         id="stop465" />
    </linearGradient>
    <linearGradient
       inkscape:collect="always"
       xlink:href="#linearGradient461"
       id="linearGradient4180"
       gradientUnits="userSpaceOnUse"
       gradientTransform="matrix(0,-9.5255,-11.4189,0,431.854,573.569)"
       spreadMethod="pad"
       x1="0"
       y1="0"
       x2="1"
       y2="0" />
    <clipPath
       clipPathUnits="userSpaceOnUse"
       id="clipPath453">
      <path
         d="M 423.042,563.184 C 423.042,563.184 422.523,567.237 422.479,569.2 C 422.436,571.163 422.824,574.518 422.824,574.518 L 429.792,574.518 C 429.792,574.518 429.636,569.918 429.667,568.637 C 429.693,567.543 429.854,563.262 429.854,563.262 L 423.042,563.184"
         id="path455" />
    </clipPath>
    <linearGradient
       x1="0"
       y1="0"
       x2="1"
       y2="0"
       gradientUnits="userSpaceOnUse"
       gradientTransform="matrix(0,-11.3479,-9.8955,0,431.125,574.758)"
       spreadMethod="pad"
       id="linearGradient481">
      <stop
         style="stop-opacity:1;stop-color:#ef837c"
         offset="0"
         id="stop483" />
      <stop
         style="stop-opacity:1;stop-color:#9096c7"
         offset="1"
         id="stop485" />
    </linearGradient>
    <linearGradient
       inkscape:collect="always"
       xlink:href="#linearGradient481"
       id="linearGradient4178"
       gradientUnits="userSpaceOnUse"
       gradientTransform="matrix(0,-11.3479,-9.8955,0,431.125,574.758)"
       spreadMethod="pad"
       x1="0"
       y1="0"
       x2="1"
       y2="0" />
    <clipPath
       clipPathUnits="userSpaceOnUse"
       id="clipPath473">
      <path
         d="M 423.625,574.804 C 423.625,574.804 423.229,571.929 423.292,569.075 C 423.345,566.657 423.751,563.429 423.834,562.887 L 429.125,562.887 C 429.125,562.887 428.928,566.553 428.875,568.992 C 428.812,571.867 429.062,574.846 429.062,574.846"
         id="path475" />
    </clipPath>
    <linearGradient
       x1="0"
       y1="0"
       x2="1"
       y2="0"
       gradientUnits="userSpaceOnUse"
       gradientTransform="matrix(0,-9.5243,11.4189,0,430.589,573.569)"
       spreadMethod="pad"
       id="linearGradient501">
      <stop
         style="stop-opacity:1;stop-color:#df0024"
         offset="0"
         id="stop503" />
      <stop
         style="stop-opacity:1;stop-color:#4864ac"
         offset="1"
         id="stop505" />
    </linearGradient>
    <linearGradient
       inkscape:collect="always"
       xlink:href="#linearGradient501"
       id="linearGradient4176"
       gradientUnits="userSpaceOnUse"
       gradientTransform="matrix(0,-9.5243,11.4189,0,430.589,573.569)"
       spreadMethod="pad"
       x1="0"
       y1="0"
       x2="1"
       y2="0" />
    <clipPath
       clipPathUnits="userSpaceOnUse"
       id="clipPath493">
      <path
         d="M 439.401,563.184 C 439.401,563.184 439.92,567.237 439.964,569.2 C 440.008,571.163 439.619,574.518 439.619,574.518 L 432.651,574.518 C 432.651,574.518 432.808,569.918 432.776,568.637 C 432.75,567.543 432.589,563.262 432.589,563.262 L 439.401,563.184"
         id="path495" />
    </clipPath>
    <linearGradient
       x1="0"
       y1="0"
       x2="1"
       y2="0"
       gradientUnits="userSpaceOnUse"
       gradientTransform="matrix(0,-11.3465,9.8955,0,431.318,574.758)"
       spreadMethod="pad"
       id="linearGradient521">
      <stop
         style="stop-opacity:1;stop-color:#ef837c"
         offset="0"
         id="stop523" />
      <stop
         style="stop-opacity:1;stop-color:#9096c7"
         offset="1"
         id="stop525" />
    </linearGradient>
    <linearGradient
       inkscape:collect="always"
       xlink:href="#linearGradient521"
       id="linearGradient4174"
       gradientUnits="userSpaceOnUse"
       gradientTransform="matrix(0,-11.3465,9.8955,0,431.318,574.758)"
       spreadMethod="pad"
       x1="0"
       y1="0"
       x2="1"
       y2="0" />
    <clipPath
       clipPathUnits="userSpaceOnUse"
       id="clipPath513">
      <path
         d="M 438.818,574.804 C 438.818,574.804 439.214,571.929 439.151,569.075 C 439.099,566.657 438.692,563.429 438.609,562.887 L 433.318,562.887 C 433.318,562.887 433.516,566.553 433.568,568.992 C 433.631,571.867 433.381,574.846 433.381,574.846"
         id="path515" />
    </clipPath>
    <inkscape:perspective
       sodipodi:type="inkscape:persp3d"
       inkscape:vp_x="0 : 526.18109 : 1"
       inkscape:vp_y="0 : 1000 : 0"
       inkscape:vp_z="744.09448 : 526.18109 : 1"
       inkscape:persp3d-origin="372.04724 : 350.78739 : 1"
       id="perspective4198" />
  </defs>
  <sodipodi:namedview
     id="base"
     pagecolor="#ffffff"
     bordercolor="#666666"
     borderopacity="1.0"
     gridtolerance="10000"
     guidetolerance="10"
     objecttolerance="10"
     inkscape:pageopacity="0.0"
     inkscape:pageshadow="2"
     inkscape:zoom="0.35"
     inkscape:cx="375"
     inkscape:cy="520"
     inkscape:document-units="px"
     inkscape:current-layer="layer1"
     showgrid="false"
     inkscape:window-width="640"
     inkscape:window-height="667"
     inkscape:window-x="88"
     inkscape:window-y="116" />
  <metadata
     id="metadata4195">
    <rdf:RDF>
      <cc:Work
         rdf:about="">
        <dc:format>image/svg+xml</dc:format>
        <dc:type
           rdf:resource="http://purl.org/dc/dcmitype/StillImage" />
      </cc:Work>
    </rdf:RDF>
  </metadata>
  <g
     inkscape:label="Layer 1"
     inkscape:groupmode="layer"
     id="layer1"
     transform="translate(117.28107,503.79247)">
    <path
       style="fill:#ef837c;fill-opacity:1;fill-rule:nonzero;stroke:none"
       d="M 698.58878,404.3026 L 698.58878,404.22201 L 547.23523,404.22201 C 535.17784,404.22201 525.40021,394.44886 525.40021,382.38699 L 525.40021,307.87028 C 559.29711,293.99441 584.02554,250.77675 584.02554,199.58209 C 584.02554,148.95171 559.84801,106.09688 526.52444,91.741752 L 529.23871,91.773102 C 530.38534,50.48589 576.26346,-13.16926 592.89838,-47.581273 C 609.53331,-81.98876 611.24429,-125.00039 611.24429,-125.00039 L 611.24429,-309.65959 C 611.24429,-348.61774 579.663,-380.20346 540.70041,-380.20346 L 540.70041,-380.30202 L 391.33551,-380.30202 C 369.17354,-380.30202 349.57801,-369.0732 338.04464,-351.99936 C 326.50681,-369.0732 306.96953,-380.30202 284.81203,-380.30202 L 100.04979,-380.30202 L 100.42602,-332.52477 L 284.81203,-332.52477 C 301.97994,-331.7768 304.21944,-317.59635 304.21944,-317.59635 C 304.21944,-317.59635 304.21944,-287.73501 304.21944,-278.77706 C 304.21944,-273.69341 296.76643,-268.37239 290.31671,-264.71754 C 246.77209,-246.21937 216.24786,-203.20329 216.24786,-153.07905 C 216.24786,-86.069098 270.79281,-31.752573 338.07151,-31.752573 C 405.35473,-31.752573 459.89519,-86.069098 459.89519,-153.07905 C 459.89519,-203.20329 429.37095,-246.22386 385.82638,-264.71754 C 379.37666,-268.37239 371.92809,-273.69341 371.92809,-278.77706 C 371.92809,-287.73501 371.92809,-317.59635 371.92809,-317.59635 C 371.92809,-317.59635 374.16314,-331.7768 391.33551,-332.52477 L 542.68905,-332.52477 C 554.74648,-332.52477 564.52406,-322.74717 564.52406,-310.68975 L 564.52406,-125.56026 C 564.52406,-125.56026 562.80863,-82.553098 546.1737,-48.141148 C 529.72243,-14.109873 484.69978,48.506215 482.59913,89.82029 C 446.68221,101.84184 420.0099,146.40766 420.0099,199.58209 C 420.0099,250.79916 444.76071,294.03471 478.68004,307.8837 L 478.68004,381.35235 C 478.68004,420.31494 510.26128,451.89623 549.22389,451.89623 L 549.22389,452.0037 L 698.58878,452.0037 C 707.10331,452.0037 714.00544,441.32583 714.00544,428.15764 C 714.00544,414.98498 707.10331,404.3026 698.58878,404.3026"
       id="path271" />
    <path
       style="fill:none;stroke:#e00024;stroke-width:3.35923147;stroke-linecap:round;stroke-linejoin:round;stroke-miterlimit:4;stroke-dasharray:none;stroke-opacity:1"
       d="M 698.58878,404.3026 L 698.58878,404.22201 L 547.23523,404.22201 C 535.17784,404.22201 525.40021,394.44886 525.40021,382.38699 L 525.40021,307.87028 C 559.29711,293.99441 584.02554,250.77675 584.02554,199.58209 C 584.02554,148.95171 559.84801,106.09688 526.52444,91.741752 L 529.23871,91.773102 C 530.38534,50.48589 576.26346,-13.16926 592.89838,-47.581273 C 609.53331,-81.98876 611.24429,-125.00039 611.24429,-125.00039 L 611.24429,-309.65959 C 611.24429,-348.61774 579.663,-380.20346 540.70041,-380.20346 L 540.70041,-380.30202 L 391.33551,-380.30202 C 369.17354,-380.30202 349.57801,-369.0732 338.04464,-351.99936 C 326.50681,-369.0732 306.96953,-380.30202 284.81203,-380.30202 L 100.04979,-380.30202 L 100.42602,-332.52477 L 284.81203,-332.52477 C 301.97994,-331.7768 304.21944,-317.59635 304.21944,-317.59635 C 304.21944,-317.59635 304.21944,-287.73501 304.21944,-278.77706 C 304.21944,-273.69341 296.76643,-268.37239 290.31671,-264.71754 C 246.77209,-246.21937 216.24786,-203.20329 216.24786,-153.07905 C 216.24786,-86.069098 270.79281,-31.752573 338.07151,-31.752573 C 405.35473,-31.752573 459.89519,-86.069098 459.89519,-153.07905 C 459.89519,-203.20329 429.37095,-246.22386 385.82638,-264.71754 C 379.37666,-268.37239 371.92809,-273.69341 371.92809,-278.77706 C 371.92809,-287.73501 371.92809,-317.59635 371.92809,-317.59635 C 371.92809,-317.59635 374.16314,-331.7768 391.33551,-332.52477 L 542.68905,-332.52477 C 554.74648,-332.52477 564.52406,-322.74717 564.52406,-310.68975 L 564.52406,-125.56026 C 564.52406,-125.56026 562.80863,-82.553098 546.1737,-48.141148 C 529.72243,-14.109873 484.69978,48.506215 482.59913,89.82029 C 446.68221,101.84184 420.0099,146.40766 420.0099,199.58209 C 420.0099,250.79916 444.76071,294.03471 478.68004,307.8837 L 478.68004,381.35235 C 478.68004,420.31494 510.26128,451.89623 549.22389,451.89623 L 549.22389,452.0037 L 698.58878,452.0037 C 707.10331,452.0037 714.00544,441.32583 714.00544,428.15764 C 714.00544,414.98498 707.10331,404.3026 698.58878,404.3026 z"
       id="path273" />
    <path
       style="fill:#9096c7;fill-opacity:1;fill-rule:nonzero;stroke:none"
       d="M 584.02554,199.58209 C 584.02554,250.77675 559.29711,293.99441 525.40021,307.87028 L 525.40021,382.38699 C 525.40021,394.44886 535.17784,404.22201 547.23523,404.22201 L 698.58878,404.22201 L 698.58878,404.3026 C 707.10331,404.3026 714.00544,414.98498 714.00544,428.15764 C 714.00544,441.32583 707.10331,452.0037 698.58878,452.0037 L 549.22389,452.0037 L 549.22389,451.89623 C 510.26128,451.89623 478.68004,420.31494 478.68004,381.35235 L 478.68004,307.8837 C 444.76071,294.03471 420.0099,250.79916 420.0099,199.58209 L 584.02554,199.58209"
       id="path275" />
    <path
       style="fill:none;stroke:#4864ac;stroke-width:3.35923147;stroke-linecap:butt;stroke-linejoin:miter;stroke-miterlimit:4;stroke-dasharray:none;stroke-opacity:1"
       d="M 584.02554,199.58209 C 584.02554,250.77675 559.29711,293.99441 525.40021,307.87028 L 525.40021,382.38699 C 525.40021,394.44886 535.17784,404.22201 547.23523,404.22201 L 698.58878,404.22201 L 698.58878,404.3026 C 707.10331,404.3026 714.00544,414.98498 714.00544,428.15764 C 714.00544,441.32583 707.10331,452.0037 698.58878,452.0037 L 549.22389,452.0037 L 549.22389,451.89623 C 510.26128,451.89623 478.68004,420.31494 478.68004,381.35235 L 478.68004,307.8837 C 444.76071,294.03471 420.0099,250.79916 420.0099,199.58209 L 584.02554,199.58209 z"
       id="path277" />
    <path
       style="fill:#ffffff;fill-opacity:1;fill-rule:nonzero;stroke:none"
       d="M 258.63689,-150.25731 C 258.63689,-150.25731 259.11165,-114.94506 276.59758,-91.318473 C 276.59758,-91.318473 284.80755,-79.37751 281.82456,-75.642048 C 276.77675,-69.340123 240.6717,-98.126535 238.47701,-152.20117 C 240.6717,-206.28035 276.77675,-235.06671 281.82456,-228.76035 C 284.80755,-225.02934 276.59758,-213.08392 276.59758,-213.08392 C 257.68288,-189.86489 258.63689,-150.25731 258.63689,-150.25731"
       id="path287" />
    <path
       style="fill:none;stroke:#e00024;stroke-width:3.35923147;stroke-linecap:round;stroke-linejoin:round;stroke-miterlimit:4;stroke-dasharray:none;stroke-opacity:1"
       d="M 258.63689,-150.25731 C 258.63689,-150.25731 259.11165,-114.94506 276.59758,-91.318473 C 276.59758,-91.318473 284.80755,-79.37751 281.82456,-75.642048 C 276.77675,-69.340123 240.6717,-98.126535 238.47701,-152.20117 C 240.6717,-206.28035 276.77675,-235.06671 281.82456,-228.76035 C 284.80755,-225.02934 276.59758,-213.08392 276.59758,-213.08392 C 257.68288,-189.86489 258.63689,-150.25731 258.63689,-150.25731 z"
       id="path289" />
    <path
       style="fill:#ffffff;fill-opacity:1;fill-rule:nonzero;stroke:none"
       d="M 300.59595,-152.20117 C 300.59595,-152.20117 300.62729,-125.91855 312.66679,-111.10656 C 312.66679,-111.10656 318.21174,-103.04442 316.19621,-100.52727 C 312.79219,-96.272223 288.4176,-115.70202 286.93954,-152.20117 C 288.4176,-188.70484 312.79219,-208.13465 316.19621,-203.87962 C 318.21174,-201.35794 312.66679,-193.30027 312.66679,-193.30027 C 299.67328,-177.93291 300.59595,-152.20117 300.59595,-152.20117"
       id="path291" />
    <path
       style="fill:none;stroke:#e00024;stroke-width:3.35923147;stroke-linecap:round;stroke-linejoin:round;stroke-miterlimit:4;stroke-dasharray:none;stroke-opacity:1"
       d="M 300.59595,-152.20117 C 300.59595,-152.20117 300.62729,-125.91855 312.66679,-111.10656 C 312.66679,-111.10656 318.21174,-103.04442 316.19621,-100.52727 C 312.79219,-96.272223 288.4176,-115.70202 286.93954,-152.20117 C 288.4176,-188.70484 312.79219,-208.13465 316.19621,-203.87962 C 318.21174,-201.35794 312.66679,-193.30027 312.66679,-193.30027 C 299.67328,-177.93291 300.59595,-152.20117 300.59595,-152.20117 z"
       id="path293" />
    <path
       style="fill:#ffcc00;fill-opacity:1;fill-rule:nonzero;stroke:#000000;stroke-width:7.16636181;stroke-miterlimit:4;stroke-dasharray:none;stroke-opacity:1"
       d="M 338.07151,518.45829 C 379.61401,515.44841 377.15059,488.61933 377.15059,488.61933 C 377.15059,488.61933 375.6591,282.58643 380.13808,185.54493 C 384.61704,88.498977 427.91529,42.217715 427.91529,42.217715 C 517.75463,-56.27941 533.91474,-123.50441 515.99884,-183.22707 C 498.08293,-242.94525 451.80616,-260.86115 445.8312,-254.8907 C 445.8312,-254.8907 441.21341,-248.49916 448.49619,-236.76425 C 448.49619,-236.76425 451.60463,-231.52835 452.13763,-230.69076 C 465.76714,-209.26782 473.67253,-183.75559 473.67253,-156.3756 C 473.67253,-80.506248 412.96449,-18.996448 338.07151,-18.996448 C 263.18304,-18.996448 202.47501,-80.506248 202.47501,-156.3756 C 202.47501,-183.75559 210.3804,-209.26782 224.00991,-230.69076 C 224.54294,-231.52835 227.64686,-236.76425 227.64686,-236.76425 C 234.92968,-248.49916 230.31634,-254.8907 230.31634,-254.8907 C 224.34139,-260.86115 178.0601,-242.94525 160.1442,-183.22707 C 142.22829,-123.50441 158.38845,-56.27941 248.23224,42.217715 C 248.23224,42.217715 291.52603,88.498977 296.00499,185.54493 C 300.48396,282.58643 298.99245,488.61933 298.99245,488.61933 C 298.99245,488.61933 296.529,515.44841 338.07151,518.45829"
       id="path295" />
    <path
       style="fill:#ffffff;fill-opacity:1;fill-rule:nonzero;stroke:none"
       d="M 416.58349,-151.21134 C 416.58349,-151.21134 417.03139,-114.94506 399.54546,-91.318473 C 399.54546,-91.318473 391.33551,-79.37751 394.32298,-75.642048 C 399.37079,-69.340123 435.47134,-98.126535 437.66604,-152.20117 C 435.47134,-206.28035 399.37079,-235.06671 394.32298,-228.76035 C 391.33551,-225.02934 399.54546,-213.08392 399.54546,-213.08392 C 418.46019,-189.86489 416.58349,-151.21134 416.58349,-151.21134"
       id="path299" />
    <path
       style="fill:none;stroke:#e00024;stroke-width:3.35923147;stroke-linecap:round;stroke-linejoin:round;stroke-miterlimit:4;stroke-dasharray:none;stroke-opacity:1"
       d="M 416.58349,-151.21134 C 416.58349,-151.21134 417.03139,-114.94506 399.54546,-91.318473 C 399.54546,-91.318473 391.33551,-79.37751 394.32298,-75.642048 C 399.37079,-69.340123 435.47134,-98.126535 437.66604,-152.20117 C 435.47134,-206.28035 399.37079,-235.06671 394.32298,-228.76035 C 391.33551,-225.02934 399.54546,-213.08392 399.54546,-213.08392 C 418.46019,-189.86489 416.58349,-151.21134 416.58349,-151.21134 z"
       id="path301" />
    <path
       style="fill:#ffffff;fill-opacity:1;fill-rule:nonzero;stroke:none"
       d="M 375.5516,-152.20117 C 375.5516,-152.20117 375.51576,-125.91855 363.4763,-111.10656 C 363.4763,-111.10656 357.93579,-103.04442 359.94683,-100.52727 C 363.35534,-96.272223 387.72994,-115.70202 389.208,-152.20117 C 387.72994,-188.70484 363.35534,-208.13465 359.94683,-203.87962 C 357.93579,-201.35794 363.4763,-193.30027 363.4763,-193.30027 C 376.46979,-177.93291 375.5516,-152.20117 375.5516,-152.20117"
       id="path303" />
    <path
       style="fill:none;stroke:#e00024;stroke-width:3.35923147;stroke-linecap:round;stroke-linejoin:round;stroke-miterlimit:4;stroke-dasharray:none;stroke-opacity:1"
       d="M 375.5516,-152.20117 C 375.5516,-152.20117 375.51576,-125.91855 363.4763,-111.10656 C 363.4763,-111.10656 357.93579,-103.04442 359.94683,-100.52727 C 363.35534,-96.272223 387.72994,-115.70202 389.208,-152.20117 C 387.72994,-188.70484 363.35534,-208.13465 359.94683,-203.87962 C 357.93579,-201.35794 363.4763,-193.30027 363.4763,-193.30027 C 376.46979,-177.93291 375.5516,-152.20117 375.5516,-152.20117 z"
       id="path305" />
    <path
       style="fill:#ffffff;fill-opacity:1;fill-rule:nonzero;stroke:none"
       d="M 346.7697,-152.20117 C 346.7697,-128.93291 342.873,-110.06749 338.07151,-110.06749 C 333.27006,-110.06749 329.37781,-128.93291 329.37781,-152.20117 C 329.37781,-175.47394 333.27006,-194.33941 338.07151,-194.33941 C 342.873,-194.33941 346.7697,-175.47394 346.7697,-152.20117"
       id="path307" />
    <path
       style="fill:none;stroke:#e00024;stroke-width:3.35923147;stroke-linecap:round;stroke-linejoin:round;stroke-miterlimit:4;stroke-dasharray:none;stroke-opacity:1"
       d="M 346.7697,-152.20117 C 346.7697,-128.93291 342.873,-110.06749 338.07151,-110.06749 C 333.27006,-110.06749 329.37781,-128.93291 329.37781,-152.20117 C 329.37781,-175.47394 333.27006,-194.33941 338.07151,-194.33941 C 342.873,-194.33941 346.7697,-175.47394 346.7697,-152.20117 z"
       id="path309" />
    <path
       style="fill:#ffffff;fill-opacity:1;fill-rule:nonzero;stroke:none"
       d="M 464.53989,199.57759 C 464.53989,199.57759 464.57571,237.16961 476.61521,258.34624 C 476.61521,258.34624 482.16016,269.87511 480.14464,273.47619 C 476.73614,279.56761 452.36604,251.78005 450.88799,199.57759 C 452.36604,147.3796 476.73614,119.5965 480.14464,125.67899 C 482.16016,129.28454 476.61521,140.81343 476.61521,140.81343 C 463.62171,162.78281 464.53989,199.57759 464.53989,199.57759"
       id="path311" />
    <path
       style="fill:#ffffff;fill-opacity:1;fill-rule:nonzero;stroke:none"
       d="M 539.50005,199.57759 C 539.50005,199.57759 539.46419,237.16961 527.42473,258.34624 C 527.42473,258.34624 521.88421,269.87511 523.89531,273.47619 C 527.29931,279.56761 551.67836,251.78005 553.15643,199.57759 C 551.67836,147.3796 527.29931,119.5965 523.89531,125.67899 C 521.88421,129.28454 527.42473,140.81343 527.42473,140.81343 C 540.41824,162.78281 539.50005,199.57759 539.50005,199.57759"
       id="path313" />
    <path
       style="fill:#ffffff;fill-opacity:1;fill-rule:nonzero;stroke:none"
       d="M 510.71364,199.57759 C 510.71364,232.85189 506.82143,259.83325 502.01994,259.83325 C 497.21404,259.83325 493.3218,232.85189 493.3218,199.57759 C 493.3218,166.30329 497.21404,139.3264 502.01994,139.3264 C 506.82143,139.3264 510.71364,166.30329 510.71364,199.57759"
       id="path315" />
    <path
       style="fill:none;stroke:#e00024;stroke-width:3.35923147;stroke-linecap:round;stroke-linejoin:round;stroke-miterlimit:4;stroke-dasharray:none;stroke-opacity:1"
       d="M 450.88799,199.57759 C 452.36604,147.3796 476.73614,119.5965 480.14464,125.67899 C 482.16016,129.28454 476.61521,140.81343 476.61521,140.81343 C 463.62171,162.78281 464.53989,199.57759 464.53989,199.57759 C 464.53989,199.57759 464.53989,199.89561 464.54888,200.47788"
       id="path3050" />
    <path
       style="fill:none;stroke:#e00024;stroke-width:3.35923147;stroke-linecap:round;stroke-linejoin:round;stroke-miterlimit:4;stroke-dasharray:none;stroke-opacity:1"
       d="M 553.15643,199.57759 C 551.67836,147.3796 527.29931,119.5965 523.89531,125.67899 C 521.88421,129.28454 527.42473,140.81343 527.42473,140.81343 C 540.41824,162.78281 539.50005,199.57759 539.50005,199.57759"
       id="path3048" />
    <path
       style="fill:none;stroke:#e00024;stroke-width:3.35923147;stroke-linecap:round;stroke-linejoin:round;stroke-miterlimit:4;stroke-dasharray:none;stroke-opacity:1"
       d="M 493.3218,199.57759 C 493.3218,166.30329 497.21404,139.3264 502.01994,139.3264 C 506.82143,139.3264 510.71364,166.30329 510.71364,199.57759"
       id="path317" />
    <path
       style="fill:none;stroke:#4864ac;stroke-width:3.35923147;stroke-linecap:butt;stroke-linejoin:miter;stroke-miterlimit:4;stroke-dasharray:none;stroke-opacity:1"
       d="M 464.6205,197.90693 C 464.6205,197.90693 464.57571,237.16961 476.61521,258.34624 C 476.61521,258.34624 482.16016,269.87511 480.14464,273.47619 C 476.73614,279.56761 452.24064,250.17656 450.76258,197.97858"
       id="path319" />
    <g
       id="g321"
       transform="matrix(4.478976,0,0,-4.478976,-1429.4131,2749.1587)">
      <g
         id="g323"
         clip-path="url(#clipPath325)">
        <path
           d="M 420.688,574.471 C 420.688,574.471 420.151,570.579 420.188,569.158 C 420.251,566.762 420.688,564.116 420.751,563.908 L 412.938,563.825 C 412.938,563.825 412.48,566.742 412.48,569.304 C 412.48,571.554 412.918,574.533 412.918,574.533 L 420.688,574.471"
           style="fill:#e00024;fill-opacity:1;fill-rule:nonzero;stroke:none"
           id="path329" />
        <g
           id="g331">
          <path
             d="M 420.688,574.471 C 420.688,574.471 420.151,570.579 420.188,569.158 C 420.251,566.762 420.688,564.116 420.751,563.908 L 412.938,563.825 C 412.938,563.825 412.48,566.742 412.48,569.304 C 412.48,571.554 412.918,574.533 412.918,574.533 L 420.688,574.471"
             style="fill:url(#linearGradient4188);stroke:none"
             id="path339" />
        </g>
      </g>
    </g>
    <g
       id="g341"
       transform="matrix(4.478976,0,0,-4.478976,-1429.4131,2749.1587)">
      <g
         id="g343"
         clip-path="url(#clipPath345)">
        <path
           d="M 420.084,563.45 C 420.084,563.45 419.418,567.262 419.438,569.221 C 419.459,571.179 419.855,574.409 420.001,574.867 C 420.146,575.325 413.793,574.867 413.793,574.867 C 413.793,574.867 413.209,571.929 413.251,569.096 C 413.287,566.655 413.522,564.908 413.751,563.45 L 420.084,563.45"
           style="fill:#ef837c;fill-opacity:1;fill-rule:nonzero;stroke:none"
           id="path349" />
        <g
           id="g351">
          <path
             d="M 420.084,563.45 C 420.084,563.45 419.418,567.262 419.438,569.221 C 419.459,571.179 419.855,574.409 420.001,574.867 C 420.146,575.325 413.793,574.867 413.793,574.867 C 413.793,574.867 413.209,571.929 413.251,569.096 C 413.287,566.655 413.522,564.908 413.751,563.45 L 420.084,563.45"
             style="fill:url(#linearGradient4186);stroke:none"
             id="path359" />
        </g>
      </g>
    </g>
    <path
       style="fill:none;stroke:#4864ac;stroke-width:3.35923147;stroke-linecap:butt;stroke-linejoin:miter;stroke-miterlimit:4;stroke-dasharray:none;stroke-opacity:1"
       d="M 539.50453,198.04575 C 539.50453,198.04575 539.46419,237.16961 527.42473,258.34624 C 527.42473,258.34624 521.88421,269.87511 523.89531,273.47619 C 527.29931,279.56761 551.6739,250.17656 553.15194,197.97858"
       id="path3042" />
    <path
       style="fill:none;stroke:#4864ac;stroke-width:3.35923147;stroke-linecap:butt;stroke-linejoin:miter;stroke-miterlimit:4;stroke-dasharray:none;stroke-opacity:1"
       d="M 510.74053,197.90693 C 510.74053,231.18123 506.82143,259.83325 502.01994,259.83325 C 497.21404,259.83325 493.24565,231.24844 493.24565,197.97858"
       id="path361" />
    <path
       style="fill:#f7b1a3;fill-opacity:1;fill-rule:nonzero;stroke:none"
       d="M 115.26935,-356.27679 C 115.26935,-343.10859 108.36725,-332.43069 99.852695,-332.43069 C 91.338185,-332.43069 84.436085,-343.10859 84.436085,-356.27679 C 84.436085,-369.44945 91.338185,-380.12734 99.852695,-380.12734 C 108.36725,-380.12734 115.26935,-369.44945 115.26935,-356.27679"
       id="path363" />
    <path
       style="fill:none;stroke:#e00024;stroke-width:3.35923147;stroke-linecap:butt;stroke-linejoin:miter;stroke-miterlimit:4;stroke-dasharray:none;stroke-opacity:1"
       d="M 115.26935,-356.27679 C 115.26935,-343.10859 108.36725,-332.43069 99.852695,-332.43069 C 91.338185,-332.43069 84.436085,-343.10859 84.436085,-356.27679 C 84.436085,-369.44945 91.338185,-380.12734 99.852695,-380.12734 C 108.36725,-380.12734 115.26935,-369.44945 115.26935,-356.27679 z"
       id="path365" />
    <path
       style="fill:#dd706a;fill-opacity:1;fill-rule:nonzero;stroke:none"
       d="M 107.56103,-356.27679 C 107.56103,-349.69269 104.11221,-344.35374 99.852695,-344.35374 C 95.593235,-344.35374 92.14439,-349.69269 92.14439,-356.27679 C 92.14439,-362.86534 95.593235,-368.1998 99.852695,-368.1998 C 104.11221,-368.1998 107.56103,-362.86534 107.56103,-356.27679"
       id="path367" />
    <path
       style="fill:none;stroke:#d10021;stroke-width:3.35923147;stroke-linecap:butt;stroke-linejoin:miter;stroke-miterlimit:4;stroke-dasharray:none;stroke-opacity:1"
       d="M 107.56103,-356.27679 C 107.56103,-349.69269 104.11221,-344.35374 99.852695,-344.35374 C 95.593235,-344.35374 92.14439,-349.69269 92.14439,-356.27679 C 92.14439,-362.86534 95.593235,-368.1998 99.852695,-368.1998 C 104.11221,-368.1998 107.56103,-362.86534 107.56103,-356.27679 z"
       id="path369" />
    <path
       style="fill:#ffffff;fill-opacity:1;fill-rule:nonzero;stroke:none"
       d="M 789.18951,428.65035 L 749.68494,405.84338 L 749.68494,419.20866 L 646.95516,419.20866 L 646.95516,438.08756 L 749.68494,438.08756 L 749.68494,451.46621 L 789.18951,428.65035"
       id="path371" />
    <path
       style="fill:none;stroke:#000000;stroke-width:4.47897625;stroke-linecap:butt;stroke-linejoin:miter;stroke-miterlimit:4;stroke-dasharray:none;stroke-opacity:1"
       d="M 789.18951,428.65035 L 749.68494,405.84338 L 749.68494,419.20866 L 646.95516,419.20866 L 646.95516,438.08756 L 749.68494,438.08756 L 749.68494,451.46621 L 789.18951,428.65035 z"
       id="path373" />
    <path
       style="fill:#ffffff;fill-opacity:1;fill-rule:nonzero;stroke:none"
       d="M 338.07151,596.34321 L 315.2646,556.83864 L 328.63433,556.83864 L 328.63433,454.10884 L 347.51323,454.10884 L 347.51323,556.83864 L 360.88744,556.83864 L 338.07151,596.34321"
       id="path375" />
    <path
       style="fill:none;stroke:#000000;stroke-width:4.47897625;stroke-linecap:butt;stroke-linejoin:miter;stroke-miterlimit:4;stroke-dasharray:none;stroke-opacity:1"
       d="M 338.07151,596.34321 L 315.2646,556.83864 L 328.63433,556.83864 L 328.63433,454.10884 L 347.51323,454.10884 L 347.51323,556.83864 L 360.88744,556.83864 L 338.07151,596.34321 z"
       id="path377" />
    <path
       style="fill:#ffffff;fill-opacity:1;fill-rule:nonzero;stroke:none"
       d="M 338.07151,72.352277 L 315.2646,32.847715 L 328.63433,32.847715 L 328.63433,-69.877623 L 347.51323,-69.877623 L 347.51323,32.847715 L 360.88744,32.847715 L 338.07151,72.352277"
       id="path379" />
    <path
       style="fill:none;stroke:#000000;stroke-width:4.47897625;stroke-linecap:butt;stroke-linejoin:miter;stroke-miterlimit:4;stroke-dasharray:none;stroke-opacity:1"
       d="M 338.07151,72.352277 L 315.2646,32.847715 L 328.63433,32.847715 L 328.63433,-69.877623 L 347.51323,-69.877623 L 347.51323,32.847715 L 360.88744,32.847715 L 338.07151,72.352277 z"
       id="path381" />
    <path
       style="fill:#ffffff;fill-opacity:1;fill-rule:nonzero;stroke:none"
       d="M 440.42959,187.88745 L 394.87839,190.25685 L 400.95186,178.34725 L 347.90286,151.51816 L 356.48011,134.69961 L 409.52909,161.53316 L 415.60708,149.61461 L 440.42959,187.88745"
       id="path383" />
    <path
       style="fill:none;stroke:#000000;stroke-width:4.47897625;stroke-linecap:butt;stroke-linejoin:miter;stroke-miterlimit:4;stroke-dasharray:none;stroke-opacity:1"
       d="M 440.42959,187.88745 L 394.87839,190.25685 L 400.95186,178.34725 L 347.90286,151.51816 L 356.48011,134.69961 L 409.52909,161.53316 L 415.60708,149.61461 L 440.42959,187.88745 z"
       id="path385" />
    <path
       style="fill:#ffffff;fill-opacity:1;fill-rule:nonzero;stroke:none"
       d="M 351.38754,288.27475 L 396.93871,290.63519 L 390.86524,278.73003 L 443.91421,251.90099 L 435.34146,235.08241 L 382.28799,261.91596 L 376.21001,250.00189 L 351.38754,288.27475"
       id="path387" />
    <path
       style="fill:none;stroke:#000000;stroke-width:4.47897625;stroke-linecap:butt;stroke-linejoin:miter;stroke-miterlimit:4;stroke-dasharray:none;stroke-opacity:1"
       d="M 351.38754,288.27475 L 396.93871,290.63519 L 390.86524,278.73003 L 443.91421,251.90099 L 435.34146,235.08241 L 382.28799,261.91596 L 376.21001,250.00189 L 351.38754,288.27475 z"
       id="path389" />
    <path
       style="fill:#ffffff;fill-opacity:1;fill-rule:nonzero;stroke:none"
       d="M 100.49771,-357.62047 L 60.988644,-334.81351 L 60.988644,-348.17877 L -41.736681,-348.17877 L -41.736681,-367.05769 L 60.988644,-367.05769 L 60.988644,-380.43189 L 100.49771,-357.62047"
       id="path391" />
    <path
       style="fill:none;stroke:#000000;stroke-width:4.47897625;stroke-linecap:butt;stroke-linejoin:miter;stroke-miterlimit:4;stroke-dasharray:none;stroke-opacity:1"
       d="M 100.49771,-357.62047 L 60.988644,-334.81351 L 60.988644,-348.17877 L -41.736681,-348.17877 L -41.736681,-367.05769 L 60.988644,-367.05769 L 60.988644,-380.43189 L 100.49771,-357.62047 z"
       id="path393" />
    <path
       style="fill:none;stroke:#000000;stroke-width:3.35923147;stroke-linecap:butt;stroke-linejoin:miter;stroke-miterlimit:4;stroke-dasharray:none;stroke-opacity:1"
       d="M 187.1838,-407.29679 L 187.1838,-370.87377"
       id="path3006" />
    <path
       style="fill:none;stroke:#000000;stroke-width:3.35923147;stroke-linecap:butt;stroke-linejoin:miter;stroke-miterlimit:4;stroke-dasharray:none;stroke-opacity:1"
       d="M 488.9772,-407.29679 L 488.9772,-370.87377"
       id="path3004" />
    <path
       style="fill:none;stroke:#000000;stroke-width:3.35923147;stroke-linecap:butt;stroke-linejoin:miter;stroke-miterlimit:4;stroke-dasharray:none;stroke-opacity:1"
       d="M 637.54483,182.43655 L 577.68331,182.43655"
       id="path3002" />
    <path
       style="fill:none;stroke:#000000;stroke-width:3.35923147;stroke-linecap:butt;stroke-linejoin:miter;stroke-miterlimit:4;stroke-dasharray:none;stroke-opacity:1"
       d="M 91.468085,-251.15524 L 237.77831,-201.14299"
       id="path3000" />
    <path
       style="fill:none;stroke:#000000;stroke-width:3.35923147;stroke-linecap:butt;stroke-linejoin:miter;stroke-miterlimit:4;stroke-dasharray:none;stroke-opacity:1"
       d="M 92.68634,-29.212985 L 237.77831,-28.70241"
       id="path395" />
    <g
       id="g409"
       transform="matrix(4.478976,0,0,-4.478976,-1429.4131,2749.1587)">
      <g
         id="g411"
         clip-path="url(#clipPath413)">
        <path
           d="M 441.729,574.471 C 441.729,574.471 442.267,570.579 442.229,569.158 C 442.167,566.762 441.729,564.116 441.667,563.908 L 449.479,563.825 C 449.479,563.825 449.938,566.742 449.938,569.304 C 449.938,571.554 449.5,574.533 449.5,574.533 L 441.729,574.471"
           style="fill:#e00024;fill-opacity:1;fill-rule:nonzero;stroke:none"
           id="path417" />
        <g
           id="g419">
          <path
             d="M 441.729,574.471 C 441.729,574.471 442.267,570.579 442.229,569.158 C 442.167,566.762 441.729,564.116 441.667,563.908 L 449.479,563.825 C 449.479,563.825 449.938,566.742 449.938,569.304 C 449.938,571.554 449.5,574.533 449.5,574.533 L 441.729,574.471"
             style="fill:url(#linearGradient4184);stroke:none"
             id="path427" />
        </g>
      </g>
    </g>
    <g
       id="g429"
       transform="matrix(4.478976,0,0,-4.478976,-1429.4131,2749.1587)">
      <g
         id="g431"
         clip-path="url(#clipPath433)">
        <path
           d="M 442.334,563.45 C 442.334,563.45 443,567.262 442.979,569.221 C 442.959,571.179 442.562,574.409 442.417,574.867 C 442.271,575.325 448.625,574.867 448.625,574.867 C 448.625,574.867 449.209,571.929 449.167,569.096 C 449.131,566.655 448.896,564.908 448.667,563.45 L 442.334,563.45"
           style="fill:#ef837c;fill-opacity:1;fill-rule:nonzero;stroke:none"
           id="path437" />
        <g
           id="g439">
          <path
             d="M 442.334,563.45 C 442.334,563.45 443,567.262 442.979,569.221 C 442.959,571.179 442.562,574.409 442.417,574.867 C 442.271,575.325 448.625,574.867 448.625,574.867 C 448.625,574.867 449.209,571.929 449.167,569.096 C 449.131,566.655 448.896,564.908 448.667,563.45 L 442.334,563.45"
             style="fill:url(#linearGradient4182);stroke:none"
             id="path447" />
        </g>
      </g>
    </g>
    <g
       id="g449"
       transform="matrix(4.478976,0,0,-4.478976,-1429.4131,2749.1587)">
      <g
         id="g451"
         clip-path="url(#clipPath453)">
        <path
           d="M 423.042,563.184 C 423.042,563.184 422.523,567.237 422.479,569.2 C 422.436,571.163 422.824,574.518 422.824,574.518 L 429.792,574.518 C 429.792,574.518 429.636,569.918 429.667,568.637 C 429.693,567.543 429.854,563.262 429.854,563.262 L 423.042,563.184"
           style="fill:#e00024;fill-opacity:1;fill-rule:nonzero;stroke:none"
           id="path457" />
        <g
           id="g459">
          <path
             d="M 423.042,563.184 C 423.042,563.184 422.523,567.237 422.479,569.2 C 422.436,571.163 422.824,574.518 422.824,574.518 L 429.792,574.518 C 429.792,574.518 429.636,569.918 429.667,568.637 C 429.693,567.543 429.854,563.262 429.854,563.262 L 423.042,563.184"
             style="fill:url(#linearGradient4180);stroke:none"
             id="path467" />
        </g>
      </g>
    </g>
    <g
       id="g469"
       transform="matrix(4.478976,0,0,-4.478976,-1429.4131,2749.1587)">
      <g
         id="g471"
         clip-path="url(#clipPath473)">
        <path
           d="M 423.625,574.804 C 423.625,574.804 423.229,571.929 423.292,569.075 C 423.345,566.657 423.751,563.429 423.834,562.887 L 429.125,562.887 C 429.125,562.887 428.928,566.553 428.875,568.992 C 428.812,571.867 429.062,574.846 429.062,574.846"
           style="fill:#ef837c;fill-opacity:1;fill-rule:nonzero;stroke:none"
           id="path477" />
        <g
           id="g479">
          <path
             d="M 423.625,574.804 C 423.625,574.804 423.229,571.929 423.292,569.075 C 423.345,566.657 423.751,563.429 423.834,562.887 L 429.125,562.887 C 429.125,562.887 428.928,566.553 428.875,568.992 C 428.812,571.867 429.062,574.846 429.062,574.846"
             style="fill:url(#linearGradient4178);stroke:none"
             id="path487" />
        </g>
      </g>
    </g>
    <g
       id="g489"
       transform="matrix(4.478976,0,0,-4.478976,-1429.4131,2749.1587)">
      <g
         id="g491"
         clip-path="url(#clipPath493)">
        <path
           d="M 439.401,563.184 C 439.401,563.184 439.92,567.237 439.964,569.2 C 440.008,571.163 439.619,574.518 439.619,574.518 L 432.651,574.518 C 432.651,574.518 432.808,569.918 432.776,568.637 C 432.75,567.543 432.589,563.262 432.589,563.262 L 439.401,563.184"
           style="fill:#e00024;fill-opacity:1;fill-rule:nonzero;stroke:none"
           id="path497" />
        <g
           id="g499">
          <path
             d="M 439.401,563.184 C 439.401,563.184 439.92,567.237 439.964,569.2 C 440.008,571.163 439.619,574.518 439.619,574.518 L 432.651,574.518 C 432.651,574.518 432.808,569.918 432.776,568.637 C 432.75,567.543 432.589,563.262 432.589,563.262 L 439.401,563.184"
             style="fill:url(#linearGradient4176);stroke:none"
             id="path507" />
        </g>
      </g>
    </g>
    <g
       id="g509"
       transform="matrix(4.478976,0,0,-4.478976,-1429.4131,2749.1587)">
      <g
         id="g511"
         clip-path="url(#clipPath513)">
        <path
           d="M 438.818,574.804 C 438.818,574.804 439.214,571.929 439.151,569.075 C 439.099,566.657 438.692,563.429 438.609,562.887 L 433.318,562.887 C 433.318,562.887 433.516,566.553 433.568,568.992 C 433.631,571.867 433.381,574.846 433.381,574.846"
           style="fill:#ef837c;fill-opacity:1;fill-rule:nonzero;stroke:none"
           id="path517" />
        <g
           id="g519">
          <path
             d="M 438.818,574.804 C 438.818,574.804 439.214,571.929 439.151,569.075 C 439.099,566.657 438.692,563.429 438.609,562.887 L 433.318,562.887 C 433.318,562.887 433.516,566.553 433.568,568.992 C 433.631,571.867 433.381,574.846 433.381,574.846"
             style="fill:url(#linearGradient4174);stroke:none"
             id="path527" />
        </g>
      </g>
    </g>
    <text
       xml:space="preserve"
       style="font-size:40.81467056px;font-style:normal;font-weight:normal;fill:#000000;fill-opacity:1;stroke:none;stroke-width:1px;stroke-linecap:butt;stroke-linejoin:miter;stroke-opacity:1;font-family:Bitstream Vera Sans"
       x="642.6438"
       y="164.20248"
       id="text3868"><tspan
         sodipodi:role="line"
         id="tspan3870"
         x="642.6438"
         y="164.20248">Peritubular</tspan><tspan
         sodipodi:role="line"
         x="642.6438"
         y="215.22083"
         id="tspan3872">capillaries</tspan></text>
    <text
       xml:space="preserve"
       style="font-size:40.81467056px;font-style:normal;font-weight:normal;fill:#000000;fill-opacity:1;stroke:none;stroke-width:1px;stroke-linecap:butt;stroke-linejoin:miter;stroke-opacity:1;font-family:Bitstream Vera Sans"
       x="803.9342"
       y="418.20691"
       id="text3874"><tspan
         sodipodi:role="line"
         id="tspan3876"
         x="803.9342"
         y="418.20691">Renal</tspan><tspan
         sodipodi:role="line"
         x="803.9342"
         y="469.22525"
         id="tspan3878">vein</tspan></text>
    <text
       xml:space="preserve"
       style="font-size:40.81467056px;font-style:normal;font-weight:normal;fill:#000000;fill-opacity:1;stroke:none;stroke-width:1px;stroke-linecap:butt;stroke-linejoin:miter;stroke-opacity:1;font-family:Bitstream Vera Sans"
       x="200.30815"
       y="648.15186"
       id="text3880"><tspan
         sodipodi:role="line"
         id="tspan3882"
         x="200.30815"
         y="648.15186">Urinary excretion</tspan></text>
    <text
       xml:space="preserve"
       style="font-size:40.81467056px;font-style:normal;font-weight:normal;fill:#000000;fill-opacity:1;stroke:none;stroke-width:1px;stroke-linecap:butt;stroke-linejoin:miter;stroke-opacity:1;font-family:Bitstream Vera Sans"
       x="-16.159826"
       y="708.97717"
       id="text3884"><tspan
         sodipodi:role="line"
         id="tspan3886"
         x="-16.159826"
         y="708.97717">Excretion = Filtration – Reabsorption + Secretion </tspan></text>
    <text
       xml:space="preserve"
       style="font-size:40.81467056px;font-style:normal;font-weight:normal;fill:#000000;fill-opacity:1;stroke:none;stroke-width:1px;stroke-linecap:butt;stroke-linejoin:miter;stroke-opacity:1;font-family:Bitstream Vera Sans"
       x="356.46539"
       y="26.402224"
       id="text3888"><tspan
         sodipodi:role="line"
         id="tspan3890"
         x="356.46539"
         y="26.402224">1</tspan></text>
    <text
       xml:space="preserve"
       style="font-size:40.81467056px;font-style:normal;font-weight:normal;fill:#000000;fill-opacity:1;stroke:none;stroke-width:1px;stroke-linecap:butt;stroke-linejoin:miter;stroke-opacity:1;font-family:Bitstream Vera Sans"
       x="357.97342"
       y="126.52933"
       id="text3892"><tspan
         sodipodi:role="line"
         id="tspan3894"
         x="357.97342"
         y="126.52933">2</tspan></text>
    <text
       xml:space="preserve"
       style="font-size:40.81467056px;font-style:normal;font-weight:normal;fill:#000000;fill-opacity:1;stroke:none;stroke-width:1px;stroke-linecap:butt;stroke-linejoin:miter;stroke-opacity:1;font-family:Bitstream Vera Sans"
       x="344.14941"
       y="330.02615"
       id="text3896"><tspan
         sodipodi:role="line"
         id="tspan3898"
         x="344.14941"
         y="330.02615">3</tspan></text>
    <text
       xml:space="preserve"
       style="font-size:40.81467056px;font-style:normal;font-weight:normal;fill:#000000;fill-opacity:1;stroke:none;stroke-width:1px;stroke-linecap:butt;stroke-linejoin:miter;stroke-opacity:1;font-family:Bitstream Vera Sans"
       x="315.42126"
       y="442.72351"
       id="text3900"><tspan
         sodipodi:role="line"
         id="tspan3902"
         x="315.42126"
         y="442.72351">4</tspan></text>
    <text
       xml:space="preserve"
       style="font-size:40.81467056px;font-style:normal;font-weight:normal;fill:#000000;fill-opacity:1;stroke:none;stroke-width:1px;stroke-linecap:butt;stroke-linejoin:miter;stroke-opacity:1;font-family:Bitstream Vera Sans"
       x="643.20624"
       y="-317.92096"
       id="text3904"><tspan
         sodipodi:role="line"
         id="tspan3906"
         x="643.20624"
         y="-317.92096">1. Filtration</tspan><tspan
         sodipodi:role="line"
         x="643.20624"
         y="-266.90262"
         id="tspan3908">2. Reabsorption</tspan><tspan
         sodipodi:role="line"
         x="643.20624"
         y="-215.88428"
         id="tspan3910">3. Secretion</tspan><tspan
         sodipodi:role="line"
         x="643.20624"
         y="-164.86595"
         id="tspan3912">4. Excretion</tspan></text>
    <text
       xml:space="preserve"
       style="font-size:40.81467056px;font-style:normal;font-weight:normal;fill:#000000;fill-opacity:1;stroke:none;stroke-width:1px;stroke-linecap:butt;stroke-linejoin:miter;stroke-opacity:1;font-family:Bitstream Vera Sans"
       x="-93.842773"
       y="-50.590801"
       id="text3914"><tspan
         sodipodi:role="line"
         id="tspan3916"
         x="-93.842773"
         y="-50.590801">Bowman's</tspan><tspan
         sodipodi:role="line"
         x="-93.842773"
         y="0.42753696"
         id="tspan3918">capsule</tspan></text>
    <text
       xml:space="preserve"
       style="font-size:40.81467056px;font-style:normal;font-weight:normal;fill:#000000;fill-opacity:1;stroke:none;stroke-width:1px;stroke-linecap:butt;stroke-linejoin:miter;stroke-opacity:1;font-family:Bitstream Vera Sans"
       x="417.30328"
       y="-473.17007"
       id="text3920"><tspan
         sodipodi:role="line"
         id="tspan3922"
         x="417.30328"
         y="-473.17007">Efferent</tspan><tspan
         sodipodi:role="line"
         x="417.30328"
         y="-422.15173"
         id="tspan3924">arteriole</tspan></text>
    <text
       xml:space="preserve"
       style="font-size:40.81467056px;font-style:normal;font-weight:normal;fill:#000000;fill-opacity:1;stroke:none;stroke-width:1px;stroke-linecap:butt;stroke-linejoin:miter;stroke-opacity:1;font-family:Bitstream Vera Sans"
       x="118.26362"
       y="-474.07828"
       id="text3926"><tspan
         sodipodi:role="line"
         id="tspan3928"
         x="118.26362"
         y="-474.07828">Afferent</tspan><tspan
         sodipodi:role="line"
         x="118.26362"
         y="-423.05994"
         id="tspan3930">arteriole</tspan></text>
    <text
       xml:space="preserve"
       style="font-size:40.81467056px;font-style:normal;font-weight:normal;fill:#000000;fill-opacity:1;stroke:none;stroke-width:1px;stroke-linecap:butt;stroke-linejoin:miter;stroke-opacity:1;font-family:Bitstream Vera Sans"
       x="-118.87539"
       y="-250.5136"
       id="text4168"><tspan
         sodipodi:role="line"
         id="tspan4170"
         x="-118.87539"
         y="-250.5136">Glomerular</tspan><tspan
         sodipodi:role="line"
         x="-118.87539"
         y="-199.49525"
         id="tspan4172">capillaries</tspan></text>
  </g>
</svg>
