<?xml version="1.0" encoding="UTF-8" standalone="no"?>
<!-- Generator: Adobe Illustrator 12.0.1, SVG Export Plug-In . SVG Version: 6.00 Build 51448)  -->
<svg
   xmlns:dc="http://purl.org/dc/elements/1.1/"
   xmlns:cc="http://creativecommons.org/ns#"
   xmlns:rdf="http://www.w3.org/1999/02/22-rdf-syntax-ns#"
   xmlns:svg="http://www.w3.org/2000/svg"
   xmlns="http://www.w3.org/2000/svg"
   xmlns:sodipodi="http://sodipodi.sourceforge.net/DTD/sodipodi-0.dtd"
   xmlns:inkscape="http://www.inkscape.org/namespaces/inkscape"
   version="1.1"
   id="Layer_1"
   width="513.472"
   height="252.984"
   viewBox="0 0 513.472 252.984"
   style="overflow:visible;enable-background:new 0 0 513.472 252.984;"
   xml:space="preserve"
   sodipodi:version="0.32"
   inkscape:version="0.46"
   sodipodi:docname="Adenosintriphosphat.svg"
   inkscape:output_extension="org.inkscape.output.svg.inkscape"><metadata
   id="metadata188"><rdf:RDF><cc:Work
       rdf:about=""><dc:format>image/svg+xml</dc:format><dc:type
         rdf:resource="http://purl.org/dc/dcmitype/StillImage" /></cc:Work></rdf:RDF></metadata><defs
   id="defs186"><inkscape:perspective
   sodipodi:type="inkscape:persp3d"
   inkscape:vp_x="0 : 126.492 : 1"
   inkscape:vp_y="0 : 1000 : 0"
   inkscape:vp_z="513.47198 : 126.492 : 1"
   inkscape:persp3d-origin="256.73599 : 84.327998 : 1"
   id="perspective190" />
	

	
	

	
	

	

	

	

	

	

	
	

	

	

	

	
	

	

	

	

	
	

	

	

	
	

	

	
	
</defs><sodipodi:namedview
   inkscape:window-height="675"
   inkscape:window-width="661"
   inkscape:pageshadow="2"
   inkscape:pageopacity="0.0"
   guidetolerance="10.0"
   gridtolerance="10.0"
   objecttolerance="10.0"
   borderopacity="1.0"
   bordercolor="#666666"
   pagecolor="#ffffff"
   id="base"
   showgrid="false"
   inkscape:zoom="1.0594541"
   inkscape:cx="256.73599"
   inkscape:cy="126.492"
   inkscape:window-x="132"
   inkscape:window-y="132"
   inkscape:current-layer="Layer_1" />
<path
   style="fill:#231f20"
   d="M 365.82165,197.30978 L 368.57665,199.73227 L 367.7682,202.15478 L 320.3632,202.15478 L 319.5557,199.73227 L 322.31165,197.30978 L 365.82165,197.30978 z"
   id="polygon3" />
<path
   style="fill:#231f20"
   d="M 294.23915,157.45728 L 295.04665,157.26728 L 296.23415,157.59977 L 322.31165,197.30978 L 319.5557,199.73227 L 318.74915,206.19227 L 294.23915,157.45728 z"
   id="polygon5" />
<path
   style="fill:#231f20"
   d="M 391.89915,157.59977 L 393.08665,157.26728 L 393.8932,157.45728 L 369.38415,206.19227 L 368.57665,199.73227 L 365.82165,197.30978 L 391.89915,157.59977 z"
   id="polygon7" />
<path
   style="fill:#231f20"
   d="M 333.85415,136.79477 L 334.56665,138.26728 L 296.23415,157.59977 L 295.04665,157.26728 L 295.85415,155.93727 L 333.85415,136.79477 z"
   id="polygon9" />
<path
   id="path13"
   d="M 335.85485,133.78803 C 335.85485,131.07767 336.58255,128.95728 338.0389,127.42493 C 339.49335,125.89163 341.3734,125.12498 343.6743,125.12498 C 345.1829,125.12498 346.5414,125.48503 347.75075,126.20513 C 348.96105,126.92618 349.88445,127.92938 350.51905,129.21758 C 351.15365,130.50578 351.47095,131.96688 351.47095,133.59898 C 351.47095,135.25483 351.13655,136.73588 350.4687,138.04213 C 349.80085,139.34838 348.8537,140.33828 347.6282,141.00993 C 346.40365,141.68158 345.08125,142.01788 343.6629,142.01788 C 342.12675,142.01788 340.7521,141.64642 339.5418,140.90448 C 338.3315,140.16253 337.4157,139.14793 336.7906,137.86447 C 336.1655,136.58103 335.85485,135.22158 335.85485,133.78803 z M 338.0807,133.81557 C 338.0807,135.78207 338.60985,137.33152 339.6691,138.46393 C 340.72645,139.59538 342.0555,140.16157 343.65055,140.16157 C 345.2779,140.16157 346.6155,139.58967 347.6681,138.44683 C 348.71785,137.30398 349.2432,135.68233 349.2432,133.58188 C 349.2432,132.25377 349.019,131.09383 348.56965,130.10298 C 348.1203,129.11213 347.4629,128.34358 346.59745,127.79828 C 345.73295,127.25298 344.76205,126.98033 343.68475,126.98033 C 342.1562,126.98033 340.83855,127.50568 339.73655,128.55543 C 338.6317,129.60613 338.0807,131.35888 338.0807,133.81557 z"
   style="fill:#231f20" />
<path
   style="fill:#231f20"
   d="M 352.85415,138.21977 L 353.56665,136.74728 L 392.27915,155.98478 L 393.08665,157.26728 L 391.89915,157.59977 L 352.85415,138.21977 z"
   id="polygon15" />
<path
   style="fill:#231f20"
   d="M 294.23915,120.02823 L 295.85415,119.07823 L 295.85415,155.93727 L 295.04665,157.26728 L 294.23915,157.45728 L 294.23915,120.02823 z"
   id="polygon17" />
<path
   id="path21"
   d="M 360.74485,238.43052 C 360.74485,235.72017 361.47255,233.59977 362.92795,232.06742 C 364.38335,230.53412 366.26245,229.76747 368.5643,229.76747 C 370.07195,229.76747 371.43045,230.12752 372.64075,230.84762 C 373.85105,231.56867 374.7735,232.57188 375.4081,233.86007 C 376.04365,235.14732 376.36095,236.60938 376.36095,238.24147 C 376.36095,239.89732 376.02655,241.37838 375.35775,242.68463 C 374.6899,243.99088 373.7437,244.98077 372.5182,245.65242 C 371.2927,246.32407 369.97125,246.66038 368.5529,246.66038 C 367.0158,246.66038 365.6421,246.28892 364.4318,245.54697 C 363.2215,244.80503 362.30475,243.79042 361.6806,242.50697 C 361.05645,241.22257 360.74485,239.86407 360.74485,238.43052 z M 362.97165,238.45902 C 362.97165,240.42552 363.5008,241.97498 364.5591,243.10737 C 365.6174,244.23978 366.9455,244.80503 368.5415,244.80503 C 370.1679,244.80503 371.50645,244.23313 372.5581,243.09027 C 373.60785,241.94742 374.13415,240.32577 374.13415,238.22532 C 374.13415,236.89722 373.90995,235.73727 373.45965,234.74642 C 373.0103,233.75557 372.35385,232.98703 371.4884,232.44172 C 370.62295,231.89642 369.65205,231.62377 368.5757,231.62377 C 367.0462,231.62377 365.7295,232.14912 364.62655,233.19887 C 363.5236,234.24862 362.97165,236.00232 362.97165,238.45902 z"
   style="fill:#231f20" /><path
   id="path23"
   d="M 379.2214,246.37822 L 379.2214,230.04962 L 381.38835,230.04962 L 381.38835,236.75947 L 389.8348,236.75947 L 389.8348,230.04962 L 392.00175,230.04962 L 392.00175,246.37822 L 389.8348,246.37822 L 389.8348,238.68892 L 381.38835,238.68892 L 381.38835,246.37822 L 379.2214,246.37822 z"
   style="fill:#231f20" />
<path
   style="fill:#231f20"
   d="M 369.38415,227.61572 L 367.7682,227.61572 L 367.7682,202.15478 L 368.57665,199.73227 L 369.38415,206.19227 L 369.38415,227.61572 z"
   id="polygon25" />
<path
   id="path29"
   d="M 311.77235,238.43052 C 311.77235,235.72017 312.50005,233.59977 313.95545,232.06742 C 315.41085,230.53412 317.28995,229.76747 319.5918,229.76747 C 321.09945,229.76747 322.4589,230.12752 323.66825,230.84762 C 324.8776,231.56867 325.801,232.57188 326.43655,233.86007 C 327.07115,235.14732 327.38845,236.60938 327.38845,238.24147 C 327.38845,239.89732 327.05405,241.37838 326.3862,242.68463 C 325.7174,243.99088 324.77025,244.98077 323.5457,245.65242 C 322.3202,246.32407 320.9978,246.66038 319.5804,246.66038 C 318.0433,246.66038 316.6696,246.28892 315.4593,245.54697 C 314.249,244.80503 313.33225,243.79042 312.7081,242.50697 C 312.08395,241.22257 311.77235,239.86407 311.77235,238.43052 z M 313.99915,238.45902 C 313.99915,240.42552 314.5283,241.97498 315.5866,243.10737 C 316.6449,244.23978 317.973,244.80503 319.569,244.80503 C 321.1954,244.80503 322.53395,244.23313 323.5856,243.09027 C 324.63725,241.94742 325.16165,240.32577 325.16165,238.22532 C 325.16165,236.89722 324.93745,235.73727 324.4881,234.74642 C 324.0378,233.75557 323.3804,232.98703 322.5159,232.44172 C 321.6514,231.89642 320.67955,231.62377 319.6032,231.62377 C 318.0737,231.62377 316.757,232.14912 315.65405,233.19887 C 314.5511,234.24862 313.99915,236.00232 313.99915,238.45902 z"
   style="fill:#231f20" /><path
   id="path31"
   d="M 330.2489,246.37822 L 330.2489,230.04962 L 332.41585,230.04962 L 332.41585,236.75947 L 340.8623,236.75947 L 340.8623,230.04962 L 343.02925,230.04962 L 343.02925,246.37822 L 340.8623,246.37822 L 340.8623,238.68892 L 332.41585,238.68892 L 332.41585,246.37822 L 330.2489,246.37822 z"
   style="fill:#231f20" />
<path
   style="fill:#231f20"
   d="M 320.3632,227.61572 L 318.74915,227.61572 L 318.74915,206.19227 L 319.5557,199.73227 L 320.3632,202.15478 L 320.3632,227.61572 z"
   id="polygon33" />
<path
   style="fill:#231f20"
   d="M 392.27915,130.71572 L 393.8932,130.71572 L 393.8932,157.45728 L 393.08665,157.26728 L 392.27915,155.98478 L 392.27915,130.71572 z"
   id="polygon35" />
<path
   id="path39"
   d="M 254.62985,101.77303 C 254.62985,99.062675 255.35755,96.942275 256.81295,95.409925 C 258.26835,93.876625 260.14745,93.109975 262.4493,93.109975 C 263.95695,93.109975 265.31545,93.470025 266.52575,94.190125 C 267.73605,94.911175 268.65945,95.914375 269.29405,97.202575 C 269.92865,98.490775 270.24595,99.951875 270.24595,101.58398 C 270.24595,103.23983 269.91155,104.72088 269.2437,106.02713 C 268.57585,107.33338 267.6287,108.32328 266.4032,108.99493 C 265.17865,109.66658 263.85625,110.00288 262.43885,110.00288 C 260.90175,110.00288 259.52805,109.63143 258.31775,108.88948 C 257.10745,108.14753 256.1907,107.13293 255.56655,105.84948 C 254.9424,104.56603 254.62985,103.20563 254.62985,101.77303 z M 256.85665,101.80058 C 256.85665,103.76708 257.3858,105.31653 258.4441,106.44893 C 259.5024,107.58133 260.8305,108.14658 262.4265,108.14658 C 264.0529,108.14658 265.39145,107.57468 266.4431,106.43183 C 267.49285,105.28898 268.0182,103.66733 268.0182,101.56688 C 268.0182,100.23878 267.794,99.078825 267.34465,98.087975 C 266.8953,97.097125 266.2379,96.328575 265.37245,95.783275 C 264.50795,95.237975 263.53705,94.965325 262.45975,94.965325 C 260.93025,94.965325 259.61355,95.490675 258.5106,96.540425 C 257.40765,97.590175 256.85665,99.343875 256.85665,101.80058 z"
   style="fill:#231f20" />
<path
   style="fill:#231f20"
   d="M 271.3432,106.82228 L 272.15165,105.39728 L 295.85415,119.07823 L 294.23915,120.02823 L 271.3432,106.82228 z"
   id="polygon41" />
<path
   id="path45"
   d="M 487.7798,79.178225 L 487.7798,62.849625 L 490.0028,62.849625 L 498.5566,75.664175 L 498.5566,62.849625 L 500.6352,62.849625 L 500.6352,79.178225 L 498.4122,79.178225 L 489.8584,66.363675 L 489.8584,79.178225 L 487.7798,79.178225 z"
   style="fill:#231f20" />
<path
   id="path49"
   d="M 455.14825,135.79728 L 455.14825,119.46963 L 457.37125,119.46963 L 465.92505,132.28418 L 465.92505,119.46963 L 468.00365,119.46963 L 468.00365,135.79823 L 465.78065,135.79823 L 457.22685,122.98368 L 457.22685,135.79823 L 455.14825,135.79823 L 455.14825,135.79728 z"
   style="fill:#231f20" />
<path
   style="fill:#231f20"
   d="M 495.0682,108.39073 L 493.45415,107.44073 L 493.45415,81.362275 L 495.0682,81.362275 L 495.0682,108.39073 z"
   id="polygon51" />
<path
   style="fill:#231f20"
   d="M 471.7932,121.87978 L 470.98665,120.45478 L 493.45415,107.44073 L 495.0682,108.39073 L 471.7932,121.87978 z"
   id="polygon53" />
<path
   style="fill:#231f20"
   d="M 468.9432,116.98728 L 468.13665,115.56228 L 488.1807,103.97228 L 488.98915,105.34978 L 468.9432,116.98728 z"
   id="polygon55" />
<path
   style="fill:#231f20"
   d="M 428.8057,108.76978 L 428.90165,107.91573 L 429.70915,107.44073 L 452.1757,120.45478 L 451.3682,121.83228 L 428.8057,108.76978 z"
   id="polygon57" />
<path
   style="fill:#231f20"
   d="M 428.0932,70.817275 L 428.90165,70.199775 L 429.70915,70.674775 L 429.70915,107.44073 L 428.90165,107.91573 L 428.0932,107.34478 L 428.0932,70.817275 z"
   id="polygon59" />
<path
   style="fill:#231f20"
   d="M 433.74664,73.478229 L 435.36164,73.478229 L 435.36164,104.63823 L 433.74664,104.63823 L 433.74664,73.478229 z"
   id="rect61" />
<path
   style="fill:#231f20"
   d="M 460.82165,50.915725 L 461.62915,51.342275 L 461.62915,52.292275 L 429.70915,70.674775 L 428.90165,70.199775 L 428.8057,69.344775 L 460.82165,50.915725 z"
   id="polygon63" />
<path
   style="fill:#231f20"
   d="M 461.62915,52.292275 L 461.62915,51.342275 L 462.43665,50.915725 L 484.8557,63.834775 L 484.04915,65.259775 L 461.62915,52.292275 z"
   id="polygon65" />
<path
   style="fill:#231f20"
   d="M 461.20165,58.609775 L 462.00915,57.184775 L 482.0057,68.728225 L 481.19915,70.153225 L 461.20165,58.609775 z"
   id="polygon67" />
<path
   id="path71"
   d="M 386.6048,128.53073 L 386.6048,112.20213 L 388.8278,112.20213 L 397.3816,125.01668 L 397.3816,112.20213 L 399.4602,112.20213 L 399.4602,128.53073 L 397.2372,128.53073 L 388.6834,115.71618 L 388.6834,128.53073 L 386.6048,128.53073 z"
   style="fill:#231f20" />
<path
   id="path75"
   d="M 386.6048,67.540725 L 386.6048,51.212125 L 388.8278,51.212125 L 397.3816,64.026675 L 397.3816,51.212125 L 399.4602,51.212125 L 399.4602,67.540725 L 397.2372,67.540725 L 388.6834,54.726175 L 388.6834,67.540725 L 386.6048,67.540725 z"
   style="fill:#231f20" />
<path
   style="fill:#231f20"
   d="M 402.72915,117.27228 L 402.2057,115.75323 L 428.0932,107.34478 L 428.90165,107.91573 L 428.8057,108.76978 L 402.72915,117.27228 z"
   id="polygon77" />
<path
   style="fill:#231f20"
   d="M 369.9057,89.057275 L 371.90165,89.057275 L 386.72165,109.43478 L 385.39165,110.38478 L 369.9057,89.057275 z"
   id="polygon79" />
<path
   style="fill:#231f20"
   d="M 384.6307,68.774775 L 385.96165,69.724775 L 371.90165,89.057275 L 369.9057,89.057275 L 384.6307,68.774775 z"
   id="polygon81" />
<path
   style="fill:#231f20"
   d="M 389.23915,72.099775 L 390.52165,73.049775 L 378.55165,89.532275 L 377.22165,88.582275 L 389.23915,72.099775 z"
   id="polygon83" />
<path
   style="fill:#231f20"
   d="M 402.2057,62.362275 L 402.72915,60.842275 L 428.8057,69.344775 L 428.90165,70.199775 L 428.0932,70.817275 L 402.2057,62.362275 z"
   id="polygon85" />
<path
   id="path89"
   d="M 455.14825,22.653225 L 455.14825,6.324625 L 457.37125,6.324625 L 465.92505,19.139175 L 465.92505,6.324625 L 468.00365,6.324625 L 468.00365,22.653225 L 465.78065,22.653225 L 457.22685,9.838675 L 457.22685,22.653225 L 455.14825,22.653225 z"
   style="fill:#231f20" /><path
   id="path91"
   d="M 471.7172,22.653225 L 471.7172,6.324625 L 473.88415,6.324625 L 473.88415,13.034475 L 482.3306,13.034475 L 482.3306,6.324625 L 484.49755,6.324625 L 484.49755,22.653225 L 482.3306,22.653225 L 482.3306,14.963925 L 473.88415,14.963925 L 473.88415,22.653225 L 471.7172,22.653225 z"
   style="fill:#231f20" />
<path
   id="path95"
   d="M 494.74045,25.488025 L 494.74045,26.928225 L 486.636,26.928225 C 486.6246,26.566275 486.68445,26.218575 486.8127,25.884175 C 487.02075,25.333175 487.3523,24.790725 487.80925,24.256825 C 488.2662,23.722925 488.92075,23.106375 489.77575,22.407175 C 491.101,21.311825 492.00065,20.446375 492.47375,19.809875 C 492.94685,19.173375 493.18245,18.570125 493.18245,18.002025 C 493.18245,17.407325 492.9687,16.906675 492.5412,16.497225 C 492.1137,16.088725 491.557,15.884475 490.86825,15.884475 C 490.14055,15.884475 489.5601,16.102025 489.12405,16.538075 C 488.688,16.974125 488.4676,17.577375 488.4619,18.347825 L 486.91815,18.184425 C 487.0236,17.029225 487.4226,16.149525 488.11515,15.545325 C 488.8077,14.939225 489.7368,14.637125 490.90245,14.637125 C 492.0795,14.637125 493.0124,14.962975 493.69735,15.614675 C 494.38325,16.266375 494.7262,17.073875 494.7262,18.037175 C 494.7262,18.527375 494.62645,19.009025 494.426,19.482125 C 494.2246,19.955225 493.89115,20.453975 493.42565,20.977425 C 492.95825,21.500875 492.1859,22.219075 491.1067,23.132025 C 490.2042,23.890125 489.62375,24.403125 489.3663,24.673875 C 489.10885,24.942725 488.8951,25.214425 488.726,25.487075 L 494.74045,25.487075 L 494.74045,25.488025 z"
   style="fill:#231f20" />
<path
   style="fill:#231f20"
   d="M 460.82165,24.742275 L 462.43665,24.742275 L 462.43665,50.915725 L 461.62915,51.342275 L 460.82165,50.915725 L 460.82165,24.742275 z"
   id="polygon97" />
<path
   id="path101"
   d="M 218.4852,109.71978 L 218.4852,93.391175 L 224.64025,93.391175 C 225.72325,93.391175 226.5507,93.443425 227.12165,93.546975 C 227.92345,93.680925 228.59415,93.935525 229.1366,94.310775 C 229.6781,94.686025 230.11415,95.211375 230.4438,95.886825 C 230.7744,96.563225 230.93875,97.305175 230.93875,98.115525 C 230.93875,99.504425 230.49795,100.67958 229.6154,101.64193 C 228.73285,102.60428 227.13875,103.08498 224.8331,103.08498 L 220.65215,103.08498 L 220.65215,109.71978 L 218.4852,109.71978 L 218.4852,109.71978 z M 220.65215,101.15458 L 224.86635,101.15458 C 226.25905,101.15458 227.24895,100.89523 227.83415,100.37558 C 228.41935,99.855925 228.7129,99.125375 228.7129,98.182025 C 228.7129,97.498975 228.54,96.914725 228.1961,96.428325 C 227.85125,95.941925 227.39715,95.620825 226.8338,95.465025 C 226.46995,95.368125 225.79925,95.320625 224.8217,95.320625 L 220.65215,95.320625 L 220.65215,101.15458 z"
   style="fill:#231f20" />
<path
   style="fill:#231f20"
   d="M 233.10666,99.934778 L 252.43916,99.934778 L 252.43916,101.54978 L 233.10666,101.54978 L 233.10666,99.934778 z"
   id="rect103" />
<path
   style="fill:#231f20"
   d="M 197.05414,99.934778 L 216.29164,99.934778 L 216.29164,101.54978 L 197.05414,101.54978 L 197.05414,99.934778 z"
   id="rect105" />
<path
   id="path109"
   d="M 216.91485,64.105525 C 216.91485,61.395175 217.64255,59.274775 219.09795,57.742425 C 220.55335,56.209125 222.43245,55.442475 224.7343,55.442475 C 226.24195,55.442475 227.60045,55.802525 228.81075,56.522625 C 230.02105,57.243675 230.9435,58.246875 231.57905,59.535075 C 232.2146,60.823275 232.53095,62.284375 232.53095,63.916475 C 232.53095,65.572325 232.19655,67.053375 231.5287,68.359625 C 230.86085,69.665875 229.9137,70.655775 228.6882,71.327425 C 227.4627,71.999075 226.14125,72.335375 224.7229,72.335375 C 223.1858,72.335375 221.8121,71.963925 220.6018,71.221975 C 219.3915,70.480025 218.47475,69.465425 217.8506,68.181975 C 217.22645,66.898525 216.91485,65.539075 216.91485,64.105525 z M 219.14165,64.134025 C 219.14165,66.100525 219.6708,67.649975 220.7291,68.782375 C 221.7874,69.914775 223.1155,70.480025 224.7115,70.480025 C 226.3379,70.480025 227.67645,69.908125 228.7281,68.765275 C 229.7788,67.622425 230.30415,66.000775 230.30415,63.900325 C 230.30415,62.572225 230.07995,61.412275 229.6306,60.421425 C 229.18125,59.430575 228.52385,58.662025 227.6584,58.116725 C 226.79295,57.571425 225.82205,57.298775 224.7457,57.298775 C 223.2162,57.298775 221.8995,57.824125 220.79655,58.873875 C 219.6936,59.923625 219.14165,61.677325 219.14165,64.134025 z"
   style="fill:#231f20" />
<path
   style="fill:#231f20"
   d="M 221.08915,74.474775 L 222.70415,74.474775 L 222.70415,91.194775 L 221.08915,91.194775 L 221.08915,74.474775 z"
   id="rect111" />
<path
   style="fill:#231f20"
   d="M 226.74164,74.474775 L 228.35664,74.474775 L 228.35664,91.194775 L 226.74164,91.194775 L 226.74164,74.474775 z"
   id="rect113" />
<path
   id="path117"
   d="M 216.91485,139.44053 C 216.91485,136.73018 217.64255,134.60978 219.09795,133.07743 C 220.55335,131.54413 222.43245,130.77748 224.7343,130.77748 C 226.24195,130.77748 227.60045,131.13753 228.81075,131.85762 C 230.02105,132.57868 230.9435,133.58188 231.57905,134.87008 C 232.2146,136.15828 232.53095,137.61938 232.53095,139.25147 C 232.53095,140.90733 232.19655,142.38837 231.5287,143.69463 C 230.86085,145.00088 229.9137,145.99078 228.6882,146.66243 C 227.4627,147.33408 226.14125,147.67038 224.7229,147.67038 C 223.1858,147.67038 221.8121,147.29893 220.6018,146.55698 C 219.3915,145.81502 218.47475,144.80043 217.8506,143.51698 C 217.22645,142.23353 216.91485,140.87408 216.91485,139.44053 z M 219.14165,139.46808 C 219.14165,141.43458 219.6708,142.98403 220.7291,144.11643 C 221.7874,145.24883 223.1155,145.81408 224.7115,145.81408 C 226.3379,145.81408 227.67645,145.24218 228.7281,144.09933 C 229.7788,142.95648 230.30415,141.33483 230.30415,139.23438 C 230.30415,137.90628 230.07995,136.74633 229.6306,135.75548 C 229.18125,134.76462 228.52385,133.99607 227.6584,133.45078 C 226.79295,132.90547 225.82205,132.63282 224.7457,132.63282 C 223.2162,132.63282 221.8995,133.15817 220.79655,134.20793 C 219.6936,135.25768 219.14165,137.01138 219.14165,139.46808 z"
   style="fill:#231f20" /><path
   id="path119"
   d="M 235.3914,147.38728 L 235.3914,131.05963 L 237.55835,131.05963 L 237.55835,137.76947 L 246.0048,137.76947 L 246.0048,131.05963 L 248.17175,131.05963 L 248.17175,147.38823 L 246.0048,147.38823 L 246.0048,139.69893 L 237.55835,139.69893 L 237.55835,147.38823 L 235.3914,147.38823 L 235.3914,147.38728 z"
   style="fill:#231f20" />
<path
   style="fill:#231f20"
   d="M 223.93915,111.85728 L 225.55415,111.85728 L 225.55415,128.57823 L 223.93915,128.57823 L 223.93915,111.85728 z"
   id="rect121" />
<path
   id="path125"
   d="M 179.19985,101.77303 C 179.19985,99.062675 179.92755,96.942275 181.38295,95.409925 C 182.83835,93.876625 184.71745,93.109975 187.0193,93.109975 C 188.52695,93.109975 189.88545,93.470025 191.09575,94.190125 C 192.30605,94.911175 193.2285,95.914375 193.86405,97.202575 C 194.4996,98.490775 194.81595,99.951875 194.81595,101.58398 C 194.81595,103.23983 194.48155,104.72088 193.8137,106.02713 C 193.14585,107.33338 192.1987,108.32328 190.9732,108.99493 C 189.7477,109.66658 188.42625,110.00288 187.0079,110.00288 C 185.4708,110.00288 184.0971,109.63143 182.8868,108.88948 C 181.6765,108.14753 180.75975,107.13293 180.1356,105.84948 C 179.51145,104.56603 179.19985,103.20563 179.19985,101.77303 z M 181.42665,101.80058 C 181.42665,103.76708 181.9558,105.31653 183.0141,106.44893 C 184.0724,107.58133 185.4005,108.14658 186.9965,108.14658 C 188.6229,108.14658 189.96145,107.57468 191.0131,106.43183 C 192.0638,105.28898 192.58915,103.66733 192.58915,101.56688 C 192.58915,100.23878 192.36495,99.078825 191.9156,98.087975 C 191.46625,97.097125 190.80885,96.328575 189.9434,95.783275 C 189.07795,95.237975 188.10705,94.965325 187.0307,94.965325 C 185.5012,94.965325 184.1845,95.490675 183.08155,96.540425 C 181.9786,97.590175 181.42665,99.343875 181.42665,101.80058 z"
   style="fill:#231f20" />
<path
   id="path129"
   d="M 143.1027,109.71978 L 143.1027,93.391175 L 149.25775,93.391175 C 150.34075,93.391175 151.1682,93.443425 151.73915,93.546975 C 152.54095,93.680925 153.21165,93.935525 153.7541,94.310775 C 154.2956,94.686025 154.73165,95.211375 155.0613,95.886825 C 155.3919,96.563225 155.55625,97.305175 155.55625,98.115525 C 155.55625,99.504425 155.11545,100.67958 154.2329,101.64193 C 153.35035,102.60428 151.75625,103.08498 149.4506,103.08498 L 145.26965,103.08498 L 145.26965,109.71978 L 143.1027,109.71978 L 143.1027,109.71978 z M 145.26965,101.15458 L 149.48385,101.15458 C 150.87655,101.15458 151.86645,100.89523 152.45165,100.37558 C 153.03685,99.855925 153.3304,99.125375 153.3304,98.182025 C 153.3304,97.498975 153.1575,96.914725 152.8136,96.428325 C 152.46875,95.941925 152.01465,95.620825 151.4513,95.465025 C 151.08745,95.368125 150.41675,95.320625 149.4392,95.320625 L 145.26965,95.320625 L 145.26965,101.15458 z"
   style="fill:#231f20" />
<path
   style="fill:#231f20"
   d="M 157.72415,99.934778 L 177.00915,99.934778 L 177.00915,101.54978 L 157.72415,101.54978 L 157.72415,99.934778 z"
   id="rect131" />
<path
   style="fill:#231f20"
   d="M 121.62415,99.934778 L 140.86165,99.934778 L 140.86165,101.54978 L 121.62415,101.54978 L 121.62415,99.934778 z"
   id="rect133" />
<path
   id="path137"
   d="M 141.53235,64.105525 C 141.53235,61.395175 142.26005,59.274775 143.71545,57.742425 C 145.17085,56.209125 147.04995,55.442475 149.3518,55.442475 C 150.85945,55.442475 152.21795,55.802525 153.42825,56.522625 C 154.63855,57.243675 155.561,58.246875 156.19655,59.535075 C 156.8321,60.823275 157.14845,62.284375 157.14845,63.916475 C 157.14845,65.572325 156.81405,67.053375 156.1462,68.359625 C 155.47835,69.665875 154.5312,70.655775 153.3057,71.327425 C 152.0802,71.999075 150.75875,72.335375 149.3404,72.335375 C 147.8033,72.335375 146.4296,71.963925 145.2193,71.221975 C 144.009,70.480025 143.09225,69.465425 142.4681,68.181975 C 141.84395,66.898525 141.53235,65.539075 141.53235,64.105525 z M 143.75915,64.134025 C 143.75915,66.100525 144.2883,67.649975 145.3466,68.782375 C 146.4049,69.914775 147.733,70.480025 149.329,70.480025 C 150.9554,70.480025 152.29395,69.908125 153.3456,68.765275 C 154.3963,67.622425 154.92165,66.000775 154.92165,63.900325 C 154.92165,62.572225 154.69745,61.412275 154.2481,60.421425 C 153.79875,59.430575 153.14135,58.662025 152.2759,58.116725 C 151.41045,57.571425 150.43955,57.298775 149.3632,57.298775 C 147.8337,57.298775 146.517,57.824125 145.41405,58.873875 C 144.3111,59.923625 143.75915,61.677325 143.75915,64.134025 z"
   style="fill:#231f20" />
<path
   style="fill:#231f20"
   d="M 145.70666,74.474775 L 147.32166,74.474775 L 147.32166,91.194775 L 145.70666,91.194775 L 145.70666,74.474775 z"
   id="rect139" />
<path
   style="fill:#231f20"
   d="M 151.35915,74.474775 L 152.97415,74.474775 L 152.97415,91.194775 L 151.35915,91.194775 L 151.35915,74.474775 z"
   id="rect141" />
<path
   id="path145"
   d="M 141.53235,139.44053 C 141.53235,136.73018 142.26005,134.60978 143.71545,133.07743 C 145.17085,131.54413 147.04995,130.77748 149.3518,130.77748 C 150.85945,130.77748 152.21795,131.13753 153.42825,131.85762 C 154.63855,132.57868 155.561,133.58188 156.19655,134.87008 C 156.8321,136.15828 157.14845,137.61938 157.14845,139.25147 C 157.14845,140.90733 156.81405,142.38837 156.1462,143.69463 C 155.47835,145.00088 154.5312,145.99078 153.3057,146.66243 C 152.0802,147.33408 150.75875,147.67038 149.3404,147.67038 C 147.8033,147.67038 146.4296,147.29893 145.2193,146.55698 C 144.009,145.81502 143.09225,144.80043 142.4681,143.51698 C 141.84395,142.23353 141.53235,140.87408 141.53235,139.44053 z M 143.75915,139.46808 C 143.75915,141.43458 144.2883,142.98403 145.3466,144.11643 C 146.4049,145.24883 147.733,145.81408 149.329,145.81408 C 150.9554,145.81408 152.29395,145.24218 153.3456,144.09933 C 154.3963,142.95648 154.92165,141.33483 154.92165,139.23438 C 154.92165,137.90628 154.69745,136.74633 154.2481,135.75548 C 153.79875,134.76462 153.14135,133.99607 152.2759,133.45078 C 151.41045,132.90547 150.43955,132.63282 149.3632,132.63282 C 147.8337,132.63282 146.517,133.15817 145.41405,134.20793 C 144.3111,135.25768 143.75915,137.01138 143.75915,139.46808 z"
   style="fill:#231f20" /><path
   id="path147"
   d="M 160.0089,147.38728 L 160.0089,131.05963 L 162.17585,131.05963 L 162.17585,137.76947 L 170.6223,137.76947 L 170.6223,131.05963 L 172.78925,131.05963 L 172.78925,147.38823 L 170.6223,147.38823 L 170.6223,139.69893 L 162.17585,139.69893 L 162.17585,147.38823 L 160.0089,147.38823 L 160.0089,147.38728 z"
   style="fill:#231f20" />
<path
   style="fill:#231f20"
   d="M 148.50915,111.85728 L 150.12415,111.85728 L 150.12415,128.57823 L 148.50915,128.57823 L 148.50915,111.85728 z"
   id="rect149" />
<path
   id="path153"
   d="M 103.81735,101.77303 C 103.81735,99.062675 104.54505,96.942275 106.00045,95.409925 C 107.45585,93.876625 109.33495,93.109975 111.6368,93.109975 C 113.14445,93.109975 114.50295,93.470025 115.71325,94.190125 C 116.92355,94.911175 117.846,95.914375 118.48155,97.202575 C 119.1171,98.490775 119.43345,99.951875 119.43345,101.58398 C 119.43345,103.23983 119.09905,104.72088 118.4312,106.02713 C 117.76335,107.33338 116.8162,108.32328 115.5907,108.99493 C 114.3652,109.66658 113.04375,110.00288 111.6254,110.00288 C 110.0883,110.00288 108.7146,109.63143 107.5043,108.88948 C 106.294,108.14753 105.37725,107.13293 104.7531,105.84948 C 104.12895,104.56603 103.81735,103.20563 103.81735,101.77303 z M 106.0432,101.80058 C 106.0432,103.76708 106.57235,105.31653 107.63065,106.44893 C 108.68895,107.58133 110.01705,108.14658 111.61305,108.14658 C 113.23945,108.14658 114.578,107.57468 115.62965,106.43183 C 116.68035,105.28898 117.2057,103.66733 117.2057,101.56688 C 117.2057,100.23878 116.9815,99.078825 116.53215,98.087975 C 116.0828,97.097125 115.4254,96.328575 114.55995,95.783275 C 113.6945,95.237975 112.7236,94.965325 111.64725,94.965325 C 110.11775,94.965325 108.80105,95.490675 107.6981,96.540425 C 106.59515,97.590175 106.0432,99.343875 106.0432,101.80058 z"
   style="fill:#231f20" />
<path
   id="path157"
   d="M 67.6727,109.71978 L 67.6727,93.391175 L 73.8268,93.391175 C 74.9098,93.391175 75.73725,93.443425 76.3082,93.546975 C 77.11,93.680925 77.7807,93.935525 78.32315,94.310775 C 78.86465,94.686025 79.3007,95.211375 79.63035,95.886825 C 79.96095,96.563225 80.1253,97.305175 80.1253,98.115525 C 80.1253,99.504425 79.6845,100.67958 78.80195,101.64193 C 77.9194,102.60428 76.3253,103.08498 74.01965,103.08498 L 69.8387,103.08498 L 69.8387,109.71978 L 67.6727,109.71978 L 67.6727,109.71978 z M 69.83965,101.15458 L 74.05385,101.15458 C 75.44655,101.15458 76.43645,100.89523 77.02165,100.37558 C 77.60685,99.855925 77.9004,99.125375 77.9004,98.182025 C 77.9004,97.498975 77.7275,96.914725 77.3836,96.428325 C 77.03875,95.941925 76.58465,95.620825 76.0213,95.465025 C 75.65745,95.368125 74.98675,95.320625 74.0092,95.320625 L 69.83965,95.320625 L 69.83965,101.15458 L 69.83965,101.15458 z"
   style="fill:#231f20" />
<path
   style="fill:#231f20"
   d="M 82.341652,99.934778 L 101.62665,99.934778 L 101.62665,101.54978 L 82.341652,101.54978 L 82.341652,99.934778 z"
   id="rect159" />
<path
   id="path163"
   d="M 12.8368,109.71978 L 12.8368,93.391175 L 15.00375,93.391175 L 15.00375,100.10103 L 23.4502,100.10103 L 23.4502,93.391175 L 25.61715,93.391175 L 25.61715,109.71978 L 23.4502,109.71978 L 23.4502,102.03048 L 15.00375,102.03048 L 15.00375,109.71978 L 12.8368,109.71978 z"
   style="fill:#231f20" /><path
   id="path165"
   d="M 28.56025,101.77303 C 28.56025,99.062675 29.28795,96.942275 30.74335,95.409925 C 32.19875,93.876625 34.07785,93.109975 36.3797,93.109975 C 37.88735,93.109975 39.24585,93.470025 40.45615,94.190125 C 41.66645,94.911175 42.5889,95.914375 43.22445,97.202575 C 43.86,98.490775 44.17635,99.951875 44.17635,101.58398 C 44.17635,103.23983 43.84195,104.72088 43.1741,106.02713 C 42.50625,107.33338 41.5591,108.32328 40.3336,108.99493 C 39.1081,109.66658 37.78665,110.00288 36.3683,110.00288 C 34.8312,110.00288 33.4575,109.63143 32.2472,108.88948 C 31.0369,108.14753 30.12015,107.13293 29.496,105.84948 C 28.87185,104.56603 28.56025,103.20563 28.56025,101.77303 z M 30.78705,101.80058 C 30.78705,103.76708 31.3162,105.31653 32.3745,106.44893 C 33.4328,107.58133 34.7609,108.14658 36.3569,108.14658 C 37.9833,108.14658 39.32185,107.57468 40.3735,106.43183 C 41.4242,105.28898 41.94955,103.66733 41.94955,101.56688 C 41.94955,100.23878 41.72535,99.078825 41.276,98.087975 C 40.82665,97.097125 40.16925,96.328575 39.3038,95.783275 C 38.43835,95.237975 37.46745,94.965325 36.3911,94.965325 C 34.8616,94.965325 33.5449,95.490675 32.44195,96.540425 C 31.339,97.590175 30.78705,99.343875 30.78705,101.80058 z"
   style="fill:#231f20" />
<path
   style="fill:#231f20"
   d="M 46.241648,99.934778 L 65.479148,99.934778 L 65.479148,101.54978 L 46.241648,101.54978 L 46.241648,99.934778 z"
   id="rect167" />
<path
   id="path171"
   d="M 66.1014,64.105525 C 66.1014,61.395175 66.8291,59.274775 68.2845,57.742425 C 69.7399,56.209125 71.619,55.442475 73.92085,55.442475 C 75.4285,55.442475 76.787,55.802525 77.9973,56.522625 C 79.2076,57.243675 80.13005,58.246875 80.7656,59.535075 C 81.40115,60.823275 81.7175,62.284375 81.7175,63.916475 C 81.7175,65.572325 81.3831,67.053375 80.71525,68.359625 C 80.0474,69.665875 79.10025,70.655775 77.87475,71.327425 C 76.64925,71.999075 75.3278,72.335375 73.90945,72.335375 C 72.37235,72.335375 70.99865,71.963925 69.78835,71.221975 C 68.57805,70.480025 67.6613,69.465425 67.03715,68.181975 C 66.413,66.898525 66.1014,65.539075 66.1014,64.105525 z M 68.3282,64.134025 C 68.3282,66.100525 68.85735,67.649975 69.91565,68.782375 C 70.97395,69.914775 72.30205,70.480025 73.89805,70.480025 C 75.52445,70.480025 76.863,69.908125 77.91465,68.765275 C 78.96535,67.622425 79.4907,66.000775 79.4907,63.900325 C 79.4907,62.572225 79.2665,61.412275 78.81715,60.421425 C 78.3678,59.430575 77.7104,58.662025 76.84495,58.116725 C 75.9795,57.571425 75.0086,57.298775 73.93225,57.298775 C 72.40275,57.298775 71.08605,57.824125 69.9831,58.873875 C 68.88015,59.923625 68.3282,61.677325 68.3282,64.134025 z"
   style="fill:#231f20" />
<path
   style="fill:#231f20"
   d="M 70.275702,74.474775 L 71.890702,74.474775 L 71.890702,91.194775 L 70.275702,91.194775 L 70.275702,74.474775 z"
   id="rect173" />
<path
   style="fill:#231f20"
   d="M 75.929152,74.474775 L 77.544152,74.474775 L 77.544152,91.194775 L 75.929152,91.194775 L 75.929152,74.474775 z"
   id="rect175" />
<path
   id="path179"
   d="M 66.1014,139.44053 C 66.1014,136.73018 66.8291,134.60978 68.2845,133.07743 C 69.7399,131.54413 71.619,130.77748 73.92085,130.77748 C 75.4285,130.77748 76.787,131.13753 77.9973,131.85762 C 79.2076,132.57868 80.13005,133.58188 80.7656,134.87008 C 81.40115,136.15828 81.7175,137.61938 81.7175,139.25147 C 81.7175,140.90733 81.3831,142.38837 80.71525,143.69463 C 80.0474,145.00088 79.10025,145.99078 77.87475,146.66243 C 76.64925,147.33408 75.3278,147.67038 73.90945,147.67038 C 72.37235,147.67038 70.99865,147.29893 69.78835,146.55698 C 68.57805,145.81502 67.6613,144.80043 67.03715,143.51698 C 66.413,142.23353 66.1014,140.87408 66.1014,139.44053 z M 68.3282,139.46808 C 68.3282,141.43458 68.85735,142.98403 69.91565,144.11643 C 70.97395,145.24883 72.30205,145.81408 73.89805,145.81408 C 75.52445,145.81408 76.863,145.24218 77.91465,144.09933 C 78.96535,142.95648 79.4907,141.33483 79.4907,139.23438 C 79.4907,137.90628 79.2665,136.74633 78.81715,135.75548 C 78.3678,134.76462 77.7104,133.99607 76.84495,133.45078 C 75.9795,132.90547 75.0086,132.63282 73.93225,132.63282 C 72.40275,132.63282 71.08605,133.15817 69.9831,134.20793 C 68.88015,135.25768 68.3282,137.01138 68.3282,139.46808 z"
   style="fill:#231f20" /><path
   id="path181"
   d="M 84.5789,147.38728 L 84.5789,131.05963 L 86.74585,131.05963 L 86.74585,137.76947 L 95.1923,137.76947 L 95.1923,131.05963 L 97.35925,131.05963 L 97.35925,147.38823 L 95.1923,147.38823 L 95.1923,139.69893 L 86.74585,139.69893 L 86.74585,147.38823 L 84.5789,147.38823 L 84.5789,147.38728 z"
   style="fill:#231f20" />
<path
   style="fill:#231f20"
   d="M 73.125702,111.85728 L 74.740702,111.85728 L 74.740702,128.57823 L 73.125702,128.57823 L 73.125702,111.85728 z"
   id="rect183" />
</svg>