<?xml version="1.0" encoding="UTF-8" standalone="no"?>
<!-- Generator: Adobe Illustrator 12.0.1, SVG Export Plug-In . SVG Version: 6.00 Build 51448)  -->
<svg
   xmlns:dc="http://purl.org/dc/elements/1.1/"
   xmlns:cc="http://web.resource.org/cc/"
   xmlns:rdf="http://www.w3.org/1999/02/22-rdf-syntax-ns#"
   xmlns:svg="http://www.w3.org/2000/svg"
   xmlns="http://www.w3.org/2000/svg"
   xmlns:sodipodi="http://sodipodi.sourceforge.net/DTD/sodipodi-0.dtd"
   xmlns:inkscape="http://www.inkscape.org/namespaces/inkscape"
   version="1.1"
   id="Layer_1"
   width="201.843"
   height="185.047"
   viewBox="0 0 201.843 185.047"
   style="overflow:visible;enable-background:new 0 0 201.843 185.047;"
   xml:space="preserve"
   sodipodi:version="0.32"
   inkscape:version="0.45.1"
   sodipodi:docname="IPTG.svg"
   inkscape:output_extension="org.inkscape.output.svg.inkscape"
   sodipodi:docbase="C:\Dokumente und Einstellungen\Jonas Töle\Eigene Dateien"><metadata
   id="metadata76"><rdf:RDF><cc:Work
       rdf:about=""><dc:format>image/svg+xml</dc:format><dc:type
         rdf:resource="http://purl.org/dc/dcmitype/StillImage" /></cc:Work></rdf:RDF></metadata><defs
   id="defs74" /><sodipodi:namedview
   inkscape:window-height="579"
   inkscape:window-width="801"
   inkscape:pageshadow="2"
   inkscape:pageopacity="0.0"
   guidetolerance="10.0"
   gridtolerance="10.0"
   objecttolerance="10.0"
   borderopacity="1.0"
   bordercolor="#666666"
   pagecolor="#ffffff"
   id="base"
   inkscape:zoom="2.0427243"
   inkscape:cx="100.9215"
   inkscape:cy="92.523499"
   inkscape:window-x="88"
   inkscape:window-y="88"
   inkscape:current-layer="Layer_1" />
<path
   d="M 93.770375,131.0712 L 96.525375,133.49465 L 95.717875,135.9162 L 44.796925,135.9162 L 47.505375,133.49465 L 48.312875,131.0712 L 93.770375,131.0712 z "
   id="polygon3" />
<path
   d="M 12.021925,99.1037 L 12.830375,98.81965 L 14.017875,98.7712 L 46.696925,127.8887 L 47.505375,133.49465 L 44.796925,135.9162 L 12.021925,99.1037 z "
   id="polygon5" />
<path
   d="M 46.696925,63.8112 L 47.505375,64.1437 L 47.837875,64.9512 L 14.017875,98.7712 L 12.830375,98.81965 L 13.637875,96.8712 L 46.696925,63.8112 z "
   id="polygon7" />
<g
   id="g9"
   transform="matrix(0.95,0,0,0.95,5.046075,4.6262)">
	<path
   d="M 88.05,63.735 C 88.05,60.882 88.816,58.65 90.348,57.037 C 91.88,55.423 93.858,54.616 96.281,54.616 C 97.868,54.616 99.298,54.995 100.572,55.753 C 101.845,56.512 102.817,57.568 103.486,58.924 C 104.154,60.279 104.488,61.818 104.488,63.536 C 104.488,65.279 104.136,66.838 103.433,68.213 C 102.729,69.588 101.732,70.63 100.443,71.337 C 99.153,72.044 97.762,72.398 96.269,72.398 C 94.651,72.398 93.205,72.007 91.931,71.226 C 90.657,70.445 89.692,69.377 89.035,68.026 C 88.378,66.675 88.05,65.244 88.05,63.735 z M 90.394,63.764 C 90.394,65.834 90.951,67.465 92.065,68.657 C 93.179,69.849 94.577,70.444 96.257,70.444 C 97.969,70.444 99.378,69.842 100.485,68.639 C 101.592,67.436 102.144,65.729 102.144,63.518 C 102.144,62.12 101.908,60.899 101.435,59.856 C 100.961,58.813 100.269,58.004 99.359,57.43 C 98.448,56.856 97.426,56.569 96.293,56.569 C 94.683,56.569 93.297,57.122 92.136,58.227 C 90.975,59.332 90.394,61.178 90.394,63.764 z "
   id="path11" />
</g>
<path
   d="M 86.550375,63.3362 L 86.550375,64.9512 L 47.837875,64.9512 L 47.505375,64.1437 L 48.312875,63.3362 L 86.550375,63.3362 z "
   id="polygon13" />
<path
   d="M 130.34538,96.8712 L 131.15193,98.81965 L 130.01288,98.7712 L 103.79288,72.5987 L 104.98038,71.4587 L 130.34538,96.8712 z "
   id="polygon15" />
<path
   d="M 97.332875,138.00715 L 96.525375,133.49465 L 93.770375,131.0712 L 130.01288,98.7712 L 131.15193,98.81965 L 131.95943,99.1037 L 97.332875,138.00715 z "
   id="polygon17" />
<g
   id="g19"
   transform="matrix(0.95,0,0,0.95,5.046075,4.6262)">
	<path
   d="M 88.05,176.385 C 88.05,173.532 88.816,171.3 90.348,169.687 C 91.88,168.073 93.858,167.266 96.281,167.266 C 97.868,167.266 99.298,167.645 100.572,168.403 C 101.845,169.162 102.817,170.218 103.486,171.574 C 104.154,172.929 104.488,174.468 104.488,176.186 C 104.488,177.929 104.136,179.488 103.433,180.863 C 102.729,182.238 101.732,183.28 100.443,183.987 C 99.153,184.694 97.762,185.048 96.269,185.048 C 94.651,185.048 93.205,184.657 91.931,183.876 C 90.657,183.095 89.692,182.027 89.035,180.676 C 88.378,179.325 88.05,177.894 88.05,176.385 z M 90.394,176.415 C 90.394,178.485 90.951,180.116 92.065,181.308 C 93.179,182.5 94.577,183.095 96.257,183.095 C 97.969,183.095 99.378,182.493 100.485,181.29 C 101.592,180.087 102.144,178.38 102.144,176.169 C 102.144,174.771 101.908,173.55 101.435,172.507 C 100.961,171.464 100.269,170.655 99.359,170.081 C 98.448,169.507 97.426,169.22 96.293,169.22 C 94.683,169.22 93.297,169.773 92.136,170.878 C 90.975,171.983 90.394,173.829 90.394,176.415 z "
   id="path21" />
	<path
   d="M 107.499,184.75 L 107.499,167.562 L 109.78,167.562 L 109.78,174.625 L 118.671,174.625 L 118.671,167.562 L 120.952,167.562 L 120.952,184.75 L 118.671,184.75 L 118.671,176.656 L 109.78,176.656 L 109.78,184.75 L 107.499,184.75 z "
   id="path23" />
</g>
<path
   d="M 97.332875,161.3762 L 95.717875,161.3762 L 95.717875,135.9162 L 96.525375,133.49465 L 97.332875,138.00715 L 97.332875,161.3762 z "
   id="polygon25" />
<g
   id="g27"
   transform="matrix(0.95,0,0,0.95,5.046075,4.6262)">
	<path
   d="M 125.788,63.385 L 127.929,63.197 C 128.031,64.058 128.267,64.764 128.638,65.316 C 129.009,65.868 129.585,66.315 130.367,66.655 C 131.148,66.996 132.029,67.166 133.006,67.166 C 133.873,67.166 134.639,67.037 135.303,66.778 C 135.967,66.52 136.462,66.166 136.787,65.715 C 137.111,65.265 137.273,64.774 137.273,64.241 C 137.273,63.701 137.115,63.229 136.798,62.826 C 136.481,62.424 135.962,62.085 135.243,61.81 C 134.782,61.63 133.761,61.35 132.181,60.97 C 130.602,60.591 129.495,60.233 128.864,59.897 C 128.044,59.466 127.432,58.933 127.031,58.295 C 126.63,57.657 126.428,56.944 126.428,56.153 C 126.428,55.286 126.674,54.474 127.166,53.719 C 127.658,52.964 128.379,52.391 129.324,52 C 130.271,51.608 131.322,51.413 132.48,51.413 C 133.753,51.413 134.878,51.619 135.851,52.029 C 136.826,52.44 137.574,53.045 138.097,53.842 C 138.622,54.64 138.904,55.544 138.943,56.553 L 136.755,56.725 C 136.638,55.632 136.239,54.808 135.564,54.249 C 134.888,53.691 133.888,53.412 132.568,53.412 C 131.191,53.412 130.187,53.665 129.558,54.17 C 128.929,54.675 128.615,55.283 128.615,55.995 C 128.615,56.614 128.838,57.123 129.283,57.521 C 129.721,57.92 130.865,58.33 132.715,58.749 C 134.565,59.168 135.833,59.534 136.522,59.847 C 137.525,60.308 138.264,60.892 138.743,61.6 C 139.22,62.308 139.46,63.122 139.46,64.045 C 139.46,64.96 139.198,65.821 138.675,66.631 C 138.152,67.441 137.4,68.069 136.419,68.519 C 135.439,68.969 134.335,69.194 133.11,69.194 C 131.555,69.194 130.253,68.967 129.202,68.514 C 128.151,68.061 127.328,67.379 126.731,66.469 C 126.134,65.563 125.819,64.534 125.788,63.385 z "
   id="path29" />
</g>
<path
   d="M 130.34538,72.5037 L 131.95943,72.5037 L 131.95943,99.1037 L 131.15193,98.81965 L 130.34538,96.8712 L 130.34538,72.5037 z "
   id="polygon31" />
<g
   id="g33"
   transform="matrix(0.95,0,0,0.95,5.046075,4.6262)">
	<path
   d="M 0,60.536 C 0,57.683 0.766,55.451 2.298,53.838 C 3.83,52.224 5.808,51.417 8.231,51.417 C 9.818,51.417 11.248,51.796 12.522,52.554 C 13.796,53.313 14.767,54.369 15.436,55.725 C 16.105,57.081 16.438,58.619 16.438,60.337 C 16.438,62.08 16.086,63.639 15.383,65.014 C 14.68,66.389 13.683,67.431 12.393,68.138 C 11.103,68.845 9.712,69.199 8.219,69.199 C 6.601,69.199 5.155,68.808 3.881,68.027 C 2.607,67.246 1.642,66.178 0.985,64.827 C 0.328,63.476 0,62.044 0,60.536 z M 2.344,60.565 C 2.344,62.635 2.901,64.266 4.015,65.458 C 5.129,66.65 6.527,67.245 8.207,67.245 C 9.919,67.245 11.328,66.643 12.435,65.44 C 13.541,64.237 14.094,62.53 14.094,60.319 C 14.094,58.921 13.858,57.7 13.385,56.657 C 12.912,55.614 12.22,54.805 11.309,54.231 C 10.398,53.657 9.376,53.37 8.242,53.37 C 6.632,53.37 5.246,53.923 4.085,55.028 C 2.924,56.133 2.344,57.979 2.344,60.565 z "
   id="path35" />
	<path
   d="M 19.449,68.901 L 19.449,51.713 L 21.73,51.713 L 21.73,58.776 L 30.621,58.776 L 30.621,51.713 L 32.902,51.713 L 32.902,68.901 L 30.621,68.901 L 30.621,60.807 L 21.73,60.807 L 21.73,68.901 L 19.449,68.901 z "
   id="path37" />
</g>
<path
   d="M 12.021925,72.5037 L 13.637875,72.5037 L 13.637875,96.8712 L 12.830375,98.81965 L 12.021925,99.1037 L 12.021925,72.5037 z "
   id="polygon39" />
<g
   id="g41"
   transform="matrix(0.95,0,0,0.95,5.046075,4.6262)">
	<path
   d="M 36.45,97.036 C 36.45,94.183 37.216,91.951 38.748,90.338 C 40.28,88.724 42.258,87.917 44.681,87.917 C 46.268,87.917 47.698,88.296 48.972,89.054 C 50.246,89.813 51.217,90.869 51.886,92.225 C 52.555,93.581 52.888,95.119 52.888,96.837 C 52.888,98.58 52.536,100.139 51.833,101.514 C 51.13,102.889 50.133,103.931 48.843,104.638 C 47.553,105.345 46.162,105.699 44.669,105.699 C 43.051,105.699 41.605,105.308 40.331,104.527 C 39.057,103.746 38.092,102.678 37.435,101.327 C 36.778,99.976 36.45,98.544 36.45,97.036 z M 38.793,97.065 C 38.793,99.135 39.35,100.766 40.464,101.958 C 41.578,103.15 42.976,103.745 44.656,103.745 C 46.368,103.745 47.777,103.143 48.884,101.94 C 49.99,100.737 50.543,99.03 50.543,96.819 C 50.543,95.421 50.307,94.2 49.834,93.157 C 49.361,92.114 48.669,91.305 47.758,90.731 C 46.847,90.157 45.825,89.87 44.692,89.87 C 43.082,89.87 41.696,90.423 40.535,91.528 C 39.374,92.633 38.793,94.479 38.793,97.065 z "
   id="path43" />
	<path
   d="M 55.899,105.401 L 55.899,88.213 L 58.18,88.213 L 58.18,95.276 L 67.071,95.276 L 67.071,88.213 L 69.352,88.213 L 69.352,105.401 L 67.071,105.401 L 67.071,97.307 L 58.18,97.307 L 58.18,105.401 L 55.899,105.401 z "
   id="path45" />
</g>
<path
   d="M 46.696925,107.13215 L 48.312875,107.13215 L 48.312875,131.0712 L 47.505375,133.49465 L 46.696925,127.8887 L 46.696925,107.13215 z "
   id="polygon47" />
<g
   id="g49"
   transform="matrix(0.95,0,0,0.95,5.046075,4.6262)">
	<path
   d="M 50.137,26.423 L 52.418,26.997 C 51.942,28.867 51.085,30.293 49.849,31.274 C 48.612,32.255 47.099,32.747 45.312,32.747 C 43.462,32.747 41.958,32.37 40.799,31.615 C 39.64,30.861 38.758,29.767 38.153,28.337 C 37.548,26.906 37.246,25.369 37.246,23.728 C 37.246,21.938 37.587,20.375 38.27,19.042 C 38.953,17.709 39.924,16.695 41.185,16.004 C 42.445,15.313 43.831,14.966 45.345,14.966 C 47.062,14.966 48.505,15.404 49.675,16.28 C 50.846,17.157 51.661,18.388 52.121,19.977 L 49.887,20.504 C 49.489,19.254 48.912,18.344 48.156,17.774 C 47.399,17.204 46.447,16.919 45.301,16.919 C 43.983,16.919 42.881,17.235 41.995,17.868 C 41.11,18.501 40.488,19.35 40.129,20.417 C 39.77,21.484 39.591,22.583 39.591,23.716 C 39.591,25.177 39.803,26.452 40.228,27.542 C 40.653,28.632 41.313,29.446 42.21,29.985 C 43.107,30.524 44.077,30.794 45.122,30.794 C 46.393,30.794 47.468,30.427 48.349,29.692 C 49.23,28.957 49.825,27.869 50.137,26.423 z "
   id="path51" />
	<path
   d="M 55.313,32.451 L 55.313,15.263 L 57.594,15.263 L 57.594,22.326 L 66.485,22.326 L 66.485,15.263 L 68.766,15.263 L 68.766,32.451 L 66.485,32.451 L 66.485,24.357 L 57.594,24.357 L 57.594,32.451 L 55.313,32.451 z "
   id="path53" />
</g>
<g
   id="g55"
   transform="matrix(0.95,0,0,0.95,5.046075,4.6262)">
	<path
   d="M 78.676,35.435 L 78.676,36.951 L 70.145,36.951 C 70.133,36.57 70.195,36.204 70.331,35.852 C 70.549,35.272 70.898,34.701 71.379,34.139 C 71.859,33.577 72.549,32.928 73.449,32.192 C 74.845,31.039 75.791,30.128 76.289,29.458 C 76.787,28.788 77.036,28.153 77.036,27.555 C 77.036,26.929 76.811,26.402 76.361,25.971 C 75.911,25.541 75.324,25.326 74.601,25.326 C 73.835,25.326 73.224,25.555 72.765,26.014 C 72.306,26.473 72.074,27.108 72.068,27.919 L 70.443,27.747 C 70.554,26.531 70.974,25.605 71.703,24.969 C 72.431,24.331 73.409,24.013 74.637,24.013 C 75.876,24.013 76.857,24.356 77.579,25.042 C 78.301,25.728 78.662,26.578 78.662,27.592 C 78.662,28.108 78.556,28.615 78.345,29.113 C 78.134,29.611 77.782,30.136 77.292,30.687 C 76.801,31.238 75.988,31.994 74.852,32.955 C 73.901,33.753 73.29,34.293 73.019,34.578 C 72.748,34.861 72.523,35.147 72.346,35.434 L 78.676,35.434 L 78.676,35.435 z "
   id="path57" />
</g>
<g
   id="g59"
   transform="matrix(0.95,0,0,0.95,5.046075,4.6262)">
	<path
   d="M 80.003,24.085 C 80.003,21.232 80.769,19 82.301,17.387 C 83.833,15.773 85.811,14.966 88.234,14.966 C 89.821,14.966 91.251,15.345 92.525,16.103 C 93.799,16.862 94.77,17.918 95.439,19.274 C 96.108,20.63 96.441,22.168 96.441,23.886 C 96.441,25.629 96.089,27.188 95.386,28.563 C 94.683,29.938 93.686,30.98 92.396,31.687 C 91.106,32.394 89.715,32.748 88.222,32.748 C 86.604,32.748 85.158,32.357 83.884,31.576 C 82.61,30.795 81.645,29.727 80.988,28.376 C 80.331,27.025 80.003,25.594 80.003,24.085 z M 82.347,24.115 C 82.347,26.185 82.904,27.816 84.018,29.008 C 85.132,30.2 86.53,30.795 88.21,30.795 C 89.922,30.795 91.331,30.193 92.438,28.99 C 93.544,27.787 94.097,26.08 94.097,23.869 C 94.097,22.471 93.861,21.25 93.388,20.207 C 92.915,19.164 92.223,18.355 91.312,17.781 C 90.401,17.207 89.379,16.92 88.246,16.92 C 86.636,16.92 85.25,17.473 84.089,18.578 C 82.928,19.683 82.347,21.529 82.347,24.115 z "
   id="path61" />
	<path
   d="M 99.453,32.451 L 99.453,15.263 L 101.734,15.263 L 101.734,22.326 L 110.625,22.326 L 110.625,15.263 L 112.906,15.263 L 112.906,32.451 L 110.625,32.451 L 110.625,24.357 L 101.734,24.357 L 101.734,32.451 L 99.453,32.451 z "
   id="path63" />
</g>
<path
   d="M 46.696925,37.8287 L 48.312875,37.8287 L 48.312875,63.3362 L 47.505375,64.1437 L 46.696925,63.8112 L 46.696925,37.8287 z "
   id="polygon65" />
<path
   d="M 162.97693,41.8187 L 163.78443,42.2937 L 163.78443,43.1962 L 139.55943,57.2087 L 138.75193,55.7837 L 162.97693,41.8187 z "
   id="polygon67" />
<path
   d="M 162.97693,4.6262 L 164.59287,4.6262 L 164.59287,41.8187 L 163.78443,42.2937 L 162.97693,41.8187 L 162.97693,4.6262 z "
   id="polygon69" />
<path
   d="M 196.79693,60.4387 L 195.98943,61.8162 L 163.78443,43.1962 L 163.78443,42.2937 L 164.59287,41.8187 L 196.79693,60.4387 z "
   id="polygon71" />
</svg>