<svg id="svg5273" xmlns="http://www.w3.org/2000/svg" xmlns:xlink="http://www.w3.org/1999/xlink" width="131.3306mm" height="99.3459mm" viewBox="0 0 372.2758 281.6104"><defs><style>.cls-1{fill:#dbdbdb;}.cls-2{fill:url(#radial-gradient);}.cls-3{fill:#ff7f00;stroke:#ff4000;stroke-width:0.3709px;}.cls-4{fill:#ffbf00;}.cls-5{fill:#f16422;}.cls-6{fill:#ef929f;}.cls-7{fill:#e58898;}.cls-8{fill:#f4a6b4;}.cls-9{fill:#f9d7dd;}.cls-10,.cls-13,.cls-9{stroke:#e26983;}.cls-10,.cls-12,.cls-13,.cls-9{stroke-width:1.0173px;}.cls-10,.cls-14{fill:#e2ac88;}.cls-11{fill:#d59758;}.cls-12,.cls-13,.cls-27,.cls-33{fill:none;}.cls-12{stroke:#d35777;}.cls-15{fill:url(#linear-gradient);}.cls-16{fill:url(#linear-gradient-2);}.cls-17{fill:url(#linear-gradient-3);}.cls-18{fill:url(#linear-gradient-4);}.cls-19{fill:url(#linear-gradient-5);}.cls-20{fill:url(#linear-gradient-6);}.cls-21{fill:url(#linear-gradient-7);}.cls-22{fill:url(#linear-gradient-8);}.cls-23{fill:url(#linear-gradient-9);}.cls-24{fill:url(#linear-gradient-10);}.cls-25{fill:url(#linear-gradient-11);}.cls-26,.cls-32{fill:#8f0000;}.cls-26{opacity:0.23;}.cls-26,.cls-27,.cls-34,.cls-35{isolation:isolate;}.cls-27{stroke:#084799;stroke-width:0.5086px;opacity:0.41;}.cls-28{fill:#0060b6;}.cls-29{fill:#093463;}.cls-30{fill:#bf0000;}.cls-31{fill:red;}.cls-33{stroke:#8f0000;stroke-width:1.2738px;}.cls-35{font-size:14px;font-family:LiberationSans, Liberation Sans;}</style><radialGradient id="radial-gradient" cx="245.3769" cy="-1111.8922" r="110.619" gradientTransform="matrix(0.8, 0, 0, -0.8, 73.9754, -761.3377)" gradientUnits="userSpaceOnUse"><stop offset="0.0056" stop-color="#3f3f3f"/><stop offset="0.3287" stop-color="#686868"/><stop offset="1" stop-color="#c8c8c8"/></radialGradient><linearGradient id="linear-gradient" x1="-61.9794" y1="711.9297" x2="-43.1539" y2="605.3661" gradientTransform="matrix(-0.1742, -0.7808, -0.7808, 0.1742, 748.7995, 24.0428)" gradientUnits="userSpaceOnUse"><stop offset="0.0056" stop-color="#084799"/><stop offset="0.1654" stop-color="#0c4696"/><stop offset="0.313" stop-color="#17418d"/><stop offset="0.4558" stop-color="#2a3a7d"/><stop offset="0.5958" stop-color="#443067"/><stop offset="0.7337" stop-color="#66234a"/><stop offset="0.8681" stop-color="#8f1328"/><stop offset="1" stop-color="#bf0000"/></linearGradient><linearGradient id="linear-gradient-2" x1="-94.032" y1="617.8159" x2="-90.3359" y2="596.8937" xlink:href="#linear-gradient"/><linearGradient id="linear-gradient-3" x1="-32.2365" y1="604.8663" x2="11.1235" y2="591.579" gradientTransform="matrix(-0.1742, -0.7808, -0.7808, 0.1742, 748.7995, 24.0428)" gradientUnits="userSpaceOnUse"><stop offset="0.0056" stop-color="#084799"/><stop offset="0.0444" stop-color="#14428f"/><stop offset="0.2221" stop-color="#482e64"/><stop offset="0.397" stop-color="#731e40"/><stop offset="0.5655" stop-color="#941124"/><stop offset="0.7257" stop-color="#ac0710"/><stop offset="0.8743" stop-color="#ba0204"/><stop offset="1" stop-color="#bf0000"/></linearGradient><linearGradient id="linear-gradient-4" x1="-53.2333" y1="544.4712" x2="13.8391" y2="545.4646" gradientTransform="matrix(-0.1742, -0.7808, -0.7808, 0.1742, 748.7995, 24.0428)" gradientUnits="userSpaceOnUse"><stop offset="0.0056" stop-color="#084799"/><stop offset="0.0592" stop-color="#19408b"/><stop offset="0.231" stop-color="#4b2d61"/><stop offset="0.4008" stop-color="#751d3e"/><stop offset="0.5654" stop-color="#951023"/><stop offset="0.7232" stop-color="#ac0710"/><stop offset="0.8713" stop-color="#ba0204"/><stop offset="1" stop-color="#bf0000"/></linearGradient><linearGradient id="linear-gradient-5" x1="-107.8642" y1="581.1982" x2="-97.4078" y2="581.353" xlink:href="#linear-gradient-4"/><linearGradient id="linear-gradient-6" x1="-111.5137" y1="567.6832" x2="-100.4341" y2="567.8473" xlink:href="#linear-gradient-4"/><linearGradient id="linear-gradient-7" x1="-104.6338" y1="555.31" x2="-94.8085" y2="555.4555" xlink:href="#linear-gradient-4"/><linearGradient id="linear-gradient-8" x1="-95.6168" y1="539.8888" x2="-74.9726" y2="514.2692" xlink:href="#linear-gradient-4"/><linearGradient id="linear-gradient-9" x1="-97.362" y1="538.4713" x2="-76.726" y2="512.862" xlink:href="#linear-gradient-4"/><linearGradient id="linear-gradient-10" x1="-91.6427" y1="543.0909" x2="-70.9978" y2="517.4707" xlink:href="#linear-gradient-4"/><linearGradient id="linear-gradient-11" x1="-85.5898" y1="547.9752" x2="-64.9416" y2="522.3509" xlink:href="#linear-gradient-4"/></defs><title>Alveolus diagram en</title><g id="layer1"><path id="path7" class="cls-1" d="M383.6017,256.4969H286.0425c-6.76,0-16.032,1.7264-22.5064-.436-4.7176-1.5752-5.512-5.384-7.7424-9.4216-8.81-15.9464-21.5648-30.2464-34.1808-43.2784-16.5856-17.1344-35.9176-31.4224-52.7032-48.25-8.0168-8.036-14.108-14.9816-16.6856-26.164-2.544-11.0376-1.3168-23-1.3168-34.3248V55.3353H339.7737c6.3744,0,11.4136-.87,16.832,2.7032,6.4128,4.23,12.3232,9.2072,16.4984,15.7048,4.7168,7.336,7.3464,15.7216,8.9768,24.232,1.5992,8.35,1.972,16.6856,2.33,25.1432.6024,14.2736-.81,28.8176-.81,43.24v44.38q.001,22.8792.0007,45.7584Z" transform="translate(-12.2842 -15.1003)"/><path id="path16" class="cls-2" d="M233.3286,55.4509c3.6424.03,7.0936-1.39,11.0048.7944a14.8012,14.8012,0,0,1,7.2752,15.9024c4.4168-10.6608,10.0744-13.5512,21.43-9.4272,2.2272-4.9408-1.4288-8.872,5.55-12.5784,5.208-2.7664,9.5832.1728,14.29-.2376,3.8568-.3376,6.19-4.3,10.0168-5.4624,5.228-1.5864,12.21,1.0312,16.6568,3.8736,1.8111,1.1576,9.5128,8.6944,8.1848,11.0912,3.16-5.7072,8.8592.0664,10.8928,3.8272,3.8392,7.0952,2.008,14.9816,2.6448,22.4176,4.6648-1.1968,9.6544,6.6776,11.4776,10.23,4.3376,8.4584,5.9472,21.9768-4.5648,26.93,5.064,4.9264,10.9056,13.7064,13.2128,20.7224a26.9411,26.9411,0,0,1,.9176,13.9912c-.8072,3.7264-2.8112,6.35-2.7344,10.3384.1928,10.06,6.8735,24.464-5.204,31.0608-6.1241,3.3456-12.0752-1.48-17.8656-.6448-3.1744.4576-8.3552,1.3416-11.7968,2.07-5.468,1.1568-10.3576,5.5632-15.5768,8.3256-5.4248,2.87-10.148,4.4784-16.3376,3.3528-3.9992-.7264-8.7856-2.1264-12.1-4.6272-2.3208-1.75-3.5216-5.2616-5.656-6.9256-3.136-2.4464-6.0616-.9376-9.692-1.9936-4.4784-1.3016-3.0256-4.7336-6.3368-6.5888-4.7768-2.6768-8.85,5.6552-14.6848,5.3-4.3872-.2672-7.6272-3.2912-12.0664-4.4736-5.5632-1.4808-20.2728,1.91-23.6856-1.4024-2.7536-2.6712-1.1592-2.212.1632-5.6184,2.088-5.3768,4.436-8.756,5.5128-14.5368,1.5112-8.12.4832-22.124-8.6624-25.9168-4.2856-1.7776-6.692-.0008-10.41-3.9224-2.9192-3.0808-4.5944-7.2144-6.7872-10.79-6.732-10.9832-6.8368-21.6312-6.6544-34.1256.0544-3.7744,1.0136-7.8392-.2656-11.4416-1.2064-3.3928-4.9312-5.37-3.4264-9.4384,1.756-4.7424,7.5936-6.3264,10.95-8.9016-2.9832-3.192-.1232-11.9512,3.0776-14.212,5.4456-3.8464,11.864-.9368,15.9672,3.1768,3.168-3.7784,6.028-6.69,10.816-6.1936s7.8592,4.7744,12.0648,5.7792A10.7076,10.7076,0,0,0,233.3286,55.4509Z" transform="translate(-12.2842 -15.1003)"/><g id="g1470"><g id="g1472"><path id="path1474" class="cls-3" d="M201.0718,207.64c-.5448-.764.7376-1.8272,1.4272-.98a.8538.8538,0,0,1,1.3576-.17c.2145-.85,1.1577-1.308,1.5128-.3352-.2671-.7312.9265-.1256,1.1473.0744.5976.5392.244,1.8752-.0681,2.4376-.3655.6576-.4607,1.97-1.6144,1.404-.3151.5392-.9776.9936-1.4735.49a.99.99,0,0,1-1.652.4976c-.48.4336-.9336-.2088-1.484-.3528-.6424-.1672-1.1825-.2008-1.0721-1.0288.0384-.2832.5752-1.8584,1.052-1.0128-.3576-.6336.1577-1.78.8672-1.0248Z" transform="translate(-12.2842 -15.1003)"/><path id="path1476" class="cls-4" d="M200.3518,208.9165c-.7976-.73-1.13,1.0056-.148.8608-.1824.3664.2424.7728.5672.5056-.036.6072.68.576.8624.1224a.52.52,0,0,0,.9992.14c-.4592.344-.8728-.2136-.6976-.644-.41-.08-.3544.408-.5936.43-.2944.0256-.4112-.4728-.144-.6152-.3712-.02-1.11.0408-.62-.6048-.05-.0056-.1056-.0176-.156-.0184-.1064-.6768.2736-.9784.9152-.9056-.32.172-.796.4048-.556.9176.2024.4336.524.316.7992.0648-.196.3832.2528.5672.4928.308a.4694.4694,0,0,0,.3112.6688c-.07-.368-.284-.864.2384-1.05-.2664.0128-.6936.31-.9136.1328-.3752-.3032.1144-1.0208.54-.9312-.652-.0992-.73.3912-1.08.736a.94.94,0,0,1,.6759-1.0184c-.4336.0136-.016-.73.3424-.77a.5486.5486,0,0,0-.6136.3048.4644.4644,0,0,1-.0048-.7448.7278.7278,0,0,0-.3784,1.0656c-.5584-.5992-1.2672.2536-.9224.8336a.9361.9361,0,0,0-.4112.21" transform="translate(-12.2842 -15.1003)"/><path id="path1478" class="cls-5" d="M203.5038,210.0909c.672.2448.91-.8.6408-1.2288a1.2577,1.2577,0,0,1,.4577.3584c.0168-.09.0711-.144.0888-.232.6784.3024.9688-.6136.4384-1.0032a1.565,1.565,0,0,1,.2175-.0664c.03-.2672-.2216-.39-.464-.4208.0368-.036.0768-.1048.1-.13-.4-.2448-.71.0088-1.0336.244-.0984-.524-.8544-.1536-.956.1872-.15-.3144-.57-.2928-.844-.1256.1024-.5424.6832-.5528,1.1008-.4976-.0448-.0744-.0624-.2208-.11-.292.6064.2472.4976-.2648.01-.4432.5592.0808.664.3592,1.0256.616.012-.5976.8008.04.9992-.1.5712-.3976-.36-1.0032-.73-1.0224.5608-.28.8976.3408.9856.8.0568-.0664.1848-.1184.2256-.1632.0168.1768.0144.3656.016.5432.7328.076.1856-.8576.0152-1.096a.8588.8588,0,0,1,.4032,1.5352.976.976,0,0,1,.1424,1.2848.6829.6829,0,0,0-.6816-.9024c.13.31.0312.6872.1288.9712.0864-.0712.2216-.0768.296-.1616a.761.761,0,0,1-.6136,1.1464c.41-.2816.4712-.872-.1144-.84a1.16,1.16,0,0,0-.7336.4208c.5432.172-.1976.8808-.5176.9256a.7549.7549,0,0,1-.81-.5968c.2888.2584.3256-.4808.25-.6856.196.2552.0208.436.0832.6632.0241.09.05.6488.3536.1856" transform="translate(-12.2842 -15.1003)"/></g><path id="path1480" class="cls-6" d="M290.7342,148.7653c9.0024,3.9936,26.55.3016,24.6344-12.7208,2.9832-1.05,6.132.2832,9.2592-.4816,3.4976-.856,4.9576-2.6376,7.2736-5.3888,4.1664-4.956,6.5695-12.0264,3.692-18.0992,6.4215-3.0512,11.2879-7.75,11.4567-14.9888a24.09,24.09,0,0,0-2.0751-10.53c-1.3745-2.6872-6.3289-4.6224-7.1457-6.7592-.7815-2.0464,1.2977-7.4616.984-10.2112a19.8938,19.8938,0,0,0-3.7007-9.1952c-3.21-4.5288-10.9792-8.3968-15.6176-3.2272-4.3048-8.0832-8.3728-10.932-17.476-10.4976-6.1512.2944-16.2712,2.4584-16.05,10.7184-3.4784.7216-7.288-1.3528-11.1888-.7536-4.2064.6464-8.716,2.28-11.7648,5.25-5.5272,5.3816-5.4848,13.4552-2.6728,20.124-8.7648,2.5264-14.0936,6.4808-14.1408,16.576-.0392,8.1664,3.2784,12.5784,8.9528,17.35-5.3849,1.8616-5.1889,6.3512-4.152,11.04,1.6368,7.4016,4.8664,8.136,11.6711,10.156-.8631,5.9384-11.1136,11.1872-15.7432,13.9616-5.8832,3.5232-12.3272,6.536-19.2392,7.6808,4.6792-9.0448,4.2024-16.5968,5.228-26.0128-.0376.3424,7.1248-3.3376,7.75-3.888a15.06,15.06,0,0,0,4.8472-7.4264,7.97,7.97,0,0,0-1.9864-7.6576c-.6792-.7032-1.9136-1.008-2.4872-1.7616-1.0928-1.428-.71-.6264-.068-1.9928,1.1264-2.3992,2.4528-3.7712,2.9-6.45.8048-4.8416,1.35-7.9832-.3632-12.7176-1.4576-4.0272-3.9976-6.8784-8.628-6.5128.6592-6.624,4.6112-17.7592-1.268-23.5512-3.1591-3.112-6.3528-.6008-9.852-1.1264-3.6944-.5552-5.8608-4.652-9.732-6.18-3.8919-1.5352-5.1647.4688-8.6344,1.23-3.3008.7248-6.1832-2.2464-9.876-2.104-8.748.3408-8.13,11.9624-7.272,17.6728-5.3824,1.6016-11.2208,2.1-13.2792,7.9272-1.2832,3.6344-1.0064,15.21,3.212,17.2192-7.4576,1.184-10.9863,7.2024-9.9536,14.4384.52,3.6368,1.38,9.0528,3.6568,11.9536,1.95,2.4808,5.0848,2.848,7.5712,4.5248-.756-.7168-2.9656,3.5992-3.1552,4.2192-1.6608,5.4576,3.5168,8.0352,7.7416,9.8664,1.3305.576,9.4208,1.136,9.7712,2.152,1.0712,3.1184.2672,6.9184,1.7768,10.0816,1.9376,4.0608,4.4632,3.6768,8.71,4.1568,8.25.932,7.9528,6.4912,4.572,12.8944-7.2408,13.7168-19.0056,18.4016-32.7368,22.392-.5256,9.2024-1.1512,20.71,4.4584,28.5072,1.0816,1.5032,2.8376,3.7152,4.8744,3.8024,3.1688.136,2.4416-1.0312,4.1176-3.2928a69.7079,69.7079,0,0,1,9.1336-9.572c14.1664-12.9352,31.088-24.2448,47.468-33.9032,7.21-4.25,14.736-8.1752,22.2488-11.9232,3.7624-1.8776,6.79-5.1016,10.35-7.23,4.5352-2.7168,8.6072-5.3968,11.9472-9.7384Z" transform="translate(-12.2842 -15.1003)"/><path id="path1482" class="cls-7" d="M221.5158,164.8061c3.132-2.3688,4.3648-2.3552,5.7208-5.8456,1.212-3.1152,3.3088-6.328,4.0776-9.5784.9136-3.8712.0632-7.9184.5216-11.8336.688-5.8568,2.4248-4.9576,7.0112-7.1256a10.5335,10.5335,0,0,0,5.9112-7.4088c.4312-2.1968-.2608-8.9272-3.3248-9.48-2.1785-.392-2.7944,6.6392-4.1064,8.796a13.4157,13.4157,0,0,1-9.6464,6.4232c3.4384-9.608-.8984-19.896-12.03-18.4184,9.488,7.5616,8.196,27.7888-5.1768,29.076.9488,3.116,6.95,2.2512,9.4208,1.6488.4944,1.7712-1.1424,3.624-2.4736,4.7424,1.7744,2.7032-.1216,8.0464-.624,10.99a43.7326,43.7326,0,0,1-3.3552,11.0648,47.5561,47.5561,0,0,1-3.1352,6.14c-1.2768,1.9968-3.6048,3.4224-4.0744,5.7944,2.9784-.744,5.15-4.7256,7.0376-6.944a51.9918,51.9918,0,0,1,8.2456-8.0408Z" transform="translate(-12.2842 -15.1003)"/><path id="path1484" class="cls-7" d="M240.7054,108.84c-.8536,2.5408-4.2488,4.6264-6.8248,4.764,3.1984-3.136,2.4216-11.6936.5744-15.5536-1.2527-2.62-3.8272-6.2272-7.1383-6.2544-2.8161-.0224-5.14,2.8432-7.8792,3.3584,5.7879-5.4032,2.7368-16.5088-2.356-21.8664,4.4824,1.1208,5.512,7.8976,7.7728,11.1656,1.55,2.2416,3.9312,2.732,6.2856.1824,3.4191-3.6984,2.6264-10.5552.604-14.6608-1.7473-3.5432-6.6993-4.89-8.05-7.704,12.06-9.3432,17.5048,15.564,10.7353,22.0176,6.368.792,11.3448,2.7544,10.9879,10.0664-.2591,5.35-3.4472,10.856-5.2392,15.8536" transform="translate(-12.2842 -15.1003)"/><path id="path1486" class="cls-7" d="M199.387,153.4925c4.2824,2.4192,8.5488-.0736,9.2368-4.8408,2.44,1.5632,2.4624,7.8776-.3624,9.124-2.6912,1.188-10.1248-.9936-10.1512-4.2576a1.9089,1.9089,0,0,1,.968.4608" transform="translate(-12.2842 -15.1003)"/><path id="path1488" class="cls-7" d="M191.5582,135.1437c-3.35,1.7328-6.728,1.4792-10.1192.06-1.768-.7392-5.7192-3.97-5.1008.03.5168,3.34,7.5721,5.33,10.2433,6.108,2.8839.8416,5.9919,2.23,7.8279-.7184,1.8912-3.036.8168-8.2088.4048-11.4144-.0736,2.9048-.5344,4.5256-3.256,5.9344Z" transform="translate(-12.2842 -15.1003)"/><path id="path1490" class="cls-7" d="M170.9342,115.6477c-.816,3.5352,1.2592,6.9728,4.6033,8.9984,2.0976,1.27,3.1368,1.37,4.9856-.0512.412-.3168,3.048-4.3856,3.0616-4.3776-3.2008-2.056-4.1168-6.6672-2.66-10.0048-.7721,2.232-.9216,4.588-2.5664,6.3936-1.87,2.05-6.3152,3.4928-7.2473-.1632" transform="translate(-12.2842 -15.1003)"/><path id="path1492" class="cls-7" d="M185.37,118.6813c1.2184,2.3984,10.7752,8.056,9.5816,10.7648,4.5248-10.2744,7.6168-3.2872,11.416,2.7664-4.372-6.968-.656-21.6408,8.0464-22.9184-2.7656-.1688-4.7328.5144-6.3056-2.23s-.3632-5.212-3.2048-7.6368c.9064,6.3976,1.3376,14.0848-5.3064,17.676-5.4712,2.9576-12.95.1408-16.6568-4.0352a42.7589,42.7589,0,0,0,2.0328,5.7024" transform="translate(-12.2842 -15.1003)"/><path id="path1494" class="cls-7" d="M180.767,101.7813c1.3024-5.0968,2.2768-8.3632,6.4216-11.8008-2.19,1.9832-6.0144,4.7048-9.0848,3.3688,4.3912,4.7184-2.6513,2.8208-4.44,5.8784,2.792-.96,6.19-.6712,7.1032,2.5536" transform="translate(-12.2842 -15.1003)"/><path id="path1496" class="cls-7" d="M193.9806,86.8829c4.032-.9312,10.7136,3.8232,10.7832,7.9168,1.1848-6.7288-1.8952-13.1968,1.1544-19.828-1.3656,1.1864-3.3848.6408-5.11.7248,5.184,3.692-6.0064,9.4016-7.9168,11.29" transform="translate(-12.2842 -15.1003)"/><path id="path1498" class="cls-7" d="M209.471,67.8629c7.1576,1.69,6.3472-14.84-.332-13.2648,3.6776-1.3392,9.7672,2.532,10.0152,6.5408.2112,3.39-4.0528,5.5584-1.2424,9.3712-2.3736-2.78-3.8992-1.4112-7.4688-2.03" transform="translate(-12.2842 -15.1003)"/><path id="path1500" class="cls-7" d="M214.1054,197.0077c-8.624,6.83-19.0808,13.4488-24.7872,23.104-1.48,2.5008-1.328,3.7424-4.44,3.1272-.7256-.1424-5.2352-2.5464-4.468-3.7072,9.17-13.8992,21.7944-25.5376,35.6424-34.7344,9.8-6.51,20.3-11.7208,30.6584-17.2632,6.0376-3.23,15.2552-6.3672,19.7864-11.55-1.448,1.5648-1.83,3.7736-3.2768,5.4824a72.4986,72.4986,0,0,1-8.948,8.2472c-6.4808,5.4032-14.184,8.9744-21.1369,13.68-6.51,4.4056-12.86,8.7256-19.03,13.6144Z" transform="translate(-12.2842 -15.1003)"/><path id="path1502" class="cls-7" d="M341.967,99.6149c.468-8.8008-10.1688-13.0448-17.25-11.1272,1.1024,2.9448-2.284,9.5112-5.1744,10.6208,6.7976-7.9352-7.9448-21.188-15.3488-21.9552,6.2984-1.2984,16.4768,3.5368,19.8672,8.8624,1.6872,2.6528,7.6808-8.408,8.164-9.8264,1.5976-4.6824,2.232-11.9912-3.108-14.52,7.9952-2.132,8.612,15.3792,6.1328,19.9232,2.9872,2.1032,5.6,3.3912,7.5984,6.6456a15.1937,15.1937,0,0,1,.564,14.1152c-1.2368,2.6424-7.8232,10.5184-10.3256,5.2624,4.2832,1.4672,8.676-4.15,8.8808-8.0008Z" transform="translate(-12.2842 -15.1003)"/><path id="path1504" class="cls-7" d="M315.8822,72.0613c.99-4.2144,1.3064-9.5536,3.5352-13.304-3.1928.0768-3.3144-6.1888-6.1952-8.1144-4.0992-2.7376-11.2832-2.612-15.3568-.0872,9.164-2.2432,19.5033,16.324,17.3592,24.1536" transform="translate(-12.2842 -15.1003)"/><path id="path1506" class="cls-7" d="M289.4942,77.1133c.8656-4.3736,6.4136-4.2576,9.7776-4.2272-2.1752-.752-7.89-1.0624-9.2448-3.0736-1.0816-1.6072-.6208-6.88-1.37-9.1552-1.8448,1.568-5.9168-.976-8.1736-1.2312-5.1711-.5848-9.564.228-13.704,3.1672,5.4336-1.44,13.7128,2.9576,15.1976,8.6272,1.35,5.1416-3.4151,13.704-8.7272,14.8928-3.8335-6.2392-20.1839-3.8064-23.3536,2.2712,5.0872-2.3936,12.6033-.8184,15.8681,4.12,1.8279,2.7648,1.716,7.4512,1.572,10.6832.4144-9.2584,11.724-19.3632,20.7472-19.0272.21,5.24-.4776,13.3216,6.3232,15.68-5.7656-5.5392-2.4448-16.2184,2.4768-20.9544-2.8088.9056-7.9008,2.6824-8.27-1.9928" transform="translate(-12.2842 -15.1003)"/><path id="path1508" class="cls-7" d="M264.1654,137.3773c-5.3208.8-9.1136-3.3464-11.18-7.3784,4.14,2.6608,10.616,1.0808,12.4456-3.3072,2.16-5.1736-.2256-10.0824-1.7152-15.3592,2.4528,1.11,4.2952,3.0024,6.75,4.1976a49.3026,49.3026,0,0,0,8.69,3.5032,18.19,18.19,0,0,0,10.89,0c-1.4184-1.6288,1.5577-3.5216,2.1665-5.4168,1.3784-4.2856-.9249-7.5728-2.1825-11.5,1.792.7984,3.6176,3.3536,5.416,2.0584.6816,3.03,5.9993,3.9208,8.5648,4.0064a19.6829,19.6829,0,0,0,15.0864-6.7256c-1.0856,5.912.9048,5.9448,4.268,10.2712,1.6944,2.1776,4.192,5.944,7.5256,3.81,1.996-1.2768,1.7264-3.5112.9208-5.61,4.7912,2.71,3.5616,7.69,3.436,12.0928-.2416,8.3256-5.296,12.2512-12.5792,16.0744a36.1168,36.1168,0,0,1-17.0224,4.232,32.9517,32.9517,0,0,1-12.6272-2.64c-2.3064-.9448-6.4024-2.7872-9.036-2.028-2.4336.7008-3.8968,4.2776-6.5336,5.068a9.1758,9.1758,0,0,1-6.0912-.764c-2.9616-1.3808-4.1008-4.3608-6.976-5.47" transform="translate(-12.2842 -15.1003)"/><g id="g1510"><path id="path1512" class="cls-8" d="M263.175,201.4133c5.0264,2.6576,9.1552.3264,12.6376-3.2256,4.7592,5.5016,7.1768,11.2832,14.836,13.7592,8.368,2.7048,13.34-2.3592,17.5536-8.5872,5.7184,4.9792,9.85,9.4616,17.7488,5.42,5.5256-2.828,9.3128-10.5568,9.1856-16.5664,7.51.3576,14.59.0912,19.44-7.1736,3.1047-4.6512,5.1544-17.9464.1912-21.8856,5.116-7.268,4.7112-17.8528,1.2968-26.264-2.9376-7.2392-15.1993-18.7208-22.7225-9.9832-2.6144-8.8928-7.7784-17.67-17.8544-19.7376-11.2527-2.3072-18.1136,4.49-21.7943,14.24-7.5825-2.3712-14.1656-9.772-22.808-4.9872-4.6265,2.5616-6.5977,6.87-7.79,11.7432-.59,2.42-.4336,11.7728-1.788,13.1-1.3064,1.2768-4.31-.0864-5.9352.2976-2.7752.6584-4.204,2.2088-5.6832,4.4928-2.1953,3.3872-2.9024,7.95-2.9312,11.8512-.0409,5.4256,1.5168,7.364-3.7584,10.4384-3.8128,2.2216-7.6384,3.5008-12.0681,3.1392-8.9184-.7264-19.4576,3.25-19.7047,13.836-.3712,15.9672,14.9208,5.968,22.3735,3.3152,5.3168-1.8936,11.4568-2.5328,16.7993-.4744,6.652,2.5616,6.8584,10.1224,12.7752,13.252Z" transform="translate(-12.2842 -15.1003)"/><path id="path1514" class="cls-9" d="M282.5262,161.9437c-.3136.2528-.6168.5192-.9064.8016-1.75,1.7-2.7944,4.0232-4.35,5.8832-2.4928,2.9832-5.1912,3.444-8.5216,5.1056-6.6,3.2952-9.9056,10.9392-4.8608,17.0664a10.9592,10.9592,0,0,0,8.73,3.6,8.4694,8.4694,0,0,0,4.1216-1.4208c.3992-.25,3.3672-2.536,2.888-3.1184.464.564.51,2.11.6608,2.9576.99,5.6152,5.9544,11.3928,11.2928,13.4432a15.38,15.38,0,0,0,12.8552-1.3664c2.8784-1.6544,6.728-5.0816,5.9744-8.7752.856,3.84,4.3144,8.1128,8.6192,8.1128a15.84,15.84,0,0,0,10.7264-4.568c2.4368-2.4048,5.55-8.3336,4.65-11.804,4.7448,4.652,14.25-1.15,17.3328-5.1712,3.2088-4.1848,3.09-9.6136,1.1624-14.3272-1.18-2.8928-4.6664-7.8464-4.1624-11.1.3544-2.2912,2.3384-2.5312,3.5064-4.5136,3.1576-5.37-2.05-13.6264-6.6168-16.6328-5.712-3.7624-10.0655,2.0784-13.116,6.5248-3.9856,5.81-10.4712,12.564-17.7256,13.9344-5.4848,1.036-11.036-.6352-16.6712.3488-5.1359.8984-11.3552,1.6184-15.5888,5.0192Z" transform="translate(-12.2842 -15.1003)"/><path id="path1516" class="cls-10" d="M277.33,157.0149c.9216,4.356-1.2759,8.2024-3.8168,11.5384-3.37,4.4216-11.836,9.9256-7.6344,16.65,1.7144,2.7464,8.2832,6.2128,11.5056,4.8856.76-.3144,1.1256-1.2064,1.61-1.8744.5592-.77,1.052-2.1208,2.1792-1.684,1.248.4832.5168,2.4288.75,3.3832.34,1.3936,1.5487,2.652,2.2416,3.8936,2.88,5.1664,7.8047,9.5144,13.752,8.9984a12.56,12.56,0,0,0,10.1815-5.9248c2.1144-3.3656,1.08-7.6192,2.8816-11.088.8033.8.5216,2.6144.512,3.7184-.0056.7608-.1735,1.588-.1151,2.3408.352,4.39,4.1672,6.0536,8.1456,6.2784a11.3509,11.3509,0,0,0,10.8863-6.7408c.7424-1.5664,2.0712-2.0152,2.3232-3.9432a12.3094,12.3094,0,0,0-.5744-4.836c-.2608-.9024-2.6024-5.6688-1.6664-5.8376,1.2152-.22,2.7688,4.472,3.224,5.3688,3.488,6.8512,13.0345,1.68,16.0624-2.8824a17.35,17.35,0,0,0,2.2352-13.412,19.9029,19.9029,0,0,0-2.9215-6.3232c-1.01-1.5672-3.9449-3.93-4.0432-5.69-.0712-1.2752,2.1815-2.7416,3.1056-3.9216,8.8064-11.2416-10.6272-23.4432-17.6744-10.6512a15.39,15.39,0,0,1-8.0192,7.2288c-6.0584,2.1936-10.5345-.5512-16.05-1.0248-7.156-.6152-6.61,5.4112-12.6336,8.2656-2.95,1.3976-5.3632.4368-8.2408.5368-3.0872.11-5.4577,1.8648-8.2048,2.7464Z" transform="translate(-12.2842 -15.1003)"/><path id="path1518" class="cls-11" d="M331.0734,168.7045c1.5392-5.2416,8.36-12.4928,14.076-11.9208-.6856-.64-.5984-.944-1.8584-1.2832.316-.7448.3088-1.5128.9952-2.1736-2.9456,1.8344-7.4856,4.468-11.21,3.2928-2.9272-.9232-4.196-3.1536-4.444-6.0632-.1864-2.192.5976-5.1432-2.3352-5.4744-3.828-.4312-2.2136,3.7272-2.5984,5.9424-.4152,2.3648-.9032,5.2088-2.7064,7.012-3.0168,3.0184-9.172,3.7672-12.2328.3456-2.684-3-3.608-7.5352-5.74-10.83-.7784.396-1.3016.052-1.6144-.7592a6.496,6.496,0,0,0-2.8856,3.648c2.9376,1.0768,5.6608,1.6112,5.8792,5.6848.24,4.4984-3.552,9.5072-7.304,11.5-4.3016,2.2832-11.2024,2.3672-14.832-1.4568a7.1027,7.1027,0,0,1-1.2208-7.268c.4616-1.2232,1.4976-2.0824,1.65-3.4248-.6328-.1808-4.8768,1.632-4.8456,1.7784.9208,4.356-1.2776,8.2008-3.8168,11.5352a23.0518,23.0518,0,0,1-3.61,3.23c-.3832.3416-2.3864,3.4552-2.4984,3.4592,1.536-.0464,2.9832-1.136,4.5152-1.4416a6.66,6.66,0,0,1,4.5976.6784,7.65,7.65,0,0,1,4.052,5.8608c.136,1.3584-.4048,2.196-.656,3.4336-.0744.3624-.1832,2.952-.23,3.0056,4.2864-4.888,7.8472-10.6616,15.2936-12.0152,7.5912-1.3792,11.9392,6.0912,15.41,11.3824,2.556-4.3984-3.1224-8.3688,2.4176-11.8816,2.444-1.548,6.6016-2.824,9.524-2.3056,2.4416.4336,3.4448,2.8216,5.59,3.756,1.0232.4464,2.6544.1584,3.4128,1.0824C331.5142,174.0229,330.163,171.8053,331.0734,168.7045Z" transform="translate(-12.2842 -15.1003)"/><path id="path1520" class="cls-6" d="M207.475,187.5005c-1.8656-5.4152,6.4768-13.2256,11.3072-14.1744,4.5848-.9,9.21.4,13.7912,0,1.084-.0952,12.356-3.5168,11.8648-4.388.7576,1.3416,2.1552,1.4808,3.576.892-.3744,3.4192,8.0152,7.6776,10.7336,5.0968-5.0656,2.6848-9.1785,2.0824-14.2369-.3016-2.6856,3.356-4.7319,2.8168-9.104,3.3528-4.8536.5952-10.6695.9384-15.3208,2.5736a57.4475,57.4475,0,0,0-12.6111,6.9488Z" transform="translate(-12.2842 -15.1003)"/><path id="path1522" class="cls-6" d="M266.6526,159.7517c-.77-4.9336-9.1656-16.3128-15.0448-13.4032,5-3.0648,7.9688-3.5688,13.436-.9656a2.3058,2.3058,0,0,1,.57-1.1c2.07.7656,2.8016,2.98,5.0872,3.7664a11.1254,11.1254,0,0,0,7.0768-.4064c4.1184-1.4256,8.7728-4.9912,9.48-9.5712a21.06,21.06,0,0,0-3.5944-14.65c-1.91-2.7688-5.9088-4.0288-7.2888-6.216,3.5056-1.5784,13.4543,1.3632,15.6408,4.768,1.5992,2.488,1.612,6.432,3.2624,9.1944,1.764,2.9544,4.1912,5.0184,6.5144,7.352-2.3672-.3256-5.988-.2784-8.3384.7456-5.2064,2.27-6.0544,7.5984-8.65,11.736-2.0544-1.684-6.1688-1.4432-8.348-.0808-3.8616,2.4176-.6344,4.4328-1.2968,8.1016-.73,4.0344-3.2888,6.6072-6.248,8.8424.93-2.5632-.2792-6.0824-1.8608-8.2016" transform="translate(-12.2842 -15.1003)"/><path id="path1524" class="cls-6" d="M321.0566,123.83c1.2464,8.2568-.5752,14.3568-9.6928,15.4968,3.9168.472,7.7232,2.1816,11.2136,3.83,2.5176-2.2072,3.7376-5.548,6.0928-7.9136,2.73-2.7432,5.4976-5.3744,8.1016-8.2536-1.5384.4456-2.89,1.268-4.5048,1.4176-.4255.04-3.9928-9.49-4.2936-10.1632a19.9871,19.9871,0,0,0-9.59-10.1336c-2.07-1.0736-4.2832-2.2384-6.7184-1.8992-1.6056.2248-4.716,3.7472-5.15,3.7232,7.8033.42,13.4072,6.3864,14.5416,13.8952Z" transform="translate(-12.2842 -15.1003)"/><path id="path1526" class="cls-6" d="M354.2638,161.8893a34.1646,34.1646,0,0,0-3.5816-4.984c3.844-1.0184,5.19-6.7928,5.2824-10.2752,2.6272,4.5128,2.4145,10.568-1.4815,14.3768" transform="translate(-12.2842 -15.1003)"/></g><path id="path1528" class="cls-12" d="M188.027,224.6765a61.6843,61.6843,0,0,1,13.148-14.876c7.7712-6.3168,14.4336-12.7576,23.4432-17.3472,6.43-3.276,13.7928-5.9624,21.1248-5.2384,7.3608.7272,9.888,5.6944,14.1088,10.8808a10.2932,10.2932,0,0,0,8.2456,3.9392c2.3168-.05,7.5192-1.1432,7.84-3.9344a4.2481,4.2481,0,0,1-2.9488-.03c3.99-.06,3.56.7464,5.6352,3.9336a28.1619,28.1619,0,0,0,5.8336,6.4424c8.4248,6.83,18.3832,4.4552,23.8936-4.7408,3.8016,4.9112,11.15,8.2312,17.0584,5.5752a14.5081,14.5081,0,0,0,7.608-7.9984,37.74,37.74,0,0,0,1.6056-5.332c.1825-.7352.2225-2.1352.6944-2.7328.9712-1.2352.6664-.6776,2.0409-.7048,3.9983-.0784,6.9688.3752,10.7728-1.5824,5.3344-2.7456,8.5655-8.44,9.5335-14.2136a22.037,22.037,0,0,0-.3023-8.9752c-.69-2.7416-2.5456-4.7728-4.0336-7.096a4.8575,4.8575,0,0,1,1.7064,1.6744c4.5832-4.312,4.652-13.176,3.7784-18.9336a20.9312,20.9312,0,0,0-5.4264-11.2224c-2.5017-2.73-5.156-5.7384-8.5664-7.3448-3.6769-1.732-8.8168-.7832-11.9712,1.5848.7976-.5992-1.4288-5.5992-1.7584-6.2912a24.24,24.24,0,0,0-3.8936-5.8584c-4.0953-4.5176-9.8232-7.5552-15.9864-7.4512a16.04,16.04,0,0,0-11.95,5.1768c-1.6864,1.85-2.53,4.1968-3.692,6.37-1.7144,3.21-2.3576,2.1136-5.1368.52-10.2576-5.8808-24.3672-4.0968-27.6272,8.7328-.796,3.1352-.2328,6.1944-.4608,9.36a16.1165,16.1165,0,0,0-.2832,3.62c-.2992.0544-.6616.264-.9616.2984.0856.2952.0584.6976.1392.9952-.2912-1.0736-8.67.284-9.5952,1.3368-3.6544,4.1464-4.3265,9.1264-4.9537,14.3832-.616,5.1712,0,8.2768-5.2208,11.0376-4.5016,2.3824-12.0408,4.4152-16.4967,1.1088" transform="translate(-12.2842 -15.1003)"/><path id="path1530" class="cls-13" d="M232.5014,132.4877c-.7488,6.47-.4056,12.95-1.7992,19.3208-.3472,1.5928-2.8624,4.6608-2.152,6.2848.8208,1.876,4.44-.6632,5.9312-1.3168a131.0327,131.0327,0,0,0,13.6272-6.6472" transform="translate(-12.2842 -15.1003)"/><path id="path1532" class="cls-13" d="M175.7022,191.85c5.0648.2272,9.4112-3.1152,13.9-4.9912a65.6481,65.6481,0,0,0,7.7192-3.7144,30.1611,30.1611,0,0,0,11.9-12.848,14.0011,14.0011,0,0,0,1.436-8.2448c-.25-1.3968-1.1472-2.6384-1.3168-4.0208-.2-1.6392.9592-3.232.5392-4.8488,2.0192,5.79-5.7656,5.71-9.0768,4.17-2.8736-1.3352-4.084-3.5528-5.244-6.3416-1.0032-2.41-.5664-4.4888-1.0048-6.8072-.4992-2.65-1.8992-1.4592-4.0408-1.5856-4.1184-.2432-9.14-1.5672-12.1008-4.7736-3.5288-3.8208-1.88-7.932.3816-11.7816-2.3848-.7352-5.13-3.2976-6.544-5.4208a28.0251,28.0251,0,0,1-3.0688-6.87,21.8671,21.8671,0,0,1-1.2144-6.232c0-6.8984,4.6936-10.0512,10.1848-12.6728-4.5288-1.9888-4.3048-12.4928-3.0328-16.2216,2.0168-5.9232,8.7416-7.188,13.9184-8.7672-1.968-3.45-.93-11.2744,1.8424-14.272,4.0944-4.43,8.984-2.368,12.9312.7224a19.6115,19.6115,0,0,0-1.3432,2.1744c2.384-3.69,6.1248-6.4464,10.8776-5.4064,3.308.7224,5.1008,3.1256,6.8208,5.7512.8824,1.3472.3624,1.6016,2.09,1.6616,1.1744.0408,2.7208-1.0072,3.93-1.2152,10.7224-1.8472,10.6832,6.95,11.1,15.0552.2888,5.6168-1.8464,12.59-8.87,12.064,2.304.452,4.8056-1.288,7.1352-1.5768a8.1968,8.1968,0,0,1,5.132.8624c4.4215,2.5168,5.0144,8.9656,4.4536,13.5208-.5936,4.83-2.5368,9.868-6.8912,12.544,2.8088-1.7272,5.8967,1.9272,6.7784,4.0432a10.2585,10.2585,0,0,1,.02,8.0176,14.6266,14.6266,0,0,1-13.0168,9.0464" transform="translate(-12.2842 -15.1003)"/><path id="path1534" class="cls-13" d="M211.9414,141.2437c5.5872,1.46,10.8344-1.1816,13.7792-5.9856a16.403,16.403,0,0,0,2.3856-8.072c.1168-3.4224,1.0312-8.1176-1.1088-11.1424,1.0464,1.4784,6.3616-1.7,7.1664-2.2688" transform="translate(-12.2842 -15.1003)"/><path id="path1536" class="cls-13" d="M205.4406,104.6157c.3409-5.784.1968-11.052-4.5448-15.1128-3.1312-2.6792-6.37-2.8-10.0928-1.912" transform="translate(-12.2842 -15.1003)"/><path id="path1538" class="cls-13" d="M219.5558,95.6317c4.7664-2.4264,5.5968-7.572,4.3984-12.3664-1.2456-4.9832-5.65-13.0632-11.8912-11.2544" transform="translate(-12.2842 -15.1003)"/><path id="path1540" class="cls-13" d="M262.9006,137.9365c-5.28-.4768-10.5224-3.824-11.7863-9.2688-1.1712-5.0456.2912-15.008,7.7432-13.4328-1.9432-.5744-3.2448.4064-4.9656-.52-1.6952-.9112-3.132-3.0056-4.2384-4.6752A20.4179,20.4179,0,0,1,246.36,97.42c.6208-10.6752,11.61-17.38,21.5688-15.108-2.1232-.97-5.25-.5984-7.5144-.5616-2.3624.0392-1.5752-10.7472-1.256-12.2888,1.9872-9.5968,12.0272-13.5728,20.89-12.9576,1.6712.1168,3.6352.016,5.164.796,1.6488.8408,1.6784,1.99,2.7568,3.536a16.9884,16.9884,0,0,1-1.9216-4.764c-.6608-5.0312,6.4864-8.1432,10.4424-9.0576,5.0248-1.1632,10.3384-1.1208,15.0648,1.1192,3.808,1.8056,8.1152,6.1416,7.3632,10.73.016-4.2824,6.0319-4.6224,8.95-3.45a19.2552,19.2552,0,0,1,9.9992,9.2576c1.5576,3.1232,1.24,6.8992.6384,10.2312-.3128,1.7368-.1121,6.184-1.8312,7.13,5.2248-2.8736,9.1815,5.5968,10.2815,9.3216,2.3072,7.8176-2.9912,21.904-13.0856,20.4416,3.6329.68,3.7745,12.6936.3128,13.02" transform="translate(-12.2842 -15.1003)"/><path id="path1542" class="cls-13" d="M322.0382,97.7861c5.6232-7.8976-.7984-16.85-8.2872-20.0592,1.7345-.644,1.33-5.1952,1.47-6.77" transform="translate(-12.2842 -15.1003)"/><path id="path1544" class="cls-13" d="M289.6806,71.0957c.7888,3.572,1.1752,7.26.0152,10.8136,1.34-1.3824,2.1936-2.94,3.9288-3.9368a17.7476,17.7476,0,0,0-4.8728,8.8952" transform="translate(-12.2842 -15.1003)"/><path id="path1546" class="cls-13" d="M297.8038,108.7517c-2.9-1.188-6.14-3.9784-7.1264-7.0272" transform="translate(-12.2842 -15.1003)"/><path id="path1548" class="cls-9" d="M175.37,207.48a31.39,31.39,0,0,0,5.1472,12.156c1.1,1.5272,5.2721,9.2856,7.404,4.8272,1.3617-2.8456-1.1487-8.132-2.0728-10.8752-.7872-2.3368-1.9432-4.6592-2.564-7.036-.2168-.8328-.6728-1.2656-.21-2.0848.296.2064,1.0376.3368,1.336.5064.84-3.4224-3.5856-9.5976-5.8168-11.8048-2.252-2.2272-4.4592-1.5088-4.7008,1.8208a42.7387,42.7387,0,0,0,1.2832,11.628C175.24,206.9093,175.3038,207.1957,175.37,207.48Z" transform="translate(-12.2842 -15.1003)"/><path id="path1550" class="cls-14" d="M182.1374,218.2085c.2336.9192,1.7024,4.9328,3.0056,4.87,1.548-.0736.9-2.3288.7033-3.196-.7816-3.4528-1.46-7.5664-3.91-10.248-.0967-.0472-.1016-.0416-.0144.0176.1456-.0128.428-.0976.5472-.0936-.0943-2.04-2.73-5.0816-1.91-7.0224,2.456,1.42.4032-3.0944.0064-3.728a10.9417,10.9417,0,0,0-3.86-4.012c-2.2424,1.0592-.6584,4.9072-.4064,6.7672-.1592.0128-.1856-.1-.3432-.0808-.41,1.7624.3824,4.2416.92,6.012.5512,1.82,1.1832,4.9232,2.444,6.2624.1024-.1384.1392-.27.2392-.3776.5488,2.024,1.2744,4.2008,2.7536,5.6232" transform="translate(-12.2842 -15.1003)"/><path id="path1552" class="cls-13" d="M185.5174,223.0821c-1.9456-.51-2.2744-2.3336-2.85-3.928a2.63,2.63,0,0,1,.9952-.5736c-1.8617,2.25-3.3744-3.6392-3.8488-4.6128.2992-.176,1.0688-.6992,1.0448-.69-2.1264,1.65-3.616-4.2376-3.9184-5.3384a25.2685,25.2685,0,0,1-1.0032-4.632c-.192-2.55,1.588-1.3456,3.2856-2.7592a7.6908,7.6908,0,0,1-2.8552.9912c-.3224.0144-1.216-5.5568-.6032-6.3" transform="translate(-12.2842 -15.1003)"/><path id="path1571" class="cls-15" d="M219.2862,194.05c-4.3423,3.5312-9.008,6.548-13.3912,10.048a131.9606,131.9606,0,0,0-11.884,10.2872c-.8408.852-1.6328,1.6992-2.3759,2.616a2.1282,2.1282,0,0,1-2.6536.7648,4.8707,4.8707,0,0,1-1.9769-2.65,5.4222,5.4222,0,0,1-.6111-2.83c.19-1.0128.9192-1.2752,1.7584-1.75,1.6128-.9136,3.268-1.756,4.8232-2.7664.6624-.4288,1.168-1.0024,1.8151-1.4656.7873-.564,1.5632-1.144,2.3336-1.7312,3.0048-2.2936,5.928-4.7064,9.1057-6.7624,6.6136-4.2768,12.8416-8.6432,19.8815-12.1392,6.204-3.0784,11.5033-6.9624,13.4944-13.9248.1936-.6744,2.6128-6.6632,4.1568-4.7424.12.1464-2.4608,3.988-2.7136,4.7728-.51,1.5872-1.4072,4.0072-.4208,5.51a9.51,9.51,0,0,0,2.7544-1.7728c1.5064-1.324,3.3344-2.8352,3.8848-4.8616.4808-1.7632-.0544-3.648-.5312-5.3512-.2824-1.0128-3.212-7.8888-.0752-7.8792.1184.7664-.2384,1.4808-.1712,2.2712.05.6008.8224,3.8288,1.6752,3.784.7488-.0392,1.3112-2.196,1.4808-2.7208a8.2293,8.2293,0,0,0,.4088-4.7648c-.3688-1.2056-1.3576-1.5336-2.0752-2.4776a7.24,7.24,0,0,1-1.2544-2.308c-.05-.1928.0592-2.2776.7184-1.464.6488.8008.7312,2.2128,1.8072,2.5848.3208-2.0416-.1984-4.096-.116-6.1728a5.3345,5.3345,0,0,1,.5384-2.7032c.36-.5064,1.6616-.53,1.672-.5432-1.1848,1.8192-.8864,3.9976-.412,6.1744.192.8824.5848,3.088,1.91,2.47,1.1032-.512,1.7056-2.5632,1.8368-3.6848a7.8243,7.8243,0,0,0-1.248-4.4552c-.33-.6168-.7616-.9608-.3944-1.7416.5144-1.0928,1.15.024,1.5137.056-1.188-.1048.0463,1.9792.2919,2.31.7816,1.05.9088.676,1.5256-.3392.4144-.68,1.85-3.136,2.8137-2.4264.0647.048-1.9544,3.832-2.02,4.2744-.1392.93-.11,1.1536.8848,1.016,3.4064-.4728,4.688-2.4,3.5577-5.696-.1864-.5448-.396-1.25.0352-1.7088.76-.812.7352.104.8856.7048a21.7022,21.7022,0,0,1,.9631,4.804c.0449,1.304-.1224,3.1872,1.3672,3.7824.9513.38,2.0161-.2344,2.8617-.6088.5032-.2208,2.148-1.1912,1.6992.1472-.1888.5664-1.804,1.23-2.2728,1.6472-3.688,3.276,2.5816,6.29,5.3112,7.1576,1.06.3376,3.1855.176,4.6768.5208a2.2837,2.2837,0,0,1,1.424.7849c-.8552.8008-3.2256.2464-4.4312.3592-1.6976.1576-3.5536.6832-4.05,2.5312a5.3626,5.3626,0,0,0,.388,3.4064c.4832.5912,6.1448,1.616,6.2448,1.2952-.4,1.2744-5.8632,1.4872-5.8624,1.4992.0488,1.2527,1.4792,1.4991,2.132,2.41,1.1279,1.5751.2448,1.8647-1.2272.852-1.2416-.8512-2.2648-2.2473-3.8617-2.38-2.0456-.17-9.2784,2.3032-5.5792,4.9064,1.6457,1.1576,4.1057,1.344,5.7409,2.4616-1.3688,1.1624-3.564.3336-5.0384-.2328-2.6848-1.03-5.3968-2.4168-8.2912-2.7312-2.9624-.3216-4.4112.3824-6.7032,2.0864-2.4752,1.8392-6.3712,3.5576-7.25,6.8288-1.0232,3.8264,4.4048,4.092,7.0976,5.7072,2.3544,1.416,4.5744,3.0368,6.8759,4.524,3.1384,2.03,4.4376,1.9064,7.588.55,1.0785-.4632,4.4176-2.79,3.5648.1632-.5936,2.0544-6.8048,3.3192-3.4048,6.1256a7.021,7.021,0,0,0,8.3984.1992,6.411,6.411,0,0,0,1.6008-2.7952c.212-.5624.2024-1.6432.6672-2.0936,1.45-1.4112,2.1432.4208,1.6416,1.6776a11.3077,11.3077,0,0,1-2.3168,3.03c-.4832.5688-2.708,1.8848-2.552,2.7208.27,1.4632,3.7664-.4648,4.3568-.864.65-.4408,1.53-1.5528,2.2832-1.6384.4656-.0536-.1816,1.1432-.2256,1.2064-.3168.4416-1.0088.688-1.4408,1a12.43,12.43,0,0,1-3.3824,1.8136c-1.6328.5624-2.5345,1.188-3.656-.1544a3.017,3.017,0,0,0-2.18-1.08c-.8024-.1568-2.5288-.7168-3.1864-.2328-.44.3208.2464.85-.52,1.1032-1.0608.3488-1.5456-1.688-1.6432-2.3872-.1264-.8784.2616-2.2488-.1264-3.0608-.7544-1.5912-3.3872-1.152-4.7112-2.0144-1.8848-1.2272-3.088-3.2336-4.9568-4.4832a23.7018,23.7018,0,0,0-7.3168-3.344,19.2612,19.2612,0,0,0-9.7416.344c-.8072.27-5.032,1.4632-4.56,2.5448.5328,1.2264,2.5376-.57,3.3-.4384,2.2264.3824-1.4632,2.17-2.1832,2.3776-3.6008,1.0408-7.6112-.392-10.75,2.1616Zm42.0912-25.852a2.6589,2.6589,0,0,0,.1225-.32c.1071-.3208-2.6409-1.344-2.9552-1.412a7.4386,7.4386,0,0,0-2.4024.0456c-1.3456.15-3.9016.3512-4.31,2-.456,1.8544,3.1032,1.5632,4.0872,1.6624,2.4056.244,4.3216.5488,5.4576-1.976Zm-5.9368-5.0552c-.4576.864-.6808,1.7336.104,2.1072,1.032.492,2.8744-.3928,3.7345-.936.7688-.4856,2.6728-1.1776,3.16-1.9056.6344-.9432-.9456-1.5152-1.6776-2.204-1.7312-1.6328-3.072-.7912-4.0328.9416-.2128.3816-.8528,1.1856-1.288,1.9968Zm-4.9832-.6736c-.2472.9536-1.448,4.2184-.6448,5.104.72.7936,3.076-1.8168,3.52-2.6224.5136-.9272.4376-2.168.6984-3.1808a4.1072,4.1072,0,0,0-.4952-3.712c-.6232-.89-1.7656-1.7552-2.2472-.3368a16.2406,16.2406,0,0,0-.132,2.0592c-.048.3336-.37,1.4176-.6992,2.6888Zm13.4568-2.5192c1.8656-.3824,3.0736-2.5632,4.956-2.6856a8.6719,8.6719,0,0,0-4.3616-2.7328c-1.4168-.3464-4.8384,1.3784-4.724,3.1312.0968,1.4192,2.9568,2.5256,4.13,2.2872ZM257.8,152.7789a7.7392,7.7392,0,0,0-2.3008-.4376c-1.372.056-4.11.8056-2.692,2.4952a11.3372,11.3372,0,0,1,2.0208,2.69c.284.6144.3728,2.0736,1.3768,1.3584.7577-.5392.9424-1.524,1.7137-2.1328.7192-.5688,1.8368-1.1952,1.9824-2.2024.11-.7736-.9584-1.388-2.1008-1.77Zm5.3048,13.764a7.1923,7.1923,0,0,0,2.2464.4488c1.0632-.0056,4.4944-.1672,3.5256-1.736-1.216-1.9672-7.8464-2.0528-8.4944.592a11.3812,11.3812,0,0,1,2.7224.6952Zm5.76-7.6288a6.8726,6.8726,0,0,0-3.528,2.0408c-1.2759,1.6576,1.9136,2.2784,3.056,1.6072.73-.43.4152-1.016.53-1.6448.148-.8032.48-1.008.9264-1.7472a1.188,1.188,0,0,0-.9839-.256Zm-6.6912-10.852a1.1592,1.1592,0,0,0-.3112-.444c-1.2824-1.04-5.032,1.6552-4.7256,2.8176.4336,1.6488,4.1624,3.4944,5.6688,2.64.82-.4632,1.2152-2.704.7552-3.4816-.2152-.3664-.7328-.4344-1.0088-.7368A2.9064,2.9064,0,0,1,262.1734,148.0621Z" transform="translate(-12.2842 -15.1003)"/><path id="path1590" class="cls-16" d="M277.7758,204.3029a11.8373,11.8373,0,0,0,3.3352,3.904c.9369.6336,1.9825.9032,2.9121,1.4936a18.8408,18.8408,0,0,0,3.7416,2.3488c2.2584.8048,4.5448.6088,6.85,1.124,1.9265.43,3.46.7128,5.0057-.95.704-.7568,2.2775-4.3752,1.7232-5.392-.7137-1.3152-1.39.3376-1.7081,1.0016-1.05,2.1944-1.4943,3.9344-4.02,4.8176-1.4256.4984-7.7584.4808-7.5648-2.0464,1.3168-1.0672,4.1816-2.428,4.96-3.9456.3608-.704.4641-2.3872-1.0423-1.852-.4968.176-1.048,1.5576-1.6688,2.0384-1.0984.8536-3.2393,2.31-4.7336,1.9288-1.5-.3832-2.5832-1.89-1.8624-3.0888.6328-1.05,3.15-1.4776,2.9872-3.0376-.1568-1.4832-4.1721,1.1456-4.8024,1.2888-2.0336.4648-2.4872-1.344-2.964-3.19a8.9567,8.9567,0,0,1,.5024-5.9512c.3792-.97,1.2936-3.684-.5457-2.6984-1.6744.9-1.4839,4.1464-1.6728,5.7216C276.871,200.6589,276.1911,201.6541,277.7758,204.3029Z" transform="translate(-12.2842 -15.1003)"/><path id="path1609" class="cls-17" d="M287.0862,118.8085c1.89-.632,5.8184-2.91,6.1152.66a20.057,20.057,0,0,0-10.6048,3.3232c-1.0776.8272-1.7288,1.6856-.9688,2.9072a5.4183,5.4183,0,0,0,2.34,2.0752,7.3178,7.3178,0,0,0,5.9336-.152c.956-.4264,1.8584-1.064,2.85-1.4032.5592-.19,1.33-.376.9208.448-.3936.796-2.4632,1.5576-3.1664,2.0168-.7656.5008-2.2752,1.656-2.2416,2.7016.1192,3.5832,7.1584.59,8.712,1.59.5528.3552-2.436,1.176-2.452,1.1808-1.0656.37-1.5232,1.0832-.6592,1.9224,1.1288,1.0928,2.8848,1.5136,4.2088,2.316a26.7058,26.7058,0,0,1,5.9688,4.4248c.5952.6536,2.2056,1.708,1.6792,2.7488-.3048.6-4.1352-3.332-4.7752-3.64-.7144-.344-2.4408-1.152-2.9744-.3128-.3552.5656.1192,1.8912.2624,2.4568a20.2162,20.2162,0,0,0,.9432,3.2224c.2048.4616,1.172,1.8928-.07,1.668-1.4912-.27-1.6992-4.7016-2.0952-5.7856-.3248-.8888-.8376-1.9656-1.9376-1.9592a25.1438,25.1438,0,0,0-2.4728.5144q-1.5372.1956-3.072.3936c-1.3232.17-2.9312-.1792-4.0832.6552-1.184.86-2.0664,2.708-.6072,3.7a8.7513,8.7513,0,0,0,4.2216,1.1456,14.0184,14.0184,0,0,1,3.5568.6288c.4264.1288,5.5952,1.5736,5.3448,2.0688-.9176,1.7776-10.9208-3.2912-11.0056-1.2632-.02.5456,1.2344,2.1248,1.5368,2.6656.5088.912,1.7192,2.2616,1.9608,3.264.316,1.2968-.9648.524-1.6008-.0128-1.7184-1.448-2.7408-3.5424-4.1776-5.2392a7.8819,7.8819,0,0,0-2.4784-2.0888c-1.4544-.71-2.2816-.332-3.4944.6712a3.88,3.88,0,0,0-.9184,4.3608,3.4514,3.4514,0,0,0,.3792.7584c.5.7528,3.1936,1.9256,1.6648,2.748-2.58,1.3872-4.7632-4.9288-5.1744-6.3544-.8128-2.8088-4.5064-8.8376-8.136-8.58.41,1.42-.1248,2.7536.1664,4.0832-2.0856-.1824-1.8144-4.8168-2.1735-6.2144a4.43,4.43,0,0,0-1.8561-2.8688c-1.0616-.7864-2.7191-1.2728-1.4359-3.03.4888-.67,1.504-.6976,2.16-1.1624a7.7124,7.7124,0,0,0,2.01-2.4592c.5728-.9648,2.39-3.6024,2.3424-4.712-.088-1.95-2.6752-3.11-3.8968-1.3608-2.0488-2.06,2.148-3.5224,3.9008-2.5416,2.816,1.5768,7.0967,4.652,9.7047.764.93-1.3888.1656-6.5992,2.2889-6.7752,1.3967-.1152.0879,3.7608.2816,4.4448.8607,3.048,4.85.13,7.0735-.6128Zm-5.472,25.712c1.18.2592,1.7368-.412,1.6792-1.7072-.0544-1.2264-.0152-3.1568-1.0376-4.02-1.456-1.232-5.5288-1.0856-6.7056.5752-1.5832,2.232,4.23,4.5768,5.768,5.07C281.4206,144.4717,281.519,144.4981,281.6142,144.5205Zm-10.3864-4.5464a10.74,10.74,0,0,0-1.7735-3.3424,3.0221,3.0221,0,0,0-2.2577-1.144c-.2352-.01-2.5863.2368-2.508.5a7.2233,7.2233,0,0,0,2.2137,3.1576,17.5425,17.5425,0,0,0,2.96,1.396c.6376.32,1.3712,1.5208,2.0848,1.39-.25-.6336-.476-1.2984-.7192-1.9576Zm20.2024-3.6784a16.257,16.257,0,0,0-3.5472-1.256c-1.4032-.0624-1.8192,4.1032-1.1056,4.9192.75.8592,3.1888.5048,4.088.41.6872-.072,3.572-.25,4.0176-.9256.6224-.9368-1.4064-2.21-3.4528-3.1472Zm-10.4328-6.2552a5.9776,5.9776,0,0,0,.0184,2.5088c.4216,1.4416,3.22,2.2664,4.5008,1.71.744-.3256,1.128-1.99,1.2568-2.7736.1688-1.0368-.07-1.2456-.972-1.62a20.5357,20.5357,0,0,0-3.2656-1.2616c-.8872-.2032-1.3416.528-1.5384,1.4368Zm-6.7128-4.3008c1.05.29,4.6416,1.6328,4.2952-.3792-.3936-2.2928-2.8664-.3512-3.6551.4448m-4.5048,9.8576c1.224,3.1088,2.3384,2.4,4.7056.9784,1.904-1.144,3.87-2.3216,3.072-4.8864-1.3592-4.3616-9.34-.0656-7.7776,3.908Zm-4.9-3.4608c-.444.7576-.6248,1.4184.04,1.5264,1.0648.1728,2.5184-.7112,3.2655-1.39,1.0832-.984,2.0265-2.0928,3.09-3.0808.776-.72,1.9993-1.42.9064-2.4952a1.7332,1.7332,0,0,0-1.8744-.5136c-1.9048.5128-2.6512,2.08-3.6864,3.5784a29.3875,29.3875,0,0,0-1.7408,2.3752Zm8.3872,10.6224c-1.596.3032-.356,1.732.1864,2.65.5184.8792,1.21,3.0824,2.4848,2.4736.936-.4472,2.2392-1.73,1.9456-2.8664C278.1391,143.6045,275.2607,142.5661,273.9071,142.8245Z" transform="translate(-12.2842 -15.1003)"/><path id="path1628" class="cls-18" d="M301.7174,114.2005a27.292,27.292,0,0,0,7.45-2.8656,18.9762,18.9762,0,0,0,3.6944-2.59c.9472-.8384,1.6688-1.4128,2.9832-1.2032a1.619,1.619,0,0,1-.6175,1.5968c-.15,2,5.5231,4.5088,7.0208,5.4064,2.2168,1.33,4.8184,1.272,7.2664,1.9048,3.796.9824,7.8328,1.75,11.1943,3.9216,1.9024,1.23,6.1176,2.5616,6.8456,4.8208a20.1648,20.1648,0,0,0,4.984,7.4936c1.1352.96,2.8664.6984,3.6048,2.2408-1.7952,1.2624.37,6.4416,1.6584,7.3408.6936.4832,3.244.1024,2.2808,1.73-.28.4744-2.7664.6768-3.3272.84.1872,2.264,4.1664,10.984.7936,12.252-1.1368-1.892-.0672-2.976-3.064-1.9976-1.232.4024-6.0568,3.776-6.3032,1.1128,2.39-1.7488,7.5192-2.116,8.25-5.2224.9952-4.2352-2.7648-1.4984-4.52-2.604.6-1.6968,3.3928-2.0064,3.656-3.824.1512-1.056-1.4992-4.4848-1.8464-5.69a23.3235,23.3235,0,0,0-1.092-3.4552c-1.2536-2.5728-7.1824-9.1-6.7168-2.932.0544.7224.9112,2.6824.168,3.2544-1.07.824-1.5872-.4976-1.952-1.1832-.748-1.4088-.17-2.1448-1.7136-3.03a4.4349,4.4349,0,0,0-3.1968-.3208c-2.1424.5968-5.8392,6.42-7.9344,5.672-1.8392-.656,2.8808-4.556,3.6328-5.268.7768-.7376,1.5176-1.896,2.5168-2.35,1.2248-.5584,2.15.0448,3.3384-.2216,1.5136-.3392,3.24-1.5832,2.7288-3.3856-.3328-1.176-1.7368-2.8224-3.15-2.6592-.7608.0888-1.9456,1.216-.45,1.37a14.1551,14.1551,0,0,0-3.4512.4688,8.5541,8.5541,0,0,0-3.332-4.5072,22.407,22.407,0,0,0-5.7656-1.9032c-1.916-.1816-3.168,1.2592-2.0032,2.8168.7816,1.0424,2.9576,1.2848,4.1216,1.6392,1.1456.348,4.304.7288,4.2712,2.29-1.7256.5016-6.284-1.9464-7.25.5976-.6936,1.8328,3.384,3.4488,3.9488,5.1368-1.7513,1.1544-4.1617-3.2456-6.0648-1.7984-.57.432-.4192,1.5536-.536,2.1616-.2992,1.5736-2.0464,4.2624-.8448,5.7448.82,1.0128,3.0279,1.4312,3.3824,2.7384-1.15.5928-3.1472-1.336-4.1968-1.6608-2.0392-.6288-2.1576,2.05-1.0544,3.2688,1.3632,1.5032,3.9832,2.3848,4.6928,4.34-2.7128.876-4.7512-4.9424-7.19-4.372-1.9265.45-1.29,4.9256-3.1017,5.63-.8344-2.03,2.248-4.9192-.2376-6.5528a6.7116,6.7116,0,0,0-3.8456-.84c-2.54.2784-.9808,1.8576-.2255,3.1712a10.662,10.662,0,0,1,1.4472,3.8184c-2.6848-.0256-3.9856-5.6824-4.9929-7.6144-1.4439-2.772-4.024-4.6416-4.49-.4576-.116,1.044-.21,4.284-1.2335,1.9432-.5433-1.2384.2191-2.6408.4-3.8376a24.964,24.964,0,0,0,.0839-6.204c-.15-1.5256-.2432-3.688-1.6688-4.644-1.5735-1.056-2.04,1.6616-2.2976,2.648-.24.9144-.7456,1.7464-.99,2.5848a10.13,10.13,0,0,0-.0033,2.58c-.01.312-.8768-.6088-.9-.6432a4.316,4.316,0,0,1-.3759-1.996c-.0776-1.4584.52-2.8336.7151-4.2832a21.8892,21.8892,0,0,1-2.4832.67c-.8056.0088-1.3832-.5728-.5624-1.27.8008-.6808,2.2889-.3944,3.2064-1.2632a6.2627,6.2627,0,0,0,1.9664-4c-.0776-1.4784-1.756-2.4432-2.8976-3.08-1.4352-.8024-2.2616-1.5456-.1152-2.668,1.728-.9048,3.7752-.372,5.692-.8072Zm5.0088,19.7328c-.0472-.1088-.0864-.21-.1168-.2992-.3832-1.1352-.7688-2.264-1.1744-3.3912a4.9776,4.9776,0,0,0-.8576-1.8784c-.85-.8-1.1-.032-1.05.6528a20.3348,20.3348,0,0,0,.41,3.032c.364,1.6536,1.4968,2.408,2.5768,3.5952.2712.3008.412.6288.7944.7752.3432-.5968-.264-1.74-.5824-2.4864Zm4.1424-7.3624c.31,1.45,2.2488.3056,3.4008.2768.75-.0184,1.7792.2488,2.41-.2336a7.7052,7.7052,0,0,0-3.5064-3.6216c-1.4384-.47-2.3152,1.91-2.3456,3.0392a2.27,2.27,0,0,0,.0408.5392Zm-5.0728-6.3368c-.77-.3552-1.5888-.59-2.3576-.95-.6872-.3216-1.172-.9152-1.828-1.2448a1.4778,1.4778,0,0,0-1.7912.2184c-.4072.5552.04,1.3832.252,1.9352a31.6283,31.6283,0,0,0,1.4816,3.63c.6384,1.204.8392,2.0648,2.09,2.2448.6336.09,1.248.4344,1.8888.5024,1.2552.1336,3.268.388,3.7808-1.03.2752-.7624.8216-1.9344.5168-2.6992-.4168-1.0488-2.6032-1.8384-3.5552-2.3664-.1576-.0864-.316-.1664-.4784-.2408Zm6.37-7.5584c-1.7768-.7656-4.404,1.9048-6.1688,2.1848-1.09.1744-4.5488,1.0152-2.0624,2.2536a22.99,22.99,0,0,0,6.1656,1.79c3.2616.544,5.4288-4.7816,2.0655-6.228Zm9.892,5.9344c1.8944-1.1048.1416-3.4008-1.5688-3.0032-.6512.15-4.51,1.2032-4.4448,1.9968.056.7184,1.3567.7312,1.8759.8352,1.25.252,2.932.8752,4.1376.1712Zm-3.368-3.85a17.123,17.123,0,0,0-2.0664-1.58,3.2172,3.2172,0,0,0-1.82-.572,3.128,3.128,0,0,0,1.55,2.4048c.492.216,2.25-.3264,2.336-.2528Zm3.99,12.0672c1.08-.8816,4.216-2.2728,2.0768-3.8048a22.93,22.93,0,0,0-6.8272-2.7832c-.9656-.2744-3.0656-1.064-4.0064-.3656-.8432.6288.4808,1.708.97,2.3056a31.5545,31.5545,0,0,0,2.5272,2.5624c1.2144,1.1784,2.4928,2.9728,4.4648,2.2632m.0736,3.6232c-.2856-2.2312-3.6409-2.32-5.3672-2.4928a13.7225,13.7225,0,0,0-3.1576-.0776c-1.8433.25-1.2137,1.688-.2424,2.8664.7576.9208,1.6,1.836,2.45,2.6824.86.8544,1.9728,2.264,3.1752,2.6112,2.2487.65,3.1815-3.7648,3.164-5.25a2.6833,2.6833,0,0,0-.0224-.3392Zm-13.832,3.6472a7.33,7.33,0,0,0,.424.9984,5.965,5.965,0,0,0,3.6384,2.5232c1.14.3568,2.412.2984,3.4648.8432.5592.2888,1.8432,1.5032,2.42.6832.384-.5472-.19-1.0776-.5224-1.3672a48.6289,48.6289,0,0,1-3.5088-3.5584c-.992-1.0744-2.1088-1.9816-3.0784-3.09-.7368-.8448-1.8392-2.2448-3.0856-2.25-1.3368-.0048-.8032,1.368-.5792,2.156.288,1.0088.4768,2.0664.8272,3.0616Z" transform="translate(-12.2842 -15.1003)"/><path id="path1647" class="cls-19" d="M308.5878,204.4573c3.6528,4.93,3.0144-3.464,5.5056-3.9648,5.5016-1.1072-2.1432,6.628-2.1584,6.324.0768,1.524,1.9312,2.2968,3.2424,2.6368-2.4816,1.3136-6.564-1.3072-6.624-4.1176.39-.3216.31.0632.5352.1216" transform="translate(-12.2842 -15.1003)"/><path id="path1666" class="cls-20" d="M324.5158,203.7389c.5712,1.8088.9368,3.91,1.2192,4.1128,2.0584,1.4736,3.3616-1.512,5.0944-1.9216.8008-.1888-.8184,2.62-1.3128,2.8976-1.39.7808-3.1072.0184-4.5544.5776-1.752.6848-4.9952,3.47-6.82,1.3136a24.4621,24.4621,0,0,0,4.1968-1.756c1.7288-2.3152-2.2345-4.8136-.808-6.9368,1.3936-2.0728,2.3272-.3752,2.9848,1.7128Z" transform="translate(-12.2842 -15.1003)"/><path id="path1685" class="cls-21" d="M332.9782,202.9077c4.616-.5016-.428-9.3664-2.6448-8.05-2.29,1.3584,4.8456,5.4976,2.3208,7.8448" transform="translate(-12.2842 -15.1003)"/><path id="path1704" class="cls-22" d="M344.04,192.1277a5.0776,5.0776,0,0,0-.6608-3.4432c-.9064-1.0992-1.1016,2.45-1.1784,2.684-.5832,1.8128-1.9048,1.3432-3.332,2.0368a19.3067,19.3067,0,0,0,2.5832,1.0976,9.338,9.338,0,0,0,2.8168-.7912c2.2368-.7152,4.5072-1.2208,5.9464-3.2728.9208-1.3136,1.7608-5.4424-.45-5.9776.36,3.2664-1.3592,9.012-5.7592,7.9456.01-.09.0248-.1824.0344-.2792Z" transform="translate(-12.2842 -15.1003)"/><path id="path1723" class="cls-23" d="M356.0006,182.7637c-1.4992-.0816-3.71-1.3824-3.9616-2.9776,1.3848-.6264,3.0416-.0512,4.3288.6048.8056.4112,3.9432,2.8952.87,2.93" transform="translate(-12.2842 -15.1003)"/><path id="path1742" class="cls-24" d="M358.1718,175.0533c4.0112-1.1016-1.9912-8.8312-5.95-6.9632-.8007,2.0832,2.1632,1.51,3.252,2.3456,2.3216,1.7824-.3984,1.7912-1.672,2.7512-2.4968,1.884-.464,1.66,1.3752.8664,1.6664-.7184,2.9736-1.0248,3.35,1.1616,1.0928-.41.8048-1.6872-.0344-2.4568" transform="translate(-12.2842 -15.1003)"/><path id="path1761" class="cls-25" d="M356.4574,164.8741c-.7792-.724-7.8712-.6992-4.756-2.572,1.9936-1.2,7.3208,2.2336,4.1672,2.4256" transform="translate(-12.2842 -15.1003)"/><path id="path1763" class="cls-26" d="M273.7918,170.8413c4.256-2.968,8.34,3.6856,9.7656,6.6728,2.596-3.0616,8.4528-4.3576,12.2056-4.7672a11.7441,11.7441,0,0,1,7.3112,1.012,15.2551,15.2551,0,0,1,3.0048,1.62c.744.6456.8463,1.4936,1.8456,1.6592,2.9215-6.7016,11.8744-8.5464,18.1752-6.7744-.0088-4.6288,4.012-7.6776,2.8631-12.4584-.5631-2.3432-1.3616-4.648-1.6976-7.0408-.2984-2.124-.2848-4.8872-2.9184-4.7-.8424.0608-1.9928,1.0208-2.9824,1.1776a15.1815,15.1815,0,0,1-3.9112-.1072c-5.0648-.5392-11.1648-2.9368-15.8648.1368-3.1168,2.0376-3.6376,6.3464-7.4928,7.7816-2.776,1.0336-5.8608.3944-8.7344.3352-2.8984-.0584-5.1648,1.1072-7.73,2.5,1.8272,5.0624-3.1424,8.544-4.1112,12.952" transform="translate(-12.2842 -15.1003)"/><path id="path1765" class="cls-27" d="M321.6782,146.7909c-1.71.4128-3.68,1.2688-5.45.6816-.3512,3.896-5.79,6.7424-8.9208,8.0272-4.2111,1.728-8.1655,3.4632-12.19,5.5656,2.3792-2.4856,3.6664-6.588,2.3721-9.9128a7.0525,7.0525,0,0,1-4.4856,3.1816c3.3255,11.7856-13.9664,9.3512-18.7216,14.696-1.6344,1.8376-3.5992,3.3344-5.2928,5.11-1.0248,1.0736-3.344,3.1168-3.692,4.5656a51.0874,51.0874,0,0,1,10.2591-3.732c7.2528-1.8192,14.2256-1.1384,20.0241,4.156,3.4936,3.19,6.2175,9.516,2.6152,13.688-2.94,3.4008-8.0672-2.5552-9.71-4.9064a19.967,19.967,0,0,1-.5473,4.676c-.9312-2.748-.0808-6.45-2.0032-8.8224,1.3672,1.6856,6.232,2.0528,8.184,2.2552-1.27.2576-2.5872.516-3.808.8784,1.7656,1.85,2.6864,4.5192,5.4976,5.192,6.59,1.5784,6.848-5.95,5.8336-10.408-.6136-2.6968-1.6184-5.684-3.5528-7.7584-1.2592-1.3488-6.1576-2.1248-4.7536-3.7448,1.9272-2.2184,8.3744-1.4368,11.03-1.2056a23.4326,23.4326,0,0,1,13.7464,5.732C321.75,177.9637,329,185.3869,322.8981,189.8c-2.8392,2.0528-5.3328-.03-7.2264-2.124.2825,1.3072.8544,2.2512.8184,3.5464-1.1824-1.95-3.15-5.8464-2.6983-8.1864a57.759,57.759,0,0,1,7.556.788c-1.8352.8936-3.5369,1.3376-1.5256,2.8944a3.6245,3.6245,0,0,0,4.744-.3336c3.2576-3.3536.1776-10.4112-2.3232-13.24-3.3776-3.82-7.396-6.2816-11.5288-9.1264,9.7392-2.3952,22.0232-11.4616,30.964-1.884,2.7376,2.9328,3.06,7.5392-.212,10.3232-.92.7832-2.5528.8152-3.2825,1.4776-.8808.8024-.6175,3.0568-1.2272,4.164-1.1983-1.5128-2.2808-3.4536-3.8439-4.6184a16.5835,16.5835,0,0,0,4.6607-4.956c-.0912,2.2024-1.1408,3.5184,1.6424,3.4888a7.0084,7.0084,0,0,0,6.5232-4.7912c2.1248-6.884-6.8344-11.396-12.4424-12.1792,3.5728-1.6064,10.1736-4.15,11.0144-8.6256a5.3667,5.3667,0,0,0-6.2832-6.144,16.8665,16.8665,0,0,0-.5423-3.268,14.3271,14.3271,0,0,1-4.2289,4.4424c1.6889.9224,4.1792,1.6768,4.5336,3.9016a16.6543,16.6543,0,0,1-.0032-2.4368c1.5776-.2408,2.2088-.88,3.8144-.4136,1.8856.5488,3.1352,1.856,3.0032,3.8512-.2224,3.3648-4.704,3.7192-7.3952,4.1472-6.7312,1.07-13.6392,2.2336-19.4312,5.99a17.4805,17.4805,0,0,0,1.6392-5.4848c.204-1.1144.6128-3.8624,2.0608-4.212Z" transform="translate(-12.2842 -15.1003)"/><path id="path1767" class="cls-28" d="M187.9958,211.5437c-.6448-.4168-1.244-.4312-1.608.2592-.5528,1.0456.1424,2.816.6488,3.7976.5128.9984,1.5712,2.468,2.8512,2.4112,2.5088-.1128.0864-5.1872-1.892-6.468Z" transform="translate(-12.2842 -15.1003)"/><path id="path1769" class="cls-29" d="M188.5726,216.7237a1.8955,1.8955,0,0,0,.448.248c1.1128.4184.868-.8448.7536-1.464a4.55,4.55,0,0,0-1.436-2.65c-.7976-.7536-1.6264-.4768-1.5432.6416a4.734,4.734,0,0,0,.868,2.2536,4.46,4.46,0,0,0,.91.9712Z" transform="translate(-12.2842 -15.1003)"/><g id="g1771"><path id="path1773" class="cls-3" d="M181.171,190.0269c-.5448-.7648.736-1.8272,1.4272-.98a.8537.8537,0,0,1,1.3576-.17c.2128-.8488,1.1568-1.308,1.512-.336-.2664-.73.9256-.1248,1.148.0744.5976.5392.2432,1.8744-.07,2.4384-.3641.656-.46,1.97-1.6137,1.4032-.3152.5392-.9776.9944-1.4759.49a.9883.9883,0,0,1-1.65.4984c-.4785.4336-.9329-.2088-1.4832-.352-.6433-.1672-1.1816-.2016-1.0721-1.03.0392-.2832.5752-1.8576,1.0513-1.012-.3584-.6344.1591-1.78.8688-1.0248Z" transform="translate(-12.2842 -15.1003)"/><path id="path1775" class="cls-4" d="M180.4486,191.3037c-.7952-.73-1.13,1.0048-.1472.8608-.1808.3664.2424.7728.5672.5048-.0368.6072.6816.576.8624.1224a.5194.5194,0,0,0,.9976.14c-.456.3432-.87-.2136-.6952-.644-.41-.0784-.3536.408-.5928.43-.2952.0256-.4128-.472-.1448-.6144-.3721-.0208-1.112.0408-.6192-.604a1.5052,1.5052,0,0,0-.156-.0184c-.11-.6768.2728-.9784.9136-.9056-.3192.172-.796.4056-.5552.9176.2032.4344.5248.3176.7976.0656-.1944.3832.2544.5664.4952.3072a.4682.4682,0,0,0,.31.6688c-.07-.3672-.2848-.8632.2384-1.0488-.268.0128-.6928.31-.9144.132-.3752-.3032.1152-1.02.5416-.932-.6528-.0992-.73.392-1.0816.736a.9408.9408,0,0,1,.676-1.0176c-.4336.0128-.0152-.732.3432-.7712a.5486.5486,0,0,0-.6128.3064.4644.4644,0,0,1-.0048-.7448.7281.7281,0,0,0-.3792,1.0656c-.5591-.5992-1.2672.2536-.9224.8344a.9475.9475,0,0,0-.412.21" transform="translate(-12.2842 -15.1003)"/><path id="path1777" class="cls-5" d="M183.6022,192.4781c.67.2432.91-.8.6384-1.23a1.2659,1.2659,0,0,1,.4608.3568c.016-.0888.07-.1424.0872-.2312.6792.3024.9688-.6136.4392-1.0024a1.4783,1.4783,0,0,1,.2184-.0664c.03-.2672-.224-.39-.4648-.4208.0368-.0352.0768-.1048.1-.13-.3992-.2448-.7088.0088-1.0336.2448-.0992-.5248-.8536-.1536-.9552.1864-.15-.3144-.5728-.292-.8456-.1248.1033-.5432.6832-.5528,1.1-.4976-.0432-.0736-.0624-.22-.1088-.292.6072.248.4977-.264.01-.4432.5591.0816.6631.3592,1.0248.616.0128-.5976.8007.04,1-.0992.572-.3976-.36-1.0032-.73-1.0224.5608-.2792.8976.3408.9848.7992.0584-.0664.184-.1176.2264-.1624.0168.176.0136.3656.0168.5432.7328.076.1848-.8576.0152-1.096a.86.86,0,0,1,.4032,1.536.9757.9757,0,0,1,.14,1.2856.6821.6821,0,0,0-.68-.9032c.13.31.0312.688.1272.972.088-.072.224-.076.2976-.1616a.7614.7614,0,0,1-.6144,1.1464c.412-.2808.472-.872-.1152-.8408a1.1575,1.1575,0,0,0-.7312.4216c.5416.172-.1976.8808-.5175.9264a.7577.7577,0,0,1-.8121-.5968c.2889.2584.328-.4816.25-.6856.1976.2544.0216.436.0849.6624.024.0888.0487.648.352.1856" transform="translate(-12.2842 -15.1003)"/></g><g id="g1779"><path id="path1781" class="cls-3" d="M204.759,191.4877c-.5432-.7656.7369-1.828,1.4272-.9808a.8562.8562,0,0,1,1.3592-.17c.2112-.85,1.1568-1.3072,1.512-.3352-.2664-.73.9248-.1248,1.1464.0744.5984.5384.244,1.8752-.068,2.4376-.3648.6576-.4592,1.97-1.6136,1.4032-.3144.5408-.9776.9944-1.4752.49a.9893.9893,0,0,1-1.652.4984c-.48.4344-.9328-.21-1.4832-.352-.6424-.168-1.1832-.2016-1.0736-1.03.0416-.284.5776-1.8576,1.0528-1.012-.356-.6344.1592-1.7808.868-1.0248Z" transform="translate(-12.2842 -15.1003)"/><path id="path1783" class="cls-4" d="M204.04,192.7645c-.7968-.73-1.132,1.0048-.148.8608-.1832.3664.2416.7736.5664.5048-.036.6072.68.576.8624.1224a.52.52,0,0,0,.9984.1392c-.4568.344-.87-.2128-.6968-.644-.4112-.0792-.3536.408-.5912.43-.2952.0248-.4128-.4728-.1456-.6152-.3712-.0208-1.112.04-.6184-.6048-.05-.0056-.1056-.0176-.1576-.0184-.1072-.6768.2752-.9792.9152-.9056-.3192.1712-.7968.4048-.5576.9176.2032.4336.5271.3168.8.0648-.1953.3832.2527.5664.4928.308a.47.47,0,0,0,.312.6688c-.07-.3664-.2848-.8632.2384-1.05-.2672.0136-.6929.31-.9144.1328-.376-.304.116-1.0208.5416-.9312-.652-.1-.732.3912-1.0816.736a.9411.9411,0,0,1,.6759-1.0176c-.4328.0136-.0144-.73.3449-.77a.55.55,0,0,0-.6144.3048.4627.4627,0,0,1-.004-.744.727.727,0,0,0-.3792,1.0648c-.5592-.5984-1.2681.2536-.9241.8344a.9426.9426,0,0,0-.41.21" transform="translate(-12.2842 -15.1003)"/><path id="path1785" class="cls-5" d="M207.191,193.9389c.6712.244.91-.8.64-1.23a1.2554,1.2554,0,0,1,.4592.3576c.016-.09.07-.1424.0872-.232.6792.3024.9688-.6128.44-1.0024a1.63,1.63,0,0,1,.2168-.0664c.0312-.2672-.2224-.39-.4632-.4208.0368-.0352.0776-.1048.1-.13-.3984-.244-.71.0088-1.032.244-.1-.524-.8568-.1536-.9568.1872-.15-.3144-.572-.2928-.8432-.1256.0992-.5424.6808-.5528,1.0984-.4976-.044-.0736-.0632-.22-.11-.292.6088.248.4992-.2632.01-.4432.5617.0824.6656.36,1.0256.616.0136-.5968.8008.04,1.0008-.0992.5712-.3976-.3608-1.0032-.73-1.0224.5608-.2792.8984.3408.9856.8.056-.0664.1848-.1184.2264-.1624.016.1768.0136.3656.016.5432.7312.076.1848-.8576.0144-1.096a.8585.8585,0,0,1,.4032,1.5352.9742.9742,0,0,1,.1416,1.2848.6834.6834,0,0,0-.68-.9032c.13.31.0312.688.1264.9712.09-.0712.224-.0768.2967-.1608a.7605.7605,0,0,1-.612,1.1464c.4088-.2808.47-.872-.1168-.84a1.1629,1.1629,0,0,0-.7328.4216c.5424.172-.1968.88-.516.9256a.76.76,0,0,1-.8128-.5976c.29.2576.328-.4808.25-.6856.1952.2552.02.436.084.664.0232.088.05.6472.352.1848" transform="translate(-12.2842 -15.1003)"/></g><g id="g1787"><path id="path1789" class="cls-30" d="M228.3406,173.9085c-4.0071,2.5192-8.6264,5.4552-11.7456,8.968-3.0872,3.4768-7.168,5.55-10.6584,8.6072a46.9809,46.9809,0,0,0-4.2967,3.7552,16.2192,16.2192,0,0,1-1.1072,1.3336c-.6784.6112-1.3848,1.15-2.0136,1.8208a25.9028,25.9028,0,0,1-2.74,2.55c-2.1464,1.73-4.3112,3.4448-6.6184,4.9544-.9176.6-2.2641,1.7984-3.352.87a6.2458,6.2458,0,0,1-1.6561-2.7632,6.748,6.748,0,0,1-.2888-2.99c.1952-.8112,1.5168-1.092,2.1472-1.444.9809-.5472,1.8752-1.232,2.7977-1.8688,1.7952-1.2392,3.5711-2.51,5.41-3.69a16.8694,16.8694,0,0,0,1.81-1.5032c.7751-.65,1.652-1.2008,2.4576-1.8168a60.8823,60.8823,0,0,0,8.91-8.196c3.3264-3.8088,5.5472-8.2352,8.1592-12.5288a42.5475,42.5475,0,0,0,4.904-12.8984,46.9548,46.9548,0,0,0,1.1816-17.392c1.6688-.696,3.0111-2.5784,4.0168-3.9728a48.1692,48.1692,0,0,1,.1432,14.2328,59.6375,59.6375,0,0,1-5.112,16.5552c-.4592,1.0024-1.1641,1.9688-1.0192,3.0016,3.3008-1.4536,16.7383-22.424,21.28-16.668,1.0943,1.3864-1.4128,1.7392-2.3168,2.1912a22.2394,22.2394,0,0,0-4.3424,2.908,130.7773,130.7773,0,0,0-12.216,12.4344c-1.056,1.1624-9.2144,7.8912-4.6416,8.4592,2.2144.2736,4.9295-3.2384,6.5992-4.3448,3.41-2.26,10.2528-9.8016,14.3816-4.7592-.0688-.084-5.184,1.5456-5.75,1.8136a40.3409,40.3409,0,0,0-4.3232,2.3808Z" transform="translate(-12.2842 -15.1003)"/><path id="path1791" class="cls-31" d="M184.8294,205.4645a5.9312,5.9312,0,0,1-.93-4.2536c.2024-.9416.7552-1.096,1.42-.364a7.707,7.707,0,0,1,.976,1.7824,8.9341,8.9341,0,0,1,.8792,2.4864c.0624.4944.1312,1.8728-.4584,2.0912-.77.2832-1.22-.8272-1.5648-1.2936-.11-.148-.2184-.2968-.3216-.4488Z" transform="translate(-12.2842 -15.1003)"/><path id="path1793" class="cls-32" d="M184.8158,201.5621c-.8591-.11.0648,2.808.2672,3.252.128.2832.6024,1.2224.9528,1.2824,1.06.1808-.3536-3.3312-.4744-3.652" transform="translate(-12.2842 -15.1003)"/></g></g></g><g id="layer3"><path id="line1797" class="cls-33" d="M186.5523,202.7875c-19.7778,22.131-41.934,81.7934-17.2072,81.8218" transform="translate(-12.2842 -15.1003)"/><path id="line1799" class="cls-33" d="M191.0379,213.5124c-13.2511,28.2141-21.2321,56.3955-4.1625,53.6385" transform="translate(-12.2842 -15.1003)"/><path id="line1801" class="cls-33" d="M306.079,162.2245,318.65,278.4956" transform="translate(-12.2842 -15.1003)"/><path id="line1831" class="cls-33" d="M280.4838,32.8708v93.8977" transform="translate(-12.2842 -15.1003)"/><path id="line1849" class="cls-33" d="M320.7654,177.4333l11.4286,82.0909" transform="translate(-12.2842 -15.1003)"/><path id="polyline1853" class="cls-33" d="M152.6158,103.55l5.9342,24.5933,28.46,2.1579" transform="translate(-12.2842 -15.1003)"/><path id="polyline1855" class="cls-33" d="M163.4438,103.55,167.22,86.8474l12.9317-4.3157" transform="translate(-12.2842 -15.1003)"/><path id="line1881" class="cls-33" d="M216.7982,153.4069c-21.0048,26.3177-55.6417-7.1423-91.8829-7.6525" transform="translate(-12.2842 -15.1003)"/><path id="line1883" class="cls-33" d="M124.3758,103.55h69.6408" transform="translate(-12.2842 -15.1003)"/><path id="line1885" class="cls-33" d="M124.3758,60.7965h46.1408" transform="translate(-12.2842 -15.1003)"/><path id="line1891" class="cls-33" d="M125.8769,180.5317c19.8209-.4025,39.5988-.7046,55.2032,8.7315" transform="translate(-12.2842 -15.1003)"/><path id="line2039" class="cls-33" d="M123.5446,215.9812l55.1073-9.2007" transform="translate(-12.2842 -15.1003)"/><path id="line1851" class="cls-33" d="M322.9826,194.3844l18.4829-21.9287" transform="translate(-12.2842 -15.1003)"/></g><g id="layer2"><g id="text3364" class="cls-34"><text class="cls-34" x="-12.2842" y="-15.1003"></text></g><g id="text3396" class="cls-34"><text class="cls-35" transform="translate(20.308 202.8796)">Mucosal lining</text></g><g id="text3473" class="cls-34"><text class="cls-35" transform="translate(27.2644 91.7003)">Alveolar sacs</text></g><g id="text3404" class="cls-34"><text class="cls-35" transform="translate(179.0931 256.3528)">Pulmonary artery</text></g><g id="text3408" class="cls-34"><text class="cls-35" transform="translate(162.8021 275.179)">Pulmonary vein</text></g><g id="text3412" class="cls-34"><text class="cls-35" transform="translate(314.7133 259.55)">Alveoli</text></g><g id="text3416" class="cls-34"><text class="cls-35" transform="translate(300.2377 277.3655)">Atrium</text></g><g id="text3400" class="cls-34"><text class="cls-35" transform="translate(221.8857 11.8158)">Capilllary beds</text></g><g id="text5233" class="cls-34"><text class="cls-35" transform="translate(24.3686 132.9532)">Alveolar duct</text></g><g id="text5243" class="cls-34"><text class="cls-35" transform="translate(22.6626 167.1891)">Mucous gland</text></g><g id="text8586" class="cls-34"><text class="cls-35" transform="translate(0 48.9044)">Connective tissue</text></g></g></svg>