<?xml version="1.0" encoding="utf-8"?>
<!-- Generator: Adobe Illustrator 15.0.2, SVG Export Plug-In . SVG Version: 6.00 Build 0)  -->
<!DOCTYPE svg PUBLIC "-//W3C//DTD SVG 1.1//EN" "http://www.w3.org/Graphics/SVG/1.1/DTD/svg11.dtd">
<svg version="1.1" id="Layer_1" xmlns="http://www.w3.org/2000/svg" xmlns:xlink="http://www.w3.org/1999/xlink" x="0px" y="0px"
	 width="2316.232px" height="2013.201px" viewBox="-409.796 -164.751 2316.232 2013.201"
	 enable-background="new -409.796 -164.751 2316.232 2013.201" xml:space="preserve">
<radialGradient id="bacterium_1_" cx="749.0002" cy="1301.5" r="1295.5094" gradientTransform="matrix(1 0 0 0.6432 0 464.396)" gradientUnits="userSpaceOnUse">
	<stop  offset="0" style="stop-color:#8D959C"/>
	<stop  offset="0.7633" style="stop-color:#495463"/>
	<stop  offset="1" style="stop-color:#000000"/>
</radialGradient>
<path id="bacterium" fill="url(#bacterium_1_)" stroke="#000000" stroke-width="28.3465" stroke-miterlimit="10" d="M1824,1397.5
	c0,207.659-168.341,376-376,376H50c-207.659,0-376-168.341-376-376v-192c0-207.659,168.341-376,376-376h1398
	c207.659,0,376,168.341,376,376V1397.5z"/>
<g id="bacterial_DNA">
	<g>
		<path fill="#47C7EF" stroke="#000000" stroke-width="2.8347" stroke-miterlimit="10" d="M1381.695,1695.57
			c-12.906,0-25.429-0.884-36.274-1.648c-4.376-0.309-8.508-0.601-12.183-0.799c-8.545-0.46-17.591-0.281-27.167-0.091
			c-33.04,0.654-70.485,1.396-97.744-25.932c-8.145-8.166-16.228-14.325-24.492-18.971c-50.244,19.089-102.225,37.768-158.896,11.65
			l-7.274-3.353l-0.88-7.961c-1.015-9.168,1.674-17.573,7.774-24.308c15.516-17.129,49.217-19.074,80.146-18.725l2.362,0.024
			c28.438,0.217,53.881,1.579,78.199,11.806c11.872-4.485,24.014-8.933,36.169-12.625c41.152-12.499,87.297-4.653,131.919,2.935
			c23.601,4.013,45.893,7.804,66.601,8.515c1.076,0.037,2.171,0.082,3.283,0.135c-8.749-5.891-18.604-11.224-26.146-15.305
			c-6.288-3.402-11.718-6.341-16.002-9.131c-82.89-53.995-171.219-29.045-264.733-2.628c-30.707,8.674-62.458,17.644-93.94,23.585
			c-7.921,1.494-15.589,2.715-23.024,3.66c-4.898,11.804-14.224,22.218-27.705,30.511c-27.443,16.88-72.644,25.343-120.924,22.645
			c-49.048-2.744-89.455-16.503-108.09-36.806c-16.985-18.505-17.022-42.233-0.102-65.102
			c12.127-16.389,32.426-25.861,58.701-27.395c20.613-1.197,43.214,2.838,60.485,10.808l2.546,1.175l1.907,2.057
			c24.604,26.529,60.293,38.411,108.376,35.914c-0.509-2.527-1.284-4.954-2.146-7.244
			c-29.968-79.558-87.981-118.069-159.157-105.675c-81.72,14.237-169.306,41.47-246.624,76.684
			c-0.449,0.205-0.899,0.409-1.346,0.611c19.175,15.944,35.206,36.001,34.561,56.917c-0.408,13.212-7.657,31.641-39.88,44.413
			c-26.526,10.516-51.775,14.697-76.336,14.699c-45.938,0.002-89.497-14.622-134.699-29.795l-3.886-1.305
			c-28.425-9.533-63.497-5.81-100.627-1.87c-7.01,0.744-14.047,1.491-21.081,2.147c-37.923,23.312-78.884,39.353-126.151,41.683
			c-74.867,3.689-120.127-9.416-138.363-40.067c-5.921-9.952-13.254-24.85-8.597-39.268c4.743-14.685,18.901-20.826,31.393-26.245
			c5.794-2.514,11.785-5.112,16.788-8.4c13.802-9.073,16.099-14.314,16.432-15.345c-0.571-0.999-4.182-5.934-22.28-12.422
			c-14.71-5.273-32.951-9.463-49.045-13.158c-29.269-6.722-41.372-9.781-47.035-18.133c-8.223-12.127-12.24-23.831-11.942-34.787
			c0.299-10.957,4.938-21.045,13.418-29.173c23.142-22.185,69.271-24.941,88.029-25.097c28.543-0.24,65.745,4.496,84.619,18.492
			c12.855,9.532,22.381,21.072,31.188,32.636c4.737-3.409,9.876-6.37,15.379-8.831c32.809-14.667,68.188-14.324,108.164,1.048
			c33.019,12.697,63.982,33.669,91.301,52.172c4.458,3.021,8.696,5.891,12.872,8.679c23.284-12.836,49.848-20.151,78.375-21.429
			c36.872-1.655,75.754,6.584,112.445,23.816c5.253,2.468,11.373,5.695,17.843,9.562c5.49-2.318,11.053-4.77,16.713-7.348
			c80.601-36.709,168.262-63.962,253.507-78.813c43.47-7.574,84.395,0.991,118.353,24.765c31.066,21.75,56.032,55.93,72.197,98.844
			c1.831,4.862,3.091,9.656,3.789,14.35c4.7-0.698,9.503-1.511,14.404-2.436c30.244-5.707,61.38-14.503,91.49-23.008
			c95.492-26.977,194.232-54.869,287.912,6.154c3.316,2.161,8.276,4.845,14.02,7.952c19.5,10.552,44.935,24.314,56.199,43.853
			c39.523,3.57,88.642,6.503,114.034-10.98c3.166-2.18,10.4-7.7,9.219-11.883c-2.979-10.545-30.885-24.022-46.843-24.856
			c-51.302-2.685-81.71-23.034-113.904-44.578c-15.129-10.124-30.772-20.593-49.417-29.645
			c-45.406-22.042-113.2-12.617-149.57-5.037c-62.659,13.06-122.453,12.917-185.759,12.76c-6.705-0.017-13.435-0.033-20.192-0.033
			c-7.828,0-14.173-6.346-14.173-14.173c0-7.828,6.345-14.173,14.173-14.173c6.781,0,13.534,0.017,20.262,0.032
			c61.778,0.155,120.141,0.293,179.906-12.163c39.902-8.318,114.756-18.433,167.732,7.287c20.405,9.906,36.875,20.928,52.803,31.587
			c30.111,20.149,56.115,37.552,99.62,39.827c21.182,1.108,64.797,17.696,72.641,45.458c2.551,9.028,3.29,26.611-20.421,42.938
			c-31.742,21.855-81.332,20.266-125.265,16.52c-1.385,6.249-4.511,13.264-10.594,20.59
			C1443.118,1690.89,1411.396,1695.569,1381.695,1695.57z M1320.885,1664.488c4.666,0,9.317,0.084,13.878,0.33
			c3.909,0.21,8.155,0.51,12.651,0.827c30.029,2.12,75.406,5.32,91.81-14.438c1.599-1.925,2.704-3.635,3.46-5.131
			c-8.666-0.779-16.752-1.42-23.703-1.658c-22.609-0.777-46.895-4.906-70.379-8.899c-41.379-7.037-84.17-14.315-118.929-3.757
			c-4.417,1.342-8.879,2.808-13.356,4.353c4.033,3.29,8.056,6.932,12.08,10.967c18.719,18.767,47.083,18.203,77.112,17.608
			C1310.579,1664.591,1315.74,1664.488,1320.885,1664.488z M-81.219,1490.728c5.097,2.246,19.994,5.666,31.102,8.218
			c43.213,9.923,87.898,20.184,92.947,48.266c4.024,22.379-20.703,38.633-28.828,43.974c-7.047,4.632-14.501,7.865-21.077,10.718
			c-5.571,2.417-14.895,6.461-15.699,8.952c-0.051,0.159-1.175,4.03,5.983,16.062c8.385,14.094,34.723,30.083,112.607,26.249
			c21.973-1.083,42.621-5.646,62.311-12.841c-22.431-2.924-43.31-10.352-61.088-26.001c-23.482-20.67-35.066-53.289-30.231-85.129
			c2.167-14.271,7.302-27.229,14.929-38.239c-8.624-11.462-17.027-22.18-27.992-30.311c-8.932-6.624-34.969-13.148-67.5-12.917
			c-31.541,0.262-57.845,6.857-68.648,17.214C-85.508,1467.918-91.855,1474.001-81.219,1490.728z M1051.441,1639.59
			c28.508,8.56,56.492,4.142,84.985-4.697c-9.222-0.786-19.01-1.008-29.575-1.088l-2.47-0.025
			c-7.308-0.083-20.899-0.238-33.703,1.345C1061.252,1636.29,1055.237,1638.008,1051.441,1639.59z M301.237,1605.199
			c18.397,0,36.268,1.883,52.848,7.443l3.893,1.307c67.109,22.525,125.066,41.978,191.57,15.617
			c9.887-3.919,21.729-10.386,21.993-18.935c0.358-11.632-16.099-29.063-36.429-43.327c-35.759,13.794-65.682,20.368-94.257,20.946
			c-37.812,0.751-74.385-9.461-111.362-31.198c-3.676,2.656-7.277,5.536-10.788,8.648c-15.988,14.174-32.017,28.022-48.384,40.927
			C280.697,1605.777,291.048,1605.199,301.237,1605.199z M808.543,1568.463c-17.64,0-34.674,4.547-43.187,16.052
			c-11.204,15.142-7.198,23.193-1.802,29.072c13.344,14.539,48.196,25.4,88.79,27.671c42.088,2.354,82.123-4.73,104.49-18.487
			c2.103-1.294,3.984-2.598,5.666-3.911c-11.289-0.012-22.01-0.802-32.264-2.364c-33.671-5.133-61.488-18.831-82.732-40.729
			C836.733,1571.291,822.449,1568.463,808.543,1568.463z M100.574,1514.841c-2.779,5.682-4.727,11.931-5.741,18.609
			c-3.401,22.398,4.621,45.234,20.936,59.596c24.445,21.519,59.553,22.363,98.129,19.135c29.776-18.976,57.914-42.79,86.001-67.69
			c1.439-1.276,2.896-2.522,4.375-3.744c-1.157-0.782-2.326-1.574-3.51-2.377c-53.239-36.058-113.58-76.931-171.999-50.811
			c-3.412,1.525-6.617,3.344-9.595,5.428c7.271,8.636,15.188,16.364,25.245,22.207c30.847,17.921,68.749,20.807,103.986,7.916
			c7.354-2.692,15.49,1.09,18.18,8.441c2.689,7.352-1.09,15.49-8.441,18.18c-43.171,15.793-89.812,12.139-127.964-10.027
			C118.102,1532.688,108.723,1524.057,100.574,1514.841z M359.01,1540.871c49.474,24.591,93.972,23.727,143.34,8.062
			C460.422,1530.69,406.346,1522.075,359.01,1540.871z"/>
	</g>
	
		<line fill="none" stroke="#000000" stroke-width="2.8347" stroke-miterlimit="10" x1="101.816" y1="1470.511" x2="119.17" y2="1492.986"/>
	
		<line fill="none" stroke="#000000" stroke-width="2.8347" stroke-miterlimit="10" x1="81.737" y1="1490.955" x2="100.574" y2="1514.841"/>
	
		<line fill="none" stroke="#000000" stroke-width="2.8347" stroke-miterlimit="10" x1="213.898" y1="1612.181" x2="158.127" y2="1640.324"/>
	
		<line fill="none" stroke="#000000" stroke-width="2.8347" stroke-miterlimit="10" x1="223.363" y1="1639.795" x2="270.32" y2="1606.628"/>
	
		<line fill="none" stroke="#000000" stroke-width="2.8347" stroke-miterlimit="10" x1="304.274" y1="1540.746" x2="329.532" y2="1523.578"/>
	
		<line fill="none" stroke="#000000" stroke-width="2.8347" stroke-miterlimit="10" x1="359.01" y1="1540.871" x2="329.491" y2="1557.053"/>
	
		<line fill="none" stroke="#000000" stroke-width="2.8347" stroke-miterlimit="10" x1="538.196" y1="1535.527" x2="565.312" y2="1554.588"/>
	
		<line fill="none" stroke="#000000" stroke-width="2.8347" stroke-miterlimit="10" x1="535.111" y1="1567.305" x2="502.35" y2="1548.933"/>
	
		<line fill="none" stroke="#000000" stroke-width="2.8347" stroke-miterlimit="10" x1="974.585" y1="1590.212" x2="1002.755" y2="1587.325"/>
	
		<line fill="none" stroke="#000000" stroke-width="2.8347" stroke-miterlimit="10" x1="999.391" y1="1616.405" x2="962.501" y2="1618.859"/>
	
		<line fill="none" stroke="#000000" stroke-width="2.8347" stroke-miterlimit="10" x1="1185.266" y1="1617.265" x2="1136.426" y2="1634.893"/>
	
		<line fill="none" stroke="#000000" stroke-width="2.8347" stroke-miterlimit="10" x1="1216.317" y1="1636.115" x2="1183.834" y2="1648.13"/>
	
		<line fill="none" stroke="#000000" stroke-width="2.8347" stroke-miterlimit="10" x1="1423.238" y1="1616.224" x2="1466.781" y2="1619.841"/>
	
		<line fill="none" stroke="#000000" stroke-width="2.8347" stroke-miterlimit="10" x1="1471.626" y1="1648.728" x2="1442.684" y2="1646.077"/>
</g>
<g id="phage_2">
	<rect x="1193.583" y="813.493" fill="#FFFFFF" width="16.465" height="30.254"/>
	<polygon points="1090.555,139.413 1090.995,138.287 1090.995,310.131 1089.805,310.704 1089.847,310.797 1087.875,311.823 
		1087.845,328.002 1098.865,330.928 1099.025,331.284 1099.583,330.979 1192.625,382.055 1192.625,385.194 1193.396,385.563 
		1192.625,385.444 1197.477,388.422 1197.477,351.579 1122.66,308.383 1122.66,155.317 1203.062,108.897 1283.465,155.316 
		1283.465,308.383 1208.553,351.635 1208.553,387.907 1212.025,385.874 1211.719,385.911 1212.025,385.803 1212.025,382.317 
		1305.111,331.196 1305.805,331.573 1305.971,331.211 1316.975,328.293 1316.945,312.114 1315.236,311.223 1315.316,311.053 
		1313.674,310.301 1313.674,138.1 1314.344,139.813 1316.545,138.813 1317.736,127.643 1307.365,123.253 1305.174,124.253 
		1305.311,124.408 1219.245,74.145 1219.245,71.193 1203.094,61.503 1187.424,70.873 1187.424,73.933 1187.429,73.94 1098.6,125.14 
		1099.726,123.853 1097.535,122.853 1087.165,127.243 1088.355,138.413 	"/>
	<line fill="none" stroke="#000000" stroke-width="6" x1="1167.722" y1="414.858" x2="1128.474" y2="550.435"/>
	<line fill="none" stroke="#000000" stroke-width="6" x1="1237.346" y1="415.57" x2="1276.594" y2="551.146"/>
	<path d="M1190.485,390.944c0,0.029,0.017,0.059,0.021,0.09c-0.005,0.029-0.021,0.059-0.021,0.09l-0.029,0.029
		c0.637,2.066-2.469,6.139-5.909,10.188c-0.794-0.27-1.808-0.178-2.664,0.006c-0.857,0.186-1.604,0.299-1.754,1.307
		c-0.112,0.598,0.037,1.156,0.075,1.754c0,0.627-0.173,1.283,0.07,1.891c-0.167,0.197-0.33,0.391-0.49,0.582
		c-11.405,2.271-18.949,6.197-18.949,10.664v5.27c0,1.967,1.461,3.83,4.066,5.492c-2.605,1.662-4.066,3.523-4.066,5.488v5.27
		c0,1.965,1.461,3.824,4.067,5.486c-2.606,1.662-4.067,3.525-4.067,5.492v5.26c0,1.824,1.263,3.558,3.52,5.123
		c-2.257,1.566-3.52,3.297-3.52,5.117v5.272c0,1.967,1.461,3.827,4.065,5.491c-2.604,1.662-4.065,3.523-4.065,5.486v5.271
		c0,1.965,1.461,3.823,4.067,5.485c-2.605,1.662-4.067,3.525-4.067,5.492v5.26c0,2.429,2.222,4.695,6.073,6.625
		c-3.853,1.929-6.073,4.193-6.073,6.615v5.271c0,1.968,1.461,3.828,4.065,5.492c-2.604,1.662-4.065,3.523-4.065,5.486v5.271
		c0,1.966,1.461,3.824,4.067,5.486c-2.605,1.662-4.067,3.525-4.067,5.492v5.26c0,2.428,2.222,4.695,6.073,6.625
		c-3.853,1.928-6.073,4.193-6.073,6.615v5.271c0,1.968,1.461,3.828,4.065,5.492c-2.604,1.662-4.065,3.523-4.065,5.486v5.271
		c0,1.966,1.461,3.824,4.067,5.486c-2.605,1.662-4.067,3.525-4.067,5.492v5.26c0,2.428,2.222,4.695,6.073,6.625
		c-3.853,1.928-6.073,4.193-6.073,6.615v5.271c0,1.968,1.461,3.828,4.065,5.492c-2.604,1.662-4.065,3.523-4.065,5.486v5.271
		c0,1.966,1.461,3.824,4.067,5.486c-2.605,1.662-4.067,3.525-4.067,5.492v5.26c0,2.09,1.656,4.062,4.573,5.799
		c-2.917,1.738-4.573,3.705-4.573,5.793v5.271c0,1.965,1.462,3.826,4.069,5.49c-2.606,1.662-4.069,3.524-4.069,5.489v5.271
		c0,1.965,1.461,3.824,4.067,5.486c-2.606,1.664-4.067,3.524-4.067,5.494v5.26c0,2.426,2.222,4.692,6.073,6.623
		c-3.853,1.928-6.073,4.192-6.073,6.617v5.27c0,1.965,1.462,3.826,4.069,5.49c-2.33,1.485-3.744,3.133-4.018,4.869l-66.188-118.769
		c-0.325-0.586-1.275-1.494-2.083-1.524l-0.122,0.039c-0.325-0.226-0.724-0.349-0.785-0.345l-5.469-0.229
		c-0.773,0.244-1.446,1.375-1.604,2.022l-15.288,64.359l-38.376-32.555c-0.002-0.183-0.021-0.408-0.062-0.672l-1.557-1.691
		c-0.095-0.602-0.906-1.188-1.008-1.217l-5.965-2.248c-0.941-0.012-2.1,0.994-2.511,1.654L908.793,821.36
		c-0.584,0.938-0.298,2.172,0.64,2.756l2.677,1.67c0.937,0.584,2.171,0.299,2.755-0.64l108.833-174.411l43.796,37.151
		l-24.468,142.006c-0.145,0.845,0.219,1.695,0.809,1.902l1.688,0.59c0.589,0.205,1.186-0.313,1.329-1.16l25.132-139.53
		l96.739,82.061l-0.525,0.357l-0.237,2.053l-17.417,1.924l-3.167-0.217l-11.84,4.26l11.854-2.791l-0.523,0.209l-11.33,2.582
		l2.44,8.65l1.939,1.211l0.257-0.072l2.373,13.281l-22.87,27l18.79,1.02l22.431,6.892l26.168-6.013v15.854h8.841v-21.49
		c0.109,0.073,0.213,0.148,0.34,0.218v-74.496h-5.688V420.215h6.921v-31.533C1193.361,389.069,1190.485,389.934,1190.485,390.944z
		 M1161.023,757.847l-87.107-73.893l16.027-64.111l71.822,128.873c-0.604,0.863-0.93,1.758-0.93,2.678v5.261
		C1160.834,757.056,1160.904,757.452,1161.023,757.847z M1168.073,763.825c0.841,0.377,1.751,0.737,2.716,1.084l1.291,2.313
		L1168.073,763.825z M1189.794,773.413h-0.63l-3.413,0.166c-0.434-1.687-1.95-2.938-3.771-2.938c-0.313,0-0.61,0.045-0.901,0.113
		l-1.988-3.565c3.267,0.68,6.864,1.219,10.704,1.596L1189.794,773.413L1189.794,773.413z"/>
	<path d="M1498.633,820.028l-111.078-178.011c-0.412-0.661-1.567-1.666-2.512-1.653l-5.963,2.248
		c-0.103,0.026-0.914,0.614-1.008,1.217l-1.558,1.688c-0.041,0.265-0.059,0.492-0.061,0.675l-40.289,34.178l-18.639-62.662
		c-0.193-0.639-0.933-1.729-1.716-1.928l-2.864,0.283l-3.638-1.169c-0.809,0.031-1.76,0.941-2.084,1.525l-64.34,115.451
		c-0.67-0.771-1.565-1.514-2.674-2.219c2.609-1.664,4.072-3.525,4.072-5.49v-5.271c0-2.424-2.224-4.688-6.076-6.616
		c3.854-1.931,6.076-4.197,6.076-6.623v-5.261c0-1.969-1.463-3.829-4.07-5.493c2.607-1.662,4.07-3.521,4.07-5.486v-5.271
		c0-1.965-1.463-3.827-4.072-5.489c2.609-1.664,4.072-3.525,4.072-5.49v-5.271c0-2.088-1.658-4.055-4.576-5.793
		c2.918-1.737,4.576-3.709,4.576-5.799v-5.26c0-1.967-1.463-3.83-4.07-5.492c2.607-1.662,4.07-3.521,4.07-5.486v-5.271
		c0-1.963-1.463-3.824-4.068-5.486c2.605-1.664,4.068-3.524,4.068-5.492v-5.271c0-2.422-2.224-4.688-6.076-6.615
		c3.854-1.93,6.076-4.197,6.076-6.625v-5.26c0-1.967-1.463-3.83-4.07-5.492c2.607-1.662,4.07-3.521,4.07-5.486v-5.271
		c0-1.963-1.463-3.824-4.068-5.486c2.605-1.664,4.068-3.524,4.068-5.492v-5.271c0-2.422-2.224-4.688-6.076-6.615
		c3.854-1.93,6.076-4.197,6.076-6.625v-5.26c0-1.967-1.463-3.83-4.07-5.492c2.607-1.662,4.07-3.521,4.07-5.486v-5.271
		c0-1.963-1.463-3.824-4.068-5.486c2.605-1.664,4.068-3.524,4.068-5.492v-5.271c0-2.422-2.224-4.688-6.076-6.615
		c3.854-1.93,6.076-4.197,6.076-6.625v-5.26c0-1.967-1.463-3.83-4.07-5.492c2.607-1.662,4.07-3.521,4.07-5.486v-5.271
		c0-1.963-1.463-3.824-4.068-5.486c2.605-1.664,4.068-3.524,4.068-5.492v-5.271c0-1.82-1.265-3.551-3.521-5.117
		c2.258-1.565,3.521-3.299,3.521-5.123v-5.26c0-1.967-1.463-3.83-4.07-5.492c2.607-1.662,4.07-3.521,4.07-5.486v-5.27
		c0-1.965-1.463-3.826-4.068-5.488c2.605-1.662,4.068-3.525,4.068-5.492v-5.27c0-4.582-7.941-8.596-19.847-10.838
		c-0.104-0.125-0.211-0.25-0.317-0.377c0.219-0.596,0.053-1.236,0.053-1.848c0.039-0.598,0.188-1.156,0.076-1.754
		c-0.15-1.008-0.896-1.119-1.754-1.307c-0.842-0.18-1.836-0.273-2.623-0.021c-3.303-3.883-6.31-7.795-6.021-9.947
		c0.104-0.105,0.166-0.211,0.205-0.32l0.056-0.008c0-0.037-0.019-0.074-0.025-0.111c0.002-0.023,0.016-0.045,0.016-0.068
		c0-0.887-2.219-1.662-5.551-2.102v31.373h7.502v333.969h-6.18v73.959c0.031-0.028,0.054-0.06,0.083-0.09v21.899h8.841v-16.466
		l24.526,6.625l23.149-8.101l18.07,0.189l-22.871-27l2.305-13.045l0.308,0.086l1.938-1.211l2.439-8.65l-9.316-2.123l-0.401-0.164
		l9.719,2.287l-11.619-4.35l-2.609,0.217l-17.143-2.014l-0.27-2.242l-0.093-0.064l97.25-82.494l31.437,139.349
		c0.151,0.756,0.682,1.182,1.182,0.951l1.428-0.66c0.5-0.23,0.783-1.031,0.629-1.787l-30.463-141.424l45.338-38.459l108.832,174.412
		c0.584,0.938,1.818,1.223,2.755,0.639l2.678-1.67C1498.93,822.198,1499.217,820.966,1498.633,820.028z M1221.034,771.085
		c-1.471,0.16-2.693,1.123-3.211,2.455l-2.027-0.094v-4.711c2.471-0.254,4.84-0.572,7.08-0.955L1221.034,771.085z M1228.125,772.02
		l-0.201,0.014l-0.221,0.344l-0.678,0.576l3.875-6.951c3.11-0.881,5.778-1.904,7.897-3.035L1228.125,772.02z M1243.659,758.843
		c0.404-0.711,0.627-1.442,0.627-2.188v-5.261c0-1.596-0.969-3.12-2.721-4.526l70.403-126.334l19.892,63.49L1243.659,758.843z"/>
	<g>
		<path fill="none" stroke="#000000" stroke-width="15.5906" stroke-linecap="round" stroke-miterlimit="10" d="M1201.568,438.788
			c6.983,142.621-1.065,311.811,3.081,429.93c1.898,54.101,38.549,30.802,40.326,82.679c2.091,60.991-52.381,66.863-100.468,65.813
			c-36.988-0.808-84.142,0.44-88.633,47.619c-6.379,67.024,75.966-8.623,34.249-41.324c-25.497-19.988-95.616-36.938-126.105-24.032
			c-46.369,19.626-35.919,115.424-113.835,86.276"/>
		<path fill="none" stroke="#6ECE41" stroke-width="9.9213" stroke-linecap="round" stroke-miterlimit="10" d="M1201.568,438.788
			c6.983,142.621-1.065,311.811,3.081,429.93c1.898,54.101,38.549,30.802,40.326,82.679c2.091,60.991-52.381,66.863-100.468,65.813
			c-36.988-0.808-84.142,0.44-88.633,47.619c-6.379,67.024,75.966-8.623,34.249-41.324c-25.497-19.988-95.616-36.938-126.105-24.032
			c-46.369,19.626-35.919,115.424-113.835,86.276"/>
	</g>
</g>
<g id="phage_1">
	<polygon points="178.874,-14.146 179.314,-15.272 179.314,156.571 178.124,157.145 178.166,157.237 176.194,158.264 
		176.164,174.442 187.184,177.368 187.344,177.725 187.902,177.419 280.944,228.496 280.944,231.634 281.715,232.003 
		280.944,231.884 285.796,234.862 285.796,198.02 210.979,154.823 210.979,1.757 291.381,-44.663 371.784,1.756 371.784,154.823 
		296.872,198.075 296.872,234.348 300.344,232.314 300.038,232.352 300.344,232.244 300.344,228.757 393.429,177.637 
		394.124,178.014 394.29,177.651 405.294,174.733 405.263,158.555 403.554,157.664 403.635,157.493 401.993,156.741 
		401.993,-15.459 402.663,-13.747 404.864,-14.747 406.054,-25.917 395.683,-30.307 393.493,-29.307 393.63,-29.151 
		307.564,-79.415 307.564,-82.367 291.413,-92.057 275.743,-82.687 275.743,-79.626 275.748,-79.62 186.919,-28.419 
		188.045,-29.707 185.854,-30.707 175.484,-26.316 176.674,-15.146 	"/>
	<line fill="none" stroke="#000000" stroke-width="6" x1="256.041" y1="261.298" x2="216.793" y2="396.875"/>
	<line fill="none" stroke="#000000" stroke-width="6" x1="325.665" y1="262.01" x2="364.913" y2="397.587"/>
	<path fill="#6ECE41" stroke="#000000" stroke-width="3" d="M302.577,1.892c-9.413,2.54-27.688,7.009-34.457-3.162
		c-6.259-9.407,13.001-13.849,18.802-13.969c7.713-0.16,7.738-12.16,0-12c-14.644,0.303-38.313,10.727-30.552,29.256
		c7.859,18.761,33.773,15.662,49.398,11.446C313.217,11.454,310.056-0.125,302.577,1.892L302.577,1.892z"/>
	<path fill="#6ECE41" stroke="#000000" stroke-width="3" d="M305.769,13.462c9.848-2.773,19.735-6.534,30.016-7.306
		c5.269-0.395,11.273,0.047,14.832,4.476c3.371,4.196,4.053,10.246,4.246,15.429c0.32,8.497-0.543,17.316-2.572,25.563
		c-1.848,7.498,9.724,10.697,11.57,3.19l0,0c3.834-15.572,6.922-39.151-4.59-52.453c-13.994-16.173-40.076-5.151-56.693-0.472"/>
	<path fill="#6ECE41" stroke="#000000" stroke-width="3" d="M352.29,51.625c-1.021,3.575-2.34,7.471-6.295,8.524
		c-4.94,1.316-10.774-0.343-15.543-1.596c-7.477-1.964-10.666,9.607-3.19,11.571l0,0c7.723,2.029,16.854,3.929,24.521,0.697
		c6.752-2.847,10.158-9.279,12.078-16.006"/>
	<path fill="#6ECE41" stroke="#000000" stroke-width="3" d="M330.452,58.554c-7.969-2.258-15.625-5.367-23.447-8.052
		c-6.799-2.333-13.643-3.326-20.768-4.169c-7.653-0.906-7.588,11.102,0,12l0,0c14.442,1.71,27.147,7.861,41.024,11.793"/>
	<path fill="#6ECE41" stroke="#000000" stroke-width="3" d="M286.237,46.333c-8.851-0.973-17.719-1.435-26.621-1.073
		c-7.694,0.312-7.734,12.314,0,12l0,0c8.902-0.361,17.771,0.101,26.621,1.073"/>
	<path fill="#6ECE41" stroke="#000000" stroke-width="3" d="M259.616,45.258c-13.843,0.759-32.606,3.349-38.863,17.836
		c-6.646,15.388,4.613,33.143,17.846,40.666c6.723,3.823,12.777-6.541,6.057-10.361l0,0c-7.963-4.528-17.818-16.632-12.526-26.378
		c4.641-8.545,19.114-9.304,27.488-9.763"/>
	<path fill="#6ECE41" stroke="#000000" stroke-width="3" d="M238.597,103.76c14.667,7.472,30.032,5.866,43.525-3.083
		c5.347-3.546,10.281-7.725,15.924-10.815c7.604-4.164,16.32-4.474,24.8-3.726c7.69,0.679,7.646-11.325,0-12l0,0
		c-8.238-0.729-17.142-0.409-24.939,2.622c-5.756,2.237-10.755,5.647-15.734,9.242c-11.652,8.413-23.26,14.662-37.52,7.398"/>
	<path fill="#6ECE41" stroke="#000000" stroke-width="3" d="M322.847,86.137c11.33,1.304,23.774,6.75,28.479,17.887
		c2.607,6.171,2.33,13.139,0.68,19.51c-2.081,8.044-7.594,12.781-15.215,15.795c-7.098,2.807-4.004,14.417,3.191,11.571l0,0
		c9.957-3.938,18.799-10.1,22.521-20.543c3.166-8.881,3.918-19.471,0.777-28.46c-6.074-17.392-23.133-25.768-40.434-27.76"/>
	<path fill="#6ECE41" stroke="#000000" stroke-width="3" d="M336.79,139.329c-7.606,2.716-16.055,4.045-23.979,1.864
		c-8.74-2.405-11.531-9.24-13.426-17.508c-1.724-7.524-13.296-4.34-11.571,3.19l0,0c2.596,11.338,7.787,20.812,19.125,25.027
		c10.459,3.889,22.717,2.683,33.041-1.002"/>
	<path fill="#6ECE41" stroke="#000000" stroke-width="3" d="M299.386,123.685c-1.787-8.877-2.986-19.295-0.927-28.236
		c1.996-8.649,6.959-16.064,12.054-23.185c4.502-6.291-5.9-12.289-10.361-6.057l0,0c-5.971,8.345-11.617,17.341-13.585,27.573
		c-2.07,10.759-0.897,22.437,1.249,33.095"/>
	<path fill="#6ECE41" stroke="#000000" stroke-width="3" d="M310.513,72.264c6.555-9.036,12.096-18.088,16.016-28.593
		c2.703-7.245-8.893-10.373-11.572-3.19l0,0c-3.532,9.472-8.907,17.598-14.805,25.727"/>
	<path fill="#6ECE41" stroke="#000000" stroke-width="3" d="M326.528,43.67c3.658-10.521,5.482-21.706,2.781-32.669
		c-1.849-7.494-13.422-4.32-11.572,3.19l0,0c2.191,8.886,0.162,17.824-2.781,26.288"/>
	<path fill="#6ECE41" stroke="#000000" stroke-width="3" d="M329.31,11.001c-3.377-11.524-12.047-18.97-23.347-22.439
		c-7.397-2.272-10.562,9.308-3.188,11.571l0,0c7.262,2.23,12.783,6.617,14.963,14.058"/>
	<path fill="#6ECE41" stroke="#000000" stroke-width="3" d="M305.964-11.438c-25.18-6.816-50.632,8.419-66.372,27.404
		c-4.896,5.903,3.55,14.438,8.484,8.485l0,0c12.888-15.545,33.69-30.005,54.698-24.318"/>
	<path fill="#6ECE41" stroke="#000000" stroke-width="3" d="M239.592,15.966c-6.838,8.663-11.777,17.832-12.515,28.992
		c-0.544,8.246,0.19,17.075,2.733,24.968c2.36,7.325,6.464,14.854,13.603,18.464c10.519,5.318,21.254,1.012,28.354-7.575
		c4.885-5.909-3.559-14.444-8.485-8.485l0,0c-4.219,5.103-10.366,9.168-16.328,4.049c-4.034-3.465-5.721-9.324-6.794-14.316
		c-2.966-13.799-0.966-26.359,7.916-37.611"/>
	<path fill="#6ECE41" stroke="#000000" stroke-width="3" d="M272.706,79.602c3.788-5.037,7.015-11.028,8.038-17.307
		c0.864-5.299,1.065-10.686,1.491-16.03c0.399-5.022,0.646-10.608,2.615-15.323c2.094-5.012,8.767-4.727,13.404-4.889
		c7.701-0.269,7.736-12.27,0-12l0,0c-7.063,0.246-15.633,0.851-20.797,6.354c-3.881,4.136-5.26,10.086-6.08,15.521
		c-0.975,6.469-1.261,12.99-1.829,19.5c-0.604,6.926-2.986,12.509-7.204,18.118"/>
	<path fill="#6ECE41" stroke="#000000" stroke-width="3" d="M298.255,26.052c7.187-0.078,14.654,0.38,21.564,2.512
		c6.119,1.888,10.055,6.136,12.873,11.749c3.469,6.902,13.824,0.833,10.361-6.057l0,0c-8.656-17.231-27.101-20.396-44.8-20.204"/>
	<path fill="#6ECE41" stroke="#000000" stroke-width="3" d="M332.693,40.313c4.736,10.681,3.619,24.445,3.117,35.827
		c-0.34,7.721,11.662,7.705,12,0l0,0c0.613-13.934,0.998-28.908-4.756-41.883"/>
	<path fill="#6ECE41" stroke="#000000" stroke-width="3" d="M335.81,76.14c-0.512,9.62-1.482,19.181-4.672,28.325
		c-3.338,9.574-8.42,18.497-14.252,26.756c-4.466,6.321,5.936,12.322,10.36,6.057l0,0c6.443-9.126,11.783-19.058,15.463-29.625
		c3.517-10.096,4.535-20.896,5.101-31.513"/>
	<path fill="#6ECE41" stroke="#000000" stroke-width="3" d="M316.886,131.221c-5.759,7.894-12.582,15.104-21.037,20.113
		c-6.641,3.932-0.61,14.31,6.057,10.361l0,0c10.291-6.095,18.351-14.832,25.342-24.418"/>
	<path fill="#6ECE41" stroke="#000000" stroke-width="3" d="M295.849,151.334c-7.487,4.13-15.704,6.38-24.231,6.861
		c-7.678,0.433-7.729,12.436,0,12l0,0c10.668-0.602,20.914-3.328,30.288-8.5"/>
	<path fill="#6ECE41" stroke="#000000" stroke-width="3" d="M271.618,158.195c-7.757,0.205-14.903-1.01-21.629-4.973
		c-4.116-2.426-11.859-7.094-12.487-12.449c-0.555-4.723,8.462-7.192,11.879-8.687c4.562-1.996,9.095-4.207,14.116-4.757
		c17.701-1.941,20.063,22.831,20.955,35.824c0.726,10.522,0.955,13.018,0.945,23.555c-0.01,9.404,11.991,9.416,12,0l-0.131,1.317
		c0.012-11.702-0.037-16.69-1.093-28.361c-1.008-11.159-2.701-23.494-9.242-32.934c-6.854-9.894-17.696-13.109-29.233-10.513
		c-6.688,1.505-13.24,4.759-19.397,7.721c-7.007,3.371-13.507,8.783-12.79,17.291c0.786,9.324,9.016,16.286,16.315,21.065
		c8.97,5.873,19.122,8.182,29.791,7.9"/>
	<path d="M285.797,266.655v-31.533c-4.117,0.387-6.993,1.252-6.993,2.262c0,0.029,0.017,0.059,0.021,0.09
		c-0.005,0.029-0.021,0.059-0.021,0.09l-0.029,0.029c0.637,2.066-2.469,6.139-5.909,10.188c-0.794-0.27-1.808-0.178-2.664,0.006
		c-0.857,0.186-1.604,0.299-1.754,1.307c-0.112,0.598,0.037,1.156,0.075,1.754c0,0.627-0.173,1.283,0.07,1.891
		c-0.167,0.197-0.33,0.391-0.49,0.582c-11.405,2.271-18.949,6.197-18.949,10.664v5.27c0,1.967,1.461,3.83,4.066,5.492
		c-2.605,1.662-4.066,3.523-4.066,5.488v5.27c0,1.965,1.461,3.824,4.067,5.486c-2.606,1.662-4.067,3.525-4.067,5.492v5.26
		c0,1.824,1.263,3.558,3.52,5.123c-2.257,1.566-3.52,3.297-3.52,5.117v5.272c0,1.967,1.461,3.827,4.065,5.491
		c-2.604,1.662-4.065,3.523-4.065,5.486v5.271c0,1.965,1.461,3.823,4.067,5.485c-2.605,1.662-4.067,3.525-4.067,5.492v5.26
		c0,2.429,2.222,4.695,6.073,6.625c-3.853,1.929-6.073,4.193-6.073,6.615v5.271c0,1.968,1.461,3.828,4.065,5.492
		c-2.604,1.662-4.065,3.523-4.065,5.486v5.271c0,1.966,1.461,3.824,4.067,5.486c-2.605,1.662-4.067,3.525-4.067,5.492v5.26
		c0,2.428,2.222,4.695,6.073,6.625c-3.853,1.928-6.073,4.193-6.073,6.615v5.271c0,1.968,1.461,3.828,4.065,5.492
		c-2.604,1.662-4.065,3.523-4.065,5.486v5.271c0,1.966,1.461,3.824,4.067,5.486c-2.605,1.662-4.067,3.525-4.067,5.492v5.26
		c0,2.428,2.222,4.695,6.073,6.625c-3.853,1.928-6.073,4.193-6.073,6.615v5.271c0,1.968,1.461,3.828,4.065,5.492
		c-2.604,1.662-4.065,3.523-4.065,5.486v5.271c0,1.966,1.461,3.824,4.067,5.486c-2.605,1.662-4.067,3.525-4.067,5.492v5.26
		c0,2.09,1.656,4.062,4.573,5.799c-2.917,1.738-4.573,3.705-4.573,5.793v5.271c0,1.965,1.462,3.826,4.069,5.49
		c-2.606,1.662-4.069,3.524-4.069,5.489v5.271c0,1.965,1.461,3.824,4.067,5.486c-2.606,1.664-4.067,3.524-4.067,5.494v5.26
		c0,2.426,2.222,4.692,6.073,6.623c-3.853,1.928-6.073,4.192-6.073,6.617v5.27c0,1.965,1.462,3.826,4.069,5.49
		c-2.33,1.485-3.744,3.133-4.018,4.869l0.879,14.198c-0.604,0.863-0.93,1.758-0.93,2.678v5.261
		c-0.001,0.401,0.068,0.798,0.188,1.192c0,0-4.832,1.918-5.877,4.392l13.577,11.517l-0.525,0.357l-0.237,2.053l-17.417,1.924
		l-3.167-0.217l-11.84,4.26l11.854-2.791l-0.523,0.209l-11.33,2.582l2.44,8.65l1.939,1.211l0.257-0.072l2.373,13.281l-22.87,27
		l18.79,1.02l22.431,6.892l26.168-6.013v15.854h8.841v-21.49c0.109,0.073,0.213,0.148,0.34,0.218v-74.496h-5.688V266.655H285.797z
		 M256.391,610.266c0.841,0.377,1.751,0.737,2.716,1.084l1.291,2.313L256.391,610.266z M278.114,619.854h-0.631l-3.413,0.166
		c-0.434-1.687-1.95-2.938-3.771-2.938c-0.313,0-0.61,0.045-0.901,0.113l-1.988-3.565c3.267,0.68,6.864,1.219,10.704,1.596V619.854z
		"/>
	<path d="M352.296,638.602l0.308,0.086l1.938-1.211l2.439-8.65l-9.316-2.123l-0.401-0.164l9.719,2.287l-11.619-4.35l-2.609,0.217
		l-17.143-2.014l-0.27-2.242l-0.093-0.064l6.729-15.09c0.404-0.711,0.627-1.442,0.627-2.188v-5.261c0-1.596-0.969-3.12-2.721-4.526
		l2.08-5.781c0.374-7.292-0.76-9.215-0.76-9.215c-0.67-0.771-1.565-1.514-2.674-2.219c2.609-1.664,4.072-3.525,4.072-5.49v-5.271
		c0-2.424-2.224-4.688-6.076-6.616c3.854-1.931,6.076-4.197,6.076-6.623v-5.261c0-1.969-1.463-3.829-4.07-5.493
		c2.607-1.662,4.07-3.521,4.07-5.486v-5.271c0-1.965-1.463-3.827-4.072-5.489c2.609-1.664,4.072-3.525,4.072-5.49v-5.271
		c0-2.088-1.658-4.055-4.576-5.793c2.918-1.737,4.576-3.709,4.576-5.799v-5.26c0-1.967-1.463-3.83-4.07-5.492
		c2.607-1.662,4.07-3.521,4.07-5.486v-5.271c0-1.963-1.463-3.824-4.068-5.486c2.605-1.664,4.068-3.524,4.068-5.492v-5.271
		c0-2.422-2.224-4.688-6.076-6.615c3.854-1.93,6.076-4.197,6.076-6.625v-5.26c0-1.967-1.463-3.83-4.07-5.492
		c2.607-1.662,4.07-3.521,4.07-5.486v-5.271c0-1.963-1.463-3.824-4.068-5.486c2.605-1.664,4.068-3.524,4.068-5.492v-5.271
		c0-2.422-2.224-4.688-6.076-6.615c3.854-1.93,6.076-4.197,6.076-6.625v-5.26c0-1.967-1.463-3.83-4.07-5.492
		c2.607-1.662,4.07-3.521,4.07-5.486v-5.271c0-1.963-1.463-3.824-4.068-5.486c2.605-1.664,4.068-3.524,4.068-5.492v-5.271
		c0-2.422-2.224-4.688-6.076-6.615c3.854-1.93,6.076-4.197,6.076-6.625v-5.26c0-1.967-1.463-3.83-4.07-5.492
		c2.607-1.662,4.07-3.521,4.07-5.486v-5.271c0-1.963-1.463-3.824-4.068-5.486c2.605-1.664,4.068-3.524,4.068-5.492v-5.271
		c0-1.82-1.265-3.551-3.521-5.117c2.258-1.565,3.521-3.299,3.521-5.123v-5.26c0-1.967-1.463-3.83-4.07-5.492
		c2.607-1.662,4.07-3.521,4.07-5.486v-5.27c0-1.965-1.463-3.826-4.068-5.488c2.605-1.662,4.068-3.525,4.068-5.492v-5.27
		c0-4.582-7.941-8.596-19.847-10.838c-0.104-0.125-0.211-0.25-0.317-0.377c0.219-0.596,0.053-1.236,0.053-1.848
		c0.039-0.598,0.188-1.156,0.076-1.754c-0.15-1.008-0.896-1.119-1.754-1.307c-0.842-0.18-1.836-0.273-2.623-0.021
		c-3.303-3.883-6.31-7.795-6.021-9.947c0.104-0.105,0.166-0.211,0.205-0.32l0.056-0.008c0-0.037-0.019-0.074-0.025-0.111
		c0.002-0.023,0.016-0.045,0.016-0.068c0-0.887-2.219-1.662-5.551-2.102v31.373h7.502V600.63h-6.18v73.959
		c0.031-0.028,0.054-0.06,0.083-0.09v21.899h8.841v-16.466l24.526,6.625l23.149-8.101l18.07,0.189l-22.871-27L352.296,638.602z
		 M309.353,617.525c-1.471,0.16-2.693,1.123-3.211,2.455l-2.027-0.094v-4.711c2.471-0.254,4.84-0.572,7.08-0.955L309.353,617.525z
		 M316.243,618.474l-0.221,0.344l-0.678,0.576l3.875-6.951c3.11-0.881,5.778-1.904,7.897-3.035l-10.673,9.053L316.243,618.474z"/>
	
		<line fill="none" stroke="#000000" stroke-width="5.6693" stroke-miterlimit="10" x1="554.254" y1="815.336" x2="501.906" y2="594.883"/>
	
		<line fill="none" stroke="#000000" stroke-width="7.0866" stroke-miterlimit="10" x1="505.223" y1="596.344" x2="305.069" y2="614.05"/>
	
		<line fill="none" stroke="#000000" stroke-width="5.6693" stroke-miterlimit="10" x1="-2.35" y1="823.765" x2="52.348" y2="594.883"/>
	
		<line fill="none" stroke="#000000" stroke-width="7.0866" stroke-miterlimit="10" x1="49.031" y1="596.344" x2="249.185" y2="614.05"/>
	<polygon points="467.137,817.558 407.111,569.125 406.754,567.649 405.714,563.346 404.86,561.234 402.734,561.813 
		313.384,623.354 320.003,633.492 402.11,572.568 461.626,818.89 	"/>
	<polygon points="110.717,817.558 170.743,569.125 171.099,567.649 172.139,563.346 172.993,561.234 175.12,561.813 264.47,623.354 
		257.85,633.492 175.743,572.568 116.227,818.89 	"/>
</g>
<g>
	<path d="M457.844,53.52h8.105v7.226h0.195c0.521-0.715,1.172-1.578,1.953-2.587c0.781-1.009,1.773-1.969,2.979-2.881
		c1.204-0.911,2.637-1.675,4.297-2.295c1.66-0.618,3.662-0.928,6.005-0.928c3.384,0,6.396,0.651,9.033,1.953
		c2.637,1.303,4.866,3.109,6.689,5.42c1.822,2.312,3.206,5.014,4.15,8.105c0.943,3.093,1.416,6.43,1.416,10.01
		c0,3.061-0.358,6.267-1.074,9.619c-0.717,3.354-1.938,6.43-3.662,9.228c-1.726,2.8-4.021,5.112-6.884,6.934
		c-2.866,1.822-6.479,2.734-10.84,2.734c-3.451,0-6.298-0.684-8.544-2.051s-3.923-2.961-5.029-4.785h-0.195v25.585h-8.593V53.52z
		 M466.047,81.449c0,3.386,0.472,6.186,1.416,8.398c0.943,2.214,2.115,3.972,3.516,5.273c1.399,1.303,2.913,2.214,4.541,2.734
		c1.626,0.522,3.125,0.781,4.492,0.781c2.344,0,4.378-0.503,6.104-1.514c1.724-1.008,3.157-2.392,4.297-4.15
		c1.138-1.758,1.985-3.841,2.539-6.25c0.552-2.408,0.83-5.012,0.83-7.813c0-1.626-0.098-3.547-0.293-5.761
		c-0.195-2.212-0.766-4.312-1.709-6.299c-0.945-1.985-2.344-3.662-4.199-5.029s-4.443-2.05-7.764-2.05
		c-3.125,0-5.6,0.732-7.421,2.197c-1.823,1.465-3.208,3.305-4.15,5.518c-0.944,2.214-1.547,4.575-1.807,7.08
		C466.177,77.071,466.047,79.366,466.047,81.449z"/>
	<path d="M522.588,104.593h-8.593V53.52h8.105v8.496h0.195c1.692-2.994,3.694-5.403,6.006-7.226c2.31-1.822,5.093-2.734,8.349-2.734
		c0.521,0,0.943,0.017,1.27,0.049c0.325,0.034,0.65,0.114,0.977,0.244v8.886h-3.223c-2.019,0-3.825,0.359-5.419,1.074
		c-1.596,0.717-2.963,1.709-4.102,2.979c-1.14,1.27-2.019,2.734-2.637,4.395c-0.62,1.66-0.928,3.403-0.928,5.225V104.593z"/>
	<path d="M542.411,79.007c0-3.32,0.471-6.591,1.416-9.814c0.943-3.223,2.393-6.104,4.345-8.643c1.953-2.539,4.41-4.589,7.373-6.152
		c2.962-1.563,6.494-2.344,10.595-2.344c4.102,0,7.632,0.781,10.596,2.344c2.961,1.563,5.42,3.613,7.373,6.152
		c1.953,2.539,3.401,5.42,4.346,8.643c0.943,3.223,1.416,6.494,1.416,9.814c0,3.32-0.473,6.592-1.416,9.814
		c-0.944,3.223-2.393,6.104-4.346,8.642c-1.953,2.539-4.411,4.59-7.373,6.152c-2.963,1.563-6.494,2.344-10.596,2.344
		c-4.101,0-7.633-0.781-10.595-2.344c-2.963-1.563-5.42-3.613-7.373-6.152c-1.953-2.539-3.402-5.419-4.345-8.642
		C542.883,85.599,542.411,82.328,542.411,79.007z M551.298,79.007c0,1.694,0.195,3.662,0.586,5.908s1.123,4.379,2.197,6.396
		c1.074,2.019,2.588,3.728,4.541,5.126c1.953,1.401,4.458,2.1,7.519,2.1c3.06,0,5.566-0.699,7.52-2.1
		c1.953-1.399,3.467-3.108,4.541-5.126c1.074-2.017,1.807-4.15,2.197-6.396s0.586-4.214,0.586-5.908
		c0-1.692-0.195-3.662-0.586-5.908s-1.123-4.378-2.197-6.396c-1.074-2.017-2.588-3.726-4.541-5.127
		c-1.953-1.399-4.46-2.099-7.52-2.099c-3.061,0-5.566,0.7-7.519,2.099c-1.953,1.401-3.467,3.11-4.541,5.127
		c-1.074,2.019-1.807,4.15-2.197,6.396S551.298,77.315,551.298,79.007z"/>
	<path d="M610.183,60.648v33.203c0,0.977,0.179,1.742,0.537,2.294c0.357,0.554,0.813,0.961,1.367,1.221
		c0.552,0.261,1.123,0.408,1.708,0.439c0.586,0.034,1.106,0.049,1.563,0.049h3.027v6.738c-1.563,0.13-2.914,0.276-4.053,0.439
		c-1.14,0.162-1.938,0.244-2.392,0.244c-2.148,0-3.891-0.278-5.225-0.83c-1.335-0.552-2.377-1.318-3.125-2.295
		c-0.749-0.977-1.27-2.131-1.562-3.467c-0.293-1.333-0.439-2.783-0.439-4.345V60.648h-6.934V53.52h6.934V39.263h8.593V53.52h8.203
		v7.128H610.183z"/>
	<path d="M670.142,88.578c-0.066,0.586-0.278,1.45-0.635,2.588c-0.359,1.14-0.896,2.377-1.611,3.711
		c-0.718,1.335-1.628,2.685-2.734,4.052c-1.108,1.367-2.476,2.573-4.102,3.613c-0.586,0.391-1.254,0.798-2.002,1.221
		c-0.749,0.424-1.66,0.798-2.734,1.123s-2.36,0.601-3.857,0.83c-1.498,0.228-3.256,0.342-5.273,0.342
		c-3.581,0-6.787-0.635-9.618-1.904c-2.832-1.27-5.225-3.042-7.178-5.322c-1.953-2.278-3.452-4.98-4.492-8.105
		c-1.042-3.125-1.563-6.543-1.563-10.254c0-3.97,0.488-7.681,1.465-11.132c0.977-3.45,2.456-6.46,4.443-9.033
		c1.984-2.571,4.523-4.59,7.617-6.055c3.091-1.465,6.753-2.197,10.985-2.197c3.711,0,6.934,0.7,9.668,2.1
		c2.734,1.401,5.013,3.402,6.836,6.006c1.821,2.604,3.188,5.746,4.102,9.423c0.91,3.679,1.367,7.764,1.367,12.255h-37.304
		c0,5.339,1.235,9.473,3.711,12.402c2.473,2.929,6.184,4.394,11.132,4.394c2.018,0,3.824-0.342,5.42-1.025
		c1.595-0.684,2.962-1.545,4.102-2.587c1.139-1.041,2.018-2.132,2.637-3.271c0.618-1.138,0.96-2.197,1.025-3.174H670.142z
		 M661.939,75.004c-0.132-1.953-0.456-3.857-0.977-5.713c-0.522-1.855-1.335-3.482-2.441-4.883
		c-1.107-1.399-2.539-2.522-4.297-3.369c-1.758-0.845-3.939-1.269-6.543-1.269c-1.953,0-3.793,0.424-5.518,1.269
		c-1.726,0.847-3.223,1.97-4.491,3.369c-1.27,1.401-2.28,3.027-3.027,4.883c-0.75,1.855-1.123,3.76-1.123,5.713H661.939z"/>
	<path d="M681.274,44.243v-9.765h8.594v9.765H681.274z M689.868,104.593h-8.594V53.52h8.594V104.593z"/>
	<path d="M744.357,104.593h-8.594V73.148c0-4.427-0.781-7.764-2.344-10.01s-4.428-3.369-8.594-3.369
		c-1.237,0-2.637,0.229-4.199,0.683c-1.563,0.457-3.027,1.318-4.395,2.588s-2.523,3.012-3.466,5.225
		c-0.945,2.214-1.416,5.046-1.416,8.496v27.831h-8.594V53.52h8.105v7.226h0.195c0.454-0.65,1.105-1.48,1.953-2.49
		c0.845-1.009,1.903-1.969,3.173-2.881c1.27-0.911,2.75-1.692,4.443-2.344c1.692-0.65,3.646-0.977,5.859-0.977
		c1.953,0,3.987,0.244,6.104,0.732c2.115,0.488,4.053,1.384,5.811,2.686c1.758,1.303,3.188,3.109,4.297,5.419
		c1.105,2.312,1.66,5.291,1.66,8.936V104.593z"/>
	<path d="M816.131,70.707c-0.521-3.45-1.758-6.135-3.711-8.057c-1.953-1.919-4.752-2.88-8.398-2.88c-2.67,0-4.898,0.57-6.689,1.708
		c-1.791,1.14-3.238,2.637-4.344,4.492c-1.109,1.855-1.891,3.923-2.344,6.201c-0.457,2.279-0.684,4.558-0.684,6.835
		c0,2.214,0.178,4.477,0.537,6.787c0.355,2.312,1.039,4.428,2.051,6.348c1.008,1.921,2.424,3.483,4.246,4.687
		c1.822,1.206,4.199,1.807,7.129,1.807s5.518-1.041,7.764-3.125c2.246-2.083,3.727-5.078,4.443-8.984h8.301
		c-0.195,2.019-0.699,4.167-1.514,6.445c-0.814,2.279-2.018,4.394-3.613,6.347s-3.678,3.564-6.25,4.834s-5.713,1.904-9.424,1.904
		c-3.58,0-6.787-0.635-9.617-1.904c-2.832-1.27-5.225-3.042-7.178-5.322c-1.953-2.278-3.453-4.98-4.492-8.105
		c-1.043-3.125-1.563-6.543-1.563-10.254c0-3.97,0.488-7.681,1.465-11.132c0.977-3.45,2.455-6.46,4.443-9.033
		c1.984-2.571,4.523-4.59,7.617-6.055c3.09-1.465,6.752-2.197,10.984-2.197c3.32,0,6.152,0.554,8.496,1.66
		c2.344,1.108,4.281,2.556,5.811,4.346c1.529,1.791,2.67,3.793,3.418,6.005c0.748,2.214,1.221,4.428,1.416,6.641H816.131z"/>
	<path d="M832.733,69.047c0.064-3.059,0.619-5.664,1.66-7.813c1.041-2.148,2.475-3.906,4.297-5.273s4.02-2.359,6.592-2.979
		c2.57-0.618,5.42-0.928,8.545-0.928c0.65,0,1.578,0.049,2.783,0.146c1.203,0.098,2.521,0.31,3.955,0.635
		c1.432,0.327,2.863,0.798,4.297,1.416c1.432,0.62,2.734,1.465,3.906,2.539s2.131,2.393,2.881,3.955
		c0.746,1.563,1.123,3.418,1.123,5.566v29.394c0,2.019,0.941,3.027,2.832,3.027c0.391,0,0.83-0.032,1.318-0.098
		c0.488-0.064,0.99-0.162,1.514-0.293v6.25c-0.719,0.195-1.434,0.406-2.148,0.635c-0.719,0.228-1.563,0.342-2.539,0.342
		c-1.891,0-3.418-0.229-4.59-0.684s-2.068-1.041-2.686-1.758c-0.619-0.716-1.059-1.545-1.318-2.49
		c-0.262-0.943-0.424-1.904-0.488-2.881c-0.848,0.913-1.807,1.855-2.881,2.832s-2.361,1.872-3.857,2.686
		c-1.498,0.815-3.207,1.48-5.127,2.002c-1.922,0.521-4.119,0.781-6.592,0.781c-2.344,0-4.492-0.358-6.445-1.074
		s-3.646-1.724-5.078-3.027c-1.432-1.301-2.539-2.847-3.32-4.639c-0.781-1.79-1.172-3.792-1.172-6.005
		c0-1.041,0.146-2.393,0.439-4.053s0.961-3.303,2.002-4.932c1.041-1.626,2.588-3.091,4.639-4.394
		c2.051-1.302,4.865-2.181,8.447-2.637l14.16-1.758c0.52-0.064,1.041-0.179,1.563-0.342c0.52-0.162,1.008-0.455,1.465-0.879
		c0.455-0.423,0.813-1.009,1.074-1.758c0.26-0.748,0.391-1.773,0.391-3.076c0-5.533-4.004-8.3-12.012-8.3
		c-2.475,0-4.443,0.326-5.908,0.977c-1.465,0.651-2.605,1.481-3.418,2.49c-0.814,1.01-1.385,2.084-1.709,3.223
		c-0.326,1.14-0.555,2.197-0.684,3.174H832.733z M864.178,78.519c-0.326,0.261-0.75,0.522-1.27,0.781
		c-0.521,0.261-1.303,0.505-2.344,0.732c-1.043,0.229-2.393,0.488-4.053,0.781s-3.826,0.603-6.494,0.928
		c-1.043,0.131-2.197,0.342-3.467,0.635s-2.459,0.732-3.564,1.318c-1.107,0.586-2.035,1.384-2.783,2.393
		c-0.75,1.01-1.123,2.329-1.123,3.955c0,2.8,0.732,4.98,2.197,6.542c1.465,1.563,3.824,2.344,7.08,2.344
		c2.018,0,3.971-0.308,5.859-0.928c1.887-0.618,3.564-1.465,5.029-2.539c1.465-1.074,2.652-2.344,3.564-3.809
		c0.91-1.465,1.367-3.042,1.367-4.736V78.519z"/>
	<path d="M886.637,53.52h8.105v7.226h0.195c0.52-0.715,1.172-1.578,1.953-2.587c0.781-1.009,1.773-1.969,2.979-2.881
		c1.203-0.911,2.637-1.675,4.297-2.295c1.66-0.618,3.662-0.928,6.006-0.928c3.385,0,6.396,0.651,9.033,1.953
		c2.637,1.303,4.865,3.109,6.689,5.42c1.82,2.312,3.205,5.014,4.15,8.105c0.941,3.093,1.416,6.43,1.416,10.01
		c0,3.061-0.359,6.267-1.074,9.619c-0.719,3.354-1.939,6.43-3.662,9.228c-1.727,2.8-4.021,5.112-6.885,6.934
		c-2.865,1.822-6.479,2.734-10.84,2.734c-3.451,0-6.299-0.684-8.545-2.051s-3.924-2.961-5.029-4.785h-0.195v25.585h-8.594V53.52z
		 M894.84,81.449c0,3.386,0.471,6.186,1.416,8.398c0.943,2.214,2.115,3.972,3.516,5.273c1.398,1.303,2.912,2.214,4.541,2.734
		c1.627,0.522,3.125,0.781,4.492,0.781c2.344,0,4.377-0.503,6.104-1.514c1.725-1.008,3.156-2.392,4.297-4.15
		c1.139-1.758,1.984-3.841,2.539-6.25c0.551-2.408,0.83-5.012,0.83-7.813c0-1.626-0.098-3.547-0.293-5.761
		c-0.195-2.212-0.768-4.312-1.709-6.299c-0.945-1.985-2.344-3.662-4.199-5.029s-4.443-2.05-7.764-2.05
		c-3.125,0-5.6,0.732-7.422,2.197c-1.824,1.465-3.207,3.305-4.15,5.518c-0.945,2.214-1.547,4.575-1.807,7.08
		C894.969,77.071,894.84,79.366,894.84,81.449z"/>
	<path d="M970.619,68.07c0-0.781-0.131-1.675-0.391-2.686c-0.262-1.008-0.814-1.953-1.66-2.832
		c-0.848-0.879-2.051-1.611-3.613-2.197c-1.563-0.585-3.711-0.878-6.445-0.878c-0.652,0-1.547,0.082-2.686,0.244
		c-1.141,0.163-2.264,0.488-3.369,0.976c-1.107,0.488-2.068,1.221-2.881,2.197c-0.814,0.977-1.221,2.246-1.221,3.809
		c0,1.042,0.178,1.904,0.537,2.588c0.357,0.684,0.895,1.27,1.611,1.758c0.715,0.488,1.66,0.928,2.832,1.318s2.604,0.781,4.297,1.172
		l8.594,2.148c5.338,1.303,9.064,3.012,11.182,5.126c2.113,2.117,3.174,4.899,3.174,8.35c0,2.67-0.523,5.046-1.563,7.128
		c-1.043,2.084-2.459,3.842-4.248,5.273c-1.791,1.433-3.924,2.539-6.396,3.32c-2.475,0.781-5.145,1.172-8.008,1.172
		c-3.387,0-6.268-0.293-8.643-0.879c-2.377-0.586-4.363-1.382-5.957-2.393c-1.596-1.008-2.881-2.131-3.857-3.369
		c-0.977-1.236-1.709-2.522-2.197-3.857c-0.488-1.334-0.814-2.637-0.977-3.906s-0.277-2.425-0.342-3.467h8.301
		c0.064,0.977,0.244,2.084,0.537,3.32c0.293,1.237,0.895,2.377,1.807,3.418c0.91,1.042,2.246,1.921,4.004,2.636
		c1.758,0.717,4.166,1.074,7.227,1.074c1.563,0,3.043-0.162,4.443-0.488c1.398-0.325,2.637-0.813,3.711-1.465
		c1.074-0.65,1.936-1.48,2.588-2.49c0.65-1.009,0.977-2.229,0.977-3.662c0-2.017-0.781-3.516-2.344-4.492s-4.168-1.919-7.813-2.832
		l-9.961-2.441c-3.582-0.911-6.445-2.327-8.594-4.248c-2.148-1.92-3.223-4.639-3.223-8.154c0-2.798,0.537-5.225,1.611-7.275
		c1.074-2.05,2.506-3.743,4.297-5.078c1.789-1.333,3.84-2.327,6.152-2.979c2.311-0.65,4.736-0.977,7.275-0.977
		c4.557,0,8.137,0.717,10.742,2.148c2.604,1.433,4.557,3.076,5.859,4.932c1.301,1.855,2.113,3.646,2.441,5.371
		c0.324,1.726,0.488,2.915,0.488,3.564H970.619z"/>
	<path d="M990.639,44.243v-9.765h8.594v9.765H990.639z M999.233,104.593h-8.594V53.52h8.594V104.593z"/>
	<path d="M1054.502,104.593h-8.105v-7.031h-0.195c-0.912,1.758-1.953,3.174-3.125,4.248s-2.393,1.938-3.662,2.588
		s-2.572,1.089-3.906,1.318c-1.334,0.228-2.621,0.342-3.857,0.342c-4.361,0-7.975-0.913-10.838-2.734
		c-2.867-1.822-5.162-4.133-6.885-6.934c-1.727-2.798-2.947-5.874-3.662-9.228c-0.717-3.352-1.074-6.558-1.074-9.619
		c0-3.58,0.471-6.917,1.416-10.01c0.941-3.091,2.326-5.793,4.15-8.105c1.82-2.311,4.053-4.117,6.689-5.42
		c2.635-1.302,5.646-1.953,9.031-1.953c2.344,0,4.346,0.31,6.006,0.928c1.66,0.62,3.092,1.384,4.297,2.295
		c1.205,0.912,2.197,1.872,2.979,2.881c0.781,1.01,1.432,1.872,1.953,2.587h0.195V34.478h8.594V104.593z M1018.078,78.91
		c0,2.8,0.275,5.405,0.83,7.813c0.551,2.409,1.398,4.492,2.539,6.25c1.137,1.758,2.57,3.142,4.295,4.15
		c1.725,1.01,3.76,1.514,6.104,1.514c1.367,0,2.865-0.259,4.492-0.781c1.627-0.52,3.141-1.431,4.541-2.734
		c1.4-1.302,2.572-3.06,3.516-5.273c0.943-2.212,1.416-5.013,1.416-8.398c0-2.083-0.131-4.377-0.391-6.884
		c-0.26-2.505-0.863-4.866-1.807-7.08c-0.943-2.212-2.328-4.053-4.15-5.518s-4.297-2.197-7.422-2.197
		c-3.32,0-5.908,0.683-7.764,2.05c-1.854,1.367-3.256,3.044-4.197,5.029c-0.945,1.987-1.514,4.086-1.709,6.299
		C1018.176,75.362,1018.078,77.283,1018.078,78.91z"/>
</g>
<g>
	<path fill="#5CA535" d="M-274.832-5.814h9.375l-19.433,51.073h-9.179l-18.652-51.073h9.96l13.281,41.601h0.195L-274.832-5.814z"/>
	<path fill="#5CA535" d="M-258.133-15.091v-9.765h8.593v9.765H-258.133z M-249.54,45.259h-8.593V-5.814h8.593V45.259z"/>
	<path fill="#5CA535" d="M-226.885,45.259h-8.593V-5.814h8.105v8.496h0.195c1.692-2.994,3.694-5.403,6.006-7.226
		c2.31-1.822,5.093-2.734,8.349-2.734c0.521,0,0.943,0.017,1.27,0.049c0.325,0.034,0.65,0.114,0.977,0.244V1.9h-3.223
		c-2.019,0-3.825,0.359-5.419,1.074c-1.596,0.717-2.963,1.709-4.102,2.979c-1.14,1.27-2.019,2.734-2.637,4.395
		c-0.62,1.66-0.928,3.403-0.928,5.225V45.259z"/>
	<path fill="#5CA535" d="M-205.402,9.713c0.064-3.059,0.618-5.664,1.66-7.813c1.041-2.148,2.473-3.906,4.296-5.273
		c1.822-1.367,4.019-2.359,6.592-2.979c2.571-0.618,5.42-0.928,8.544-0.928c0.65,0,1.578,0.049,2.783,0.146
		c1.204,0.098,2.522,0.31,3.955,0.635c1.431,0.327,2.864,0.798,4.297,1.416c1.431,0.62,2.734,1.465,3.906,2.539
		s2.131,2.393,2.88,3.955c0.748,1.563,1.123,3.418,1.123,5.566v29.394c0,2.019,0.943,3.027,2.832,3.027
		c0.391,0,0.83-0.032,1.318-0.098c0.488-0.064,0.992-0.162,1.514-0.293v6.25c-0.717,0.195-1.433,0.406-2.148,0.635
		c-0.717,0.228-1.563,0.342-2.539,0.342c-1.889,0-3.417-0.229-4.589-0.684s-2.068-1.041-2.686-1.758
		c-0.62-0.716-1.059-1.545-1.318-2.49c-0.261-0.943-0.424-1.904-0.488-2.881c-0.847,0.913-1.807,1.855-2.881,2.832
		s-2.36,1.872-3.857,2.686c-1.498,0.815-3.207,1.48-5.126,2.002c-1.921,0.521-4.119,0.781-6.592,0.781
		c-2.344,0-4.492-0.358-6.445-1.074s-3.646-1.724-5.078-3.027c-1.433-1.301-2.539-2.847-3.32-4.639
		c-0.781-1.79-1.172-3.792-1.172-6.005c0-1.041,0.146-2.393,0.439-4.053s0.959-3.303,2.002-4.932
		c1.041-1.626,2.588-3.091,4.638-4.394c2.051-1.302,4.866-2.181,8.447-2.637l14.16-1.758c0.521-0.064,1.041-0.179,1.563-0.342
		c0.521-0.162,1.009-0.455,1.465-0.879c0.455-0.423,0.813-1.009,1.074-1.758c0.259-0.748,0.391-1.773,0.391-3.076
		c0-5.533-4.004-8.3-12.011-8.3c-2.475,0-4.443,0.326-5.908,0.977c-1.465,0.651-2.604,1.481-3.418,2.49
		c-0.815,1.01-1.384,2.084-1.709,3.223c-0.327,1.14-0.554,2.197-0.684,3.174H-205.402z M-173.957,19.185
		c-0.327,0.261-0.749,0.522-1.27,0.781c-0.522,0.261-1.303,0.505-2.344,0.732c-1.042,0.229-2.393,0.488-4.053,0.781
		s-3.825,0.603-6.494,0.928c-1.042,0.131-2.197,0.342-3.467,0.635s-2.458,0.732-3.564,1.318c-1.108,0.586-2.036,1.384-2.783,2.393
		c-0.749,1.01-1.123,2.329-1.123,3.955c0,2.8,0.732,4.98,2.197,6.542c1.465,1.563,3.824,2.344,7.08,2.344
		c2.017,0,3.97-0.308,5.859-0.928c1.888-0.618,3.564-1.465,5.029-2.539c1.465-1.074,2.652-2.344,3.564-3.809
		c0.911-1.465,1.367-3.042,1.367-4.736V19.185z"/>
	<path fill="#5CA535" d="M-142.025,45.259h-8.593v-70.115h8.593V45.259z"/>
	<path fill="#5CA535" d="M-90.27,45.259h-9.472v-70.115h32.421c2.864,0,5.679,0.293,8.447,0.879
		c2.767,0.586,5.225,1.579,7.373,2.979c2.148,1.4,3.889,3.32,5.224,5.761c1.334,2.441,2.002,5.518,2.002,9.229
		c0,2.604-0.293,4.818-0.879,6.641C-45.74,2.455-46.506,4-47.448,5.27c-0.945,1.27-2.002,2.344-3.174,3.223
		s-2.312,1.645-3.418,2.295c0.977,0.391,1.953,0.847,2.93,1.367c0.977,0.522,1.855,1.254,2.637,2.197
		c0.781,0.944,1.416,2.182,1.904,3.711c0.488,1.53,0.796,3.5,0.927,5.908l0.586,12.695c0,0.977,0.049,1.807,0.146,2.49
		s0.276,1.303,0.537,1.855c0.26,0.554,0.618,1.042,1.074,1.465c0.455,0.424,1.041,0.83,1.758,1.221v1.563h-11.621
		c-0.327-1.041-0.603-2.424-0.83-4.15c-0.229-1.724-0.407-3.467-0.537-5.224c-0.131-1.758-0.212-3.401-0.244-4.932
		c-0.034-1.529-0.049-2.62-0.049-3.271c0-1.431-0.114-2.896-0.342-4.395c-0.229-1.497-0.781-2.847-1.66-4.053
		c-0.879-1.204-2.148-2.18-3.809-2.929c-1.66-0.748-3.891-1.123-6.689-1.123H-90.27V45.259z M-90.27,7.076h21.972
		c1.758,0,3.482-0.146,5.175-0.439c1.692-0.293,3.206-0.879,4.541-1.758c1.333-0.879,2.425-2.1,3.271-3.662
		c0.845-1.562,1.27-3.645,1.27-6.25c0-2.734-0.439-4.883-1.318-6.445s-1.953-2.734-3.223-3.516s-2.637-1.27-4.102-1.465
		c-1.464-0.195-2.783-0.292-3.955-0.292H-90.27V7.076z"/>
	<path fill="#5CA535" d="M16.073-24.856h9.179v70.115H14.609L-21.035-11.38h-0.195v56.639h-9.179v-70.115h11.23l35.058,56.639h0.195
		V-24.856z"/>
	<path fill="#5CA535" d="M51.13,24.849l-7.324,20.41H34.04l26.366-70.115h10.742l25.39,70.115H86.187l-6.934-20.41H51.13z
		 M75.836,16.451L65.485-14.408h-0.195l-11.23,30.859H75.836z"/>
	<path fill="#5CA535" d="M-218.879,136.857c0-3.32,0.471-6.591,1.416-9.814c0.943-3.223,2.393-6.104,4.345-8.643
		c1.953-2.539,4.41-4.589,7.373-6.152c2.962-1.563,6.494-2.344,10.595-2.344c4.102,0,7.632,0.781,10.596,2.344
		c2.961,1.563,5.42,3.613,7.373,6.152c1.953,2.539,3.401,5.42,4.346,8.643c0.943,3.223,1.416,6.494,1.416,9.814
		c0,3.32-0.473,6.592-1.416,9.814c-0.944,3.223-2.393,6.104-4.346,8.642c-1.953,2.539-4.411,4.59-7.373,6.152
		c-2.963,1.563-6.494,2.344-10.596,2.344c-4.101,0-7.633-0.781-10.595-2.344c-2.963-1.563-5.42-3.613-7.373-6.152
		c-1.953-2.539-3.402-5.419-4.345-8.642C-218.407,143.449-218.879,140.178-218.879,136.857z M-209.992,136.857
		c0,1.694,0.195,3.662,0.586,5.908s1.123,4.379,2.197,6.396c1.074,2.019,2.588,3.728,4.541,5.126c1.953,1.401,4.458,2.1,7.519,2.1
		c3.06,0,5.566-0.699,7.52-2.1c1.953-1.399,3.467-3.108,4.541-5.126c1.074-2.017,1.807-4.15,2.197-6.396s0.586-4.214,0.586-5.908
		c0-1.692-0.195-3.662-0.586-5.908s-1.123-4.378-2.197-6.396c-1.074-2.017-2.588-3.726-4.541-5.127
		c-1.953-1.399-4.46-2.099-7.52-2.099c-3.061,0-5.566,0.7-7.519,2.099c-1.953,1.401-3.467,3.11-4.541,5.127
		c-1.074,2.019-1.807,4.15-2.197,6.396S-209.992,135.166-209.992,136.857z"/>
	<path fill="#5CA535" d="M-151.888,162.443h-8.593V111.37h8.105v8.496h0.195c1.692-2.994,3.694-5.403,6.006-7.226
		c2.31-1.822,5.093-2.734,8.349-2.734c0.521,0,0.943,0.017,1.27,0.049c0.325,0.034,0.65,0.114,0.977,0.244v8.886h-3.223
		c-2.019,0-3.825,0.359-5.419,1.074c-1.596,0.717-2.963,1.709-4.102,2.979c-1.14,1.27-2.019,2.734-2.637,4.395
		c-0.62,1.66-0.928,3.403-0.928,5.225V162.443z"/>
	<path fill="#5CA535" d="M-100.426,92.328h28.417c4.556,0,8.658,0.83,12.304,2.49c3.646,1.66,6.738,3.988,9.277,6.982
		c2.539,2.996,4.492,6.577,5.859,10.742c1.367,4.167,2.051,8.789,2.051,13.867c0,3.906-0.473,7.992-1.416,12.255
		c-0.944,4.265-2.572,8.154-4.882,11.67c-2.312,3.515-5.388,6.413-9.229,8.691c-3.842,2.28-8.627,3.418-14.355,3.418h-28.026V92.328
		z M-90.953,154.337h18.359c6.184,0,11.116-2.327,14.794-6.982c3.677-4.654,5.518-11.441,5.518-20.361
		c0-8.853-1.889-15.493-5.664-19.921c-3.776-4.426-8.886-6.64-15.332-6.64h-17.675V154.337z"/>
	<path fill="#5CA535" d="M16.073,92.328h9.179v70.115H14.609l-35.644-56.639h-0.195v56.639h-9.179V92.328h11.23l35.058,56.639h0.195
		V92.328z"/>
	<path fill="#5CA535" d="M51.13,142.033l-7.324,20.41H34.04l26.366-70.115h10.742l25.39,70.115H86.187l-6.934-20.41H51.13z
		 M75.836,133.635l-10.352-30.859h-0.195l-11.23,30.859H75.836z"/>
</g>
<g>
	<path fill="#6ECE41" d="M1182.332,1075.526h9.376l-19.435,51.076h-9.18l-18.653-51.076h9.961l13.282,41.604h0.195
		L1182.332,1075.526z"/>
	<path fill="#6ECE41" d="M1199.032,1066.249v-9.767h8.595v9.767H1199.032z M1207.627,1126.603h-8.595v-51.076h8.595V1126.603z"/>
	<path fill="#6ECE41" d="M1230.282,1126.603h-8.595v-51.076h8.106v8.496h0.195c1.691-2.993,3.694-5.403,6.006-7.227
		c2.31-1.821,5.094-2.734,8.35-2.734c0.521,0,0.943,0.017,1.27,0.049c0.325,0.034,0.65,0.114,0.977,0.244v8.887h-3.223
		c-2.019,0-3.825,0.359-5.42,1.074c-1.597,0.718-2.964,1.71-4.102,2.979c-1.141,1.27-2.02,2.734-2.637,4.395
		c-0.62,1.66-0.928,3.402-0.928,5.225V1126.603z"/>
	<path fill="#6ECE41" d="M1251.766,1091.055c0.064-3.06,0.618-5.664,1.66-7.813c1.041-2.148,2.474-3.906,4.297-5.273
		c1.822-1.367,4.02-2.358,6.593-2.979c2.571-0.618,5.42-0.928,8.545-0.928c0.65,0,1.578,0.049,2.783,0.146
		c1.204,0.098,2.522,0.31,3.955,0.635c1.432,0.327,2.864,0.798,4.297,1.416c1.432,0.62,2.734,1.465,3.907,2.539
		c1.172,1.074,2.131,2.393,2.881,3.955c0.747,1.563,1.123,3.419,1.123,5.567v29.396c0,2.019,0.942,3.027,2.832,3.027
		c0.391,0,0.83-0.032,1.318-0.098c0.488-0.064,0.991-0.162,1.514-0.293v6.25c-0.718,0.195-1.433,0.406-2.148,0.635
		c-0.718,0.228-1.563,0.342-2.539,0.342c-1.89,0-3.418-0.229-4.59-0.684c-1.173-0.455-2.068-1.041-2.687-1.758
		c-0.619-0.716-1.059-1.546-1.318-2.49c-0.261-0.943-0.424-1.904-0.488-2.881c-0.847,0.912-1.807,1.855-2.881,2.832
		s-2.36,1.872-3.857,2.686c-1.498,0.814-3.207,1.48-5.127,2.002c-1.921,0.521-4.118,0.781-6.592,0.781
		c-2.344,0-4.492-0.358-6.446-1.074c-1.953-0.716-3.646-1.725-5.078-3.027c-1.433-1.302-2.539-2.848-3.32-4.639
		c-0.781-1.79-1.172-3.792-1.172-6.006c0-1.041,0.146-2.394,0.439-4.054s0.96-3.304,2.002-4.932
		c1.041-1.626,2.588-3.092,4.639-4.395c2.051-1.302,4.866-2.181,8.448-2.637l14.16-1.758c0.521-0.064,1.041-0.179,1.563-0.342
		c0.521-0.162,1.009-0.455,1.465-0.879c0.455-0.423,0.813-1.009,1.074-1.758c0.26-0.748,0.391-1.773,0.391-3.076
		c0-5.533-4.004-8.302-12.012-8.302c-2.476,0-4.443,0.327-5.908,0.977c-1.465,0.652-2.605,1.482-3.418,2.491
		c-0.815,1.01-1.385,2.084-1.709,3.223c-0.327,1.14-0.555,2.197-0.685,3.174H1251.766z M1283.212,1100.527
		c-0.326,0.261-0.749,0.521-1.27,0.781c-0.521,0.261-1.303,0.505-2.344,0.732c-1.042,0.229-2.393,0.488-4.053,0.781
		s-3.825,0.603-6.494,0.928c-1.042,0.132-2.197,0.342-3.467,0.635s-2.459,0.732-3.564,1.318c-1.108,0.586-2.036,1.384-2.784,2.393
		c-0.749,1.011-1.123,2.329-1.123,3.955c0,2.801,0.732,4.981,2.198,6.544c1.465,1.563,3.823,2.344,7.08,2.344
		c2.017,0,3.971-0.309,5.859-0.928c1.888-0.618,3.564-1.465,5.029-2.539s2.652-2.344,3.564-3.809
		c0.911-1.466,1.367-3.043,1.367-4.737V1100.527z"/>
	<path fill="#6ECE41" d="M1315.148,1126.603h-8.595v-70.12h8.595V1126.603z"/>
	<path fill="#6ECE41" d="M1397.571,1122.403c0,1.237-0.034,2.719-0.098,4.443c-0.065,1.725-0.327,3.548-0.781,5.469
		c-0.456,1.92-1.157,3.824-2.1,5.713c-0.945,1.888-2.295,3.565-4.054,5.03c-1.758,1.465-4.004,2.668-6.738,3.613
		c-2.734,0.942-6.055,1.416-9.961,1.416c-1.499,0-3.288-0.163-5.371-0.488c-2.085-0.327-4.102-1.011-6.056-2.051
		c-1.953-1.043-3.695-2.573-5.225-4.59c-1.53-2.02-2.49-4.722-2.881-8.106h8.595c0.391,2.018,1.105,3.58,2.148,4.688
		c1.04,1.106,2.18,1.904,3.418,2.393c1.235,0.488,2.407,0.782,3.516,0.88c1.106,0.098,1.92,0.146,2.441,0.146
		c3.58,0,6.348-0.604,8.301-1.808c1.953-1.205,3.385-2.702,4.297-4.492c0.911-1.791,1.465-3.679,1.66-5.664
		c0.195-1.986,0.293-3.76,0.293-5.322v-2.832c-1.237,2.084-2.979,3.809-5.225,5.176s-5.095,2.051-8.545,2.051
		c-4.362,0-7.977-0.912-10.84-2.734c-2.866-1.822-5.161-4.134-6.886-6.934c-1.726-2.799-2.946-5.875-3.662-9.229
		c-0.717-3.353-1.074-6.558-1.074-9.619c0-3.58,0.472-6.917,1.416-10.01c0.943-3.092,2.327-5.794,4.15-8.106
		c1.822-2.31,4.053-4.116,6.69-5.42c2.637-1.302,5.647-1.953,9.033-1.953c2.344,0,4.361,0.327,6.055,0.977
		c1.692,0.651,3.141,1.433,4.346,2.344c1.204,0.913,2.213,1.89,3.027,2.93c0.813,1.043,1.48,1.953,2.002,2.734v-7.52h8.106V1122.403
		z M1361.631,1100.918c0,2.8,0.276,5.405,0.83,7.813c0.553,2.41,1.399,4.493,2.54,6.251c1.138,1.758,2.57,3.142,4.297,4.15
		c1.724,1.01,3.76,1.514,6.104,1.514c1.367,0,2.864-0.26,4.492-0.781c1.627-0.521,3.141-1.432,4.541-2.734
		c1.399-1.302,2.571-3.06,3.516-5.274c0.943-2.212,1.416-5.013,1.416-8.398c0-2.083-0.131-4.378-0.391-6.885
		c-0.261-2.506-0.863-4.866-1.807-7.08c-0.944-2.213-2.328-4.053-4.15-5.519c-1.823-1.465-4.297-2.197-7.422-2.197
		c-3.32,0-5.908,0.684-7.764,2.051c-1.855,1.368-3.257,3.045-4.199,5.03c-0.945,1.986-1.515,4.086-1.71,6.299
		C1361.729,1097.37,1361.631,1099.291,1361.631,1100.918z"/>
	<path fill="#6ECE41" d="M1452.846,1110.586c-0.065,0.586-0.278,1.45-0.635,2.589c-0.358,1.14-0.896,2.377-1.611,3.711
		c-0.718,1.335-1.629,2.686-2.734,4.053c-1.108,1.367-2.476,2.572-4.103,3.613c-0.586,0.391-1.254,0.798-2.002,1.221
		c-0.749,0.424-1.66,0.798-2.734,1.123s-2.36,0.602-3.857,0.83c-1.498,0.228-3.256,0.342-5.273,0.342
		c-3.581,0-6.787-0.635-9.619-1.904s-5.226-3.043-7.179-5.322c-1.953-2.278-3.451-4.98-4.492-8.105
		c-1.042-3.126-1.563-6.544-1.563-10.255c0-3.971,0.488-7.682,1.465-11.133c0.977-3.45,2.457-6.461,4.443-9.034
		c1.985-2.57,4.524-4.59,7.618-6.055c3.091-1.465,6.753-2.197,10.986-2.197c3.711,0,6.934,0.7,9.668,2.1
		c2.734,1.401,5.013,3.403,6.837,6.006c1.821,2.605,3.188,5.747,4.102,9.425c0.911,3.679,1.367,7.764,1.367,12.256h-37.307
		c0,5.34,1.236,9.474,3.712,12.403c2.474,2.93,6.185,4.395,11.133,4.395c2.018,0,3.824-0.342,5.42-1.025
		c1.595-0.684,2.962-1.546,4.102-2.588c1.139-1.041,2.018-2.132,2.637-3.271c0.618-1.139,0.96-2.198,1.025-3.175H1452.846z
		 M1444.642,1097.012c-0.131-1.953-0.456-3.857-0.977-5.713c-0.521-1.855-1.335-3.482-2.441-4.883
		c-1.107-1.399-2.539-2.522-4.297-3.37c-1.758-0.845-3.939-1.27-6.543-1.27c-1.953,0-3.794,0.425-5.518,1.27
		c-1.726,0.848-3.223,1.971-4.492,3.37c-1.27,1.4-2.28,3.027-3.027,4.883c-0.75,1.855-1.124,3.76-1.124,5.713H1444.642z"/>
	<path fill="#6ECE41" d="M1505.387,1126.603h-8.595v-31.446c0-4.427-0.781-7.764-2.344-10.01c-1.563-2.247-4.428-3.37-8.594-3.37
		c-1.237,0-2.637,0.229-4.199,0.684c-1.563,0.457-3.027,1.318-4.395,2.589c-1.367,1.27-2.524,3.012-3.467,5.225
		c-0.945,2.214-1.416,5.046-1.416,8.496v27.833h-8.595v-51.076h8.106v7.227h0.195c0.454-0.649,1.105-1.479,1.953-2.49
		c0.845-1.009,1.904-1.968,3.174-2.881c1.27-0.911,2.749-1.692,4.443-2.344c1.692-0.649,3.646-0.977,5.859-0.977
		c1.953,0,3.987,0.244,6.104,0.732c2.115,0.488,4.053,1.384,5.812,2.686c1.758,1.304,3.188,3.11,4.297,5.42
		c1.106,2.313,1.66,5.291,1.66,8.937V1126.603z"/>
	<path fill="#6ECE41" d="M1515.153,1101.016c0-3.32,0.472-6.592,1.416-9.814c0.943-3.223,2.393-6.104,4.346-8.644
		c1.953-2.539,4.41-4.59,7.374-6.152c2.962-1.563,6.494-2.344,10.596-2.344s7.633,0.781,10.596,2.344
		c2.962,1.563,5.421,3.613,7.374,6.152c1.953,2.54,3.401,5.421,4.346,8.644c0.942,3.223,1.416,6.494,1.416,9.814
		s-0.474,6.592-1.416,9.814c-0.944,3.224-2.393,6.104-4.346,8.644s-4.412,4.59-7.374,6.152c-2.963,1.563-6.494,2.344-10.596,2.344
		s-7.634-0.781-10.596-2.344c-2.964-1.563-5.421-3.613-7.374-6.152s-3.402-5.42-4.346-8.644
		C1515.624,1107.607,1515.153,1104.336,1515.153,1101.016z M1524.039,1101.016c0,1.694,0.195,3.662,0.586,5.908
		s1.123,4.38,2.198,6.397c1.074,2.019,2.588,3.728,4.541,5.127c1.953,1.4,4.458,2.1,7.52,2.1c3.06,0,5.566-0.699,7.52-2.1
		c1.953-1.399,3.467-3.108,4.541-5.127c1.074-2.018,1.807-4.151,2.197-6.397s0.587-4.214,0.587-5.908
		c0-1.692-0.196-3.662-0.587-5.908s-1.123-4.378-2.197-6.396c-1.074-2.018-2.588-3.727-4.541-5.128c-1.953-1.398-4.46-2.1-7.52-2.1
		c-3.062,0-5.566,0.701-7.52,2.1c-1.953,1.401-3.467,3.11-4.541,5.128c-1.075,2.019-1.808,4.15-2.198,6.396
		S1524.039,1099.323,1524.039,1101.016z"/>
	<path fill="#6ECE41" d="M1572.381,1075.526h8.106v7.227h0.195c0.454-0.649,1.089-1.479,1.904-2.49
		c0.813-1.009,1.838-1.968,3.076-2.881c1.235-0.911,2.718-1.692,4.443-2.344c1.725-0.649,3.727-0.977,6.006-0.977
		c2.278,0,4.199,0.31,5.762,0.928c1.563,0.62,2.864,1.353,3.906,2.197c1.041,0.847,1.855,1.758,2.442,2.734
		c0.586,0.977,1.074,1.792,1.465,2.441c1.04-1.172,2.082-2.277,3.125-3.32c1.04-1.04,2.148-1.919,3.32-2.637
		c1.172-0.716,2.506-1.284,4.004-1.709c1.497-0.423,3.223-0.635,5.176-0.635c1.367,0,2.962,0.229,4.785,0.684
		c1.822,0.456,3.548,1.304,5.176,2.539c1.627,1.237,3.011,2.979,4.151,5.225c1.138,2.247,1.709,5.161,1.709,8.741v35.353h-8.595
		v-33.009c0-3.516-0.668-6.363-2.002-8.545c-1.335-2.181-3.825-3.272-7.471-3.272c-1.823,0-3.467,0.391-4.932,1.172
		s-2.72,1.808-3.76,3.077c-1.043,1.27-1.855,2.734-2.441,4.395s-0.879,3.337-0.879,5.029v31.153h-8.595v-35.353
		c0-1.041-0.114-2.132-0.342-3.271c-0.229-1.139-0.651-2.164-1.27-3.076c-0.619-0.911-1.449-1.661-2.49-2.247
		c-1.042-0.586-2.344-0.879-3.906-0.879c-1.237,0-2.637,0.229-4.199,0.684c-1.563,0.457-3.027,1.318-4.395,2.589
		c-1.367,1.27-2.524,3.012-3.467,5.225c-0.945,2.214-1.416,5.046-1.416,8.496v27.833h-8.595V1075.526z"/>
	<path fill="#6ECE41" d="M1697.092,1110.586c-0.065,0.586-0.278,1.45-0.635,2.589c-0.358,1.14-0.896,2.377-1.611,3.711
		c-0.718,1.335-1.629,2.686-2.734,4.053c-1.108,1.367-2.476,2.572-4.103,3.613c-0.586,0.391-1.254,0.798-2.002,1.221
		c-0.749,0.424-1.66,0.798-2.734,1.123s-2.36,0.602-3.857,0.83c-1.498,0.228-3.256,0.342-5.273,0.342
		c-3.581,0-6.787-0.635-9.619-1.904s-5.226-3.043-7.179-5.322c-1.953-2.278-3.451-4.98-4.492-8.105
		c-1.042-3.126-1.563-6.544-1.563-10.255c0-3.971,0.488-7.682,1.465-11.133c0.977-3.45,2.457-6.461,4.443-9.034
		c1.985-2.57,4.524-4.59,7.618-6.055c3.091-1.465,6.753-2.197,10.986-2.197c3.711,0,6.934,0.7,9.668,2.1
		c2.734,1.401,5.013,3.403,6.837,6.006c1.821,2.605,3.188,5.747,4.102,9.425c0.911,3.679,1.367,7.764,1.367,12.256h-37.307
		c0,5.34,1.236,9.474,3.712,12.403c2.474,2.93,6.185,4.395,11.133,4.395c2.018,0,3.824-0.342,5.42-1.025
		c1.595-0.684,2.962-1.546,4.102-2.588c1.139-1.041,2.018-2.132,2.637-3.271c0.618-1.139,0.96-2.198,1.025-3.175H1697.092z
		 M1688.888,1097.012c-0.131-1.953-0.456-3.857-0.977-5.713c-0.521-1.855-1.335-3.482-2.441-4.883
		c-1.107-1.399-2.539-2.522-4.297-3.37c-1.758-0.845-3.939-1.27-6.543-1.27c-1.953,0-3.794,0.425-5.518,1.27
		c-1.726,0.848-3.223,1.971-4.492,3.37c-1.27,1.4-2.28,3.027-3.027,4.883c-0.75,1.855-1.124,3.76-1.124,5.713H1688.888z"/>
	<path fill="#6ECE41" d="M1095.417,1183.44v-9.767h8.595v9.767H1095.417z M1104.012,1243.794h-8.595v-51.076h8.595V1243.794z"/>
	<path fill="#6ECE41" d="M1158.504,1243.794h-8.595v-31.446c0-4.427-0.781-7.764-2.344-10.01c-1.563-2.247-4.428-3.37-8.594-3.37
		c-1.237,0-2.637,0.229-4.199,0.684c-1.563,0.457-3.027,1.318-4.395,2.589c-1.367,1.27-2.524,3.012-3.467,5.225
		c-0.945,2.214-1.416,5.046-1.416,8.496v27.833h-8.595v-51.076h8.106v7.227h0.195c0.454-0.649,1.105-1.479,1.953-2.49
		c0.845-1.009,1.904-1.968,3.174-2.881c1.27-0.911,2.749-1.692,4.443-2.344c1.692-0.649,3.646-0.977,5.859-0.977
		c1.953,0,3.987,0.244,6.104,0.732c2.115,0.488,4.053,1.384,5.812,2.686c1.758,1.304,3.188,3.11,4.297,5.42
		c1.106,2.313,1.66,5.291,1.66,8.937V1243.794z"/>
	<path fill="#6ECE41" d="M1179.99,1251.313c0,1.106-0.083,2.408-0.244,3.906c-0.164,1.497-0.669,2.913-1.515,4.249
		c-0.847,1.333-2.148,2.473-3.906,3.418c-1.758,0.942-4.232,1.416-7.422,1.416c-1.172,0-2.376-0.098-3.613-0.293v-7.423h1.758
		c1.236,0,2.278-0.049,3.125-0.146c0.846-0.098,1.497-0.358,1.953-0.781c0.455-0.424,0.781-1.059,0.977-1.904
		c0.195-0.847,0.293-1.986,0.293-3.418v-57.619h8.595V1251.313z M1179.99,1183.44h-8.595v-9.767h8.595V1183.44z"/>
	<path fill="#6ECE41" d="M1236.24,1227.777c-0.065,0.586-0.278,1.45-0.635,2.589c-0.358,1.14-0.896,2.377-1.611,3.711
		c-0.718,1.335-1.629,2.686-2.734,4.053c-1.108,1.367-2.476,2.572-4.103,3.613c-0.586,0.391-1.254,0.798-2.002,1.221
		c-0.749,0.424-1.66,0.798-2.734,1.123s-2.36,0.602-3.857,0.83c-1.498,0.228-3.256,0.342-5.273,0.342
		c-3.581,0-6.787-0.635-9.619-1.904s-5.226-3.043-7.179-5.322c-1.953-2.278-3.451-4.98-4.492-8.105
		c-1.042-3.126-1.563-6.544-1.563-10.255c0-3.971,0.488-7.682,1.465-11.133c0.977-3.45,2.457-6.461,4.443-9.034
		c1.985-2.57,4.524-4.59,7.618-6.055c3.091-1.465,6.753-2.197,10.986-2.197c3.711,0,6.934,0.7,9.668,2.1
		c2.734,1.401,5.013,3.403,6.837,6.006c1.821,2.605,3.188,5.747,4.102,9.425c0.911,3.679,1.367,7.764,1.367,12.256h-37.307
		c0,5.34,1.236,9.474,3.712,12.403c2.473,2.93,6.185,4.395,11.133,4.395c2.018,0,3.824-0.342,5.42-1.025
		c1.595-0.684,2.962-1.546,4.102-2.588c1.139-1.041,2.018-2.132,2.637-3.271c0.618-1.139,0.96-2.198,1.025-3.175H1236.24z
		 M1228.035,1214.203c-0.131-1.953-0.456-3.857-0.977-5.713c-0.521-1.855-1.335-3.482-2.441-4.883
		c-1.107-1.399-2.539-2.522-4.297-3.37c-1.758-0.845-3.939-1.27-6.543-1.27c-1.953,0-3.794,0.425-5.518,1.27
		c-1.726,0.848-3.223,1.971-4.492,3.37c-1.27,1.4-2.28,3.027-3.027,4.883c-0.75,1.855-1.124,3.76-1.124,5.713H1228.035z"/>
	<path fill="#6ECE41" d="M1279.112,1209.906c-0.521-3.45-1.758-6.136-3.711-8.057c-1.953-1.92-4.753-2.882-8.398-2.882
		c-2.671,0-4.899,0.571-6.689,1.709c-1.792,1.141-3.24,2.638-4.346,4.493c-1.108,1.855-1.89,3.923-2.345,6.201
		c-0.456,2.279-0.684,4.558-0.684,6.836c0,2.214,0.179,4.478,0.537,6.787c0.357,2.313,1.041,4.429,2.052,6.349
		c1.008,1.921,2.424,3.483,4.248,4.688c1.821,1.205,4.199,1.807,7.129,1.807s5.518-1.041,7.764-3.125
		c2.246-2.083,3.727-5.079,4.443-8.985h8.302c-0.195,2.02-0.701,4.168-1.514,6.446c-0.815,2.279-2.02,4.395-3.614,6.348
		c-1.596,1.953-3.679,3.564-6.25,4.834c-2.572,1.27-5.713,1.904-9.424,1.904c-3.581,0-6.787-0.635-9.619-1.904
		c-2.833-1.27-5.226-3.043-7.179-5.322c-1.953-2.278-3.451-4.98-4.492-8.105c-1.042-3.126-1.563-6.544-1.563-10.255
		c0-3.971,0.488-7.682,1.465-11.133c0.977-3.45,2.457-6.461,4.443-9.034c1.985-2.57,4.524-4.59,7.618-6.055
		c3.091-1.465,6.753-2.197,10.986-2.197c3.32,0,6.152,0.554,8.496,1.66c2.344,1.108,4.28,2.556,5.811,4.346
		c1.529,1.792,2.669,3.794,3.419,6.007c0.747,2.214,1.221,4.428,1.416,6.641H1279.112z"/>
	<path fill="#6ECE41" d="M1306.555,1199.847v33.205c0,0.977,0.178,1.742,0.537,2.295c0.356,0.554,0.813,0.961,1.367,1.221
		c0.552,0.261,1.123,0.407,1.709,0.439c0.586,0.033,1.106,0.049,1.563,0.049h3.027v6.738c-1.563,0.13-2.915,0.276-4.053,0.439
		c-1.14,0.162-1.938,0.244-2.393,0.244c-2.148,0-3.892-0.277-5.226-0.83c-1.335-0.553-2.377-1.318-3.125-2.295
		c-0.749-0.977-1.27-2.132-1.563-3.467c-0.293-1.334-0.439-2.783-0.439-4.346v-33.693h-6.934v-7.129h6.934v-14.258h8.595v14.258
		h8.203v7.129H1306.555z"/>
	<path fill="#6ECE41" d="M1366.518,1227.777c-0.065,0.586-0.278,1.45-0.635,2.589c-0.358,1.14-0.896,2.377-1.611,3.711
		c-0.718,1.335-1.629,2.686-2.734,4.053c-1.108,1.367-2.476,2.572-4.103,3.613c-0.586,0.391-1.254,0.798-2.002,1.221
		c-0.749,0.424-1.66,0.798-2.734,1.123s-2.36,0.602-3.857,0.83c-1.498,0.228-3.256,0.342-5.273,0.342
		c-3.581,0-6.787-0.635-9.619-1.904s-5.226-3.043-7.179-5.322c-1.953-2.278-3.451-4.98-4.492-8.105
		c-1.042-3.126-1.563-6.544-1.563-10.255c0-3.971,0.488-7.682,1.465-11.133c0.977-3.45,2.457-6.461,4.443-9.034
		c1.985-2.57,4.524-4.59,7.618-6.055c3.091-1.465,6.753-2.197,10.986-2.197c3.711,0,6.934,0.7,9.668,2.1
		c2.734,1.401,5.013,3.403,6.837,6.006c1.821,2.605,3.188,5.747,4.102,9.425c0.911,3.679,1.367,7.764,1.367,12.256h-37.307
		c0,5.34,1.236,9.474,3.712,12.403c2.474,2.93,6.185,4.395,11.133,4.395c2.018,0,3.824-0.342,5.42-1.025
		c1.595-0.684,2.962-1.546,4.102-2.588c1.139-1.041,2.018-2.132,2.637-3.271c0.618-1.139,0.96-2.198,1.025-3.175H1366.518z
		 M1358.314,1214.203c-0.131-1.953-0.456-3.857-0.977-5.713c-0.521-1.855-1.335-3.482-2.441-4.883
		c-1.107-1.399-2.539-2.522-4.297-3.37c-1.758-0.845-3.939-1.27-6.543-1.27c-1.953,0-3.794,0.425-5.518,1.27
		c-1.726,0.848-3.223,1.971-4.492,3.37c-1.27,1.4-2.28,3.027-3.027,4.883c-0.75,1.855-1.124,3.76-1.124,5.713H1358.314z"/>
	<path fill="#6ECE41" d="M1419.84,1243.794h-8.106v-7.031h-0.195c-0.912,1.758-1.953,3.174-3.125,4.248s-2.393,1.938-3.662,2.588
		s-2.572,1.09-3.906,1.318c-1.335,0.228-2.621,0.342-3.857,0.342c-4.362,0-7.977-0.912-10.84-2.734
		c-2.866-1.822-5.161-4.134-6.886-6.934c-1.726-2.799-2.946-5.875-3.662-9.229c-0.717-3.353-1.074-6.558-1.074-9.619
		c0-3.58,0.472-6.917,1.416-10.01c0.943-3.092,2.327-5.794,4.15-8.106c1.822-2.31,4.053-4.116,6.69-5.42
		c2.637-1.302,5.647-1.953,9.033-1.953c2.344,0,4.346,0.31,6.006,0.928c1.66,0.62,3.092,1.384,4.297,2.295
		c1.204,0.913,2.197,1.872,2.979,2.881c0.781,1.011,1.432,1.873,1.953,2.588h0.195v-26.271h8.595V1243.794z M1383.412,1218.109
		c0,2.8,0.276,5.405,0.83,7.813c0.553,2.41,1.399,4.493,2.54,6.251c1.138,1.758,2.57,3.142,4.297,4.15
		c1.724,1.01,3.76,1.514,6.104,1.514c1.367,0,2.864-0.26,4.492-0.781c1.627-0.521,3.141-1.432,4.541-2.734
		c1.399-1.302,2.571-3.06,3.516-5.274c0.943-2.212,1.416-5.013,1.416-8.398c0-2.083-0.131-4.378-0.391-6.885
		c-0.261-2.506-0.863-4.866-1.807-7.08c-0.944-2.213-2.328-4.053-4.15-5.519c-1.823-1.465-4.297-2.197-7.422-2.197
		c-3.32,0-5.908,0.684-7.764,2.051c-1.855,1.368-3.257,3.045-4.199,5.03c-0.945,1.986-1.515,4.086-1.71,6.299
		C1383.51,1214.562,1383.412,1216.482,1383.412,1218.109z"/>
	<path fill="#6ECE41" d="M1459.099,1183.44v-9.767h8.595v9.767H1459.099z M1467.694,1243.794h-8.595v-51.076h8.595V1243.794z"/>
	<path fill="#6ECE41" d="M1522.186,1243.794h-8.595v-31.446c0-4.427-0.781-7.764-2.344-10.01c-1.563-2.247-4.428-3.37-8.594-3.37
		c-1.237,0-2.637,0.229-4.199,0.684c-1.563,0.457-3.027,1.318-4.395,2.589c-1.367,1.27-2.524,3.012-3.467,5.225
		c-0.945,2.214-1.416,5.046-1.416,8.496v27.833h-8.595v-51.076h8.106v7.227h0.195c0.454-0.649,1.105-1.479,1.953-2.49
		c0.845-1.009,1.904-1.968,3.174-2.881c1.27-0.911,2.749-1.692,4.443-2.344c1.692-0.649,3.646-0.977,5.859-0.977
		c1.953,0,3.987,0.244,6.104,0.732c2.115,0.488,4.053,1.384,5.812,2.686c1.758,1.304,3.188,3.11,4.297,5.42
		c1.106,2.313,1.66,5.291,1.66,8.937V1243.794z"/>
	<path fill="#6ECE41" d="M1545.429,1199.847v33.205c0,0.977,0.178,1.742,0.537,2.295c0.356,0.554,0.813,0.961,1.367,1.221
		c0.552,0.261,1.123,0.407,1.709,0.439c0.586,0.033,1.106,0.049,1.563,0.049h3.027v6.738c-1.563,0.13-2.915,0.276-4.053,0.439
		c-1.14,0.162-1.938,0.244-2.393,0.244c-2.148,0-3.892-0.277-5.226-0.83c-1.335-0.553-2.377-1.318-3.125-2.295
		c-0.749-0.977-1.27-2.132-1.563-3.467c-0.293-1.334-0.439-2.783-0.439-4.346v-33.693h-6.934v-7.129h6.934v-14.258h8.595v14.258
		h8.203v7.129H1545.429z"/>
	<path fill="#6ECE41" d="M1559.101,1218.207c0-3.32,0.472-6.592,1.416-9.814c0.943-3.223,2.393-6.104,4.346-8.644
		c1.953-2.539,4.41-4.59,7.374-6.152c2.962-1.563,6.494-2.344,10.596-2.344s7.633,0.781,10.596,2.344
		c2.962,1.563,5.421,3.613,7.374,6.152c1.953,2.54,3.401,5.421,4.346,8.644c0.942,3.223,1.416,6.494,1.416,9.814
		s-0.474,6.592-1.416,9.814c-0.944,3.224-2.393,6.104-4.346,8.644s-4.412,4.59-7.374,6.152c-2.963,1.563-6.494,2.344-10.596,2.344
		s-7.634-0.781-10.596-2.344c-2.964-1.563-5.421-3.613-7.374-6.152s-3.402-5.42-4.346-8.644
		C1559.573,1224.799,1559.101,1221.527,1559.101,1218.207z M1567.988,1218.207c0,1.694,0.195,3.662,0.586,5.908
		s1.124,4.38,2.198,6.397c1.074,2.019,2.588,3.728,4.541,5.127c1.953,1.4,4.458,2.1,7.52,2.1c3.06,0,5.566-0.699,7.52-2.1
		c1.953-1.399,3.467-3.108,4.541-5.127c1.074-2.018,1.807-4.151,2.197-6.397s0.586-4.214,0.586-5.908
		c0-1.692-0.195-3.662-0.586-5.908s-1.123-4.378-2.197-6.396c-1.074-2.018-2.588-3.727-4.541-5.128c-1.953-1.398-4.46-2.1-7.52-2.1
		c-3.062,0-5.566,0.701-7.52,2.1c-1.953,1.401-3.467,3.11-4.541,5.128c-1.074,2.019-1.808,4.15-2.198,6.396
		S1567.988,1216.515,1567.988,1218.207z"/>
	<path fill="#6ECE41" d="M1675.413,1209.906c-0.521-3.45-1.758-6.136-3.711-8.057c-1.953-1.92-4.753-2.882-8.398-2.882
		c-2.671,0-4.899,0.571-6.689,1.709c-1.792,1.141-3.24,2.638-4.346,4.493c-1.108,1.855-1.89,3.923-2.345,6.201
		c-0.456,2.279-0.684,4.558-0.684,6.836c0,2.214,0.179,4.478,0.537,6.787c0.357,2.313,1.041,4.429,2.052,6.349
		c1.008,1.921,2.424,3.483,4.248,4.688c1.821,1.205,4.199,1.807,7.129,1.807s5.518-1.041,7.764-3.125
		c2.246-2.083,3.727-5.079,4.443-8.985h8.302c-0.195,2.02-0.701,4.168-1.514,6.446c-0.815,2.279-2.02,4.395-3.614,6.348
		c-1.596,1.953-3.679,3.564-6.25,4.834c-2.572,1.27-5.713,1.904-9.424,1.904c-3.581,0-6.787-0.635-9.619-1.904
		c-2.833-1.27-5.226-3.043-7.179-5.322c-1.953-2.278-3.451-4.98-4.492-8.105c-1.042-3.126-1.563-6.544-1.563-10.255
		c0-3.971,0.488-7.682,1.465-11.133c0.977-3.45,2.457-6.461,4.443-9.034c1.985-2.57,4.524-4.59,7.618-6.055
		c3.091-1.465,6.753-2.197,10.986-2.197c3.32,0,6.152,0.554,8.496,1.66c2.344,1.108,4.28,2.556,5.811,4.346
		c1.529,1.792,2.669,3.794,3.419,6.007c0.747,2.214,1.221,4.428,1.416,6.641H1675.413z"/>
	<path fill="#6ECE41" d="M1735.67,1227.777c-0.065,0.586-0.278,1.45-0.635,2.589c-0.358,1.14-0.896,2.377-1.611,3.711
		c-0.718,1.335-1.629,2.686-2.734,4.053c-1.108,1.367-2.476,2.572-4.103,3.613c-0.586,0.391-1.254,0.798-2.002,1.221
		c-0.749,0.424-1.66,0.798-2.734,1.123s-2.36,0.602-3.857,0.83c-1.498,0.228-3.256,0.342-5.273,0.342
		c-3.581,0-6.787-0.635-9.619-1.904s-5.226-3.043-7.179-5.322c-1.953-2.278-3.451-4.98-4.492-8.105
		c-1.042-3.126-1.563-6.544-1.563-10.255c0-3.971,0.488-7.682,1.465-11.133c0.977-3.45,2.457-6.461,4.443-9.034
		c1.985-2.57,4.524-4.59,7.618-6.055c3.091-1.465,6.753-2.197,10.986-2.197c3.711,0,6.934,0.7,9.668,2.1
		c2.734,1.401,5.013,3.403,6.837,6.006c1.821,2.605,3.188,5.747,4.102,9.425c0.911,3.679,1.367,7.764,1.367,12.256h-37.307
		c0,5.34,1.236,9.474,3.712,12.403c2.474,2.93,6.185,4.395,11.133,4.395c2.018,0,3.824-0.342,5.42-1.025
		c1.595-0.684,2.962-1.546,4.102-2.588c1.139-1.041,2.018-2.132,2.637-3.271c0.618-1.139,0.96-2.198,1.025-3.175H1735.67z
		 M1727.466,1214.203c-0.131-1.953-0.456-3.857-0.977-5.713c-0.521-1.855-1.335-3.482-2.441-4.883
		c-1.107-1.399-2.539-2.522-4.297-3.37c-1.758-0.845-3.939-1.27-6.543-1.27c-1.953,0-3.794,0.425-5.518,1.27
		c-1.726,0.848-3.223,1.971-4.492,3.37c-1.27,1.4-2.28,3.027-3.027,4.883c-0.75,1.855-1.124,3.76-1.124,5.713H1727.466z"/>
	<path fill="#6ECE41" d="M1755.398,1243.794h-8.595v-70.12h8.595V1243.794z"/>
	<path fill="#6ECE41" d="M1777.076,1243.794h-8.595v-70.12h8.595V1243.794z"/>
</g>
<g>
	<path fill="#47C7EF" d="M-203.638,1359.756v-70.115h8.593v25.488h0.195c1.888-2.734,4.068-4.721,6.543-5.957
		c2.473-1.236,5.208-1.889,8.203-1.953c3.384,0,6.396,0.65,9.033,1.953s4.866,3.109,6.689,5.42c1.822,2.311,3.206,5.014,4.15,8.104
		c0.943,3.093,1.416,6.43,1.416,10.01c0,3.061-0.358,6.267-1.074,9.618c-0.717,3.354-1.938,6.43-3.662,9.229
		c-1.726,2.801-4.021,5.111-6.884,6.934c-2.866,1.822-6.479,2.734-10.84,2.734c-2.148,0-4.021-0.277-5.615-0.83
		c-1.596-0.554-2.946-1.221-4.053-2.002c-1.108-0.781-2.002-1.627-2.686-2.539c-0.684-0.91-1.254-1.725-1.709-2.441h-0.195v6.348
		H-203.638z M-167.701,1334.072c0-1.626-0.098-3.547-0.293-5.761c-0.195-2.212-0.766-4.312-1.709-6.299
		c-0.945-1.985-2.344-3.662-4.199-5.029s-4.443-2.05-7.764-2.05c-3.125,0-5.6,0.731-7.421,2.196
		c-1.823,1.465-3.208,3.306-4.15,5.518c-0.944,2.214-1.547,4.575-1.807,7.08c-0.261,2.507-0.391,4.802-0.391,6.884
		c0,3.387,0.472,6.187,1.416,8.398c0.943,2.215,2.115,3.973,3.516,5.273c1.399,1.303,2.913,2.215,4.541,2.734
		c1.626,0.521,3.125,0.781,4.492,0.781c2.344,0,4.378-0.504,6.104-1.514c1.724-1.008,3.157-2.393,4.297-4.15
		c1.138-1.758,1.985-3.84,2.539-6.25C-167.979,1339.478-167.701,1336.873-167.701,1334.072z"/>
	<path fill="#47C7EF" d="M-148.952,1324.21c0.064-3.06,0.618-5.664,1.66-7.813c1.041-2.147,2.473-3.905,4.296-5.272
		c1.822-1.367,4.019-2.359,6.592-2.979c2.571-0.619,5.42-0.928,8.544-0.928c0.65,0,1.578,0.049,2.783,0.146
		c1.204,0.098,2.522,0.309,3.955,0.635c1.431,0.326,2.864,0.797,4.297,1.416c1.431,0.619,2.734,1.465,3.906,2.539
		s2.131,2.393,2.88,3.954c0.748,1.563,1.123,3.418,1.123,5.566v29.394c0,2.02,0.943,3.027,2.832,3.027
		c0.391,0,0.83-0.031,1.318-0.098c0.488-0.064,0.992-0.162,1.514-0.293v6.25c-0.717,0.195-1.433,0.406-2.148,0.635
		c-0.717,0.228-1.563,0.342-2.539,0.342c-1.889,0-3.417-0.229-4.589-0.684s-2.068-1.041-2.686-1.758
		c-0.62-0.716-1.059-1.545-1.318-2.49c-0.261-0.943-0.424-1.904-0.488-2.881c-0.847,0.912-1.807,1.855-2.881,2.832
		s-2.36,1.872-3.857,2.686c-1.498,0.814-3.207,1.48-5.126,2.002c-1.921,0.521-4.119,0.781-6.592,0.781
		c-2.344,0-4.492-0.358-6.445-1.074s-3.646-1.725-5.078-3.027c-1.433-1.301-2.539-2.848-3.32-4.639
		c-0.781-1.789-1.172-3.791-1.172-6.006c0-1.04,0.146-2.393,0.439-4.053s0.959-3.303,2.002-4.932
		c1.041-1.626,2.588-3.091,4.638-4.394c2.051-1.302,4.866-2.181,8.447-2.637l14.16-1.758c0.521-0.063,1.041-0.179,1.563-0.342
		c0.521-0.161,1.009-0.454,1.465-0.879c0.455-0.423,0.813-1.009,1.074-1.758c0.259-0.747,0.391-1.772,0.391-3.076
		c0-5.532-4.004-8.3-12.011-8.3c-2.475,0-4.443,0.326-5.908,0.977s-2.604,1.48-3.418,2.489c-0.815,1.011-1.384,2.085-1.709,3.223
		c-0.327,1.14-0.554,2.197-0.684,3.174H-148.952z M-117.508,1333.682c-0.327,0.262-0.749,0.522-1.27,0.781
		c-0.522,0.262-1.303,0.506-2.344,0.732c-1.042,0.229-2.393,0.488-4.053,0.781s-3.825,0.604-6.494,0.928
		c-1.042,0.132-2.197,0.342-3.467,0.635s-2.458,0.732-3.564,1.318c-1.108,0.586-2.036,1.385-2.783,2.393
		c-0.749,1.011-1.123,2.329-1.123,3.955c0,2.801,0.732,4.98,2.197,6.543s3.824,2.344,7.08,2.344c2.017,0,3.97-0.309,5.859-0.928
		c1.888-0.617,3.564-1.465,5.029-2.539s2.652-2.344,3.564-3.809c0.911-1.465,1.367-3.042,1.367-4.736V1333.682z"/>
	<path fill="#47C7EF" d="M-62.431,1325.87c-0.522-3.45-1.758-6.136-3.711-8.057c-1.953-1.919-4.753-2.88-8.398-2.88
		c-2.67,0-4.9,0.57-6.689,1.708c-1.792,1.14-3.239,2.637-4.346,4.492c-1.108,1.855-1.889,3.923-2.344,6.201
		c-0.456,2.279-0.684,4.558-0.684,6.835c0,2.215,0.179,4.478,0.537,6.787c0.357,2.313,1.041,4.429,2.051,6.348
		c1.009,1.922,2.425,3.484,4.248,4.688c1.822,1.205,4.199,1.807,7.129,1.807c2.929,0,5.517-1.041,7.763-3.125
		c2.246-2.082,3.726-5.078,4.443-8.984h8.3c-0.195,2.02-0.7,4.168-1.514,6.445c-0.814,2.279-2.019,4.395-3.613,6.348
		c-1.596,1.953-3.679,3.564-6.25,4.834c-2.573,1.27-5.713,1.904-9.423,1.904c-3.582,0-6.787-0.635-9.619-1.904
		s-5.225-3.043-7.178-5.322c-1.953-2.277-3.451-4.98-4.492-8.105c-1.042-3.125-1.563-6.543-1.563-10.254
		c0-3.97,0.488-7.68,1.465-11.132c0.977-3.45,2.457-6.46,4.443-9.032c1.985-2.572,4.524-4.59,7.617-6.055
		c3.091-1.465,6.753-2.197,10.986-2.197c3.32,0,6.152,0.553,8.496,1.66s4.28,2.555,5.811,4.346c1.529,1.791,2.668,3.793,3.417,6.005
		c0.748,2.214,1.221,4.429,1.416,6.641H-62.431z"/>
	<path fill="#47C7EF" d="M-34.99,1315.812v33.202c0,0.977,0.178,1.742,0.537,2.295c0.356,0.555,0.813,0.961,1.366,1.221
		c0.553,0.262,1.123,0.408,1.709,0.439c0.586,0.033,1.106,0.049,1.563,0.049h3.027v6.738c-1.563,0.13-2.914,0.276-4.053,0.439
		c-1.14,0.162-1.938,0.244-2.393,0.244c-2.147,0-3.891-0.277-5.224-0.83c-1.336-0.553-2.378-1.318-3.125-2.295
		c-0.749-0.977-1.27-2.131-1.563-3.467c-0.293-1.334-0.439-2.783-0.439-4.346v-33.69h-6.934v-7.128h6.934v-14.258h8.594v14.258
		h8.202v7.128H-34.99z"/>
	<path fill="#47C7EF" d="M24.969,1343.74c-0.066,0.586-0.278,1.45-0.635,2.588c-0.359,1.141-0.896,2.377-1.611,3.711
		c-0.718,1.336-1.628,2.686-2.734,4.053c-1.108,1.367-2.476,2.572-4.102,3.613c-0.586,0.391-1.254,0.798-2.002,1.221
		c-0.749,0.424-1.66,0.798-2.734,1.123s-2.36,0.602-3.857,0.83c-1.498,0.228-3.256,0.342-5.273,0.342
		c-3.581,0-6.787-0.635-9.618-1.904c-2.832-1.27-5.225-3.043-7.178-5.322c-1.953-2.277-3.452-4.98-4.492-8.105
		c-1.042-3.125-1.563-6.543-1.563-10.254c0-3.97,0.488-7.68,1.465-11.132c0.977-3.45,2.456-6.46,4.443-9.032
		c1.984-2.572,4.523-4.59,7.617-6.055c3.091-1.465,6.753-2.197,10.985-2.197c3.711,0,6.934,0.699,9.668,2.1s5.013,3.402,6.836,6.006
		c1.821,2.604,3.188,5.746,4.102,9.423c0.91,3.679,1.367,7.764,1.367,12.255h-37.304c0,5.34,1.235,9.473,3.711,12.402
		c2.473,2.93,6.184,4.395,11.132,4.395c2.018,0,3.824-0.342,5.42-1.025c1.595-0.684,2.962-1.545,4.102-2.588
		c1.139-1.041,2.018-2.131,2.637-3.271c0.618-1.138,0.96-2.197,1.025-3.174H24.969z M16.766,1330.167
		c-0.132-1.953-0.456-3.857-0.977-5.713c-0.522-1.855-1.335-3.481-2.441-4.883c-1.107-1.399-2.539-2.522-4.297-3.369
		c-1.758-0.845-3.939-1.269-6.543-1.269c-1.953,0-3.793,0.424-5.518,1.269c-1.726,0.847-3.223,1.97-4.491,3.369
		c-1.27,1.401-2.28,3.027-3.027,4.883c-0.75,1.855-1.123,3.76-1.123,5.713H16.766z"/>
	<path fill="#47C7EF" d="M45.671,1359.756h-8.594v-51.072h8.105v8.495h0.195c1.691-2.993,3.693-5.403,6.005-7.226
		c2.311-1.822,5.094-2.734,8.35-2.734c0.521,0,0.943,0.016,1.27,0.049c0.325,0.033,0.65,0.113,0.977,0.244v8.886h-3.223
		c-2.019,0-3.825,0.358-5.42,1.074c-1.596,0.718-2.963,1.709-4.102,2.979c-1.14,1.27-2.019,2.734-2.636,4.395
		c-0.62,1.66-0.928,3.403-0.928,5.225V1359.756z"/>
	<path fill="#47C7EF" d="M70.083,1299.406v-9.766h8.594v9.766H70.083z M78.677,1359.756h-8.594v-51.072h8.594V1359.756z"/>
	<path fill="#47C7EF" d="M91.273,1324.21c0.063-3.06,0.618-5.664,1.66-7.813c1.04-2.147,2.474-3.905,4.297-5.272
		c1.821-1.367,4.019-2.359,6.591-2.979c2.571-0.619,5.42-0.928,8.545-0.928c0.65,0,1.578,0.049,2.783,0.146
		c1.204,0.098,2.522,0.309,3.955,0.635c1.432,0.326,2.864,0.797,4.297,1.416c1.432,0.619,2.734,1.465,3.906,2.539
		s2.132,2.393,2.881,3.954c0.747,1.563,1.123,3.418,1.123,5.566v29.394c0,2.02,0.942,3.027,2.832,3.027
		c0.391,0,0.83-0.031,1.318-0.098c0.488-0.064,0.991-0.162,1.514-0.293v6.25c-0.718,0.195-1.434,0.406-2.148,0.635
		c-0.718,0.228-1.563,0.342-2.539,0.342c-1.89,0-3.418-0.229-4.59-0.684s-2.067-1.041-2.686-1.758
		c-0.619-0.716-1.059-1.545-1.318-2.49c-0.261-0.943-0.424-1.904-0.488-2.881c-0.847,0.912-1.807,1.855-2.881,2.832
		s-2.36,1.872-3.857,2.686c-1.498,0.814-3.207,1.48-5.127,2.002c-1.921,0.521-4.118,0.781-6.592,0.781
		c-2.343,0-4.491-0.358-6.444-1.074s-3.647-1.725-5.078-3.027c-1.433-1.301-2.539-2.848-3.32-4.639
		c-0.781-1.789-1.172-3.791-1.172-6.006c0-1.04,0.146-2.393,0.439-4.053s0.96-3.303,2.002-4.932c1.04-1.626,2.588-3.091,4.639-4.394
		c2.051-1.302,4.865-2.181,8.446-2.637l14.16-1.758c0.521-0.063,1.041-0.179,1.563-0.342c0.521-0.161,1.009-0.454,1.465-0.879
		c0.455-0.423,0.813-1.009,1.074-1.758c0.26-0.747,0.391-1.772,0.391-3.076c0-5.532-4.004-8.3-12.012-8.3
		c-2.475,0-4.443,0.326-5.908,0.977s-2.604,1.48-3.417,2.489c-0.815,1.011-1.385,2.085-1.709,3.223
		c-0.327,1.14-0.555,2.197-0.684,3.174H91.273z M122.717,1333.682c-0.326,0.262-0.749,0.522-1.27,0.781
		c-0.521,0.262-1.303,0.506-2.344,0.732c-1.042,0.229-2.393,0.488-4.053,0.781s-3.825,0.604-6.494,0.928
		c-1.042,0.132-2.197,0.342-3.467,0.635s-2.458,0.732-3.563,1.318c-1.108,0.586-2.036,1.385-2.783,2.393
		c-0.75,1.011-1.123,2.329-1.123,3.955c0,2.801,0.732,4.98,2.197,6.543s3.823,2.344,7.079,2.344c2.018,0,3.971-0.309,5.859-0.928
		c1.888-0.617,3.564-1.465,5.029-2.539s2.652-2.344,3.564-3.809c0.911-1.465,1.367-3.042,1.367-4.736V1333.682z"/>
	<path fill="#47C7EF" d="M154.65,1359.756h-8.594v-70.115h8.594V1359.756z"/>
	<path fill="#47C7EF" d="M237.068,1355.557c0,1.238-0.034,2.719-0.098,4.443c-0.066,1.725-0.327,3.547-0.781,5.469
		c-0.457,1.92-1.157,3.824-2.1,5.713c-0.944,1.887-2.295,3.564-4.053,5.029s-4.004,2.668-6.738,3.613
		c-2.734,0.942-6.055,1.416-9.961,1.416c-1.498,0-3.288-0.164-5.371-0.488c-2.084-0.327-4.101-1.011-6.054-2.051
		c-1.953-1.043-3.696-2.573-5.225-4.59c-1.53-2.02-2.49-4.721-2.881-8.105h8.594c0.391,2.018,1.105,3.58,2.148,4.688
		c1.04,1.105,2.18,1.904,3.417,2.393c1.236,0.488,2.408,0.781,3.516,0.879c1.106,0.098,1.92,0.146,2.441,0.146
		c3.58,0,6.348-0.604,8.301-1.807c1.953-1.205,3.385-2.703,4.297-4.492c0.911-1.791,1.465-3.68,1.66-5.664
		c0.195-1.986,0.293-3.76,0.293-5.322v-2.832c-1.237,2.084-2.979,3.809-5.225,5.176s-5.095,2.051-8.545,2.051
		c-4.362,0-7.976-0.912-10.839-2.734c-2.866-1.822-5.161-4.133-6.885-6.934c-1.726-2.799-2.946-5.874-3.662-9.229
		c-0.717-3.352-1.074-6.558-1.074-9.618c0-3.58,0.472-6.917,1.416-10.01c0.942-3.091,2.327-5.794,4.15-8.104
		c1.821-2.311,4.053-4.117,6.689-5.42c2.636-1.303,5.646-1.953,9.032-1.953c2.344,0,4.361,0.326,6.055,0.977
		c1.692,0.65,3.141,1.432,4.346,2.344c1.204,0.912,2.213,1.889,3.027,2.93c0.813,1.041,1.479,1.953,2.002,2.733v-7.519h8.105
		V1355.557z M201.131,1334.072c0,2.801,0.275,5.405,0.83,7.813c0.552,2.41,1.398,4.492,2.539,6.25
		c1.138,1.758,2.57,3.143,4.296,4.15c1.725,1.01,3.76,1.514,6.104,1.514c1.367,0,2.864-0.26,4.492-0.781
		c1.627-0.52,3.141-1.432,4.541-2.734c1.399-1.301,2.571-3.059,3.516-5.273c0.942-2.212,1.416-5.012,1.416-8.398
		c0-2.082-0.132-4.377-0.391-6.884c-0.261-2.505-0.863-4.866-1.807-7.08c-0.944-2.212-2.328-4.053-4.15-5.518
		c-1.823-1.465-4.297-2.196-7.422-2.196c-3.32,0-5.908,0.683-7.764,2.05c-1.854,1.367-3.256,3.044-4.198,5.029
		c-0.945,1.987-1.514,4.087-1.709,6.299C201.229,1330.525,201.131,1332.446,201.131,1334.072z"/>
	<path fill="#47C7EF" d="M292.339,1343.74c-0.066,0.586-0.278,1.45-0.635,2.588c-0.359,1.141-0.896,2.377-1.611,3.711
		c-0.718,1.336-1.628,2.686-2.734,4.053c-1.108,1.367-2.476,2.572-4.102,3.613c-0.586,0.391-1.254,0.798-2.002,1.221
		c-0.749,0.424-1.66,0.798-2.734,1.123s-2.36,0.602-3.857,0.83c-1.498,0.228-3.256,0.342-5.273,0.342
		c-3.581,0-6.787-0.635-9.618-1.904c-2.832-1.27-5.225-3.043-7.178-5.322c-1.953-2.277-3.452-4.98-4.492-8.105
		c-1.042-3.125-1.563-6.543-1.563-10.254c0-3.97,0.488-7.68,1.465-11.132c0.977-3.45,2.456-6.46,4.443-9.032
		c1.984-2.572,4.523-4.59,7.617-6.055c3.091-1.465,6.753-2.197,10.985-2.197c3.711,0,6.934,0.699,9.668,2.1s5.013,3.402,6.836,6.006
		c1.821,2.604,3.188,5.746,4.102,9.423c0.91,3.679,1.367,7.764,1.367,12.255h-37.304c0,5.34,1.235,9.473,3.711,12.402
		c2.473,2.93,6.184,4.395,11.132,4.395c2.018,0,3.824-0.342,5.42-1.025c1.595-0.684,2.962-1.545,4.102-2.588
		c1.139-1.041,2.018-2.131,2.637-3.271c0.618-1.138,0.96-2.197,1.025-3.174H292.339z M284.136,1330.167
		c-0.132-1.953-0.456-3.857-0.977-5.713c-0.522-1.855-1.335-3.481-2.441-4.883c-1.107-1.399-2.539-2.522-4.297-3.369
		c-1.758-0.845-3.939-1.269-6.543-1.269c-1.953,0-3.793,0.424-5.518,1.269c-1.726,0.847-3.223,1.97-4.491,3.369
		c-1.27,1.401-2.28,3.027-3.027,4.883c-0.75,1.855-1.123,3.76-1.123,5.713H284.136z"/>
	<path fill="#47C7EF" d="M344.876,1359.756h-8.594v-31.444c0-4.427-0.781-7.764-2.344-10.01s-4.428-3.368-8.594-3.368
		c-1.237,0-2.637,0.229-4.199,0.683c-1.563,0.456-3.027,1.318-4.395,2.588s-2.523,3.013-3.466,5.225
		c-0.945,2.214-1.416,5.046-1.416,8.496v27.831h-8.594v-51.072h8.105v7.226h0.195c0.454-0.649,1.105-1.479,1.953-2.489
		c0.845-1.01,1.903-1.969,3.173-2.881s2.75-1.693,4.443-2.344c1.692-0.65,3.646-0.977,5.859-0.977c1.953,0,3.987,0.244,6.104,0.732
		c2.115,0.488,4.053,1.383,5.811,2.686s3.188,3.109,4.297,5.419c1.105,2.312,1.66,5.29,1.66,8.936V1359.756z"/>
	<path fill="#47C7EF" d="M354.641,1334.17c0-3.319,0.472-6.591,1.416-9.813c0.942-3.223,2.393-6.104,4.346-8.643
		c1.953-2.538,4.409-4.589,7.373-6.151c2.961-1.563,6.493-2.344,10.595-2.344s7.633,0.781,10.596,2.344
		c2.962,1.563,5.42,3.613,7.373,6.151c1.953,2.539,3.4,5.42,4.346,8.643c0.942,3.223,1.416,6.494,1.416,9.813
		c0,3.32-0.474,6.592-1.416,9.814c-0.945,3.223-2.393,6.104-4.346,8.643s-4.411,4.59-7.373,6.152
		c-2.963,1.563-6.494,2.344-10.596,2.344s-7.634-0.781-10.595-2.344c-2.964-1.563-5.42-3.613-7.373-6.152s-3.403-5.42-4.346-8.643
		C355.113,1340.762,354.641,1337.49,354.641,1334.17z M363.528,1334.17c0,1.694,0.195,3.662,0.586,5.908s1.123,4.38,2.197,6.396
		c1.074,2.02,2.588,3.729,4.54,5.127c1.953,1.4,4.459,2.1,7.52,2.1c3.06,0,5.566-0.699,7.52-2.1
		c1.953-1.398,3.467-3.107,4.541-5.127c1.074-2.017,1.807-4.15,2.197-6.396s0.586-4.214,0.586-5.908
		c0-1.691-0.195-3.661-0.586-5.907s-1.123-4.378-2.197-6.396c-1.074-2.017-2.588-3.726-4.541-5.127
		c-1.953-1.399-4.46-2.099-7.52-2.099c-3.061,0-5.566,0.699-7.52,2.099c-1.952,1.401-3.466,3.11-4.54,5.127
		c-1.074,2.019-1.807,4.15-2.197,6.396S363.528,1332.479,363.528,1334.17z"/>
	<path fill="#47C7EF" d="M411.865,1308.684h8.105v7.226h0.195c0.454-0.649,1.089-1.479,1.904-2.489
		c0.813-1.01,1.838-1.969,3.075-2.881c1.236-0.912,2.718-1.693,4.443-2.344c1.725-0.65,3.727-0.977,6.006-0.977
		c2.278,0,4.199,0.309,5.762,0.928s2.864,1.352,3.906,2.197c1.04,0.846,1.855,1.758,2.441,2.734s1.074,1.791,1.465,2.44
		c1.04-1.171,2.083-2.278,3.125-3.319c1.04-1.041,2.148-1.92,3.32-2.637s2.505-1.285,4.003-1.709
		c1.497-0.424,3.223-0.635,5.176-0.635c1.367,0,2.962,0.229,4.785,0.684c1.822,0.455,3.548,1.303,5.176,2.539
		c1.627,1.236,3.011,2.979,4.15,5.224c1.139,2.246,1.709,5.161,1.709,8.74v35.351h-8.594v-33.007c0-3.516-0.668-6.362-2.002-8.545
		c-1.335-2.181-3.825-3.271-7.471-3.271c-1.823,0-3.467,0.391-4.931,1.171c-1.465,0.781-2.72,1.807-3.76,3.076
		c-1.043,1.27-1.855,2.734-2.441,4.395s-0.879,3.337-0.879,5.029v31.151h-8.594v-35.351c0-1.04-0.114-2.132-0.342-3.271
		c-0.229-1.138-0.651-2.163-1.27-3.076c-0.619-0.911-1.449-1.66-2.49-2.246c-1.042-0.585-2.344-0.878-3.906-0.878
		c-1.237,0-2.637,0.229-4.199,0.683c-1.563,0.456-3.027,1.318-4.395,2.588s-2.523,3.013-3.466,5.225
		c-0.945,2.214-1.416,5.046-1.416,8.496v27.831h-8.594V1308.684z"/>
	<path fill="#47C7EF" d="M536.569,1343.74c-0.066,0.586-0.278,1.45-0.635,2.588c-0.359,1.141-0.896,2.377-1.611,3.711
		c-0.718,1.336-1.628,2.686-2.734,4.053c-1.108,1.367-2.476,2.572-4.102,3.613c-0.586,0.391-1.254,0.798-2.002,1.221
		c-0.749,0.424-1.66,0.798-2.734,1.123s-2.36,0.602-3.857,0.83c-1.498,0.228-3.256,0.342-5.273,0.342
		c-3.581,0-6.787-0.635-9.618-1.904c-2.832-1.27-5.225-3.043-7.178-5.322c-1.953-2.277-3.452-4.98-4.492-8.105
		c-1.042-3.125-1.563-6.543-1.563-10.254c0-3.97,0.488-7.68,1.465-11.132c0.977-3.45,2.456-6.46,4.443-9.032
		c1.984-2.572,4.523-4.59,7.617-6.055c3.091-1.465,6.753-2.197,10.985-2.197c3.711,0,6.934,0.699,9.668,2.1s5.013,3.402,6.836,6.006
		c1.821,2.604,3.188,5.746,4.102,9.423c0.91,3.679,1.367,7.764,1.367,12.255h-37.304c0,5.34,1.235,9.473,3.711,12.402
		c2.473,2.93,6.184,4.395,11.132,4.395c2.018,0,3.824-0.342,5.42-1.025c1.595-0.684,2.962-1.545,4.102-2.588
		c1.139-1.041,2.018-2.131,2.637-3.271c0.618-1.138,0.96-2.197,1.025-3.174H536.569z M528.365,1330.167
		c-0.132-1.953-0.456-3.857-0.977-5.713c-0.522-1.855-1.335-3.481-2.441-4.883c-1.107-1.399-2.539-2.522-4.297-3.369
		c-1.758-0.845-3.939-1.269-6.543-1.269c-1.953,0-3.793,0.424-5.518,1.269c-1.726,0.847-3.223,1.97-4.491,3.369
		c-1.27,1.401-2.28,3.027-3.027,4.883c-0.75,1.855-1.123,3.76-1.123,5.713H528.365z"/>
</g>
<line fill="none" stroke="#000000" stroke-width="17.0079" stroke-miterlimit="10" x1="1153.877" y1="111.042" x2="1066.466" y2="76.3"/>
<line fill="none" stroke="#000000" stroke-width="17.0079" stroke-miterlimit="10" x1="448.075" y1="77.519" x2="385.49" y2="77.519"/>
<line fill="none" stroke="#6ECE41" stroke-width="17.0079" stroke-miterlimit="10" x1="225.456" y1="76.14" x2="97.807" y2="76.14"/>
<line fill="none" stroke="#47C7EF" stroke-width="17.0079" stroke-miterlimit="10" x1="175.484" y1="1388.234" x2="175.484" y2="1452.485"/>
</svg>
