<?xml version="1.0" encoding="UTF-8"?>
<svg width="800" height="729" xmlns="http://www.w3.org/2000/svg">
 <g>
  <title>Layer 1</title>
  <path d="m231.830002,-6.391c10.263,15.592999 18.737991,31.900001 35.354996,44.952001c3.937988,12.808998 1.661011,24.374001 -1.01001,35.859997c-5.806,11.983002 -4.862,26.215004 -7.070984,39.396004c3.397003,16.429993 -12.928009,22.998993 -24.749008,31.819992c-23.659988,14.285004 -23.229996,32.820999 -24.748993,51.013c1.367996,7.582001 1.380997,14.777008 -6.56601,19.698013c-27.996994,32.347 -9.29599,98.488998 42.427002,128.793991l-1.009995,39.395996c-13.869995,3.080994 -29.315994,5.192017 -26.264008,18.688019l0.505005,68.689972c4.456009,12.088013 10.529999,21.749023 17.677002,29.800018v6.565002c-25.235992,21.012024 -24.214996,50.102966 -14.647003,81.822021l9.091003,59.094971c4.682999,27.205017 2.940002,57.622986 2.524994,87.377991l51.013,-3.029968c-0.01001,-34.538025 0.563019,-67.712036 4.546021,-92.934998c7.78299,27.57196 8.270996,62.440002 11.110992,94.954956l199.505005,-1.010986l16.666962,-126.773987c2.104004,-16.161011 13.246033,-29.421997 10.102051,-39.395996l8.586975,-26.264038c4.182983,-10.169983 2.697998,-17.437988 -2.525024,-26.264954l-6.061951,-9.596008l9.09198,-11.112c9.635986,-27.016998 8.23999,-50.723999 4.546021,-73.740997c4.055969,-14.420013 10.447998,-28.450012 -1.011047,-45.457001l-1.009949,-62.628998c9.780945,-34.14502 38.836975,-63.230011 40.91095,-112.127014c-1.771973,-14.983994 -5.447998,-29.968002 -3.534973,-44.951996c-1.229004,-15.541 -14.15802,-23.771011 -25.759033,-32.830002l-11.112,-22.223999c6.261047,-36.029007 6.421021,-72.057003 6.062012,-108.085994l-312.641983,0.50699zm40.669998,364.319985l-0.713989,25.357025c30.682983,-4.460999 88.147003,4.783997 112.5,-3.929016c-1.074005,-13.177002 -3.785004,-25.208008 -14.286011,-31.78598c-23.485992,22.264984 -52.247009,33.519989 -97.5,10.357971l0,0zm147.321014,-41.78598c-4.682007,11.744995 -8.076019,24.848999 -4.285004,45.53598c4.617981,-9.703979 7.618988,-23.449982 10.355988,-37.856995l-6.070984,-7.678986zm30.357971,29.643005c-4.884979,6.061981 -11.072998,12.341003 -10.53598,17.5l15.356995,-3.929016l-2.5,-13.570984h-2.321014l0,0z" stroke-linecap="round" stroke="#000000" fill="#FDFEF0" id="path3710"/>
  <path d="m232.298004,-7.717h313.049042c0.940002,43.98 -4.051025,84.994 -8.850037,126.105l-126.104004,35.397003c-20.014984,-24.799011 -53.367981,-52.266006 -102.875,-82.962997c-36.787994,-24.802006 -59.06601,-50.705006 -75.220001,-78.539006z" fill="#BFBFBF" id="path3428"/>
  <path d="m557.515991,138.298996c-31.809998,-1.479996 -65.359009,-4.353989 -82.963989,5.531006c-46.049011,-11.634003 -26.673004,56.138992 -69.689026,22.123993c6.712006,-57.520996 1.239014,-115.042995 -33.184998,-172.563995l119.46701,1.106c15.304016,49.637999 39.334015,97.097003 66.371002,143.802996z" fill="#D6D6D6" id="path3426"/>
  <path d="m216.667007,402.826996v38.326996c20.822006,11.973022 56.185989,14.619995 101.298996,9.38501c10.157013,11.402008 54.58902,25.855988 70.391022,24.640991c6.819977,-23.367981 120.853973,-28.497986 153.30899,-57.881989c3.379028,-19.571014 9.244995,-37.17099 -15.252991,-48.886993c-38.779999,-15.779022 -74.890991,-11.540009 -109.507019,3.91098c-28.368988,13.52301 -78.200989,11.437012 -129.061005,8.604004c-31.345001,2.221008 -69.557999,-0.135986 -71.177994,21.901001l0,0z" fill="#BCBCBC" id="path2652"/>
  <path d="m537.362976,311.701996l1.174011,64.529999c-5.976013,-5.912994 -11.817017,-7.376007 -15.643982,-8.604004c0.276001,-22.621002 5.867004,-40.59198 14.469971,-55.925995l0,0z" fill="#C8C8C8" id="path2650"/>
  <path d="m407.520996,240.132004c24.308014,-52.042007 89.78299,64.905991 162.695007,4.692993c-7.651978,10.942001 -11.14801,22.552017 -16.841003,34.629013c-38.10498,67.94101 -37.898987,166.020996 -24.61499,228.968994c5.138,12.253998 14.117981,24.509003 5.476013,36.76297c-22.689026,-15.337952 -46.223022,-24.494995 -75.091034,5.476013c1.450012,-64.524994 0.878998,-129.725006 -3.910004,-196.328979l-20.336975,-67.269012c-12.044006,-14.186005 -23.529022,-28.649994 -27.377014,-46.931992z" fill="#D6D6D6" id="path2654"/>
  <path d="m425.901001,323.825989c-4.122009,18.406006 -7.806,37.031006 -17.98999,52.406006c11.057983,-6.552002 21.263977,-9.701019 31.287994,-12.123016c-0.487,-5.461975 5.845001,-11.897003 12.514984,-18.381989c-20.010986,4.107025 -20.444977,-11.362976 -25.812988,-21.901001l0,0z" fill="#CACACA" id="path2648"/>
  <path d="m420.816986,316.395996c-9.648987,-9.809998 -25.076996,-4.661987 -52.406006,31.287018c18.200012,3.646973 31.591003,74.538971 3.128021,95.427979l75.872986,-1.955994c-34.405975,-58.976013 -41.186981,-99.144012 -26.595001,-124.759003z" fill="#E2E2E2" id="path2517"/>
  <path d="m256.074005,187.052994l17.171997,19.192993c-1.300995,108.438004 -3.539978,216.563004 -1.009979,326.278976l-29.800018,18.688049c-2.819,-27.091003 -2.735992,-54.058014 -1.514999,-79.802032c5.348999,-103.921967 0.360992,-197.399994 15.153,-284.357986l0,0z" fill="#E2E2E2" id="path3810"/>
  <g id="svg_1">
   <path d="m255.567993,188.063004c-10.311005,54.880997 -8.229996,120.227982 -10.606003,181.827011c-2.830002,46.130981 -3.988998,92.260986 -5.556,138.390991c0.363998,13.80603 1.837997,27.611023 3.535995,41.416992" stroke-linecap="round" stroke-width="2" stroke="#000000" fill="none" id="path2450"/>
   <path d="m261.125,193.113998c-10.912994,69.469009 -6.449997,142.399002 -11.617004,226.779007c-0.725998,27.778992 -1.016998,65.153992 -1.514999,83.337006c-0.651993,17.470978 1.466003,31.355988 1.514999,42.931976" stroke-linecap="round" stroke-width="2" stroke="#000000" fill="none" id="path3222"/>
   <path d="m265.165009,198.164993c-5.359009,75.863998 -6.652008,158.507004 -8.080994,240.921005c-0.167999,17.506989 0.673004,38.326996 -0.505005,55.054016c-0.848007,15.488983 0.115997,31.482971 0.505005,46.971985" stroke-linecap="round" stroke-width="2" stroke="#000000" fill="none" id="path3224"/>
   <path d="m269.205994,201.953003c-0.395996,63.303009 -3.459991,126.354004 -5.050995,189.656006l0.505005,145.461975" stroke-linecap="round" stroke-width="2" stroke="#000000" fill="none" id="path3226"/>
   <path d="m273.751007,207.255997c-0.391998,67.12001 -1.362,132.147018 -3.031006,197.990005l1.263,122.102997c-0.075989,2.117981 0.412994,4.109985 -0.630981,5.807983" stroke-linecap="round" stroke-width="2" stroke="#000000" fill="none" id="path3228"/>
  </g>
  <path d="m226.526993,566.36499c6.224991,10.91803 12.468002,21.802002 12.121994,45.203979c3.906998,25.977051 7.673996,52.093994 9.597,80.054993" stroke-linecap="round" stroke-width="2" stroke="#000000" fill="none" id="path3230"/>
  <path d="m292.438995,574.445984c-1.699005,4.450012 -7.544983,5.937988 -13.889008,7.070984c-10.505981,1.262024 -15.040985,36.546997 -9.343994,70.710999c1.235992,5.388 2.369995,52.19104 2.778015,78.287048" stroke-linecap="round" stroke-width="2" stroke="#000000" fill="none" id="path3232"/>
  <path d="m368.705994,471.411011c6.919006,-3.25 11.113007,-8.391998 17.424988,-11.617004" stroke-linecap="round" stroke-width="2" stroke="#000000" fill="none" id="path3337"/>
  <path d="m422.748993,457.016998c-7.821991,1.098999 -15.386017,2.369995 -21.213989,4.798004c-4.52002,3.528992 -11.459015,6.998993 -13.384003,12.122009" stroke-linecap="round" stroke-width="2" stroke="#000000" fill="none" id="path3339"/>
  <path d="m410.373993,450.450012c-16.270996,1.562988 -31.649017,1.343994 -55.053009,17.173004" stroke-linecap="round" stroke-width="2" stroke="#000000" fill="none" id="path3341"/>
  <path d="m387.140991,448.683014c-15.891998,1.031982 -30.312988,5.981995 -44.194,12.373993" stroke-linecap="round" stroke-width="2" stroke="#000000" fill="none" id="path3343"/>
  <path d="m330.825012,459.289001c14.559998,-8.045013 32.082001,-13.666992 54.042999,-15.657013" stroke-linecap="round" stroke-width="2" stroke="#000000" fill="none" id="path3345"/>
  <path d="m392.444,460.804993c7.187988,-3.394989 16.804993,-7.795013 36.36499,-8.334015c7.105011,0.117004 19.581024,-1.885986 30.305023,-4.54599" stroke-linecap="round" stroke-width="2" stroke="#000000" fill="none" id="path3347"/>
  <path d="m434.36499,446.661987c9.519012,-1.14801 16.934998,-2.997009 24.496002,-4.798004" stroke-linecap="round" stroke-width="2" stroke="#000000" fill="none" id="path3349"/>
  <path d="m544.724976,-2.351c1.272034,35.674002 -2.012024,70.208002 -6.060974,104.550997" stroke-linecap="round" stroke-width="2" stroke="#000000" fill="none" id="path3357"/>
  <path d="m549.270996,122.655998c-9.388,-15.632996 -17.333008,-32.295998 -25.075989,-47.952995c-13.300995,-27.537003 -24.550995,-64.708003 -30.735016,-75.538003" stroke-linecap="round" stroke-width="2" stroke="#000000" fill="none" id="path3359"/>
  <g id="svg_2">
   <path d="m509.117004,136.544998c-8.618011,-12.284996 -9.985992,-26.745995 -16.667999,-38.386002c-8.300995,-22.980995 -20.371002,-45.962006 -24.748993,-68.184996c-2.827026,-9.26 -8.968018,-21.550001 -15.657013,-32.325001" stroke-linecap="round" stroke-width="2" stroke="#000000" fill="none" id="path3361"/>
   <path d="m475.276001,141.595993c1.645996,-22.342003 -1.151001,-44.158005 -9.596008,-65.155006c-6.647003,-16.498997 -13.209991,-32.997997 -19.192993,-49.497997c-3.76001,-11.11 -8.717987,-19.890999 -13.131989,-29.041999" stroke-linecap="round" stroke-width="2" stroke="#000000" fill="none" id="path3363"/>
   <path d="m414.415009,-1.34c5.847015,8.511 13.04599,21.752001 20.203003,34.849998c9.470001,14.311001 14.338989,37.825001 19.950012,59.852001c2.948975,15.657997 3.195984,31.315002 0.757996,46.972" stroke-linecap="round" stroke-width="2" stroke="#000000" fill="none" id="path3365"/>
   <path d="m397.242004,-0.583c11.391998,15.388 22.484009,30.866001 27.273987,48.235c7.692017,23.990997 14.658997,47.982002 11.111023,71.973c-4.39801,27.893005 -8.373016,54.654999 -6.818024,66.669998" stroke-linecap="round" stroke-width="2" stroke="#000000" fill="none" id="path3367"/>
   <path d="m439.164001,156.748993c-4.56601,1.806 -9.218994,3.502991 -9.850006,10.227997" stroke-linecap="round" stroke-width="2" stroke="#000000" fill="none" id="path3369"/>
   <path d="m384.109985,-2.098c7.756012,10.478 15.295013,21.821 21.718994,37.627999c2.553009,3.900002 4.413025,11.269001 6.313019,18.436001c5.230988,24.278004 13.578979,50.217999 9.343994,69.448002c-3.598999,15.332993 -6.65799,30.725006 -4.292999,46.720001" stroke-linecap="round" stroke-width="2" stroke="#000000" fill="none" id="path3371"/>
   <path d="m539.927002,138.313004c-13.492004,-19.088005 -28.963989,-38.416 -34.851013,-55.55899c-9.529999,-26.294014 -21.566986,-55.111004 -35.859985,-83.085003" stroke-linecap="round" stroke-width="2" stroke="#000000" fill="none" id="path3373"/>
   <path d="m479.821991,-0.33c9.993988,17.274 18.287994,34.832998 24.243988,52.780001c1.846008,13.596996 7.965027,26.124996 15.152039,38.385998l15.403992,19.445999c9.924011,8.793999 17.346985,18.143997 21.212952,28.283997" stroke-linecap="round" stroke-width="2" stroke="#000000" fill="none" id="path3375"/>
   <path d="m424.643005,195.785995c-5.380005,8.014008 -2.040985,16.753998 3.929016,25.714005c7.185974,11.455994 10.263977,17.983002 21.78598,34.643005c11.420013,12.313995 21.606018,14.755981 32.143005,20" stroke-linecap="round" stroke-width="2" stroke="#000000" fill="none" id="path3377"/>
   <path d="m535,267.571014c-24.606995,61.601013 -27.421997,129.14502 -20.713989,199.286011c0.421997,25.827972 13.161987,50.743988 8.570984,74.999969" stroke-linecap="round" stroke-width="2" stroke="#000000" fill="none" id="path3379"/>
   <path d="m513.570984,533.286011c-1.789001,-30.537994 -7.757019,-61.735992 -9.285004,-91.428986c-3.160004,-53.515015 -3.782013,-109.284027 9.999969,-177.856995" stroke-linecap="round" stroke-width="2" stroke="#000000" fill="none" id="path3381"/>
   <path d="m502.856995,529.713989c-1.88501,-43.381989 -8.213013,-88.630005 -10.356995,-132.5c-1.770996,-44.859009 -0.846008,-90.259003 2.142975,-136.071014" stroke-linecap="round" stroke-width="2" stroke="#000000" fill="none" id="path3383"/>
   <path d="m491.786011,528.643005c0.612,-41.665985 -4.731995,-83.333008 -7.5,-125c-4.097992,-40.044006 -2.265015,-82.018005 -7.144012,-114.285004c-1.968994,-13.213989 -4.853973,-26.429016 -3.213989,-39.643005" stroke-linecap="round" stroke-width="2" stroke="#000000" fill="none" id="path3385"/>
   <path d="m481.071014,533.286011c-0.140991,-49.763 -1.303009,-99.523987 -7.5,-149.28598c-2.713989,-31.905029 -2.781006,-66.016022 -10.713989,-93.571014c-4.57901,-15.678009 -10.245026,-31.286987 -10.357025,-46.071991" stroke-linecap="round" stroke-width="2" stroke="#000000" fill="none" id="path3387"/>
   <path d="m470.713989,542.570984c-0.658997,-57.584015 -0.816986,-115.067993 -6.071014,-173.571014c-2.776978,-22.737976 -5.638977,-45.47699 -12.142975,-68.213989c-3.056,-12.949982 -9.614014,-24.731995 -15.357025,-36.78598c-4.849976,-13.653015 -9.070984,-27.149017 -6.428986,-38.929016" stroke-linecap="round" stroke-width="2" stroke="#000000" fill="none" id="path3389"/>
  </g>
  <path d="m459.286011,549.713989c2.921997,-57.5 1.477997,-115 -3.214996,-172.5c0.643982,-28.243988 -9.007996,-50.053986 -15.356995,-73.928009c-2.658997,-12.684998 -11.067017,-23.453979 -19.285004,-34.28598c-6.792999,-10.238007 -10.169006,-20.476013 -13.214996,-30.714005" stroke-linecap="round" stroke-width="2" stroke="#000000" fill="none" id="path3391"/>
  <path d="m561.140015,249.682999c-7.330994,34.014999 -29.445007,63.633987 -35.35498,107.581009c-3.475037,39.052979 -6.710999,77.523987 -3.030029,119.703003c0.535034,12.458984 3.963989,24.916992 7.071045,37.376007c3.734985,8.125977 4.312988,17.305969 4.039978,26.768982" stroke-linecap="round" stroke-width="2" stroke="#000000" fill="none" id="path3393"/>
  <path d="m373.756012,-2.351c19.888,28.707001 27.602997,60.733999 32.829987,93.438998c4.388,19.024002 2.184998,38.048996 0,57.072998" stroke-linecap="round" stroke-width="2" stroke="#000000" fill="none" id="path3397"/>
  <g id="svg_3">
   <path d="m502.550995,19.872999l2.27301,-21.212999" stroke-linecap="round" stroke-width="2" stroke="#000000" fill="none" id="path3351"/>
   <path d="m516.187988,-0.835c0.572021,15.267 -0.997986,30.103999 -3.786987,44.698998" stroke-linecap="round" stroke-width="2" stroke="#000000" fill="none" id="path3353"/>
   <path d="m529.572021,-1.593c-0.015015,26.364999 -1.585999,52.342001 -4.29303,78.034002" stroke-linecap="round" stroke-width="2" stroke="#000000" fill="none" id="path3355"/>
   <path d="m394.463989,42.348999c-12.875,-18.497999 -30.822998,-30.229999 -47.47699,-43.688999" stroke-linecap="round" stroke-width="2" stroke="#000000" fill="none" id="path3395"/>
   <path d="m403.303986,75.179001c-11.677002,-19.583 -29.520996,-33.374001 -47.72998,-47.729c-13.53302,-9.934 -26.616028,-19.867001 -34.850006,-29.800001" stroke-linecap="round" stroke-width="2" stroke="#000000" fill="none" id="path3399"/>
   <path d="m408.605988,104.473c-10.277985,-19.605003 -38.923004,-44.855 -63.134003,-63.891998c-18.565002,-12.172001 -33.264008,-27.243001 -46.46698,-43.437001" stroke-linecap="round" stroke-width="2" stroke="#000000" fill="none" id="path3401"/>
   <path d="m410.122009,116.342003c-20.32901,-25.415001 -39.026001,-37.780006 -58.083984,-53.033005c-27.22702,-19.442997 -52.817017,-40.054998 -70.710022,-66.164998" stroke-linecap="round" stroke-width="2" stroke="#000000" fill="none" id="path3403"/>
   <path d="m264.660004,-2.351c9.233002,17.741 27.425995,38.767 76.770996,71.215998c22.859009,17.104004 47.951996,28.251999 67.175018,55.053001" stroke-linecap="round" stroke-width="2" stroke="#000000" fill="none" id="path3405"/>
   <path d="m406.080994,138.061005c-19.920013,-33.563004 -49.151001,-48.505005 -76.770996,-66.669998c-43.27301,-26.704998 -64.028015,-49.702997 -79.297012,-73.740996" stroke-linecap="round" stroke-width="2" stroke="#000000" fill="none" id="path3407"/>
  </g>
  <path d="m234.860001,-2.351c19.173996,33.008 48.173996,60.598002 88.893997,82.833002c26.601013,14.710999 52.19101,35.002998 79.802002,62.124992" stroke-linecap="round" stroke-width="2" stroke="#000000" fill="none" id="path3409"/>
  <path d="m450.02301,346.403992c-4.618988,5.471985 -10.222015,10.942993 -10.354004,16.415009" stroke-linecap="round" stroke-width="2" stroke="#000000" fill="none" id="path3411"/>
  <path d="m443.709991,346.657013l-11.112,18.436005" stroke-linecap="round" stroke-width="2" stroke="#000000" fill="none" id="path3413"/>
  <path d="m438.153015,345.647003l-10.353027,21.466003" stroke-linecap="round" stroke-width="2" stroke="#000000" fill="none" id="path3415"/>
  <path d="m433.859985,342.364014l-11.110992,27.020996" stroke-linecap="round" stroke-width="2" stroke="#000000" fill="none" id="path3417"/>
  <path d="m430.325012,335.292999l-12.122009,33.588013" stroke-linecap="round" stroke-width="2" stroke="#000000" fill="none" id="path3419"/>
  <path d="m425.273987,323.928986c-1.910004,12.795013 -3.980011,25.591003 -9.850006,38.386017" stroke-linecap="round" stroke-width="2" stroke="#000000" fill="none" id="path3421"/>
  <g id="svg_4">
   <path d="m419.466003,316.352997c-17.003998,42.675018 8.165985,88.937988 27.273987,124.248993" stroke-linecap="round" stroke-width="2" stroke="#000000" fill="none" id="path3423"/>
   <path d="m413.657013,317.61499c-15.388,41.626007 9.778992,87.765991 25.506989,121.471008" stroke-linecap="round" stroke-width="2" stroke="#000000" fill="none" id="path3425"/>
   <path d="m404.56601,321.656006c-3.662994,48.192993 9.18399,79.876984 21.213013,112.378998c0.686981,1.936981 1.242981,3.872986 1.263,5.80899" stroke-linecap="round" stroke-width="2" stroke="#000000" fill="none" id="path3427"/>
   <path d="m414.794006,440.854004c1.462006,-2.735016 1.160004,-5.471008 0.631012,-8.207001c-8.565002,-31.162018 -15.244995,-65.622009 -18.434998,-106.192017" stroke-linecap="round" stroke-width="2" stroke="#000000" fill="none" id="path3429"/>
   <path d="m402.54599,440.854004c3.77301,-2.541016 3.43399,-5.769012 3.28299,-8.964996c-3.764984,-45.632996 -9.368988,-79.916016 -17.173004,-100.636993" stroke-linecap="round" stroke-width="2" stroke="#000000" fill="none" id="path3431"/>
   <path d="m390.424011,442.622009c12.783997,-8.875 7.402008,-41.244995 6.56601,-51.265991c-2.236023,-18.723999 -7.113007,-41.294006 -16.415009,-55.811005" stroke-linecap="round" stroke-width="2" stroke="#000000" fill="none" id="path3433"/>
   <path d="m378.302002,442.115997c10.708008,-5.492004 18.411011,-22.888 15.910004,-43.18399c-2.563995,-24.27002 -7.266998,-45.332001 -19.192993,-55.559021" stroke-linecap="round" stroke-width="2" stroke="#000000" fill="none" id="path3435"/>
   <path d="m368.958008,347.161987c6.484009,2.18399 10.94101,8.76001 13.38501,19.697998c5.923004,26.507019 13.579987,53.087006 -11.869019,78.287018" stroke-linecap="round" stroke-width="2" stroke="#000000" fill="none" id="path3437"/>
  </g>
  <path d="m445.981995,440.60199c-42.895996,2.710999 -94.597992,0.263 -122.481018,10.10199" stroke-linecap="round" stroke-width="2" stroke="#000000" fill="none" id="path3439"/>
  <path d="m271.479004,454.238007c15.527008,-0.888 30.518005,-2.312012 44.699005,-4.54599" stroke-linecap="round" stroke-width="2" stroke="#000000" fill="none" id="path3441"/>
  <path d="m286.252014,447.673004c-4.666992,0.251984 -9.516998,0.505005 -14.520996,0.756989" stroke-linecap="round" stroke-width="2" stroke="#000000" fill="none" id="path3443"/>
  <path d="m274.761993,444.136993c-0.778015,-0.337006 -1.59201,-0.673004 -3.031006,-1.01001" stroke-linecap="round" stroke-width="2" stroke="#000000" fill="none" id="path3445"/>
  <path d="m241.552994,431.889008c-10.604004,-3.031982 -18.554001,-8.720001 -25.126999,-15.78299" stroke-linecap="round" stroke-width="2" stroke="#000000" fill="none" id="path3447"/>
  <path d="m241.048004,438.580994c-9.692001,-2.649994 -17.960999,-7.197998 -24.623001,-13.890015" stroke-linecap="round" stroke-width="2" stroke="#000000" fill="none" id="path3449"/>
  <path d="m217.182999,430.752991c6.550995,7.056 14.367996,11.420013 23.612,12.752991" stroke-linecap="round" stroke-width="2" stroke="#000000" fill="none" id="path3451"/>
  <path d="m218.192993,439.59201c6.257996,6.299988 14.360001,8.605011 22.60199,10.605988" stroke-linecap="round" stroke-width="2" stroke="#000000" fill="none" id="path3453"/>
  <path d="m544.851013,403.352997c-0.862976,6.339996 -1.458008,12.839996 -6.565002,15.908997c-5.322998,3.476013 -10.755981,6.623016 -16.414978,9.09201" stroke-linecap="round" stroke-width="2" stroke="#000000" fill="none" id="path3455"/>
  <path d="m521.744019,423.177002c7.257019,-2.992004 12.856995,-6.605988 17.424988,-10.606995" stroke-linecap="round" stroke-width="2" stroke="#000000" fill="none" id="path3457"/>
  <path d="m525.153015,368.122986c8.359985,2.170013 16.421021,5.278015 19.823975,22.980011c-0.563965,12.596985 -10.346008,18.609985 -22.602966,22.85498" stroke-linecap="round" stroke-width="2" stroke="#000000" fill="none" id="path3459"/>
  <path d="m526.479004,354.106995l0.567993,13.763" stroke-linecap="round" stroke-width="2" stroke="#000000" fill="none" id="path3461"/>
  <path d="m531.46698,333.145996l1.01001,37.123016" stroke-linecap="round" stroke-width="2" stroke="#000000" fill="none" id="path3463"/>
  <path d="m538.789978,375.572998l-1.137024,-62.882996" stroke-linecap="round" stroke-width="2" stroke="#000000" fill="none" id="path3465"/>
  <path d="m271.479004,412.316986c42.479004,16.438995 76.192993,4.390991 113.894989,5.303009" stroke-linecap="round" stroke-width="2" stroke="#000000" fill="none" id="path3467"/>
  <path d="m271.983002,397.416992c15.819,-9.563995 37.612,-3.769012 57.832001,-2.019989c17.411011,1.191986 35.747986,1.458984 57.830994,-2.021027" stroke-linecap="round" stroke-width="2" stroke="#000000" fill="none" id="path3469"/>
  <path d="m432.851013,412.821991c8.333984,-1.328003 16.666992,-2.613007 25.001007,-6.56601" stroke-linecap="round" stroke-width="2" stroke="#000000" fill="none" id="path3471"/>
  <path d="m419.971008,381.76001c11.53299,-2.272003 23.402008,-3.029999 35.608002,-2.272003" stroke-linecap="round" stroke-width="2" stroke="#000000" fill="none" id="path3473"/>
  <path d="m445.225006,436.812988c4.971008,-0.371002 9.593018,-1.438995 13.890015,-3.157013" stroke-linecap="round" stroke-width="2" stroke="#000000" fill="none" id="path3475"/>
  <path d="m271.730988,438.580994c30.335999,1.842987 57.873016,-2.848999 86.367981,-5.304016" stroke-linecap="round" stroke-width="2" stroke="#000000" fill="none" id="path3477"/>
  <path d="m267.690002,39.570999c1.727997,12.722 1.626984,24.987 -2.020996,36.365997c-3.95401,9.096001 -4.647003,24.713005 -6.061005,38.891006c-0.643005,8.695999 -2.196991,17.000992 -12.122009,21.718002c-20.034988,11.405991 -38.514999,24.755997 -37.375,62.628998c1.347,5.388 0,10.10199 -4.040985,14.14299c-27.042007,18.096008 -20.074005,109.134003 39.395996,122.733002" stroke-linecap="round" stroke-width="3" stroke="#000000" fill="none" id="path3479"/>
  <path d="m244.709,344.636993c-19.828003,-12.880005 -36.274994,-27.549011 -44.699005,-46.46701" stroke-linecap="round" stroke-width="3" stroke="#000000" fill="none" id="path3481"/>
  <path d="m407.09201,144.878998c-6.481995,10.158997 -6.813995,89.869003 8.838989,103.035995" stroke-linecap="round" stroke-width="3" stroke="#000000" fill="none" id="path3483"/>
  <path d="m404.56601,219.125c-10.816986,8.677002 -18.113007,18.862 -24.243988,29.546997c-2.479004,6.335999 -8.709015,10.798004 -15.152008,15.152008c-11.714996,2.770996 -10.606995,15.962006 -12.122009,27.020996c0.972992,23.638 -35.533997,53.121002 -80.054993,48.993011" stroke-linecap="round" stroke-width="3" stroke="#000000" fill="none" id="path3485"/>
  <path d="m549.270996,125.181c19.739014,8.492996 26.875,23.084 25.759033,41.669006c-0.665039,17.677994 6.518982,36.365997 1.515991,54.547989c-5.151001,21.575012 -13.968994,43.412003 -28.537048,65.660019" stroke-linecap="round" stroke-width="3" stroke="#000000" fill="none" id="path3487"/>
  <path d="m289.408997,638.59198c8.002991,23.812988 8.562012,58.051025 10.10199,90.913025" stroke-linecap="round" stroke-width="3" stroke="#000000" fill="none" id="path3489"/>
  <path d="m331.329987,558.789001c35.44101,26.567017 47.205017,66.882996 40.911011,117.682983c-4.085022,17.312012 -2.641022,38.309998 -3.029999,58.084045" stroke-linecap="round" stroke-width="3" stroke="#000000" fill="none" id="path3491"/>
  <path d="m526.289001,398.174988c10.080017,-3.958984 12.708984,-12.302002 11.364014,-22.980011" stroke-linecap="round" stroke-width="3" stroke="#000000" fill="none" id="path3493"/>
  <path d="m539.421997,419.389008c1.893005,20.285004 7.101013,37.645996 -1.768982,67.428009c-1.309998,4.188995 -2.142029,8.772003 -5.808044,12.121002c-5.625977,5.15799 -4.45697,12.830994 -8.838989,18.688019" stroke-linecap="round" stroke-width="3" stroke="#000000" fill="none" id="path3495"/>
  <path d="m530.835022,513.080017c3.723999,8.817017 10.323975,17.827026 4.546021,26.012024c-3.051025,7.133972 -2.361023,17.237976 -9.597046,29.79895c6.057007,7.233032 -9.031982,26.006042 -10.605957,42.932007l-15.657013,119.450012" stroke-linecap="round" stroke-width="3" stroke="#000000" fill="none" id="path3497"/>
  <path d="m272.5,358.643005c49.539001,24.575012 80.649994,8.694 103.213989,-18.929016c18.571014,-26.122986 40.357025,-41.832977 53.572021,-9.285004c5.187988,17.762024 13.93399,16.846039 22.855988,15" stroke-linecap="round" stroke-width="3" stroke="#000000" fill="none" id="path3499"/>
  <path d="m380.356995,432.928986c-25.403015,-2.234985 -48.729004,-0.315002 -71.786011,2.143005c-7.440002,1.139008 -24.52298,0.341003 -36.78598,-1.429016" stroke-linecap="round" stroke-width="3" stroke="#000000" fill="none" id="path3501"/>
  <path d="m240.535995,425.071014c-18.44899,-5.783997 -42.544998,-33.032013 3.036011,-40.356995" stroke-linecap="round" stroke-width="3" stroke="#000000" fill="none" id="path3503"/>
  <path d="m217.5,404.356995c-0.822998,9.609009 -1.074997,20.645996 0,35l0.714005,26.429016c-1.210007,8.030975 4.901001,20.182983 18.929001,36.785004l0.356995,5c-20.343002,14.689972 -27.496002,39.371979 -16.429001,77.856964c2.794006,12.920044 4.822998,26.605042 5.714005,41.429016c0.412003,12.14801 6.293991,29.147034 7.14299,47.5l-0.713989,62.5" stroke-linecap="round" stroke-width="3" stroke="#000000" fill="none" id="path3505"/>
  <path d="m272.143005,517.570984c3.615997,6.525024 13.335999,9.10498 18.570984,17.856995c8.322998,10.132019 18.933014,29.265991 13.571014,47.856018c-18.476013,31.750977 -18.389008,91.346008 -20.356995,147.856995" stroke-linecap="round" stroke-width="3" stroke="#000000" fill="none" id="path3507"/>
  <path d="m272.321014,382.928986c22.535004,-4.645996 91.167999,5.511993 110.713989,-3.214996" stroke-linecap="round" stroke-width="3" stroke="#000000" fill="none" id="path3509"/>
  <path d="m453.928986,359.713989c-12.261993,2.440002 -24.523987,6.489014 -36.786011,11.786011" stroke-linecap="round" stroke-width="3" stroke="#000000" fill="none" id="path3511"/>
  <path d="m458.928986,424c-5.621002,1.522003 -11.641998,2.644989 -18.214996,3.213989" stroke-linecap="round" stroke-width="3" stroke="#000000" fill="none" id="path3513"/>
  <g id="svg_5">
   <path d="m89.041,96.644997h199.863022" stroke-linecap="round" stroke-width="3" stroke="#FF0303" fill="none" id="path3720"/>
   <path d="m138.391006,33.509998h154.047989" stroke-linecap="round" stroke-width="3" stroke="#FF0303" fill="none" id="path3722"/>
   <path d="m110.612,288.067993h295.973999" stroke-linecap="round" stroke-width="3" stroke="#FF0303" fill="none" id="path3724"/>
   <path d="m175.686005,331h177.867004" stroke-linecap="round" stroke-width="3" stroke="#FF0303" fill="none" id="path3726"/>
   <path d="m196.947998,358.778992h233.881989" stroke-linecap="round" stroke-width="3" stroke="#FF0303" fill="none" id="path3728"/>
   <path d="m190.988998,408.781006h216.607986" stroke-linecap="round" stroke-width="3" stroke="#FF0303" fill="none" id="path3730"/>
   <path d="m193.597,474.44101h61.466995" stroke-linecap="round" stroke-width="3" stroke="#FF0303" fill="none" id="path3732"/>
   <path d="m85.741997,650.208008h168.815987" stroke-linecap="round" stroke-width="3" stroke="#FF0303" fill="none" id="path3734"/>
   <path d="m75.231003,702.736023h328.828995" stroke-linecap="round" stroke-width="3" stroke="#FF0303" fill="none" id="path3736"/>
   <path d="m498.510986,462.825012h101.52002" stroke-linecap="round" stroke-width="3" stroke="#FF0303" fill="none" id="path3738"/>
   <path d="m600.030029,390.598999h-69.195007" stroke-linecap="round" stroke-width="3" stroke="#FF0303" fill="none" id="path3740"/>
   <path d="m599.763,344.636993h-59.093994" stroke-linecap="round" stroke-width="3" stroke="#FF0303" fill="none" id="path3742"/>
   <path d="m600.536011,191.093994h-75.762024" stroke-linecap="round" stroke-width="3" stroke="#FF0303" fill="none" id="path3744"/>
   <path d="m599.525024,60.278999h-129.300018" stroke-linecap="round" stroke-width="3" stroke="#FF0303" fill="none" id="path3746"/>
  </g>
  <path d="m535.380981,388.641998c0,3.312988 -2.685974,5.998016 -5.997986,5.998016s-5.997986,-2.686005 -5.997986,-5.998016s2.685974,-5.997009 5.997986,-5.997009s5.997986,2.684021 5.997986,5.997009l0,0z" fill="#FF0707" id="path3756"/>
  <g id="svg_6">
   <path d="m476.917999,60.469002c0,3.313 -2.684998,5.998001 -5.997009,5.998001s-5.997986,-2.686005 -5.997986,-5.998001s2.686005,-5.998001 5.997986,-5.998001s5.997009,2.684998 5.997009,5.998001l0,0z" fill="#FF0707" id="path3750"/>
   <path d="m530.835999,191.410004c0,3.313004 -2.685974,5.998001 -5.997986,5.998001s-5.997986,-2.686005 -5.997986,-5.998001c0,-3.311996 2.685974,-5.998001 5.997986,-5.998001s5.997986,2.686005 5.997986,5.998001l0,0z" fill="#FF0707" id="path3752"/>
   <path d="m540.747986,345.647003c0,3.312988 -2.684998,5.997986 -5.997009,5.997986s-5.997986,-2.685974 -5.997986,-5.997986s2.685974,-5.998016 5.997986,-5.998016s5.997009,2.686005 5.997009,5.998016l0,0z" fill="#FF0707" id="path3754"/>
   <path d="m504.822998,463.393005c0,3.313019 -2.684998,5.998016 -5.997009,5.998016s-5.997986,-2.686005 -5.997986,-5.998016s2.686005,-5.997009 5.997986,-5.997009s5.997009,2.68399 5.997009,5.997009l0,0z" fill="#FF0707" id="path3758"/>
   <path d="m410.627991,703.052002c0,3.312988 -2.686005,5.997986 -5.997986,5.997986s-5.998016,-2.685974 -5.998016,-5.997986s2.686005,-5.997986 5.998016,-5.997986s5.997986,2.684998 5.997986,5.997986l0,0z" fill="#FF0707" id="path3760"/>
   <path d="m260.365997,650.648987c0,3.312988 -2.684998,5.997986 -5.998001,5.997986s-5.998001,-2.685974 -5.998001,-5.997986s2.684998,-5.997009 5.998001,-5.997009s5.998001,2.684998 5.998001,5.997009l0,0z" fill="#FF0707" id="path3762"/>
   <path d="m261.755005,474.756989c0,3.312988 -2.684998,5.998016 -5.998001,5.998016s-5.998001,-2.686005 -5.998001,-5.998016s2.686005,-5.997986 5.998001,-5.997986s5.998001,2.684998 5.998001,5.997986l0,0z" fill="#FF0707" id="path3764"/>
   <path d="m414.971008,408.86499c0,3.312988 -2.686005,5.997009 -5.997986,5.997009s-5.998016,-2.684998 -5.998016,-5.997009s2.686005,-5.997986 5.998016,-5.997986s5.997986,2.686005 5.997986,5.997986l0,0z" fill="#FF0707" id="path3766"/>
   <path d="m436.006012,359.042999c0,3.312988 -2.686005,5.997986 -5.998016,5.997986s-5.997986,-2.685974 -5.997986,-5.997986s2.686005,-5.997986 5.997986,-5.997986s5.998016,2.684998 5.998016,5.997986l0,0z" fill="#FF0707" id="path3768"/>
   <path d="m359.221008,331.186005c0,3.312988 -2.686005,5.997986 -5.997986,5.997986s-5.998016,-2.686005 -5.998016,-5.997986s2.686005,-5.997009 5.998016,-5.997009s5.997986,2.68399 5.997986,5.997009l0,0z" fill="#FF0707" id="path3770"/>
   <path d="m412.434998,288.149994c0,3.312988 -2.686005,5.997986 -5.997986,5.997986s-5.998016,-2.684998 -5.998016,-5.997986s2.686005,-5.998016 5.998016,-5.998016s5.997986,2.685028 5.997986,5.998016l0,0z" fill="#FF0707" id="path3772"/>
   <path d="m295.463989,96.737c0,3.313004 -2.684998,5.998001 -5.997986,5.998001s-5.998016,-2.684998 -5.998016,-5.998001s2.686005,-5.998001 5.998016,-5.998001s5.997986,2.685005 5.997986,5.998001l0,0z" fill="#FF0707" id="path3774"/>
   <path d="m299.036987,33.521999c0,3.313 -2.686005,5.998001 -5.997986,5.998001s-5.998016,-2.685001 -5.998016,-5.998001s2.684998,-5.997999 5.998016,-5.997999s5.997986,2.684999 5.997986,5.997999l0,0z" fill="#FF0707" id="path3776"/>
  </g>
  <text id="svg_7" font-size="22" font-family="'ArialNarrow'" transform="matrix(1 0 0 1 608.543 66.4863)">Quadriceps</text>
  <text id="svg_8" font-size="22" font-family="'ArialNarrow'" transform="matrix(1 0 0 1 608.543 93.9863)">tendon</text>
  <text fill="black" id="svg_9" font-size="22" font-family="'ArialNarrow'" transform="matrix(1, 0, 0, 1, 608.543, 197.894)">Patella</text>
  <text id="svg_11" font-size="22" font-family="'ArialNarrow'" transform="matrix(1 0 0 1 608.543 340.3574)">Medial collateral</text>
  <text id="svg_12" font-size="22" font-family="'ArialNarrow'" transform="matrix(1 0 0 1 608.543 364.8398)">ligament</text>
  <text id="svg_13" font-size="22" font-family="'ArialNarrow'" transform="matrix(1 0 0 1 608.543 402.8672)">Meniscus</text>
  <text id="svg_14" font-size="22" font-family="'ArialNarrow'" transform="matrix(1 0 0 1 608.543 467.749)">Patellar tendon</text>
  <text id="svg_15" font-size="22" font-family="'ArialNarrow'" transform="matrix(1 0 0 1 608.543 495.249)">(Ligament)</text>
  <text id="svg_16" font-size="22" font-family="'ArialNarrow'" transform="matrix(1 0 0 1 19.6934 38.8311)">Quadriceps</text>
  <text id="svg_17" font-size="22" font-family="'ArialNarrow'" transform="matrix(1 0 0 1 19.6934 66.3311)">muscles</text>
  <text id="svg_18" font-size="22" font-family="'ArialNarrow'" transform="matrix(1 0 0 1 19.6934 101.8838)">Femur</text>
  <text id="svg_19" font-size="22" font-family="'ArialNarrow'" transform="matrix(1 0 0 1 19.6934 266.7051)">Articular</text>
  <text id="svg_20" font-size="22" font-family="'ArialNarrow'" transform="matrix(1 0 0 1 19.6934 294.2051)">cartilage</text>
  <text id="svg_21" font-size="22" font-family="'ArialNarrow'" transform="matrix(1 0 0 1 19.6934 331.3203)">Lateral condyle</text>
  <text id="svg_22" font-size="22" font-family="'ArialNarrow'" transform="matrix(1 0 0 1 19.6934 364.251)">Posterior cruciate</text>
  <text id="svg_23" font-size="22" font-family="'ArialNarrow'" transform="matrix(1 0 0 1 19.6934 391.751)">ligament</text>
  <text id="svg_24" font-size="22" font-family="'ArialNarrow'" transform="matrix(1 0 0 1 19.6934 420.8613)">Anterior cruciate</text>
  <text id="svg_25" font-size="22" font-family="'ArialNarrow'" transform="matrix(1 0 0 1 19.6934 448.3613)">ligament</text>
  <text id="svg_26" font-size="22" font-family="'ArialNarrow'" transform="matrix(1 0 0 1 19.6934 482.2607)">Lateral collateral</text>
  <text id="svg_27" font-size="22" font-family="'ArialNarrow'" transform="matrix(1 0 0 1 19.6934 509.7607)">ligament</text>
  <text id="svg_28" font-size="22" font-family="'ArialNarrow'" transform="matrix(1 0 0 1 19.6934 654.9746)">Fibula</text>
  <text id="svg_29" font-size="22" font-family="'ArialNarrow'" transform="matrix(1 0 0 1 19.6934 708.0723)">Tibia</text>
 </g>
</svg>