<?xml version="1.0" encoding="UTF-8" standalone="no"?>
<!-- Created with Inkscape (http://www.inkscape.org/) -->
<svg
   xmlns:dc="http://purl.org/dc/elements/1.1/"
   xmlns:cc="http://web.resource.org/cc/"
   xmlns:rdf="http://www.w3.org/1999/02/22-rdf-syntax-ns#"
   xmlns:svg="http://www.w3.org/2000/svg"
   xmlns="http://www.w3.org/2000/svg"
   xmlns:sodipodi="http://inkscape.sourceforge.net/DTD/sodipodi-0.dtd"
   xmlns:inkscape="http://www.inkscape.org/namespaces/inkscape"
   width="281pt"
   height="228pt"
   id="svg8458"
   sodipodi:version="0.32"
   inkscape:version="0.43"
   version="1.0"
   sodipodi:docbase="C:\Documents and Settings\Tntnnbltn\Desktop"
   sodipodi:docname="edd.svg">
  <defs
     id="defs8460" />
  <sodipodi:namedview
     id="base"
     pagecolor="#ffffff"
     bordercolor="#666666"
     borderopacity="1.0"
     inkscape:pageopacity="0.0"
     inkscape:pageshadow="2"
     inkscape:zoom="1"
     inkscape:cx="192.66904"
     inkscape:cy="49.592016"
     inkscape:document-units="px"
     inkscape:current-layer="layer1"
     inkscape:window-width="1024"
     inkscape:window-height="708"
     inkscape:window-x="-4"
     inkscape:window-y="-4" />
  <metadata
     id="metadata8463">
    <rdf:RDF>
      <cc:Work
         rdf:about="">
        <dc:format>image/svg+xml</dc:format>
        <dc:type
           rdf:resource="http://purl.org/dc/dcmitype/StillImage" />
      </cc:Work>
    </rdf:RDF>
  </metadata>
  <g
     inkscape:label="Layer 1"
     inkscape:groupmode="layer"
     id="layer1">
    <path
       style="font-size:20px;font-style:normal;font-variant:normal;font-weight:normal;font-stretch:normal;text-align:start;line-height:89.99999762%;writing-mode:lr-tb;text-anchor:start;fill:#000000;fill-opacity:1;stroke:none;stroke-width:1px;stroke-linecap:butt;stroke-linejoin:miter;stroke-opacity:1;font-family:Verdana"
       d="M 21.608134,22.786797 L 19.674541,22.786797 L 19.674541,15.667656 L 12.418681,15.667656 L 12.418681,22.786797 L 10.485087,22.786797 L 10.485087,8.2457809 L 12.418681,8.2457809 L 12.418681,13.948906 L 19.674541,13.948906 L 19.674541,8.2457809 L 21.608134,8.2457809 L 21.608134,22.786797 M 34.811259,11.878593 L 28.444072,26.810234 L 26.481181,26.810234 L 28.512431,22.259453 L 24.166728,11.878593 L 26.158916,11.878593 L 29.508525,19.964531 L 32.887431,11.878593 L 34.811259,11.878593 M 46.061259,22.786797 L 44.225322,22.786797 L 44.225322,21.644218 C 43.69797,22.099948 43.14784,22.454766 42.574931,22.708672 C 42.002008,22.962578 41.380264,23.089531 40.709697,23.089531 C 39.407609,23.089531 38.372454,22.588229 37.604228,21.585625 C 36.842508,20.583023 36.461649,19.19305 36.46165,17.415703 C 36.461649,16.49123 36.591857,15.667663 36.852275,14.945 C 37.1192,14.222352 37.477273,13.607118 37.926494,13.099297 C 38.369199,12.604515 38.883521,12.226911 39.469462,11.966484 C 40.061906,11.706078 40.673884,11.57587 41.3054,11.575859 C 41.87831,11.57587 42.386122,11.637719 42.828837,11.761406 C 43.271538,11.878604 43.737032,12.064151 44.225322,12.318047 L 44.225322,7.5914841 L 46.061259,7.5914841 L 46.061259,22.786797 M 44.225322,20.10125 L 44.225322,13.841484 C 43.730522,13.620139 43.287814,13.467144 42.897197,13.3825 C 42.506565,13.297874 42.080133,13.255556 41.6179,13.255547 C 40.589249,13.255556 39.788468,13.613629 39.215556,14.329765 C 38.642636,15.045919 38.356178,16.061543 38.356181,17.37664 C 38.356178,18.672217 38.577532,19.658544 39.020244,20.335625 C 39.462948,21.006199 40.172583,21.341486 41.14915,21.341484 C 41.669977,21.341486 42.19732,21.227553 42.731181,20.999687 C 43.265027,20.765314 43.763074,20.465835 44.225322,20.10125 M 56.481181,13.880547 L 56.383525,13.880547 C 56.110079,13.815451 55.843152,13.769879 55.582744,13.743828 C 55.32883,13.711285 55.026096,13.695009 54.674541,13.695 C 54.108128,13.695009 53.561254,13.821962 53.033916,14.075859 C 52.506567,14.323263 51.998755,14.645529 51.510478,15.042656 L 51.510478,22.786797 L 49.674541,22.786797 L 49.674541,11.878593 L 51.510478,11.878593 L 51.510478,13.489922 C 52.23964,12.903994 52.880916,12.490583 53.434306,12.249687 C 53.994196,12.002302 54.563857,11.878604 55.143291,11.878593 C 55.462293,11.878604 55.693413,11.88837 55.83665,11.90789 C 55.979871,11.920922 56.194714,11.950219 56.481181,11.995781 L 56.481181,13.880547 M 67.526103,17.337578 C 67.526092,19.114925 67.070363,20.517919 66.158916,21.546562 C 65.247448,22.575208 64.026746,23.089531 62.496806,23.089531 C 60.953833,23.089531 59.726621,22.575208 58.815166,21.546562 C 57.910216,20.517919 57.457743,19.114925 57.457744,17.337578 C 57.457743,15.560241 57.910216,14.157248 58.815166,13.128593 C 59.726621,12.093448 60.953833,11.57587 62.496806,11.575859 C 64.026746,11.57587 65.247448,12.093448 66.158916,13.128593 C 67.070363,14.157248 67.526092,15.560241 67.526103,17.337578 M 65.631572,17.337578 C 65.631563,15.924824 65.35487,14.876648 64.801494,14.193047 C 64.2481,13.502952 63.479872,13.1579 62.496806,13.15789 C 61.500707,13.1579 60.725969,13.502952 60.172587,14.193047 C 59.625709,14.876648 59.352272,15.924824 59.352275,17.337578 C 59.352272,18.704769 59.628964,19.74318 60.182353,20.452812 C 60.735734,21.155939 61.507218,21.507501 62.496806,21.5075 C 63.473362,21.507501 64.238335,21.159194 64.791728,20.462578 C 65.351615,19.759456 65.631563,18.71779 65.631572,17.337578 M 79.225322,21.546562 C 79.225311,23.39552 78.80539,24.75294 77.965556,25.618828 C 77.125704,26.48471 75.833387,26.917652 74.088603,26.917656 C 73.509171,26.917652 72.942765,26.875334 72.389384,26.790703 C 71.842506,26.712574 71.302142,26.598642 70.768291,26.448906 L 70.768291,24.573906 L 70.865947,24.573906 C 71.165423,24.691092 71.640683,24.834321 72.291728,25.003593 C 72.942765,25.179372 73.593806,25.267263 74.244853,25.267265 C 74.869847,25.267263 75.387424,25.192393 75.797587,25.042656 C 76.207736,24.892914 76.526746,24.684581 76.754619,24.417656 C 76.982475,24.163748 77.145235,23.857759 77.2429,23.499687 C 77.340547,23.141614 77.389375,22.741224 77.389384,22.298515 L 77.389384,21.302422 C 76.835991,21.745131 76.305392,22.077162 75.797587,22.298515 C 75.296279,22.513359 74.655003,22.620781 73.873759,22.620781 C 72.571672,22.620781 71.536517,22.152032 70.768291,21.214531 C 70.00657,20.270523 69.625711,18.942399 69.625712,17.230156 C 69.625711,16.292662 69.75592,15.485372 70.016337,14.808281 C 70.283263,14.124696 70.644591,13.535504 71.100322,13.040703 C 71.523496,12.578473 72.037818,12.220401 72.643291,11.966484 C 73.248755,11.706078 73.850968,11.57587 74.449931,11.575859 C 75.081435,11.57587 75.608778,11.640974 76.031962,11.771172 C 76.461642,11.89488 76.914116,12.086937 77.389384,12.347343 L 77.506572,11.878593 L 79.225322,11.878593 L 79.225322,21.546562 M 77.389384,19.78875 L 77.389384,13.841484 C 76.901095,13.620139 76.445366,13.463889 76.022197,13.372734 C 75.605523,13.275087 75.188857,13.226259 74.772197,13.22625 C 73.763077,13.226259 72.968807,13.564801 72.389384,14.241875 C 71.809954,14.918966 71.520241,15.902038 71.520244,17.191093 C 71.520241,18.415056 71.735084,19.34279 72.164775,19.974297 C 72.594458,20.605809 73.307348,20.921564 74.303447,20.921562 C 74.837295,20.921564 75.371148,20.820653 75.905009,20.618828 C 76.445366,20.410497 76.940157,20.133804 77.389384,19.78875 M 91.969462,17.523125 L 83.932353,17.523125 C 83.93235,18.193702 84.033261,18.779639 84.235087,19.280937 C 84.436907,19.775732 84.713599,20.182633 85.065166,20.50164 C 85.403703,20.814142 85.804093,21.048517 86.266337,21.204765 C 86.735082,21.361017 87.249404,21.439142 87.809306,21.43914 C 88.551486,21.439142 89.296928,21.292657 90.045634,20.999687 C 90.800833,20.70021 91.337942,20.407242 91.656962,20.120781 L 91.754619,20.120781 L 91.754619,22.122734 C 91.136119,22.383151 90.504609,22.60125 89.860087,22.777031 C 89.215548,22.952812 88.538465,23.040703 87.828837,23.040703 C 86.018937,23.040703 84.606178,22.552422 83.590556,21.575859 C 82.57493,20.592788 82.067118,19.199561 82.067119,17.396172 C 82.067118,15.612325 82.552143,14.19631 83.522197,13.148125 C 84.498756,12.099958 85.781307,11.57587 87.369853,11.575859 C 88.841199,11.57587 89.974011,12.005557 90.768291,12.864922 C 91.569061,13.724306 91.969451,14.945008 91.969462,16.527031 L 91.969462,17.523125 M 90.182353,16.116875 C 90.175833,15.153341 89.931693,14.407899 89.449931,13.880547 C 88.974663,13.353212 88.248752,13.089541 87.272197,13.089531 C 86.289119,13.089541 85.504614,13.379254 84.918681,13.958672 C 84.339251,14.538107 84.010475,15.257507 83.932353,16.116875 L 90.182353,16.116875 M 103.87376,22.786797 L 102.03782,22.786797 L 102.03782,16.575859 C 102.03781,16.074564 102.00852,15.605814 101.94993,15.169609 C 101.89133,14.726909 101.78391,14.381857 101.62767,14.134453 C 101.4649,13.861024 101.23052,13.659202 100.92454,13.528984 C 100.61854,13.392275 100.22141,13.323915 99.733134,13.323906 C 99.231826,13.323915 98.707738,13.447613 98.160869,13.695 C 97.613989,13.942404 97.089901,14.258159 96.588603,14.642265 L 96.588603,22.786797 L 94.752666,22.786797 L 94.752666,11.878593 L 96.588603,11.878593 L 96.588603,13.089531 C 97.161515,12.614281 97.753963,12.243187 98.365947,11.97625 C 98.97792,11.709334 99.606174,11.57587 100.25071,11.575859 C 101.42909,11.57587 102.32753,11.930688 102.94602,12.640312 C 103.5645,13.349957 103.87375,14.372091 103.87376,15.706718 L 103.87376,22.786797 M 21.715556,75.732108 C 21.35747,75.888359 21.03195,76.034843 20.738994,76.171561 C 20.452523,76.30828 20.07492,76.451509 19.606181,76.601248 C 19.209035,76.724946 18.776093,76.829113 18.307353,76.913748 C 17.845104,77.004894 17.334037,77.050467 16.77415,77.050467 C 15.719455,77.050467 14.75917,76.903983 13.893291,76.611014 C 13.033911,76.311535 12.285214,75.846041 11.647197,75.21453 C 11.022194,74.596042 10.533914,73.811538 10.182353,72.861014 C 9.8307892,71.903988 9.6550081,70.793963 9.6550093,69.530936 C 9.6550081,68.333028 9.8242788,67.262065 10.162822,66.318045 C 10.501361,65.374046 10.989642,64.576521 11.627666,63.925467 C 12.246151,63.29397 12.991593,62.8122 13.863994,62.480155 C 14.742894,62.148138 15.7162,61.982122 16.783916,61.982108 C 17.565156,61.982122 18.343151,62.076523 19.1179,62.265311 C 19.899139,62.454127 20.765023,62.786158 21.715556,63.261405 L 21.715556,65.556326 L 21.569072,65.556326 C 20.768278,64.885765 19.974008,64.397485 19.186259,64.091483 C 18.398489,63.785506 17.555391,63.632511 16.656962,63.632498 C 15.921278,63.632511 15.257216,63.752954 14.664775,63.993826 C 14.078832,64.228214 13.554744,64.596052 13.092509,65.097342 C 12.643286,65.585634 12.291724,66.204123 12.037822,66.952811 C 11.790423,67.695007 11.666725,68.554381 11.666728,69.530936 C 11.666725,70.553077 11.803443,71.431983 12.076884,72.167655 C 12.356828,72.903335 12.714901,73.502293 13.151103,73.96453 C 13.606827,74.446303 14.137426,74.804375 14.7429,75.038748 C 15.354872,75.266614 15.999403,75.380547 16.676494,75.380545 C 17.607474,75.380547 18.479869,75.221041 19.293681,74.90203 C 20.107472,74.583021 20.86919,74.104506 21.578837,73.466483 L 21.715556,73.466483 L 21.715556,75.732108 M 32.799541,76.786795 L 30.973369,76.786795 L 30.973369,75.624686 C 30.8106,75.735364 30.589246,75.891614 30.309306,76.093436 C 30.035861,76.288749 29.768934,76.444999 29.508525,76.562186 C 29.202529,76.711925 28.850966,76.835623 28.453837,76.93328 C 28.056696,77.037446 27.591202,77.089529 27.057353,77.08953 C 26.074277,77.089529 25.240944,76.764009 24.557353,76.112967 C 23.873758,75.461927 23.531961,74.631849 23.531962,73.622733 C 23.531961,72.795914 23.707742,72.128597 24.059306,71.62078 C 24.417377,71.106462 24.925189,70.702817 25.582744,70.409842 C 26.246802,70.11688 27.044328,69.918312 27.975322,69.814139 C 28.906305,69.709979 29.905653,69.631854 30.973369,69.579764 L 30.973369,69.296561 C 30.97336,68.879902 30.89849,68.53485 30.748759,68.261405 C 30.605522,67.987976 30.397189,67.773132 30.123759,67.616873 C 29.863335,67.467143 29.550836,67.366232 29.186259,67.314139 C 28.82167,67.262065 28.440811,67.236023 28.043681,67.236014 C 27.561905,67.236023 27.024796,67.301128 26.432353,67.431326 C 25.839902,67.555034 25.227923,67.737325 24.596416,67.978201 L 24.498759,67.978201 L 24.498759,66.112967 C 24.85683,66.015322 25.374407,65.9079 26.051494,65.790701 C 26.728573,65.673525 27.39589,65.614931 28.053447,65.61492 C 28.82167,65.614931 29.488987,65.680035 30.0554,65.810233 C 30.628308,65.933941 31.1231,66.148785 31.539775,66.454764 C 31.949922,66.754253 32.262421,67.141622 32.477275,67.616873 C 32.692108,68.092142 32.79953,68.681334 32.799541,69.384451 L 32.799541,76.786795 M 30.973369,74.101248 L 30.973369,71.064139 C 30.413465,71.096697 29.752658,71.145525 28.990947,71.210623 C 28.235733,71.275733 27.636775,71.370134 27.194072,71.493826 C 26.666724,71.643571 26.240292,71.877946 25.914775,72.196951 C 25.589251,72.509456 25.426491,72.942398 25.426494,73.49578 C 25.426491,74.120782 25.615293,74.592787 25.9929,74.911795 C 26.3705,75.224297 26.946672,75.380547 27.721416,75.380545 C 28.365941,75.380547 28.955133,75.256849 29.488994,75.009451 C 30.02284,74.755547 30.517631,74.452813 30.973369,74.101248 M 43.160869,67.880545 L 43.063212,67.880545 C 42.789767,67.81545 42.52284,67.769877 42.262431,67.743826 C 42.008517,67.711283 41.705783,67.695007 41.354228,67.694998 C 40.787816,67.695007 40.240941,67.82196 39.713603,68.075858 C 39.186255,68.323262 38.678443,68.645527 38.190166,69.042655 L 38.190166,76.786795 L 36.354228,76.786795 L 36.354228,65.878592 L 38.190166,65.878592 L 38.190166,67.48992 C 38.919328,66.903993 39.560603,66.490581 40.113994,66.249686 C 40.673883,66.002301 41.243544,65.878603 41.822978,65.878592 C 42.141981,65.878603 42.3731,65.888369 42.516337,65.907889 C 42.659558,65.920921 42.874402,65.950217 43.160869,65.99578 L 43.160869,67.880545 M 54.508525,71.249686 C 54.508513,72.161149 54.378305,72.98146 54.1179,73.710623 C 53.863983,74.439792 53.518931,75.051771 53.082744,75.546561 C 52.620495,76.060884 52.112683,76.448254 51.559306,76.70867 C 51.005913,76.962576 50.397189,77.089529 49.733134,77.08953 C 49.114639,77.089529 48.574275,77.014659 48.112041,76.86492 C 47.649796,76.721691 47.194068,76.526379 46.744853,76.278983 L 46.627666,76.786795 L 44.908916,76.786795 L 44.908916,61.591483 L 46.744853,61.591483 L 46.744853,67.02117 C 47.259172,66.598003 47.806046,66.252952 48.385478,65.986014 C 48.964899,65.712587 49.61594,65.575869 50.338603,65.575858 C 51.627657,65.575869 52.643281,66.07066 53.385478,67.060233 C 54.134165,68.049825 54.508513,69.446308 54.508525,71.249686 M 52.613994,71.298514 C 52.613984,69.996437 52.399141,69.01011 51.969462,68.33953 C 51.539766,67.662455 50.846408,67.323914 49.889384,67.323905 C 49.355524,67.323914 48.81516,67.441101 48.268291,67.675467 C 47.721411,67.90334 47.213599,68.199564 46.744853,68.564139 L 46.744853,74.814139 C 47.265682,75.048516 47.711645,75.211276 48.082744,75.30242 C 48.460342,75.393567 48.886774,75.43914 49.362041,75.439139 C 50.377658,75.43914 51.171928,75.107109 51.744853,74.443045 C 52.324271,73.772475 52.613984,72.724299 52.613994,71.298514 M 66.666728,71.337576 C 66.666717,73.114924 66.210988,74.517917 65.299541,75.546561 C 64.388073,76.575207 63.167371,77.089529 61.637431,77.08953 C 60.094458,77.089529 58.867246,76.575207 57.955791,75.546561 C 57.050841,74.517917 56.598368,73.114924 56.598369,71.337576 C 56.598368,69.56024 57.050841,68.157246 57.955791,67.128592 C 58.867246,66.093446 60.094458,65.575869 61.637431,65.575858 C 63.167371,65.575869 64.388073,66.093446 65.299541,67.128592 C 66.210988,68.157246 66.666717,69.56024 66.666728,71.337576 M 64.772197,71.337576 C 64.772188,69.924823 64.495495,68.876647 63.942119,68.193045 C 63.388725,67.50295 62.620497,67.157899 61.637431,67.157889 C 60.641332,67.157899 59.866594,67.50295 59.313212,68.193045 C 58.766334,68.876647 58.492897,69.924823 58.4929,71.337576 C 58.492897,72.704768 58.769589,73.743178 59.322978,74.452811 C 59.876359,75.155937 60.647843,75.5075 61.637431,75.507498 C 62.613987,75.5075 63.37896,75.159193 63.932353,74.462576 C 64.49224,73.759454 64.772188,72.717789 64.772197,71.337576 M 78.639384,76.786795 L 76.803447,76.786795 L 76.803447,70.575858 C 76.803438,70.074562 76.774141,69.605813 76.715556,69.169608 C 76.656953,68.726907 76.549532,68.381856 76.393291,68.134451 C 76.230522,67.861023 75.996147,67.6592 75.690166,67.528983 C 75.384168,67.392273 74.987033,67.323914 74.498759,67.323905 C 73.997451,67.323914 73.473363,67.447612 72.926494,67.694998 C 72.379614,67.942403 71.855526,68.258158 71.354228,68.642264 L 71.354228,76.786795 L 69.518291,76.786795 L 69.518291,65.878592 L 71.354228,65.878592 L 71.354228,67.08953 C 71.92714,66.614279 72.519588,66.243186 73.131572,65.976248 C 73.743545,65.709332 74.371799,65.575869 75.016337,65.575858 C 76.194714,65.575869 77.093151,65.930686 77.71165,66.640311 C 78.330129,67.349956 78.639373,68.37209 78.639384,69.706717 L 78.639384,76.786795 M 27.408916,116.24578 L 23.629619,130.78679 L 21.451884,130.78679 L 18.395244,118.71648 L 15.406962,130.78679 L 13.278056,130.78679 L 9.4303999,116.24578 L 11.412822,116.24578 L 14.469462,128.33562 L 17.477275,116.24578 L 19.440166,116.24578 L 22.477275,128.45281 L 25.514384,116.24578 L 27.408916,116.24578 M 38.580791,130.78679 L 36.754619,130.78679 L 36.754619,129.62468 C 36.59185,129.73536 36.370496,129.89161 36.090556,130.09343 C 35.817111,130.28875 35.550184,130.445 35.289775,130.56218 C 34.983779,130.71192 34.632216,130.83562 34.235087,130.93328 C 33.837946,131.03744 33.372452,131.08953 32.838603,131.08953 C 31.855527,131.08953 31.022194,130.76401 30.338603,130.11297 C 29.655008,129.46193 29.313211,128.63185 29.313212,127.62273 C 29.313211,126.79591 29.488992,126.1286 29.840556,125.62078 C 30.198627,125.10646 30.706439,124.70282 31.363994,124.40984 C 32.028052,124.11688 32.825578,123.91831 33.756572,123.81414 C 34.687555,123.70998 35.686903,123.63185 36.754619,123.57976 L 36.754619,123.29656 C 36.75461,122.8799 36.67974,122.53485 36.530009,122.2614 C 36.386772,121.98797 36.178439,121.77313 35.905009,121.61687 C 35.644585,121.46714 35.332086,121.36623 34.967509,121.31414 C 34.60292,121.26206 34.222061,121.23602 33.824931,121.23601 C 33.343155,121.23602 32.806046,121.30113 32.213603,121.43132 C 31.621152,121.55503 31.009173,121.73732 30.377666,121.9782 L 30.280009,121.9782 L 30.280009,120.11297 C 30.63808,120.01532 31.155657,119.9079 31.832744,119.7907 C 32.509823,119.67352 33.17714,119.61493 33.834697,119.61492 C 34.60292,119.61493 35.270237,119.68003 35.83665,119.81023 C 36.409558,119.93394 36.90435,120.14878 37.321025,120.45476 C 37.731172,120.75425 38.043671,121.14162 38.258525,121.61687 C 38.473358,122.09214 38.58078,122.68133 38.580791,123.38445 L 38.580791,130.78679 M 36.754619,128.10125 L 36.754619,125.06414 C 36.194715,125.0967 35.533908,125.14552 34.772197,125.21062 C 34.016983,125.27573 33.418025,125.37013 32.975322,125.49382 C 32.447974,125.64357 32.021542,125.87794 31.696025,126.19695 C 31.370501,126.50945 31.207741,126.9424 31.207744,127.49578 C 31.207741,128.12078 31.396543,128.59279 31.77415,128.91179 C 32.15175,129.2243 32.727922,129.38055 33.502666,129.38054 C 34.147191,129.38055 34.736383,129.25685 35.270244,129.00945 C 35.80409,128.75555 36.298881,128.45281 36.754619,128.10125 M 47.799541,130.68914 C 47.454481,130.78028 47.076878,130.85515 46.666728,130.91375 C 46.263076,130.97234 45.901748,131.00164 45.582744,131.00164 C 44.469458,131.00164 43.623105,130.70216 43.043681,130.1032 C 42.464252,129.50424 42.174539,128.54396 42.174541,127.22234 L 42.174541,121.42156 L 40.934306,121.42156 L 40.934306,119.87859 L 42.174541,119.87859 L 42.174541,116.74382 L 44.010478,116.74382 L 44.010478,119.87859 L 47.799541,119.87859 L 47.799541,121.42156 L 44.010478,121.42156 L 44.010478,126.39226 C 44.010474,126.96518 44.023495,127.4144 44.049541,127.73992 C 44.075578,128.05893 44.166724,128.35841 44.322978,128.63836 C 44.466203,128.89877 44.661515,129.09083 44.908916,129.21453 C 45.162817,129.33172 45.546931,129.39031 46.061259,129.39031 C 46.360732,129.39031 46.673232,129.34799 46.998759,129.26336 C 47.324273,129.17221 47.558648,129.09734 47.701884,129.03875 L 47.799541,129.03875 L 47.799541,130.68914 M 59.156962,125.52312 L 51.119853,125.52312 C 51.11985,126.1937 51.220761,126.77964 51.422587,127.28093 C 51.624407,127.77573 51.901099,128.18263 52.252666,128.50164 C 52.591203,128.81414 52.991593,129.04851 53.453837,129.20476 C 53.922582,129.36101 54.436904,129.43914 54.996806,129.43914 C 55.738986,129.43914 56.484428,129.29265 57.233134,128.99968 C 57.988333,128.70021 58.525442,128.40724 58.844462,128.12078 L 58.942119,128.12078 L 58.942119,130.12273 C 58.323619,130.38315 57.692109,130.60125 57.047587,130.77703 C 56.403048,130.95281 55.725965,131.0407 55.016337,131.0407 C 53.206437,131.0407 51.793678,130.55242 50.778056,129.57586 C 49.76243,128.59279 49.254618,127.19956 49.254619,125.39617 C 49.254618,123.61232 49.739643,122.19631 50.709697,121.14812 C 51.686256,120.09996 52.968807,119.57587 54.557353,119.57586 C 56.028699,119.57587 57.161511,120.00555 57.955791,120.86492 C 58.756561,121.7243 59.156951,122.945 59.156962,124.52703 L 59.156962,125.52312 M 57.369853,124.11687 C 57.363333,123.15334 57.119193,122.4079 56.637431,121.88054 C 56.162163,121.35321 55.436252,121.08954 54.459697,121.08953 C 53.476619,121.08954 52.692114,121.37925 52.106181,121.95867 C 51.526751,122.5381 51.197975,123.2575 51.119853,124.11687 L 57.369853,124.11687 M 68.746806,121.88054 L 68.64915,121.88054 C 68.375704,121.81545 68.108777,121.76988 67.848369,121.74382 C 67.594455,121.71128 67.291721,121.69501 66.940166,121.695 C 66.373753,121.69501 65.826879,121.82196 65.299541,122.07586 C 64.772192,122.32326 64.26438,122.64553 63.776103,123.04265 L 63.776103,130.78679 L 61.940166,130.78679 L 61.940166,119.87859 L 63.776103,119.87859 L 63.776103,121.48992 C 64.505265,120.90399 65.146541,120.49058 65.699931,120.24968 C 66.259821,120.0023 66.829482,119.8786 67.408916,119.87859 C 67.727918,119.8786 67.959038,119.88837 68.102275,119.90789 C 68.245496,119.92092 68.460339,119.95022 68.746806,119.99578 L 68.746806,121.88054 M 20.065166,202.78679 L 10.485087,202.78679 L 10.485087,188.24578 L 20.065166,188.24578 L 20.065166,189.96453 L 12.418681,189.96453 L 12.418681,193.9489 L 20.065166,193.9489 L 20.065166,195.66765 L 12.418681,195.66765 L 12.418681,201.06804 L 20.065166,201.06804 L 20.065166,202.78679 M 28.658916,202.68914 C 28.313856,202.78028 27.936253,202.85515 27.526103,202.91374 C 27.122451,202.97234 26.761123,203.00164 26.442119,203.00164 C 25.328833,203.00164 24.48248,202.70216 23.903056,202.1032 C 23.323627,201.50424 23.033914,200.54396 23.033916,199.22234 L 23.033916,193.42156 L 21.793681,193.42156 L 21.793681,191.87859 L 23.033916,191.87859 L 23.033916,188.74382 L 24.869853,188.74382 L 24.869853,191.87859 L 28.658916,191.87859 L 28.658916,193.42156 L 24.869853,193.42156 L 24.869853,198.39226 C 24.869849,198.96518 24.88287,199.4144 24.908916,199.73992 C 24.934953,200.05893 25.026099,200.35841 25.182353,200.63835 C 25.325578,200.89877 25.52089,201.09083 25.768291,201.21453 C 26.022192,201.33172 26.406306,201.39031 26.920634,201.39031 C 27.220107,201.39031 27.532607,201.34799 27.858134,201.26335 C 28.183648,201.17221 28.418023,201.09734 28.561259,201.03874 L 28.658916,201.03874 L 28.658916,202.68914 M 40.006572,202.78679 L 38.170634,202.78679 L 38.170634,196.57585 C 38.170625,196.07456 38.141328,195.60581 38.082744,195.1696 C 38.024141,194.7269 37.916719,194.38185 37.760478,194.13445 C 37.597709,193.86102 37.363334,193.6592 37.057353,193.52898 C 36.751356,193.39227 36.354221,193.32391 35.865947,193.3239 C 35.364638,193.32391 34.84055,193.44761 34.293681,193.69499 C 33.746801,193.9424 33.222713,194.25815 32.721416,194.64226 L 32.721416,202.78679 L 30.885478,202.78679 L 30.885478,187.59148 L 32.721416,187.59148 L 32.721416,193.08953 C 33.294328,192.61428 33.886775,192.24318 34.498759,191.97624 C 35.110732,191.70933 35.738987,191.57587 36.383525,191.57585 C 37.561902,191.57587 38.460338,191.93068 39.078837,192.64031 C 39.697316,193.34995 40.006561,194.37209 40.006572,195.70671 L 40.006572,202.78679 M 52.975322,191.87859 L 46.608134,206.81023 L 44.645244,206.81023 L 46.676494,202.25945 L 42.330791,191.87859 L 44.322978,191.87859 L 47.672587,199.96453 L 51.051494,191.87859 L 52.975322,191.87859 M 57.233134,202.78679 L 55.397197,202.78679 L 55.397197,187.59148 L 57.233134,187.59148 L 57.233134,202.78679 M 69.938212,197.52312 L 61.901103,197.52312 C 61.9011,198.1937 62.002011,198.77963 62.203837,199.28093 C 62.405657,199.77573 62.682349,200.18263 63.033916,200.50164 C 63.372453,200.81414 63.772843,201.04851 64.235087,201.20476 C 64.703832,201.36101 65.218154,201.43914 65.778056,201.43914 C 66.520236,201.43914 67.265678,201.29265 68.014384,200.99968 C 68.769583,200.70021 69.306692,200.40724 69.625712,200.12078 L 69.723369,200.12078 L 69.723369,202.12273 C 69.104869,202.38315 68.473359,202.60125 67.828837,202.77703 C 67.184298,202.95281 66.507215,203.0407 65.797587,203.0407 C 63.987687,203.0407 62.574928,202.55242 61.559306,201.57585 C 60.54368,200.59278 60.035868,199.19956 60.035869,197.39617 C 60.035868,195.61232 60.520893,194.19631 61.490947,193.14812 C 62.467506,192.09995 63.750057,191.57587 65.338603,191.57585 C 66.809949,191.57587 67.942761,192.00555 68.737041,192.86492 C 69.537811,193.7243 69.938201,194.945 69.938212,196.52703 L 69.938212,197.52312 M 68.151103,196.11687 C 68.144583,195.15334 67.900443,194.40789 67.418681,193.88054 C 66.943413,193.35321 66.217502,193.08954 65.240947,193.08953 C 64.257869,193.08954 63.473364,193.37925 62.887431,193.95867 C 62.308001,194.5381 61.979225,195.2575 61.901103,196.11687 L 68.151103,196.11687 M 81.842509,202.78679 L 80.006572,202.78679 L 80.006572,196.57585 C 80.006563,196.07456 79.977266,195.60581 79.918681,195.1696 C 79.860078,194.7269 79.752657,194.38185 79.596416,194.13445 C 79.433647,193.86102 79.199272,193.6592 78.893291,193.52898 C 78.587293,193.39227 78.190158,193.32391 77.701884,193.3239 C 77.200576,193.32391 76.676488,193.44761 76.129619,193.69499 C 75.582739,193.9424 75.058651,194.25815 74.557353,194.64226 L 74.557353,202.78679 L 72.721416,202.78679 L 72.721416,191.87859 L 74.557353,191.87859 L 74.557353,193.08953 C 75.130265,192.61428 75.722713,192.24318 76.334697,191.97624 C 76.94667,191.70933 77.574924,191.57587 78.219462,191.57585 C 79.397839,191.57587 80.296276,191.93068 80.914775,192.64031 C 81.533254,193.34995 81.842498,194.37209 81.842509,195.70671 L 81.842509,202.78679 M 94.508525,197.52312 L 86.471416,197.52312 C 86.471413,198.1937 86.572324,198.77963 86.77415,199.28093 C 86.975969,199.77573 87.252662,200.18263 87.604228,200.50164 C 87.942765,200.81414 88.343156,201.04851 88.8054,201.20476 C 89.274144,201.36101 89.788467,201.43914 90.348369,201.43914 C 91.090549,201.43914 91.835991,201.29265 92.584697,200.99968 C 93.339895,200.70021 93.877004,200.40724 94.196025,200.12078 L 94.293681,200.12078 L 94.293681,202.12273 C 93.675181,202.38315 93.043672,202.60125 92.39915,202.77703 C 91.75461,202.95281 91.077528,203.0407 90.3679,203.0407 C 88.557999,203.0407 87.14524,202.55242 86.129619,201.57585 C 85.113992,200.59278 84.60618,199.19956 84.606181,197.39617 C 84.60618,195.61232 85.091206,194.19631 86.061259,193.14812 C 87.037818,192.09995 88.320369,191.57587 89.908916,191.57585 C 91.380262,191.57587 92.513073,192.00555 93.307353,192.86492 C 94.108124,193.7243 94.508514,194.945 94.508525,196.52703 L 94.508525,197.52312 M 92.721416,196.11687 C 92.714896,195.15334 92.470756,194.40789 91.988994,193.88054 C 91.513725,193.35321 90.787815,193.08954 89.811259,193.08953 C 88.828181,193.08954 88.043677,193.37925 87.457744,193.95867 C 86.878313,194.5381 86.549538,195.2575 86.471416,196.11687 L 92.721416,196.11687 M 21.949931,274.78679 L 19.889384,274.78679 L 18.463603,270.73406 L 12.174541,270.73406 L 10.748759,274.78679 L 8.7858686,274.78679 L 14.078837,260.24577 L 16.656962,260.24577 L 21.949931,274.78679 M 17.8679,269.0739 L 15.319072,261.93523 L 12.760478,269.0739 L 17.8679,269.0739 M 32.076884,274.1032 C 31.464896,274.39617 30.882214,274.62403 30.328837,274.78679 C 29.781955,274.94955 29.199273,275.03093 28.580791,275.03093 C 27.793025,275.03093 27.070369,274.917 26.412822,274.68913 C 25.755266,274.45476 25.192116,274.1032 24.723369,273.63445 C 24.248106,273.1657 23.880268,272.57325 23.619853,271.8571 C 23.359435,271.14096 23.229227,270.30437 23.229228,269.34734 C 23.229227,267.56349 23.717508,266.16375 24.694072,265.14812 C 25.677141,264.1325 26.972713,263.62469 28.580791,263.62468 C 29.205784,263.62469 29.817762,263.71258 30.416728,263.88835 C 31.022188,264.06414 31.575573,264.27899 32.076884,264.53288 L 32.076884,266.5739 L 31.979228,266.5739 C 31.419323,266.13771 30.839896,265.80242 30.240947,265.56804 C 29.648491,265.33367 29.069065,265.21649 28.502666,265.21648 C 27.460994,265.21649 26.637427,265.56805 26.031962,266.27116 C 25.433001,266.96779 25.133522,267.99318 25.133525,269.34734 C 25.133522,270.66245 25.42649,271.67481 26.012431,272.38445 C 26.604875,273.08757 27.434952,273.43913 28.502666,273.43913 C 28.873753,273.43913 29.251356,273.39031 29.635478,273.29265 C 30.019585,273.19499 30.364637,273.06804 30.670634,272.91179 C 30.937553,272.77507 31.188203,272.63184 31.422587,272.4821 C 31.656953,272.32585 31.8425,272.19239 31.979228,272.08171 L 32.076884,272.08171 L 32.076884,274.1032 M 43.571025,269.52312 L 35.533916,269.52312 C 35.533913,270.1937 35.634824,270.77963 35.83665,271.28093 C 36.038469,271.77573 36.315162,272.18263 36.666728,272.50163 C 37.005265,272.81414 37.405656,273.04851 37.8679,273.20476 C 38.336644,273.36101 38.850967,273.43913 39.410869,273.43913 C 40.153049,273.43913 40.898491,273.29265 41.647197,272.99968 C 42.402395,272.7002 42.939504,272.40723 43.258525,272.12077 L 43.356181,272.12077 L 43.356181,274.12273 C 42.737681,274.38314 42.106172,274.60124 41.46165,274.77702 C 40.81711,274.95281 40.140028,275.0407 39.4304,275.0407 C 37.620499,275.0407 36.20774,274.55242 35.192119,273.57585 C 34.176492,272.59278 33.66868,271.19955 33.668681,269.39616 C 33.66868,267.61232 34.153706,266.1963 35.123759,265.14812 C 36.100318,264.09995 37.382869,263.57586 38.971416,263.57585 C 40.442762,263.57586 41.575573,264.00555 42.369853,264.86491 C 43.170624,265.7243 43.571014,266.945 43.571025,268.52702 L 43.571025,269.52312 M 41.783916,268.11687 C 41.777396,267.15333 41.533256,266.40789 41.051494,265.88054 C 40.576225,265.35321 39.850315,265.08953 38.873759,265.08952 C 37.890681,265.08953 37.106177,265.37925 36.520244,265.95866 C 35.940813,266.5381 35.612038,267.2575 35.533916,268.11687 L 41.783916,268.11687 M 52.018291,274.68913 C 51.673231,274.78028 51.295628,274.85515 50.885478,274.91374 C 50.481826,274.97234 50.120498,275.00163 49.801494,275.00163 C 48.688208,275.00163 47.841855,274.70215 47.262431,274.1032 C 46.683002,273.50424 46.393289,272.54395 46.393291,271.22234 L 46.393291,265.42156 L 45.153056,265.42156 L 45.153056,263.87859 L 46.393291,263.87859 L 46.393291,260.74382 L 48.229228,260.74382 L 48.229228,263.87859 L 52.018291,263.87859 L 52.018291,265.42156 L 48.229228,265.42156 L 48.229228,270.39226 C 48.229224,270.96518 48.242245,271.4144 48.268291,271.73991 C 48.294328,272.05893 48.385474,272.35841 48.541728,272.63835 C 48.684953,272.89877 48.880265,273.09083 49.127666,273.21452 C 49.381567,273.33171 49.765681,273.39031 50.280009,273.39031 C 50.579482,273.39031 50.891982,273.34799 51.217509,273.26335 C 51.543023,273.17221 51.777398,273.09734 51.920634,273.03874 L 52.018291,273.03874 L 52.018291,274.68913 M 63.678447,263.87859 L 57.311259,278.81023 L 55.348369,278.81023 L 57.379619,274.25945 L 53.033916,263.87859 L 55.026103,263.87859 L 58.375712,271.96452 L 61.754619,263.87859 L 63.678447,263.87859 M 67.936259,274.78679 L 66.100322,274.78679 L 66.100322,259.59148 L 67.936259,259.59148 L 67.936259,274.78679 M 80.641337,269.52312 L 72.604228,269.52312 C 72.604225,270.1937 72.705136,270.77963 72.906962,271.28093 C 73.108782,271.77573 73.385474,272.18263 73.737041,272.50163 C 74.075578,272.81414 74.475968,273.04851 74.938212,273.20476 C 75.406957,273.36101 75.921279,273.43913 76.481181,273.43913 C 77.223361,273.43913 77.968803,273.29265 78.717509,272.99968 C 79.472708,272.7002 80.009817,272.40723 80.328837,272.12077 L 80.426494,272.12077 L 80.426494,274.12273 C 79.807994,274.38314 79.176484,274.60124 78.531962,274.77702 C 77.887423,274.95281 77.21034,275.0407 76.500712,275.0407 C 74.690812,275.0407 73.278053,274.55242 72.262431,273.57585 C 71.246805,272.59278 70.738993,271.19955 70.738994,269.39616 C 70.738993,267.61232 71.224018,266.1963 72.194072,265.14812 C 73.170631,264.09995 74.453182,263.57586 76.041728,263.57585 C 77.513074,263.57586 78.645886,264.00555 79.440166,264.86491 C 80.240936,265.7243 80.641326,266.945 80.641337,268.52702 L 80.641337,269.52312 M 78.854228,268.11687 C 78.847708,267.15333 78.603568,266.40789 78.121806,265.88054 C 77.646538,265.35321 76.920627,265.08953 75.944072,265.08952 C 74.960994,265.08953 74.176489,265.37925 73.590556,265.95866 C 73.011126,266.5381 72.68235,267.2575 72.604228,268.11687 L 78.854228,268.11687 M 92.545634,274.78679 L 90.709697,274.78679 L 90.709697,268.57585 C 90.709688,268.07456 90.680391,267.60581 90.621806,267.1696 C 90.563203,266.7269 90.455782,266.38185 90.299541,266.13445 C 90.136772,265.86102 89.902397,265.65919 89.596416,265.52898 C 89.290418,265.39227 88.893283,265.32391 88.405009,265.3239 C 87.903701,265.32391 87.379613,265.44761 86.832744,265.69499 C 86.285864,265.9424 85.761776,266.25815 85.260478,266.64226 L 85.260478,274.78679 L 83.424541,274.78679 L 83.424541,263.87859 L 85.260478,263.87859 L 85.260478,265.08952 C 85.83339,264.61427 86.425838,264.24318 87.037822,263.97624 C 87.649795,263.70933 88.278049,263.57586 88.922587,263.57585 C 90.100964,263.57586 90.999401,263.93068 91.6179,264.64031 C 92.236379,265.34995 92.545623,266.37208 92.545634,267.70671 L 92.545634,274.78679 M 105.21165,269.52312 L 97.174541,269.52312 C 97.174538,270.1937 97.275449,270.77963 97.477275,271.28093 C 97.679094,271.77573 97.955787,272.18263 98.307353,272.50163 C 98.64589,272.81414 99.046281,273.04851 99.508525,273.20476 C 99.977269,273.36101 100.49159,273.43913 101.05149,273.43913 C 101.79367,273.43913 102.53912,273.29265 103.28782,272.99968 C 104.04302,272.7002 104.58013,272.40723 104.89915,272.12077 L 104.99681,272.12077 L 104.99681,274.12273 C 104.37831,274.38314 103.7468,274.60124 103.10227,274.77702 C 102.45774,274.95281 101.78065,275.0407 101.07102,275.0407 C 99.261124,275.0407 97.848365,274.55242 96.832744,273.57585 C 95.817117,272.59278 95.309305,271.19955 95.309306,269.39616 C 95.309305,267.61232 95.794331,266.1963 96.764384,265.14812 C 97.740943,264.09995 99.023494,263.57586 100.61204,263.57585 C 102.08339,263.57586 103.2162,264.00555 104.01048,264.86491 C 104.81125,265.7243 105.21164,266.945 105.21165,268.52702 L 105.21165,269.52312 M 103.42454,268.11687 C 103.41802,267.15333 103.17388,266.40789 102.69212,265.88054 C 102.21685,265.35321 101.49094,265.08953 100.51438,265.08952 C 99.531306,265.08953 98.746802,265.37925 98.160869,265.95866 C 97.581438,266.5381 97.252663,267.2575 97.174541,268.11687 L 103.42454,268.11687"
       id="text8509" />
    <path
       style="font-size:20px;font-style:normal;font-variant:normal;font-weight:normal;font-stretch:normal;text-align:center;line-height:89.99999762%;writing-mode:lr-tb;text-anchor:middle;fill:#000000;fill-opacity:1;stroke:none;stroke-width:1px;stroke-linecap:butt;stroke-linejoin:miter;stroke-opacity:1;font-family:Verdana"
       d="M 183.13548,22.736336 L 181.20189,22.736336 L 181.20189,15.617195 L 173.94603,15.617195 L 173.94603,22.736336 L 172.01244,22.736336 L 172.01244,8.1953201 L 173.94603,8.1953201 L 173.94603,13.898445 L 181.20189,13.898445 L 181.20189,8.1953201 L 183.13548,8.1953201 L 183.13548,22.736336 M 183.77025,75.681647 C 183.41216,75.837898 183.08664,75.984382 182.79369,76.1211 C 182.50722,76.257819 182.12961,76.401048 181.66087,76.550787 C 181.26373,76.674485 180.83079,76.778652 180.36205,76.863287 C 179.8998,76.954433 179.38873,77.000006 178.82884,77.000006 C 177.77415,77.000006 176.81386,76.853522 175.94798,76.560553 C 175.0886,76.261074 174.33991,75.79558 173.70189,75.164069 C 173.07689,74.545581 172.58861,73.761077 172.23705,72.810553 C 171.88548,71.853527 171.7097,70.743502 171.7097,69.480475 C 171.7097,68.282567 171.87897,67.211604 172.21751,66.267584 C 172.55605,65.323585 173.04433,64.52606 173.68236,63.875006 C 174.30084,63.243509 175.04629,62.761739 175.91869,62.429694 C 176.79759,62.097677 177.77089,61.931662 178.83861,61.931647 C 179.61985,61.931662 180.39784,62.026063 181.17259,62.21485 C 181.95383,62.403666 182.81972,62.735697 183.77025,63.210944 L 183.77025,65.505866 L 183.62376,65.505866 C 182.82297,64.835305 182.0287,64.347024 181.24095,64.041022 C 180.45318,63.735045 179.61008,63.582051 178.71165,63.582037 C 177.97597,63.582051 177.31191,63.702493 176.71947,63.943366 C 176.13352,64.177753 175.60944,64.545591 175.1472,65.046881 C 174.69798,65.535174 174.34642,66.153663 174.09251,66.90235 C 173.84511,67.644547 173.72142,68.503921 173.72142,69.480475 C 173.72142,70.502617 173.85814,71.381522 174.13158,72.117194 C 174.41152,72.852875 174.76959,73.451832 175.2058,73.914069 C 175.66152,74.395842 176.19212,74.753914 176.79759,74.988287 C 177.40956,75.216154 178.0541,75.330086 178.73119,75.330084 C 179.66217,75.330086 180.53456,75.170581 181.34837,74.851569 C 182.16216,74.53256 182.92388,74.054045 183.63353,73.416022 L 183.77025,73.416022 L 183.77025,75.681647 M 160.71361,130.73633 L 158.78001,130.73633 L 158.78001,123.61719 L 151.52415,123.61719 L 151.52415,130.73633 L 149.59056,130.73633 L 149.59056,116.19532 L 151.52415,116.19532 L 151.52415,121.89844 L 158.78001,121.89844 L 158.78001,116.19532 L 160.71361,116.19532 L 160.71361,130.73633 M 182.50072,117.86524 C 183.09315,118.51629 183.54563,119.31382 183.85814,120.25782 C 184.17713,121.20184 184.33664,122.2728 184.33665,123.47071 C 184.33664,124.66863 184.17388,125.74285 183.84837,126.69336 C 183.52935,127.63738 183.08013,128.42514 182.50072,129.05665 C 181.90175,129.7142 181.19211,130.20899 180.37181,130.54102 C 179.558,130.87305 178.62701,131.03907 177.57884,131.03907 C 176.5567,131.03907 175.62571,130.8698 174.78587,130.53125 C 173.95254,130.19271 173.2429,129.70118 172.65697,129.05665 C 172.07103,128.41212 171.61855,127.6211 171.29955,126.6836 C 170.98704,125.7461 170.83079,124.67514 170.8308,123.47071 C 170.83079,122.28582 170.98704,121.22462 171.29955,120.28711 C 171.61204,119.34312 172.06777,118.53582 172.66673,117.86524 C 173.23965,117.22723 173.94928,116.73895 174.79564,116.4004 C 175.6485,116.06187 176.57623,115.8926 177.57884,115.89258 C 178.6205,115.8926 179.55474,116.06512 180.38158,116.41016 C 181.2149,116.74872 181.92128,117.23374 182.50072,117.86524 M 182.32494,123.47071 C 182.32492,121.5827 181.90175,120.12762 181.0554,119.10547 C 180.20904,118.07684 179.05344,117.56252 177.58861,117.5625 C 176.11074,117.56252 174.94863,118.07684 174.10228,119.10547 C 173.26243,120.12762 172.84251,121.5827 172.84251,123.47071 C 172.84251,125.37827 173.2722,126.83985 174.13158,127.85547 C 174.99095,128.86459 176.14329,129.36915 177.58861,129.36915 C 179.03391,129.36915 180.183,128.86459 181.03587,127.85547 C 181.89524,126.83985 182.32492,125.37827 182.32494,123.47071 M 205.55736,130.73633 L 203.62376,130.73633 L 203.62376,123.61719 L 196.3679,123.61719 L 196.3679,130.73633 L 194.43431,130.73633 L 194.43431,116.19532 L 196.3679,116.19532 L 196.3679,121.89844 L 203.62376,121.89844 L 203.62376,116.19532 L 205.55736,116.19532 L 205.55736,130.73633 M 169.74681,201.68164 C 169.38873,201.83789 169.0632,201.98438 168.77025,202.1211 C 168.48378,202.25782 168.10617,202.40104 167.63744,202.55078 C 167.24029,202.67448 166.80735,202.77865 166.33861,202.86328 C 165.87636,202.95443 165.36529,203 164.8054,203 C 163.75071,203 162.79042,202.85352 161.92455,202.56055 C 161.06517,202.26107 160.31647,201.79558 159.67845,201.16407 C 159.05345,200.54558 158.56517,199.76107 158.21361,198.81055 C 157.86204,197.85352 157.68626,196.7435 157.68626,195.48047 C 157.68626,194.28256 157.85553,193.2116 158.19408,192.26758 C 158.53262,191.32358 159.0209,190.52606 159.65892,189.875 C 160.27741,189.24351 161.02285,188.76174 161.89525,188.42969 C 162.77415,188.09767 163.74745,187.93166 164.81517,187.93164 C 165.59641,187.93166 166.37441,188.02606 167.14915,188.21485 C 167.93039,188.40366 168.79628,188.73569 169.74681,189.21094 L 169.74681,191.50586 L 169.60033,191.50586 C 168.79953,190.8353 168.00526,190.34702 167.21751,190.04102 C 166.42974,189.73504 165.58665,189.58205 164.68822,189.58203 C 163.95253,189.58205 163.28847,189.70249 162.69603,189.94336 C 162.11009,190.17775 161.586,190.54559 161.12376,191.04688 C 160.67454,191.53517 160.32298,192.15366 160.06908,192.90235 C 159.82168,193.64454 159.69798,194.50392 159.69798,195.48047 C 159.69798,196.50261 159.8347,197.38152 160.10814,198.11719 C 160.38808,198.85287 160.74616,199.45183 161.18236,199.91407 C 161.63808,200.39584 162.16868,200.75391 162.77415,200.98828 C 163.38613,201.21615 164.03066,201.33008 164.70775,201.33008 C 165.63873,201.33008 166.51112,201.17058 167.32494,200.85157 C 168.13873,200.53256 168.90044,200.05404 169.61009,199.41602 L 169.74681,199.41602 L 169.74681,201.68164 M 197.79369,201.68164 C 197.4356,201.83789 197.11008,201.98438 196.81712,202.1211 C 196.53065,202.25782 196.15305,202.40104 195.68431,202.55078 C 195.28716,202.67448 194.85422,202.77865 194.38548,202.86328 C 193.92323,202.95443 193.41217,203 192.85228,203 C 191.79758,203 190.8373,202.85352 189.97142,202.56055 C 189.11204,202.26107 188.36334,201.79558 187.72533,201.16407 C 187.10032,200.54558 186.61204,199.76107 186.26048,198.81055 C 185.90892,197.85352 185.73314,196.7435 185.73314,195.48047 C 185.73314,194.28256 185.90241,193.2116 186.24095,192.26758 C 186.57949,191.32358 187.06777,190.52606 187.7058,189.875 C 188.32428,189.24351 189.06972,188.76174 189.94212,188.42969 C 190.82102,188.09767 191.79433,187.93166 192.86205,187.93164 C 193.64329,187.93166 194.42128,188.02606 195.19603,188.21485 C 195.97727,188.40366 196.84315,188.73569 197.79369,189.21094 L 197.79369,191.50586 L 197.6472,191.50586 C 196.84641,190.8353 196.05214,190.34702 195.26439,190.04102 C 194.47662,189.73504 193.63352,189.58205 192.73509,189.58203 C 191.99941,189.58205 191.33535,189.70249 190.7429,189.94336 C 190.15696,190.17775 189.63287,190.54559 189.17064,191.04688 C 188.72142,191.53517 188.36985,192.15366 188.11595,192.90235 C 187.86855,193.64454 187.74485,194.50392 187.74486,195.48047 C 187.74485,196.50261 187.88157,197.38152 188.15501,198.11719 C 188.43496,198.85287 188.79303,199.45183 189.22923,199.91407 C 189.68496,200.39584 190.21556,200.75391 190.82103,200.98828 C 191.433,201.21615 192.07753,201.33008 192.75462,201.33008 C 193.6856,201.33008 194.558,201.17058 195.37181,200.85157 C 196.1856,200.53256 196.94732,200.05404 197.65697,199.41602 L 197.79369,199.41602 L 197.79369,201.68164 M 144.05345,274.73633 L 142.11986,274.73633 L 142.11986,267.61719 L 134.864,267.61719 L 134.864,274.73633 L 132.9304,274.73633 L 132.9304,260.19531 L 134.864,260.19531 L 134.864,265.89844 L 142.11986,265.89844 L 142.11986,260.19531 L 144.05345,260.19531 L 144.05345,274.73633 M 166.23119,273.68164 C 165.8731,273.83789 165.54758,273.98438 165.25462,274.12109 C 164.96815,274.25781 164.59055,274.40104 164.12181,274.55078 C 163.72466,274.67448 163.29172,274.77865 162.82298,274.86328 C 162.36073,274.95443 161.84967,275 161.28978,275 C 160.23508,275 159.2748,274.85352 158.40892,274.56055 C 157.54954,274.26107 156.80084,273.79557 156.16283,273.16406 C 155.53782,272.54558 155.04954,271.76107 154.69798,270.81055 C 154.34642,269.85352 154.17064,268.7435 154.17064,267.48047 C 154.17064,266.28256 154.33991,265.2116 154.67845,264.26758 C 155.01699,263.32358 155.50527,262.52605 156.1433,261.875 C 156.76178,261.2435 157.50722,260.76173 158.37962,260.42969 C 159.25852,260.09767 160.23183,259.93166 161.29955,259.93164 C 162.08079,259.93166 162.85878,260.02606 163.63353,260.21484 C 164.41477,260.40366 165.28065,260.73569 166.23119,261.21094 L 166.23119,263.50586 L 166.0847,263.50586 C 165.28391,262.8353 164.48964,262.34702 163.70189,262.04102 C 162.91412,261.73504 162.07102,261.58205 161.17259,261.58203 C 160.43691,261.58205 159.77285,261.70249 159.1804,261.94336 C 158.59446,262.17775 158.07037,262.54559 157.60814,263.04688 C 157.15892,263.53517 156.80735,264.15366 156.55345,264.90234 C 156.30605,265.64454 156.18235,266.50392 156.18236,267.48047 C 156.18235,268.50261 156.31907,269.38152 156.59251,270.11719 C 156.87246,270.85287 157.23053,271.45183 157.66673,271.91406 C 158.12246,272.39584 158.65306,272.75391 159.25853,272.98828 C 159.8705,273.21615 160.51503,273.33008 161.19212,273.33008 C 162.1231,273.33008 162.9955,273.17058 163.80931,272.85156 C 164.6231,272.53256 165.38482,272.05404 166.09447,271.41602 L 166.23119,271.41602 L 166.23119,273.68164 M 201.30931,273.68164 C 200.95123,273.83789 200.6257,273.98438 200.33275,274.12109 C 200.04628,274.25781 199.66867,274.40104 199.19994,274.55078 C 198.80279,274.67448 198.36985,274.77865 197.90111,274.86328 C 197.43886,274.95443 196.92779,275 196.3679,275 C 195.31321,275 194.35292,274.85352 193.48705,274.56055 C 192.62767,274.26107 191.87897,273.79557 191.24095,273.16406 C 190.61595,272.54558 190.12767,271.76107 189.77611,270.81055 C 189.42454,269.85352 189.24876,268.7435 189.24876,267.48047 C 189.24876,266.28256 189.41803,265.2116 189.75658,264.26758 C 190.09512,263.32358 190.5834,262.52605 191.22142,261.875 C 191.83991,261.2435 192.58535,260.76173 193.45775,260.42969 C 194.33665,260.09767 195.30995,259.93166 196.37767,259.93164 C 197.15891,259.93166 197.93691,260.02606 198.71165,260.21484 C 199.49289,260.40366 200.35878,260.73569 201.30931,261.21094 L 201.30931,263.50586 L 201.16283,263.50586 C 200.36203,262.8353 199.56776,262.34702 198.78001,262.04102 C 197.99224,261.73504 197.14915,261.58205 196.25072,261.58203 C 195.51503,261.58205 194.85097,261.70249 194.25853,261.94336 C 193.67259,262.17775 193.1485,262.54559 192.68626,263.04688 C 192.23704,263.53517 191.88548,264.15366 191.63158,264.90234 C 191.38418,265.64454 191.26048,266.50392 191.26048,267.48047 C 191.26048,268.50261 191.3972,269.38152 191.67064,270.11719 C 191.95058,270.85287 192.30866,271.45183 192.74486,271.91406 C 193.20058,272.39584 193.73118,272.75391 194.33665,272.98828 C 194.94863,273.21615 195.59316,273.33008 196.27025,273.33008 C 197.20123,273.33008 198.07362,273.17058 198.88744,272.85156 C 199.70123,272.53256 200.46294,272.05404 201.17259,271.41602 L 201.30931,271.41602 L 201.30931,273.68164 M 222.21751,274.73633 L 220.28392,274.73633 L 220.28392,267.61719 L 213.02806,267.61719 L 213.02806,274.73633 L 211.09447,274.73633 L 211.09447,260.19531 L 213.02806,260.19531 L 213.02806,265.89844 L 220.28392,265.89844 L 220.28392,260.19531 L 222.21751,260.19531 L 222.21751,274.73633"
       id="text8541" />
    <path
       style="font-size:20px;font-style:normal;font-variant:normal;font-weight:normal;font-stretch:normal;text-align:center;line-height:89.99999762%;writing-mode:lr-tb;text-anchor:middle;fill:#000000;fill-opacity:1;stroke:none;stroke-width:1px;stroke-linecap:butt;stroke-linejoin:miter;stroke-opacity:1;font-family:Verdana"
       d="M 306.13547,22.736336 L 304.20187,22.736336 L 304.20187,15.617195 L 296.94601,15.617195 L 296.94601,22.736336 L 295.01242,22.736336 L 295.01242,8.1953201 L 296.94601,8.1953201 L 296.94601,13.898445 L 304.20187,13.898445 L 304.20187,8.1953201 L 306.13547,8.1953201 L 306.13547,22.736336 M 306.77023,75.681647 C 306.41215,75.837898 306.08663,75.984382 305.79367,76.1211 C 305.5072,76.257819 305.1296,76.401048 304.66086,76.550787 C 304.26371,76.674485 303.83077,76.778652 303.36203,76.863287 C 302.89978,76.954433 302.38871,77.000006 301.82883,77.000006 C 300.77413,77.000006 299.81385,76.853522 298.94797,76.560553 C 298.08859,76.261074 297.33989,75.79558 296.70187,75.164069 C 296.07687,74.545581 295.58859,73.761077 295.23703,72.810553 C 294.88547,71.853527 294.70969,70.743502 294.70969,69.480475 C 294.70969,68.282567 294.87896,67.211604 295.2175,66.267584 C 295.55604,65.323585 296.04432,64.52606 296.68234,63.875006 C 297.30083,63.243509 298.04627,62.761739 298.91867,62.429694 C 299.79757,62.097677 300.77088,61.931662 301.83859,61.931647 C 302.61983,61.931662 303.39783,62.026063 304.17258,62.21485 C 304.95382,62.403666 305.8197,62.735697 306.77023,63.210944 L 306.77023,65.505866 L 306.62375,65.505866 C 305.82296,64.835305 305.02869,64.347024 304.24094,64.041022 C 303.45317,63.735045 302.61007,63.582051 301.71164,63.582037 C 300.97595,63.582051 300.31189,63.702493 299.71945,63.943366 C 299.13351,64.177753 298.60942,64.545591 298.14719,65.046881 C 297.69796,65.535174 297.3464,66.153663 297.0925,66.90235 C 296.8451,67.644547 296.7214,68.503921 296.72141,69.480475 C 296.7214,70.502617 296.85812,71.381522 297.13156,72.117194 C 297.41151,72.852875 297.76958,73.451832 298.20578,73.914069 C 298.6615,74.395842 299.1921,74.753914 299.79758,74.988287 C 300.40955,75.216154 301.05408,75.330086 301.73117,75.330084 C 302.66215,75.330086 303.53455,75.170581 304.34836,74.851569 C 305.16215,74.53256 305.92387,74.054045 306.63351,73.416022 L 306.77023,73.416022 L 306.77023,75.681647 M 281.64328,130.73633 L 279.70969,130.73633 L 279.70969,123.61719 L 272.45383,123.61719 L 272.45383,130.73633 L 270.52023,130.73633 L 270.52023,116.19532 L 272.45383,116.19532 L 272.45383,121.89844 L 279.70969,121.89844 L 279.70969,116.19532 L 281.64328,116.19532 L 281.64328,130.73633 M 291.19406,125.25782 L 285.10031,125.25782 L 285.10031,123.49024 L 291.19406,123.49024 L 291.19406,125.25782 M 305.5007,117.86524 C 306.09314,118.51629 306.54561,119.31382 306.85812,120.25782 C 307.17712,121.20184 307.33662,122.2728 307.33664,123.47071 C 307.33662,124.66863 307.17386,125.74285 306.84836,126.69336 C 306.52933,127.63738 306.08012,128.42514 305.5007,129.05665 C 304.90173,129.7142 304.1921,130.20899 303.3718,130.54102 C 302.55798,130.87305 301.627,131.03907 300.57883,131.03907 C 299.55668,131.03907 298.6257,130.8698 297.78586,130.53125 C 296.95252,130.19271 296.24289,129.70118 295.65695,129.05665 C 295.07101,128.41212 294.61854,127.6211 294.29953,126.6836 C 293.98703,125.7461 293.83078,124.67514 293.83078,123.47071 C 293.83078,122.28582 293.98703,121.22462 294.29953,120.28711 C 294.61203,119.34312 295.06776,118.53582 295.66672,117.86524 C 296.23963,117.22723 296.94927,116.73895 297.79562,116.4004 C 298.64848,116.06187 299.57622,115.8926 300.57883,115.89258 C 301.62048,115.8926 302.55473,116.06512 303.38156,116.41016 C 304.21488,116.74872 304.92126,117.23374 305.5007,117.86524 M 305.32492,123.47071 C 305.32491,121.5827 304.90173,120.12762 304.05539,119.10547 C 303.20902,118.07684 302.05343,117.56252 300.58859,117.5625 C 299.11072,117.56252 297.94861,118.07684 297.10226,119.10547 C 296.26242,120.12762 295.8425,121.5827 295.8425,123.47071 C 295.8425,125.37827 296.27218,126.83985 297.13156,127.85547 C 297.99093,128.86459 299.14327,129.36915 300.58859,129.36915 C 302.0339,129.36915 303.18298,128.86459 304.03586,127.85547 C 304.89522,126.83985 305.32491,125.37827 305.32492,123.47071 M 316.03781,125.25782 L 309.94406,125.25782 L 309.94406,123.49024 L 316.03781,123.49024 L 316.03781,125.25782 M 330.62766,130.73633 L 328.69406,130.73633 L 328.69406,123.61719 L 321.4382,123.61719 L 321.4382,130.73633 L 319.50461,130.73633 L 319.50461,116.19532 L 321.4382,116.19532 L 321.4382,121.89844 L 328.69406,121.89844 L 328.69406,116.19532 L 330.62766,116.19532 L 330.62766,130.73633 M 292.7468,201.68164 C 292.38871,201.83789 292.06319,201.98438 291.77023,202.1211 C 291.48376,202.25782 291.10616,202.40104 290.63742,202.55078 C 290.24027,202.67448 289.80733,202.77865 289.33859,202.86328 C 288.87634,202.95443 288.36528,203 287.80539,203 C 286.75069,203 285.79041,202.85352 284.92453,202.56055 C 284.06515,202.26107 283.31645,201.79558 282.67844,201.16407 C 282.05343,200.54558 281.56515,199.76107 281.21359,198.81055 C 280.86203,197.85352 280.68625,196.7435 280.68625,195.48047 C 280.68625,194.28256 280.85552,193.2116 281.19406,192.26758 C 281.5326,191.32358 282.02088,190.52606 282.65891,189.875 C 283.27739,189.24351 284.02283,188.76174 284.89523,188.42969 C 285.77413,188.09767 286.74744,187.93166 287.81516,187.93164 C 288.5964,187.93166 289.37439,188.02606 290.14914,188.21485 C 290.93038,188.40366 291.79626,188.73569 292.7468,189.21094 L 292.7468,191.50586 L 292.60031,191.50586 C 291.79952,190.8353 291.00525,190.34702 290.2175,190.04102 C 289.42973,189.73504 288.58663,189.58205 287.6882,189.58203 C 286.95252,189.58205 286.28846,189.70249 285.69601,189.94336 C 285.11007,190.17775 284.58598,190.54559 284.12375,191.04688 C 283.67453,191.53517 283.32296,192.15366 283.06906,192.90235 C 282.82166,193.64454 282.69796,194.50392 282.69797,195.48047 C 282.69796,196.50261 282.83468,197.38152 283.10812,198.11719 C 283.38807,198.85287 283.74614,199.45183 284.18234,199.91407 C 284.63807,200.39584 285.16867,200.75391 285.77414,200.98828 C 286.38611,201.21615 287.03064,201.33008 287.70773,201.33008 C 288.63871,201.33008 289.51111,201.17058 290.32492,200.85157 C 291.13871,200.53256 291.90043,200.05404 292.61008,199.41602 L 292.7468,199.41602 L 292.7468,201.68164 M 320.79367,201.68164 C 320.43558,201.83789 320.11006,201.98438 319.81711,202.1211 C 319.53064,202.25782 319.15303,202.40104 318.6843,202.55078 C 318.28715,202.67448 317.85421,202.77865 317.38547,202.86328 C 316.92322,202.95443 316.41215,203 315.85226,203 C 314.79757,203 313.83728,202.85352 312.97141,202.56055 C 312.11203,202.26107 311.36333,201.79558 310.72531,201.16407 C 310.10031,200.54558 309.61203,199.76107 309.26047,198.81055 C 308.9089,197.85352 308.73312,196.7435 308.73312,195.48047 C 308.73312,194.28256 308.90239,193.2116 309.24094,192.26758 C 309.57948,191.32358 310.06776,190.52606 310.70578,189.875 C 311.32427,189.24351 312.06971,188.76174 312.94211,188.42969 C 313.82101,188.09767 314.79431,187.93166 315.86203,187.93164 C 316.64327,187.93166 317.42127,188.02606 318.19601,188.21485 C 318.97725,188.40366 319.84314,188.73569 320.79367,189.21094 L 320.79367,191.50586 L 320.64719,191.50586 C 319.84639,190.8353 319.05212,190.34702 318.26437,190.04102 C 317.4766,189.73504 316.63351,189.58205 315.73508,189.58203 C 314.99939,189.58205 314.33533,189.70249 313.74289,189.94336 C 313.15695,190.17775 312.63286,190.54559 312.17062,191.04688 C 311.7214,191.53517 311.36984,192.15366 311.11594,192.90235 C 310.86854,193.64454 310.74484,194.50392 310.74484,195.48047 C 310.74484,196.50261 310.88156,197.38152 311.155,198.11719 C 311.43494,198.85287 311.79302,199.45183 312.22922,199.91407 C 312.68494,200.39584 313.21554,200.75391 313.82101,200.98828 C 314.43299,201.21615 315.07752,201.33008 315.75461,201.33008 C 316.68559,201.33008 317.55798,201.17058 318.3718,200.85157 C 319.18559,200.53256 319.9473,200.05404 320.65695,199.41602 L 320.79367,199.41602 L 320.79367,201.68164 M 270.97922,274.73633 L 269.04562,274.73633 L 269.04562,267.61719 L 261.78976,267.61719 L 261.78976,274.73633 L 259.85617,274.73633 L 259.85617,260.19531 L 261.78976,260.19531 L 261.78976,265.89844 L 269.04562,265.89844 L 269.04562,260.19531 L 270.97922,260.19531 L 270.97922,274.73633 M 280.53,269.25781 L 274.43625,269.25781 L 274.43625,267.49024 L 280.53,267.49024 L 280.53,269.25781 M 295.22726,273.68164 C 294.86918,273.83789 294.54366,273.98438 294.2507,274.12109 C 293.96423,274.25781 293.58663,274.40104 293.11789,274.55078 C 292.72074,274.67448 292.2878,274.77865 291.81906,274.86328 C 291.35681,274.95443 290.84575,275 290.28586,275 C 289.23116,275 288.27088,274.85352 287.405,274.56055 C 286.54562,274.26107 285.79692,273.79557 285.15891,273.16406 C 284.5339,272.54558 284.04562,271.76107 283.69406,270.81055 C 283.3425,269.85352 283.16672,268.7435 283.16672,267.48047 C 283.16672,266.28256 283.33599,265.2116 283.67453,264.26758 C 284.01307,263.32358 284.50135,262.52605 285.13937,261.875 C 285.75786,261.2435 286.5033,260.76173 287.3757,260.42969 C 288.2546,260.09767 289.22791,259.93166 290.29562,259.93164 C 291.07686,259.93166 291.85486,260.02606 292.62961,260.21484 C 293.41085,260.40366 294.27673,260.73569 295.22726,261.21094 L 295.22726,263.50586 L 295.08078,263.50586 C 294.27999,262.8353 293.48572,262.34702 292.69797,262.04102 C 291.9102,261.73504 291.0671,261.58205 290.16867,261.58203 C 289.43299,261.58205 288.76892,261.70249 288.17648,261.94336 C 287.59054,262.17775 287.06645,262.54559 286.60422,263.04688 C 286.15499,263.53517 285.80343,264.15366 285.54953,264.90234 C 285.30213,265.64454 285.17843,266.50392 285.17844,267.48047 C 285.17843,268.50261 285.31515,269.38152 285.58859,270.11719 C 285.86854,270.85287 286.22661,271.45183 286.66281,271.91406 C 287.11854,272.39584 287.64913,272.75391 288.25461,272.98828 C 288.86658,273.21615 289.51111,273.33008 290.1882,273.33008 C 291.11918,273.33008 291.99158,273.17058 292.80539,272.85156 C 293.61918,272.53256 294.3809,272.05404 295.09055,271.41602 L 295.22726,271.41602 L 295.22726,273.68164 M 303.61594,269.25781 L 297.52219,269.25781 L 297.52219,267.49024 L 303.61594,267.49024 L 303.61594,269.25781 M 318.3132,273.68164 C 317.95512,273.83789 317.6296,273.98438 317.33664,274.12109 C 317.05017,274.25781 316.67257,274.40104 316.20383,274.55078 C 315.80668,274.67448 315.37374,274.77865 314.905,274.86328 C 314.44275,274.95443 313.93168,275 313.3718,275 C 312.3171,275 311.35682,274.85352 310.49094,274.56055 C 309.63156,274.26107 308.88286,273.79557 308.24484,273.16406 C 307.61984,272.54558 307.13156,271.76107 306.78,270.81055 C 306.42843,269.85352 306.25265,268.7435 306.25266,267.48047 C 306.25265,266.28256 306.42192,265.2116 306.76047,264.26758 C 307.09901,263.32358 307.58729,262.52605 308.22531,261.875 C 308.8438,261.2435 309.58924,260.76173 310.46164,260.42969 C 311.34054,260.09767 312.31385,259.93166 313.38156,259.93164 C 314.1628,259.93166 314.9408,260.02606 315.71555,260.21484 C 316.49678,260.40366 317.36267,260.73569 318.3132,261.21094 L 318.3132,263.50586 L 318.16672,263.50586 C 317.36592,262.8353 316.57165,262.34702 315.78391,262.04102 C 314.99613,261.73504 314.15304,261.58205 313.25461,261.58203 C 312.51892,261.58205 311.85486,261.70249 311.26242,261.94336 C 310.67648,262.17775 310.15239,262.54559 309.69016,263.04688 C 309.24093,263.53517 308.88937,264.15366 308.63547,264.90234 C 308.38807,265.64454 308.26437,266.50392 308.26437,267.48047 C 308.26437,268.50261 308.40109,269.38152 308.67453,270.11719 C 308.95447,270.85287 309.31255,271.45183 309.74875,271.91406 C 310.20447,272.39584 310.73507,272.75391 311.34055,272.98828 C 311.95252,273.21615 312.59705,273.33008 313.27414,273.33008 C 314.20512,273.33008 315.07751,273.17058 315.89133,272.85156 C 316.70512,272.53256 317.46684,272.05404 318.17648,271.41602 L 318.3132,271.41602 L 318.3132,273.68164 M 326.70187,269.25781 L 320.60812,269.25781 L 320.60812,267.49024 L 326.70187,267.49024 L 326.70187,269.25781 M 341.29172,274.73633 L 339.35812,274.73633 L 339.35812,267.61719 L 332.10226,267.61719 L 332.10226,274.73633 L 330.16867,274.73633 L 330.16867,260.19531 L 332.10226,260.19531 L 332.10226,265.89844 L 339.35812,265.89844 L 339.35812,260.19531 L 341.29172,260.19531 L 341.29172,274.73633"
       id="text8545" />
    <g
       id="g9482"
       transform="translate(-70.46804,-9.32194)">
      <path
         transform="matrix(1.256128,0,0,1.256128,-56.18245,-69.84719)"
         d="M 222.03153 272.82306 A 2.4748738 2.4748738 0 1 1  217.08178,272.82306 A 2.4748738 2.4748738 0 1 1  222.03153 272.82306 z"
         sodipodi:ry="2.4748738"
         sodipodi:rx="2.4748738"
         sodipodi:cy="272.82306"
         sodipodi:cx="219.55666"
         id="path8591"
         style="fill:#010000;fill-opacity:1;stroke:none;stroke-width:2;stroke-miterlimit:4;stroke-dasharray:none;stroke-opacity:1"
         sodipodi:type="arc" />
      <path
         transform="matrix(1.256128,0,0,1.256128,-56.1825,-61.7007)"
         d="M 222.03153 272.82306 A 2.4748738 2.4748738 0 1 1  217.08178,272.82306 A 2.4748738 2.4748738 0 1 1  222.03153 272.82306 z"
         sodipodi:ry="2.4748738"
         sodipodi:rx="2.4748738"
         sodipodi:cy="272.82306"
         sodipodi:cx="219.55666"
         id="path9480"
         style="fill:#010000;fill-opacity:1;stroke:none;stroke-width:2;stroke-miterlimit:4;stroke-dasharray:none;stroke-opacity:1"
         sodipodi:type="arc" />
    </g>
    <g
       id="g9486"
       transform="translate(-41.57683,-9.32194)">
      <path
         transform="matrix(1.256128,0,0,1.256128,-56.18245,-69.84719)"
         d="M 222.03153 272.82306 A 2.4748738 2.4748738 0 1 1  217.08178,272.82306 A 2.4748738 2.4748738 0 1 1  222.03153 272.82306 z"
         sodipodi:ry="2.4748738"
         sodipodi:rx="2.4748738"
         sodipodi:cy="272.82306"
         sodipodi:cx="219.55666"
         id="path9488"
         style="fill:#010000;fill-opacity:1;stroke:none;stroke-width:2;stroke-miterlimit:4;stroke-dasharray:none;stroke-opacity:1"
         sodipodi:type="arc" />
      <path
         transform="matrix(1.256128,0,0,1.256128,-56.1825,-61.7007)"
         d="M 222.03153 272.82306 A 2.4748738 2.4748738 0 1 1  217.08178,272.82306 A 2.4748738 2.4748738 0 1 1  222.03153 272.82306 z"
         sodipodi:ry="2.4748738"
         sodipodi:rx="2.4748738"
         sodipodi:cy="272.82306"
         sodipodi:cx="219.55666"
         id="path9490"
         style="fill:#010000;fill-opacity:1;stroke:none;stroke-width:2;stroke-miterlimit:4;stroke-dasharray:none;stroke-opacity:1"
         sodipodi:type="arc" />
    </g>
    <g
       id="g9492"
       transform="translate(-48.82683,-9.32194)">
      <path
         transform="matrix(1.256128,0,0,1.256128,-56.18245,-69.84719)"
         d="M 222.03153 272.82306 A 2.4748738 2.4748738 0 1 1  217.08178,272.82306 A 2.4748738 2.4748738 0 1 1  222.03153 272.82306 z"
         sodipodi:ry="2.4748738"
         sodipodi:rx="2.4748738"
         sodipodi:cy="272.82306"
         sodipodi:cx="219.55666"
         id="path9494"
         style="fill:#010000;fill-opacity:1;stroke:none;stroke-width:2;stroke-miterlimit:4;stroke-dasharray:none;stroke-opacity:1"
         sodipodi:type="arc" />
      <path
         transform="matrix(1.256128,0,0,1.256128,-56.1825,-61.7007)"
         d="M 222.03153 272.82306 A 2.4748738 2.4748738 0 1 1  217.08178,272.82306 A 2.4748738 2.4748738 0 1 1  222.03153 272.82306 z"
         sodipodi:ry="2.4748738"
         sodipodi:rx="2.4748738"
         sodipodi:cy="272.82306"
         sodipodi:cx="219.55666"
         id="path9496"
         style="fill:#010000;fill-opacity:1;stroke:none;stroke-width:2;stroke-miterlimit:4;stroke-dasharray:none;stroke-opacity:1"
         sodipodi:type="arc" />
    </g>
    <g
       id="g9498"
       transform="translate(-34.07683,-9.32194)">
      <path
         transform="matrix(1.256128,0,0,1.256128,-56.18245,-69.84719)"
         d="M 222.03153 272.82306 A 2.4748738 2.4748738 0 1 1  217.08178,272.82306 A 2.4748738 2.4748738 0 1 1  222.03153 272.82306 z"
         sodipodi:ry="2.4748738"
         sodipodi:rx="2.4748738"
         sodipodi:cy="272.82306"
         sodipodi:cx="219.55666"
         id="path9500"
         style="fill:#010000;fill-opacity:1;stroke:none;stroke-width:2;stroke-miterlimit:4;stroke-dasharray:none;stroke-opacity:1"
         sodipodi:type="arc" />
      <path
         transform="matrix(1.256128,0,0,1.256128,-56.1825,-61.7007)"
         d="M 222.03153 272.82306 A 2.4748738 2.4748738 0 1 1  217.08178,272.82306 A 2.4748738 2.4748738 0 1 1  222.03153 272.82306 z"
         sodipodi:ry="2.4748738"
         sodipodi:rx="2.4748738"
         sodipodi:cy="272.82306"
         sodipodi:cx="219.55666"
         id="path9502"
         style="fill:#010000;fill-opacity:1;stroke:none;stroke-width:2;stroke-miterlimit:4;stroke-dasharray:none;stroke-opacity:1"
         sodipodi:type="arc" />
    </g>
    <g
       id="g9504"
       transform="translate(-13.85448,-9.32194)">
      <path
         transform="matrix(1.256128,0,0,1.256128,-56.18245,-69.84719)"
         d="M 222.03153 272.82306 A 2.4748738 2.4748738 0 1 1  217.08178,272.82306 A 2.4748738 2.4748738 0 1 1  222.03153 272.82306 z"
         sodipodi:ry="2.4748738"
         sodipodi:rx="2.4748738"
         sodipodi:cy="272.82306"
         sodipodi:cx="219.55666"
         id="path9506"
         style="fill:#010000;fill-opacity:1;stroke:none;stroke-width:2;stroke-miterlimit:4;stroke-dasharray:none;stroke-opacity:1"
         sodipodi:type="arc" />
      <path
         transform="matrix(1.256128,0,0,1.256128,-56.1825,-61.7007)"
         d="M 222.03153 272.82306 A 2.4748738 2.4748738 0 1 1  217.08178,272.82306 A 2.4748738 2.4748738 0 1 1  222.03153 272.82306 z"
         sodipodi:ry="2.4748738"
         sodipodi:rx="2.4748738"
         sodipodi:cy="272.82306"
         sodipodi:cx="219.55666"
         id="path9508"
         style="fill:#010000;fill-opacity:1;stroke:none;stroke-width:2;stroke-miterlimit:4;stroke-dasharray:none;stroke-opacity:1"
         sodipodi:type="arc" />
    </g>
    <g
       id="g9510"
       transform="translate(-38.20183,-81.13994)">
      <path
         transform="matrix(1.256128,0,0,1.256128,-56.18245,-69.84719)"
         d="M 222.03153 272.82306 A 2.4748738 2.4748738 0 1 1  217.08178,272.82306 A 2.4748738 2.4748738 0 1 1  222.03153 272.82306 z"
         sodipodi:ry="2.4748738"
         sodipodi:rx="2.4748738"
         sodipodi:cy="272.82306"
         sodipodi:cx="219.55666"
         id="path9512"
         style="fill:#010000;fill-opacity:1;stroke:none;stroke-width:2;stroke-miterlimit:4;stroke-dasharray:none;stroke-opacity:1"
         sodipodi:type="arc" />
      <path
         transform="matrix(1.256128,0,0,1.256128,-56.1825,-61.7007)"
         d="M 222.03153 272.82306 A 2.4748738 2.4748738 0 1 1  217.08178,272.82306 A 2.4748738 2.4748738 0 1 1  222.03153 272.82306 z"
         sodipodi:ry="2.4748738"
         sodipodi:rx="2.4748738"
         sodipodi:cy="272.82306"
         sodipodi:cx="219.55666"
         id="path9514"
         style="fill:#010000;fill-opacity:1;stroke:none;stroke-width:2;stroke-miterlimit:4;stroke-dasharray:none;stroke-opacity:1"
         sodipodi:type="arc" />
    </g>
    <g
       id="g9516"
       transform="translate(-45.45183,-81.13994)">
      <path
         transform="matrix(1.256128,0,0,1.256128,-56.18245,-69.84719)"
         d="M 222.03153 272.82306 A 2.4748738 2.4748738 0 1 1  217.08178,272.82306 A 2.4748738 2.4748738 0 1 1  222.03153 272.82306 z"
         sodipodi:ry="2.4748738"
         sodipodi:rx="2.4748738"
         sodipodi:cy="272.82306"
         sodipodi:cx="219.55666"
         id="path9518"
         style="fill:#010000;fill-opacity:1;stroke:none;stroke-width:2;stroke-miterlimit:4;stroke-dasharray:none;stroke-opacity:1"
         sodipodi:type="arc" />
      <path
         transform="matrix(1.256128,0,0,1.256128,-56.1825,-61.7007)"
         d="M 222.03153 272.82306 A 2.4748738 2.4748738 0 1 1  217.08178,272.82306 A 2.4748738 2.4748738 0 1 1  222.03153 272.82306 z"
         sodipodi:ry="2.4748738"
         sodipodi:rx="2.4748738"
         sodipodi:cy="272.82306"
         sodipodi:cx="219.55666"
         id="path9520"
         style="fill:#010000;fill-opacity:1;stroke:none;stroke-width:2;stroke-miterlimit:4;stroke-dasharray:none;stroke-opacity:1"
         sodipodi:type="arc" />
    </g>
    <path
       style="font-size:20px;font-style:normal;font-variant:normal;font-weight:normal;font-stretch:normal;text-align:start;line-height:100%;writing-mode:lr-tb;text-anchor:start;fill:#000000;fill-opacity:1;stroke:none;stroke-width:1px;stroke-linecap:butt;stroke-linejoin:miter;stroke-opacity:1;font-family:Verdana"
       d="M 169.83942,177.57445 L 167.90582,177.57445 L 167.90582,170.45531 L 160.64996,170.45531 L 160.64996,177.57445 L 158.71637,177.57445 L 158.71637,163.03343 L 160.64996,163.03343 L 160.64996,168.73656 L 167.90582,168.73656 L 167.90582,163.03343 L 169.83942,163.03343 L 169.83942,177.57445"
       id="text9522" />
    <path
       style="font-size:20px;font-style:normal;font-variant:normal;font-weight:normal;font-stretch:normal;text-align:start;line-height:100%;writing-mode:lr-tb;text-anchor:start;fill:#000000;fill-opacity:1;stroke:none;stroke-width:1px;stroke-linecap:butt;stroke-linejoin:miter;stroke-opacity:1;font-family:Verdana"
       d="M 197.68011,177.5239 L 195.74652,177.5239 L 195.74652,170.40475 L 188.49066,170.40475 L 188.49066,177.5239 L 186.55707,177.5239 L 186.55707,162.98288 L 188.49066,162.98288 L 188.49066,168.686 L 195.74652,168.686 L 195.74652,162.98288 L 197.68011,162.98288 L 197.68011,177.5239"
       id="text9530" />
    <path
       style="font-size:20px;font-style:normal;font-variant:normal;font-weight:normal;font-stretch:normal;text-align:start;line-height:100%;writing-mode:lr-tb;text-anchor:start;fill:#000000;fill-opacity:1;stroke:none;stroke-width:1px;stroke-linecap:butt;stroke-linejoin:miter;stroke-opacity:1;font-family:Verdana"
       d="M 169.49937,226.7868 L 167.56578,226.7868 L 167.56578,219.66766 L 160.30992,219.66766 L 160.30992,226.7868 L 158.37633,226.7868 L 158.37633,212.24579 L 160.30992,212.24579 L 160.30992,217.94891 L 167.56578,217.94891 L 167.56578,212.24579 L 169.49937,212.24579 L 169.49937,226.7868"
       id="text9534" />
    <path
       style="font-size:20px;font-style:normal;font-variant:normal;font-weight:normal;font-stretch:normal;text-align:start;line-height:100%;writing-mode:lr-tb;text-anchor:start;fill:#000000;fill-opacity:1;stroke:none;stroke-width:1px;stroke-linecap:butt;stroke-linejoin:miter;stroke-opacity:1;font-family:Verdana"
       d="M 198.13722,226.7868 L 196.20363,226.7868 L 196.20363,219.66766 L 188.94777,219.66766 L 188.94777,226.7868 L 187.01418,226.7868 L 187.01418,212.24579 L 188.94777,212.24579 L 188.94777,217.94891 L 196.20363,217.94891 L 196.20363,212.24579 L 198.13722,212.24579 L 198.13722,226.7868"
       id="text9538" />
    <g
       id="g9542"
       transform="matrix(0,1,-1,0,440.8647,-12.1931)">
      <path
         transform="matrix(1.256128,0,0,1.256128,-56.18245,-69.84719)"
         d="M 222.03153 272.82306 A 2.4748738 2.4748738 0 1 1  217.08178,272.82306 A 2.4748738 2.4748738 0 1 1  222.03153 272.82306 z"
         sodipodi:ry="2.4748738"
         sodipodi:rx="2.4748738"
         sodipodi:cy="272.82306"
         sodipodi:cx="219.55666"
         id="path9544"
         style="fill:#010000;fill-opacity:1;stroke:none;stroke-width:2;stroke-miterlimit:4;stroke-dasharray:none;stroke-opacity:1"
         sodipodi:type="arc" />
      <path
         transform="matrix(1.256128,0,0,1.256128,-56.1825,-61.7007)"
         d="M 222.03153 272.82306 A 2.4748738 2.4748738 0 1 1  217.08178,272.82306 A 2.4748738 2.4748738 0 1 1  222.03153 272.82306 z"
         sodipodi:ry="2.4748738"
         sodipodi:rx="2.4748738"
         sodipodi:cy="272.82306"
         sodipodi:cx="219.55666"
         id="path9546"
         style="fill:#010000;fill-opacity:1;stroke:none;stroke-width:2;stroke-miterlimit:4;stroke-dasharray:none;stroke-opacity:1"
         sodipodi:type="arc" />
    </g>
    <g
       id="g9554"
       transform="matrix(0,1,-1,0,469.5845,-12.06809)">
      <path
         transform="matrix(1.256128,0,0,1.256128,-56.18245,-69.84719)"
         d="M 222.03153 272.82306 A 2.4748738 2.4748738 0 1 1  217.08178,272.82306 A 2.4748738 2.4748738 0 1 1  222.03153 272.82306 z"
         sodipodi:ry="2.4748738"
         sodipodi:rx="2.4748738"
         sodipodi:cy="272.82306"
         sodipodi:cx="219.55666"
         id="path9556"
         style="fill:#010000;fill-opacity:1;stroke:none;stroke-width:2;stroke-miterlimit:4;stroke-dasharray:none;stroke-opacity:1"
         sodipodi:type="arc" />
      <path
         transform="matrix(1.256128,0,0,1.256128,-56.1825,-61.7007)"
         d="M 222.03153 272.82306 A 2.4748738 2.4748738 0 1 1  217.08178,272.82306 A 2.4748738 2.4748738 0 1 1  222.03153 272.82306 z"
         sodipodi:ry="2.4748738"
         sodipodi:rx="2.4748738"
         sodipodi:cy="272.82306"
         sodipodi:cx="219.55666"
         id="path9558"
         style="fill:#010000;fill-opacity:1;stroke:none;stroke-width:2;stroke-miterlimit:4;stroke-dasharray:none;stroke-opacity:1"
         sodipodi:type="arc" />
    </g>
    <g
       id="g9560"
       transform="matrix(0,1,-1,0,469.0837,-36.32199)">
      <path
         transform="matrix(1.256128,0,0,1.256128,-56.18245,-69.84719)"
         d="M 222.03153 272.82306 A 2.4748738 2.4748738 0 1 1  217.08178,272.82306 A 2.4748738 2.4748738 0 1 1  222.03153 272.82306 z"
         sodipodi:ry="2.4748738"
         sodipodi:rx="2.4748738"
         sodipodi:cy="272.82306"
         sodipodi:cx="219.55666"
         id="path9562"
         style="fill:#010000;fill-opacity:1;stroke:none;stroke-width:2;stroke-miterlimit:4;stroke-dasharray:none;stroke-opacity:1"
         sodipodi:type="arc" />
      <path
         transform="matrix(1.256128,0,0,1.256128,-56.1825,-61.7007)"
         d="M 222.03153 272.82306 A 2.4748738 2.4748738 0 1 1  217.08178,272.82306 A 2.4748738 2.4748738 0 1 1  222.03153 272.82306 z"
         sodipodi:ry="2.4748738"
         sodipodi:rx="2.4748738"
         sodipodi:cy="272.82306"
         sodipodi:cx="219.55666"
         id="path9564"
         style="fill:#010000;fill-opacity:1;stroke:none;stroke-width:2;stroke-miterlimit:4;stroke-dasharray:none;stroke-opacity:1"
         sodipodi:type="arc" />
    </g>
    <g
       id="g9566"
       transform="matrix(0,1,-1,0,441.3337,-36.32199)">
      <path
         transform="matrix(1.256128,0,0,1.256128,-56.18245,-69.84719)"
         d="M 222.03153 272.82306 A 2.4748738 2.4748738 0 1 1  217.08178,272.82306 A 2.4748738 2.4748738 0 1 1  222.03153 272.82306 z"
         sodipodi:ry="2.4748738"
         sodipodi:rx="2.4748738"
         sodipodi:cy="272.82306"
         sodipodi:cx="219.55666"
         id="path9568"
         style="fill:#010000;fill-opacity:1;stroke:none;stroke-width:2;stroke-miterlimit:4;stroke-dasharray:none;stroke-opacity:1"
         sodipodi:type="arc" />
      <path
         transform="matrix(1.256128,0,0,1.256128,-56.1825,-61.7007)"
         d="M 222.03153 272.82306 A 2.4748738 2.4748738 0 1 1  217.08178,272.82306 A 2.4748738 2.4748738 0 1 1  222.03153 272.82306 z"
         sodipodi:ry="2.4748738"
         sodipodi:rx="2.4748738"
         sodipodi:cy="272.82306"
         sodipodi:cx="219.55666"
         id="path9570"
         style="fill:#010000;fill-opacity:1;stroke:none;stroke-width:2;stroke-miterlimit:4;stroke-dasharray:none;stroke-opacity:1"
         sodipodi:type="arc" />
    </g>
    <g
       id="g9612"
       transform="matrix(0,1,-1,0,454.2997,-108.6924)">
      <path
         transform="matrix(1.256128,0,0,1.256128,-56.18245,-69.84719)"
         d="M 222.03153 272.82306 A 2.4748738 2.4748738 0 1 1  217.08178,272.82306 A 2.4748738 2.4748738 0 1 1  222.03153 272.82306 z"
         sodipodi:ry="2.4748738"
         sodipodi:rx="2.4748738"
         sodipodi:cy="272.82306"
         sodipodi:cx="219.55666"
         id="path9614"
         style="fill:#010000;fill-opacity:1;stroke:none;stroke-width:2;stroke-miterlimit:4;stroke-dasharray:none;stroke-opacity:1"
         sodipodi:type="arc" />
      <path
         transform="matrix(1.256128,0,0,1.256128,-56.1825,-61.7007)"
         d="M 222.03153 272.82306 A 2.4748738 2.4748738 0 1 1  217.08178,272.82306 A 2.4748738 2.4748738 0 1 1  222.03153 272.82306 z"
         sodipodi:ry="2.4748738"
         sodipodi:rx="2.4748738"
         sodipodi:cy="272.82306"
         sodipodi:cx="219.55666"
         id="path9616"
         style="fill:#010000;fill-opacity:1;stroke:none;stroke-width:2;stroke-miterlimit:4;stroke-dasharray:none;stroke-opacity:1"
         sodipodi:type="arc" />
    </g>
    <g
       id="g9618"
       transform="matrix(0,1,-1,0,454.6533,-83.59006)">
      <path
         transform="matrix(1.256128,0,0,1.256128,-56.18245,-69.84719)"
         d="M 222.03153 272.82306 A 2.4748738 2.4748738 0 1 1  217.08178,272.82306 A 2.4748738 2.4748738 0 1 1  222.03153 272.82306 z"
         sodipodi:ry="2.4748738"
         sodipodi:rx="2.4748738"
         sodipodi:cy="272.82306"
         sodipodi:cx="219.55666"
         id="path9620"
         style="fill:#010000;fill-opacity:1;stroke:none;stroke-width:2;stroke-miterlimit:4;stroke-dasharray:none;stroke-opacity:1"
         sodipodi:type="arc" />
      <path
         transform="matrix(1.256128,0,0,1.256128,-56.1825,-61.7007)"
         d="M 222.03153 272.82306 A 2.4748738 2.4748738 0 1 1  217.08178,272.82306 A 2.4748738 2.4748738 0 1 1  222.03153 272.82306 z"
         sodipodi:ry="2.4748738"
         sodipodi:rx="2.4748738"
         sodipodi:cy="272.82306"
         sodipodi:cx="219.55666"
         id="path9622"
         style="fill:#010000;fill-opacity:1;stroke:none;stroke-width:2;stroke-miterlimit:4;stroke-dasharray:none;stroke-opacity:1"
         sodipodi:type="arc" />
    </g>
    <g
       id="g9624"
       transform="translate(-30.92219,-153.9895)">
      <path
         transform="matrix(1.256128,0,0,1.256128,-56.18245,-69.84719)"
         d="M 222.03153 272.82306 A 2.4748738 2.4748738 0 1 1  217.08178,272.82306 A 2.4748738 2.4748738 0 1 1  222.03153 272.82306 z"
         sodipodi:ry="2.4748738"
         sodipodi:rx="2.4748738"
         sodipodi:cy="272.82306"
         sodipodi:cx="219.55666"
         id="path9626"
         style="fill:#010000;fill-opacity:1;stroke:none;stroke-width:2;stroke-miterlimit:4;stroke-dasharray:none;stroke-opacity:1"
         sodipodi:type="arc" />
      <path
         transform="matrix(1.256128,0,0,1.256128,-56.1825,-61.7007)"
         d="M 222.03153 272.82306 A 2.4748738 2.4748738 0 1 1  217.08178,272.82306 A 2.4748738 2.4748738 0 1 1  222.03153 272.82306 z"
         sodipodi:ry="2.4748738"
         sodipodi:rx="2.4748738"
         sodipodi:cy="272.82306"
         sodipodi:cx="219.55666"
         id="path9628"
         style="fill:#010000;fill-opacity:1;stroke:none;stroke-width:2;stroke-miterlimit:4;stroke-dasharray:none;stroke-opacity:1"
         sodipodi:type="arc" />
    </g>
    <g
       id="g9630"
       transform="translate(-54.25672,-153.6359)">
      <path
         transform="matrix(1.256128,0,0,1.256128,-56.18245,-69.84719)"
         d="M 222.03153 272.82306 A 2.4748738 2.4748738 0 1 1  217.08178,272.82306 A 2.4748738 2.4748738 0 1 1  222.03153 272.82306 z"
         sodipodi:ry="2.4748738"
         sodipodi:rx="2.4748738"
         sodipodi:cy="272.82306"
         sodipodi:cx="219.55666"
         id="path9632"
         style="fill:#010000;fill-opacity:1;stroke:none;stroke-width:2;stroke-miterlimit:4;stroke-dasharray:none;stroke-opacity:1"
         sodipodi:type="arc" />
      <path
         transform="matrix(1.256128,0,0,1.256128,-56.1825,-61.7007)"
         d="M 222.03153 272.82306 A 2.4748738 2.4748738 0 1 1  217.08178,272.82306 A 2.4748738 2.4748738 0 1 1  222.03153 272.82306 z"
         sodipodi:ry="2.4748738"
         sodipodi:rx="2.4748738"
         sodipodi:cy="272.82306"
         sodipodi:cx="219.55666"
         id="path9634"
         style="fill:#010000;fill-opacity:1;stroke:none;stroke-width:2;stroke-miterlimit:4;stroke-dasharray:none;stroke-opacity:1"
         sodipodi:type="arc" />
    </g>
    <path
       sodipodi:type="arc"
       style="fill:#010000;fill-opacity:1;stroke:none;stroke-width:2;stroke-miterlimit:4;stroke-dasharray:none;stroke-opacity:1"
       id="path9638"
       sodipodi:cx="219.55666"
       sodipodi:cy="272.82306"
       sodipodi:rx="2.4748738"
       sodipodi:ry="2.4748738"
       d="M 222.03153 272.82306 A 2.4748738 2.4748738 0 1 1  217.08178,272.82306 A 2.4748738 2.4748738 0 1 1  222.03153 272.82306 z"
       transform="matrix(1.256128,0,0,1.256128,-86.75929,-331.2371)" />
    <path
       sodipodi:type="arc"
       style="fill:#010000;fill-opacity:1;stroke:none;stroke-width:2;stroke-miterlimit:4;stroke-dasharray:none;stroke-opacity:1"
       id="path9640"
       sodipodi:cx="219.55666"
       sodipodi:cy="272.82306"
       sodipodi:rx="2.4748738"
       sodipodi:ry="2.4748738"
       d="M 222.03153 272.82306 A 2.4748738 2.4748738 0 1 1  217.08178,272.82306 A 2.4748738 2.4748738 0 1 1  222.03153 272.82306 z"
       transform="matrix(1.256128,0,0,1.256128,35.99066,-331.5906)" />
    <path
       sodipodi:type="arc"
       style="fill:#010000;fill-opacity:1;stroke:none;stroke-width:2;stroke-miterlimit:4;stroke-dasharray:none;stroke-opacity:1"
       id="path9644"
       sodipodi:cx="219.55666"
       sodipodi:cy="272.82306"
       sodipodi:rx="2.4748738"
       sodipodi:ry="2.4748738"
       d="M 222.03153 272.82306 A 2.4748738 2.4748738 0 1 1  217.08178,272.82306 A 2.4748738 2.4748738 0 1 1  222.03153 272.82306 z"
       transform="matrix(1.256128,0,0,1.256128,-97.50934,-285.4094)" />
    <path
       sodipodi:type="arc"
       style="fill:#010000;fill-opacity:1;stroke:none;stroke-width:2;stroke-miterlimit:4;stroke-dasharray:none;stroke-opacity:1"
       id="path9646"
       sodipodi:cx="219.55666"
       sodipodi:cy="272.82306"
       sodipodi:rx="2.4748738"
       sodipodi:ry="2.4748738"
       d="M 222.03153 272.82306 A 2.4748738 2.4748738 0 1 1  217.08178,272.82306 A 2.4748738 2.4748738 0 1 1  222.03153 272.82306 z"
       transform="matrix(1.256128,0,0,1.256128,-87.0093,-273.4094)" />
    <path
       sodipodi:type="arc"
       style="fill:#010000;fill-opacity:1;stroke:none;stroke-width:2;stroke-miterlimit:4;stroke-dasharray:none;stroke-opacity:1"
       id="path9648"
       sodipodi:cx="219.55666"
       sodipodi:cy="272.82306"
       sodipodi:rx="2.4748738"
       sodipodi:ry="2.4748738"
       d="M 222.03153 272.82306 A 2.4748738 2.4748738 0 1 1  217.08178,272.82306 A 2.4748738 2.4748738 0 1 1  222.03153 272.82306 z"
       transform="matrix(1.256128,0,0,1.256128,-97.7593,-261.1594)" />
    <path
       sodipodi:type="arc"
       style="fill:#010000;fill-opacity:1;stroke:none;stroke-width:2;stroke-miterlimit:4;stroke-dasharray:none;stroke-opacity:1"
       id="path9650"
       sodipodi:cx="219.55666"
       sodipodi:cy="272.82306"
       sodipodi:rx="2.4748738"
       sodipodi:ry="2.4748738"
       d="M 222.03153 272.82306 A 2.4748738 2.4748738 0 1 1  217.08178,272.82306 A 2.4748738 2.4748738 0 1 1  222.03153 272.82306 z"
       transform="matrix(1.256128,0,0,1.256128,-108.7593,-273.4094)" />
    <path
       sodipodi:type="arc"
       style="fill:#010000;fill-opacity:1;stroke:none;stroke-width:2;stroke-miterlimit:4;stroke-dasharray:none;stroke-opacity:1"
       id="path9652"
       sodipodi:cx="219.55666"
       sodipodi:cy="272.82306"
       sodipodi:rx="2.4748738"
       sodipodi:ry="2.4748738"
       d="M 222.03153 272.82306 A 2.4748738 2.4748738 0 1 1  217.08178,272.82306 A 2.4748738 2.4748738 0 1 1  222.03153 272.82306 z"
       transform="matrix(1.256128,0,0,1.256128,25.36566,-285.4094)" />
    <path
       sodipodi:type="arc"
       style="fill:#010000;fill-opacity:1;stroke:none;stroke-width:2;stroke-miterlimit:4;stroke-dasharray:none;stroke-opacity:1"
       id="path9654"
       sodipodi:cx="219.55666"
       sodipodi:cy="272.82306"
       sodipodi:rx="2.4748738"
       sodipodi:ry="2.4748738"
       d="M 222.03153 272.82306 A 2.4748738 2.4748738 0 1 1  217.08178,272.82306 A 2.4748738 2.4748738 0 1 1  222.03153 272.82306 z"
       transform="matrix(1.256128,0,0,1.256128,35.86566,-273.4094)" />
    <path
       sodipodi:type="arc"
       style="fill:#010000;fill-opacity:1;stroke:none;stroke-width:2;stroke-miterlimit:4;stroke-dasharray:none;stroke-opacity:1"
       id="path9656"
       sodipodi:cx="219.55666"
       sodipodi:cy="272.82306"
       sodipodi:rx="2.4748738"
       sodipodi:ry="2.4748738"
       d="M 222.03153 272.82306 A 2.4748738 2.4748738 0 1 1  217.08178,272.82306 A 2.4748738 2.4748738 0 1 1  222.03153 272.82306 z"
       transform="matrix(1.256128,0,0,1.256128,25.11566,-261.1594)" />
    <path
       sodipodi:type="arc"
       style="fill:#010000;fill-opacity:1;stroke:none;stroke-width:2;stroke-miterlimit:4;stroke-dasharray:none;stroke-opacity:1"
       id="path9658"
       sodipodi:cx="219.55666"
       sodipodi:cy="272.82306"
       sodipodi:rx="2.4748738"
       sodipodi:ry="2.4748738"
       d="M 222.03153 272.82306 A 2.4748738 2.4748738 0 1 1  217.08178,272.82306 A 2.4748738 2.4748738 0 1 1  222.03153 272.82306 z"
       transform="matrix(1.256128,0,0,1.256128,14.1157,-273.4094)" />
    <g
       id="g9660"
       transform="matrix(0,1,-1,0,577.4587,-108.322)">
      <path
         transform="matrix(1.256128,0,0,1.256128,-56.18245,-69.84719)"
         d="M 222.03153 272.82306 A 2.4748738 2.4748738 0 1 1  217.08178,272.82306 A 2.4748738 2.4748738 0 1 1  222.03153 272.82306 z"
         sodipodi:ry="2.4748738"
         sodipodi:rx="2.4748738"
         sodipodi:cy="272.82306"
         sodipodi:cx="219.55666"
         id="path9662"
         style="fill:#010000;fill-opacity:1;stroke:none;stroke-width:2;stroke-miterlimit:4;stroke-dasharray:none;stroke-opacity:1"
         sodipodi:type="arc" />
      <path
         transform="matrix(1.256128,0,0,1.256128,-56.1825,-61.7007)"
         d="M 222.03153 272.82306 A 2.4748738 2.4748738 0 1 1  217.08178,272.82306 A 2.4748738 2.4748738 0 1 1  222.03153 272.82306 z"
         sodipodi:ry="2.4748738"
         sodipodi:rx="2.4748738"
         sodipodi:cy="272.82306"
         sodipodi:cx="219.55666"
         id="path9664"
         style="fill:#010000;fill-opacity:1;stroke:none;stroke-width:2;stroke-miterlimit:4;stroke-dasharray:none;stroke-opacity:1"
         sodipodi:type="arc" />
    </g>
    <g
       id="g9666"
       transform="matrix(0,1,-1,0,577.4587,-84.82199)">
      <path
         transform="matrix(1.256128,0,0,1.256128,-56.18245,-69.84719)"
         d="M 222.03153 272.82306 A 2.4748738 2.4748738 0 1 1  217.08178,272.82306 A 2.4748738 2.4748738 0 1 1  222.03153 272.82306 z"
         sodipodi:ry="2.4748738"
         sodipodi:rx="2.4748738"
         sodipodi:cy="272.82306"
         sodipodi:cx="219.55666"
         id="path9668"
         style="fill:#010000;fill-opacity:1;stroke:none;stroke-width:2;stroke-miterlimit:4;stroke-dasharray:none;stroke-opacity:1"
         sodipodi:type="arc" />
      <path
         transform="matrix(1.256128,0,0,1.256128,-56.1825,-61.7007)"
         d="M 222.03153 272.82306 A 2.4748738 2.4748738 0 1 1  217.08178,272.82306 A 2.4748738 2.4748738 0 1 1  222.03153 272.82306 z"
         sodipodi:ry="2.4748738"
         sodipodi:rx="2.4748738"
         sodipodi:cy="272.82306"
         sodipodi:cx="219.55666"
         id="path9670"
         style="fill:#010000;fill-opacity:1;stroke:none;stroke-width:2;stroke-miterlimit:4;stroke-dasharray:none;stroke-opacity:1"
         sodipodi:type="arc" />
    </g>
    <path
       transform="matrix(0,1,-1,0,0,0)"
       style="font-size:20px;font-style:normal;font-variant:normal;font-weight:normal;font-stretch:normal;text-align:start;line-height:100%;writing-mode:lr-tb;text-anchor:start;fill:#000000;fill-opacity:1;stroke:none;stroke-width:1px;stroke-linecap:butt;stroke-linejoin:miter;stroke-opacity:1;font-family:Verdana"
       d="M 184.98212,-314.54172 L 178.88837,-314.54172 L 178.88837,-316.3093 L 184.98212,-316.3093 L 184.98212,-314.54172"
       id="text9672" />
    <path
       style="font-size:20px;font-style:normal;font-variant:normal;font-weight:normal;font-stretch:normal;text-align:start;line-height:100%;writing-mode:lr-tb;text-anchor:start;fill:#000000;fill-opacity:1;stroke:none;stroke-width:1px;stroke-linecap:butt;stroke-linejoin:miter;stroke-opacity:1;font-family:Verdana"
       d="M 320.76382,175.03203 L 318.83023,175.03203 L 318.83023,167.91289 L 311.57437,167.91289 L 311.57437,175.03203 L 309.64078,175.03203 L 309.64078,160.49101 L 311.57437,160.49101 L 311.57437,166.19414 L 318.83023,166.19414 L 318.83023,160.49101 L 320.76382,160.49101 L 320.76382,175.03203"
       id="text9710" />
    <path
       style="font-size:20px;font-style:normal;font-variant:normal;font-weight:normal;font-stretch:normal;text-align:start;line-height:100%;writing-mode:lr-tb;text-anchor:start;fill:#000000;fill-opacity:1;stroke:none;stroke-width:1px;stroke-linecap:butt;stroke-linejoin:miter;stroke-opacity:1;font-family:Verdana"
       d="M 304.11984,192.80829 L 298.02609,192.80829 L 298.02609,191.04071 L 304.11984,191.04071 L 304.11984,192.80829"
       id="text9722" />
    <path
       transform="matrix(0,1,-1,0,0,0)"
       style="font-size:20px;font-style:normal;font-variant:normal;font-weight:normal;font-stretch:normal;text-align:start;line-height:100%;writing-mode:lr-tb;text-anchor:start;fill:#000000;fill-opacity:1;stroke:none;stroke-width:1px;stroke-linecap:butt;stroke-linejoin:miter;stroke-opacity:1;font-family:Verdana"
       d="M 184.98181,-286.87137 L 178.88806,-286.87137 L 178.88806,-288.63895 L 184.98181,-288.63895 L 184.98181,-286.87137"
       id="text9734" />
    <path
       style="font-size:20px;font-style:normal;font-variant:normal;font-weight:normal;font-stretch:normal;text-align:start;line-height:100%;writing-mode:lr-tb;text-anchor:start;fill:#000000;fill-opacity:1;stroke:none;stroke-width:1px;stroke-linecap:butt;stroke-linejoin:miter;stroke-opacity:1;font-family:Verdana"
       d="M 293.09348,175.20726 L 291.15988,175.20726 L 291.15988,168.08812 L 283.90402,168.08812 L 283.90402,175.20726 L 281.97043,175.20726 L 281.97043,160.66624 L 283.90402,160.66624 L 283.90402,166.36937 L 291.15988,166.36937 L 291.15988,160.66624 L 293.09348,160.66624 L 293.09348,175.20726"
       id="text9738" />
    <path
       transform="matrix(0,1,-1,0,0,0)"
       style="font-size:20px;font-style:normal;font-variant:normal;font-weight:normal;font-stretch:normal;text-align:start;line-height:100%;writing-mode:lr-tb;text-anchor:start;fill:#000000;fill-opacity:1;stroke:none;stroke-width:1px;stroke-linecap:butt;stroke-linejoin:miter;stroke-opacity:1;font-family:Verdana"
       d="M 211.58383,-314.73334 L 205.49008,-314.73334 L 205.49008,-316.50092 L 211.58383,-316.50092 L 211.58383,-314.73334"
       id="text9742" />
    <path
       transform="matrix(0,1,-1,0,0,0)"
       style="font-size:20px;font-style:normal;font-variant:normal;font-weight:normal;font-stretch:normal;text-align:start;line-height:100%;writing-mode:lr-tb;text-anchor:start;fill:#000000;fill-opacity:1;stroke:none;stroke-width:1px;stroke-linecap:butt;stroke-linejoin:miter;stroke-opacity:1;font-family:Verdana"
       d="M 211.58353,-287.06299 L 205.48978,-287.06299 L 205.48978,-288.83057 L 211.58353,-288.83057 L 211.58353,-287.06299"
       id="text9746" />
    <path
       style="font-size:20px;font-style:normal;font-variant:normal;font-weight:normal;font-stretch:normal;text-align:start;line-height:100%;writing-mode:lr-tb;text-anchor:start;fill:#000000;fill-opacity:1;stroke:none;stroke-width:1px;stroke-linecap:butt;stroke-linejoin:miter;stroke-opacity:1;font-family:Verdana"
       d="M 320.92865,228.2197 L 318.99506,228.2197 L 318.99506,221.10056 L 311.7392,221.10056 L 311.7392,228.2197 L 309.8056,228.2197 L 309.8056,213.67868 L 311.7392,213.67868 L 311.7392,219.38181 L 318.99506,219.38181 L 318.99506,213.67868 L 320.92865,213.67868 L 320.92865,228.2197"
       id="text9750" />
    <path
       style="font-size:20px;font-style:normal;font-variant:normal;font-weight:normal;font-stretch:normal;text-align:start;line-height:100%;writing-mode:lr-tb;text-anchor:start;fill:#000000;fill-opacity:1;stroke:none;stroke-width:1px;stroke-linecap:butt;stroke-linejoin:miter;stroke-opacity:1;font-family:Verdana"
       d="M 293.2583,228.39493 L 291.32471,228.39493 L 291.32471,221.27579 L 284.06885,221.27579 L 284.06885,228.39493 L 282.13525,228.39493 L 282.13525,213.85391 L 284.06885,213.85391 L 284.06885,219.55704 L 291.32471,219.55704 L 291.32471,213.85391 L 293.2583,213.85391 L 293.2583,228.39493"
       id="text9754" />
    <path
       style="font-size:20px;font-style:normal;font-variant:normal;font-weight:normal;font-stretch:normal;text-align:start;line-height:100%;writing-mode:lr-tb;text-anchor:start;fill:#000000;fill-opacity:1;stroke:none;stroke-width:1px;stroke-linecap:butt;stroke-linejoin:miter;stroke-opacity:1;font-family:Verdana"
       d="M 304.07883,198.67059 L 297.98508,198.67059 L 297.98508,196.90302 L 304.07883,196.90302 L 304.07883,198.67059"
       id="text9758" />
    <path
       style="font-size:20px;font-style:normal;font-variant:normal;font-weight:normal;font-stretch:normal;text-align:start;line-height:100%;writing-mode:lr-tb;text-anchor:start;fill:#000000;fill-opacity:1;stroke:none;stroke-width:1px;stroke-linecap:butt;stroke-linejoin:miter;stroke-opacity:1;font-family:Verdana"
       d="M 303.58774,265.29614 L 297.49399,265.29614 L 297.49399,263.52856 L 303.58774,263.52856 L 303.58774,265.29614"
       id="text9762" />
    <path
       style="font-size:20px;font-style:normal;font-variant:normal;font-weight:normal;font-stretch:normal;text-align:start;line-height:100%;writing-mode:lr-tb;text-anchor:start;fill:#000000;fill-opacity:1;stroke:none;stroke-width:1px;stroke-linecap:butt;stroke-linejoin:miter;stroke-opacity:1;font-family:Verdana"
       d="M 303.58804,273.28403 L 297.49429,273.28403 L 297.49429,271.51645 L 303.58804,271.51645 L 303.58804,273.28403"
       id="text9766" />
  </g>
</svg>
