<?xml version="1.0" encoding="UTF-8" standalone="no"?><!DOCTYPE svg PUBLIC "-//W3C//DTD SVG 1.1//EN" "http://www.w3.org/Graphics/SVG/1.1/DTD/svg11.dtd"><svg width="100%" height="100%" viewBox="0 0 600 204" version="1.1" xmlns="http://www.w3.org/2000/svg" xmlns:xlink="http://www.w3.org/1999/xlink" xml:space="preserve" xmlns:serif="http://www.serif.com/" style="fill-rule:evenodd;clip-rule:evenodd;stroke-linejoin:round;stroke-miterlimit:2;"><text x="99.594px" y="139.331px" style="font-family:'ArialMT', 'Arial', sans-serif;font-size:10px;fill:#737373;">O</text><path d="M123.89,120.121l-0.056,1.075l-25.944,-15.091l-0,-1.109l26,15.125Z" style="fill:#737373;fill-rule:nonzero;"/><path d="M149.7,105.055l0.015,1.154l-25.825,15.342l0.05,-1.194l25.76,-15.302Z" style="fill:#737373;fill-rule:nonzero;"/><path d="M175.865,119.73l0.015,1.155l-26.165,-14.676l-0.015,-1.154l26.165,14.675Z" style="fill:#737373;fill-rule:nonzero;"/><path d="M201.655,104.408l0.015,1.154l-25.79,15.323l-0.015,-1.155l25.79,-15.322Z" style="fill:#737373;fill-rule:nonzero;"/><path d="M227.82,119.083l0.015,1.155l-26.165,-14.676l-0.015,-1.154l26.165,14.675Z" style="fill:#737373;fill-rule:nonzero;"/><path d="M253.615,103.761l0.015,1.155l-25.795,15.322l-0.015,-1.155l25.795,-15.322Z" style="fill:#737373;fill-rule:nonzero;"/><path d="M279.78,118.436l0.015,1.155l-26.165,-14.675l-0.015,-1.155l26.165,14.675Z" style="fill:#737373;fill-rule:nonzero;"/><path d="M305.44,103.193l0.28,0.997l-25.925,15.401l-0.015,-1.155l25.66,-15.243Z" style="fill:#737373;fill-rule:nonzero;"/><path d="M335.705,102.816l-0.255,1.004l-29.73,0.37l-0.28,-0.997l30.265,-0.377Z" style="fill:#737373;fill-rule:nonzero;"/><path d="M334.65,106.43l0.015,1l-28.07,0.349l-0.015,-1l28.07,-0.349Z" style="fill:#737373;fill-rule:nonzero;"/><path d="M361.735,117.416l0.015,1.155l-26.3,-14.751l0.255,-1.004l26.03,14.6Z" style="fill:#737373;fill-rule:nonzero;"/><path d="M387.525,102.094l0.015,1.155l-25.79,15.322l-0.015,-1.155l25.79,-15.322Z" style="fill:#737373;fill-rule:nonzero;"/><path d="M413.69,116.769l0.015,1.155l-26.165,-14.675l-0.015,-1.155l26.165,14.675Z" style="fill:#737373;fill-rule:nonzero;"/><path d="M439.485,101.447l0.015,1.155l-25.795,15.322l-0.015,-1.155l25.795,-15.322Z" style="fill:#737373;fill-rule:nonzero;"/><path d="M465.65,116.123l0.015,1.154l-26.165,-14.675l-0.015,-1.155l26.165,14.676Z" style="fill:#737373;fill-rule:nonzero;"/><path d="M491.44,100.8l0.015,1.155l-25.79,15.322l-0.015,-1.154l25.79,-15.323Z" style="fill:#737373;fill-rule:nonzero;"/><path d="M517.605,115.476l0.015,1.154l-26.165,-14.675l-0.015,-1.155l26.165,14.676Z" style="fill:#737373;fill-rule:nonzero;"/><path d="M543.15,100.301l0.51,0.86l-26.04,15.469l-0.015,-1.154l25.545,-15.175Z" style="fill:#737373;fill-rule:nonzero;"/><text x="64.489px" y="60.797px" style="font-family:'ArialMT', 'Arial', sans-serif;font-size:12px;fill:#737373;">O</text><text x="94.024px" y="18.096px" style="font-family:'ArialMT', 'Arial', sans-serif;font-size:12px;fill:#737373;">O</text><path d="M124.423,58.278l0.022,1.322l-25.978,-14.877l-0.022,-1.323l25.978,14.878Z" style="fill:#737373;fill-rule:nonzero;"/><path d="M150.26,42.87l0.02,1.154l-25.7,15.479l-0.02,-1.156l25.7,-15.477Z" style="fill:#737373;fill-rule:nonzero;"/><path d="M176.515,57.261l0.02,1.155l-26.255,-14.517l-0.02,-1.154l26.255,14.516Z" style="fill:#737373;fill-rule:nonzero;"/><path d="M202.21,41.783l0.025,1.154l-25.7,15.479l-0.02,-1.155l25.695,-15.478Z" style="fill:#737373;fill-rule:nonzero;"/><path d="M228.465,56.299l0.02,1.155l-26.25,-14.517l-0.025,-1.154l26.255,14.516Z" style="fill:#737373;fill-rule:nonzero;"/><path d="M254.165,40.821l0.02,1.154l-25.7,15.479l-0.02,-1.155l25.7,-15.478Z" style="fill:#737373;fill-rule:nonzero;"/><path d="M280.42,55.337l0.02,1.155l-26.255,-14.517l-0.02,-1.154l26.255,14.516Z" style="fill:#737373;fill-rule:nonzero;"/><path d="M306.115,39.859l0.025,1.154l-25.7,15.479l-0.02,-1.155l25.695,-15.478Z" style="fill:#737373;fill-rule:nonzero;"/><path d="M332.37,54.375l0.02,1.155l-26.25,-14.517l-0.025,-1.154l26.255,14.516Z" style="fill:#737373;fill-rule:nonzero;"/><path d="M358.07,38.897l0.02,1.154l-25.7,15.479l-0.02,-1.155l25.7,-15.478Z" style="fill:#737373;fill-rule:nonzero;"/><path d="M384.325,53.413l0.02,1.155l-26.255,-14.517l-0.02,-1.154l26.255,14.516Z" style="fill:#737373;fill-rule:nonzero;"/><path d="M410.02,37.935l0.025,1.155l-25.7,15.478l-0.02,-1.155l25.695,-15.478Z" style="fill:#737373;fill-rule:nonzero;"/><path d="M436.275,52.451l0.02,1.155l-26.25,-14.516l-0.025,-1.155l26.255,14.516Z" style="fill:#737373;fill-rule:nonzero;"/><path d="M461.975,36.973l0.02,1.155l-25.7,15.478l-0.02,-1.155l25.7,-15.478Z" style="fill:#737373;fill-rule:nonzero;"/><path d="M488.48,51.629l-0.485,0.875l-26,-14.376l-0.02,-1.155l26.505,14.656Z" style="fill:#737373;fill-rule:nonzero;"/><path d="M95.329,20.417l1,-0.019l0.465,25.17l-1,0.018l-0.465,-25.169Z" style="fill:#737373;fill-rule:nonzero;"/><path d="M98.929,20.35l1,-0.019l0.465,25.183l-1,0.018l-0.465,-25.182Z" style="fill:#737373;fill-rule:nonzero;"/><path d="M98.559,43.4l0.024,1.157l-25.363,12.379l-0.637,-0.856l25.976,-12.68Z" style="fill:#737373;fill-rule:nonzero;"/><text x="64.489px" y="183.553px" style="font-family:'ArialMT', 'Arial', sans-serif;font-size:12px;fill:#737373;">O</text><path d="M129.217,179.919l0,1.242l-25.983,-14.953l-0.017,-1.247l26,14.958Z" style="fill:#737373;fill-rule:nonzero;"/><path d="M155.245,165.052l-0,1.155l-25.98,15l-0,-1.154l25.98,-15.001Z" style="fill:#737373;fill-rule:nonzero;"/><path d="M181.225,180.052l-0,1.155l-25.98,-15l-0,-1.155l25.98,15Z" style="fill:#737373;fill-rule:nonzero;"/><path d="M207.21,165.052l-0,1.155l-25.985,15l-0,-1.155l25.985,-15Z" style="fill:#737373;fill-rule:nonzero;"/><path d="M233.19,180.052l-0,1.155l-25.98,-15l-0,-1.155l25.98,15Z" style="fill:#737373;fill-rule:nonzero;"/><path d="M259.17,165.052l-0,1.155l-25.98,15l-0,-1.155l25.98,-15Z" style="fill:#737373;fill-rule:nonzero;"/><path d="M285.15,180.052l-0,1.155l-25.98,-15l-0,-1.155l25.98,15Z" style="fill:#737373;fill-rule:nonzero;"/><path d="M310.995,165.13l0.27,1l-26.115,15.077l-0,-1.155l25.845,-14.922Z" style="fill:#737373;fill-rule:nonzero;"/><path d="M341.265,165.13l-0.27,1l-29.73,-0l-0.27,-1l30.27,-0Z" style="fill:#737373;fill-rule:nonzero;"/><rect x="312.095" y="168.73" width="28.07" height="1" style="fill:#737373;fill-rule:nonzero;"/><path d="M367.11,180.052l-0,1.155l-26.115,-15.077l0.27,-1l25.845,14.922Z" style="fill:#737373;fill-rule:nonzero;"/><path d="M392.96,165.13l0.265,1l-26.115,15.077l-0,-1.155l25.85,-14.922Z" style="fill:#737373;fill-rule:nonzero;"/><path d="M423.225,165.13l-0.265,1l-29.735,-0l-0.265,-1l30.265,-0Z" style="fill:#737373;fill-rule:nonzero;"/><rect x="394.055" y="168.73" width="28.075" height="1" style="fill:#737373;fill-rule:nonzero;"/><path d="M449.075,180.052l-0,1.155l-26.115,-15.077l0.265,-1l25.85,14.922Z" style="fill:#737373;fill-rule:nonzero;"/><path d="M474.92,165.13l0.27,1l-26.115,15.077l-0,-1.155l25.845,-14.922Z" style="fill:#737373;fill-rule:nonzero;"/><path d="M103.572,164.898l0.018,1.16l-25.385,12.735l-0.615,-0.857l25.982,-13.038Z" style="fill:#737373;fill-rule:nonzero;"/><rect x="104.388" y="141.611" width="1" height="25.167" style="fill:#737373;fill-rule:nonzero;"/><rect x="100.788" y="141.611" width="1" height="25.214" style="fill:#737373;fill-rule:nonzero;"/><text x="33.286px" y="124.998px" style="font-family:'ArialMT', 'Arial', sans-serif;font-size:12px;fill:#737373;">HC</text><text x="35.171px" y="184.402px" style="font-family:'ArialMT', 'Arial', sans-serif;font-size:12px;fill:#737373;">CH</text><text x="53.163px" y="187.244px" style="font-family:'ArialMT', 'Arial', sans-serif;font-size:7.5px;fill:#737373;">2</text><path d="M42.053,173.992l-1,0.005l-0.24,-46.197l1,-0.005l0.24,46.197Z" style="fill:#737373;fill-rule:nonzero;"/><text x="32.988px" y="60.488px" style="font-family:'ArialMT', 'Arial', sans-serif;font-size:12px;fill:#737373;">CH</text><text x="49.614px" y="63.639px" style="font-family:'ArialMT', 'Arial', sans-serif;font-size:7.5px;fill:#737373;">2</text><path d="M41.267,64.49l0.948,0.01l-0.499,49.957l-0.948,-0.01l0.499,-49.957Z" style="fill:#737373;fill-rule:nonzero;"/><path d="M62.901,56.776l-0.012,1l-9.691,-0.117l0.012,-0.999l9.691,0.116Z" style="fill:#737373;fill-rule:nonzero;"/><path d="M62.901,121.019l-0.012,1l-9.691,-0.116l0.012,-1l9.691,0.116Z" style="fill:#737373;fill-rule:nonzero;"/><path d="M62.901,179.532l-0.012,1l-9.691,-0.117l0.012,-0.999l9.691,0.116Z" style="fill:#737373;fill-rule:nonzero;"/><text x="64.489px" y="125.04px" style="font-family:'ArialMT', 'Arial', sans-serif;font-size:12px;fill:#737373;">O</text><path d="M72.719,122.249l-0.663,-0.811l26,-16.567l0,1.232l-25.337,16.146Z" style="fill:#737373;fill-rule:nonzero;"/><text x="94.898px" y="78.897px" style="font-family:'ArialMT', 'Arial', sans-serif;font-size:12px;fill:#737373;">O</text><rect x="96.094" y="81.177" width="1" height="25.433" style="fill:#737373;fill-rule:nonzero;"/><rect x="99.694" y="81.177" width="1" height="25.425" style="fill:#737373;fill-rule:nonzero;"/><path d="M505.19,165.13l-0.27,1l-29.73,-0l-0.27,-1l30.27,-0Z" style="fill:#737373;fill-rule:nonzero;"/><rect x="476.02" y="168.73" width="28.07" height="1" style="fill:#737373;fill-rule:nonzero;"/><path d="M531.035,180.052l-0,1.155l-26.115,-15.077l0.27,-1l25.845,14.922Z" style="fill:#737373;fill-rule:nonzero;"/><path d="M556.765,165.197l0.5,0.866l-26.23,15.144l-0,-1.155l25.73,-14.855Z" style="fill:#737373;fill-rule:nonzero;"/><text x="554.76px" y="176.197px" style="font-family:'ArialMT', 'Arial', sans-serif;font-size:16px;fill:#737373;">ω</text><text x="123.252px" y="193.084px" style="font-family:'ArialMT', 'Arial', sans-serif;font-size:16px;fill:#737373;">α</text><text x="380.632px" y="160.989px" style="font-family:'ArialMT', 'Arial', sans-serif;font-size:16px;fill:#737373;">12</text><text x="462.295px" y="160.892px" style="font-family:'ArialMT', 'Arial', sans-serif;font-size:16px;fill:#737373;">15</text><text x="306.306px" y="160.892px" style="font-family:'ArialMT', 'Arial', sans-serif;font-size:16px;fill:#737373;">9</text></svg>