<?xml version="1.0" encoding="UTF-8"?>
<!-- Created with Inkscape (http://www.inkscape.org/) -->
<svg width="145.52mm" height="150.02mm" version="1.1" viewBox="0 0 145.52 150.02" xmlns="http://www.w3.org/2000/svg" xmlns:cc="http://creativecommons.org/ns#" xmlns:dc="http://purl.org/dc/elements/1.1/" xmlns:rdf="http://www.w3.org/1999/02/22-rdf-syntax-ns#" xmlns:xlink="http://www.w3.org/1999/xlink">
 <metadata>
  <rdf:RDF>
   <cc:Work rdf:about="">
    <dc:format>image/svg+xml</dc:format>
    <dc:type rdf:resource="http://purl.org/dc/dcmitype/StillImage"/>
    <dc:title/>
   </cc:Work>
  </rdf:RDF>
 </metadata>
 <g transform="translate(-8.467 -38.541)">
  <g fill="#f2f2f2" stroke-width=".3">
   <g stroke="#000">
    <path d="m128.29 138.27c0.38725 0.069 0.72821-0.43929 0.79869-1.0973 0.0705-0.65791-0.11858-1.2188-0.37803-1.265-1.4701-0.26166-2.8779-0.97465-3.9479-2.0101-1.1949-1.151-2.0043-2.7353-2.2369-4.378-0.20757-1.3873 1e-3 -2.8616 0.45765-4.2656 0.46007-1.4073 1.2038-2.7505 2.067-4.0448 1.7323-2.5874 4.0204-4.9663 5.8541-7.8501 4.1959-6.6474 5.0192-15.243 2.197-22.572-0.12684-0.3294-0.72857-0.37466-1.3403-0.11974-0.61173 0.25491-1.0072 0.70048-0.89767 0.98347 2.5474 6.584 1.7941 14.464-1.9872 20.425-1.6466 2.6173-3.9229 4.9782-5.8186 7.7956-0.95084 1.408-1.7898 2.9456-2.3527 4.6282-0.56631 1.6857-0.80751 3.5244-0.55518 5.359 0.31375 2.1844 1.3595 4.2312 2.9458 5.7654 1.426 1.3745 3.2494 2.2994 5.1943 2.6458z"/>
    <path d="m62.524 137.47c-0.18578 0.2008 0.06288 0.72517 0.55184 1.1725 0.48896 0.44736 1.0311 0.6505 1.2099 0.45731 4.0421-4.3692 8.5353-8.322 13.384-11.774h1e-6c2.8298-2.0149 5.8272-3.8897 8.7061-6.028l2e-6 -1e-5c3.9719-2.9524 7.6135-6.3468 10.837-10.101 0.17938-0.20889-0.08922-0.7236-0.59522-1.1516-0.506-0.428-1.0553-0.61024-1.2256-0.41191-3.1078 3.6193-6.6197 6.8929-10.448 9.7388h-1e-6c-2.774 2.0637-5.7582 3.9288-8.6664 5.9991l-2e-6 1e-5c-4.9832 3.5479-9.5997 7.6092-13.754 12.099z"/>
    <path d="m49.873 51.946c-0.46574-0.49765-1.2017-0.40401-1.6308 0.0976-0.42886 0.50137-0.44548 1.1954-0.12159 1.5418 0.93297 0.99774 1.6259 2.2332 1.9788 3.5477 0.43394 1.6068 0.36862 3.3668-0.18326 4.937-0.46997 1.3481-1.3059 2.583-2.3712 3.5558l-3e-6 2e-6c-1.0658 0.97442-2.3806 1.6941-3.7811 2.1036-1.4946 0.44847-3.2233 0.53238-5.0483 0.89205l-5e-6 1e-6c-0.91414 0.17548-1.8528 0.43566-2.7682 0.85111l-2e-6 2e-6c-0.91948 0.41467-1.7928 1.0181-2.5088 1.829-1.1133 1.3339-1.6457 2.9272-1.8713 4.4299-0.24825 1.4892-0.29633 2.8928-0.54 4.1513-0.3502 1.9152-1.209 3.8183-1.961 5.8693v2e-6c-0.78021 2.0465-1.4187 4.3229-1.2638 6.7403 0.14759 1.8177 0.76344 3.5361 1.6572 5.0427l3e-6 4e-6c0.88994 1.5043 2.0134 2.8142 3.2185 3.9766h4e-6c2.4053 2.327 5.0833 4.1356 7.2301 6.3023 4.8751 4.8882 7.415 12.108 6.7321 18.979-0.05292 0.53248 0.4118 1.0604 1.0674 1.155 0.65573 0.0947 1.2588-0.30325 1.3194-0.91907 0.7487-7.6119-2.0198-15.474-7.4179-20.908-2.3756-2.3772-5.0636-4.1957-7.2602-6.332l-2e-6 -3e-6c-1.0958-1.0692-2.0864-2.21-2.8201-3.4695l-1e-6 -1e-6c-0.72971-1.2571-1.2376-2.631-1.3335-4.0093-0.16899-1.8345 0.42213-3.7725 1.1216-5.7252l2e-6 -4e-6c0.7277-1.9484 1.6221-3.9798 2.068-6.2541 0.28061-1.5007 0.33168-2.921 0.54898-4.2015 0.23994-1.2666 0.58735-2.4678 1.316-3.2535 0.42915-0.50686 1.0327-0.90817 1.6995-1.2226 1e-6 0 2e-6 -1e-6 3e-6 -2e-6 0.6709-0.31364 1.4297-0.51573 2.2286-0.67683l5e-6 -1e-6c1.6012-0.3135 3.3995-0.41435 5.2572-0.94289 1.7426-0.50652 3.3725-1.403 4.7263-2.634l3e-6 -4e-6c1.3542-1.2326 2.4062-2.7941 3.0193-4.5355l2e-6 -5e-6c0.71296-2.0375 0.79583-4.2702 0.23589-6.3549-0.45994-1.7043-1.3413-3.2782-2.5438-4.5632z"/>
    <path d="m61.322 115.71c-0.48978 0.26707-0.67721 0.95665-0.38457 1.5508 0.29266 0.59424 0.97539 0.86039 1.5335 0.55598 4.127-2.2509 7.6619-5.5598 10.172-9.5374 2.6568-4.2452 4.089-8.9512 5.9645-13.256 0.87767-1.9984 1.8488-3.9256 3.0806-5.6316 1.2322-1.7018 2.7125-3.2111 4.4539-4.2427 2.1994-1.3431 4.8915-1.9239 7.6437-2.4348 2.7607-0.4866 5.677-0.90827 8.4919-2.0254 5.6858-2.3521 9.6723-7.0074 14.158-10.3 5.3605-3.9157 11.934-6.1851 18.569-6.4293 0.56645-0.02085 1.0392-0.55911 1.0359-1.2216-3e-3 -0.66256-0.4982-1.1996-1.1244-1.1764-7.1213 0.26355-14.137 2.6862-19.896 6.889-4.8212 3.5021-8.6347 8.0613-13.638 10.012-2.4427 0.99923-5.2015 1.3756-8.0193 1.8895-2.8262 0.48959-5.7877 1.1713-8.452 2.7375-2.0828 1.2559-3.802 2.9849-5.1707 4.9016-1.3691 1.9126-2.4236 3.9863-3.3309 6.0711-1.9631 4.4767-3.3388 9.0763-5.7953 12.937-2.2859 3.6252-5.5272 6.6586-9.2913 8.7111z"/>
    <path d="m43.169 50.24c0.0772-0.51795-0.29352-1.1506-0.92205-1.3434-0.62948-0.19313-1.3308 0.19653-1.4497 0.9883-0.35543 2.3658 0.18656 4.8356 1.5383 6.8299 1.6206 2.368 4.2896 3.9142 7.15 4.1421h3e-6c2.4452 0.1751 4.5722-0.48825 6.3058-0.14707l2e-6 1e-6c1.2248 0.18435 2.4277 0.86455 3.6389 1.64 1.2038 0.79511 2.4343 1.744 3.8894 2.516 2.6331 1.3631 5.5738 1.8713 8.4206 1.8505h5e-6c2.8411-0.01404 5.5978-0.47778 8.2712-0.9755 2.6742-0.49027 5.2906-1.0123 7.8834-1.153 2.5887-0.13342 5.1851 0.07711 7.4798 0.99942 2.4252 0.95644 4.5575 2.7014 5.9848 4.8861v4e-6c0.7987 1.2084 1.4102 2.6271 2.1341 4.0805 0.7113 1.4622 1.5742 2.9688 2.8281 4.2586v4e-6c2.1489 2.1213 5.0257 3.1899 7.842 3.5304v1e-6c2.7996 0.35482 5.538 0.15015 8.163 0.03173 3.5701-0.15285 7.1477-0.13225 10.716 0.06162 0.6502 0.03533 1.2171-0.46556 1.2602-1.1269 0.043-0.66132-0.45969-1.2332-1.13-1.2696-3.6457-0.19808-7.301-0.21913-10.949-0.06296-2.6817 0.10878-5.2822 0.31946-7.7495-0.01371-2.4491-0.34735-4.8608-1.1854-6.4469-2.8387v-2e-6c-0.97382-0.96144-1.6886-2.2606-2.3837-3.6362-0.68248-1.3845-1.3412-2.8858-2.2758-4.3282-1.7053-2.6061-4.2132-4.6573-7.1114-5.8047-2.7423-1.0684-5.6775-1.3336-8.4964-1.1636-2.8151 0.16276-5.5319 0.69678-8.1843 1.189-2.6532 0.48476-5.267 0.93523-7.8423 0.9357l-5e-6 -1e-6c-2.5692-0.0063-5.1362-0.42302-7.2993-1.5759-1.2112-0.62669-2.3736-1.5355-3.685-2.3955-1.3038-0.8797-2.8123-1.6803-4.5556-2.0011-2e-6 -1e-6 -4e-6 -1e-6 -6e-6 -1e-6 -2.4937-0.37827-4.6932 0.27613-6.5232 0.1202h-4e-6c-2.1013-0.15623-4.1708-1.3552-5.3516-3.1003-1.0004-1.4592-1.413-3.3603-1.1501-5.1238z"/>
    <path d="m114.57 139.02c-0.10023 0.52458 0.2613 1.1591 0.88893 1.3608 0.62758 0.2017 1.3252-0.16041 1.4684-0.91038 0.0523-0.27396 0.0941-0.54998 0.12506-0.82731 0.33136-3.3884-0.81226-6.6096-2.3005-9.3716-1.4489-2.7685-3.1659-5.2495-4.1889-7.9027-2.0465-5.1426-1.5932-11.113 0.0311-16.589v-1e-5c1.0348-3.4419 2.5737-6.8202 3.7347-10.434 1.1814-3.6135 1.9127-7.5645 1.2426-11.504-0.6143-3.3316-2.1401-6.2668-3.5269-9.0572v-5e-6c-1.3503-2.8009-2.628-5.594-2.7371-8.4331-0.10542-2.0937 0.39089-4.2316 1.4079-6.0648v-4e-6c1.0154-1.8341 2.5651-3.3882 4.3964-4.4086 1.8303-1.0221 3.9669-1.5243 6.0609-1.4247 1.742 0.08127 3.4741 0.57994 5.001 1.4301 0.48898 0.27228 1.2052 0.11391 1.5798-0.43016 0.37477-0.54428 0.23156-1.3077-0.41208-1.6663-1.8512-1.0313-3.9349-1.6303-6.0558-1.731-2.5496-0.11916-5.1135 0.48352-7.343 1.7261v2e-6c-2.2286 1.2442-4.0884 3.1092-5.3264 5.3412l-1e-5 5e-6c-1.2364 2.2329-1.832 4.7985-1.7057 7.3478 0.20375 3.4313 1.5624 6.5372 2.9799 9.3716v3e-6c1.3812 2.845 2.8374 5.567 3.3178 8.4176 0.62064 3.3499-0.0846 6.917-1.1646 10.352-1.1006 3.436-2.6437 6.8277-3.7472 10.474-1.7829 5.8179-2.2155 12.311 0.0311 18.156 1.1811 2.9878 2.9347 5.5493 4.2989 8.144v1e-5c1.3244 2.6002 2.3814 5.3611 2.0407 7.9904-0.0241 0.2155-0.0565 0.43018-0.0973 0.64331z"/>
    <path d="m101.29 53.25c4e-3 -0.36312-0.53015-0.66507-1.193-0.67145-0.66285-0.0064-1.2026 0.28781-1.2058 0.66005l-0.11645 13.348c0.49964 2.549 1.6856 4.9441 3.4048 6.8808 1.7168 1.8949 3.9426 3.3044 6.3895 4.0463 1.63 0.4997 3.3868 0.69218 5.1331 0.45103 1.7522-0.24183 3.4585-0.96789 4.8308-2.1717 1.1813-1.0755 1.9766-2.3197 2.7338-3.3964l1e-5 -2e-6c0.78403-1.0467 1.5451-2.0138 2.4869-2.4423 1.0318-0.54602 2.4108-0.51426 3.5883-0.07255 1.1972 0.44776 2.2419 1.3865 3.0463 2.5 0.86076 1.2134 1.4166 2.657 1.5994 4.1363 0.0375 0.30378 0.58995 0.55337 1.2506 0.51576 0.66075-0.03762 1.1837-0.38374 1.131-0.81006-0.23181-1.8759-0.92877-3.684-2.0228-5.2295-1.006-1.4416-2.4138-2.6635-4.1355-3.3496-1.74-0.6916-3.7674-0.69274-5.5333 0.16438-1.5024 0.7973-2.5554 2.0139-3.3627 3.1909l-1e-5 2e-6c-0.8343 1.1472-1.5099 2.2585-2.3746 2.9975-0.95737 0.8623-2.2454 1.3948-3.5761 1.5912-1.3369 0.19707-2.7492 0.03097-4.0998-0.3719v-1e-6c-2.0233-0.61179-3.8879-1.7926-5.306-3.3601-1.4156-1.5257-2.4021-3.4575-2.8067-5.4908z"/>
   </g>
   <g>
    <use transform="rotate(262.29 86.891 43.037)" width="100%" height="100%" stroke="#000000" xlink:href="#g1789"/>
    <use transform="rotate(256.17 98.877 27.677)" width="100%" height="100%" stroke="#000000" xlink:href="#g1797"/>
    <path d="m134.57 110.24c0.87709-0.0156 1.5216-0.6057 1.4744-1.2662-0.0472-0.66038-0.74001-1.1469-1.517-1.133-4.937 0.0879-9.9111-1.1845-14.188-3.6486-3.153-1.8049-5.9912-4.3056-9.1411-6.5573l-1e-5 -3e-6c-3.1398-2.2785-6.7476-4.288-10.823-4.8193-4.2838-0.48777-8.4758 0.73614-12.184 2.4687l-3e-6 2e-6c-3.7101 1.7062-7.0869 3.8388-10.624 5.3729-4.4762 1.9428-9.3474 3.0151-14.179 2.841-4.3955-0.14116-8.8295-1.338-13.478-1.9413h-7e-6c-4.657-0.64437-9.7473-0.52321-14.135 1.8207-3.4293 1.921-5.8742 4.8817-8.3253 7.4504h-5e-6c-1.2346 1.2731-2.4936 2.4714-3.8883 3.4039-1.3932 0.92649-2.9184 1.6288-4.484 1.8392-1.965 0.28394-4.0709-0.20991-5.745-1.3037-0.56672-0.3703-1.3935-0.39695-1.8373 0.0864-0.44476 0.48434-0.29626 1.3832 0.5239 1.9206 2.1622 1.4167 4.8184 2.0337 7.3956 1.673 2.0184-0.29829 3.8781-1.1292 5.4874-2.2247 1.6079-1.0897 2.9957-2.3961 4.2747-3.7281h5e-6c2.5761-2.6414 4.8294-5.4559 7.7508-7.0117 3.6454-2.0538 8.2483-2.0834 12.672-1.5459h3e-6c4.4354 0.57883 8.9447 1.7818 13.704 1.9599 5.2386 0.17708 10.457-0.96116 15.22-3.0389 3.7574-1.6398 7.1489-3.779 10.668-5.3926l5e-6 -3e-6c3.5195-1.5867 7.2806-2.7435 10.892-2.2674l1e-5 3e-6c3.4516 0.38769 6.6906 2.2536 9.717 4.3886v3e-6c3.0169 2.1622 5.9215 4.7057 9.3402 6.6855 4.6638 2.6846 10.051 4.0635 15.428 3.9681z" stroke="#000"/>
   </g>
   <use transform="rotate(10.572 -322.84 170.37)" width="100%" height="100%" xlink:href="#g1793"/>
   <g>
    <path d="m21.262 53.787c-0.4409-0.67853-1.2497-0.90754-1.7972-0.53421-0.54744 0.37333-0.63343 1.1984-0.2153 1.8419 1.2653 1.9473 2.4228 3.9648 3.4651 6.0399 3.2865 6.5409 5.4818 13.808 9.3965 20.389l4e-6 5e-6c3.7278 6.2167 8.7294 11.371 12.898 16.941 4.1758 5.5874 7.7141 11.86 12.642 17.202 3.5345 3.8481 7.9348 7.1638 13.122 8.6266 3.8518 1.0461 7.7925 1.0113 11.563 0.91724 3.7674-0.0694 7.4799-0.18069 10.918 0.69426 5.2506 1.3018 9.9276 4.9718 12.503 9.7343 0.34274 0.63385 1.0845 0.97939 1.6877 0.70744 0.60346-0.27208 0.82882-1.0964 0.42147-1.8487-2.9078-5.3704-8.0944-9.4362-14.032-10.922-3.8672-0.94509-7.7902-0.8573-11.55-0.76489-3.7567 0.0677-7.4668 0.13132-10.871-0.83083-4.6058-1.2477-8.6324-4.3359-12.001-7.9441-4.6919-5.0485-8.1765-11.257-12.481-17.009-4.2901-5.7402-9.2455-10.825-12.76-16.735l-3e-6 -5e-6c-3.7351-6.2282-5.9023-13.445-9.3124-20.236-1.0822-2.1545-2.2837-4.2488-3.5973-6.2704z" stroke="#000"/>
    <path d="m102.89 52.374c-0.3952-0.70728-1.1938-0.85656-1.7238-0.46395-0.52938 0.39217-0.64891 1.1344-0.3705 1.6334 1.0107 1.8114 1.3832 4.0133 0.98886 6.0392-0.4547 2.385-1.9854 4.6019-4.0545 5.8722h-2e-6c-2.3239 1.4865-5.3754 1.741-8.3998 1.6868-3.0362-0.09212-6.2154-0.5431-9.5204-0.25681l-3e-6 1e-6c-4.3587 0.40926-8.4636 2.1228-12.039 4.466-3.5525 2.323-6.5929 5.1648-9.7812 7.6253-3.1971 2.4383-6.6275 4.5982-10.373 5.2985l-5e-6 1e-6c-3.5768 0.72279-7.5368 0.09131-11.656 0.51898-7.4998 0.80841-14.326 5.2805-18.508 11.479-1.3235 1.9566-2.4032 4.0758-3.2091 6.2956-0.2501 0.6889 0.09629 1.3958 0.72847 1.5932 0.63214 0.19739 1.3065-0.16557 1.5274-0.77421 0.73849-2.034 1.7288-3.978 2.9411-5.7699 3.8201-5.6304 10.067-9.7551 16.771-10.437 3.6971-0.39241 7.7264 0.2287 11.864-0.55009l5e-6 -3e-6c4.3113-0.86796 8.0774-3.1797 11.38-5.7538 3.3118-2.5523 6.3004-5.3573 9.6256-7.5148 3.3419-2.1634 7.0824-3.7505 10.946-4.0867l5e-6 -1e-6c2.9291-0.2789 6.0128 0.17501 9.2336 0.26559l6e-6 -1e-6c3.2315 0.12846 6.7262-0.24467 9.7295-2.0429 2.659-1.6451 4.5554-4.3916 5.1515-7.461 0.4989-2.6107 0.0389-5.3538-1.2512-7.6626zm-70.667 66.992c0.12052 1.0474 0.8074 1.7544 1.4581 1.633 0.65039-0.12138 1.0308-0.98946 0.92501-1.9074-0.69999-6.0721 0.86175-12.433 4.3384-17.455 2.4795-3.5472 5.949-6.5195 10-7.5694l3e-6 -1e-6c2.0212-0.53526 4.1689-0.61596 6.1642-0.12964 2e-6 0 5e-6 1e-6 7e-6 1e-6 1.991 0.48409 3.8625 1.5257 5.2154 3.0156 1.9143 2.0259 2.8072 4.9737 3.677 7.9596 0.82025 3.0117 1.697 6.2691 3.7308 9.0541 1.1972 1.6045 2.7679 2.9291 4.5771 3.8186 1.8109 0.88918 3.8429 1.3198 5.8716 1.2124 2.0302-0.10894 4.0238-0.76868 5.7141-1.9235 1.6906-1.1574 3.036-2.8003 3.817-4.7095 2e-6 -1e-5 3e-6 -1e-5 4e-6 -1e-5 0.88474-2.2334 0.99844-4.6137 0.75474-6.8368 0-1e-5 0-1e-5 -1e-6 -1e-5 -0.22918-2.2182-0.73256-4.3108-1.0594-6.3431 0-2e-6 -1e-6 -5e-6 -1e-6 -7e-6 -0.31203-2.0313-0.48557-4.0416-0.07056-5.8823 0.20176-0.9196 0.52846-1.7996 1.0089-2.5598 0.47919-0.75768 1.1014-1.4189 1.8297-1.8665 0.87212-0.5591 1.9691-0.82971 3.0972-0.91536 3e-6 0 5e-6 0 7e-6 -1e-6 1.1341-0.08188 2.3231 0.06372 3.5398 0.27637 6.4837 1.1508 12.76 4.4879 19.848 5.3559 6.4353 0.7597 13.086-0.77915 18.55-4.2468 0.88916-0.56427 1.2272-1.4898 0.8351-2.0231-0.39194-0.53307-1.3394-0.49839-2.1207-0.0024-4.9892 3.1674-11.117 4.587-16.982 3.889-6.4964-0.74191-12.726-4.0721-19.707-5.3349-1.3108-0.24042-2.694-0.39682-4.1221-0.30876-1.4339 0.08429-2.9011 0.47424-4.208 1.2734-1.0715 0.67424-1.9488 1.59-2.5946 2.6301-0.6447 1.0377-1.0753 2.1735-1.3205 3.3272-0.47888 2.3058-0.31319 4.6114 0.04699 6.7684 0 3e-6 1e-6 5e-6 1e-6 8e-6 0.3454 2.1561 0.84274 4.2026 1.0413 6.2047h-1e-6c0.184 1.9968 0.12531 3.9947-0.58972 5.6897h-1e-6c-0.58884 1.4546-1.6455 2.7392-2.9509 3.6349-1.3059 0.89837-2.8906 1.4192-4.4873 1.5068-1.5983 0.0891-3.2347-0.26096-4.6852-0.97083-1.4522-0.70955-2.7342-1.7946-3.711-3.1001l-2e-6 -1e-5c-1.7213-2.2416-2.4687-5.2362-3.3427-8.2658-0.82433-3.0551-1.8971-6.3267-4.2166-8.931-1.7175-1.8681-3.992-3.1476-6.4245-3.7293-3e-6 -1e-6 -6e-6 -2e-6 -9e-6 -2e-6 -2.4285-0.57955-4.9699-0.49405-7.3452 0.14403-3e-6 0-6e-6 1e-6 -8e-6 2e-6 -4.7398 1.2961-8.6611 4.5864-11.355 8.5235-3.8158 5.526-5.5139 12.433-4.7473 19.095z" stroke="#000"/>
    <use transform="rotate(148.69 64.002 32.354)" width="100%" height="100%" stroke="#000000" xlink:href="#g1797"/>
   </g>
   <g stroke="#000">
    <path d="m20.407 121.95c-0.85097-0.3276-1.7475-0.11565-1.9985 0.49765-0.25092 0.61332 0.24881 1.4004 1.1363 1.7421 10.528 4.0526 21.881 5.9361 33.155 5.4907 3.9104-0.14602 7.9107-0.60271 11.721-1.9466h3e-6c3.8223-1.3416 7.4086-3.703 9.7987-7.1228l2e-6 -1e-5c1.3438-1.9665 2.2073-4.0943 3.088-6.0786 0.89953-1.9721 1.8283-3.8672 3.2033-5.2634h5e-6c1.1532-1.2059 2.6519-2.106 4.2664-2.699 1.6179-0.59337 3.3734-0.86366 5.1482-0.91509 3.5534-0.11085 7.1644 0.73821 10.842 1.5472 4.7873 1.0987 9.9552 2.1001 15.064 0.90999 2.5605-0.60981 5.026-1.8507 6.9463-3.7694 1.9293-1.9293 3.1805-4.5764 3.2373-7.3832 1e-3 -2.1463-0.62306-4.1039-1.2451-5.8834-1e-5 -3e-6 -1e-5 -5e-6 -1e-5 -7e-6 -0.58719-1.7854-1.1829-3.4749-1.1602-5.0928-4e-3 -1.3486 0.37882-2.7126 1.083-3.8627 0.70258-1.1511 1.7422-2.1134 2.944-2.7251 1.201-0.61333 2.5905-0.88938 3.9347-0.78177 0.86442 0.06801 1.7222 0.29559 2.5141 0.66076 0.68155 0.3143 1.5702 0.29 1.955-0.23779 0.38513-0.52835 0.0681-1.4718-0.94932-1.9415-1.0464-0.48312-2.1762-0.78175-3.3299-0.8739-1.7945-0.1415-3.6106 0.21932-5.2147 1.0361-1.6033 0.81839-2.9621 2.0761-3.9017 3.6115-0.93805 1.5363-1.4379 3.3191-1.4352 5.1192 0.0301 2.1401 0.66813 4.0847 1.2872 5.8584v7e-6c0.58422 1.7797 1.1664 3.47 1.1183 5.0814-8e-3 2.0853-1.027 4.1798-2.542 5.7253-1.5252 1.5572-3.6109 2.5838-5.8069 3.1265-4.4044 1.115-9.2099 0.11024-13.977-0.92002-3.6601-0.826-7.4665-1.6939-11.428-1.6038-1.9826 0.049-3.9901 0.36725-5.9045 1.0588-1.9176 0.69187-3.7189 1.7886-5.174 3.289-2e-6 0-4e-6 0-6e-6 1e-5 -1.6824 1.7759-2.7653 3.8993-3.6658 5.9484-0.91936 2.0369-1.7109 4.0368-2.8719 5.6948h-6e-6c-1.9922 2.9216-5.1885 4.9841-8.6287 6.2261h-7e-6c-3.4539 1.2401-7.2177 1.6511-11.011 1.8097-10.943 0.43295-21.977-1.3977-32.198-5.3323z"/>
    <path d="m54.819 51.543c-0.61426-0.81556-1.5473-1.0158-2.0333-0.56818-0.4857 0.44735-0.38668 1.3436 0.11639 2.0117 1.5578 2.069 2.6171 4.5257 3.0353 7.0774 0.50461 3.0645 0.08914 6.2948-1.1745 9.1319-0.98157 2.2223-2.579 4.3575-3.662 6.9548l-3e-6 7e-6c-0.54458 1.3005-0.91921 2.7308-0.95235 4.2346-0.03605 1.5131 0.35316 3.0759 1.2461 4.409 0.88673 1.2662 2.1354 2.1719 3.4822 2.7075 1.3377 0.53582 2.726 0.76841 4.0654 0.8383 2.674 0.15462 5.1752-0.21318 7.4172 0.16821l3e-6 1e-6c1.9944 0.31543 3.9129 1.1991 5.5457 2.4472 1.6354 1.2498 2.9897 2.8877 4.0237 4.7095 1.4655 2.5605 2.2706 5.555 3.2153 8.5867 0.92151 3.0428 2.0473 6.2031 4.0912 8.9227 1.942 2.5395 4.6134 4.4602 7.5802 5.5735 2.9645 1.1112 6.1819 1.4346 9.2941 1.0367h1e-5c3.567-0.46942 6.8246-1.768 9.9966-2.7932 3.1748-0.98998 6.4086-1.7783 9.4273-1.2235 2.3421 0.40033 4.5707 1.577 6.2223 3.2853 1.6538 1.706 2.7577 3.9716 3.0819 6.3255v1e-5c0.32737 2.3534-0.11955 4.8337-1.2478 6.9248-0.8865 1.6484-2.2072 3.0766-3.7765 4.1079-0.67066 0.44077-1.0865 1.2333-0.80324 1.8273 0.28362 0.59467 1.2374 0.75836 2.1207 0.17845 1.9025-1.2491 3.4883-2.9665 4.572-4.9755 1.3729-2.552 1.9079-5.5213 1.5122-8.3921-0.39891-2.8703-1.7204-5.5826-3.7349-7.6658-2.0168-2.0809-4.6848-3.4896-7.5407-3.9814h-1e-5c-3.6675-0.59272-7.2808 0.22226-10.566 1.3036-3.2885 1.0462-6.4025 2.313-9.566 2.6978-2.7477 0.34579-5.5827 0.0673-8.1467-0.902-2.5613-0.96706-4.8782-2.624-6.5168-4.7822-1.7739-2.2891-2.7715-5.2003-3.7066-8.1753-0.91197-2.9863-1.7851-6.1387-3.4195-9.0604-1.1704-2.0767-2.7341-3.9555-4.6518-5.4322-1.92-1.4783-4.1986-2.5171-6.6258-2.9127-2e-6 0-5e-6 -1e-6 -8e-6 -1e-6 -2.7271-0.41772-5.3092-0.05874-7.6597-0.19466-1.1728-0.07538-2.3052-0.25006-3.2976-0.66457-0.98285-0.41458-1.8736-1.0315-2.4084-1.8412-0.58181-0.8205-0.83119-1.9188-0.82659-3.0155v-6e-6c0.0075-1.1064 0.32194-2.2445 0.77172-3.3579l4e-6 -7e-6c0.90588-2.2304 2.4946-4.3451 3.6356-6.8933 1.4559-3.2748 1.9299-6.9601 1.35-10.497-0.48465-2.9442-1.6944-5.7523-3.4866-8.1319z" style="paint-order:markers fill stroke"/>
    <path d="m17.642 77.292c-0.4425-0.42587-1.162-0.34899-1.6062 0.14265-0.44414 0.49161-0.45789 1.2015-0.05776 1.5865 4.3183 4.1548 7.4952 9.5122 9.0555 15.297 0.72843 2.6895 1.1283 5.5643 1.9152 8.4494 0.76977 2.8976 2.0428 5.8304 4.2712 8.119h4e-6c2.5469 2.5083 5.8418 3.8096 8.9637 4.799 3.0982 1.0313 6.1704 1.8806 8.5656 3.6194 2.4618 1.7354 4.4626 4.5713 7.5635 6.4667 2.7936 1.6308 5.9464 2.1684 8.9205 2.4232 2.9647 0.28652 5.852 0.37049 8.4547 1.1704 3.3721 1.0106 6.4015 3.23 8.407 6.1281 0.29832 0.4311 0.9928 0.54705 1.5602 0.2064 0.56756-0.34072 0.77972-1.0414 0.41241-1.5719-2.3213-3.3525-5.778-5.8828-9.6888-7.0611-3.0091-0.8868-6.052-1.0011-8.9215-1.2614-2.8598-0.29201-5.677-0.71991-7.9137-2.094-2.5516-1.4812-4.4991-4.2824-7.4036-6.3623-2.8751-2.0083-6.1623-2.966-9.2103-3.9446-3.024-1.0203-5.9995-2.1244-8.0054-4.2077l-3e-6 -1e-5c-1.8366-1.8112-2.9061-4.3919-3.6606-7.0628-0.73761-2.6841-1.1367-5.5561-1.9129-8.4411-1.6782-6.2138-5.0728-11.939-9.7086-16.401z"/>
   </g>
   <use transform="rotate(59.185 112.46 66.054)" width="100%" height="100%" xlink:href="#use1853"/>
   <g>
    <path d="m21.017 136.01c-0.81338 0.21387-1.3907 0.88394-1.2521 1.5316 0.13864 0.64774 0.96538 1.0249 1.8625 0.7888 8.1552-2.1464 15.52-7.1424 20.501-13.955 3.1611-4.3429 5.2891-9.1718 8.0548-13.417 2.9769-4.5664 6.8912-8.78 9.4311-14.035l2e-6 -7e-6c1.4387-3.0231 2.3202-6.1767 3.326-9.1768 1.0208-2.9921 2.1713-5.9049 4.0206-8.2421 2.6787-3.4572 6.8707-5.691 11.252-6.495 4.3951-0.80658 9.03-0.19523 13.337 1.278l6e-6 2e-6c3.8336 1.3122 7.4557 3.3435 11.141 5.3591 3.6749 2.0223 7.4657 4.0534 11.613 5.3437 4.2945 1.3259 8.8506 1.7739 13.32 1.3184 0.92669-0.09445 1.5667-0.74127 1.4667-1.3959-0.10004-0.65453-0.87658-1.0766-1.71-0.99161-4.1477 0.42278-8.3865 0.0062-12.369-1.224-3.8557-1.1814-7.498-3.1496-11.167-5.1549-3.6696-2.0181-7.4159-4.1043-11.514-5.5239l-7e-6 -1e-6c-4.6159-1.6002-9.6536-2.2424-14.546-1.3705-4.9038 0.87397-9.5838 3.4024-12.716 7.3788-2.1011 2.7167-3.3795 5.8671-4.4044 8.9547-1.04 3.0798-1.8848 6.1431-3.216 8.9059l-3e-6 6e-6c-2.2893 4.8329-6.1525 8.9553-9.2777 13.761-2.906 4.4666-5.0094 9.26-7.9813 13.31-4.6402 6.3546-11.563 11.049-19.174 13.05z" stroke="#000"/>
    <use transform="rotate(233.37 119.93 9.5869)" width="100%" height="100%" stroke="#000000" xlink:href="#g1793"/>
    <path d="m80.5 52.33c0.61292-0.10907 1.2553-0.62662 1.2888-1.2759 0.03357-0.64966-0.67502-1.271-1.709-1.0873-0.77977 0.13853-1.538 0.39451-2.2445 0.76137-1.2335 0.64233-2.2807 1.6084-3.0203 2.7861-0.7382 1.1786-1.1518 2.542-1.1929 3.9321-0.03949 1.3902 0.29446 2.7752 0.96317 3.9946l3e-6 2e-6c0.83087 1.4751 2.0383 2.6159 3.3308 3.4799 1.2825 0.86882 2.614 1.5224 3.8584 2.1776 1.2387 0.66367 2.4136 1.3276 3.3469 2.1794 0.91926 0.85065 1.6723 1.8663 1.9107 2.9578 0.30994 1.1922 0.02428 2.5718-0.59457 3.7498-0.62811 1.1909-1.6669 2.1998-2.8472 3.0425l-2e-6 2e-6c-2.3687 1.6939-5.4412 2.5875-8.3853 4.1632-3.7311 1.9957-6.9124 4.9813-9.1407 8.5782-1.4053 2.2823-2.4023 4.6964-3.4432 6.9891-1.0444 2.2684-2.1349 4.462-3.6639 6.2252-1.7929 2.1106-4.2315 3.6838-6.8516 4.8533h-6e-6c-2.6262 1.167-5.4725 1.9133-8.3708 2.5897-5.5229 1.2607-11.404 2.332-16.559 5.4071-3.6435 2.2025-6.6796 5.3745-8.7207 9.1108-1.7866 3.2732-2.7962 6.9546-2.9408 10.678-0.03468 0.89304 0.52887 1.5696 1.1904 1.5513 0.66142-0.0183 1.1776-0.68927 1.2075-1.4582 0.1302-3.3509 1.0427-6.6799 2.6492-9.6206 1.8329-3.3582 4.5807-6.2289 7.8555-8.2069 4.6148-2.8286 10.263-3.8053 15.86-5.1233 2.9476-0.67925 5.9366-1.4732 8.7991-2.7326 2.8683-1.2568 5.5909-3.041 7.7034-5.4864 1.7621-2.0762 2.9732-4.4587 4.0257-6.792 1.0725-2.3452 2.0217-4.6698 3.2997-6.7207 2.0008-3.2324 4.8791-5.9336 8.2318-7.7253 2.6532-1.4168 5.8084-2.3613 8.6334-4.3158 2e-6 -2e-6 4e-6 -3e-6 6e-6 -4e-6 1.4163-0.98137 2.6991-2.2646 3.5792-3.8657 0.88888-1.613 1.2485-3.5599 0.81639-5.4519-0.43182-1.6942-1.4281-3.1178-2.6403-4.1818-1.1986-1.0632-2.534-1.8391-3.8284-2.5155l-6e-6 -3e-6c-1.2887-0.68481-2.5433-1.292-3.6278-2.0385-1.0744-0.75116-2.0316-1.6162-2.58-2.6528 0-1e-6 -1e-6 -3e-6 -2e-6 -5e-6 -0.46083-0.83755-0.69636-1.8143-0.66786-2.7699 0.0269-0.95558 0.31859-1.9171 0.82716-2.7265 0.50722-0.8103 1.2458-1.4916 2.0943-1.9319 0.48527-0.25286 1.0145-0.43088 1.5574-0.52749z" stroke="#000"/>
   </g>
  </g>
  <use transform="translate(36.501 7.4396)" width="100%" height="100%" xlink:href="#use1871"/>
  <g fill="#f2f2f2">
   <g stroke-width=".3">
    <path d="m73.82 136.08c-0.02362 0.0307-0.04388 0.0639-0.06061 0.0993-0.17596 0.37156 0.0606 0.90344 0.5419 1.2568 0.48003 0.35243 1.0548 0.42633 1.3437 0.18772 0.02819-0.0232 0.05337-0.0491 0.07535-0.0775 1.9338-2.4992 4.2404-4.7064 6.9007-6.3119 2.687-1.6209 5.7448-2.6519 8.8287-2.7553 3.479-0.15144 7.0541 0.91814 10.828 1.5754 1.8861 0.33843 3.8454 0.56578 5.8467 0.47483 2.0054-0.0878 4.0475-0.54587 5.8978-1.5229 2.2504-1.2319 3.9633-3.0582 5.4448-4.8649v-1e-5c1.4994-1.7859 2.8474-3.578 4.4952-4.8786 1.6789-1.3458 3.717-2.2605 5.8383-2.6205 1.8874-0.32147 3.8579-0.20651 5.6989 0.32676 0.36282 0.10509 0.85627-0.29015 1.0762-0.91455 0.21993-0.62446 0.0561-1.2559-0.40852-1.3905-2.1907-0.63453-4.5178-0.76983-6.7688-0.38776-2.5294 0.43068-4.9336 1.5098-6.9366 3.1134-1.9356 1.5699-3.398 3.4742-4.8382 5.215-1.4581 1.7199-2.9336 3.3529-4.7324 4.2849-1.4482 0.78573-3.1518 1.1503-4.8821 1.2424-1.7346 0.0889-3.516-0.12713-5.3128-0.44084h-1e-5c-3.5924-0.64707-7.3358-1.7284-11.332-1.6106-3.551 0.13557-6.9945 1.2818-9.9859 3.1011-2.9547 1.7964-5.4802 4.199-7.5575 6.8983z" stroke="#000"/>
    <use transform="rotate(194.7 97.088 16.746)" width="100%" height="100%" stroke="#000000" xlink:href="#g1789"/>
    <path d="m55.081 137.54c-0.06812 0.40504 0.39488 0.84265 1.0459 0.96631 0.65104 0.12367 1.246-0.12442 1.3206-0.56873 1.4311-8.5268-0.04665-17.5-4.1534-25.111-1.7939-3.3414-4.1452-6.4727-7.1916-8.8836h-3e-6c-3.0528-2.4188-6.8553-4.0084-10.838-4.1073-2.6567-0.04358-5.2355 0.55936-7.6243 1.4572h-3e-6c-2.3881 0.89177-4.6125 2.0379-6.7953 3.1328-2.2346 1.1184-4.4841 2.2068-6.7479 3.265-0.38779 0.18127-0.47769 0.81517-0.19871 1.4163s0.82253 0.94133 1.215 0.75786c2.2831-1.0672 4.5519-2.165 6.8057-3.2929 2.2033-1.1002 4.3484-2.212 6.5576-3.0295 2.2083-0.81135 4.4919-1.3643 6.7387-1.3073 3.3602 0.0517 6.6844 1.4702 9.403 3.5938 2.7261 2.1323 4.8682 5.0149 6.564 8.1377 3.8493 7.1259 5.2422 15.586 3.8988 23.574z" stroke="#000"/>
   </g>
   <g stroke="#000000" stroke-width=".3">
    <use transform="rotate(67.465 31.89 53.7)" width="100%" height="100%" xlink:href="#g1793"/>
    <use id="use1853" transform="rotate(179.02 97.554 30.706)" width="100%" height="100%" fill="#f2f2f2" stroke="#000000" stroke-width=".3" xlink:href="#g1793"/>
    <use transform="rotate(80.881 34.566 53.107)" width="100%" height="100%" xlink:href="#g1789"/>
    <use transform="rotate(177.92 79.171 31.045)" width="100%" height="100%" xlink:href="#g1797"/>
    <use transform="rotate(-4.1963 1236.6 -318.3)" width="100%" height="100%" xlink:href="#g1789"/>
    <use transform="rotate(20.72 -183.94 65.579)" width="100%" height="100%" xlink:href="#g1789"/>
    <use transform="rotate(-70.545 131.92 17.804)" width="100%" height="100%" xlink:href="#g1789"/>
    <use transform="rotate(118.89 52.273 37.541)" width="100%" height="100%" xlink:href="#g1793"/>
    <use transform="rotate(145.92 45.026 20.766)" width="100%" height="100%" xlink:href="#g1793"/>
    <use id="use1871" transform="rotate(173.32 46.651 29.977)" width="100%" height="100%" fill="#f2f2f2" stroke="#000000" stroke-width=".3" xlink:href="#g1797"/>
    <use transform="rotate(205.6 68.023 27.265)" width="100%" height="100%" xlink:href="#g1789"/>
   </g>
   <path d="m49.422 68.44c-0.0076 0.4829 0.56855 0.7698 1.2259 0.70899 0.65716-0.0608 1.169-0.38986 1.1735-0.67079 0.01356-0.83411 0.22689-1.6736 0.61732-2.4056 0.47615-0.8976 1.2344-1.665 2.1262-2.1518h1e-6c0.74391-0.39577 1.5726-0.62458 2.3343-0.54709 0.74673 0.07416 1.4968 0.4041 1.9171 0.93465 0.46186 0.48701 0.66149 1.3172 0.86056 2.2315 0.16438 0.93034 0.28408 2.0179 0.6948 3.1664v2e-6c0.20892 0.5755 0.51972 1.1485 0.95486 1.6712 0.43738 0.52754 1.023 0.96124 1.7262 1.2268 0.71267 0.26816 1.5201 0.29148 2.3022 0.02651 2e-6 0 4e-6 -1e-6 5e-6 -1e-6 0.79507-0.27577 1.444-0.88265 1.783-1.72 0-1e-6 1e-6 -2e-6 1e-6 -3e-6 0.20175-0.59685 0.23692-1.1396 0.18423-1.5836-0.0352-0.44035-0.09919-0.7837-0.10764-1.0372-0.0568-0.76551 0.26916-1.6013 0.76805-2.3099 0.50888-0.71729 1.268-1.3044 2.1122-1.808 1.6095-0.95032 3.5086-1.4544 5.4549-1.6864h3e-6c1.9503-0.22853 3.97-0.15581 6.0223-0.02376 1.2267 0.08343 2.5139 0.18974 3.8593 0.1368h4e-6c1.349-0.04659 2.7566-0.30182 4.0846-0.91838 1.4593-0.69446 2.6859-1.824 3.4979-3.2214 0.67347-1.1633 1.0437-2.4836 1.0792-3.8222 0.01265-0.47785-0.55788-0.77254-1.2164-0.7222-0.65832 0.05033-1.1747 0.37251-1.1824 0.6582-0.02526 0.93632-0.28796 1.8765-0.75644 2.6821-0.56098 0.96983-1.4387 1.7781-2.4513 2.2576-0.92051 0.45118-2.0187 0.6298-3.1566 0.6885h-3e-6c-1.1417 0.05236-2.3423-0.05291-3.5994-0.13372h-3e-6c-2.1033-0.14273-4.267-0.21198-6.4542 0.03417l-1e-6 1e-6c-2.1911 0.24259-4.4019 0.8503-6.3901 1.9974-1.0535 0.60279-2.0559 1.4094-2.842 2.4665-0.79576 1.0654-1.2746 2.411-1.2267 3.8391 0.02585 0.46521 0.09136 0.83272 0.11221 1.1097 0.0033 0.27318 0.01771 0.46994-0.03562 0.54581-0.01976 0.10874-0.19029 0.24606-0.3478 0.31132h-2e-6c-0.1709 0.07621-0.43585 0.05404-0.67471-0.02304-0.24859-0.07975-0.49709-0.279-0.71473-0.52346-0.21994-0.24938-0.39126-0.58457-0.53638-0.95768-1e-6 -1e-6 -1e-6 -2e-6 -1e-6 -2e-6 -0.29738-0.74878-0.37988-1.7019-0.58319-2.763-0.16858-1.0769-0.54246-2.2765-1.3833-3.3397-0.9232-1.0682-2.2184-1.6807-3.5526-1.7821h-4e-6c-1.3199-0.0982-2.6 0.22603-3.6886 0.83335l-3e-6 2e-6c-1.3098 0.71827-2.3902 1.8117-3.0927 3.13-0.57197 1.0773-0.87881 2.2797-0.89786 3.4945z" stroke="#000" stroke-width=".3"/>
   <g stroke="#000000" stroke-width=".3">
    <use transform="rotate(195.03 69.6 28.514)" width="100%" height="100%" xlink:href="#g1793"/>
    <use transform="rotate(205.12 81.843 17.66)" width="100%" height="100%" xlink:href="#g1789"/>
    <use id="use1879" transform="rotate(143.86 50.775 19.435)" width="100%" height="100%" fill="#f2f2f2" stroke="#000000" stroke-width=".3" xlink:href="#g1789"/>
    <use transform="rotate(-83 95.583 47.237)" width="100%" height="100%" xlink:href="#g1793"/>
    <use transform="rotate(264 80.335 49.301)" width="100%" height="100%" xlink:href="#g1793"/>
    <use transform="rotate(82.041 -14.685 7.5116)" width="100%" height="100%" xlink:href="#g1789"/>
   </g>
   <g stroke="#000" stroke-width=".3">
    <path d="m29.269 53.874c-0.04825-0.25784-0.61648-0.28831-1.2557-0.11776-0.6392 0.17054-1.1247 0.4402-1.1022 0.55967 0.1498 0.79738 0.01471 1.6765-0.37444 2.3814-0.42446 0.78282-1.1959 1.4189-2.0453 1.6863-0.58436 0.19936-1.28 0.22367-2.0185 0.193h-1e-6c-0.74087-0.03827-1.5362-0.16775-2.3973-0.26075-0.86131-0.10073-1.7962-0.14569-2.7767-0.0075-0.99017 0.13324-1.9986 0.52961-2.8533 1.2496-0.82072 0.73798-1.3506 1.679-1.6054 2.6513-0.25624 0.96287-0.30565 1.9167-0.24862 2.8091v2e-6c0.09603 1.7817 0.50307 3.3441 0.3771 4.7092-0.08846 1.2063-0.54488 2.403-1.2789 3.3678-0.08943 0.11754 0.23069 0.57236 0.73833 0.99769 0.50765 0.42534 1.0289 0.64269 1.1718 0.45467 1.018-1.3395 1.6355-2.9609 1.7621-4.6418 0.11604-1.8834-0.29001-3.5494-0.37414-5.0203v-1e-6c-0.03304-0.7339-0.01124-1.4307 0.16581-2.0379 0.17843-0.59759 0.46305-1.1486 0.86955-1.4811 0.38896-0.3648 0.99039-0.57292 1.6321-0.68482 0.65162-0.10694 1.3811-0.0578 2.1606 0.02001 0.77973 0.08553 1.6175 0.21849 2.5246 0.27118h2e-6c0.90938 0.0603 1.8922-6.34e-4 2.8802-0.30289 1.4548-0.46765 2.6849-1.4819 3.4213-2.8208 0.66053-1.2136 0.87978-2.624 0.6269-3.9753z"/>
    <path d="m32.926 52.708c0.11884-0.76178-0.21737-1.5589-0.85352-1.7334-0.6368-0.17466-1.3653 0.39394-1.5167 1.3633-0.53061 3.3952 0.06743 6.9451 1.7153 9.9724 1.9285 3.5283 5.2284 6.2404 9.0634 7.4489l3e-6 1e-6c2.7844 0.85603 5.6382 0.95002 8.3522 0.93489h7e-6c2.7114 0.0051 5.3481-0.07427 7.8071 0.43307 3.3317 0.65516 6.618 2.4468 10.43 3.2085 2.2418 0.43355 4.3969 0.45782 6.3356 0.86868 1e-6 0 2e-6 1e-6 3e-6 1e-6 0.96767 0.20681 1.8905 0.49025 2.693 0.92982 2e-6 1e-6 4e-6 2e-6 5e-6 3e-6 0.79743 0.43931 1.5064 1.011 1.9699 1.7086 0.45146 0.6441 0.72177 1.4588 0.88376 2.3195 0.1589 0.86506 0.17566 1.7961 0.16338 2.7668-0.05156 1.9442-0.21968 4.1139 0.39697 6.3366 1e-6 3e-6 2e-6 5e-6 3e-6 8e-6 0.43987 1.4635 1.2066 2.7675 2.1317 3.8819 2e-6 2e-6 3e-6 4e-6 5e-6 6e-6 0.92085 1.114 1.9665 2.0625 3.0242 2.9239l5e-6 4e-6c2.1022 1.7358 4.2783 3.1845 5.7421 5.0889 1.3017 1.629 2.1476 3.6971 3.0817 5.8152 0.91113 2.1322 1.9613 4.3734 3.6545 6.2764h5e-6c2.2945 2.4864 5.3766 3.939 8.4454 4.7895 3.0541 0.8675 6.1143 1.2709 8.9938 1.9844 6.4212 1.5882 12.439 4.8328 17.307 9.3131 0.6168 0.56766 1.4896 0.68222 1.9571 0.21298 0.46755-0.46929 0.33936-1.361-0.33203-1.9788-5.1682-4.7559-11.536-8.1885-18.356-9.877-3.0546-0.75501-6.0873-1.1511-8.9113-1.9624-2.8085-0.82799-5.5173-2.0482-7.3254-4.0927-1e-6 -1e-5 -3e-6 -1e-5 -4e-6 -1e-5 -1.3972-1.51-2.3068-3.5335-3.2328-5.6231-0.90309-2.1038-1.8532-4.3467-3.3945-6.3395-1.8104-2.2667-4.1089-3.8404-6.1095-5.464-0.99374-0.81831-1.9281-1.6555-2.6901-2.5903l-2e-6 -3e-6c-0.75776-0.93424-1.3752-1.9563-1.6839-3.0362v-3e-6c-0.51536-1.6238-0.31481-3.5543-0.29966-5.6191 0.02107-1.0338-0.0079-2.1183-0.20014-3.2271-0.1891-1.113-0.58594-2.2381-1.2633-3.2506-0.73995-1.0686-1.7302-1.8939-2.8137-2.4694-2e-6 -2e-6 -4e-6 -3e-6 -7e-6 -4e-6 -1.0786-0.57524-2.2181-0.93777-3.3428-1.1671-3e-6 -1e-6 -5e-6 -1e-6 -8e-6 -2e-6 -2.2462-0.46142-4.4111-0.48764-6.3647-0.87455l-7e-6 -2e-6c-3.3313-0.63531-6.6134-2.4262-10.417-3.206-2.817-0.55368-5.6121-0.49004-8.2824-0.48018l-7e-6 -1e-6c-2.6676-0.01034-5.2809-0.06755-7.6307-0.82455l-7e-6 -2e-6c-3.2239-1.0092-6.0613-3.3412-7.6759-6.3085-1.3893-2.5408-1.8995-5.5842-1.452-8.453z"/>
    <path d="m16.789 78.428c-0.04967 0.35178 0.45891 0.67523 1.1179 0.7432 0.65893 0.06797 1.2186-0.12536 1.2584-0.40783 0.30152-2.1374 1.0879-4.2141 2.2807-6.0115 0.51216-0.75829 1.0591-1.4461 1.7035-1.9378 0.63974-0.48285 1.3648-0.8337 2.0647-0.86982 0.89153-0.11626 1.9236 0.32852 3.0597 0.78911l2e-6 1e-6c1.1246 0.5173 2.4383 1.1005 4.0051 1.2173 1.3488 0.04215 2.5605-0.28848 3.612-0.6666h1e-6c1.0561-0.3504 1.9932-0.7254 2.8666-0.80974 0.91662-0.10273 1.8715 0.04438 2.671 0.44798 0.79683 0.39949 1.4838 1.058 1.8639 1.8349 0.58077 1.0504 0.54673 2.5028 0.566 4.0585v3e-6c-0.04739 1.57-0.01915 3.3756 0.75945 5.1398l2e-6 2e-6c0.62548 1.262 1.5152 2.209 2.328 3.0169 0.78371 0.82839 1.5206 1.5589 1.8684 2.3654 0.15692 0.33497 0.26629 0.69556 0.3235 1.0628 0.033 0.21186 0.58314 0.41919 1.2423 0.39231 0.65922-0.02688 1.1948-0.33926 1.1292-0.76121-0.09185-0.59096-0.2671-1.1676-0.52115-1.711-0.62162-1.2656-1.5106-2.2158-2.3247-3.0246-0.78498-0.82935-1.5239-1.5593-1.8756-2.3658v-2e-6c-0.56058-1.0705-0.51219-2.5267-0.52958-4.0916 0.04926-1.5791-5.89e-4 -3.3959-0.81767-5.1516-0.64162-1.274-1.6882-2.292-2.9428-2.9134-1.2521-0.6174-2.655-0.84304-4.0149-0.68359-1.2734 0.1629-2.3771 0.57544-3.3664 0.92235h-2e-6c-0.9939 0.31916-1.9072 0.60802-2.7166 0.54128-0.94825-0.0101-1.9816-0.52729-3.1642-1.0192-1.1709-0.54857-2.5843-1.0581-4.2036-0.98337l-3e-6 1e-6c-1.2791 0.11444-2.436 0.63258-3.3602 1.3717-0.91984 0.73044-1.6409 1.6065-2.226 2.5024-1.393 2.1011-2.3047 4.5082-2.6569 7.0027z"/>
    <path d="m16.288 95.427c-0.38523-0.52252-1.1416-0.79567-1.7218-0.48636-0.5807 0.30954-0.75636 1.1687-0.21024 1.9101 0.86499 1.1743 1.9597 2.175 3.2139 2.9283 1.7109 1.0255 3.6882 1.573 5.6829 1.5734 3.0867-0.0356 5.9282-1.2484 8.3539-2.7808 2.4305-1.5064 4.564-3.2609 6.8265-4.6047l6e-6 -1e-6c4.7958-2.8644 10.541-4.132 16.133-3.7096 6.8089 0.48579 13.307 3.4711 19.873 6.2472l6e-6 2e-6c6.5553 2.8221 13.592 5.497 21.023 5.2479l6e-6 -1e-5c3.4567-0.14306 6.7778-0.9156 9.9949-1.701l1e-5 -1e-5c3.2238-0.77572 6.3879-1.5718 9.5492-1.7753 6.4859-0.4369 13.151 1.6436 18.267 5.6579 0.5771 0.45282 1.3964 0.4588 1.8321-0.0398 0.43579-0.49873 0.30363-1.3341-0.35156-1.8478-5.5944-4.3863-12.806-6.6358-19.907-6.1649-3.4444 0.23787-6.7436 1.0547-9.9542 1.8374-3.209 0.7711-6.3729 1.5218-9.5231 1.6353h-3e-6c-6.774 0.30266-13.466-2.3088-19.989-5.0578l-3e-6 -1e-6c-6.5137-2.7953-13.265-5.8423-20.632-6.4323-6.0742-0.46286-12.29 0.91527-17.543 4.0412l-6e-6 4e-6c-2.4653 1.4745-4.6101 3.2359-6.8603 4.6253l-6e-6 2e-6c-2.2543 1.363-4.6751 2.4562-7.0917 2.4218h-6e-6c-1.5518 0.0012-3.1174-0.43226-4.4476-1.2314-0.97628-0.58504-1.8386-1.3743-2.5166-2.294z"/>
    <path d="m127.23 52.537c-0.18039-0.6788-0.86515-1.0208-1.4936-0.81245-0.62832 0.20828-0.97669 0.85884-0.82501 1.429 1.0869 4.0855 0.76255 8.5707-0.92707 12.442-1.4627 3.403-4.0433 6.4426-5.9734 10.073-1.1155 2.0993-1.916 4.2186-3.0635 5.9915v2e-6c-0.57256 0.8855-1.215 1.6976-1.9677 2.3389-0.7509 0.63751-1.6031 1.1371-2.4961 1.3608-1.4035 0.41126-3.1188 0.09342-5.0172 0.03257-0.95082-0.04735-1.9655-0.0172-3.0024 0.21173 0 1e-6 -1e-5 1e-6 -1e-5 1e-6 -1.0453 0.22572-2.0829 0.71909-2.9379 1.526-0.9818 0.97964-1.5385 2.2507-1.6782 3.5377-0.14036 1.2749 0.04772 2.517 0.42489 3.6418 0.75423 2.24 2.032 4.0403 2.8748 5.8199 0.90003 1.9174 1.4204 4.0144 1.3884 6.0893h-1e-5c-0.0314 2.0702-0.59633 4.1444-1.7095 5.8397-0.93962 1.4723-2.346 2.7098-3.8159 3.974h-4e-6c-1.4838 1.2514-3.0727 2.5551-4.4055 4.2224-1.9613 2.4848-3.072 5.5988-3.1262 8.7639-0.0437 2.739 0.70467 5.4658 2.124 7.8018 0.37923 0.62414 1.1446 0.74084 1.6765 0.34831 0.53173-0.39237 0.6663-1.1132 0.37416-1.5941-1.1821-1.9461-1.8141-4.2445-1.775-6.5163 0.04158-2.6254 0.98014-5.2565 2.6095-7.3155 1.096-1.4062 2.5752-2.5963 4.0766-3.8815h4e-6c1.5153-1.2724 3.074-2.6828 4.2727-4.4928 1.3771-2.127 2.0716-4.6277 2.0984-7.1191 0.0263-2.4871-0.57054-4.9358-1.6178-7.1443-0.96396-2.0486-2.2047-3.7557-2.7636-5.54-0.27934-0.88725-0.43358-1.7865-0.32338-2.6132 0.11077-0.81395 0.43028-1.6057 0.96671-2.0998 0.43534-0.44554 1.0942-0.73311 1.8018-0.90864v-1e-6c0.7162-0.17237 1.5181-0.18308 2.3641-0.15342h1e-5c1.6952 0.09318 3.646 0.38603 5.7237-0.10755 1.3107-0.34914 2.4836-1.0167 3.4582-1.8647 0.97291-0.84438 1.767-1.8312 2.4228-2.8631v-5e-6c1.3092-2.0619 2.1427-4.2376 3.1624-6.1608v-5e-6c1.763-3.3267 4.3704-6.4217 6.0538-10.24 1.9091-4.3883 2.2729-9.3985 1.0455-14.017z"/>
   </g>
   <use transform="rotate(92.031 53.213 66.564)" width="100%" height="100%" stroke-width=".3" xlink:href="#use1879"/>
   <path transform="translate(-1.3125e-7 -87)" d="m50.097 144.13c-0.54651 0.11164-1.0928 0.22325-1.7984 0.19791-0.70561-0.0254-1.5706-0.18779-2.4353-0.3502l-3.1319 0.27332c-0.73568 0.15693-1.4712 0.31382-2.4926 0.3549-1.0214 0.0411-2.3287-0.0337-3.6043-0.25378-1.2755-0.22005-2.5197-0.58543-3.7637-0.95077 0 0-2.3638 0.48826-2.3638 0.48826-0.25956-0.0179-0.51922-0.0358-0.76922-9e-3 -0.24999 0.0265-0.49116 0.0976-0.73201 0.16861l-2.4714-0.35645c-0.63249-0.1991-1.2652-0.39828-1.8386-0.38578-0.57336 0.0125-1.0884 0.2368-1.6032 0.46097l-2.785 0.0146c-0.85096-0.17335-1.7018-0.34668-3.0373-0.3956-1.3354-0.0489-3.1558 0.0266-4.9758 0.10212v-1.1e-4c0-4.2893 0-8.5792 0.07797-11.214 0.07797-2.6345 0.23384-3.6143 0.38975-4.5943 1.8041 0.53454 3.6085 1.0692 6.0694 1.2919 2.4609 0.22267 5.5796 0.13356 8.9647 0.35629s7.0383 0.75734 9.9336 0.53454c2.8953-0.2228 5.0339-1.203 7.6171-1.4701 2.5832-0.26714 5.6129 0.1784 8.7754 0.0893s6.4594-0.71287 9.8444-0.31194c3.385 0.40092 6.86 1.8266 10.513 2.0492s7.484-0.75746 10.602-0.93556c3.1178-0.1781 5.5236 0.44562 8.5525 0.57921s6.6821-0.22283 9.8445 0.0445c3.1624 0.26729 5.8354 1.1583 8.3299 1.2473 2.4944 0.089 4.8112-0.62386 6.1472-0.62386 1.336-1e-5 1.6923 0.71271 2.4944 0.84636s2.0495-0.31185 3.6694-0.2394c1.6198 0.0725 3.6139 0.66286 5.9301 0.52916s4.9554-0.99115 7.5947-1.8486v15.006c-1.4328-0.44271-2.8655-0.88537-4.4822-0.85361-1.6167 0.0318-3.4177 0.53823-5.2184 1.0446l-2.4063 0.0168c-1.7834-0.64873-3.3973-1.2358-5.1054-1.2512-1.7081-0.0153-3.157 0.65766-4.3383 0.9183-1.1813 0.26065-2.9979 0.27692-4.5385 0.29072 0 0-2.6716-0.33771-2.6716-0.33771-0.7972-0.54885-1.5943-1.0977-2.3524-1.0874-0.75806 0.0102-1.4775 0.57999-2.1966 1.1495l-2.4143-0.21897-0.67489-0.13251s-2.3906-0.71856-2.3906-0.71856c-0.20045-0.0218-0.43948-0.0479-0.92155-0.055-0.48207-7e-3 -1.6074-2e-3 -2.4485 0.15295-0.84106 0.15527-1.3919 0.4254-1.9793 0.71348l-2.5699-0.20707c-0.57862 0.11079-1.157 0.22154-2.1312 0.2018-0.97418-0.0197-2.3441-0.1701-4.0534-0.32879-1.7093-0.15868-3.759-0.32578-5.2656-0.31803-1.5065 8e-3 -2.4716 0.19039-3.4363 0.37297 0 0-2.4249 0.26518-2.4249 0.26518-0.91635-0.20414-1.8328-0.40831-2.8766-0.69599s-2.2153-0.65897-3.8105-0.62284c-1.5952 0.0361-3.6147 0.47991-5.2196 0.73057-1.6049 0.25065-2.7964 0.30835-3.9876 0.36604 0 0-2.5098 0.0751-2.5098 0.0751-0.48896 0.0732-0.97782 0.14635-1.4194 0.12055s-0.83613-0.15073-1.2305-0.27559"/>
  </g>
  <path transform="translate(-1.3125e-7 -87)" d="m125.54 145.04c-1.7834-0.64873-3.3973-1.2358-5.1054-1.2512-1.7081-0.0153-3.157 0.65766-4.3383 0.9183-1.1813 0.26065-2.9979 0.27692-4.5385 0.29072m-2.6716-0.33771c-0.7972-0.54885-1.5943-1.0977-2.3524-1.0874-0.75806 0.0102-1.4775 0.57999-2.1966 1.1495m-2.4143-0.21897-0.67489-0.13251m-2.3906-0.71856c-0.20045-0.0218-0.43948-0.0479-0.92155-0.055-0.48207-7e-3 -1.6074-2e-3 -2.4485 0.15295-0.84106 0.15527-1.3919 0.4254-1.9793 0.71348m-2.5699-0.20707c-0.57862 0.11079-1.157 0.22154-2.1312 0.2018-0.97418-0.0197-2.3441-0.1701-4.0534-0.32879-1.7093-0.15868-3.759-0.32578-5.2656-0.31803-1.5065 8e-3 -2.4716 0.19039-3.4363 0.37297m-2.4249 0.26516c-0.91635-0.20414-1.8328-0.40831-2.8766-0.69599s-2.2153-0.65897-3.8105-0.62284c-1.5952 0.0361-3.6147 0.47991-5.2196 0.73057-1.6049 0.25065-2.7964 0.30835-3.9876 0.36604m-2.5098 0.0751c-0.48896 0.0732-0.97782 0.14635-1.4194 0.12055s-0.83613-0.15073-1.2305-0.27559m-2.4727-0.0104c-0.54651 0.11164-1.0928 0.22325-1.7984 0.19791-0.70561-0.0254-1.5706-0.18779-2.4353-0.3502m-3.1319 0.27332c-0.73568 0.15693-1.4712 0.31382-2.4926 0.3549-1.0214 0.0411-2.3287-0.0337-3.6043-0.25378-1.2755-0.22005-2.5197-0.58543-3.7637-0.95077m-2.3638 0.48826c-0.25956-0.0179-0.51922-0.0358-0.76922-9e-3 -0.24999 0.0265-0.49116 0.0976-0.73201 0.16861m-2.4714-0.35645c-0.63249-0.1991-1.2652-0.39828-1.8386-0.38578-0.57336 0.0125-1.0884 0.2368-1.6032 0.46097m-2.785 0.0146c-0.85096-0.17335-1.7018-0.34668-3.0373-0.3956-1.3354-0.0489-3.1558 0.0266-4.9758 0.10212m0.46772-15.808c1.8041 0.53454 3.6085 1.0692 6.0694 1.2919 2.4609 0.22267 5.5796 0.13356 8.9647 0.35629s7.0383 0.75734 9.9336 0.53454c2.8953-0.2228 5.0339-1.203 7.6171-1.4701 2.5832-0.26714 5.6129 0.1784 8.7754 0.0893s6.4594-0.71287 9.8444-0.31194c3.385 0.40092 6.86 1.8266 10.513 2.0492s7.484-0.75746 10.602-0.93556c3.1178-0.1781 5.5236 0.44562 8.5525 0.57921s6.6821-0.22283 9.8445 0.0445c3.1624 0.26729 5.8354 1.1583 8.3299 1.2473 2.4944 0.089 4.8112-0.62386 6.1472-0.62386 1.336-1e-5 1.6923 0.71271 2.4944 0.84636s2.0495-0.31185 3.6694-0.2394c1.6198 0.0725 3.6139 0.66286 5.9301 0.52916s4.9554-0.99115 7.5947-1.8486m0 15.006c-1.4328-0.44271-2.8655-0.88537-4.4822-0.85361-1.6167 0.0318-3.4177 0.53823-5.2184 1.0446" fill="none" stroke="#000" stroke-linecap="round" stroke-linejoin="round" stroke-width=".3"/>
  <g fill="#f2f2f2">
   <rect x="31.75" y="6.2708" width="117.74" height="2.6458" style="paint-order:markers fill stroke"/>
   <circle cx="31.75" cy="7.5937" r="1.3229" style="paint-order:markers fill stroke"/>
   <circle cx="149.49" cy="7.5937" r="1.3229" style="paint-order:markers fill stroke"/>
   <path transform="matrix(.26458 0 0 .26458 8.467 38.541)" d="m87.998-86.965a5 5 0 0 0-5 5 5 5 0 0 0 5 5h445a5 5 0 0 0 5-5 5 5 0 0 0-5-5h-445z" style="paint-order:markers fill stroke"/>
   <path transform="translate(-50.038 -28.544)" d="m66.965 53.396c0.71486-0.44949 0.97235-1.271 0.60383-1.8217-0.3685-0.55071-1.2113-0.63083-1.8813-0.20919-11.894 7.4848-26.858 10.084-40.567 6.9919-1.6175-0.3742-3.3623-0.83576-5.2694-0.85841-0.95591-0.0075-1.944 0.12736-2.9048 0.46125-3e-6 1e-6 -5e-6 2e-6 -8e-6 3e-6 -0.96521 0.3343-1.8742 0.90248-2.6035 1.7009-0.68166 0.77146-1.1371 1.6744-1.3894 2.6001 0 1e-6 0 2e-6 -1e-6 4e-6 -0.25314 0.92137-0.34152 1.8441-0.3332 2.7282 0.01365 1.7658 0.3233 3.3734 0.346 4.8503l-1e-6 3e-6c0.05021 2.6691-0.77617 5.3729-2.31 7.5579-1.5312 2.1868-3.7914 3.8854-6.3177 4.748-2.5253 0.86565-5.3523 0.9075-7.9021 0.11697-2.5508-0.78752-4.8602-2.4185-6.4555-4.559l-4e-6 -5e-6c-1.5978-2.1386-2.5039-4.8168-2.5327-7.4862l2e-6 -6e-6c-0.03196-2.6694 0.81289-5.3675 2.3616-7.5419 1.5461-2.1763 3.8178-3.8593 6.35-4.7047 2.1046-0.70539 4.4138-0.83983 6.595-0.40069 0.70415 0.14177 1.4712-0.17704 1.6706-0.80609 0.19949-0.62948-0.29478-1.3644-1.1966-1.5462-2.5938-0.52298-5.3148-0.36311-7.8303 0.47697-3.0244 1.0133-5.6942 2.9914-7.5444 5.5896-1.8476 2.6-2.8405 5.7709-2.8058 8.9604v7e-6c0.03788 3.1894 1.1027 6.3369 3.009 8.8942l6e-6 4e-6c1.9088 2.5554 4.623 4.4722 7.6696 5.4164 3.0476 0.94122 6.37 0.89204 9.3884-0.13897 3.0174-1.034 5.6736-3.0303 7.506-5.641 1.8298-2.6126 2.801-5.7902 2.7444-8.9794v-7e-6c-0.03618-1.7543-0.3457-3.3507-0.34562-4.8167 0.0015-0.73181 0.06013-1.4349 0.24384-2.0692 0-2e-6 1e-6 -4e-6 1e-6 -5e-6 0.18458-0.6299 0.4647-1.2142 0.86338-1.6443 0.40469-0.46276 0.98561-0.81165 1.6194-1.0431 1e-6 -1e-6 3e-6 -1e-6 5e-6 -2e-6 0.63833-0.23185 1.3574-0.32093 2.0977-0.32382 1.4853-0.01337 3.0566 0.42865 4.7487 0.79978 14.356 3.2288 29.921 0.52634 42.372-7.3024z" stroke="#000" stroke-width=".3"/>
  </g>
 </g>
 <g transform="translate(-8.467 -125.54)">
  <path d="m31.078 221.37c1.3138-0.12665 2.6279-0.25333 4.2846-0.19066 1.6567 0.0627 3.6573 0.31471 5.8305 0.2517 2.1733-0.063 4.5201-0.44103 6.3153-0.25205 1.7952 0.18899 3.0395 0.94504 4.2342 1.2868s2.3396 0.26925 3.4847 0.19678c0 0 2.4046 0.0997 2.4046 0.0997 0.84881-0.0867 1.6979-0.17352 2.7521-0.41372s2.3145-0.63406 3.1295-0.74801 1.1852 0.0517 1.5556 0.21747c0 0 4.2095-0.69796 4.2095-0.69796 0.62827 0.35829 1.2566 0.71663 2.1635 0.8557 0.90685 0.13908 2.0921 0.059 3.2775-0.0211 0 0 2.3995 0.91055 2.3995 0.91055 0.83384-0.0738 1.668-0.14763 2.4421-0.28611 0.77413-0.13847 1.4887-0.3416 2.2033-0.54475l2.2981-0.92286c1.0549 0.66039 2.1099 1.3208 3.2283 1.511 1.1185 0.19015 2.3001-0.0898 3.4819-0.36978 0 0 2.5076-0.34296 2.5076-0.34296 0.90373 0.1502 1.8077 0.30044 3.1138 0.23378 1.3061-0.0667 3.0153-0.3502 4.5329-0.49058 1.5176-0.14038 2.8444-0.13772 4.1712-0.13505 0 0 2.5774-0.37285 2.5774-0.37285 1.2789 0.10573 2.558 0.21149 3.7048 0.44846s2.1619 0.60523 3.1769 0.97347c0 0 2.382-0.24489 2.382-0.24489 0.90768-0.137 1.8156-0.27404 2.6155-0.49589 0.79989-0.22184 1.4921-0.5285 2.1844-0.8352l2.1355-1.1401c0.55661-6e-3 1.1135-0.0124 1.6396 0.0488 0.52607 0.0612 1.022 0.18971 1.5178 0.31824l2.275 0.90861c1.1397-0.58102 2.2797-1.1622 3.6688-1.362 1.3891-0.19978 3.0284-0.0184 4.6674 0.16288v2.9e-4 9.9835c-4.5436 0.35636-9.0869 0.7127-13.809 1.3363s-9.6215 1.5145-13.403 2.3096-6.443 1.4944-9.1049 2.1937c-0.86602 4.294-1.732 8.5877-3.0127 12.786-1.2807 4.1979-3.5414 9.6671-4.5096 9.7752-0.9682 0.10813-2.4791-4.6139-3.6208-8.9378-1.1417-4.3239-2.1155-8.8789-3.0893-13.434-6.1356-0.76229-12.271-1.5245-16.6-0.96337-4.3286 0.56118-7.185 2.6964-9.8193 3.2758-2.6343 0.57946-6.6625-0.0419-10.218-0.59023-2.0168 7.7981-4.0334 15.596-6.3709 22.166-2.3374 6.5707-5.8813 13.695-7.3694 13.581s-3.7457-7.2205-5.1545-14.947-2.1372-15.589-2.9318-24.166c0 0-16.33-2.5184-16.33-2.5184v-13.248c0.81642 0.44218 1.6329 0.88441 2.5255 1.067s1.861 0.10558 2.8297 0.0286l2.3053 0.72163c0.70402 0.29317 1.4082 0.5864 2.3672 0.76109 0.95905 0.17468 2.1732 0.23093 3.3874 0.28718l5.3617-0.025z" fill="#f2f2f2"/>
  <path d="m123.88 219.86c0.55661-6e-3 1.1135-0.0124 1.6396 0.0488 0.52607 0.0612 1.022 0.18971 1.5178 0.31824m2.275 0.90861c1.1397-0.58102 2.2797-1.1622 3.6688-1.362 1.3891-0.19978 3.0284-0.0184 4.6674 0.16288m0 9.9838c-4.5436 0.35636-9.0869 0.7127-13.809 1.3363s-9.6215 1.5145-13.403 2.3096-6.443 1.4944-9.1049 2.1937c-0.86602 4.294-1.732 8.5877-3.0127 12.786-1.2807 4.1979-3.5414 9.6671-4.5096 9.7752-0.9682 0.10813-2.4791-4.6139-3.6208-8.9378-1.1417-4.3239-2.1155-8.8789-3.0893-13.434-6.1356-0.76229-12.271-1.5245-16.6-0.96337-4.3286 0.56118-7.185 2.6964-9.8193 3.2758-2.6343 0.57946-6.6625-0.0419-10.218-0.59023-2.0168 7.7981-4.0334 15.596-6.3709 22.166-2.3374 6.5707-5.8813 13.695-7.3694 13.581s-3.7457-7.2205-5.1545-14.947-2.1372-15.589-2.9318-24.166c0 0-16.33-2.5184-16.33-2.5184m0-13.248c0.81642 0.44218 1.6329 0.88441 2.2878 1.065 0.65485 0.1806 1.1477 0.0998 1.6408 0.0189m2.403 0.31736c1.147 0.43183 2.2941 0.86371 3.5262 1.0864s2.5496 0.23619 3.8671 0.24972m4.8297 0.23181c1.3879-0.16952 2.776-0.33908 4.4698-0.29785 1.6937 0.0412 3.6943 0.29328 5.8676 0.23027 2.1733-0.063 4.5201-0.44103 6.3153-0.25205 1.7952 0.18899 3.0395 0.94504 4.2342 1.2868s2.3396 0.26925 3.4847 0.19678m2.4046 0.0997c0.84881-0.0867 1.6979-0.17352 2.7521-0.41372s2.3145-0.63406 3.1295-0.74801 1.1852 0.0517 1.5556 0.21747m4.2095-0.69796c0.62827 0.35829 1.2566 0.71663 2.1635 0.8557 0.90685 0.13908 2.0921 0.059 3.2775-0.0211m2.3995 0.91055c0.83384-0.0738 1.668-0.14763 2.4421-0.28611 0.77413-0.13847 1.4887-0.3416 2.2033-0.54475m2.2981-0.92286c1.0549 0.66039 2.1099 1.3208 3.2283 1.511 1.1185 0.19015 2.3001-0.0898 3.4819-0.36978m2.5076-0.34296c0.90373 0.1502 1.8077 0.30044 3.1138 0.23378 1.3061-0.0666 3.0153-0.3502 4.5329-0.49058 1.5176-0.14038 2.8444-0.13772 4.1712-0.13505m2.5774-0.37285c1.2789 0.10573 2.558 0.21149 3.7048 0.44846s2.1619 0.60523 3.1769 0.97347m2.382-0.24489c0.90768-0.137 1.8156-0.27404 2.6155-0.49589 0.79989-0.22184 1.4921-0.5285 2.1844-0.8352" fill="none" stroke="#000" stroke-linecap="round" stroke-linejoin="round" stroke-width=".3"/>
  <g transform="translate(0 2.9549e-5)">
   <text transform="translate(0,87)" x="148.70706" y="53.30452" fill="#000000" font-family="'Source Serif Pro'" font-size="11.797px" letter-spacing="0px" stroke-width=".26458" text-align="center" text-anchor="middle" word-spacing="0px" style="font-feature-settings:normal;font-variant-caps:normal;font-variant-ligatures:normal;font-variant-numeric:normal;line-height:1.25" xml:space="preserve"><tspan x="148.70706" y="53.30452" font-family="Liberation Sans" stroke-width=".26458" text-align="center" text-anchor="middle">a</tspan></text>
   <path id="path7239" transform="matrix(0 .053461 -.046873 0 138.35 104.99)" d="m467.7-58.47c6.9585-11.472 18.851-19.833 32-22.5 14.192-2.8783 28.78 0.65372 43.048 3.1328 7.1338 1.2395 14.355 2.2198 21.592 1.9954 7.2372-0.22441 14.531-1.6986 20.908-5.1282 7.7615-4.1742 13.923-11.242 17-19.5 3.077 8.2582 9.2385 15.326 17 19.5 6.377 3.4296 13.671 4.9038 20.908 5.1282 7.2372 0.22441 14.458-0.75584 21.592-1.9954 14.268-2.4791 28.855-6.0111 43.048-3.1328 13.149 2.6668 25.041 11.028 32 22.5" color="#000000" fill="none" stroke="#000" stroke-linecap="round" stroke-linejoin="round" stroke-width="9.9883"/>
  </g>
  <g transform="translate(0 1.7219e-5)">
   <text transform="translate(0,87)" x="148.70706" y="139.1051" fill="#000000" font-family="'Source Serif Pro'" font-size="11.797px" letter-spacing="0px" stroke-width=".26458" text-align="center" text-anchor="middle" word-spacing="0px" style="font-feature-settings:normal;font-variant-caps:normal;font-variant-ligatures:normal;font-variant-numeric:normal;line-height:1.25" xml:space="preserve"><tspan x="148.70706" y="139.1051" font-family="Liberation Sans" stroke-width=".26458" text-align="center" text-anchor="middle">d</tspan></text>
   <use transform="translate(0 85.801)" width="100%" height="100%" xlink:href="#path7239"/>
  </g>
  <g transform="translate(0 2.9163e-5)">
   <text transform="translate(0,87)" x="148.70706" y="75.237617" fill="#000000" font-family="'Source Serif Pro'" font-size="11.797px" letter-spacing="0px" stroke-width=".26458" text-align="center" text-anchor="middle" word-spacing="0px" style="font-feature-settings:normal;font-variant-caps:normal;font-variant-ligatures:normal;font-variant-numeric:normal;line-height:1.25" xml:space="preserve"><tspan x="148.70706" y="75.237617" font-family="Liberation Sans" stroke-width=".26458" text-align="center" text-anchor="middle">b</tspan></text>
   <path transform="matrix(0 .053461 -.046873 0 138.35 126.92)" d="m374.17-58.47c8.3013-10.275 19.522-18.165 32-22.5 14.477-5.0298 30.25-5.2551 45.444-3.241s30.001 6.1866 44.895 9.8018 30.069 6.6973 45.394 6.4616c15.324-0.23562 30.947-4.009 43.343-13.022 7.0336-5.1145 12.892-11.835 17-19.5 4.1078 7.6652 9.9664 14.385 17 19.5 12.395 9.0134 28.019 12.787 43.343 13.022 15.324 0.23562 30.5-2.8464 45.394-6.4616s29.702-7.7878 44.895-9.8018 30.966-1.7888 45.444 3.241c12.478 4.3352 23.699 12.225 32 22.5" color="#000000" fill="none" stroke="#000" stroke-linecap="round" stroke-linejoin="round" stroke-width="9.9883"/>
  </g>
  <g transform="translate(0 2.6967e-5)">
   <text transform="translate(0,87)" x="148.70706" y="109.67156" fill="#000000" font-family="'Source Serif Pro'" font-size="11.797px" letter-spacing="0px" stroke-width=".26458" text-align="center" text-anchor="middle" word-spacing="0px" style="font-feature-settings:normal;font-variant-caps:normal;font-variant-ligatures:normal;font-variant-numeric:normal;line-height:1.25" xml:space="preserve"><tspan x="148.70706" y="109.67156" font-family="Liberation Sans" stroke-width=".26458" text-align="center" text-anchor="middle">c</tspan></text>
   <path transform="matrix(0 .053461 -.046873 0 138.35 161.36)" d="m233.88-58.47c9.6738-8.7939 20.452-16.372 32-22.5 34.817-18.475 75.602-23.208 114.91-20.265 39.305 2.9432 77.654 13.144 115.79 23.106 14.79 3.8637 29.73 7.7198 45.006 8.2929 15.276 0.57309 31.123-2.3927 43.664-11.134 7.1458-4.9805 13.04-11.742 17-19.5 3.9597 7.7582 9.8542 14.52 17 19.5 12.541 8.7409 28.388 11.707 43.664 11.134 15.276-0.57309 30.216-4.4292 45.006-8.2929 38.135-9.9619 76.484-20.163 115.79-23.106 39.305-2.9432 80.09 1.7902 114.91 20.265 11.548 6.128 22.326 13.706 32 22.5" color="#000000" fill="none" stroke="#000" stroke-linecap="round" stroke-linejoin="round" stroke-width="9.9883"/>
  </g>
  <g transform="translate(0 1.9075e-6)">
   <text transform="translate(0,87)" x="148.70706" y="161.03821" fill="#000000" font-family="'Source Serif Pro'" font-size="11.797px" letter-spacing="0px" stroke-width=".26458" text-align="center" text-anchor="middle" word-spacing="0px" style="font-feature-settings:normal;font-variant-caps:normal;font-variant-ligatures:normal;font-variant-numeric:normal;line-height:1.25" xml:space="preserve"><tspan x="148.70706" y="161.03821" font-family="Liberation Sans" stroke-width=".26458" text-align="center" text-anchor="middle">e</tspan></text>
   <path transform="matrix(0 .053461 -.046873 0 138.35 212.73)" d="m374.17-58.47c8.3013-10.275 19.522-18.165 32-22.5 14.477-5.0298 30.25-5.2551 45.444-3.241s30.001 6.1866 44.895 9.8018 30.069 6.6973 45.394 6.4616c15.324-0.23562 30.947-4.009 43.343-13.022 7.0336-5.1145 12.892-11.835 17-19.5 4.1078 7.6652 9.9664 14.385 17 19.5 12.395 9.0134 28.019 12.787 43.343 13.022 15.324 0.23562 30.5-2.8464 45.394-6.4616s29.702-7.7878 44.895-9.8018 30.966-1.7888 45.444 3.241c12.478 4.3352 23.699 12.225 32 22.5" color="#000000" fill="none" stroke="#000" stroke-linecap="round" stroke-linejoin="round" stroke-width="9.9883"/>
  </g>
 </g>
 <g transform="translate(-8.467 -38.541)">
  <g stroke-width=".3">
   <use transform="rotate(-36.914 115.05 51.417)" width="100%" height="100%" xlink:href="#path868"/>
   <use transform="rotate(5.8172 -561.32 -207.71)" width="100%" height="100%" xlink:href="#path864"/>
   <use transform="rotate(-1.4492 2500.4 804.89)" width="100%" height="100%" xlink:href="#path860"/>
   <use transform="rotate(27.047 -95.027 -21.089)" width="100%" height="100%" xlink:href="#path868"/>
   <use transform="rotate(66.856 -17.494 5.0874)" width="100%" height="100%" xlink:href="#path868"/>
   <use transform="rotate(72.146 -7.4676 .069625)" width="100%" height="100%" xlink:href="#path864"/>
   <use transform="rotate(54.796 -34.021 5.0464)" width="100%" height="100%" xlink:href="#path860"/>
   <use transform="rotate(-5.798 607.87 214.9)" width="100%" height="100%" xlink:href="#path872"/>
   <use transform="rotate(-21.597 203.27 47.726)" width="100%" height="100%" xlink:href="#path868"/>
   <use transform="rotate(-39.086 122.41 39.506)" width="100%" height="100%" xlink:href="#path872"/>
   <use transform="rotate(145.98 32.546 15.84)" width="100%" height="100%" xlink:href="#path872"/>
   <use transform="rotate(5.0961 -615.64 -102.26)" width="100%" height="100%" xlink:href="#path872"/>
   <use transform="rotate(29.558 -87.302 10.637)" width="100%" height="100%" xlink:href="#path868"/>
   <use transform="rotate(249.06 62.609 16.368)" width="100%" height="100%" xlink:href="#path868"/>
   <use transform="rotate(116.3 20.148 18.12)" width="100%" height="100%" xlink:href="#path860"/>
   <use transform="rotate(-19.962 219 10.268)" width="100%" height="100%" xlink:href="#path872"/>
   <use transform="rotate(-41.285 122.61 4.9105)" width="100%" height="100%" xlink:href="#path860"/>
   <use transform="rotate(261.67 68.065 13.509)" width="100%" height="100%" xlink:href="#path868"/>
   <use transform="rotate(-79.054 80.388 10.136)" width="100%" height="100%" xlink:href="#path860"/>
   <use transform="rotate(5.57 -542.16 160.24)" width="100%" height="100%" xlink:href="#path864"/>
   <use transform="rotate(115.71 28.872 23.124)" width="100%" height="100%" xlink:href="#path868"/>
   <use transform="rotate(40.472 -30.93 31.013)" width="100%" height="100%" xlink:href="#path864"/>
   <use transform="rotate(138.72 39.462 21.496)" width="100%" height="100%" xlink:href="#path872"/>
   <use transform="rotate(223.76 63.94 14.32)" width="100%" height="100%" xlink:href="#path868"/>
   <use transform="rotate(183.22 51.719 19.373)" width="100%" height="100%" xlink:href="#path860"/>
   <use transform="rotate(-4.9793 718.76 -193.28)" width="100%" height="100%" xlink:href="#path864"/>
   <use transform="rotate(56.603 -4.3375 45.163)" width="100%" height="100%" xlink:href="#path860"/>
   <use transform="rotate(120.88 35.129 28.004)" width="100%" height="100%" xlink:href="#path864"/>
   <use transform="rotate(158.13 50.133 22.088)" width="100%" height="100%" xlink:href="#path868"/>
   <use transform="rotate(-86.117 90.295 -.80532)" width="100%" height="100%" xlink:href="#path868"/>
   <use transform="rotate(170.71 57.051 20.504)" width="100%" height="100%" xlink:href="#path864"/>
   <use transform="rotate(27 -70.93 75.292)" width="100%" height="100%" xlink:href="#path864"/>
   <use transform="rotate(182.7 62.096 19.274)" width="100%" height="100%" xlink:href="#path864"/>
   <use transform="rotate(26.088 -75.169 99.983)" width="100%" height="100%" xlink:href="#path872"/>
   <use transform="rotate(242.91 81.196 10.072)" width="100%" height="100%" xlink:href="#path864"/>
   <use transform="rotate(6.8945 -423.37 315.82)" width="100%" height="100%" xlink:href="#path872"/>
   <use transform="rotate(17.959 -134.98 140.23)" width="100%" height="100%" xlink:href="#path868"/>
   <use transform="rotate(219.14 76.965 8.8937)" width="100%" height="100%" xlink:href="#path872"/>
   <use transform="rotate(38.199 -24.543 75.461)" width="100%" height="100%" xlink:href="#path872"/>
   <use transform="rotate(266.26 85.647 -.875)" width="100%" height="100%" xlink:href="#path868"/>
   <use transform="rotate(-46.737 121.54 -12.845)" width="100%" height="100%" xlink:href="#path864"/>
   <use transform="rotate(256.06 74.078 8.5409)" width="100%" height="100%" xlink:href="#path864"/>
   <use transform="rotate(170.62 48.612 17.224)" width="100%" height="100%" xlink:href="#path860"/>
   <use transform="rotate(-87.054 80.046 4.2774)" width="100%" height="100%" xlink:href="#path868"/>
   <use transform="rotate(118.73 25.301 23.023)" width="100%" height="100%" xlink:href="#path868"/>
   <use transform="rotate(-14.078 301.45 -12.81)" width="100%" height="100%" xlink:href="#path860"/>
   <use transform="rotate(118.72 25.86 22.866)" width="100%" height="100%" xlink:href="#path864"/>
   <use transform="rotate(3.2131 -1156.6 124.05)" width="100%" height="100%" xlink:href="#path860"/>
   <use transform="rotate(-89.986 76.402 25.26)" width="100%" height="100%" xlink:href="#path872"/>
   <use transform="rotate(166.68 34.07 21.027)" width="100%" height="100%" xlink:href="#path864"/>
   <use transform="rotate(29.159 -81.82 .29275)" width="100%" height="100%" xlink:href="#path864"/>
   <use transform="rotate(71.011 -14.747 10.538)" width="100%" height="100%" xlink:href="#path868"/>
   <use transform="rotate(258.9 55.528 30.259)" width="100%" height="100%" xlink:href="#path872"/>
   <use transform="rotate(246.46 74.19 10.008)" width="100%" height="100%" xlink:href="#path860"/>
   <use transform="rotate(195.77 33.646 19.562)" width="100%" height="100%" xlink:href="#path864"/>
   <use transform="rotate(256.34 90.044 4.3559)" width="100%" height="100%" xlink:href="#path864"/>
   <use transform="rotate(170.63 60.308 20.823)" width="100%" height="100%" xlink:href="#path860"/>
   <use transform="rotate(2.7203 -1344 1007.1)" width="100%" height="100%" xlink:href="#path864"/>
   <use transform="rotate(143.21 52.488 25.182)" width="100%" height="100%" xlink:href="#path864"/>
   <use transform="rotate(-19.471 241.49 -133.43)" width="100%" height="100%" xlink:href="#path864"/>
   <use transform="rotate(188.58 72.467 16.943)" width="100%" height="100%" xlink:href="#path872"/>
   <use transform="rotate(54.43 7.5635 84.436)" width="100%" height="100%" xlink:href="#path860"/>
   <use transform="rotate(195.25 77.465 12.732)" width="100%" height="100%" xlink:href="#path864"/>
   <use transform="rotate(270 107.23 -11.557)" width="100%" height="100%" xlink:href="#path872"/>
   <use transform="rotate(-39.47 166.49 -77.115)" width="100%" height="100%" xlink:href="#path868"/>
   <use transform="rotate(115.58 56.466 38.766)" width="100%" height="100%" xlink:href="#path864"/>
   <use transform="rotate(152.45 61.386 25.961)" width="100%" height="100%" xlink:href="#path860"/>
   <use transform="rotate(7.9562 -351.8 358.31)" width="100%" height="100%" xlink:href="#path872"/>
   <use transform="rotate(92.21 36.069 39.821)" width="100%" height="100%" xlink:href="#path872"/>
   <use transform="rotate(134.41 50.118 33.352)" width="100%" height="100%" xlink:href="#path860"/>
   <use transform="rotate(147.83 58.139 28.053)" width="100%" height="100%" xlink:href="#path868"/>
   <use transform="rotate(169.16 70.549 24.334)" width="100%" height="100%" xlink:href="#path864"/>
   <use transform="rotate(80.978 40.373 58.129)" width="100%" height="100%" xlink:href="#path872"/>
   <use transform="rotate(93.103 46.518 60.703)" width="100%" height="100%" xlink:href="#path860"/>
   <use transform="rotate(-39.555 164.2 -81.323)" width="100%" height="100%" xlink:href="#path864"/>
   <use transform="rotate(98.46 49.06 53.099)" width="100%" height="100%" xlink:href="#path864"/>
   <use transform="rotate(-35.461 171.47 -88.617)" width="100%" height="100%" xlink:href="#path864"/>
   <use transform="rotate(153.26 71.565 29.768)" width="100%" height="100%" xlink:href="#path864"/>
   <use transform="rotate(229.04 91.032 -1.0208)" width="100%" height="100%" xlink:href="#path868"/>
   <use transform="rotate(.4448 -7646.2 8306.1)" width="100%" height="100%" xlink:href="#path872"/>
   <use transform="rotate(147.76 75.141 27.317)" width="100%" height="100%" xlink:href="#path872"/>
   <use transform="rotate(225.5 94.792 3.1139)" width="100%" height="100%" xlink:href="#path864"/>
   <use transform="rotate(40.216 -6.8005 123.96)" width="100%" height="100%" xlink:href="#path868"/>
   <use transform="rotate(-24.104 235.43 -181.69)" width="100%" height="100%" xlink:href="#path868"/>
   <use transform="rotate(261.48 112.96 -17.852)" width="100%" height="100%" xlink:href="#path872"/>
   <use transform="rotate(-6.991 636.87 -638.31)" width="100%" height="100%" xlink:href="#path872"/>
   <use transform="rotate(123.92 71.587 45.83)" width="100%" height="100%" xlink:href="#path864"/>
   <use transform="rotate(115.09 64.432 49.701)" width="100%" height="100%" xlink:href="#path864"/>
   <use transform="rotate(113.27 63.985 51.213)" width="100%" height="100%" xlink:href="#path860"/>
   <use transform="rotate(12.197 -202.13 424.94)" width="100%" height="100%" xlink:href="#path864"/>
   <use transform="rotate(258.66 114.37 -18.981)" width="100%" height="100%" xlink:href="#path864"/>
   <use transform="rotate(-4.029 988.39 -717.44)" width="100%" height="100%" xlink:href="#path872"/>
   <use transform="rotate(261.61 94.951 -9.386)" width="100%" height="100%" xlink:href="#path868"/>
   <use transform="rotate(168.62 53.173 22.092)" width="100%" height="100%" xlink:href="#path868"/>
   <use transform="rotate(-60.483 106.58 9.5706)" width="100%" height="100%" xlink:href="#path864"/>
   <use transform="rotate(248 70.356 17.309)" width="100%" height="100%" xlink:href="#path864"/>
   <use transform="rotate(218.58 63.031 15.476)" width="100%" height="100%" xlink:href="#path864"/>
   <use transform="rotate(164.07 42.75 16.805)" width="100%" height="100%" xlink:href="#path864"/>
   <use transform="rotate(82.036 13.804 15.325)" width="100%" height="100%" xlink:href="#path872"/>
   <use transform="rotate(122.62 33.599 19.525)" width="100%" height="100%" xlink:href="#path864"/>
   <use transform="rotate(35.334 -60.272 8.203)" width="100%" height="100%" xlink:href="#path872"/>
   <use transform="rotate(29.323 -86.503 -2.533)" width="100%" height="100%" xlink:href="#path864"/>
   <use transform="rotate(111.56 7.4456 16.698)" width="100%" height="100%" xlink:href="#path860"/>
   <use transform="rotate(99.159 31.685 38.15)" width="100%" height="100%" xlink:href="#path868"/>
   <use transform="rotate(-10.761 420.36 -287.88)" width="100%" height="100%" xlink:href="#path864"/>
   <use transform="rotate(233.41 92.33 2.958)" width="100%" height="100%" xlink:href="#path868"/>
   <use transform="rotate(236.07 96.946 -1.7976)" width="100%" height="100%" xlink:href="#path860"/>
   <use transform="rotate(24.197 -106.93 -4.7444)" width="100%" height="100%" xlink:href="#path860"/>
   <use transform="rotate(-30.79 154.69 73.32)" width="100%" height="100%" xlink:href="#path872"/>
   <use transform="rotate(18.794 -153.11 63.349)" width="100%" height="100%" xlink:href="#path872"/>
   <use transform="rotate(-14.641 298.47 -12.592)" width="100%" height="100%" xlink:href="#path872"/>
   <use transform="rotate(140.93 29.029 14.521)" width="100%" height="100%" xlink:href="#path872"/>
   <use transform="rotate(214.32 68.983 13.33)" width="100%" height="100%" xlink:href="#path868"/>
   <use transform="rotate(-65.57 101.24 -4.8654)" width="100%" height="100%" xlink:href="#path864"/>
   <use transform="rotate(232.81 80.14 2.6881)" width="100%" height="100%" xlink:href="#path868"/>
   <use transform="rotate(192.19 86.242 14.199)" width="100%" height="100%" xlink:href="#path864"/>
   <use transform="rotate(77.358 52.578 75.468)" width="100%" height="100%" xlink:href="#path864"/>
   <use transform="rotate(164.54 79.312 24.008)" width="100%" height="100%" xlink:href="#path860"/>
   <use transform="rotate(253.3 110.95 -14.842)" width="100%" height="100%" xlink:href="#path868"/>
  </g>
  <g id="g1797" transform="matrix(.84271 0 0 .84237 8.5333 -4.1061)">
   <path d="m54.381-13.762c0.27623-1.2241 0.99061-2.3529 2.0078-3.0878s2.3329-1.059 3.5674-0.8337c1.2938 0.23616 2.4559 1.0706 3.1363 2.1961s0.88154 2.5204 0.59619 3.8042c-0.29007 1.3051-1.0849 2.5008-2.2053 3.2302s-2.5586 0.97048-3.8423 0.59676c-1.1893-0.34624-2.2105-1.2061-2.7955-2.298-0.58495-1.0919-0.73721-2.3996-0.46455-3.6079z" fill="#fff" fill-opacity=".50196" stroke="#000" stroke-width=".35607"/>
   <path d="m55.232-13.573c0.21786-1.0331 0.87058-1.9695 1.7708-2.5212 0.90018-0.55176 2.0361-0.70787 3.0484-0.40809 0.9525 0.28205 1.7788 0.96033 2.2508 1.8344 0.472 0.87409 0.5865 1.9325 0.32297 2.8903-0.25188 0.91546-0.84641 1.7341-1.6447 2.2482-0.79825 0.5141-1.7937 0.71664-2.7275 0.5452-1.0039-0.1843-1.9189-0.80026-2.477-1.6549-0.55809-0.85464-0.75441-1.9352-0.54379-2.9339z" fill="#9cc633" stroke="#334110" stroke-width=".35607"/>
  </g>
  <g id="g1793" transform="matrix(.84271 0 0 .84237 8.5333 -4.1061)">
   <path transform="matrix(.97034 0 0 .97043 2.1761 -.33156)" d="m68.744-12.014c0.16209-1.0831 0.64116-2.1256 1.4015-2.9138 0.76037-0.78819 1.8054-1.3098 2.898-1.3857 1.2348-0.08577 2.484 0.40587 3.3808 1.259s1.4441 2.0465 1.5802 3.2767c0.14714 1.3305-0.18741 2.7224-0.98703 3.7959-0.79961 1.0735-2.0703 1.8019-3.4069 1.8738-0.72869 0.039186-1.4653-0.11185-2.1251-0.42365-0.65977-0.3118-1.2421-0.78285-1.6945-1.3554-0.90487-1.1451-1.2628-2.6834-1.0468-4.1268z" fill="#fff" fill-opacity=".50196" stroke="#000" stroke-width=".36693"/>
   <path transform="matrix(.97034 0 0 .97043 2.1761 -.33156)" d="m73.28-15.132c-0.96969 0.02505-1.9 0.53562-2.5023 1.2961-0.60222 0.76043-0.8849 1.7505-0.85228 2.7199 0.03024 0.89877 0.3302 1.7969 0.8999 2.4927 0.5697 0.6958 1.416 1.1747 2.3129 1.2398 0.50701 0.03681 1.0217-0.056474 1.4879-0.25909 0.46622-0.20261 0.88374-0.51344 1.2197-0.8949 0.672-0.76292 1.0022-1.7984 0.97764-2.8148-0.02314-0.95933-0.36079-1.9204-0.9994-2.6366-0.63861-0.71626-1.5848-1.1679-2.5441-1.1431z" fill="#9cc633" stroke="#334110" stroke-width=".36693"/>
  </g>
  <g id="g1789" transform="matrix(.84271 0 0 .84237 8.5333 -4.1061)">
   <path d="m66.288-26.046c-0.99027 0.04366-1.95 0.51185-2.6134 1.2484-0.6634 0.73651-1.0278 1.7292-1.0246 2.7204 0.0026 0.7961 0.23778 1.591 0.67442 2.2567 0.43664 0.66569 1.0738 1.1991 1.8084 1.5058 0.73466 0.30669 1.564 0.38443 2.3415 0.21316 0.77747-0.17127 1.499-0.59173 2.0265-1.1881 0.59675-0.67471 0.9364-1.5666 0.96264-2.467 0.02624-0.90036-0.25692-1.8034-0.77365-2.5412-0.38151-0.54472-0.88963-1.0024-1.4787-1.3111-0.58906-0.30868-1.2587-0.46633-1.9231-0.43704z" fill="#fff" fill-opacity=".50196" stroke="#000" stroke-width=".35607"/>
   <path transform="translate(-.18899 .094494)" d="m64.587-23.92c-0.26946 0.43344-0.46854 0.91338-0.55861 1.4157-0.09008 0.50236-0.06915 1.0274 0.08614 1.5136 0.23488 0.73535 0.78704 1.3663 1.4909 1.6833s1.5488 0.31079 2.2416-0.02968c0.64219-0.31559 1.1357-0.90209 1.3842-1.5731 0.24852-0.671 0.25967-1.4194 0.08043-2.1122-0.17787-0.68742-0.55082-1.3369-1.1124-1.7714-0.28078-0.21728-0.60605-0.3787-0.95166-0.45995-0.34561-0.08124-0.71138-0.08128-1.0543 0.01077-0.34309 0.0921-0.65852 0.27449-0.92712 0.50698-0.2686 0.23249-0.49172 0.51424-0.67928 0.81594z" fill="#9cc633" stroke="#334110" stroke-width=".35607"/>
  </g>
  <path id="path860" transform="matrix(.51313 0 0 .50522 16.559 -51.574)" d="m35.351 79.981c-0.79444-0.57749-0.6438-2.0629 0.18149-2.5721s2.8739-0.38061 3.6673 0.1978c0.79338 0.57841 0.8618 1.9909 0.03756 2.4992-0.82424 0.50829-3.0919 0.45256-3.8864-0.12494z" fill="#fff" stroke="#000" stroke-width=".58921"/>
  <path id="path864" transform="matrix(.36786 .35774 -.35222 .36219 52.083 -58.371)" d="m48.638 80.6c0.22834-0.72192 1.5168-1.8163 2.2698-1.9426s1.4711 0.6296 1.2426 1.3513c-0.22853 0.72169-1.5569 1.8935-2.3079 2.02s-1.4328-0.70674-1.2044-1.4287z" fill="#fff" stroke="#000" stroke-width=".58921"/>
  <path id="path868" transform="matrix(.51313 0 0 .50522 16.559 -51.574)" d="m47.03 71.422c-0.83622-0.6834-2.9518-0.83251-3.8659-0.2235-0.91409 0.609-1.2345 2.3812-0.39718 3.0637s3.3889 0.73145 4.3019 0.12333c0.91301-0.60812 0.79734-2.2801-0.03889-2.9635z" fill="#fff" stroke="#000" stroke-width=".58921"/>
  <path id="path872" transform="matrix(.40136 -.3197 .31478 .39517 -.47797 -24.669)" d="m56.203 74.882c-0.24757-0.76888 0.45324-1.8998 1.3411-1.9213s2.5527 1.0514 2.7991 1.8197c0.24634 0.76825-0.76015 1.745-1.6467 1.7671-0.88659 0.02213-2.2458-0.89664-2.4934-1.6655z" fill="#fff" stroke="#000" stroke-width=".58921"/>
  <path id="path2165" transform="translate(-6.5481 -85.263)" d="m31.983 69.219c-0.22265 0.05557-0.40083 0.6792-0.35629 1.3476 0.04454 0.66844 0.31168 1.3808 0.53448 1.325 0.2228-0.05585 0.40095-0.87976 0.35639-1.5477-0.04455-0.66797-0.31192-1.1804-0.53458-1.1249z" fill="#fff" stroke="#000" stroke-width=".3"/>
  <path id="path2169" transform="translate(-9.6217 -81.488)" d="m35.586 69.013c-0.30612-0.05018-0.70702 0.5289-0.75162 1.2419-0.0446 0.71302 0.26706 1.5589 0.57342 1.6089 0.30636 0.04996 0.60699-0.69604 0.65149-1.4085 0.0445-0.7125-0.16718-1.3921-0.47329-1.4423z" fill="#fff" stroke="#000" stroke-width=".3"/>
  <path id="path2173" transform="matrix(.60415 0 0 .64427 10.928 -60.379)" d="m28.258 70.01c-0.37299 0.14468-0.71822 1.4142-0.64027 2.6172 0.07795 1.2029 0.57895 2.3386 0.95208 2.1936 0.37313-0.14494 0.6181-1.5702 0.54014-2.7727-0.07797-1.2025-0.47895-2.1827-0.85195-2.038z" fill="#fff" stroke="#000" stroke-width=".48086"/>
  <path id="path2177" transform="translate(-1.8709 -85.497)" d="m31.059 73.813c0.31172 0.0057 0.67922 0.62932 0.69599 1.3642 0.01677 0.73493-0.31727 1.5812-0.62923 1.5755-0.31196-0.0056-0.60139-0.86282-0.61802-1.5978-0.01663-0.73502 0.23955-1.3476 0.55127-1.3419z" fill="#fff" stroke="#000" stroke-width=".3"/>
  <g stroke-width=".3">
   <use transform="rotate(58.085 -107.11 39.312)" width="100%" height="100%" xlink:href="#path868"/>
   <use transform="rotate(-1.7569 4936.1 945.13)" width="100%" height="100%" xlink:href="#path864"/>
   <use transform="rotate(-1.3836 6548.2 1091.8)" width="100%" height="100%" xlink:href="#path868"/>
   <use transform="rotate(220.37 64.806 69.285)" width="100%" height="100%" xlink:href="#path872"/>
   <use transform="rotate(93.9 -41.131 63.783)" width="100%" height="100%" xlink:href="#path868"/>
   <use transform="rotate(-39.19 246.6 88.06)" width="100%" height="100%" xlink:href="#path868"/>
   <use transform="rotate(3.4701 -2459 -309.82)" width="100%" height="100%" xlink:href="#path872"/>
   <use transform="rotate(-82.621 112.71 74.003)" width="100%" height="100%" xlink:href="#path860"/>
   <use transform="rotate(-29.728 350.29 19.557)" width="100%" height="100%" xlink:href="#path860"/>
   <use transform="rotate(235.09 70.416 66.953)" width="100%" height="100%" xlink:href="#path860"/>
   <use transform="rotate(32.549 -220.25 54.614)" width="100%" height="100%" xlink:href="#path860"/>
   <use transform="rotate(-50.261 201.57 70.058)" width="100%" height="100%" xlink:href="#path868"/>
   <use transform="rotate(-46.97 213.23 82.24)" width="100%" height="100%" xlink:href="#path864"/>
   <use transform="rotate(-78.088 128.83 72.476)" width="100%" height="100%" xlink:href="#path864"/>
   <use transform="rotate(-67.73 149.08 67.968)" width="100%" height="100%" xlink:href="#path864"/>
   <use transform="rotate(114.35 -16.581 59.679)" width="100%" height="100%" xlink:href="#path860"/>
   <use transform="rotate(-23.568 412.25 73.614)" width="100%" height="100%" xlink:href="#path864"/>
   <use transform="rotate(201.58 55.935 61.115)" width="100%" height="100%" xlink:href="#path868"/>
   <use transform="rotate(175.76 36.9 64.47)" width="100%" height="100%" xlink:href="#path864"/>
   <use transform="rotate(125.06 7.6409 61.922)" width="100%" height="100%" xlink:href="#path872"/>
   <use transform="rotate(178.7 37.826 64.639)" width="100%" height="100%" xlink:href="#path860"/>
   <use transform="rotate(-67.576 154.96 56.897)" width="100%" height="100%" xlink:href="#path860"/>
   <use transform="rotate(263.82 112.55 60.515)" width="100%" height="100%" xlink:href="#path860"/>
   <use transform="rotate(266.88 114.34 65.393)" width="100%" height="100%" xlink:href="#path872"/>
   <use transform="rotate(115.85 -3.8242 70.664)" width="100%" height="100%" xlink:href="#path864"/>
   <use transform="rotate(114.43 -2.3577 66.66)" width="100%" height="100%" xlink:href="#path864"/>
   <use transform="rotate(70.507 -63.05 71.22)" width="100%" height="100%" xlink:href="#path872"/>
   <use transform="rotate(125.54 10.111 70.557)" width="100%" height="100%" xlink:href="#path864"/>
   <use transform="rotate(170.14 47.828 62.366)" width="100%" height="100%" xlink:href="#path872"/>
   <use transform="rotate(-15.168 634.69 -30.747)" width="100%" height="100%" xlink:href="#path868"/>
   <use transform="rotate(238.23 92.43 59.956)" width="100%" height="100%" xlink:href="#path872"/>
   <use transform="rotate(41.129 -148.33 84.45)" width="100%" height="100%" xlink:href="#path864"/>
   <use transform="rotate(5.2342 -1653.8 138.93)" width="100%" height="100%" xlink:href="#path872"/>
   <use transform="rotate(230.23 87.089 60.627)" width="100%" height="100%" xlink:href="#path864"/>
   <use transform="rotate(109.51 -1.4817 71.397)" width="100%" height="100%" xlink:href="#path872"/>
   <use transform="rotate(215.54 79.762 61.855)" width="100%" height="100%" xlink:href="#path864"/>
   <use transform="rotate(-43.577 243.55 30.31)" width="100%" height="100%" xlink:href="#path864"/>
   <use transform="rotate(-11.692 775.77 -54.169)" width="100%" height="100%" xlink:href="#path864"/>
   <use transform="rotate(49.334 -109.24 91.948)" width="100%" height="100%" xlink:href="#path872"/>
   <use transform="rotate(-70.48 169.92 39.457)" width="100%" height="100%" xlink:href="#path872"/>
   <use transform="rotate(90.897 -21.686 86.307)" width="100%" height="100%" xlink:href="#path860"/>
   <use transform="rotate(95.535 -12.971 83.751)" width="100%" height="100%" xlink:href="#path860"/>
   <use transform="rotate(-37.097 287.09 -4.8177)" width="100%" height="100%" xlink:href="#path860"/>
   <use transform="rotate(-61.897 187.82 25.932)" width="100%" height="100%" xlink:href="#path868"/>
   <use transform="rotate(85.993 -23.043 89.232)" width="100%" height="100%" xlink:href="#path868"/>
   <use transform="rotate(158.24 49.179 70.072)" width="100%" height="100%" xlink:href="#path868"/>
   <use transform="rotate(153.07 50.666 69.506)" width="100%" height="100%" xlink:href="#path872"/>
   <use transform="rotate(140.16 36.294 72.813)" width="100%" height="100%" xlink:href="#path860"/>
   <use transform="rotate(255.71 125.21 46.474)" width="100%" height="100%" xlink:href="#path872"/>
   <use transform="rotate(-73.13 176.7 31.224)" width="100%" height="100%" xlink:href="#path872"/>
   <use transform="rotate(133.7 32.504 74.743)" width="100%" height="100%" xlink:href="#path864"/>
   <use transform="rotate(108.17 14.461 82.84)" width="100%" height="100%" xlink:href="#path864"/>
   <use transform="rotate(105.41 10.784 86.909)" width="100%" height="100%" xlink:href="#path860"/>
   <use transform="rotate(122.59 25.621 81.799)" width="100%" height="100%" xlink:href="#path860"/>
   <use transform="rotate(180.14 75.105 66.168)" width="100%" height="100%" xlink:href="#path872"/>
   <use transform="rotate(100.17 10.879 90.908)" width="100%" height="100%" xlink:href="#path868"/>
   <use transform="rotate(105.63 18.114 86.545)" width="100%" height="100%" xlink:href="#path872"/>
   <use transform="rotate(68.824 -39.559 120.43)" width="100%" height="100%" xlink:href="#path860"/>
   <use transform="rotate(210.21 94.268 54.274)" width="100%" height="100%" xlink:href="#path864"/>
   <use transform="rotate(-9.3822 1008.5 -408.76)" width="100%" height="100%" xlink:href="#path868"/>
   <use transform="rotate(-7.0956 1308.3 -596.18)" width="100%" height="100%" xlink:href="#path868"/>
   <use transform="rotate(-78.667 171.4 14.077)" width="100%" height="100%" xlink:href="#path860"/>
   <use transform="rotate(247.99 130.68 41.103)" width="100%" height="100%" xlink:href="#path864"/>
   <use transform="rotate(171.54 74.071 65.208)" width="100%" height="100%" xlink:href="#path872"/>
   <use transform="rotate(-30.602 358.11 -91.577)" width="100%" height="100%" xlink:href="#path864"/>
   <use transform="rotate(24.73 -252.57 248.67)" width="100%" height="100%" xlink:href="#path872"/>
   <use transform="rotate(117.93 40.312 84.912)" width="100%" height="100%" xlink:href="#path872"/>
   <use transform="rotate(-74.125 186.08 7.5577)" width="100%" height="100%" xlink:href="#path864"/>
   <use transform="rotate(161.02 66.953 71.915)" width="100%" height="100%" xlink:href="#path860"/>
   <use transform="rotate(85.253 5.0387 112.35)" width="100%" height="100%" xlink:href="#path864"/>
   <use transform="rotate(16.709 -426.97 380.72)" width="100%" height="100%" xlink:href="#path868"/>
   <use transform="rotate(49.705 -78.4 172.03)" width="100%" height="100%" xlink:href="#path860"/>
   <use transform="rotate(37.244 -176.42 153.68)" width="100%" height="100%" xlink:href="#path868"/>
   <use transform="rotate(6.7489 -1207.5 333.05)" width="100%" height="100%" xlink:href="#path864"/>
   <use transform="rotate(56.354 -71.371 117.11)" width="100%" height="100%" xlink:href="#path872"/>
   <use transform="rotate(210.47 81.855 59.918)" width="100%" height="100%" xlink:href="#path868"/>
   <use transform="rotate(-35.622 319.75 -26.686)" width="100%" height="100%" xlink:href="#path868"/>
   <use transform="rotate(-30.304 348.23 35.067)" width="100%" height="100%" xlink:href="#path868"/>
   <use transform="rotate(.22504 -39961 13212)" width="100%" height="100%" xlink:href="#path864"/>
   <use transform="rotate(-66.454 195.06 32.339)" width="100%" height="100%" xlink:href="#path872"/>
   <use transform="rotate(-58.448 210.92 22.597)" width="100%" height="100%" xlink:href="#path868"/>
   <use transform="rotate(-31.861 328.27 4.4591)" width="100%" height="100%" xlink:href="#path860"/>
   <use transform="rotate(11.879 -703.84 32.05)" width="100%" height="100%" xlink:href="#path864"/>
   <use transform="rotate(-32.821 317.12 59.255)" width="100%" height="100%" xlink:href="#path860"/>
   <use transform="rotate(263.41 111.74 69.311)" width="100%" height="100%" xlink:href="#path868"/>
   <use transform="rotate(168.64 32.039 67.976)" width="100%" height="100%" xlink:href="#path864"/>
   <use transform="rotate(166.36 35.835 67.237)" width="100%" height="100%" xlink:href="#path872"/>
   <use transform="rotate(171.84 41.109 69.132)" width="100%" height="100%" xlink:href="#path872"/>
   <use transform="rotate(269.73 121.36 63.253)" width="100%" height="100%" xlink:href="#path868"/>
   <use transform="rotate(31.438 -247.05 34.073)" width="100%" height="100%" xlink:href="#path868"/>
   <use transform="rotate(56.257 -113.97 38.909)" width="100%" height="100%" xlink:href="#path872"/>
   <use transform="rotate(181.22 37.904 66.622)" width="100%" height="100%" xlink:href="#path864"/>
   <use transform="rotate(108.32 18.482 85.738)" width="100%" height="100%" xlink:href="#path864"/>
   <use transform="rotate(171.25 68.852 69.103)" width="100%" height="100%" xlink:href="#path864"/>
   <use transform="rotate(-7.2732 1335.5 56.239)" width="100%" height="100%" xlink:href="#path2177"/>
   <use id="use2271" transform="rotate(-6.8674 1437.9 .45015)" width="100%" height="100%" stroke-width=".3" xlink:href="#path2165"/>
   <use transform="rotate(-10.522 951.56 48.465)" width="100%" height="100%" xlink:href="#path2177"/>
   <use transform="rotate(-7.9099 1250.2 1.7867)" width="100%" height="100%" xlink:href="#path2169"/>
   <use transform="rotate(-9.9447 1033.4 52.656)" width="100%" height="100%" xlink:href="#path2173"/>
   <use transform="rotate(.18041 -56179 2079.4)" width="100%" height="100%" xlink:href="#path2173"/>
   <use transform="rotate(-9.1064 1153.7 48.001)" width="100%" height="100%" xlink:href="#path2173"/>
   <use transform="rotate(-10.648 1005 35.561)" width="100%" height="100%" xlink:href="#path2173"/>
   <use transform="rotate(-5.407 1983.8 .87365)" width="100%" height="100%" xlink:href="#path2165"/>
   <use transform="rotate(-6.1948 1748.2 -9.7296)" width="100%" height="100%" xlink:href="#path2165"/>
   <use transform="rotate(-3.6795 2863.7 -43.686)" width="100%" height="100%" xlink:href="#path2177"/>
   <use transform="rotate(-3.0067 3638.4 -96.197)" width="100%" height="100%" xlink:href="#path2165"/>
   <use transform="rotate(8.3901 -1240.4 167.13)" width="100%" height="100%" xlink:href="#path2169"/>
   <use transform="rotate(-3.5572 3088 -96.621)" width="100%" height="100%" xlink:href="#path2169"/>
   <use transform="rotate(2.5383 -4328.7 290.61)" width="100%" height="100%" xlink:href="#path2165"/>
   <use transform="rotate(21.166 -483.25 113.71)" width="100%" height="100%" xlink:href="#path2173"/>
   <use transform="rotate(.99569 -9717.4 813.16)" width="100%" height="100%" xlink:href="#path2173"/>
   <use transform="rotate(-1.2099 8047.2 -499.09)" width="100%" height="100%" xlink:href="#path2165"/>
   <use transform="rotate(-3.4038 2933 -121.2)" width="100%" height="100%" xlink:href="#path2169"/>
   <use transform="rotate(8.6157 -1130.2 174.29)" width="100%" height="100%" xlink:href="#path2169"/>
   <use transform="rotate(.29313 -35231 2332.5)" width="100%" height="100%" xlink:href="#path2165"/>
   <use transform="rotate(10.985 -915.5 136.99)" width="100%" height="100%" xlink:href="#path2177"/>
   <use transform="rotate(11.416 -793.16 167.05)" width="100%" height="100%" xlink:href="#path2169"/>
   <use transform="rotate(14.185 -653.12 146.17)" width="100%" height="100%" xlink:href="#path2173"/>
   <use transform="rotate(19.452 -459.04 126.65)" width="100%" height="100%" xlink:href="#path2169"/>
   <use transform="rotate(4.3155 -2312.4 280.15)" width="100%" height="100%" xlink:href="#path2173"/>
   <use transform="rotate(19.252 -482.12 126.78)" width="100%" height="100%" xlink:href="#path2173"/>
   <use transform="rotate(2.798 -3614.3 448.05)" width="100%" height="100%" xlink:href="#path2169"/>
   <use transform="rotate(8.3018 -1218.9 171.65)" width="100%" height="100%" xlink:href="#path2173"/>
   <use transform="rotate(4.0351 -2555.1 241.61)" width="100%" height="100%" xlink:href="#path2173"/>
   <use transform="rotate(19.3 -501.31 130.58)" width="100%" height="100%" xlink:href="#path2169"/>
   <use transform="rotate(22.903 -436.26 119.19)" width="100%" height="100%" xlink:href="#path2165"/>
   <use transform="rotate(5.2596 -2121.3 217.45)" width="100%" height="100%" xlink:href="#path2165"/>
   <use transform="rotate(-7.2244 1582.1 24.428)" width="100%" height="100%" xlink:href="#path2173"/>
   <use transform="rotate(-2.8697 3312.8 -1145.9)" width="100%" height="100%" xlink:href="#path2177"/>
   <use transform="rotate(-1.8912 5035.6 -1877.2)" width="100%" height="100%" xlink:href="#path2177"/>
   <use transform="rotate(-6.5881 1552.2 -507.89)" width="100%" height="100%" xlink:href="#path2165"/>
   <use transform="rotate(-6.3271 1596.6 -545.04)" width="100%" height="100%" xlink:href="#path2169"/>
   <use transform="rotate(-10.377 1003.5 -268.12)" width="100%" height="100%" xlink:href="#path2177"/>
   <use transform="rotate(5.8761 -1649.9 755.36)" width="100%" height="100%" xlink:href="#path2165"/>
   <use transform="rotate(4.2108 -2290.1 955.29)" width="100%" height="100%" xlink:href="#path2177"/>
   <use transform="rotate(-2.9413 3557.5 -1230.2)" width="100%" height="100%" xlink:href="#path2165"/>
   <use transform="rotate(11.407 -839.01 425.47)" width="100%" height="100%" xlink:href="#path2165"/>
   <use transform="rotate(4.1177 -2413.5 980.37)" width="100%" height="100%" xlink:href="#path2177"/>
   <use transform="rotate(5.1493 -1763.8 819.6)" width="100%" height="100%" xlink:href="#path2177"/>
   <use transform="rotate(17.781 -489.9 300.25)" width="100%" height="100%" xlink:href="#path2165"/>
   <use transform="rotate(8.3321 -1091.8 556.37)" width="100%" height="100%" xlink:href="#path2173"/>
   <use transform="rotate(18.542 -478.48 292.57)" width="100%" height="100%" xlink:href="#path2165"/>
   <use transform="rotate(-2.2343 4340 -1490.1)" width="100%" height="100%" xlink:href="#path2177"/>
   <use id="use2389" transform="rotate(12.926 20.063 174.84)" width="100%" height="100%" stroke-width=".3" xlink:href="#use2271"/>
   <use transform="translate(2.9785 2.567)" width="100%" height="100%" xlink:href="#use2389"/>
  </g>
 </g>
</svg>
