<?xml version="1.0" standalone="no" ?>
<!DOCTYPE svg PUBLIC "-//W3C//DTD SVG 1.1//EN" "http://www.w3.org/Graphics/SVG/1.1/DTD/svg11.dtd">
<svg width="118px" height="108px" viewBox="0 0 118 108" style="background-color: #ffffff00" xmlns="http://www.w3.org/2000/svg" xmlns:xlink="http://www.w3.org/1999/xlink" version="1.1" >
<text x="0" y="0" stroke="none" fill="#000000" transform="matrix(0.05 0 0 0.05 2.14126 105.054)" font-style="normal" font-weight="normal" font-size="393.4px" font-family="Helvetica" >
R</text>
<text x="0" y="0" stroke="none" fill="#000000" transform="matrix(0.05 0 0 0.05 52.8468 75.5495)" font-style="normal" font-weight="normal" font-size="393.4px" font-family="Helvetica" >
C</text>
<path stroke="none" fill="#000000" transform="matrix(0.05 0 0 0.05 -230 -154)" d="M 5584.57,4541.22 L 5604.24,4575.29 L 4963.49,4945.23 L 4943.82,4911.16 L 5584.57,4541.22 Z " />
<text x="0" y="0" stroke="none" fill="#000000" transform="matrix(0.05 0 0 0.05 104.609 105.054)" font-style="normal" font-weight="normal" font-size="393.4px" font-family="Helvetica" >
H</text>
<path stroke="none" fill="#000000" transform="matrix(0.05 0 0 0.05 -230 -154)" d="M 6600.68,4899.8 L 6581.01,4933.87 L 5963.37,4577.28 L 5983.04,4543.21 L 6600.68,4899.8 Z " />
<text x="0" y="0" stroke="none" fill="#000000" transform="matrix(0.05 0 0 0.05 52.2273 16.5395)" font-style="normal" font-weight="normal" font-size="393.4px" font-family="Helvetica" >
O</text>
<path stroke="none" fill="#000000" transform="matrix(0.05 0 0 0.05 -230 -154)" d="M 5691.6,3502.45 L 5730.94,3502.45 L 5730.94,4226.29 L 5691.6,4226.29 L 5691.6,3502.45 Z " />
<path stroke="none" fill="#000000" transform="matrix(0.05 0 0 0.05 -230 -154)" d="M 5833.23,3502.45 L 5872.57,3502.45 L 5872.57,4226.29 L 5833.23,4226.29 L 5833.23,3502.45 Z " />
</svg>
