<?xml version="1.0" standalone="no" ?>
<!DOCTYPE svg PUBLIC "-//W3C//DTD SVG 1.1//EN" "http://www.w3.org/Graphics/SVG/1.1/DTD/svg11.dtd">
<svg width="118px" height="108px" viewBox="0 0 118 108" style="background-color: #ffffff00" xmlns="http://www.w3.org/2000/svg" xmlns:xlink="http://www.w3.org/1999/xlink" version="1.1" >
<text x="0" y="0" stroke="none" fill="#000000" transform="matrix(0.05 0 0 0.05 51.8037 48)" font-style="normal" font-weight="normal" font-size="472.08px" font-family="Helvetica" >
N</text>
<text x="0" y="0" stroke="none" fill="#000000" transform="matrix(0.05 0 0 0.05 52.9236 105.599)" font-style="normal" font-weight="normal" font-size="393.4px" font-family="Helvetica" >
H</text>
<path stroke="none" fill="#000000" transform="matrix(0.05 0 0 0.05 -165 -186)" d="M 4490.13,5471.12 L 4450.79,5471.12 L 4450.79,4758.06 L 4490.13,4758.06 L 4490.13,5471.12 Z " />
<text x="0" y="0" stroke="none" fill="#000000" transform="matrix(0.05 0 0 0.05 1.56013 17.0841)" font-style="normal" font-weight="normal" font-size="393.4px" font-family="Helvetica" >
R</text>
<path stroke="none" fill="#000000" transform="matrix(0.05 0 0 0.05 -165 -186)" d="M 3663.34,4067.41 L 3683.01,4033.35 L 4237.54,4353.5 L 4217.87,4387.57 L 3663.34,4067.41 Z " />
<text x="0" y="0" stroke="none" fill="#000000" transform="matrix(0.05 0 0 0.05 104.028 17.0841)" font-style="normal" font-weight="normal" font-size="393.4px" font-family="Helvetica" >
H</text>
<path stroke="none" fill="#000000" transform="matrix(0.05 0 0 0.05 -165 -186)" d="M 5269.46,4026.68 L 5289.13,4060.75 L 4723.8,4387.14 L 4704.13,4353.07 L 5269.46,4026.68 Z " />
</svg>
