<?xml version="1.0" standalone="no" ?>
<!DOCTYPE svg PUBLIC "-//W3C//DTD SVG 1.1//EN" "http://www.w3.org/Graphics/SVG/1.1/DTD/svg11.dtd">
<svg width="119px" height="108px" viewBox="0 0 119 108" style="background-color: #ffffff00" xmlns="http://www.w3.org/2000/svg" xmlns:xlink="http://www.w3.org/1999/xlink" version="1.1" >
<text x="0" y="0" stroke="none" fill="#000000" transform="matrix(0.05 0 0 0.05 52.7427 46.0545)" font-style="normal" font-weight="normal" font-size="393.4px" font-family="Helvetica" >
C</text>
<text x="0" y="0" stroke="none" fill="#000000" transform="matrix(0.05 0 0 0.05 103.227 16.5495)" font-style="normal" font-weight="normal" font-size="393.4px" font-family="Helvetica" >
O</text>
<path stroke="none" fill="#000000" transform="matrix(0.05 0 0 0.05 -209 -163)" d="M 6140.3,3485.02 L 6159.97,3519.09 L 5525.05,3885.65 L 5505.38,3851.58 L 6140.3,3485.02 Z " />
<path stroke="none" fill="#000000" transform="matrix(0.05 0 0 0.05 -209 -163)" d="M 6211.11,3607.67 L 6230.78,3641.74 L 5595.87,4008.3 L 5576.2,3974.23 L 6211.11,3607.67 Z " />
<text x="0" y="0" stroke="none" fill="#000000" transform="matrix(0.05 0 0 0.05 2.0371 16.5495)" font-style="normal" font-weight="normal" font-size="393.4px" font-family="Helvetica" >
R</text>
<path stroke="none" fill="#000000" transform="matrix(0.05 0 0 0.05 -209 -163)" d="M 4552.13,3596.29 L 4571.8,3562.22 L 5185.4,3916.48 L 5165.73,3950.55 L 4552.13,3596.29 Z " />
<text x="0" y="0" stroke="none" fill="#000000" transform="matrix(0.05 0 0 0.05 53.1413 105.064)" font-style="normal" font-weight="normal" font-size="393.4px" font-family="Helvetica" >
R’</text>
<path stroke="none" fill="#000000" transform="matrix(0.05 0 0 0.05 -209 -163)" d="M 5379.67,4999.43 L 5340.33,4999.43 L 5340.33,4270.75 L 5379.67,4270.75 L 5379.67,4999.43 Z " />
</svg>
