<?xml version="1.0" standalone="no" ?>
<!DOCTYPE svg PUBLIC "-//W3C//DTD SVG 1.1//EN" "http://www.w3.org/Graphics/SVG/1.1/DTD/svg11.dtd">
<svg width="416px" height="221px" viewBox="0 0 416 221" style="background-color: #ffffff00" xmlns="http://www.w3.org/2000/svg" xmlns:xlink="http://www.w3.org/1999/xlink" version="1.1" >
<text x="0" y="0" stroke="none" fill="#5e5e5e" transform="matrix(0.05 0 0 0.05 0.565502 218.304)" font-style="normal" font-weight="normal" font-size="260px" font-family="Helvetica" >
HO</text>
<text x="0" y="0" stroke="none" fill="#5e5e5e" transform="matrix(0.05 0 0 0.05 146.92 179.304)" font-style="normal" font-weight="normal" font-size="260px" font-family="Helvetica" >
H</text>
<text x="0" y="0" stroke="none" fill="#5e5e5e" transform="matrix(0.05 0 0 0.05 180.695 120.804)" font-style="normal" font-weight="normal" font-size="260px" font-family="Helvetica" >
H</text>
<text x="0" y="0" stroke="none" fill="#5e5e5e" transform="matrix(0.05 0 0 0.05 214.47 179.304)" font-style="normal" font-weight="normal" font-size="260px" font-family="Helvetica" >
H</text>
<path stroke="none" fill="#5e5e5e" transform="matrix(0.05 0 0 0.05 -83 -271)" d="M 2632.91,8515.33 L 2658.91,8530.34 L 2658.91,9295.33 L 2645.91,9302.83 L 2632.91,9294.49 L 2632.91,8515.33 Z " />
<path stroke="none" fill="#5e5e5e" transform="matrix(0.05 0 0 0.05 -83 -271)" d="M 3321.41,8117.82 L 3321.41,8147.85 L 2658.91,8530.34 L 2632.91,8515.33 L 3321.41,8117.82 Z " />
<path stroke="none" fill="#5e5e5e" transform="matrix(0.05 0 0 0.05 -83 -271)" d="M 3321.41,9677.82 L 3321.41,9707.85 L 2646.64,9318.27 L 2645.91,9302.83 L 2658.91,9295.33 L 3321.41,9677.82 Z " />
<path stroke="none" fill="#5e5e5e" transform="matrix(0.05 0 0 0.05 -83 -271)" d="M 3983.91,9295.33 L 3996.91,9302.83 L 3996.91,9317.85 L 3321.41,9707.85 L 3321.41,9677.82 L 3983.91,9295.33 Z " />
<path stroke="none" fill="#5e5e5e" transform="matrix(0.05 0 0 0.05 -83 -271)" d="M 4672.41,9677.82 L 4672.41,9707.85 L 3996.91,9317.85 L 3996.91,9302.83 L 4009.91,9295.33 L 4672.41,9677.82 Z " />
<path stroke="none" fill="#5e5e5e" transform="matrix(0.05 0 0 0.05 -83 -271)" d="M 4678.91,9573.5 L 4665.91,9596.01 L 4084.01,9260.05 L 4097.01,9237.54 L 4678.91,9573.5 Z " />
<path stroke="none" fill="#5e5e5e" transform="matrix(0.05 0 0 0.05 -83 -271)" d="M 5334.91,9295.33 L 5360.91,9310.34 L 4672.41,9707.85 L 4672.41,9677.82 L 5334.91,9295.33 Z " />
<path stroke="none" fill="#5e5e5e" transform="matrix(0.05 0 0 0.05 -83 -271)" d="M 5334.91,8530.34 L 5347.91,8522.83 L 5360.91,8530.34 L 5360.91,9310.34 L 5334.91,9295.33 L 5334.91,8530.34 Z " />
<path stroke="none" fill="#5e5e5e" transform="matrix(0.05 0 0 0.05 -83 -271)" d="M 6010.41,8125.33 L 6023.41,8132.83 L 6026.93,8145.81 L 5360.91,8530.34 L 5347.91,8522.83 L 5363.36,8498.9 L 6010.41,8125.33 Z " />
<path stroke="none" fill="#5e5e5e" transform="matrix(0.05 0 0 0.05 -83 -271)" d="M 6601.95,6338.44 L 6614.95,6338.44 L 6627.95,6346.18 L 6627.95,6972.69 L 6614.95,6997.81 L 6601.95,6990.45 L 6601.95,6338.44 Z " />
<path stroke="none" fill="#5e5e5e" transform="matrix(0.05 0 0 0.05 -83 -271)" d="M 7221.47,5995.01 L 7221.07,6024.8 L 6627.95,6346.18 L 6614.95,6338.44 L 6630.31,6315.33 L 7221.47,5995.01 Z " />
<path stroke="none" fill="#5e5e5e" transform="matrix(0.05 0 0 0.05 -83 -271)" d="M 7896.77,6384.9 L 7896.77,6414.92 L 7221.07,6024.8 L 7221.47,5995.01 L 7896.77,6384.9 Z " />
<path stroke="none" fill="#5e5e5e" transform="matrix(0.05 0 0 0.05 -83 -271)" d="M 8572.27,5994.9 L 8572.27,6024.92 L 7896.77,6414.92 L 7896.77,6384.9 L 8572.27,5994.9 Z " />
<path stroke="none" fill="#5e5e5e" transform="matrix(0.05 0 0 0.05 -83 -271)" d="M 9247.77,6384.9 L 9247.77,6399.91 L 9234.77,6407.41 L 8572.27,6024.92 L 8572.27,5994.9 L 9247.77,6384.9 Z " />
<path stroke="none" fill="#5e5e5e" transform="matrix(0.05 0 0 0.05 -83 -271)" d="M 9260.77,7179.91 L 9234.77,7179.91 L 9234.77,6407.41 L 9247.77,6399.91 L 9260.77,6407.41 L 9260.77,7179.91 Z " />
<path stroke="none" fill="#5e5e5e" transform="matrix(0.05 0 0 0.05 -83 -271)" d="M 9916.77,5998.65 L 9929.77,6021.17 L 9260.77,6407.41 L 9247.77,6399.91 L 9247.77,6384.9 L 9916.77,5998.65 Z " />
<path stroke="none" fill="#5e5e5e" transform="matrix(0.05 0 0 0.05 -83 -271)" d="M 5735.97,6207.78 L 5772.37,6056.09 L 5797.17,6064.17 L 5761.74,6211.83 L 5735.97,6207.78 Z " />
<path stroke="none" fill="#5e5e5e" transform="matrix(0.05 0 0 0.05 -83 -271)" d="M 5807.06,6218.95 L 5840.78,6078.38 L 5865.58,6086.47 L 5832.82,6223 L 5807.06,6218.95 Z " />
<path stroke="none" fill="#5e5e5e" transform="matrix(0.05 0 0 0.05 -83 -271)" d="M 5878.14,6230.12 L 5909.2,6100.68 L 5933.99,6108.76 L 5903.91,6234.17 L 5878.14,6230.12 Z " />
<path stroke="none" fill="#5e5e5e" transform="matrix(0.05 0 0 0.05 -83 -271)" d="M 5949.22,6241.29 L 5977.61,6122.98 L 6002.41,6131.06 L 5974.99,6245.34 L 5949.22,6241.29 Z " />
<path stroke="none" fill="#5e5e5e" transform="matrix(0.05 0 0 0.05 -83 -271)" d="M 6020.31,6252.47 L 6046.02,6145.27 L 6070.82,6153.35 L 6046.07,6256.51 L 6020.31,6252.47 Z " />
<path stroke="none" fill="#5e5e5e" transform="matrix(0.05 0 0 0.05 -83 -271)" d="M 6091.39,6263.64 L 6114.44,6167.57 L 6139.24,6175.65 L 6117.16,6267.68 L 6091.39,6263.64 Z " />
<path stroke="none" fill="#5e5e5e" transform="matrix(0.05 0 0 0.05 -83 -271)" d="M 6162.47,6274.81 L 6182.85,6189.86 L 6207.65,6197.94 L 6188.24,6278.85 L 6162.47,6274.81 Z " />
<path stroke="none" fill="#5e5e5e" transform="matrix(0.05 0 0 0.05 -83 -271)" d="M 6233.56,6285.98 L 6251.27,6212.16 L 6276.07,6220.24 L 6259.32,6290.02 L 6233.56,6285.98 Z " />
<path stroke="none" fill="#5e5e5e" transform="matrix(0.05 0 0 0.05 -83 -271)" d="M 6304.64,6297.15 L 6319.68,6234.45 L 6344.48,6242.54 L 6330.41,6301.2 L 6304.64,6297.15 Z " />
<path stroke="none" fill="#5e5e5e" transform="matrix(0.05 0 0 0.05 -83 -271)" d="M 6375.72,6308.32 L 6388.1,6256.75 L 6412.89,6264.83 L 6401.49,6312.37 L 6375.72,6308.32 Z " />
<path stroke="none" fill="#5e5e5e" transform="matrix(0.05 0 0 0.05 -83 -271)" d="M 6446.81,6319.49 L 6456.51,6279.05 L 6481.31,6287.13 L 6472.57,6323.54 L 6446.81,6319.49 Z " />
<path stroke="none" fill="#5e5e5e" transform="matrix(0.05 0 0 0.05 -83 -271)" d="M 6517.89,6330.66 L 6524.92,6301.34 L 6549.72,6309.42 L 6543.66,6334.71 L 6517.89,6330.66 Z " />
<path stroke="none" fill="#5e5e5e" transform="matrix(0.05 0 0 0.05 -83 -271)" d="M 6010.41,7360.34 L 6023.41,7352.83 L 6036.41,7360.19 L 6036.41,8119.75 L 6023.41,8132.83 L 6010.41,8125.33 L 6010.41,7360.34 Z " />
<path stroke="none" fill="#5e5e5e" transform="matrix(0.05 0 0 0.05 -83 -271)" d="M 5945.41,6572.83 L 6101.41,6572.83 L 6038.42,7328.66 L 6023.41,7352.83 L 6008.44,7329.18 L 5945.41,6572.83 Z " />
<path stroke="none" fill="#5e5e5e" transform="matrix(0.05 0 0 0.05 -83 -271)" d="M 5347.91,6977.85 L 5347.91,6947.82 L 6008.44,7329.18 L 6023.41,7352.83 L 6010.41,7360.34 L 5347.91,6977.85 Z " />
<path stroke="none" fill="#5e5e5e" transform="matrix(0.05 0 0 0.05 -83 -271)" d="M 4685.41,7360.34 L 4659.41,7345.33 L 5347.91,6947.82 L 5347.91,6977.85 L 4685.41,7360.34 Z " />
<path stroke="none" fill="#5e5e5e" transform="matrix(0.05 0 0 0.05 -83 -271)" d="M 4685.41,8125.33 L 4672.41,8132.83 L 4659.41,8125.33 L 4659.41,7345.33 L 4685.41,7360.34 L 4685.41,8125.33 L 4685.41,8125.33 Z " />
<path stroke="none" fill="#5e5e5e" transform="matrix(0.05 0 0 0.05 -83 -271)" d="M 4672.41,8147.85 L 4672.41,8132.83 L 4685.41,8125.33 L 5332.46,8498.9 L 5347.91,8522.83 L 5334.91,8530.34 L 4672.41,8147.85 L 4672.41,8147.85 Z " />
<path stroke="none" fill="#5e5e5e" transform="matrix(0.05 0 0 0.05 -83 -271)" d="M 4009.91,8530.34 L 3996.91,8522.83 L 4011.88,8499.18 L 4659.41,8125.33 L 4672.41,8132.83 L 4672.41,8147.85 L 4009.91,8530.34 Z " />
<path stroke="none" fill="#5e5e5e" transform="matrix(0.05 0 0 0.05 -83 -271)" d="M 3981.94,8499.18 L 3996.91,8522.83 L 3983.91,8530.34 L 3321.41,8147.85 L 3321.41,8117.82 L 3981.94,8499.18 Z " />
<path stroke="none" fill="#5e5e5e" transform="matrix(0.05 0 0 0.05 -83 -271)" d="M 3983.91,8530.34 L 3996.91,8522.83 L 4009.91,8530.34 L 4009.91,9295.33 L 3996.91,9302.83 L 3983.91,9295.33 L 3983.91,8530.34 Z " />
<path stroke="none" fill="#5e5e5e" transform="matrix(0.05 0 0 0.05 -83 -271)" d="M 3918.91,7742.83 L 4074.91,7742.83 L 4011.88,8499.18 L 3996.91,8522.83 L 3981.94,8499.18 L 3918.91,7742.83 L 3918.91,7742.83 Z " />
<path stroke="none" fill="#5e5e5e" transform="matrix(0.05 0 0 0.05 -83 -271)" d="M 2138.07,9686.1 L 2060.07,9551 L 2632.91,9294.49 L 2645.91,9302.83 L 2646.64,9318.27 L 2138.07,9686.1 Z " />
<path stroke="none" fill="#5e5e5e" transform="matrix(0.05 0 0 0.05 -83 -271)" d="M 4750.41,8766.59 L 4594.41,8766.59 L 4597.41,8740.59 L 4747.41,8740.59 L 4750.41,8766.59 Z " />
<path stroke="none" fill="#5e5e5e" transform="matrix(0.05 0 0 0.05 -83 -271)" d="M 4741.55,8689.8 L 4603.27,8689.8 L 4606.27,8663.8 L 4738.55,8663.8 L 4741.55,8689.8 Z " />
<path stroke="none" fill="#5e5e5e" transform="matrix(0.05 0 0 0.05 -83 -271)" d="M 4732.7,8613.02 L 4612.13,8613.02 L 4615.12,8587.02 L 4729.7,8587.02 L 4732.7,8613.02 Z " />
<path stroke="none" fill="#5e5e5e" transform="matrix(0.05 0 0 0.05 -83 -271)" d="M 4723.84,8536.23 L 4620.98,8536.23 L 4623.98,8510.23 L 4720.84,8510.23 L 4723.84,8536.23 Z " />
<path stroke="none" fill="#5e5e5e" transform="matrix(0.05 0 0 0.05 -83 -271)" d="M 4714.98,8459.45 L 4629.84,8459.45 L 4632.84,8433.45 L 4711.98,8433.45 L 4714.98,8459.45 Z " />
<path stroke="none" fill="#5e5e5e" transform="matrix(0.05 0 0 0.05 -83 -271)" d="M 4706.12,8382.67 L 4638.7,8382.67 L 4641.7,8356.67 L 4703.13,8356.67 L 4706.12,8382.67 Z " />
<path stroke="none" fill="#5e5e5e" transform="matrix(0.05 0 0 0.05 -83 -271)" d="M 4697.27,8305.88 L 4647.55,8305.88 L 4650.55,8279.88 L 4694.27,8279.88 L 4697.27,8305.88 Z " />
<path stroke="none" fill="#5e5e5e" transform="matrix(0.05 0 0 0.05 -83 -271)" d="M 4688.41,8229.1 L 4656.41,8229.1 L 4659.41,8203.1 L 4685.41,8203.1 L 4688.41,8229.1 Z " />
<path stroke="none" fill="#5e5e5e" transform="matrix(0.05 0 0 0.05 -83 -271)" d="M 5269.91,7887.59 L 5425.91,7887.59 L 5363.36,8498.9 L 5347.91,8522.83 L 5332.46,8498.9 L 5269.91,7887.59 Z " />
<path stroke="none" fill="#5e5e5e" transform="matrix(0.05 0 0 0.05 -83 -271)" d="M 6101.41,8766.59 L 5945.41,8766.59 L 5948.41,8740.59 L 6098.41,8740.59 L 6101.41,8766.59 Z " />
<path stroke="none" fill="#5e5e5e" transform="matrix(0.05 0 0 0.05 -83 -271)" d="M 6092.55,8689.8 L 5954.27,8689.8 L 5957.27,8663.8 L 6089.55,8663.8 L 6092.55,8689.8 Z " />
<path stroke="none" fill="#5e5e5e" transform="matrix(0.05 0 0 0.05 -83 -271)" d="M 6083.7,8613.02 L 5963.13,8613.02 L 5966.12,8587.02 L 6080.7,8587.02 L 6083.7,8613.02 Z " />
<path stroke="none" fill="#5e5e5e" transform="matrix(0.05 0 0 0.05 -83 -271)" d="M 6074.84,8536.23 L 5971.98,8536.23 L 5974.98,8510.23 L 6071.84,8510.23 L 6074.84,8536.23 Z " />
<path stroke="none" fill="#5e5e5e" transform="matrix(0.05 0 0 0.05 -83 -271)" d="M 6065.98,8459.45 L 5980.84,8459.45 L 5983.84,8433.45 L 6062.98,8433.45 L 6065.98,8459.45 Z " />
<path stroke="none" fill="#5e5e5e" transform="matrix(0.05 0 0 0.05 -83 -271)" d="M 6057.12,8382.67 L 5989.7,8382.67 L 5992.7,8356.67 L 6054.13,8356.67 L 6057.12,8382.67 Z " />
<path stroke="none" fill="#5e5e5e" transform="matrix(0.05 0 0 0.05 -83 -271)" d="M 6048.27,8305.88 L 5998.55,8305.88 L 6001.55,8279.88 L 6045.27,8279.88 L 6048.27,8305.88 Z " />
<path stroke="none" fill="#5e5e5e" transform="matrix(0.05 0 0 0.05 -83 -271)" d="M 6039.41,8229.1 L 6007.41,8229.1 L 6010.41,8203.1 L 6036.41,8203.1 L 6039.41,8229.1 Z " />
<text x="0" y="0" stroke="none" fill="#5e5e5e" transform="matrix(0.05 0 0 0.05 244.047 11.5844)" font-style="normal" font-weight="normal" font-size="260px" font-family="Helvetica" >
H</text>
<path stroke="none" fill="#5e5e5e" transform="matrix(0.05 0 0 0.05 -83 -271)" d="M 6536.95,5703.19 L 6692.95,5703.19 L 6630.31,6315.33 L 6614.95,6338.44 L 6601.95,6338.44 L 6536.95,5703.19 Z " />
<text x="0" y="0" stroke="none" fill="#5e5e5e" transform="matrix(0.05 0 0 0.05 272.832 63.1933)" font-style="normal" font-weight="normal" font-size="260px" font-family="Helvetica" >
H</text>
<path stroke="none" fill="#5e5e5e" transform="matrix(0.05 0 0 0.05 -83 -271)" d="M 7048.02,6675.58 L 7063.03,6696.81 L 6640.18,6995.89 L 6614.95,6997.81 L 6627.95,6972.69 L 7048.02,6675.58 Z " />
<path stroke="none" fill="#5e5e5e" transform="matrix(0.05 0 0 0.05 -83 -271)" d="M 7240.05,7324.89 L 7266.05,7308.82 L 7266.05,8138.03 L 7240.05,8112.2 L 7240.05,7324.89 Z " />
<path stroke="none" fill="#5e5e5e" transform="matrix(0.05 0 0 0.05 -83 -271)" d="M 7240.05,8112.2 L 7266.05,8138.03 L 6026.93,8145.81 L 6023.41,8132.83 L 6036.41,8119.75 L 7240.05,8112.2 Z " />
<path stroke="none" fill="#5e5e5e" transform="matrix(0.05 0 0 0.05 -83 -271)" d="M 7266.05,7308.82 L 7240.05,7324.89 L 6615.52,7012.63 L 6614.95,6997.81 L 6640.18,6995.89 L 7266.05,7308.82 Z " />
<path stroke="none" fill="#5e5e5e" transform="matrix(0.05 0 0 0.05 -83 -271)" d="M 6036.41,7360.19 L 6023.41,7352.83 L 6038.42,7328.66 L 6601.95,6990.45 L 6614.95,6997.81 L 6615.52,7012.63 L 6036.41,7360.19 Z " />
</svg>
