<?xml version="1.0" standalone="no" ?>
<!DOCTYPE svg PUBLIC "-//W3C//DTD SVG 1.1//EN" "http://www.w3.org/Graphics/SVG/1.1/DTD/svg11.dtd">
<svg width="616px" height="443px" viewBox="0 0 616 443" style="background-color: #ffffff00" xmlns="http://www.w3.org/2000/svg" xmlns:xlink="http://www.w3.org/1999/xlink" version="1.1" >
<text x="0" y="0" stroke="none" fill="#5f5f5f" transform="matrix(0.05 0 0 0.05 0.39229 439.703)" font-style="normal" font-weight="normal" font-size="393.4px" font-family="Helvetica" >
HO</text>
<text x="0" y="0" stroke="none" fill="#5f5f5f" transform="matrix(0.05 0 0 0.05 221.838 380.693)" font-style="normal" font-weight="normal" font-size="393.4px" font-family="Helvetica" >
H</text>
<text x="0" y="0" stroke="none" fill="#5f5f5f" transform="matrix(0.05 0 0 0.05 272.942 292.178)" font-style="normal" font-weight="normal" font-size="393.4px" font-family="Helvetica" >
H</text>
<text x="0" y="0" stroke="none" fill="#5f5f5f" transform="matrix(0.05 0 0 0.05 324.046 380.693)" font-style="normal" font-weight="normal" font-size="393.4px" font-family="Helvetica" >
H</text>
<path stroke="none" fill="#5f5f5f" transform="matrix(0.05 0 0 0.05 -232 -139)" d="M 6102.82,9651.32 L 6142.16,9674.03 L 6142.16,10831.5 L 6122.49,10842.9 L 6102.82,10830.2 L 6102.82,9651.32 Z " />
<path stroke="none" fill="#5f5f5f" transform="matrix(0.05 0 0 0.05 -232 -139)" d="M 7144.58,9049.86 L 7144.58,9095.29 L 6142.16,9674.03 L 6102.82,9651.32 L 7144.58,9049.86 Z " />
<path stroke="none" fill="#5f5f5f" transform="matrix(0.05 0 0 0.05 -232 -139)" d="M 7144.58,11410.3 L 7144.58,11455.7 L 6123.59,10866.2 L 6122.49,10842.9 L 6142.16,10831.5 L 7144.58,11410.3 Z " />
<path stroke="none" fill="#5f5f5f" transform="matrix(0.05 0 0 0.05 -232 -139)" d="M 8146.99,10831.5 L 8166.66,10842.9 L 8166.66,10865.6 L 7144.58,11455.7 L 7144.58,11410.3 L 8146.99,10831.5 Z " />
<path stroke="none" fill="#5f5f5f" transform="matrix(0.05 0 0 0.05 -232 -139)" d="M 9188.74,11410.3 L 9188.74,11455.7 L 8166.66,10865.6 L 8166.66,10842.9 L 8186.33,10831.5 L 9188.74,11410.3 Z " />
<path stroke="none" fill="#5f5f5f" transform="matrix(0.05 0 0 0.05 -232 -139)" d="M 9198.58,11252.4 L 9178.91,11286.5 L 8298.45,10778.1 L 8318.12,10744.1 L 9198.58,11252.4 Z " />
<path stroke="none" fill="#5f5f5f" transform="matrix(0.05 0 0 0.05 -232 -139)" d="M 10191.2,10831.5 L 10230.5,10854.2 L 9188.74,11455.7 L 9188.74,11410.3 L 10191.2,10831.5 Z " />
<path stroke="none" fill="#5f5f5f" transform="matrix(0.05 0 0 0.05 -232 -139)" d="M 10191.2,9674.03 L 10210.8,9662.67 L 10230.5,9674.03 L 10230.5,10854.2 L 10191.2,10831.5 L 10191.2,9674.03 Z " />
<path stroke="none" fill="#5f5f5f" transform="matrix(0.05 0 0 0.05 -232 -139)" d="M 11213.2,9061.22 L 11232.9,9072.57 L 11235.2,9093.99 L 10230.5,9674.03 L 10210.8,9662.67 L 10234.2,9626.46 L 11213.2,9061.22 Z " />
<path stroke="none" fill="#5f5f5f" transform="matrix(0.05 0 0 0.05 -232 -139)" d="M 12347.8,9414.15 L 12362.9,9460.4 L 11235.2,9093.99 L 11232.9,9072.57 L 11252.6,9058.28 L 12347.8,9414.15 Z " />
<path stroke="none" fill="#5f5f5f" transform="matrix(0.05 0 0 0.05 -232 -139)" d="M 12963,8567.42 L 13133.3,8400.03 L 12362.9,9460.4 L 12347.8,9414.15 L 12963,8567.42 Z " />
<path stroke="none" fill="#5f5f5f" transform="matrix(0.05 0 0 0.05 -232 -139)" d="M 13133.3,8400.03 L 12963,8567.42 L 12346.7,7551.17 L 12355.3,7527.67 L 12377.5,7523.29 L 13133.3,8400.03 Z " />
<path stroke="none" fill="#5f5f5f" transform="matrix(0.05 0 0 0.05 -232 -139)" d="M 12704.8,6388.36 L 12735.2,6422.11 L 12377.5,7523.29 L 12355.3,7527.67 L 12339.7,7512.06 L 12704.8,6388.36 Z " />
<path stroke="none" fill="#5f5f5f" transform="matrix(0.05 0 0 0.05 -232 -139)" d="M 13859.3,6142.98 L 13889.7,6176.74 L 12735.2,6422.11 L 12704.8,6388.36 L 13859.3,6142.98 Z " />
<path stroke="none" fill="#5f5f5f" transform="matrix(0.05 0 0 0.05 -232 -139)" d="M 14224,5020.54 L 14254.4,5054.3 L 13889.7,6176.74 L 13859.3,6142.98 L 14224,5020.54 Z " />
<path stroke="none" fill="#5f5f5f" transform="matrix(0.05 0 0 0.05 -232 -139)" d="M 15378.4,4775.17 L 15408.8,4808.92 L 14254.4,5054.3 L 14224,5020.54 L 15378.4,4775.17 Z " />
<path stroke="none" fill="#5f5f5f" transform="matrix(0.05 0 0 0.05 -232 -139)" d="M 15735.8,3674.99 L 15758.3,3669.61 L 15773.5,3686.49 L 15408.8,4808.92 L 15378.4,4775.17 L 15735.8,3674.99 Z " />
<path stroke="none" fill="#5f5f5f" transform="matrix(0.05 0 0 0.05 -232 -139)" d="M 14909.8,2848.99 L 14937.7,2821.17 L 15764.6,3648.15 L 15758.3,3669.61 L 15735.8,3674.99 L 14909.8,2848.99 Z " />
<path stroke="none" fill="#5f5f5f" transform="matrix(0.05 0 0 0.05 -232 -139)" d="M 16908.6,3404.99 L 16916.8,3443.47 L 15773.5,3686.49 L 15758.3,3669.61 L 15764.6,3648.15 L 16908.6,3404.99 Z " />
<path stroke="none" fill="#5f5f5f" transform="matrix(0.05 0 0 0.05 -232 -139)" d="M 11802.1,5654.16 L 11969,5487.26 L 11994.2,5517.62 L 11832.4,5679.43 L 11802.1,5654.16 Z " />
<path stroke="none" fill="#5f5f5f" transform="matrix(0.05 0 0 0.05 -232 -139)" d="M 11890.8,5728.01 L 12042.8,5575.99 L 12068.1,5606.35 L 11921.2,5753.28 L 11890.8,5728.01 Z " />
<path stroke="none" fill="#5f5f5f" transform="matrix(0.05 0 0 0.05 -232 -139)" d="M 11979.5,5801.85 L 12116.7,5664.72 L 12141.9,5695.09 L 12009.9,5827.12 L 11979.5,5801.85 Z " />
<path stroke="none" fill="#5f5f5f" transform="matrix(0.05 0 0 0.05 -232 -139)" d="M 12068.3,5875.7 L 12190.5,5753.46 L 12215.8,5783.82 L 12098.6,5900.97 L 12068.3,5875.7 Z " />
<path stroke="none" fill="#5f5f5f" transform="matrix(0.05 0 0 0.05 -232 -139)" d="M 12157,5949.55 L 12264.4,5842.19 L 12289.6,5872.56 L 12187.4,5974.82 L 12157,5949.55 Z " />
<path stroke="none" fill="#5f5f5f" transform="matrix(0.05 0 0 0.05 -232 -139)" d="M 12245.7,6023.39 L 12338.2,5930.93 L 12363.5,5961.29 L 12276.1,6048.66 L 12245.7,6023.39 Z " />
<path stroke="none" fill="#5f5f5f" transform="matrix(0.05 0 0 0.05 -232 -139)" d="M 12334.5,6097.24 L 12412,6019.66 L 12437.3,6050.03 L 12364.8,6122.51 L 12334.5,6097.24 Z " />
<path stroke="none" fill="#5f5f5f" transform="matrix(0.05 0 0 0.05 -232 -139)" d="M 12423.2,6171.08 L 12485.9,6108.4 L 12511.2,6138.76 L 12453.6,6196.35 L 12423.2,6171.08 Z " />
<path stroke="none" fill="#5f5f5f" transform="matrix(0.05 0 0 0.05 -232 -139)" d="M 12511.9,6244.93 L 12559.7,6197.13 L 12585,6227.49 L 12542.3,6270.2 L 12511.9,6244.93 Z " />
<path stroke="none" fill="#5f5f5f" transform="matrix(0.05 0 0 0.05 -232 -139)" d="M 12600.7,6318.78 L 12633.6,6285.86 L 12658.9,6316.23 L 12631,6344.05 L 12600.7,6318.78 Z " />
<path stroke="none" fill="#5f5f5f" transform="matrix(0.05 0 0 0.05 -232 -139)" d="M 11252.6,7906.67 L 11232.9,7892.37 L 11254.9,7864.55 L 12339.7,7512.06 L 12355.3,7527.67 L 12346.7,7551.17 L 11252.6,7906.67 Z " />
<path stroke="none" fill="#5f5f5f" transform="matrix(0.05 0 0 0.05 -232 -139)" d="M 11213.2,7903.73 L 11232.9,7892.37 L 11252.6,7906.67 L 11252.6,9058.28 L 11232.9,9072.57 L 11213.2,9061.22 L 11213.2,7903.73 Z " />
<path stroke="none" fill="#5f5f5f" transform="matrix(0.05 0 0 0.05 -232 -139)" d="M 11114.9,6712.17 L 11350.9,6712.17 L 11254.9,7864.55 L 11232.9,7892.37 L 11210.3,7856.58 L 11114.9,6712.17 Z " />
<path stroke="none" fill="#5f5f5f" transform="matrix(0.05 0 0 0.05 -232 -139)" d="M 10210.8,7324.99 L 10210.8,7279.56 L 11210.3,7856.58 L 11232.9,7892.37 L 11213.2,7903.73 L 10210.8,7324.99 Z " />
<path stroke="none" fill="#5f5f5f" transform="matrix(0.05 0 0 0.05 -232 -139)" d="M 9208.41,7903.73 L 9169.07,7881.02 L 10210.8,7279.56 L 10210.8,7324.99 L 9208.41,7903.73 Z " />
<path stroke="none" fill="#5f5f5f" transform="matrix(0.05 0 0 0.05 -232 -139)" d="M 9208.41,9061.22 L 9188.74,9072.57 L 9169.07,9061.22 L 9169.07,7881.02 L 9208.41,7903.73 L 9208.41,9061.22 Z " />
<path stroke="none" fill="#5f5f5f" transform="matrix(0.05 0 0 0.05 -232 -139)" d="M 9188.74,9095.29 L 9188.74,9072.57 L 9208.41,9061.22 L 10187.4,9626.46 L 10210.8,9662.67 L 10191.2,9674.03 L 9188.74,9095.29 Z " />
<path stroke="none" fill="#5f5f5f" transform="matrix(0.05 0 0 0.05 -232 -139)" d="M 8186.33,9674.03 L 8166.66,9662.67 L 8189.31,9626.88 L 9169.07,9061.22 L 9188.74,9072.57 L 9188.74,9095.29 L 8186.33,9674.03 Z " />
<path stroke="none" fill="#5f5f5f" transform="matrix(0.05 0 0 0.05 -232 -139)" d="M 8144.01,9626.88 L 8166.66,9662.67 L 8146.99,9674.03 L 7144.58,9095.29 L 7144.58,9049.86 L 8144.01,9626.88 Z " />
<path stroke="none" fill="#5f5f5f" transform="matrix(0.05 0 0 0.05 -232 -139)" d="M 8146.99,9674.03 L 8166.66,9662.67 L 8186.33,9674.03 L 8186.33,10831.5 L 8166.66,10842.9 L 8146.99,10831.5 L 8146.99,9674.03 Z " />
<path stroke="none" fill="#5f5f5f" transform="matrix(0.05 0 0 0.05 -232 -139)" d="M 8048.64,8482.47 L 8284.68,8482.47 L 8189.31,9626.88 L 8166.66,9662.67 L 8144.01,9626.88 L 8048.64,8482.47 Z " />
<path stroke="none" fill="#5f5f5f" transform="matrix(0.05 0 0 0.05 -232 -139)" d="M 5352.94,11423.5 L 5234.92,11219 L 6102.82,10830.2 L 6122.49,10842.9 L 6123.59,10866.2 L 5352.94,11423.5 Z " />
<path stroke="none" fill="#5f5f5f" transform="matrix(0.05 0 0 0.05 -232 -139)" d="M 9306.76,10033 L 9070.72,10033 L 9075.25,9993.66 L 9302.23,9993.66 L 9306.76,10033 Z " />
<path stroke="none" fill="#5f5f5f" transform="matrix(0.05 0 0 0.05 -232 -139)" d="M 9293.36,9916.6 L 9084.13,9916.6 L 9088.65,9877.26 L 9288.83,9877.26 L 9293.36,9916.6 Z " />
<path stroke="none" fill="#5f5f5f" transform="matrix(0.05 0 0 0.05 -232 -139)" d="M 9279.96,9800.19 L 9097.53,9800.19 L 9102.06,9760.85 L 9275.43,9760.85 L 9279.96,9800.19 Z " />
<path stroke="none" fill="#5f5f5f" transform="matrix(0.05 0 0 0.05 -232 -139)" d="M 9266.55,9683.78 L 9110.93,9683.78 L 9115.46,9644.44 L 9262.02,9644.44 L 9266.55,9683.78 Z " />
<path stroke="none" fill="#5f5f5f" transform="matrix(0.05 0 0 0.05 -232 -139)" d="M 9253.15,9567.37 L 9124.33,9567.37 L 9128.86,9528.03 L 9248.62,9528.03 L 9253.15,9567.37 Z " />
<path stroke="none" fill="#5f5f5f" transform="matrix(0.05 0 0 0.05 -232 -139)" d="M 9239.75,9450.97 L 9137.74,9450.97 L 9142.27,9411.63 L 9235.22,9411.63 L 9239.75,9450.97 Z " />
<path stroke="none" fill="#5f5f5f" transform="matrix(0.05 0 0 0.05 -232 -139)" d="M 9226.34,9334.56 L 9151.14,9334.56 L 9155.67,9295.22 L 9221.82,9295.22 L 9226.34,9334.56 Z " />
<path stroke="none" fill="#5f5f5f" transform="matrix(0.05 0 0 0.05 -232 -139)" d="M 9212.94,9218.15 L 9164.54,9218.15 L 9169.07,9178.81 L 9208.41,9178.81 L 9212.94,9218.15 Z " />
<path stroke="none" fill="#5f5f5f" transform="matrix(0.05 0 0 0.05 -232 -139)" d="M 10092.8,8702.06 L 10328.8,8702.06 L 10234.2,9626.46 L 10210.8,9662.67 L 10187.4,9626.46 L 10092.8,8702.06 Z " />
<path stroke="none" fill="#5f5f5f" transform="matrix(0.05 0 0 0.05 -232 -139)" d="M 11350.9,10033 L 11114.9,10033 L 11119.4,9993.66 L 11346.4,9993.66 L 11350.9,10033 Z " />
<path stroke="none" fill="#5f5f5f" transform="matrix(0.05 0 0 0.05 -232 -139)" d="M 11337.5,9916.6 L 11128.3,9916.6 L 11132.8,9877.26 L 11333,9877.26 L 11337.5,9916.6 Z " />
<path stroke="none" fill="#5f5f5f" transform="matrix(0.05 0 0 0.05 -232 -139)" d="M 11324.1,9800.19 L 11141.7,9800.19 L 11146.2,9760.85 L 11319.6,9760.85 L 11324.1,9800.19 Z " />
<path stroke="none" fill="#5f5f5f" transform="matrix(0.05 0 0 0.05 -232 -139)" d="M 11310.7,9683.78 L 11155.1,9683.78 L 11159.6,9644.44 L 11306.2,9644.44 L 11310.7,9683.78 Z " />
<path stroke="none" fill="#5f5f5f" transform="matrix(0.05 0 0 0.05 -232 -139)" d="M 11297.3,9567.37 L 11168.5,9567.37 L 11173,9528.03 L 11292.8,9528.03 L 11297.3,9567.37 Z " />
<path stroke="none" fill="#5f5f5f" transform="matrix(0.05 0 0 0.05 -232 -139)" d="M 11283.9,9450.97 L 11181.9,9450.97 L 11186.4,9411.63 L 11279.4,9411.63 L 11283.9,9450.97 Z " />
<path stroke="none" fill="#5f5f5f" transform="matrix(0.05 0 0 0.05 -232 -139)" d="M 11270.5,9334.56 L 11195.3,9334.56 L 11199.8,9295.22 L 11266,9295.22 L 11270.5,9334.56 Z " />
<path stroke="none" fill="#5f5f5f" transform="matrix(0.05 0 0 0.05 -232 -139)" d="M 11257.1,9218.15 L 11208.7,9218.15 L 11213.2,9178.81 L 11252.6,9178.81 L 11257.1,9218.15 Z " />
</svg>
