<?xml version="1.0" standalone="no" ?>
<!DOCTYPE svg PUBLIC "-//W3C//DTD SVG 1.1//EN" "http://www.w3.org/Graphics/SVG/1.1/DTD/svg11.dtd">
<svg width="954px" height="108px" viewBox="0 0 954 108" style="background-color: #ffffff00" xmlns="http://www.w3.org/2000/svg" xmlns:xlink="http://www.w3.org/1999/xlink" version="1.1" >
<text x="0" y="0" stroke="none" fill="#606060" transform="matrix(0.05 0 0 0.05 872.917 16.815)" font-style="normal" font-weight="normal" font-size="393.4px" font-family="Helvetica" >
O</text>
<text x="0" y="0" stroke="none" fill="#606060" transform="matrix(0.05 0 0 0.05 924.021 105.33)" font-style="normal" font-weight="normal" font-size="393.4px" font-family="Helvetica" >
OH</text>
<path stroke="none" fill="#606060" transform="matrix(0.05 0 0 0.05 -66 -265)" d="M 17893.8,7288.22 L 17893.8,7242.8 L 18915.9,6652.7 L 18915.9,6698.12 L 17893.8,7288.22 Z " />
<path stroke="none" fill="#606060" transform="matrix(0.05 0 0 0.05 -66 -265)" d="M 16871.7,6698.12 L 16871.7,6652.7 L 17893.8,7242.8 L 17893.8,7288.22 L 16871.7,6698.12 Z " />
<path stroke="none" fill="#606060" transform="matrix(0.05 0 0 0.05 -66 -265)" d="M 15849.6,7288.22 L 15849.6,7242.8 L 16871.7,6652.7 L 16871.7,6698.12 L 15849.6,7288.22 Z " />
<path stroke="none" fill="#606060" transform="matrix(0.05 0 0 0.05 -66 -265)" d="M 14827.5,6698.12 L 14827.5,6652.7 L 15849.6,7242.8 L 15849.6,7288.22 L 14827.5,6698.12 Z " />
<path stroke="none" fill="#606060" transform="matrix(0.05 0 0 0.05 -66 -265)" d="M 13805.5,7288.22 L 13805.5,7242.8 L 14827.5,6652.7 L 14827.5,6698.12 L 13805.5,7288.22 Z " />
<path stroke="none" fill="#606060" transform="matrix(0.05 0 0 0.05 -66 -265)" d="M 12783.4,6698.12 L 12783.4,6652.7 L 13805.5,7242.8 L 13805.5,7288.22 L 12783.4,6698.12 Z " />
<path stroke="none" fill="#606060" transform="matrix(0.05 0 0 0.05 -66 -265)" d="M 11761.3,7288.22 L 11761.3,7242.8 L 12783.4,6652.7 L 12783.4,6698.12 L 11761.3,7288.22 Z " />
<path stroke="none" fill="#606060" transform="matrix(0.05 0 0 0.05 -66 -265)" d="M 10733.9,6695.08 L 10744.5,6655.74 L 11761.3,7242.8 L 11761.3,7288.22 L 10733.9,6695.08 Z " />
<path stroke="none" fill="#606060" transform="matrix(0.05 0 0 0.05 -66 -265)" d="M 9564.28,6695.08 L 9553.74,6655.74 L 10744.5,6655.74 L 10733.9,6695.08 L 9564.28,6695.08 Z " />
<path stroke="none" fill="#606060" transform="matrix(0.05 0 0 0.05 -66 -265)" d="M 9596.96,6836.7 L 9596.96,6797.36 L 10701.3,6797.36 L 10701.3,6836.7 L 9596.96,6836.7 Z " />
<path stroke="none" fill="#606060" transform="matrix(0.05 0 0 0.05 -66 -265)" d="M 8536.92,7288.22 L 8536.92,7242.8 L 9553.74,6655.74 L 9564.28,6695.08 L 8536.92,7288.22 Z " />
<path stroke="none" fill="#606060" transform="matrix(0.05 0 0 0.05 -66 -265)" d="M 7514.84,6698.12 L 7514.84,6652.7 L 8536.92,7242.8 L 8536.92,7288.22 L 7514.84,6698.12 Z " />
<path stroke="none" fill="#606060" transform="matrix(0.05 0 0 0.05 -66 -265)" d="M 6492.76,7288.22 L 6492.76,7242.8 L 7514.84,6652.7 L 7514.84,6698.12 L 6492.76,7288.22 Z " />
<path stroke="none" fill="#606060" transform="matrix(0.05 0 0 0.05 -66 -265)" d="M 5470.67,6698.12 L 5470.67,6652.7 L 6492.76,7242.8 L 6492.76,7288.22 L 5470.67,6698.12 Z " />
<path stroke="none" fill="#606060" transform="matrix(0.05 0 0 0.05 -66 -265)" d="M 4448.59,7288.22 L 4448.59,7242.8 L 5470.67,6652.7 L 5470.67,6698.12 L 4448.59,7288.22 Z " />
<path stroke="none" fill="#606060" transform="matrix(0.05 0 0 0.05 -66 -265)" d="M 3426.51,6698.12 L 3426.51,6652.7 L 4448.59,7242.8 L 4448.59,7288.22 L 3426.51,6698.12 Z " />
<path stroke="none" fill="#606060" transform="matrix(0.05 0 0 0.05 -66 -265)" d="M 2404.42,7288.22 L 2404.42,7242.8 L 3426.51,6652.7 L 3426.51,6698.12 L 2404.42,7288.22 Z " />
<path stroke="none" fill="#606060" transform="matrix(0.05 0 0 0.05 -66 -265)" d="M 1372.51,6692.45 L 1392.18,6658.38 L 2404.42,7242.8 L 2404.42,7288.22 L 1372.51,6692.45 Z " />
<path stroke="none" fill="#606060" transform="matrix(0.05 0 0 0.05 -66 -265)" d="M 18825.4,5726.96 L 18864.7,5726.96 L 18864.7,6716.29 L 18825.4,6716.29 L 18825.4,5726.96 Z " />
<path stroke="none" fill="#606060" transform="matrix(0.05 0 0 0.05 -66 -265)" d="M 18967,5726.96 L 19006.4,5726.96 L 19006.4,6716.29 L 18967,6716.29 L 18967,5726.96 Z " />
<path stroke="none" fill="#606060" transform="matrix(0.05 0 0 0.05 -66 -265)" d="M 19755.2,7137.28 L 19735.5,7171.35 L 18915.9,6698.12 L 18915.9,6652.7 L 19755.2,7137.28 Z " />
</svg>
