<?xml version="1.0" standalone="no" ?>
<!DOCTYPE svg PUBLIC "-//W3C//DTD SVG 1.1//EN" "http://www.w3.org/Graphics/SVG/1.1/DTD/svg11.dtd">
<svg width="732px" height="134px" viewBox="0 0 732 134" style="background-color: #ffffff00" xmlns="http://www.w3.org/2000/svg" xmlns:xlink="http://www.w3.org/1999/xlink" version="1.1" >
<text x="0" y="0" stroke="none" fill="#5f5f5f" transform="matrix(0.05 0 0 0.05 596.406 45.0976)" font-style="normal" font-weight="normal" font-size="200px" font-family="Helvetica" >
P</text>
<text x="0" y="0" stroke="none" fill="#5f5f5f" transform="matrix(0.05 0 0 0.05 595.402 15.0982)" font-style="normal" font-weight="normal" font-size="200px" font-family="Helvetica" >
O</text>
<text x="0" y="0" stroke="none" fill="#5f5f5f" transform="matrix(0.05 0 0 0.05 621.661 59.9362)" font-style="normal" font-weight="normal" font-size="200px" font-family="Helvetica" >
O</text>
<text x="0" y="0" stroke="none" fill="#5f5f5f" transform="matrix(0.05 0 0 0.05 569.701 60.2585)" font-style="normal" font-weight="normal" font-size="200px" font-family="Helvetica" >
O</text>
<text x="0" y="0" stroke="none" fill="#5f5f5f" transform="matrix(0.05 0 0 0.05 579.816 74.0754)" font-style="normal" font-weight="normal" font-size="200px" font-family="Helvetica" >
HO</text>
<text x="0" y="0" stroke="none" fill="#5f5f5f" transform="matrix(0.05 0 0 0.05 700.159 44.4531)" font-style="normal" font-weight="normal" font-size="200px" font-family="Helvetica" >
N</text>
<text x="0" y="0" stroke="none" fill="#5f5f5f" transform="matrix(0.05 0 0 0.05 707.38 40.8667)" font-style="normal" font-weight="normal" font-size="150px" font-family="Helvetica" >
+</text>
<path stroke="none" fill="#5f5f5f" transform="matrix(0.05 0 0 0.05 -78 -319)" d="M 13492.7,6728.84 L 13512.7,6728.71 L 13515,7097.66 L 13495,7097.78 L 13492.7,6728.84 Z " />
<path stroke="none" fill="#5f5f5f" transform="matrix(0.05 0 0 0.05 -78 -319)" d="M 13564.7,6728.39 L 13584.7,6728.27 L 13587,7097.21 L 13567,7097.34 L 13564.7,6728.39 Z " />
<path stroke="none" fill="#5f5f5f" transform="matrix(0.05 0 0 0.05 -78 -319)" d="M 13970.3,7442.66 L 13960.4,7460.04 L 13606.7,7258.72 L 13616.6,7241.33 L 13970.3,7442.66 Z " />
<path stroke="none" fill="#5f5f5f" transform="matrix(0.05 0 0 0.05 -78 -319)" d="M 13127.8,7464.19 L 13117.7,7446.93 L 13432.6,7262.52 L 13442.7,7279.78 L 13127.8,7464.19 Z " />
<path stroke="none" fill="#5f5f5f" transform="matrix(0.05 0 0 0.05 -78 -319)" d="M 13426.1,7680.04 L 13406.8,7674.87 L 13500.4,7325.67 L 13519.7,7330.85 L 13426.1,7680.04 Z " />
<path stroke="none" fill="#5f5f5f" transform="matrix(0.05 0 0 0.05 -78 -319)" d="M 15102.3,7489 L 15102.4,7512.1 L 14581,7215.33 L 14580.8,7192.23 L 15102.3,7489 Z " />
<path stroke="none" fill="#5f5f5f" transform="matrix(0.05 0 0 0.05 -78 -319)" d="M 15630.1,7797.33 L 15610.1,7797.33 L 15610.1,7310.28 L 15630.1,7310.28 L 15630.1,7797.33 Z " />
<path stroke="none" fill="#5f5f5f" transform="matrix(0.05 0 0 0.05 -78 -319)" d="M 16132.8,6885.49 L 16142.9,6902.75 L 15793.4,7107.41 L 15783.3,7090.15 L 16132.8,6885.49 Z " />
<path stroke="none" fill="#5f5f5f" transform="matrix(0.05 0 0 0.05 -78 -319)" d="M 16146.5,7485.41 L 16136.6,7502.8 L 15723.6,7267.74 L 15733.5,7250.35 L 16146.5,7485.41 Z " />
<path stroke="none" fill="#5f5f5f" transform="matrix(0.05 0 0 0.05 -78 -319)" d="M 15504.8,7253.27 L 15514.9,7270.53 L 15102.4,7512.1 L 15102.3,7489 L 15504.8,7253.27 Z " />
<path stroke="none" fill="#5f5f5f" transform="matrix(0.05 0 0 0.05 -78 -319)" d="M 14580.8,7192.23 L 14581,7215.33 L 14167,7457.75 L 14156.9,7440.49 L 14580.8,7192.23 Z " />
<path stroke="none" fill="#5f5f5f" transform="matrix(0.05 0 0 0.05 -78 -319)" d="M 11969.8,7388.59 L 11953.5,7383.09 L 11954.8,7372.25 L 12503.7,7205.85 L 12501.3,7227.49 L 11969.8,7388.59 Z " />
<path stroke="none" fill="#5f5f5f" transform="matrix(0.05 0 0 0.05 -78 -319)" d="M 12501.3,7227.49 L 12503.7,7205.85 L 12931.1,7449.11 L 12921.2,7466.49 L 12501.3,7227.49 Z " />
<text x="0" y="0" stroke="none" fill="#5f5f5f" transform="matrix(0.05 0 0 0.05 477.047 130.815)" font-style="normal" font-weight="normal" font-size="200px" font-family="Helvetica" >
O</text>
<path stroke="none" fill="#5f5f5f" transform="matrix(0.05 0 0 0.05 -78 -319)" d="M 10651.2,8036.11 L 10651.2,8013.02 L 11169.9,8312.45 L 11171.8,8336.68 L 10651.2,8036.11 Z " />
<path stroke="none" fill="#5f5f5f" transform="matrix(0.05 0 0 0.05 -78 -319)" d="M 10131.6,8336.11 L 10131.6,8313.02 L 10651.2,8013.02 L 10651.2,8036.11 L 10131.6,8336.11 Z " />
<path stroke="none" fill="#5f5f5f" transform="matrix(0.05 0 0 0.05 -78 -319)" d="M 9612.01,8036.11 L 9612.01,8013.02 L 10131.6,8313.02 L 10131.6,8336.11 L 9612.01,8036.11 Z " />
<path stroke="none" fill="#5f5f5f" transform="matrix(0.05 0 0 0.05 -78 -319)" d="M 9092.39,8336.11 L 9092.39,8313.02 L 9612.01,8013.02 L 9612.01,8036.11 L 9092.39,8336.11 Z " />
<path stroke="none" fill="#5f5f5f" transform="matrix(0.05 0 0 0.05 -78 -319)" d="M 8572.78,8036.11 L 8572.78,8013.02 L 9092.39,8313.02 L 9092.39,8336.11 L 8572.78,8036.11 Z " />
<path stroke="none" fill="#5f5f5f" transform="matrix(0.05 0 0 0.05 -78 -319)" d="M 8053.16,8336.11 L 8053.16,8313.02 L 8572.78,8013.02 L 8572.78,8036.11 L 8053.16,8336.11 Z " />
<path stroke="none" fill="#5f5f5f" transform="matrix(0.05 0 0 0.05 -78 -319)" d="M 7533.55,8036.11 L 7533.55,8013.02 L 8053.16,8313.02 L 8053.16,8336.11 L 7533.55,8036.11 Z " />
<path stroke="none" fill="#5f5f5f" transform="matrix(0.05 0 0 0.05 -78 -319)" d="M 7013.93,8336.11 L 7013.93,8313.02 L 7533.55,8013.02 L 7533.55,8036.11 L 7013.93,8336.11 Z " />
<path stroke="none" fill="#5f5f5f" transform="matrix(0.05 0 0 0.05 -78 -319)" d="M 6494.32,8036.11 L 6494.32,8013.02 L 7013.93,8313.02 L 7013.93,8336.11 L 6494.32,8036.11 Z " />
<path stroke="none" fill="#5f5f5f" transform="matrix(0.05 0 0 0.05 -78 -319)" d="M 5974.7,8336.11 L 5974.7,8313.02 L 6494.32,8013.02 L 6494.32,8036.11 L 5974.7,8336.11 Z " />
<path stroke="none" fill="#5f5f5f" transform="matrix(0.05 0 0 0.05 -78 -319)" d="M 5455.09,8036.11 L 5455.09,8013.02 L 5974.7,8313.02 L 5974.7,8336.11 L 5455.09,8036.11 Z " />
<path stroke="none" fill="#5f5f5f" transform="matrix(0.05 0 0 0.05 -78 -319)" d="M 4935.47,8336.11 L 4935.47,8313.02 L 5455.09,8013.02 L 5455.09,8036.11 L 4935.47,8336.11 Z " />
<path stroke="none" fill="#5f5f5f" transform="matrix(0.05 0 0 0.05 -78 -319)" d="M 4415.86,8036.11 L 4415.86,8013.02 L 4935.47,8313.02 L 4935.47,8336.11 L 4415.86,8036.11 Z " />
<path stroke="none" fill="#5f5f5f" transform="matrix(0.05 0 0 0.05 -78 -319)" d="M 3896.24,8336.11 L 3896.24,8313.02 L 4415.86,8013.02 L 4415.86,8036.11 L 3896.24,8336.11 Z " />
<path stroke="none" fill="#5f5f5f" transform="matrix(0.05 0 0 0.05 -78 -319)" d="M 3371.63,8033.22 L 3381.63,8015.9 L 3896.24,8313.02 L 3896.24,8336.11 L 3371.63,8033.22 Z " />
<path stroke="none" fill="#5f5f5f" transform="matrix(0.05 0 0 0.05 -78 -319)" d="M 11216.9,8810.88 L 11196.9,8810.88 L 11196.9,8295.14 L 11216.9,8295.14 L 11216.9,8810.88 Z " />
<path stroke="none" fill="#5f5f5f" transform="matrix(0.05 0 0 0.05 -78 -319)" d="M 11144.9,8810.88 L 11124.9,8810.88 L 11124.9,8303.78 L 11144.9,8303.78 L 11144.9,8810.88 Z " />
<text x="0" y="0" stroke="none" fill="#5f5f5f" transform="matrix(0.05 0 0 0.05 466.98 55.2014)" font-style="normal" font-weight="normal" font-size="200px" font-family="Helvetica" >
O</text>
<text x="0" y="0" stroke="none" fill="#5f5f5f" transform="matrix(0.05 0 0 0.05 440.999 10.2014)" font-style="normal" font-weight="normal" font-size="200px" font-family="Helvetica" >
O</text>
<path stroke="none" fill="#5f5f5f" transform="matrix(0.05 0 0 0.05 -78 -319)" d="M 9930.29,7423.85 L 9930.29,7400.75 L 10449.9,7100.75 L 10449.9,7123.85 L 9930.29,7423.85 Z " />
<path stroke="none" fill="#5f5f5f" transform="matrix(0.05 0 0 0.05 -78 -319)" d="M 9410.67,7123.85 L 9410.67,7100.75 L 9930.29,7400.75 L 9930.29,7423.85 L 9410.67,7123.85 Z " />
<path stroke="none" fill="#5f5f5f" transform="matrix(0.05 0 0 0.05 -78 -319)" d="M 8891.06,7423.85 L 8891.06,7400.75 L 9410.67,7100.75 L 9410.67,7123.85 L 8891.06,7423.85 Z " />
<path stroke="none" fill="#5f5f5f" transform="matrix(0.05 0 0 0.05 -78 -319)" d="M 8371.44,7123.85 L 8371.44,7100.75 L 8891.06,7400.75 L 8891.06,7423.85 L 8371.44,7123.85 Z " />
<path stroke="none" fill="#5f5f5f" transform="matrix(0.05 0 0 0.05 -78 -319)" d="M 7851.83,7423.85 L 7851.83,7400.75 L 8371.44,7100.75 L 8371.44,7123.85 L 7851.83,7423.85 Z " />
<path stroke="none" fill="#5f5f5f" transform="matrix(0.05 0 0 0.05 -78 -319)" d="M 7332.21,7123.85 L 7332.21,7100.75 L 7851.83,7400.75 L 7851.83,7423.85 L 7332.21,7123.85 Z " />
<path stroke="none" fill="#5f5f5f" transform="matrix(0.05 0 0 0.05 -78 -319)" d="M 6812.6,7423.85 L 6812.6,7400.75 L 7332.21,7100.75 L 7332.21,7123.85 L 6812.6,7423.85 Z " />
<path stroke="none" fill="#5f5f5f" transform="matrix(0.05 0 0 0.05 -78 -319)" d="M 6292.98,7123.85 L 6292.98,7100.75 L 6812.6,7400.75 L 6812.6,7423.85 L 6292.98,7123.85 Z " />
<path stroke="none" fill="#5f5f5f" transform="matrix(0.05 0 0 0.05 -78 -319)" d="M 5773.37,7423.85 L 5773.37,7400.75 L 6292.98,7100.75 L 6292.98,7123.85 L 5773.37,7423.85 Z " />
<path stroke="none" fill="#5f5f5f" transform="matrix(0.05 0 0 0.05 -78 -319)" d="M 5253.75,7123.85 L 5253.75,7100.75 L 5773.37,7400.75 L 5773.37,7423.85 L 5253.75,7123.85 Z " />
<path stroke="none" fill="#5f5f5f" transform="matrix(0.05 0 0 0.05 -78 -319)" d="M 4734.13,7423.85 L 4734.13,7400.75 L 5253.75,7100.75 L 5253.75,7123.85 L 4734.13,7423.85 Z " />
<path stroke="none" fill="#5f5f5f" transform="matrix(0.05 0 0 0.05 -78 -319)" d="M 4214.52,7123.85 L 4214.52,7100.75 L 4734.13,7400.75 L 4734.13,7423.85 L 4214.52,7123.85 Z " />
<path stroke="none" fill="#5f5f5f" transform="matrix(0.05 0 0 0.05 -78 -319)" d="M 3694.9,7423.85 L 3694.9,7400.75 L 4214.52,7100.75 L 4214.52,7123.85 L 3694.9,7423.85 Z " />
<path stroke="none" fill="#5f5f5f" transform="matrix(0.05 0 0 0.05 -78 -319)" d="M 3175.29,7123.85 L 3175.29,7100.75 L 3694.9,7400.75 L 3694.9,7423.85 L 3175.29,7123.85 Z " />
<path stroke="none" fill="#5f5f5f" transform="matrix(0.05 0 0 0.05 -78 -319)" d="M 2655.67,7423.85 L 2655.67,7400.75 L 3175.29,7100.75 L 3175.29,7123.85 L 2655.67,7423.85 Z " />
<path stroke="none" fill="#5f5f5f" transform="matrix(0.05 0 0 0.05 -78 -319)" d="M 2136.06,7123.85 L 2136.06,7100.75 L 2655.67,7400.75 L 2655.67,7423.85 L 2136.06,7123.85 Z " />
<path stroke="none" fill="#5f5f5f" transform="matrix(0.05 0 0 0.05 -78 -319)" d="M 1621.44,7420.96 L 1611.44,7403.64 L 2136.06,7100.75 L 2136.06,7123.85 L 1621.44,7420.96 Z " />
<path stroke="none" fill="#5f5f5f" transform="matrix(0.05 0 0 0.05 -78 -319)" d="M 10403.9,6630.62 L 10423.9,6630.62 L 10423.9,7133.08 L 10403.9,7133.08 L 10403.9,6630.62 Z " />
<path stroke="none" fill="#5f5f5f" transform="matrix(0.05 0 0 0.05 -78 -319)" d="M 10475.9,6630.62 L 10495.9,6630.62 L 10495.9,7133.08 L 10475.9,7133.08 L 10475.9,6630.62 Z " />
<path stroke="none" fill="#5f5f5f" transform="matrix(0.05 0 0 0.05 -78 -319)" d="M 10449.9,7123.85 L 10449.9,7100.75 L 10877.1,7347.37 L 10867.1,7364.69 L 10449.9,7123.85 Z " />
<path stroke="none" fill="#5f5f5f" transform="matrix(0.05 0 0 0.05 -78 -319)" d="M 11073.6,7363.73 L 11063.6,7346.41 L 11489.2,7100.74 L 11489.1,7123.86 L 11073.6,7363.73 Z " />
<path stroke="none" fill="#5f5f5f" transform="matrix(0.05 0 0 0.05 -78 -319)" d="M 11954.8,7372.25 L 11953.5,7383.09 L 11945.8,7390.14 L 11489.1,7123.86 L 11489.2,7100.74 L 11954.8,7372.25 Z " />
<text x="0" y="0" stroke="none" fill="#5f5f5f" transform="matrix(0.05 0 0 0.05 503.216 79.4249)" font-style="normal" font-weight="normal" font-size="200px" font-family="Helvetica" >
O</text>
<path stroke="none" fill="#5f5f5f" transform="matrix(0.05 0 0 0.05 -78 -319)" d="M 11800.2,7820.06 L 11693.1,7765.99 L 11704.3,7749.24 L 11807,7801.09 L 11800.2,7820.06 Z " />
<path stroke="none" fill="#5f5f5f" transform="matrix(0.05 0 0 0.05 -78 -319)" d="M 11818.9,7767.88 L 11723.9,7719.92 L 11735.1,7703.18 L 11825.7,7748.91 L 11818.9,7767.88 Z " />
<path stroke="none" fill="#5f5f5f" transform="matrix(0.05 0 0 0.05 -78 -319)" d="M 11837.6,7715.69 L 11754.8,7673.86 L 11766,7657.12 L 11844.5,7696.72 L 11837.6,7715.69 Z " />
<path stroke="none" fill="#5f5f5f" transform="matrix(0.05 0 0 0.05 -78 -319)" d="M 11856.4,7663.51 L 11785.6,7627.79 L 11796.8,7611.05 L 11863.2,7644.54 L 11856.4,7663.51 Z " />
<path stroke="none" fill="#5f5f5f" transform="matrix(0.05 0 0 0.05 -78 -319)" d="M 11875.1,7611.32 L 11816.5,7581.73 L 11827.7,7564.99 L 11881.9,7592.36 L 11875.1,7611.32 Z " />
<path stroke="none" fill="#5f5f5f" transform="matrix(0.05 0 0 0.05 -78 -319)" d="M 11893.8,7559.14 L 11847.3,7535.67 L 11858.6,7518.92 L 11900.7,7540.17 L 11893.8,7559.14 Z " />
<path stroke="none" fill="#5f5f5f" transform="matrix(0.05 0 0 0.05 -78 -319)" d="M 11912.6,7506.96 L 11878.2,7489.6 L 11889.4,7472.86 L 11919.4,7487.99 L 11912.6,7506.96 Z " />
<path stroke="none" fill="#5f5f5f" transform="matrix(0.05 0 0 0.05 -78 -319)" d="M 11931.3,7454.77 L 11909.1,7443.54 L 11920.3,7426.79 L 11938.1,7435.81 L 11931.3,7454.77 Z " />
<path stroke="none" fill="#5f5f5f" transform="matrix(0.05 0 0 0.05 -78 -319)" d="M 11171.8,8336.68 L 11169.9,8312.45 L 11597.4,7963.03 L 11610,7978.52 L 11171.8,8336.68 Z " />
<text x="0" y="0" stroke="none" fill="#5f5f5f" transform="matrix(0.05 0 0 0.05 531.83 79.7215)" font-style="normal" font-weight="normal" font-size="200px" font-family="Helvetica" >
H</text>
<path stroke="none" fill="#5f5f5f" transform="matrix(0.05 0 0 0.05 -78 -319)" d="M 12239.6,7758.62 L 12135.7,7818.62 L 11945.8,7390.14 L 11953.5,7383.09 L 11969.8,7388.59 L 12239.6,7758.62 Z " />
</svg>
