<?xml version="1.0" standalone="no" ?>
<!DOCTYPE svg PUBLIC "-//W3C//DTD SVG 1.1//EN" "http://www.w3.org/Graphics/SVG/1.1/DTD/svg11.dtd">
<svg width="178px" height="138px" viewBox="0 0 178 138" style="background-color: #ffffff00" xmlns="http://www.w3.org/2000/svg" xmlns:xlink="http://www.w3.org/1999/xlink" version="1.1" >
<text x="0" y="0" stroke="none" fill="#000000" transform="matrix(0.05 0 0 0.05 90.768 75.848)" font-style="normal" font-weight="normal" font-size="393.4px" font-family="Helvetica" >
P</text>
<text x="0" y="0" stroke="none" fill="#000000" transform="matrix(0.05 0 0 0.05 89.1592 16.838)" font-style="normal" font-weight="normal" font-size="393.4px" font-family="Helvetica" >
O</text>
<text x="0" y="0" stroke="none" fill="#000000" transform="matrix(0.05 0 0 0.05 30.1492 75.848)" font-style="normal" font-weight="normal" font-size="393.4px" font-family="Helvetica" >
O</text>
<text x="0" y="0" stroke="none" fill="#000000" transform="matrix(0.05 0 0 0.05 89.1592 134.858)" font-style="normal" font-weight="normal" font-size="393.4px" font-family="Helvetica" >
OH</text>
<text x="0" y="0" stroke="none" fill="#000000" transform="matrix(0.05 0 0 0.05 148.169 75.848)" font-style="normal" font-weight="normal" font-size="393.4px" font-family="Helvetica" >
OH</text>
<path stroke="none" fill="#000000" transform="matrix(0.05 0 0 0.05 -174 -291)" d="M 5310.24,6248.42 L 5349.58,6248.42 L 5349.58,6976.1 L 5310.24,6976.1 L 5310.24,6248.42 Z " />
<path stroke="none" fill="#000000" transform="matrix(0.05 0 0 0.05 -174 -291)" d="M 5451.86,6248.42 L 5491.2,6248.42 L 5491.2,6976.1 L 5451.86,6976.1 L 5451.86,6248.42 Z " />
<path stroke="none" fill="#000000" transform="matrix(0.05 0 0 0.05 -174 -291)" d="M 4435.57,7215.54 L 4435.57,7176.2 L 5223.46,7176.2 L 5223.46,7215.54 L 4435.57,7215.54 Z " />
<path stroke="none" fill="#000000" transform="matrix(0.05 0 0 0.05 -174 -291)" d="M 5420.39,8151.46 L 5381.05,8151.46 L 5381.05,7415.46 L 5420.39,7415.46 L 5420.39,8151.46 Z " />
<path stroke="none" fill="#000000" transform="matrix(0.05 0 0 0.05 -174 -291)" d="M 6363.61,7176.2 L 6363.61,7215.54 L 5591.82,7215.54 L 5591.82,7176.2 L 6363.61,7176.2 Z " />
<text x="0" y="0" stroke="none" fill="#000000" transform="matrix(0.05 0 0 0.05 1.66228 126.952)" font-style="normal" font-weight="normal" font-size="393.4px" font-family="Helvetica" >
R</text>
<path stroke="none" fill="#000000" transform="matrix(0.05 0 0 0.05 -174 -291)" d="M 3763.51,8026.78 L 3729.44,8007.11 L 4086.14,7389.29 L 4120.2,7408.96 L 3763.51,8026.78 Z " />
</svg>
