<?xml version="1.0" standalone="no" ?>
<!DOCTYPE svg PUBLIC "-//W3C//DTD SVG 1.1//EN" "http://www.w3.org/Graphics/SVG/1.1/DTD/svg11.dtd">
<svg width="706px" height="456px" viewBox="0 0 706 456" style="background-color: #ffffff00" xmlns="http://www.w3.org/2000/svg" xmlns:xlink="http://www.w3.org/1999/xlink" version="1.1" >
<text x="0" y="0" stroke="none" fill="#5f5f5f" transform="matrix(0.05 0 0 0.05 129.478 426.87)" font-style="normal" font-weight="normal" font-size="200px" font-family="Helvetica" >
P</text>
<text x="0" y="0" stroke="none" fill="#5f5f5f" transform="matrix(0.05 0 0 0.05 102.679 441.871)" font-style="normal" font-weight="normal" font-size="200px" font-family="Helvetica" >
O</text>
<text x="0" y="0" stroke="none" fill="#5f5f5f" transform="matrix(0.05 0 0 0.05 232.585 366.869)" font-style="normal" font-weight="normal" font-size="200px" font-family="Helvetica" >
O</text>
<text x="0" y="0" stroke="none" fill="#5f5f5f" transform="matrix(0.05 0 0 0.05 232.585 426.87)" font-style="normal" font-weight="normal" font-size="200px" font-family="Helvetica" >
O</text>
<text x="0" y="0" stroke="none" fill="#5f5f5f" transform="matrix(0.05 0 0 0.05 154.643 411.87)" font-style="normal" font-weight="normal" font-size="200px" font-family="Helvetica" >
O</text>
<text x="0" y="0" stroke="none" fill="#5f5f5f" transform="matrix(0.05 0 0 0.05 206.604 321.868)" font-style="normal" font-weight="normal" font-size="200px" font-family="Helvetica" >
O</text>
<text x="0" y="0" stroke="none" fill="#5f5f5f" transform="matrix(0.05 0 0 0.05 110.376 397.303)" font-style="normal" font-weight="normal" font-size="150px" font-family="Helvetica" >
-</text>
<text x="0" y="0" stroke="none" fill="#5f5f5f" transform="matrix(0.05 0 0 0.05 112.873 400.89)" font-style="normal" font-weight="normal" font-size="200px" font-family="Helvetica" >
O</text>
<text x="0" y="0" stroke="none" fill="#5f5f5f" transform="matrix(0.05 0 0 0.05 143.66 452.851)" font-style="normal" font-weight="normal" font-size="200px" font-family="Helvetica" >
O</text>
<text x="0" y="0" stroke="none" fill="#5f5f5f" transform="matrix(0.05 0 0 0.05 258.569 381.869)" font-style="normal" font-weight="normal" font-size="200px" font-family="Helvetica" >
O</text>
<text x="0" y="0" stroke="none" fill="#5f5f5f" transform="matrix(0.05 0 0 0.05 25.3839 426.87)" font-style="normal" font-weight="normal" font-size="200px" font-family="Helvetica" >
N</text>
<text x="0" y="0" stroke="none" fill="#5f5f5f" transform="matrix(0.05 0 0 0.05 32.6056 423.284)" font-style="normal" font-weight="normal" font-size="150px" font-family="Helvetica" >
+</text>
<text x="0" y="0" stroke="none" fill="#5f5f5f" transform="matrix(0.05 0 0 0.05 194.414 405.609)" font-style="normal" font-weight="normal" font-size="150px" font-family="Helvetica" >
abs</text>
<path stroke="none" fill="#5f5f5f" transform="matrix(0.05 0 0 0.05 -13 -132)" d="M 2486.88,11357.5 L 2476.88,11340.2 L 2794.66,11156.7 L 2804.66,11174.1 L 2486.88,11357.5 Z " />
<path stroke="none" fill="#5f5f5f" transform="matrix(0.05 0 0 0.05 -13 -132)" d="M 3317.13,10855.1 L 3327.13,10872.4 L 3005.43,11058.2 L 2995.43,11040.8 L 3317.13,10855.1 Z " />
<path stroke="none" fill="#5f5f5f" transform="matrix(0.05 0 0 0.05 -13 -132)" d="M 2653.57,10693.5 L 2670.89,10683.5 L 2847.88,10990 L 2830.56,11000 L 2653.57,10693.5 Z " />
<path stroke="none" fill="#5f5f5f" transform="matrix(0.05 0 0 0.05 -13 -132)" d="M 3185.02,11501.9 L 3167.7,11511.9 L 2958.02,11148.8 L 2975.34,11138.8 L 3185.02,11501.9 Z " />
<path stroke="none" fill="#5f5f5f" transform="matrix(0.05 0 0 0.05 -13 -132)" d="M 3122.67,11537.9 L 3105.35,11547.9 L 2895.66,11184.8 L 2912.98,11174.8 L 3122.67,11537.9 Z " />
<path stroke="none" fill="#5f5f5f" transform="matrix(0.05 0 0 0.05 -13 -132)" d="M 1863.89,11117.2 L 1863.89,11094.1 L 2290.29,11340.3 L 2280.29,11357.6 L 1863.89,11117.2 Z " />
<path stroke="none" fill="#5f5f5f" transform="matrix(0.05 0 0 0.05 -13 -132)" d="M 4971.62,9299.86 L 4991.62,9311.41 L 4991.62,9791.97 L 4971.62,9791.97 L 4971.62,9299.86 Z " />
<path stroke="none" fill="#5f5f5f" transform="matrix(0.05 0 0 0.05 -13 -132)" d="M 4472.01,10211.4 L 4452.01,10199.9 L 4875.96,9955.1 L 4885.96,9972.43 L 4472.01,10211.4 Z " />
<path stroke="none" fill="#5f5f5f" transform="matrix(0.05 0 0 0.05 -13 -132)" d="M 4913.41,10997 L 4853.4,11100.9 L 4461.45,10817.5 L 4462.01,10805.7 L 4472.01,10799.2 L 4913.41,10997 Z " />
<path stroke="none" fill="#5f5f5f" transform="matrix(0.05 0 0 0.05 -13 -132)" d="M 5501.29,10794.1 L 5501.29,10817.2 L 5085,11057.5 L 5075,11040.2 L 5501.29,10794.1 Z " />
<path stroke="none" fill="#5f5f5f" transform="matrix(0.05 0 0 0.05 -13 -132)" d="M 3942.4,11094.1 L 3942.4,11117.2 L 3516.21,10871.2 L 3526.21,10853.8 L 3942.4,11094.1 Z " />
<path stroke="none" fill="#5f5f5f" transform="matrix(0.05 0 0 0.05 -13 -132)" d="M 5022.62,9276.19 L 5012.62,9293.51 L 4573.43,9039.94 L 4583.43,9022.62 L 5022.62,9276.19 Z " />
<path stroke="none" fill="#5f5f5f" transform="matrix(0.05 0 0 0.05 -13 -132)" d="M 4986.62,9338.55 L 4976.62,9355.87 L 4537.43,9102.29 L 4547.43,9084.97 L 4986.62,9338.55 Z " />
<path stroke="none" fill="#5f5f5f" transform="matrix(0.05 0 0 0.05 -13 -132)" d="M 5547.29,10826.5 L 5527.29,10826.5 L 5527.29,10324 L 5547.29,10324 L 5547.29,10826.5 Z " />
<path stroke="none" fill="#5f5f5f" transform="matrix(0.05 0 0 0.05 -13 -132)" d="M 5475.29,10826.5 L 5455.29,10826.5 L 5455.29,10324 L 5475.29,10324 L 5475.29,10826.5 Z " />
<path stroke="none" fill="#5f5f5f" transform="matrix(0.05 0 0 0.05 -13 -132)" d="M 1344.28,11394.1 L 1344.28,11417.2 L 929.037,11177.5 L 939.036,11160.2 L 1344.28,11394.1 Z " />
<path stroke="none" fill="#5f5f5f" transform="matrix(0.05 0 0 0.05 -13 -132)" d="M 300,10814.3 L 310,10797 L 721.583,11034.6 L 711.583,11052 L 300,10814.3 Z " />
<path stroke="none" fill="#5f5f5f" transform="matrix(0.05 0 0 0.05 -13 -132)" d="M 533.265,11630.3 L 515.944,11620.3 L 749.433,11215.9 L 766.754,11225.9 L 533.265,11630.3 Z " />
<path stroke="none" fill="#5f5f5f" transform="matrix(0.05 0 0 0.05 -13 -132)" d="M 1115.96,10581.1 L 1133.28,10591.1 L 897.861,10998.8 L 880.54,10988.8 L 1115.96,10581.1 Z " />
<path stroke="none" fill="#5f5f5f" transform="matrix(0.05 0 0 0.05 -13 -132)" d="M 7050.13,5699.78 L 7070.13,5711.33 L 7070.13,6311.34 L 7050.13,6299.8 L 7050.13,5699.78 Z " />
<path stroke="none" fill="#5f5f5f" transform="matrix(0.05 0 0 0.05 -13 -132)" d="M 6550.52,6611.35 L 6530.52,6599.8 L 7050.13,6299.8 L 7070.13,6311.34 L 6550.52,6611.35 Z " />
<path stroke="none" fill="#5f5f5f" transform="matrix(0.05 0 0 0.05 -13 -132)" d="M 7569.8,5399.78 L 7589.8,5411.33 L 7070.13,5711.33 L 7050.13,5699.78 L 7569.8,5399.78 Z " />
<path stroke="none" fill="#5f5f5f" transform="matrix(0.05 0 0 0.05 -13 -132)" d="M 6550.52,7211.36 L 6530.52,7199.82 L 6530.52,6599.8 L 6550.52,6611.35 L 6550.52,7211.36 Z " />
<path stroke="none" fill="#5f5f5f" transform="matrix(0.05 0 0 0.05 -13 -132)" d="M 7569.8,4799.76 L 7589.8,4811.31 L 7589.8,5411.33 L 7569.8,5399.78 L 7569.8,4799.76 Z " />
<path stroke="none" fill="#5f5f5f" transform="matrix(0.05 0 0 0.05 -13 -132)" d="M 6030.9,7511.37 L 6010.9,7499.82 L 6530.52,7199.82 L 6550.52,7211.36 L 6030.9,7511.37 Z " />
<path stroke="none" fill="#5f5f5f" transform="matrix(0.05 0 0 0.05 -13 -132)" d="M 8089.41,4499.76 L 8109.41,4511.3 L 7589.8,4811.31 L 7569.8,4799.76 L 8089.41,4499.76 Z " />
<path stroke="none" fill="#5f5f5f" transform="matrix(0.05 0 0 0.05 -13 -132)" d="M 6030.9,8111.38 L 6010.9,8099.84 L 6010.9,7499.82 L 6030.9,7511.37 L 6030.9,8111.38 Z " />
<path stroke="none" fill="#5f5f5f" transform="matrix(0.05 0 0 0.05 -13 -132)" d="M 8089.41,3899.74 L 8109.41,3911.29 L 8109.41,4511.3 L 8089.41,4499.76 L 8089.41,3899.74 Z " />
<path stroke="none" fill="#5f5f5f" transform="matrix(0.05 0 0 0.05 -13 -132)" d="M 5511.29,8411.39 L 5491.29,8399.84 L 6010.9,8099.84 L 6030.9,8111.38 L 5511.29,8411.39 Z " />
<path stroke="none" fill="#5f5f5f" transform="matrix(0.05 0 0 0.05 -13 -132)" d="M 8609.02,3599.74 L 8629.02,3611.29 L 8109.41,3911.29 L 8089.41,3899.74 L 8609.02,3599.74 Z " />
<path stroke="none" fill="#5f5f5f" transform="matrix(0.05 0 0 0.05 -13 -132)" d="M 1863.89,11094.1 L 1863.89,11117.2 L 1344.28,11417.2 L 1344.28,11394.1 L 1863.89,11094.1 Z " />
<path stroke="none" fill="#5f5f5f" transform="matrix(0.05 0 0 0.05 -13 -132)" d="M 8609.02,2999.73 L 8629.02,3011.27 L 8629.02,3611.29 L 8609.02,3599.74 L 8609.02,2999.73 Z " />
<path stroke="none" fill="#5f5f5f" transform="matrix(0.05 0 0 0.05 -13 -132)" d="M 5511.29,9011.4 L 5491.29,8999.86 L 5491.29,8399.84 L 5511.29,8411.39 L 5511.29,9011.4 Z " />
<path stroke="none" fill="#5f5f5f" transform="matrix(0.05 0 0 0.05 -13 -132)" d="M 9133.63,2696.83 L 9143.63,2714.15 L 8629.02,3011.27 L 8609.02,2999.73 L 9133.63,2696.83 Z " />
<path stroke="none" fill="#5f5f5f" transform="matrix(0.05 0 0 0.05 -13 -132)" d="M 4991.62,9311.41 L 4971.62,9299.86 L 5491.29,8999.86 L 5511.29,9011.4 L 4991.62,9311.41 Z " />
<path stroke="none" fill="#5f5f5f" transform="matrix(0.05 0 0 0.05 -13 -132)" d="M 8099.41,11094.1 L 8099.41,11117.2 L 7579.8,10817.2 L 7579.8,10794.1 L 8099.41,11094.1 Z " />
<path stroke="none" fill="#5f5f5f" transform="matrix(0.05 0 0 0.05 -13 -132)" d="M 7060.13,11117.2 L 7060.13,11094.1 L 7579.8,10794.1 L 7579.8,10817.2 L 7060.13,11117.2 Z " />
<path stroke="none" fill="#5f5f5f" transform="matrix(0.05 0 0 0.05 -13 -132)" d="M 8619.02,10794.1 L 8619.02,10817.2 L 8099.41,11117.2 L 8099.41,11094.1 L 8619.02,10794.1 Z " />
<path stroke="none" fill="#5f5f5f" transform="matrix(0.05 0 0 0.05 -13 -132)" d="M 6540.52,10817.2 L 6540.52,10794.1 L 7060.13,11094.1 L 7060.13,11117.2 L 6540.52,10817.2 Z " />
<path stroke="none" fill="#5f5f5f" transform="matrix(0.05 0 0 0.05 -13 -132)" d="M 9138.63,11094.1 L 9138.63,11117.2 L 8619.02,10817.2 L 8619.02,10794.1 L 9138.63,11094.1 Z " />
<path stroke="none" fill="#5f5f5f" transform="matrix(0.05 0 0 0.05 -13 -132)" d="M 12256.4,11094.1 L 12256.4,11117.2 L 11736.8,10817.2 L 11736.8,10794.1 L 12256.4,11094.1 Z " />
<path stroke="none" fill="#5f5f5f" transform="matrix(0.05 0 0 0.05 -13 -132)" d="M 11217.1,11117.2 L 11217.1,11094.1 L 11736.8,10794.1 L 11736.8,10817.2 L 11217.1,11117.2 Z " />
<path stroke="none" fill="#5f5f5f" transform="matrix(0.05 0 0 0.05 -13 -132)" d="M 12776,10794.1 L 12776,10817.2 L 12256.4,11117.2 L 12256.4,11094.1 L 12776,10794.1 Z " />
<path stroke="none" fill="#5f5f5f" transform="matrix(0.05 0 0 0.05 -13 -132)" d="M 6020.9,11117.2 L 6020.9,11094.1 L 6540.52,10794.1 L 6540.52,10817.2 L 6020.9,11117.2 Z " />
<path stroke="none" fill="#5f5f5f" transform="matrix(0.05 0 0 0.05 -13 -132)" d="M 10697.5,10817.2 L 10697.5,10794.1 L 11217.1,11094.1 L 11217.1,11117.2 L 10697.5,10817.2 Z " />
<path stroke="none" fill="#5f5f5f" transform="matrix(0.05 0 0 0.05 -13 -132)" d="M 13295.6,11094.1 L 13295.6,11117.2 L 12776,10817.2 L 12776,10794.1 L 13295.6,11094.1 Z " />
<path stroke="none" fill="#5f5f5f" transform="matrix(0.05 0 0 0.05 -13 -132)" d="M 9658.3,10794.1 L 9658.3,10817.2 L 9138.63,11117.2 L 9138.63,11094.1 L 9658.3,10794.1 Z " />
<path stroke="none" fill="#5f5f5f" transform="matrix(0.05 0 0 0.05 -13 -132)" d="M 10177.9,11117.2 L 10177.9,11094.1 L 10697.5,10794.1 L 10697.5,10817.2 L 10177.9,11117.2 Z " />
<path stroke="none" fill="#5f5f5f" transform="matrix(0.05 0 0 0.05 -13 -132)" d="M 13815.3,10794.1 L 13815.3,10817.2 L 13295.6,11117.2 L 13295.6,11094.1 L 13815.3,10794.1 Z " />
<path stroke="none" fill="#5f5f5f" transform="matrix(0.05 0 0 0.05 -13 -132)" d="M 4452.01,10199.9 L 4472.01,10211.4 L 4472.01,10799.2 L 4462.01,10805.7 L 4452.01,10799.9 L 4452.01,10199.9 Z " />
<path stroke="none" fill="#5f5f5f" transform="matrix(0.05 0 0 0.05 -13 -132)" d="M 3942.4,11117.2 L 3942.4,11094.1 L 4452.01,10799.9 L 4462.01,10805.7 L 4461.45,10817.5 L 3942.4,11117.2 Z " />
<path stroke="none" fill="#5f5f5f" transform="matrix(0.05 0 0 0.05 -13 -132)" d="M 5501.29,10817.2 L 5501.29,10794.1 L 6020.9,11094.1 L 6020.9,11117.2 L 5501.29,10817.2 Z " />
<path stroke="none" fill="#5f5f5f" transform="matrix(0.05 0 0 0.05 -13 -132)" d="M 10177.9,11094.1 L 10177.9,11117.2 L 9658.3,10817.2 L 9658.3,10794.1 L 10177.9,11094.1 Z " />
<path stroke="none" fill="#5f5f5f" transform="matrix(0.05 0 0 0.05 -13 -132)" d="M 10182.9,11013.9 L 10172.9,11031.2 L 9689.3,10752 L 9699.3,10734.7 L 10182.9,11013.9 Z " />
<path stroke="none" fill="#5f5f5f" transform="matrix(0.05 0 0 0.05 -13 -132)" d="M 14339.9,11097 L 14329.9,11114.3 L 13815.3,10817.2 L 13815.3,10794.1 L 14339.9,11097 Z " />
</svg>
