<?xml version="1.0" standalone="no" ?>
<!DOCTYPE svg PUBLIC "-//W3C//DTD SVG 1.1//EN" "http://www.w3.org/Graphics/SVG/1.1/DTD/svg11.dtd">
<svg width="619px" height="172px" viewBox="0 0 619 172" style="background-color: #ffffff00" xmlns="http://www.w3.org/2000/svg" xmlns:xlink="http://www.w3.org/1999/xlink" version="1.1" >
<text x="0" y="0" stroke="none" fill="#5f5f5f" transform="matrix(0.05 0 0 0.05 557.371 65.9951)" font-style="normal" font-weight="normal" font-size="200px" font-family="Helvetica" >
O</text>
<path stroke="none" fill="#5f5f5f" transform="matrix(0.05 0 0 0.05 -173 -277)" d="M 13618.7,7147.09 L 13618.8,7124.22 L 14223,7461.08 L 14221.6,7471.75 L 14215.2,7479.61 L 13618.7,7147.09 Z " />
<path stroke="none" fill="#5f5f5f" transform="matrix(0.05 0 0 0.05 -173 -277)" d="M 14674.9,7346.71 L 14695.1,7362.22 L 14243.4,7476.55 L 14221.6,7471.75 L 14223,7461.08 L 14674.9,7346.71 Z " />
<path stroke="none" fill="#5f5f5f" transform="matrix(0.05 0 0 0.05 -173 -277)" d="M 14668.9,6906.61 L 14688.9,6906.34 L 14695.1,7362.22 L 14674.9,7346.71 L 14668.9,6906.61 Z " />
<path stroke="none" fill="#5f5f5f" transform="matrix(0.05 0 0 0.05 -173 -277)" d="M 13360.2,8257.79 L 13359.7,8234.7 L 13767.2,7987.43 L 13777.6,8004.53 L 13360.2,8257.79 Z " />
<path stroke="none" fill="#5f5f5f" transform="matrix(0.05 0 0 0.05 -173 -277)" d="M 13416.4,8730.47 L 13396.4,8730.9 L 13385.4,8224.93 L 13405.4,8224.5 L 13416.4,8730.47 Z " />
<path stroke="none" fill="#5f5f5f" transform="matrix(0.05 0 0 0.05 -173 -277)" d="M 13344.5,8732.03 L 13324.6,8732.46 L 13313.6,8226.5 L 13333.6,8226.06 L 13344.5,8732.03 Z " />
<path stroke="none" fill="#5f5f5f" transform="matrix(0.05 0 0 0.05 -173 -277)" d="M 5574.28,8127.48 L 5573.77,8104.39 L 6098.91,8392.54 L 6099.41,8415.63 L 5574.28,8127.48 Z " />
<path stroke="none" fill="#5f5f5f" transform="matrix(0.05 0 0 0.05 -173 -277)" d="M 6099.41,8415.63 L 6098.91,8392.54 L 6611.03,8081.84 L 6611.53,8104.93 L 6099.41,8415.63 Z " />
<path stroke="none" fill="#5f5f5f" transform="matrix(0.05 0 0 0.05 -173 -277)" d="M 6611.53,8104.93 L 6611.03,8081.84 L 7136.16,8369.99 L 7136.67,8393.08 L 6611.53,8104.93 Z " />
<path stroke="none" fill="#5f5f5f" transform="matrix(0.05 0 0 0.05 -173 -277)" d="M 7136.67,8393.08 L 7136.16,8369.99 L 7648.28,8059.29 L 7648.78,8082.38 L 7136.67,8393.08 Z " />
<path stroke="none" fill="#5f5f5f" transform="matrix(0.05 0 0 0.05 -173 -277)" d="M 7648.78,8082.38 L 7648.28,8059.29 L 8173.42,8347.44 L 8173.92,8370.53 L 7648.78,8082.38 Z " />
<path stroke="none" fill="#5f5f5f" transform="matrix(0.05 0 0 0.05 -173 -277)" d="M 8173.92,8370.53 L 8173.42,8347.44 L 8685.53,8036.74 L 8686.04,8059.83 L 8173.92,8370.53 Z " />
<path stroke="none" fill="#5f5f5f" transform="matrix(0.05 0 0 0.05 -173 -277)" d="M 8686.04,8059.83 L 8685.53,8036.74 L 9210.67,8324.9 L 9211.17,8347.98 L 8686.04,8059.83 Z " />
<path stroke="none" fill="#5f5f5f" transform="matrix(0.05 0 0 0.05 -173 -277)" d="M 9211.17,8347.98 L 9210.67,8324.9 L 9722.79,8014.19 L 9723.29,8037.28 L 9211.17,8347.98 Z " />
<path stroke="none" fill="#5f5f5f" transform="matrix(0.05 0 0 0.05 -173 -277)" d="M 9723.29,8037.28 L 9722.79,8014.19 L 10247.9,8302.35 L 10248.4,8325.43 L 9723.29,8037.28 Z " />
<path stroke="none" fill="#5f5f5f" transform="matrix(0.05 0 0 0.05 -173 -277)" d="M 10248.4,8325.43 L 10247.9,8302.35 L 10760,7991.64 L 10760.5,8014.73 L 10248.4,8325.43 Z " />
<path stroke="none" fill="#5f5f5f" transform="matrix(0.05 0 0 0.05 -173 -277)" d="M 10760.5,8014.73 L 10760,7991.64 L 11285.2,8279.8 L 11285.7,8302.89 L 10760.5,8014.73 Z " />
<path stroke="none" fill="#5f5f5f" transform="matrix(0.05 0 0 0.05 -173 -277)" d="M 11285.7,8302.89 L 11285.2,8279.8 L 11797.3,7969.09 L 11797.8,7992.18 L 11285.7,8302.89 Z " />
<path stroke="none" fill="#5f5f5f" transform="matrix(0.05 0 0 0.05 -173 -277)" d="M 11797.8,7992.18 L 11797.3,7969.09 L 12322.4,8257.25 L 12322.9,8280.34 L 11797.8,7992.18 Z " />
<path stroke="none" fill="#5f5f5f" transform="matrix(0.05 0 0 0.05 -173 -277)" d="M 12322.9,8280.34 L 12322.4,8257.25 L 12834.5,7946.54 L 12835,7969.63 L 12322.9,8280.34 Z " />
<path stroke="none" fill="#5f5f5f" transform="matrix(0.05 0 0 0.05 -173 -277)" d="M 12835,7969.63 L 12834.5,7946.54 L 13359.7,8234.7 L 13360.2,8257.79 L 12835,7969.63 Z " />
<text x="0" y="0" stroke="none" fill="#5f5f5f" transform="matrix(0.05 0 0 0.05 492.152 168.841)" font-style="normal" font-weight="normal" font-size="200px" font-family="Helvetica" >
O</text>
<text x="0" y="0" stroke="none" fill="#5f5f5f" transform="matrix(0.05 0 0 0.05 517.107 123.363)" font-style="normal" font-weight="normal" font-size="200px" font-family="Helvetica" >
O</text>
<text x="0" y="0" stroke="none" fill="#5f5f5f" transform="matrix(0.05 0 0 0.05 474.538 99.8419)" font-style="normal" font-weight="normal" font-size="200px" font-family="Helvetica" >
O</text>
<text x="0" y="0" stroke="none" fill="#5f5f5f" transform="matrix(0.05 0 0 0.05 443.717 55.5274)" font-style="normal" font-weight="normal" font-size="200px" font-family="Helvetica" >
O</text>
<path stroke="none" fill="#5f5f5f" transform="matrix(0.05 0 0 0.05 -173 -277)" d="M 11885.5,7488.87 L 11885.5,7465.77 L 12403.8,7166.56 L 12404.7,7189.08 L 11885.5,7488.87 Z " />
<path stroke="none" fill="#5f5f5f" transform="matrix(0.05 0 0 0.05 -173 -277)" d="M 11366.8,7189.37 L 11366.8,7166.27 L 11885.5,7465.77 L 11885.5,7488.87 L 11366.8,7189.37 Z " />
<path stroke="none" fill="#5f5f5f" transform="matrix(0.05 0 0 0.05 -173 -277)" d="M 10848,7488.87 L 10848,7465.77 L 11366.8,7166.27 L 11366.8,7189.37 L 10848,7488.87 Z " />
<path stroke="none" fill="#5f5f5f" transform="matrix(0.05 0 0 0.05 -173 -277)" d="M 10329.3,7189.37 L 10329.3,7166.27 L 10848,7465.77 L 10848,7488.87 L 10329.3,7189.37 Z " />
<path stroke="none" fill="#5f5f5f" transform="matrix(0.05 0 0 0.05 -173 -277)" d="M 9810.51,7488.87 L 9810.51,7465.77 L 10329.3,7166.27 L 10329.3,7189.37 L 9810.51,7488.87 Z " />
<path stroke="none" fill="#5f5f5f" transform="matrix(0.05 0 0 0.05 -173 -277)" d="M 9291.76,7189.37 L 9291.76,7166.27 L 9810.51,7465.77 L 9810.51,7488.87 L 9291.76,7189.37 Z " />
<path stroke="none" fill="#5f5f5f" transform="matrix(0.05 0 0 0.05 -173 -277)" d="M 8773.01,7488.87 L 8773.01,7465.77 L 9291.76,7166.27 L 9291.76,7189.37 L 8773.01,7488.87 Z " />
<path stroke="none" fill="#5f5f5f" transform="matrix(0.05 0 0 0.05 -173 -277)" d="M 8251.58,7187.82 L 8256.94,7167.82 L 8773.01,7465.77 L 8773.01,7488.87 L 8251.58,7187.82 Z " />
<path stroke="none" fill="#5f5f5f" transform="matrix(0.05 0 0 0.05 -173 -277)" d="M 7657.94,7187.82 L 7652.58,7167.82 L 8256.94,7167.82 L 8251.58,7187.82 L 7657.94,7187.82 Z " />
<path stroke="none" fill="#5f5f5f" transform="matrix(0.05 0 0 0.05 -173 -277)" d="M 7674.52,7259.7 L 7674.52,7239.7 L 8235,7239.7 L 8235,7259.7 L 7674.52,7259.7 Z " />
<path stroke="none" fill="#5f5f5f" transform="matrix(0.05 0 0 0.05 -173 -277)" d="M 7136.51,7488.87 L 7136.51,7465.77 L 7652.58,7167.82 L 7657.94,7187.82 L 7136.51,7488.87 Z " />
<path stroke="none" fill="#5f5f5f" transform="matrix(0.05 0 0 0.05 -173 -277)" d="M 6617.76,7189.37 L 6617.76,7166.27 L 7136.51,7465.77 L 7136.51,7488.87 L 6617.76,7189.37 Z " />
<path stroke="none" fill="#5f5f5f" transform="matrix(0.05 0 0 0.05 -173 -277)" d="M 6099.01,7488.87 L 6099.01,7465.77 L 6617.76,7166.27 L 6617.76,7189.37 L 6099.01,7488.87 L 6099.01,7488.87 Z " />
<path stroke="none" fill="#5f5f5f" transform="matrix(0.05 0 0 0.05 -173 -277)" d="M 5580.26,7189.37 L 5580.26,7166.27 L 6099.01,7465.77 L 6099.01,7488.87 L 5580.26,7189.37 L 5580.26,7189.37 Z " />
<path stroke="none" fill="#5f5f5f" transform="matrix(0.05 0 0 0.05 -173 -277)" d="M 5061.51,7488.87 L 5061.51,7465.77 L 5580.26,7166.27 L 5580.26,7189.37 L 5061.51,7488.87 L 5061.51,7488.87 Z " />
<path stroke="none" fill="#5f5f5f" transform="matrix(0.05 0 0 0.05 -173 -277)" d="M 4542.76,7189.37 L 4542.76,7166.27 L 5061.51,7465.77 L 5061.51,7488.87 L 4542.76,7189.37 Z " />
<path stroke="none" fill="#5f5f5f" transform="matrix(0.05 0 0 0.05 -173 -277)" d="M 4024.01,7488.87 L 4024.01,7465.77 L 4542.76,7166.27 L 4542.76,7189.37 L 4024.01,7488.87 Z " />
<path stroke="none" fill="#5f5f5f" transform="matrix(0.05 0 0 0.05 -173 -277)" d="M 3500.26,7186.48 L 3510.26,7169.16 L 4024.01,7465.77 L 4024.01,7488.87 L 3500.26,7186.48 Z " />
<path stroke="none" fill="#5f5f5f" transform="matrix(0.05 0 0 0.05 -173 -277)" d="M 12358.3,6697.14 L 12378.3,6697.14 L 12378.3,7198.57 L 12358.3,7198.57 L 12358.3,6697.14 Z " />
<path stroke="none" fill="#5f5f5f" transform="matrix(0.05 0 0 0.05 -173 -277)" d="M 12430.2,6697.14 L 12450.2,6697.14 L 12450.2,7194.57 L 12430.2,7194.57 L 12430.2,6697.14 Z " />
<path stroke="none" fill="#5f5f5f" transform="matrix(0.05 0 0 0.05 -173 -277)" d="M 12404.7,7189.08 L 12403.8,7166.56 L 12922.5,7408.31 L 12914,7426.44 L 12404.7,7189.08 Z " />
<text x="0" y="0" stroke="none" fill="#5f5f5f" transform="matrix(0.05 0 0 0.05 609.246 65.9951)" font-style="normal" font-weight="normal" font-size="200px" font-family="Helvetica" >
O</text>
<path stroke="none" fill="#5f5f5f" transform="matrix(0.05 0 0 0.05 -173 -277)" d="M 15186.1,5908.75 L 15206.1,5896.7 L 15206.1,6494.45 L 15186.1,6482.9 L 15186.1,5908.75 Z " />
<path stroke="none" fill="#5f5f5f" transform="matrix(0.05 0 0 0.05 -173 -277)" d="M 14627.7,5613.4 L 14627.2,5590.5 L 15206.1,5896.7 L 15186.1,5908.75 L 14627.7,5613.4 Z " />
<path stroke="none" fill="#5f5f5f" transform="matrix(0.05 0 0 0.05 -173 -277)" d="M 14111.1,5916.89 L 14110.9,5893.8 L 14627.2,5590.5 L 14627.7,5613.4 L 14111.1,5916.89 Z " />
<path stroke="none" fill="#5f5f5f" transform="matrix(0.05 0 0 0.05 -173 -277)" d="M 13590.1,5621.31 L 13589.9,5598.21 L 14110.9,5893.8 L 14111.1,5916.89 L 13590.1,5621.31 Z " />
<path stroke="none" fill="#5f5f5f" transform="matrix(0.05 0 0 0.05 -173 -277)" d="M 13073.6,5924.7 L 13073.4,5901.61 L 13589.9,5598.21 L 13590.1,5621.31 L 13073.6,5924.7 Z " />
<path stroke="none" fill="#5f5f5f" transform="matrix(0.05 0 0 0.05 -173 -277)" d="M 12552.6,5629.12 L 12552.4,5606.02 L 13073.4,5901.61 L 13073.6,5924.7 L 12552.6,5629.12 Z " />
<path stroke="none" fill="#5f5f5f" transform="matrix(0.05 0 0 0.05 -173 -277)" d="M 12036.1,5932.51 L 12036,5909.42 L 12552.4,5606.02 L 12552.6,5629.12 L 12036.1,5932.51 Z " />
<path stroke="none" fill="#5f5f5f" transform="matrix(0.05 0 0 0.05 -173 -277)" d="M 11515.2,5636.93 L 11515,5613.83 L 12036,5909.42 L 12036.1,5932.51 L 11515.2,5636.93 Z " />
<path stroke="none" fill="#5f5f5f" transform="matrix(0.05 0 0 0.05 -173 -277)" d="M 10998.7,5940.32 L 10998.5,5917.23 L 11515,5613.83 L 11515.2,5636.93 L 10998.7,5940.32 Z " />
<path stroke="none" fill="#5f5f5f" transform="matrix(0.05 0 0 0.05 -173 -277)" d="M 10477.7,5644.73 L 10477.5,5621.64 L 10998.5,5917.23 L 10998.7,5940.32 L 10477.7,5644.73 Z " />
<path stroke="none" fill="#5f5f5f" transform="matrix(0.05 0 0 0.05 -173 -277)" d="M 9961.2,5948.13 L 9961.03,5925.04 L 10477.5,5621.64 L 10477.7,5644.73 L 9961.2,5948.13 Z " />
<path stroke="none" fill="#5f5f5f" transform="matrix(0.05 0 0 0.05 -173 -277)" d="M 9440.22,5652.54 L 9440.04,5629.45 L 9961.03,5925.04 L 9961.2,5948.13 L 9440.22,5652.54 Z " />
<path stroke="none" fill="#5f5f5f" transform="matrix(0.05 0 0 0.05 -173 -277)" d="M 8923.74,5955.94 L 8923.56,5932.85 L 9440.04,5629.45 L 9440.22,5652.54 L 8923.74,5955.94 Z " />
<path stroke="none" fill="#5f5f5f" transform="matrix(0.05 0 0 0.05 -173 -277)" d="M 8402.75,5660.35 L 8402.57,5637.26 L 8923.56,5932.85 L 8923.74,5955.94 L 8402.75,5660.35 Z " />
<path stroke="none" fill="#5f5f5f" transform="matrix(0.05 0 0 0.05 -173 -277)" d="M 7891.24,5960.83 L 7881.11,5943.58 L 8402.57,5637.26 L 8402.75,5660.35 L 7891.24,5960.83 Z " />
<path stroke="none" fill="#5f5f5f" transform="matrix(0.05 0 0 0.05 -173 -277)" d="M 15639.6,6691.68 L 15629.6,6709 L 15191.1,6455.83 L 15201.1,6438.51 L 15639.6,6691.68 Z " />
<path stroke="none" fill="#5f5f5f" transform="matrix(0.05 0 0 0.05 -173 -277)" d="M 15603.7,6753.93 L 15593.7,6771.25 L 15155.2,6518.08 L 15165.2,6500.76 L 15603.7,6753.93 Z " />
<text x="0" y="0" stroke="none" fill="#5f5f5f" transform="matrix(0.05 0 0 0.05 556.448 121.387)" font-style="normal" font-weight="normal" font-size="200px" font-family="Helvetica" >
H</text>
<path stroke="none" fill="#5f5f5f" transform="matrix(0.05 0 0 0.05 -173 -277)" d="M 14594.9,7760.19 L 14510.1,7845.04 L 14215.2,7479.61 L 14221.6,7471.75 L 14243.4,7476.55 L 14594.9,7760.19 Z " />
<path stroke="none" fill="#5f5f5f" transform="matrix(0.05 0 0 0.05 -173 -277)" d="M 13124.9,7419.12 L 13115.3,7401.6 L 13618.8,7124.22 L 13618.7,7147.09 L 13124.9,7419.12 Z " />
<path stroke="none" fill="#5f5f5f" transform="matrix(0.05 0 0 0.05 -173 -277)" d="M 15186.1,6482.9 L 15206.1,6494.45 L 14780.7,6740.04 L 14770.7,6722.72 L 15186.1,6482.9 Z " />
<path stroke="none" fill="#5f5f5f" transform="matrix(0.05 0 0 0.05 -173 -277)" d="M 5062.16,8438.18 L 5061.66,8415.09 L 5573.77,8104.39 L 5574.28,8127.48 L 5062.16,8438.18 Z " />
<path stroke="none" fill="#5f5f5f" transform="matrix(0.05 0 0 0.05 -173 -277)" d="M 4531.96,8147.25 L 4541.58,8129.71 L 5061.66,8415.09 L 5062.16,8438.18 L 4531.96,8147.25 Z " />
<path stroke="none" fill="#5f5f5f" transform="matrix(0.05 0 0 0.05 -173 -277)" d="M 14141.2,7478.75 L 14237.1,7550.98 L 14223.1,7565.48 L 14131.1,7496.18 L 14141.2,7478.75 Z " />
<path stroke="none" fill="#5f5f5f" transform="matrix(0.05 0 0 0.05 -173 -277)" d="M 14113,7527.45 L 14198,7591.5 L 14184,7606 L 14102.9,7544.88 L 14113,7527.45 Z " />
<path stroke="none" fill="#5f5f5f" transform="matrix(0.05 0 0 0.05 -173 -277)" d="M 14084.8,7576.15 L 14159,7632.02 L 14145,7646.52 L 14074.7,7593.58 L 14084.8,7576.15 Z " />
<path stroke="none" fill="#5f5f5f" transform="matrix(0.05 0 0 0.05 -173 -277)" d="M 14056.6,7624.85 L 14119.9,7672.53 L 14105.9,7687.04 L 14046.5,7642.28 L 14056.6,7624.85 Z " />
<path stroke="none" fill="#5f5f5f" transform="matrix(0.05 0 0 0.05 -173 -277)" d="M 14028.4,7673.55 L 14080.9,7713.05 L 14066.9,7727.56 L 14018.3,7690.98 L 14028.4,7673.55 Z " />
<path stroke="none" fill="#5f5f5f" transform="matrix(0.05 0 0 0.05 -173 -277)" d="M 14000.2,7722.25 L 14041.8,7753.57 L 14027.8,7768.08 L 13990.1,7739.68 L 14000.2,7722.25 Z " />
<path stroke="none" fill="#5f5f5f" transform="matrix(0.05 0 0 0.05 -173 -277)" d="M 13972,7770.94 L 14002.7,7794.09 L 13988.8,7808.6 L 13961.9,7788.38 L 13972,7770.94 Z " />
<path stroke="none" fill="#5f5f5f" transform="matrix(0.05 0 0 0.05 -173 -277)" d="M 13943.8,7819.64 L 13963.7,7834.61 L 13949.7,7849.12 L 13933.7,7837.08 L 13943.8,7819.64 Z " />
</svg>
