<?xml version="1.0" encoding="utf-8"?>
<!-- Generator: Adobe Illustrator 18.0.0, SVG Export Plug-In . SVG Version: 6.00 Build 0)  -->
<!DOCTYPE svg PUBLIC "-//W3C//DTD SVG 1.1//EN" "http://www.w3.org/Graphics/SVG/1.1/DTD/svg11.dtd">
<svg version="1.1" xmlns="http://www.w3.org/2000/svg" xmlns:xlink="http://www.w3.org/1999/xlink" x="0px" y="0px" width="332px"
	 height="500px" viewBox="0 0 332 500" style="enable-background:new 0 0 332 500;" xml:space="preserve">
<style type="text/css">
	.st0{fill:#FE7419;stroke:#000;stroke-width:2;}
	.st1{fill:#56C0C8;stroke:#000;stroke-width:2;}
	.st2{fill:#56C0C8;stroke:#000;}
	.st3{fill:#FE7419;stroke:#000;}
	.st4{fill:#008BAD;stroke:#000;}
	.st5{fill:#FF5100;stroke:#000;}
	.st6{fill:#fff;stroke:#000;stroke-width:2;}
	.st7{clip-path:url(#XMLID_3_);fill:none;stroke:#000;stroke-width:2;stroke-linejoin:round;}
	.st8{clip-path:url(#XMLID_3_);fill:#FF5100;stroke:#000;}
	.st9{clip-path:url(#XMLID_3_);fill:#FE7419;stroke:#000;}
	.st10{font-family:Liberation Sans,Arial;}
	.st11{font-size:24px;}
	.st12{font-size:31px;}
</style>
<g id="diagram">
	<rect x="97.8" y="166.4" transform="matrix(0.6561 0.7547 -0.7547 0.6561 176.7037 -20.0029)" width="25" height="35"/>
	<rect x="135.5" y="189.1" width="35" height="25"/>
	<rect x="40.5" y="375.2" class="st0" width="25" height="30"/>
	<rect x="40.5" y="440.1" class="st1" width="25" height="30"/>
	<g>
		
			<rect x="61.1" y="139.8" transform="matrix(0.7547 -0.6561 0.6561 0.7547 -104.8148 94.2278)" class="st2" width="25" height="95"/>
		
			<rect x="41.4" y="147.1" transform="matrix(0.7547 -0.6561 0.6561 0.7547 -94.7886 75.7617)" class="st3" width="25" height="35"/>
	</g>
	<g>
		<polygon class="st4" points="84.2,107 65.3,123.4 117.8,183.8 117.8,339.5 142.8,339.5 142.8,181.5 142.8,174.5 		"/>
		
			<rect x="73.8" y="110.9" transform="matrix(0.7547 -0.6561 0.6561 0.7547 -63.1111 88.0939)" class="st5" width="25" height="35"/>
	</g>
	<rect x="182.9" y="166.4" transform="matrix(-0.6561 0.7547 -0.7547 -0.6561 462.3209 157.0462)" width="25" height="35"/>
	<g>
		
			<rect x="219.6" y="139.8" transform="matrix(-0.7547 -0.6561 0.6561 -0.7547 284.3445 480.8799)" class="st2" width="25" height="95"/>
		
			<rect x="239.3" y="147.1" transform="matrix(-0.7547 -0.6561 0.6561 -0.7547 333.7343 454.0634)" class="st3" width="25" height="35"/>
	</g>
	<polygon class="st4" points="221.5,107 240.3,123.4 187.9,183.8 187.9,339.5 162.9,339.5 162.9,181.5 162.9,174.5 	"/>
	
		<rect x="206.9" y="110.9" transform="matrix(-0.7547 -0.6561 0.6561 -0.7547 300.7502 369.3381)" class="st5" width="25" height="35"/>
	<polygon class="st6" points="282.7,158.8 223.3,163 223.3,117 282.7,117 	"/>
	<g>
		<defs>
			<ellipse id="XMLID_1_" cx="269.2" cy="106.6" rx="47.1" ry="54.5"/>
		</defs>
		<use xlink:href="#XMLID_1_"  style="overflow:visible;fill:#fff;"/>
		<clipPath id="XMLID_3_">
			<use xlink:href="#XMLID_1_"  style="overflow:visible;"/>
		</clipPath>
		<polyline class="st7" points="252.7,102.8 271.1,102.8 274.2,123 		"/>
		<path class="st8" d="M257.8,98l3.4,3.6l11.5-13.1l-24.2-20l-44.5,50.7l24.2,20l6.8-7.7l-3.5-3.7c-0.8-0.9-0.8-2.3,0.1-3.1
			c0.9-0.8,2.3-0.8,3.1,0.1l3.3,3.4l8.1-9.3l-10.2-10.7l4.8-4.6l9.7,10.3l7.8-8.9l-3.7-3.9c-0.8-0.9-0.8-2.3,0.1-3.1
			C255.5,97.1,256.9,97.1,257.8,98z"/>
		<path class="st9" d="M278.2,117.5l-4-2.9l11.5-13.1l23.1,21.4l-44.4,50.8l-23.1-21.4l6.8-7.8l4.2,3c1,0.7,2.3,0.5,3-0.5
			c0.7-1,0.5-2.4-0.5-3.1l-3.8-2.8l8.1-9.3l11.9,8.7l3.9-5.4l-11.4-8.3l7.8-8.9l4.3,3.1c1,0.7,2.3,0.5,3-0.5
			C279.4,119.6,279.2,118.3,278.2,117.5z"/>
		<use xlink:href="#XMLID_1_"  style="overflow:visible;fill:none;stroke:#000;stroke-width:2;"/>
	</g>
</g>
<g id="text">
	<text transform="matrix(1 0 0 1 147.0619 44.3335)"><tspan x="0" y="0" class="st10 st11">Antigen-</tspan><tspan x="0" y="28.8" class="st10 st11">binding</tspan><tspan x="0" y="57.6" class="st10 st11">site</tspan></text>
	<text transform="matrix(1 0 0 1 199.4403 303.3813)"><tspan x="0" y="0" class="st10 st11">Heavy</tspan><tspan x="0" y="28.8" class="st10 st11">chain</tspan></text>
	<text transform="matrix(1 0 0 1 26.3178 242.6668)"><tspan x="0" y="0" class="st10 st11">Light</tspan><tspan x="0" y="28.8" class="st10 st11">chain</tspan></text>
	<text transform="matrix(1 0 0 1 79.0451 398.5467)" class="st10 st12">Variable region</text>
	<text transform="matrix(1 0 0 1 79.0451 463.5035)" class="st10 st12">Constant region</text>
</g>
</svg>
