<?xml version="1.0" encoding="utf-8"?>
<!-- Generator: Adobe Illustrator 18.0.0, SVG Export Plug-In . SVG Version: 6.00 Build 0)  -->
<!DOCTYPE svg PUBLIC "-//W3C//DTD SVG 1.1//EN" "http://www.w3.org/Graphics/SVG/1.1/DTD/svg11.dtd">
<svg version="1.1" xmlns="http://www.w3.org/2000/svg" xmlns:xlink="http://www.w3.org/1999/xlink" x="0px" y="0px" width="651px"
	 height="1000px" viewBox="0 0 651 1000" style="enable-background:new 0 0 651 1000;" xml:space="preserve">
<style type="text/css">
	.st0{fill:#F0E409;stroke:#000;}
	.st1{fill:#AF63B0;stroke:#000;}
	.st2{fill:#F0145B;stroke:#000;}
	.st3{fill:#9CC0E6;stroke:#000;}
	.st4{fill:#7194CD;stroke:#000;}
	.st5{fill:#F0E409;stroke:#000;stroke-width:0.5;}
	.st6{fill:#00BACE;stroke:#000;}
	.st7{fill:none;stroke:#000;stroke-width:2;}
	.st8{font-family:Liberation Sans,Arial;}
	.st9{font-size:24px;}
</style>
<symbol  id="yellow" viewBox="-6.5 -6.5 13 13">
	<path class="st0" d="M6,0c0-3.3-2.7-6-6-6s-6,2.7-6,6s2.7,6,6,6S6,3.3,6,0z"/>
</symbol>
<g id="diagram">
	<path class="st1" d="M378.1,544.5h-13.2c-1.5-7-7.7-12.3-15.2-12.3v31c7.5,0,13.7-5.3,15.2-12.3h13.2V544.5z"/>
	<path d="M245.6,432.3l-15,9.1c0.9,4.3,4.8,7.5,9.4,7.4c5.1-0.2,9.2-4.5,9-9.6C248.9,436.4,247.6,433.9,245.6,432.3z"/>
	<path class="st2" d="M79.6,164.4l-3.4,2.1c-2.1,1.3-4.9,0.7-6.2-1.4l-5.9-9.4l11-6.9l5.9,9.4C82.3,160.3,81.7,163.1,79.6,164.4z"/>
	<polygon class="st3" points="59,57 40.6,57 40.6,70.2 45.5,70.2 45.5,80.8 53.5,80.8 53.5,70.2 59,70.2 	"/>
	<path class="st4" d="M49.8,162c-23.2,0-42-18.8-42-42s18.8-42,42-42s42,18.8,42,42S72.9,162,49.8,162z"/>
	<circle class="st3" cx="49.8" cy="120" r="29"/>
	<path class="st2" d="M243.6,442l-3.4,2.1c-2.1,1.3-4.9,0.7-6.2-1.4l-5.9-9.4l11-6.9l5.9,9.4C246.3,438,245.7,440.7,243.6,442z"/>
	<path class="st4" d="M213.8,439.7c-23.2,0-42-18.8-42-42s18.8-42,42-42s42,18.8,42,42S236.9,439.7,213.8,439.7z"/>
	<circle class="st3" cx="213.8" cy="397.7" r="29"/>
	<path d="M347.2,538.8l-0.5,17.6c4.1,1.6,9,0,11.3-3.9c2.6-4.4,1.2-10.1-3.2-12.8C352.4,538.3,349.6,538,347.2,538.8z"/>
	<path class="st2" d="M354.2,545.8l-0.1,4c0,2.5-2.1,4.4-4.6,4.4l-11-0.2l0.2-13l11,0.2C352.3,541.3,354.3,543.3,354.2,545.8z"/>
	<path class="st4" d="M336,569.5c-12.6,19.4-38.7,25-58.1,12.3c-19.4-12.6-25-38.7-12.3-58.1c12.6-19.4,38.7-25,58.1-12.3
		S348.6,550.1,336,569.5z"/>
	<circle class="st3" cx="300.8" cy="546.7" r="29"/>
	<path class="st2" d="M159.6,303.9l-3.4,2.1c-2.1,1.3-4.9,0.7-6.2-1.4l-5.9-9.4l11-6.9l5.9,9.4C162.3,299.8,161.7,302.6,159.6,303.9
		z"/>
	<path class="st4" d="M131.2,218.8c3.6,3.5,4.8,7.3,5.3,11.9c1.3,12.2-7.8,23.3-20.1,23.3c-10.4,0-18.9-7.7-20.2-17.7
		c-0.1-0.7-1-0.9-1.3-0.3c-5.2,7.7-7.9,17.2-7,27.3c1.8,20.3,18.3,36.5,38.6,38c24.6,1.8,45.2-17.7,45.2-41.9
		c0-22.5-17.8-40.9-40-42C131.1,217.5,130.7,218.3,131.2,218.8z"/>
	<path class="st3" d="M136.6,231.3c0.1,0.8,0.2,1.6,0.2,2.4c0,11.2-9.1,20.3-20.3,20.3c-5.3,0-10-2-13.6-5.3
		c-1.3,3.3-2.1,6.9-2.1,10.7c0,16,13,29,29,29c16,0,29-13,29-29C158.8,245.8,149.3,234.4,136.6,231.3z"/>
	<g>
		<path class="st5" d="M59.2,54.3c0,0.7-0.2,1.3-0.7,1.8c-0.5,0.5-1.1,0.8-1.8,0.8c-0.4,0-0.8-0.1-1.2-0.3c-0.4-0.2-0.8-0.6-1.2-1.3
			c-0.6-0.9-0.9-1.4-1-1.5c-0.7-0.8-1.6-1.5-2.7-2.1v0.3c0,1.3,0.3,2.6,0.8,3.9c0.6,1.3,0.9,2.1,0.9,2.4c0,0.7-0.2,1.3-0.7,1.8
			c-0.5,0.5-1.1,0.8-1.8,0.8c-0.7,0-1.3-0.3-1.8-0.8c-0.5-0.5-0.7-1.1-0.7-1.8c0-0.3,0.3-1.1,0.9-2.5c0.6-1.3,0.9-2.7,0.9-4.2
			c-1.2,0.7-2.1,1.4-2.7,2.1c-0.1,0.1-0.4,0.6-1,1.5c-0.4,0.7-0.8,1.1-1.2,1.3c-0.4,0.2-0.8,0.3-1.2,0.3c-0.7,0-1.3-0.3-1.8-0.8
			c-0.5-0.5-0.8-1.1-0.8-1.8c0-1,0.4-1.7,1.3-2.2c0.4-0.2,0.9-0.4,1.7-0.4c1.1-0.1,1.7-0.1,1.8-0.1c1-0.2,2.1-0.6,3.2-1.3
			c-1.1-0.7-2.2-1.1-3.2-1.3c-0.1,0-0.7-0.1-1.8-0.1c-0.8,0-1.3-0.2-1.7-0.4c-0.9-0.5-1.3-1.3-1.3-2.2c0-0.7,0.3-1.2,0.8-1.7
			c0.5-0.5,1.1-0.7,1.7-0.7c0.5,0,0.9,0.1,1.3,0.3c0.4,0.2,0.8,0.6,1.2,1.3c0.5,0.9,0.9,1.4,1,1.5c0.6,0.8,1.5,1.5,2.7,2.1
			c0-1.5-0.3-2.9-0.9-4.2c-0.6-1.3-0.9-2.2-0.9-2.5c0-0.7,0.2-1.3,0.7-1.8c0.5-0.5,1.1-0.7,1.8-0.7c0.7,0,1.3,0.2,1.8,0.7
			c0.5,0.5,0.7,1.1,0.7,1.8c0,0.3-0.3,1.1-0.9,2.5c-0.6,1.3-0.9,2.7-0.8,4.2c1.2-0.7,2.1-1.4,2.8-2.2c0.1-0.1,0.4-0.6,0.9-1.5
			c0.4-0.6,0.8-1,1.2-1.2c0.4-0.2,0.8-0.3,1.3-0.3c0.7,0,1.2,0.2,1.7,0.7c0.5,0.5,0.7,1.1,0.7,1.8c0,1-0.4,1.7-1.3,2.2
			c-0.4,0.2-0.9,0.4-1.7,0.4c-1,0-1.6,0.1-1.7,0.1c-1,0.2-2.1,0.6-3.2,1.3c1.2,0.7,2.2,1.1,3.2,1.3c0.2,0,0.8,0.1,1.8,0.1
			c0.8,0,1.3,0.2,1.7,0.4C58.8,52.6,59.2,53.3,59.2,54.3z"/>
	</g>
	<g>
		<path class="st5" d="M125.6,238.7c0,0.7-0.2,1.3-0.7,1.8c-0.5,0.5-1.1,0.8-1.8,0.8c-0.4,0-0.8-0.1-1.2-0.3
			c-0.4-0.2-0.8-0.6-1.2-1.3c-0.6-0.9-0.9-1.4-1-1.5c-0.7-0.8-1.6-1.5-2.7-2.1v0.3c0,1.3,0.3,2.6,0.8,3.9c0.6,1.3,0.9,2.1,0.9,2.4
			c0,0.7-0.2,1.3-0.7,1.8c-0.5,0.5-1.1,0.8-1.8,0.8c-0.7,0-1.3-0.3-1.8-0.8c-0.5-0.5-0.7-1.1-0.7-1.8c0-0.3,0.3-1.1,0.9-2.5
			c0.6-1.3,0.9-2.7,0.9-4.2c-1.2,0.7-2.1,1.4-2.7,2.1c-0.1,0.1-0.4,0.6-1,1.5c-0.4,0.7-0.8,1.1-1.2,1.3c-0.4,0.2-0.8,0.3-1.2,0.3
			c-0.7,0-1.3-0.3-1.8-0.8c-0.5-0.5-0.8-1.1-0.8-1.8c0-1,0.4-1.7,1.3-2.2c0.4-0.2,0.9-0.4,1.7-0.4c1.1-0.1,1.7-0.1,1.8-0.1
			c1-0.2,2.1-0.6,3.2-1.3c-1.1-0.7-2.2-1.1-3.2-1.3c-0.1,0-0.7-0.1-1.8-0.1c-0.8,0-1.3-0.2-1.7-0.4c-0.9-0.5-1.3-1.3-1.3-2.2
			c0-0.7,0.3-1.2,0.8-1.7c0.5-0.5,1.1-0.7,1.7-0.7c0.5,0,0.9,0.1,1.3,0.3c0.4,0.2,0.8,0.6,1.2,1.3c0.5,0.9,0.9,1.4,1,1.5
			c0.6,0.8,1.5,1.5,2.7,2.1c0-1.5-0.3-2.9-0.9-4.2c-0.6-1.3-0.9-2.2-0.9-2.5c0-0.7,0.2-1.3,0.7-1.8c0.5-0.5,1.1-0.7,1.8-0.7
			c0.7,0,1.3,0.2,1.8,0.7c0.5,0.5,0.7,1.1,0.7,1.8c0,0.3-0.3,1.1-0.9,2.5c-0.6,1.3-0.9,2.7-0.8,4.2c1.2-0.7,2.1-1.4,2.8-2.2
			c0.1-0.1,0.4-0.6,0.9-1.5c0.4-0.6,0.8-1,1.2-1.2c0.4-0.2,0.8-0.3,1.3-0.3c0.7,0,1.2,0.2,1.7,0.7c0.5,0.5,0.7,1.1,0.7,1.8
			c0,1-0.4,1.7-1.3,2.2c-0.4,0.2-0.9,0.4-1.7,0.4c-1,0-1.6,0.1-1.7,0.1c-1,0.2-2.1,0.6-3.2,1.3c1.2,0.7,2.2,1.1,3.2,1.3
			c0.2,0,0.8,0.1,1.8,0.1c0.8,0,1.3,0.2,1.7,0.4C125.2,237.1,125.6,237.8,125.6,238.7z"/>
	</g>
	
		<use xlink:href="#yellow"  width="13" height="13" x="-6.5" y="-6.5" transform="matrix(1 0 0 -1 352 590)"/>
	
		<use xlink:href="#yellow"  width="13" height="13" x="-6.5" y="-6.5" transform="matrix(0.6 0 0 -0.6 315.75 538.6693)"/>
	
		<use xlink:href="#yellow"  width="13" height="13" x="-6.5" y="-6.5" transform="matrix(0.6 0 0 -0.6 280.25 544.9763)"/>
	
		<use xlink:href="#yellow"  width="13" height="13" x="-6.5" y="-6.5" transform="matrix(0.6 0 0 -0.6 217.6695 415.75)"/>
	
		<use xlink:href="#yellow"  width="13" height="13" x="-6.5" y="-6.5" transform="matrix(0.6 0 0 -0.6 215.75 401.5667)"/>
	
		<use xlink:href="#yellow"  width="13" height="13" x="-6.5" y="-6.5" transform="matrix(0.6 0 0 -0.6 228.1489 395.25)"/>
	
		<use xlink:href="#yellow"  width="13" height="13" x="-6.5" y="-6.5" transform="matrix(0.6 0 0 -0.6 217.6695 378.75)"/>
	
		<use xlink:href="#yellow"  width="13" height="13" x="-6.5" y="-6.5" transform="matrix(0.6 0 0 -0.6 199.75 397.6667)"/>
	
		<use xlink:href="#yellow"  width="13" height="13" x="-6.5" y="-6.5" transform="matrix(1 0 0 -1 358 600.75)"/>
	
		<use xlink:href="#yellow"  width="13" height="13" x="-6.5" y="-6.5" transform="matrix(1 0 0 -1 371.6024 610.5)"/>
	
		<use xlink:href="#yellow"  width="13" height="13" x="-6.5" y="-6.5" transform="matrix(1 0 0 -1 384.1024 621.25)"/>
	
		<use xlink:href="#yellow"  width="13" height="13" x="-6.5" y="-6.5" transform="matrix(1 0 0 -1 398.5 618.75)"/>
	
		<use xlink:href="#yellow"  width="13" height="13" x="-6.5" y="-6.5" transform="matrix(1 0 0 -1 389 637.75)"/>
	
		<use xlink:href="#yellow"  width="13" height="13" x="-6.5" y="-6.5" transform="matrix(1 0 0 -1 376.5 631.75)"/>
	<path class="st6" d="M439.5,535.1c0.7-2.6,3.8-11.1,1.8-13.3s-11.9-10.3-14.8-10.8c-5.8-1-2.8-15.5-7.8-17.3
		c-5-1.8-11.2,10.9-13.3,10.9c-4.8,0-6.2-7.8-9.3-7.7c-7.8,0.3-3.8,15.4-8.3,17.3c-4.5,1.9-7-6.8-12-1.6s-11.4,5.9-7.8,10.3
		c4,4.8,8.5,14.3,7.3,19.3c-1.3,5-4.6,13.5-7.3,16s-13.4,13.3-2.7,31.8s35,18.5,39,18.5s30-2.3,41.3-17.3s1.5-27.8,0-30.8
		S434.8,552.9,439.5,535.1z"/>
	<ellipse class="st3" cx="407" cy="572.4" rx="30.5" ry="26.4"/>
	<ellipse class="st4" cx="541.3" cy="677.9" rx="65" ry="40"/>
	<circle class="st3" cx="563.8" cy="677.3" r="22.5"/>
	<path class="st4" d="M503.1,661c-13,2.7-20,28.3-0.9,31.9c1,0.2,1.6-1.1,0.8-1.8c-12.9-10.4-7.4-19.9,1-28.4
		C504.7,662,504.1,660.8,503.1,661z"/>
	<path class="st4" d="M538.1,661c-13,2.7-20,28.3-0.9,31.9c1,0.2,1.6-1.1,0.8-1.8c-12.9-10.4-7.4-19.9,1-28.4
		C539.7,662,539.1,660.8,538.1,661z"/>
	<path class="st4" d="M523.7,655.6c-16.6,3.7-25.5,35.6-1.2,40.4c1.4,0.3,2.2-1.5,1.1-2.4c-16.3-13-9.3-25.1,1.4-35.7
		C526,656.9,525.1,655.3,523.7,655.6z"/>
	<ellipse class="st4" cx="428.9" cy="751.9" rx="65" ry="40"/>
	<circle class="st3" cx="451.4" cy="751.3" r="22.5"/>
	<path class="st4" d="M390.8,735c-13,2.7-20,28.3-0.9,31.9c1,0.2,1.6-1.1,0.8-1.8c-12.9-10.4-7.4-19.9,1-28.4
		C392.4,736,391.8,734.8,390.8,735z"/>
	<path class="st4" d="M425.8,735c-13,2.7-20,28.3-0.9,31.9c1,0.2,1.6-1.1,0.8-1.8c-12.9-10.4-7.4-19.9,1-28.4
		C427.4,736,426.8,734.8,425.8,735z"/>
	<path class="st4" d="M411.4,729.6c-16.6,3.7-25.5,35.6-1.2,40.4c1.4,0.3,2.2-1.5,1.1-2.4c-16.3-13-9.3-25.1,1.4-35.7
		C413.7,730.9,412.8,729.3,411.4,729.6z"/>
	<ellipse class="st4" cx="558.9" cy="795.4" rx="65" ry="40"/>
	<circle class="st3" cx="581.4" cy="794.8" r="22.5"/>
	<path class="st4" d="M520.8,778.5c-13,2.7-20,28.3-0.9,31.9c1,0.2,1.6-1.1,0.8-1.8c-12.9-10.4-7.4-19.9,1-28.4
		C522.4,779.5,521.8,778.3,520.8,778.5z"/>
	<path class="st4" d="M555.8,778.5c-13,2.7-20,28.3-0.9,31.9c1,0.2,1.6-1.1,0.8-1.8c-12.9-10.4-7.4-19.9,1-28.4
		C557.4,779.5,556.8,778.3,555.8,778.5z"/>
	<path class="st4" d="M541.4,773.1c-16.6,3.7-25.5,35.6-1.2,40.4c1.4,0.3,2.2-1.5,1.1-2.4c-16.3-13-9.3-25.1,1.4-35.7
		C543.7,774.4,542.8,772.8,541.4,773.1z"/>
	<path class="st6" d="M563.1,600.6c-0.3,1-1.4,1.1-2.1,0.2c-0.7-0.9,0.9-4.4,0.7-5.5c-0.2-1.1-0.9-1.4-1.5-1.3
		c-0.5,0.1-0.9,0.7-1.1,1.9l-1.3,9.9c-0.1,0.8-1,1.3-1.7,0.8L548,601c-0.3-0.2-1.2-0.4-1.6,0.2s1.7,3,1.7,3c0.6,0.8,0.4,2.3-2.5,0.5
		l-2.9-1.4c-0.3-0.1-0.6-0.1-1,0l-0.2,0.1c-0.8,0.4-0.9,1.5-0.1,2l15.8,6.9c0.2,0.1,0.4,0.3,0.5,0.5l4.8,13.5
		c0.3,0.6,0.9,0.8,1.5,0.6l4.6-2.1c0.6-0.3,0.8-0.9,0.6-1.5l-7.5-12.2c-0.1-0.2-0.1-0.4-0.1-0.7l5.4-16.6c0.2-0.9-0.5-1.9-1.6-1.2
		C564.2,593.2,563.1,600.6,563.1,600.6z"/>
	<path class="st6" d="M503.3,856c-0.1-1,0.8-1.6,1.9-1s0.8,4.4,1.4,5.4c0.6,1,1.4,1,1.9,0.7c0.4-0.3,0.6-1,0.3-2.2l-2.5-9.6
		c-0.2-0.8,0.5-1.6,1.3-1.4l9.7,2c0.4,0.1,1.3-0.1,1.5-0.8s-2.7-2.1-2.7-2.1c-0.9-0.5-1.3-2,2.1-1.4l3.3,0.2c0.3,0,0.7-0.1,0.9-0.3
		l0.2-0.2c0.6-0.7,0.2-1.8-0.7-1.9l-17.2-0.5c-0.2,0-0.4-0.1-0.6-0.3l-9.5-10.7c-0.4-0.4-1.2-0.4-1.6,0l-3.4,3.6
		c-0.4,0.5-0.4,1.2,0,1.6l11.5,8.5c0.2,0.2,0.3,0.4,0.3,0.6l1.2,17.5c0.2,0.9,1.2,1.6,1.9,0.6S503.3,856,503.3,856z"/>
	<path class="st6" d="M448.4,875c0.7-0.8,1.7-0.5,2,0.7c0.3,1.1-2.7,3.6-3,4.7c-0.3,1.1,0.3,1.7,0.8,1.8c0.5,0.1,1.1-0.3,1.8-1.3
		l5.3-8.5c0.4-0.7,1.5-0.7,1.9,0l5.2,8.5c0.2,0.3,0.9,0.9,1.6,0.5s-0.3-3.5-0.3-3.5c-0.2-1,0.6-2.3,2.5,0.5l2.1,2.5
		c0.2,0.3,0.5,0.4,0.9,0.4h0.2c0.9,0,1.4-1,0.9-1.8l-11.4-12.8c-0.1-0.2-0.2-0.4-0.2-0.6l1.3-14.3c0-0.6-0.5-1.1-1.1-1.1h-5
		c-0.6,0-1.1,0.5-1.1,1.1l1.7,14.3c0,0.2-0.1,0.5-0.2,0.6l-11.9,12.8c-0.5,0.7-0.3,1.9,0.9,1.8C444.3,881.4,448.4,875,448.4,875z"/>
	<path class="st6" d="M543.9,875.4c0.9-0.5,1.8,0.2,1.6,1.4s-3.8,2.3-4.5,3.3s-0.4,1.7,0,2s1.1,0.2,2.2-0.5l8.1-5.9
		c0.7-0.5,1.6-0.1,1.8,0.7l1.6,9.8c0.1,0.4,0.5,1.2,1.2,1.1c0.7-0.1,1-3.3,1-3.3c0.2-1,1.4-1.9,2.1,1.4l1,3.1
		c0.1,0.3,0.3,0.6,0.6,0.7l0.2,0.1c0.8,0.3,1.7-0.4,1.5-1.3l-5.8-16.2c-0.1-0.2,0-0.5,0.1-0.7l6.5-12.7c0.2-0.6,0-1.2-0.6-1.5
		l-4.6-1.9c-0.6-0.2-1.2,0-1.5,0.6l-3.8,13.9c-0.1,0.2-0.2,0.4-0.4,0.5l-15.8,7.4c-0.8,0.5-1,1.7,0.2,2
		C537.7,879.7,543.9,875.4,543.9,875.4z"/>
	<path class="st6" d="M585.8,863.4c0.3-1,1.4-1,2.1-0.1s-1.2,4.3-1.1,5.5c0.1,1.1,0.8,1.5,1.4,1.4c0.5-0.1,0.9-0.7,1.2-1.8l1.9-9.8
		c0.2-0.8,1.1-1.2,1.8-0.7l7.9,6.1c0.3,0.2,1.2,0.5,1.7-0.1c0.4-0.6-1.5-3.1-1.5-3.1c-0.6-0.9-0.3-2.3,2.5-0.4l2.8,1.6
		c0.3,0.2,0.6,0.2,0.9,0.1l0.2-0.1c0.9-0.3,1-1.5,0.2-2l-15.3-7.9c-0.2-0.1-0.3-0.3-0.4-0.5l-3.9-13.8c-0.2-0.6-0.9-0.9-1.4-0.6
		l-4.7,1.8c-0.6,0.2-0.9,0.9-0.6,1.4l6.7,12.7c0.1,0.2,0.1,0.5,0,0.7l-6.5,16.2c-0.2,0.9,0.4,1.9,1.5,1.3
		C584.2,870.8,585.8,863.4,585.8,863.4z"/>
	<path class="st6" d="M609.7,624.3c-1,0.4-1.7-0.4-1.4-1.6c0.3-1.1,4.1-1.8,4.9-2.7s0.6-1.6,0.2-2s-1.1-0.3-2.2,0.2l-8.7,4.8
		c-0.7,0.4-1.6-0.1-1.7-0.9l-0.4-9.9c0-0.4-0.4-1.3-1.1-1.2s-1.4,3.2-1.4,3.2c-0.3,1-1.6,1.7-1.9-1.7l-0.6-3.2
		c-0.1-0.3-0.3-0.6-0.6-0.8l-0.2-0.1c-0.8-0.4-1.8,0.2-1.7,1.1l3.6,16.8c0,0.2,0,0.5-0.1,0.7l-8.1,11.8c-0.3,0.5-0.1,1.2,0.4,1.5
		l4.4,2.5c0.5,0.3,1.2,0.1,1.5-0.4l5.5-13.3c0.1-0.2,0.3-0.4,0.5-0.5l16.7-5.3c0.8-0.4,1.2-1.5,0.1-2
		C616.4,620.8,609.7,624.3,609.7,624.3z"/>
	<g>
		<g>
			<line class="st7" x1="450.6" y1="794.4" x2="469" y2="825"/>
			<g>
				<polygon points="476.3,837.1 459,824.2 468.4,824.1 473,815.8 				"/>
			</g>
		</g>
	</g>
	<g>
		<g>
			<line class="st7" x1="331.2" y1="595.5" x2="386.1" y2="687"/>
			<g>
				<polygon points="393.4,699.1 376.2,686.3 385.6,686.1 390.1,677.9 				"/>
			</g>
		</g>
	</g>
	<g>
		<g>
			<line class="st7" x1="247.3" y1="455.8" x2="266.9" y2="488.4"/>
			<g>
				<polygon points="274.1,500.5 256.9,487.6 266.3,487.5 270.8,479.2 				"/>
			</g>
		</g>
	</g>
	<g>
		<g>
			<line class="st7" x1="160.1" y1="310.6" x2="177.1" y2="338.8"/>
			<g>
				<polygon points="184.3,350.9 167.1,338 176.5,337.9 181.1,329.7 				"/>
			</g>
		</g>
	</g>
	<g>
		<g>
			<line class="st7" x1="81.7" y1="180" x2="98.3" y2="207.7"/>
			<g>
				<polygon points="105.6,219.8 88.4,206.9 97.8,206.8 102.3,198.5 				"/>
			</g>
		</g>
	</g>
	<text transform="matrix(1 0 0 1 130.6948 112.0895)"><tspan x="0" y="0" class="st8 st9">A B-cell is triggered when it encounters its</tspan><tspan x="0" y="28.8" class="st8 st9">matching antigen</tspan></text>
	<text transform="matrix(1 0 0 1 197.5825 223.2752)"><tspan x="0" y="0" class="st8 st9">The B-cell engulfs the antigen and</tspan><tspan x="0" y="28.8" class="st8 st9">digests it,</tspan></text>
	<text transform="matrix(1 0 0 1 18.3314 643.7498)"><tspan x="0" y="0" class="st8 st9">Cytokines secreted by </tspan><tspan x="0" y="28.8" class="st8 st9">the T-cell help the B-cell</tspan><tspan x="0" y="57.6" class="st8 st9">to multiply and mature</tspan><tspan x="0" y="86.4" class="st8 st9">into antibody producing</tspan><tspan x="0" y="115.2" class="st8 st9">plasma cells.</tspan></text>
	<text transform="matrix(1 0 0 1 18.3315 889.7073)"><tspan x="0" y="0" class="st8 st9">Released into the blood,</tspan><tspan x="0" y="28.8" class="st8 st9">antibodies lock onto matching antigens. The</tspan><tspan x="0" y="57.6" class="st8 st9">antigen-antibody complexes are then cleared by the</tspan><tspan x="0" y="86.4" class="st8 st9">complement cascade or by the liver and spleen.</tspan></text>
	<text transform="matrix(1 0 0 1 301.5188 445.6466)"><tspan x="0" y="0" class="st8 st9">This combination of antigen and</tspan><tspan x="-19.9" y="28.8" class="st8 st9">MHC attracts the help of a mature</tspan><tspan x="170.8" y="57.6" class="st8 st9">matching T-cell.</tspan></text>
	<text transform="matrix(1 0 0 1 262.6336 334.4608)"><tspan x="0" y="0" class="st8 st9">then it displays antigen fragments</tspan><tspan x="0" y="28.8" class="st8 st9">bound to its unique MHC molecules</tspan></text>
</g>
<g id="text">
</g>
</svg>
