<?xml version="1.0" encoding="UTF-8"?>
<svg xmlns="http://www.w3.org/2000/svg" height="2024" width="1680" viewBox="0 0 1680 2024">
<defs>
<radialGradient id="b" gradientUnits="userSpaceOnUse" cy="1800" cx="404" r="120">
<stop stop-color="#fff" offset="0"/>
<stop stop-color="#79c" offset="1"/>
</radialGradient>
</defs>
<path d="m0 2020h1680v-2020h-1680v2020" fill="#fec"/>
<path d="m32.6 812h1430" stroke="#000" stroke-dasharray="8 16" stroke-width="8" fill="none"/>
<g fill="#222">
<path d="m399 1512v63h-7.9l9.2 34.6 9.2-34.6h-7.9v-63h-2.6m73-180 31 54 6.9-4 9.3 34.6-25.3-25.3 6.9-4-31-54 2.3-1.3m-20.1 0-31 54-6.9-4-9.3 34.6 25.3-25.3-6.9-4 31-54-2.3-1.3m74.1-160-31 54-6.9-4-9.3 34.6 25.3-25.3-6.9-4 31-54-2.3-1.3m1.1-208v63h7.9l-9.2 34.6-9.2-34.6h7.9v-63h2.6m39-1 31 54 6.9-4 9.3 34.6-25.3-25.3 6.9-4-31-54 2.3-1.3m167.9-548.7v63h-7.9l9.2 34.6 9.2-34.6h-7.9v-63h-2.6m-37-5-31 54-6.9-4-9.3 34.6 25.3-25.3-6.9-4 31-54-2.3-1.3m-33.9 190-31 54-6.9-4-9.3 34.6 25.3-25.3-6.9-4 31-54-2.3-1.3m-61.9 179-31 54-6.9-4-9.3 34.6 25.3-25.3-6.9-4 31-54-2.3-1.3m-558.6 5v-63h-7.9l9.2-34.5 9.2 34.5h-7.9v62h-2.6m0 62v63h-7.9l9.2 34.5 9.2-34.5h-7.9v-62h-2.6"/>
<path d="m495 1970c-1.7.1-3.3 1-4.2 2.5l-2.3-.8c0 4 0 8 4 8 2.4 1.5 5.7.8 7.2-1.7 1.5-2.4.7-5.6-1.7-7.2-.9-.6-1.9-.8-3-.8m-203-2c-1 0-2 .2-3 .8-2.4 1.5-3.2 4.8-1.7 7.2s4.8 3.2 7.2 1.7c2.4-1.6 3.2-4.8 1.7-7.2-.9-1.5-2.6-2.4-4.2-2.4m184-7.2c-1.7.1-3.3.9-4.2 2.5-1.5 2.4-.7 5.6 1.7 7.2 2.4 1.5 5.7.7 7.2-1.7s.7-5.7-1.7-7.2c-.9-.6-1.9-.8-3-.8m-183-11c-1 0-2 .2-2.9.8-2.4 1.5-3.2 4.8-1.7 7.2 1.6 2.4 4.8 3.2 7.2 1.7 2.4-1.6 3.2-4.8 1.7-7.2-1-1.5-2.6-2.4-4.3-2.4m27.9-1.2c-1 0-2 .2-3 .8-2.4 1.6-3.2 4.8-1.7 7.2 1.6 2.5 4.8 3.2 7.2 1.7s3.2-4.8 1.7-7.2c-.9-1.5-2.6-2.4-4.2-2.5m153-5.2c-1.7.1-3.3 1-4.3 2.5-1.5 2.5-.7 5.7 1.7 7.2s5.6.7 7.2-1.7c1.5-2.5.7-5.7-1.7-7.2-.9-.6-2-.8-3-.8m14.9-1.6c-1.7.1-3.3 1-4.2 2.5-1.5 2.4-.7 5.7 1.7 7.2s5.6.8 7.2-1.7c1.5-2.4.7-5.6-1.7-7.2-.9-.6-1.9-.8-3-.8m-193-6.5c-1 0-2 .2-3 .8-2.4 1.5-3.2 4.8-1.7 7.2 1.6 2.4 4.8 3.2 7.2 1.7 2.4-1.6 3.2-4.8 1.7-7.2-.9-1.5-2.6-2.4-4.2-2.4m18-10.6c-1 0-2 .2-3 .8-2.4 1.5-3.2 4.8-1.7 7.2 1.6 2.4 4.8 3.2 7.2 1.7 2.4-1.6 3.2-4.8 1.7-7.2-.9-1.5-2.6-2.4-4.2-2.4m182-1.7c-1.7.1-3.3 1-4.2 2.5-1.5 2.4-.7 5.7 1.7 7.2s5.6.8 7.2-1.7c1.5-2.4.7-5.6-1.7-7.2-.9-.6-1.9-.8-3-.8m-210-6.7c-1 0-2 .2-3 .8-2.4 1.6-3.2 4.8-1.7 7.2s4.8 3.2 7.2 1.7 3.2-4.8 1.7-7.2c-.9-1.5-2.6-2.4-4.2-2.5m253-4.1c-1.7.1-3.3.9-4.3 2.5-1.5 2.5-.7 5.7 1.7 7.2s5.7.7 7.2-1.7c1.5-2.5.7-5.7-1.7-7.2-.9-.6-2-.8-3-.8m-241-.6c-2.4 1.5-3.2 4.8-1.7 7.2s4.8 3.2 7.2 1.7 3.2-4.8 1.7-7.2v-1.7zm225-2.5c-1.7.1-3.3 1-4.2 2.5-1.5 2.4-.7 5.6 1.7 7.2 2.4 1.5 5.6.8 7.2-1.7 1.5-2.4.7-5.7-1.7-7.2-.9-.6-1.9-.8-3-.8m-16 0c-1.7.1-3.3.9-4.3 2.5-1.5 2.4-.7 5.6 1.7 7.2 2.4 1.5 5.7.7 7.2-1.7s.7-5.6-1.7-7.2c-.9-.6-1.9-.8-2.9-.8m-268-19c-1 0-2 .2-2.9.8-2.4 1.5-3.2 4.8-1.7 7.2s4.8 3.2 7.2 1.7c2.4-1.6 3.2-4.8 1.7-7.2-1-1.6-2.6-2.5-4.3-2.5m330-7.5c-1.7.1-3.3.9-4.3 2.5-1.5 2.5-.7 5.7 1.7 7.2s5.7.7 7.2-1.7c1.5-2.5.7-5.7-1.7-7.2-.9-.6-1.9-.8-2.9-.8m-316-3c-1 0-2 .2-3 .8-2.4 1.6-3.2 4.8-1.7 7.2 1.6 2.4 4.8 3.2 7.2 1.7 2.4-1.6 3.2-4.8 1.7-7.2-.9-1.6-2.6-2.4-4.2-2.5m302-7.6c-1.7.1-3.3 1-4.2 2.5-1.5 2.4-.7 5.6 1.7 7.2 2.4 1.5 5.6.8 7.2-1.7 1.5-2.4.7-5.7-1.7-7.2-.9-.6-1.9-.8-3-.8m-289-4c-1 0-2 .2-3 .8-2.4 1.6-3.2 4.8-1.7 7.2 1.5 2.5 4.8 3.2 7.2 1.7s3.2-4.8 1.7-7.2c-.9-1.6-2.6-2.5-4.2-2.5m275-7.6c-1.7.1-3.3.9-4.2 2.5-1.5 2.4-.7 5.6 1.7 7.2 2.4 1.5 5.7.7 7.2-1.7s.7-5.7-1.7-7.2c-.9-.6-1.9-.8-3-.8m-295-5c-1 0-2 .2-3 .8-2.4 1.5-3.2 4.8-1.7 7.2 1.6 2.5 4.8 3.2 7.2 1.7s3.2-4.8 1.7-7.2c-.9-1.6-2.6-2.4-4.2-2.5m16.6-3.6c-1 0-2 .2-3 .8-2.4 1.6-3.2 4.8-1.7 7.2 1.6 2.5 4.8 3.2 7.2 1.7s3.2-4.8 1.7-7.2c-.9-1.5-2.6-2.4-4.2-2.5m299-3.9c-1.7.1-3.3 1-4.2 2.5-1.5 2.4-.7 5.7 1.7 7.2s5.7.8 7.2-1.7c1.5-2.4.7-5.6-1.7-7.2-.9-.6-1.9-.8-3-.8m-356-1.1c-1 0-2 .2-3 .8-2.4 1.6-3.2 4.8-1.7 7.2s4.8 3.2 7.2 1.7 3.2-4.8 1.7-7.2c-.9-1.5-2.6-2.4-4.2-2.5m340-2.5c-1.7.1-3.3 1-4.2 2.5-1.5 2.4-.7 5.7 1.7 7.2s5.7.8 7.2-1.7c1.5-2.4.7-5.6-1.7-7.2-.9-.6-1.9-.8-3-.8m-324-4.7c-1 0-2 .2-3 .8-2.4 1.6-3.2 4.8-1.7 7.2 1.5 2.5 4.8 3.2 7.2 1.7s3.2-4.8 1.7-7.2c-.9-1.5-2.6-2.4-4.2-2.5m19.6-5.5c-1 0-2 .2-2.9.8-2.4 1.5-3.2 4.8-1.7 7.2 1.5 2.5 4.8 3.2 7.2 1.7 2.4-1.6 3.2-4.8 1.7-7.2-1-1.5-2.6-2.4-4.3-2.5m20.4-1.8c-1 0-2 .2-3 .8-2.4 1.6-3.2 4.8-1.7 7.2s4.8 3.2 7.2 1.7 3.2-4.8 1.7-7.2c-.9-1.6-2.6-2.4-4.2-2.5m307-5c-1.7.1-3.3.9-4.3 2.5-1.5 2.4-.7 5.7 1.7 7.2s5.7.8 7.2-1.7c1.5-2.4.7-5.7-1.7-7.2-.9-.6-1.9-.8-2.9-.8m-20.5-1.8c-1.7.1-3.3 1-4.2 2.5-1.5 2.4-.7 5.7 1.7 7.2s5.6.8 7.2-1.7c1.5-2.4.8-5.7-1.7-7.2-.9-.6-1.9-.8-3-.8m40-2.9c-1.7.1-3.3 1-4.2 2.5-1.5 2.4-.7 5.6 1.7 7.2 2.4 1.5 5.7.8 7.2-1.7 1.5-2.4.7-5.7-1.7-7.2-.9-.6-1.9-.8-3-.8m14.6-11.2c-1.7.1-3.3 1-4.2 2.5-1.5 2.4-.7 5.7 1.7 7.2s5.6.7 7.2-1.7c1.5-2.4.7-5.6-1.7-7.2-.9-.6-1.9-.8-3-.8m-355-18c-1.7.1-3.3 1-4.3 2.5-1.5 2.4-.7 5.7 1.7 7.2s5.6.8 7.2-1.7c1.5-2.4.7-5.6-1.7-7.2-.9-.6-1.9-.8-2.9-.8m13-25c-1.7.1-3.3.9-4.2 2.5-1.5 2.4-.7 5.7 1.7 7.2s5.7.7 7.2-1.7.7-5.7-1.7-7.2c-.9-.6-1.9-.8-3-.8m1.7-19.6c-1.7.1-3.3.9-4.3 2.5-1.6 0-.8 4 1.2 4 2.4 1.5 5.7.7 7.2-1.7l.5 3.2c1.5-2.5.8-5.7-1.7-7.2-.9-.6-1.9-.8-2.9-.8m-16.6-3.5c-1.7.1-3.3 1-4.3 2.5-1.5 2.4-.7 5.7 1.7 7.2s5.7.8 7.2-1.7c1.5-2.4.7-5.6-1.7-7.2-.9-.6-1.9-.8-2.9-.8m19.5-15.7c-1.7.1-3.3.9-4.2 2.5-1.5 2.4-.7 5.6 1.7 7.2 2.4 1.5 5.6.7 7.2-1.8 1.5-2.4.7-5.6-1.7-7.1-.9-.6-1.9-.8-3-.8m-13.6-13c-1.7.1-3.3 1-4.2 2.5-1.5 2.4-.7 5.6 1.7 7.2 2.4 1.5 5.7.8 7.2-1.7 1.5-2.4.7-5.7-1.7-7.2-.9-.6-1.9-.8-3-.8m87-.2c-3.1 1.4-4.8 2.8-4.8 4.3 0 1.6 1.9 3.1 5.4 4.5zm125-3.2v10.5c4.8-1.6 7.5-3.4 7.5-5.3s-2.7-3.7-7.5-5.2m-226-7.2c-1.7.1-3.3 1-4.3 2.5-1.5 2.5-.7 5.7 1.7 7.2s5.7.7 7.2-1.8c1.5-2.4.7-5.6-1.7-7.2-.9-.6-1.9-.8-2.9-.8m61.7-24.8c-1.7.1-3.3 1-4.2 2.5-1.5 2.5-.7 5.7 1.7 7.2s5.7.7 7.2-1.8c1.5-2.4.7-5.6-1.7-7.2-.9-.6-1.9-.8-3-.8m-15.9-1.3c-1.7.1-3.3 1-4.2 2.5-1.5 2.4-.7 5.6 1.7 7.2 2.4 1.5 5.7.7 7.2-1.7 1.5-2.5.7-5.7-1.7-7.3-.9-.6-1.9-.8-3-.8m-15.2-4c-1.7.1-3.3 1-4.2 2.5-1.5 2.4-.7 5.6 1.7 7.2 2.4 1.5 5.7.7 7.2-1.7s.7-5.6-1.7-7.2c-.9-.6-1.9-.8-3-.8m43-8.7c-1.7.1-3.3.9-4.2 2.5-1.5 2.5-.7 5.7 1.7 7.2s5.7.7 7.2-1.7c1.5-2.5.7-5.7-1.7-7.2-.9-.6-1.9-.8-3-.8m-15.5-15.2c-1.7.1-3.3 1-4.2 2.5-1.5 2.4-.7 5.7 1.7 7.2s5.7.8 7.2-1.7c1.5-2.4.7-5.6-1.7-7.2-.9-.6-1.9-.8-3-.8m22.5-3.6c-1.7.1-3.3.9-4.2 2.5-1.5 2.5-.7 5.7 1.7 7.2 2.5 1.5 5.7.7 7.2-1.8 1.5-2.4.7-5.7-1.7-7.2-.9-.6-1.9-.8-3-.8m-23.7-17.4c-1.7.1-3.3.9-4.3 2.5-1.5 2.4-.7 5.6 1.7 7.2 2.4 1.5 5.7.8 7.2-1.7 1.5-2.4.7-5.7-1.7-7.2-.9-.6-1.9-.8-2.9-.8"/>
</g>
<g stroke="#222" stroke-width="3">
<path d="m736 560c-1.9-2.8.3-3.2 1.5-3.5 1.3-.3 1.6-2.2 1.6-2.2s-4.4-3.5-4.8-6c-.4-2.6 2.2-2.2 3.2-4.4s-2.2-3.2-3.8-4.4 0-3.2 0-3.2l2.6-2.8-3.4-3.8h-27c-8.4 0-15.3 6.8-15.3 15.3s6.8 15.3 15.3 15.3h31-.6zm16 0h28c8.4 0 15.3-6.8 15.3-15.3s-6.8-15.3-15.3-15.3h-27.8z" fill="#bbd"/>
<path d="m420 1480c-1.9-2.8.3-3.2 1.5-3.5s1.6-2.2 1.6-2.2-4.4-3.5-4.8-6c-.4-2.6 2.2-2.2 3.2-4.4s-2.2-3.2-3.8-4.4c-1.6-1.3 0-3.2 0-3.2l4-4-3.4-3.8h-27c-8.4 0-15.3 6.8-15.3 15.3s6.8 15.3 15.3 15.3h31-.6z" fill="#a5a"/>
</g>
<path d="m644 1080c-3.4 1-1.9 2.6-1.2 3.6.8 1-.3 2.8-.3 2.8s-5.6-.3-7.6 1.4c-1.9 1.8.2 3.2-.5 5.4-.8 2.3-3.8 1-5.8.9-2 0-2.1 2.4-2.1 2.4v3.8l-5.1.6-4.1-3.6c-6.4-5.6-7.1-15.2-1.6-21.6s15.2-7.1 21.6-1.6l7 6-.4-.3" fill="#5be"/>
<g stroke="#222" stroke-width="3">
<path d="m644 1080c-3.4 1-1.9 2.6-1.2 3.6.8 1-.3 2.8-.3 2.8s-5.6-.3-7.6 1.4c-1.9 1.8.2 3.2-.5 5.4-.8 2.3-3.8 1-5.8.9-2 0-2.1 2.4-2.1 2.4v3.8l-5.1.6-4.1-3.6c-6.4-5.6-7.1-15.2-1.6-21.6s15.2-7.1 21.6-1.6l7 6-.4-.3z" fill="none"/>
<path d="m599 752h26.8c8.4 0 15.3-6.8 15.3-15.3s-6.8-15.3-15.3-15.3h-26.8" fill="#bbd"/>
<g fill="#e15">
<path d="m624 536c3.1-1.6 1.4-2.9.4-3.8s-.3-2.8-.3-2.8 5.6-.8 7.2-2.8-.8-3-.6-5.4c.3-2.4 3.6-1.6 5.6-2 2-.3 1.6-2.8 1.6-2.8l-.8-3.8 4.9-1.6 23.5 13.6c7.4 4.2 9.8 13.6 5.6 20.9s-13.6 9.8-20.9 5.6l-26.8-15.4.5.3zm-12-8l-25.9-14.9c-7.3-4.2-9.8-13.6-5.6-20.9s13.6-9.8 20.9-5.6l24 13.8-13 28z"/>
<path d="m620 752c-1.9-2.8.3-3.2 1.5-3.5s1.6-2.2 1.6-2.2-4.5-3.5-4.8-6c-.3-2.6 2.2-2.2 3.2-4.4s-2.2-3.2-3.8-4.4 0-3.2 0-3.2l2.6-2.8-3.4-3.8h-27c-8.4 0-15.3 6.8-15.3 15.3s6.8 15.3 15.3 15.3h31-.6z"/>
</g>
<path d="m496 916c0 9.3 7.5 16.8 16.8 16.8h60c9.2 0 16.8-7.5 16.8-16.8 0-9.2-7.5-16.8-16.8-16.8h-60c-9.2 0-16.8 7.5-16.8 16.8z" fill="#5be"/>
<path fill="#f9c" d="m412 1300c0 9.2 7.5 16.8 16.8 16.8h59c9.2 0 16.8-7.5 16.8-16.8s-7.5-16.8-16.8-16.8h-59c-9.3 0-16.8 7.5-16.8 16.8zm92 170l10.6-20c4.2-7.4 13.5-10 20.8-5.8 7.4 4.2 10 13.4 5.8 20.8l-9.6 17.8"/>
<path d="m544 1130v-20c-.4-8.4-7.6-15-16-14.6s-15 7.6-14.6 16l.6 22.1m-58 160c-2.8-1.9-3.2.3-3.5 1.5-.3 1.3-2.2 1.6-2.2 1.6s-3.5-4.4-6-4.8c-2.6-.3-2.2 2.2-4.4 3.2s-3.2-2.2-4.4-3.8-3.2 0-3.2 0l-2.8 2.6-3.8-3.4v-9.4c0-8.4 6.8-15.3 15.3-15.3s15.3 6.8 15.3 15.3v13-.6z" fill="#09d"/>
</g>
<g stroke="#222" stroke-width="3">
<path d="m416 215c52 0 96-42.8 96-95s-44-95-96-95c-52.8 0-95 42.8-95 95s42.8 95 95 95z" fill="#79c"/>
<path d="m416 180c32.9 0 60-26.6 60-60 0-32.9-26.6-60-60-60-32.9 0-60 26.6-60 60 0 32.9 26.6 60 60 60z" fill="#9be"/>
<g fill="#f97">
<path d="m728 341l-41.6 14.5c0 5.8-3.6 11-9.2 13-7.2 2.5-15-1.3-17.6-8.5-2.5-7.2 1.3-15 8.5-17.6 6-2.1 12.6.3 16 5.3l40-14.4 4 7.6z"/>
<path d="m724 341l-16-38c4.2-3.9 5.6-10.2 3.2-15.7-3.1-7-11.2-10-18.2-7-7 3.1-10 11.2-7 18.2 2.6 5.8 8.8 9 14.8 8l15 38 7.4-3.2z"/>
</g>
<g fill="#0bc">
<path d="m612 351l-4.2 9.5-41.6-18.7 1.4 6.9-47 9-.6-2.8 9.1-7.8c.6-.5.5-.9-.2-1.2l-11.4-4.1-1.6-8 14.2-2.7 1.2 5.8 31.4-6 .8-1.6.3-.6.8-1.6-16.4-27.4-5.1 3-7.4-12.4 7-4.2 10.6 5.8c.6.4 1 .1 1-.6l-.1-12 2.6-1.4 24.8 41-6 3.6 41.6 18.7-4.2 9.6z"/>
<path d="m660 264l-6.2 8.4-36.6-27.4-.2 7-48-1.6v-2.9l10.6-5.7c.7-.3.7-.8 0-1.2l-10.2-6.4.2-8.2 14.4.4-.1 5.9 31.9 1 1.1-1.4.4-.5 1.1-1.4-10-30.5-5.6 1.8-4.5-13.7 7.8-2.5 9.1 7.9c.6.5 1 .4 1.1-.4l2.4-11.8 2.8-.8 15 45.6-6.7 2.2 36.6 27.4-6.2 8.4z"/>
</g>
<g fill="#7c9">
<path d="m704 361c3.8-8 13.3-11.3 21-7.5l31.6 15c8 3.8 11.3 13.4 7.5 21-3.8 8-13.3 11.3-21 7.5l-31.5-15c-8-3.8-11.3-13.3-7.5-21z"/>
<path d="m728 308c3.8-8 13.3-11.3 21-7.5l31.6 15c8 3.8 11.3 13.4 7.5 21-3.8 8-13.4 11.3-21 7.5l-31.6-15c-8-3.2-12-12.8-8-20.8z"/>
</g>
<path d="m720 256c1.9 6.4-.6 13.2-5.8 16.8l12 52.8c.3.1.6.3 1 .4l26.4 12.6c6.9 3.3 9.8 11.6 6.5 18.4-3.3 6.9-11.6 9.8-18.4 6.5l-26.4-12.6h-.1l-60 32.5c1.1 6.3-1.8 12.8-7.8 16-7.4 4-16.8 1.4-20.8-6.1s-1.4-16.8 6.1-20.8c6.2-3.4 13.8-2 18.4 2.9l58-31.5c-.4-.8-.7-1.8-.9-2.7l-70.8 15.8c-.7 6.3-5.4 11.8-11.9 13.2-8.2 1.8-16.4-3.4-18.3-11.6-1.8-8.2 3.4-16.4 11.6-18.3 7-1.6 13.8 1.9 16.9 7.9l70-15.6-32.6-49c-6.4 2-13.8-.4-17.6-6.4-4.6-7.2-2.4-16.6 4.7-21s16.6-2.4 21 4.7c3.6 5.6 3 12.8-1 17.8l32.5 48.8c1.4-1.1 2.8-1.9 4.4-2.4l-12-48.8c-6.8.2-13-4.2-15-11-2.4-8 2.2-16.6 10.4-19s16.6 2.2 19 10.4z" fill="#f92"/>
<path d="m576 277l-19.8 1.6-.4 21.3c0 1-.5 1.4-1.4.8l-17.5-10.5c-6.4 1.8-13.4 1.8-20 0l-19 9.8c-1 0-1.5-.5-1.5-1.5l1.2-20.8c-.4-.5-.8-1-1.2-1.6l-19-2.7c-1-.2-1.2-.7-.6-1.5l11.7-14.7v-.4l-40.8-22.5c-10.8-6-14.8-19.7-8.8-30.6 6-10.8 19.7-14.8 30.6-8.8l40.8 22.5c9.4-4.4 20.3-5.1 30.4-1.2l19-7.8c1-.4 1.4 0 1.3 1l-2.2 18.6c.6.8 1.2 1.5 1.6 2.3l20 4.6c1 .3 1.2.8.5 1.6l-14 15.6c0 2.3-.3 4.6-.6 6.8l11 16c.6.9.4 1.4-.7 1.5z" fill="#ff0"/>
</g>
<path d="m404 1920c66 0 119-53 119-119s-53-119-119-119c-54 0-100 35.8-114 85-3.2 10.8-5 22-5 34 0 66 53 119 119 119" fill="url(#b)"/>
<path d="m404 1920c66 0 119-53 119-119s-53-119-119-119c-54 0-100 35.8-114 85-3.2 10.8-5 22-5 34 0 66 53 119 119 119z" stroke="#222" stroke-linecap="round" stroke-width="3" fill="none"/>
<path d="m326 1720s-3.4.2-7.8-6.4c-4.4-6.6-1.2-19-2-16.7-.8 2.6-2.1 7.2-8.6 7.8s-8.6 6-8.6 6c-3.6 5.8 4.6 18 6.6 23.6 0 0 .3 2.8-1.8 6.1-2 0-4.8 4-4.8 4-5.8.8-20.4-1.1-24 4.8 0 0-1.9 2.3 1.6 5.2 3.6 3 2.8 7.9-1.4 8.4s.2 10.9 6.6 9.4c6.3-1.5 9.6 6.2 9.6 6.2" fill="#79c"/>
<path d="m326 1720s-3.4.2-7.8-6.4c-4.4-6.6-1.2-19-2-16.7-.8 2.6-2.1 7.2-8.6 7.8s-8.6 6-8.6 6c-3.6 5.8 4.6 18 6.6 23.6 0 0 .3 2.8-1.8 6.1-2 0-4.8 4-4.8 4-5.8.8-20.4-1.1-24 4.8 0 0-1.9 2.3 1.6 5.2 3.6 3 2.8 7.9-1.4 8.4s.2 10.9 6.6 9.4c6.3-1.5 9.6 6.2 9.6 6.2" stroke="#222" stroke-linecap="round" stroke-dasharray="21 21" stroke-width="3" fill="none"/>
<path d="m480 1890s5-1.8 9.5 4.8c4.4 6.6 2.8 14 2 16.7-.8 2.6 2.1-7.2 8.6-7.8s8.6-5.9 8.6-5.9c3.6-5.8-4.6-18-6.6-23.6 0 0-2.8-4.2-.8-7.5 2-3.4 7.4-3.2 7.4-3.2 5.8-.8 20.4 1.1 24-4.8 0 0 1.9-2.3-1.6-5.2-3.6-3-2.8-7.9 1.4-8.4s-.2-10.9-6.6-9.4c-6.3 1.5-9.2-5-9.2-5" fill="#79c"/>
<path d="m480 1890s5-1.8 9.5 4.8c4.4 6.6 2.8 14 2 16.7-.8 2.6 2.1-7.2 8.6-7.8s8.6-5.9 8.6-5.9c3.6-5.8-4.6-18-6.6-23.6 0 0-2.8-4.2-.8-7.5 2-3.4 7.4-3.2 7.4-3.2 5.8-.8 20.4 1.1 24-4.8 0 0 1.9-2.3-1.6-5.2-3.6-3-2.8-7.9 1.4-8.4s-.2-10.9-6.6-9.4c-6.3 1.5-9.2-5-9.2-5" stroke="#222" stroke-linecap="round" stroke-dasharray="21 21" stroke-width="3" fill="none"/>
<path d="m331 1890s-6.6.8-11 7.4c-4.4 6.6-5 7-4.2 9.5.8 2.6 0 0-6.6-.6s-8.6-5.9-8.6-5.9c-3.6-5.8 4.6-18 6.6-23.6 0 0 2.8-4.2.8-7.5-2-3.4-7.4-3.2-7.4-3.2-5.8-.8-20.4 1.1-24-4.8 0 0-1.9-2.3 1.6-5.2 3.6-3 2.8-7.9-1.4-8.4s.2-10.9 6.6-9.4c6.3 1.5 9.2-5 9.2-5" fill="#79c"/>
<g stroke="#222" stroke-width="3">
<path d="m331 1890s-6.6.8-11 7.4c-4.4 6.6-5 7-4.2 9.5.8 2.6 0 0-6.6-.6s-8.6-5.9-8.6-5.9c-3.6-5.8 4.6-18 6.6-23.6 0 0 2.8-4.2.8-7.5-2-3.4-7.4-3.2-7.4-3.2-5.8-.8-20.4 1.1-24-4.8 0 0-1.9-2.3 1.6-5.2 3.6-3 2.8-7.9-1.4-8.4s.2-10.9 6.6-9.4c6.3 1.5 9.2-5 9.2-5" stroke-linecap="round" stroke-dasharray="21 21" fill="none"/>
<path d="m464 1680v50.9c-14.7 8.1-34.4 11.4-60.4 11.4-28 0-49.1-4-62.3-12.3v-50" fill="#7c9"/>
<path d="m391 1690v-43c0-7 10.8-7.9 10.8-7.9h.8s10.8.9 10.8 7.9v46l-22.4-3.2z" fill="#bfe2ca"/>
</g>
<path d="m436 1660v31.9" fill="#fff"/>
<g stroke="#222" stroke-width="3">
<path d="m436 1660v31.9" fill="none"/>
<path d="m391 1700v-42s-.6-11.9-12.8-9.8c-10.2 1.8-10.8 6-7.7 10.4 0 0 1.1 2.3 1.1 4.8v35.4l19.5 1.5z" fill="#f9c"/>
</g>
<path d="m368 1660v31.9" fill="#fff"/>
<path stroke="#222" stroke-width="3" d="m368 1660v31.9" fill="none"/>
<path d="m432 1690v-23c0-4.2 2.2-9.2 2.2-9.2l.6-.8c3.2-4.4 2.4-8.6-7.7-10.4-12.2-2.2-12.8 9.8-12.8 9.8v38l17.6-4.6" fill="#f92"/>
<path stroke="#222" stroke-width="3" d="m432 1690v-23c0-4.2 2.2-9.2 2.2-9.2l.6-.8c3.2-4.4 2.4-8.6-7.7-10.4-12.2-2.2-12.8 9.8-12.8 9.8v38l17.6-4.6z" fill="none"/>
<path d="m356 1690v-23c0-4.2-2.1-9.2-2.1-9.2l-.6-.8c-3.2-4.4-2.4-8.6 7.7-10.4 12.2-2.2 12.8 9.8 12.8 9.8v38l-17.6-4.6" fill="#f92"/>
<g stroke="#222" stroke-width="3">
<path d="m356 1690v-23c0-4.2-2.1-9.2-2.1-9.2l-.6-.8c-3.2-4.4-2.4-8.6 7.7-10.4 12.2-2.2 12.8 9.8 12.8 9.8v38l-17.6-4.6z" fill="none"/>
<g fill="#7c9">
<path d="m432 1690v-23.6s1-19 13.4-14.7c14 4.9 8.9 10.2 8.9 10.2s-2.6-.6-3.2 2.6-1.9 23-1.9 23l-17.2 2.6z"/>
<path d="m444 1680v-15.3s3.8-16 17.8-10.8c9.9 3.6 9.6 11.5 7.6 14-1.9 2.6-6.4 5.8-6.4 5.8l-19 6.4z"/>
<path d="m362 1680v-15.3s-3.8-16-17.8-10.8c-9.9 3.6-9.6 11.5-7.6 14 1.9 2.6 6.4 5.8 6.4 5.8l19 6.4z"/>
<path d="m364 1680v-3.2s-3.9-9.2-16-9c-12 .2-14.7 5.1-14 9 .8 5 5.1 12 14.7 11.5 9.6-.6 15.3-8.3 15.3-8.3z"/>
<path d="m357 1700c-7.6-1.1-13-6.6-12.2-12.4s7.6-9.6 15-8.4c7.6 1.1 13 6.6 12.2 12.4s-7.6 9.6-15 8.5z"/>
<path d="m376 1710c-8.4-.8-14.8-6.6-14.2-13s7.8-11 16.3-10.4c8.4.8 14.8 6.6 14.2 13s-7.8 11-16.3 10.4"/>
<path d="m440 1680v-3.2s3.9-9.2 16-9c12 .2 14.6 5.1 14 9-.8 5-5.1 12-14.6 11.5-9.6-.6-15.3-8.3-15.3-8.3z"/>
<path d="m456 1690c-.8-5.8-7.6-9.6-15-8.4-7.6 1.1-13 6.6-12.2 12.4s7.6 9.6 15.1 8.45 12.9-6.65 12.1-12.4z"/>
<path d="m424 1710c8.4-.8 14.8-6.6 14.2-13s-7.8-11-16.3-10.4c-8.4.8-14.8 6.6-14.2 13s7.8 11 16.3 10.4z"/>
<path d="m400 1710c8.4 0 15.4-5.2 15.4-11.8 0-6.4-6.8-11.8-15.4-11.8-8.4 0-15.4 5.2-15.4 11.8 0 6.5 6.8 11.8 15.4 11.8z"/>
</g>
<g stroke-linejoin="bevel" fill="#999">
<path d="m544 1130c.4 8.6-2.4 7-3.2 8.2-1.2 2.3-3.4 2.1-3.4 2.1s-2.4-4.7-5-4.9c-2.6-.2-2.2 2.4-4.3 3.4-2.2 1-2.8.8-4.2-.8s-3.6-.4-3.6-.4l-2.8.4-4-3.2v-.2l3.7-3.6 3 2.4s2 1.5 3.2-.2 2-4.9 4.3-4c2.2.8 2 3.4 4.6 3s5.8-5 5.8-5 1.9.3 2.3 1.5c.4 1.2.8 3.4 3.6 1.4"/>
<path d="m504 1470c-4.2 7.5-.9 7.3-.9 8.8 0 2.6 2.1 3.4 2.1 3.4s4.3-3.1 6.6-2.1c2.4 1 .8 3 2.4 5 1.5 1.9 2.2 2 4.1 1.2s3.4 1.2 3.4 1.2l2.4 1.7 5-1.1.1-.2-1.6-4.8-3.8.8s-2.4.4-2.8-1.6c-.4-2 .4-5.2-2-5.6-2.4-.3-3.4 2.1-5.4.6-2-1.6-3-7.2-3-7.2s-1.8-.6-2.7.3c-.9 1-2.2 2.7-3.8-.4z"/>
<path d="m609 526c7.4 4.3 7.3 1 8.8 1 2.6 0 3.4-2.1 3.4-2.1s-3-4.4-2-6.7c1-2.4 3-.8 5-2.2s2-2.2 1.2-4c-.8-1.9 1.2-3.4 1.2-3.4l1.7-2.3-1-5-.1-.1-4.9 1.6.8 3.8s.4 2.4-1.6 2.8c-2 .3-5.2-.4-5.6 2-.3 2.4 2.1 3.4.6 5.4-1.6 2-7.2 2.8-7.2 2.8s-.7 1.8.3 2.7 2.6 2.2-.4 3.8z"/>
<path d="m753 560c-8.6 0-6.8-2.8-8-3.5-2.2-1.2-1.9-3.5-1.9-3.5s4.8-2.2 5.1-4.8-2.2-2.2-3.2-4.4-.6-2.8 1-4.2c1.6-1.3.6-3.5.6-3.5l-.3-2.8 3.4-3.8h.1l3.4 3.8-2.6 2.8s-1.6 1.9 0 3.2 4.8 2.2 3.8 4.4-3.5 1.9-3.2 4.4c.3 2.6 4.8 6 4.8 6s-.3 1.9-1.6 2.2c-1.2.3-3.4.6-1.6 3.5z"/>
</g>
</g>
<g stroke="#222" stroke-width="3" fill="none">
<path d="m464.9 1720c4.8 1.6 7.5 3.4 7.5 5.2 0 1.9-2.7 3.7-7.5 5.3m-125-1.5c-3.4-1.4-5.4-2.9-5.4-4.5s1.7-3 4.8-4.3m8.3-25.2v39m16.4-30v35.4m24.3-32.1v33.71m23.99-33.2v34.2m25.1-39v37.72m17-45v41m14.8-64h373m-111-1100v29.8h-149v-70m804.8-41.8h132v992h-129m130-496h45.6m-1130-631h84.7m-244-89h205m296-86h130v226h-130m130.4-113h45.6"/>
</g>
<g font-size="60" font-family="Arial, Helvetica, sans-serif">
<switch allowReorder="yes">
	<g systemLanguage="de">
		<text text-anchor="middle" y="-1588" x="980" font-size="70" transform="rotate(90)">Komplementkaskade</text>
		<g font-size="70">
			<text y="939" x="758"><tspan font-size="80">C3</tspan>-Hydrolyse</text>
			<text y="745" x="789">
				<tspan y="745" x="789"><tspan font-size="80">C3</tspan>-Konvertase</tspan>
			</text>
		</g>
		<text>
			<tspan y="1650" x="23.7">Die Zelle</tspan>
			<tspan y="1725" x="23.7">schwillt</tspan>
			<tspan y="1800" x="23.7">an und</tspan>
			<tspan y="1875" x="23.7">platzt</tspan>
		</text>
		<text>
			<tspan y="1660" x="877">C5b, C6, C7, C8 und C9</tspan>
			<tspan y="1739" x="877">bilden zusammen den</tspan>
			<tspan y="1822" x="877">zylindrischen Membran-</tspan>
			<tspan y="1897" x="877">Angriffskomplex</tspan>
		</text>
		<text y="880" x="82">
			<tspan y="880" x="82">Alternativer</tspan>
			<tspan y="955" x="82">Weg</tspan>
		</text>
		<text y="693" x="82">
			<tspan y="693" x="82">Klassischer</tspan>
			<tspan y="768" x="82">Weg</tspan>
		</text>
		<text y="1323" x="640">
			<tspan y="1323" x="640">C3b spaltet C5</tspan>
			<tspan y="1398" x="660">in C5a und C5b</tspan>
		</text>
		<text y="318" x="978" font-size="100px">C1-Komplex</text>
		<text y="274" x="26">Antigen</text>
		<text y="369" x="26">Antikörper <tspan font-size="50px">(IgG)</tspan></text>
		<text>
			<tspan y="528" x="846">C2a- und C4b-</tspan>
			<tspan y="603" x="848">Fragmente</tspan>
		</text>
		<text>
			<tspan y="1093" x="698">C3b- und C3a-</tspan>
			<tspan y="1169" x="700">Fragmente</tspan>
		</text>
	</g>
	<g systemLanguage="gl">
		<text font-size="70" transform="rotate(90)" text-anchor="middle" y="-1588" x="980">Cascada do complemento</text>
		<g font-size="70">
			<text y="939" x="758">Hidrólise de <tspan font-size="80">C3</tspan></text>
			<text y="745" x="789">Convertase de <tspan font-size="80">C3</tspan></text>
		</g>
		<text>
			<tspan y="1650" x="23.7">lisa</tspan>
			<tspan y="1725" x="23.7">da</tspan>
			<tspan y="1800" x="23.7">célula</tspan>
		</text>
		<text>
			<tspan y="1660" x="877">C5b, C6, C7, C8 e C9</tspan>
			<tspan y="1739" x="877">forman o complexo de</tspan>
			<tspan y="1822" x="877">ataque á membrana</tspan>
			<tspan y="1897" x="877">cilíndrica</tspan>
		</text>
		<text fill="#e15">
			<tspan y="768" x="82">Vía clásico</tspan>
			<tspan y="884" x="82">Vía alternativo</tspan>
		</text>
		<text y="1323" x="640">
			<tspan y="1323" x="640">C3b corta C5 formando os</tspan>
			<tspan y="1398" x="700">fragmentos C5a e C5b</tspan>
		</text>
		<text y="318" x="978" font-size="100px">Complexo C1</text>
		<text y="274" x="26">Antíxeno</text>
		<text y="369" x="26">Anticorpo <tspan font-size="50px">(IgG)</tspan></text>
		<text>
			<tspan y="528" x="846">fragmentos</tspan>
			<tspan y="603" x="848">C2a e C4b</tspan>
		</text>
		<text>
			<tspan y="1093" x="698">fragmentos</tspan>
			<tspan y="1169" x="700">C3b e C3a</tspan>
		</text>
	</g>
	<g systemLanguage="ca">
		<text font-size="70" transform="rotate(90)" text-anchor="middle" y="-1588" x="980">Cascada del complement</text>
		<text y="274" x="26">Antigen</text>
		<text y="369" x="26">Anticòs <tspan font-size="50px">(IgG)</tspan></text>
		<g font-size="70">
			<text y="939" x="758">Hidròlisi del <tspan font-size="80">C3</tspan></text>
			<text y="745" x="789"><tspan font-size="80">C3</tspan> Convertasa</text>
		</g>
		<text>
			<tspan y="1722" x="23.7">La</tspan>
			<tspan y="1797" x="23.7">cèl·lular</tspan>
			<tspan y="1872" x="23.7">s'infla</tspan>
			<tspan y="1947" x="23.7">i explota</tspan>
		</text>
		<text>
			<tspan y="1660" x="877">El C5b, C6, C7, C8 i C9</tspan>
			<tspan y="1739" x="877">s'uneixen per a formar</tspan>
			<tspan y="1822" x="877">el complex d'atac a la</tspan>
			<tspan y="1897" x="877">membrana cilíndrica</tspan>
		</text>
		<text>
			<tspan y="693" x="82">Ruta</tspan>
			<tspan y="768" x="82">clàssica</tspan>
			<tspan y="880" x="82">Ruta</tspan>
			<tspan y="955" x="82">alternativa</tspan>
		</text>
		<text y="1323" x="640">
			<tspan y="1323" x="640">El C3b fragmenta el C5</tspan>
			<tspan y="1398" x="700">en C5a i C5b</tspan>
		</text>
		<text y="318" x="978" font-size="100px">Complex C1</text>
		<text>
			<tspan y="528" x="846">Fragments de</tspan>
			<tspan y="603" x="848">C2a i C4b</tspan>
		</text>
		<text>
			<tspan y="1093" x="698">Fragments de</tspan>
			<tspan y="1169" x="700">C3b i C3a</tspan>
		</text>
	</g>
	<g systemLanguage="en">
		<text font-size="70" transform="rotate(90)" text-anchor="middle" y="-1588" x="980">Complement cascade</text>
		<text y="274" x="26">Antigen</text>
		<text y="369" x="26">Antibody <tspan font-size="56">(IgG)</tspan></text>
		<text y="528" x="846">C2a and C4b
			<tspan y="604" x="848">fragments</tspan>
		</text>
		<text y="1093" x="698">C3b and C3a
			<tspan y="1169" x="700">fragments</tspan>
		</text>
		<g font-size="70">
			<text y="939" x="758"><tspan font-size="80">C3</tspan> hydrolysis</text>
			<text y="745" x="789"><tspan font-size="80">C3</tspan> convertase</text>
		</g>
		<text>
			<tspan y="1705" x="23.7">Cell</tspan>
			<tspan y="1780" x="23.7">swells</tspan>
			<tspan y="1855" x="23.7">and</tspan>
			<tspan y="1930" x="23.7">bursts</tspan>
		</text>
		<text>
			<tspan y="1660" x="877">C5b, C6, C7, C8 and C9</tspan>
			<tspan y="1739" x="877">together form the</tspan>
			<tspan y="1822" x="877">cylindrical membrane</tspan>
			<tspan y="1897" x="877">attack complex</tspan>
		</text>
		<text y="693" x="82">
			<tspan y="693" x="82">Classical</tspan>
			<tspan y="768" x="82">pathway</tspan>
		</text>
		<text y="880" x="82">
			<tspan y="880" x="82">Alternative</tspan>
			<tspan y="955" x="82">pathway</tspan>
		</text>
		<text y="1323" x="640">
			<tspan y="1323" x="640">C3b cleaves C5</tspan>
			<tspan y="1398" x="660">into C5a and C5b</tspan>
		</text>
		<text y="318" x="978" font-size="100">C1 complex</text>
	</g>
	<g systemLanguage="fr">
		<text font-size="70" transform="rotate(90)" text-anchor="middle" y="-1588" x="980">Système du complément</text>
		<text y="274" x="26">Antigène</text>
		<text y="369" x="26">Anticorps <tspan font-size="56">(IgG)</tspan></text>
		<text y="528" x="846">Fragments
			<tspan y="604" x="848">C2a et C4b</tspan>
		</text>
		<text y="1093" x="698">Fragments
			<tspan y="1169" x="700">C3b and C3a</tspan>
		</text>
		<g font-size="70">
			<text y="939" x="758">Hydrolyse <tspan font-size="80">C3</tspan></text>
			<text y="745" x="789"><tspan font-size="80">C3</tspan>-convertase</text>
		</g>
		<text>
			<tspan y="1705" x="23.7">La cellule</tspan>
			<tspan y="1780" x="23.7">gonfle</tspan>
			<tspan y="1855" x="23.7">puis</tspan>
			<tspan y="1930" x="23.7">explose</tspan>
		</text>
		<text>
			<tspan y="1660" x="877">C5b, C6, C7, C8 et C9</tspan>
			<tspan y="1739" x="877">forment ensemble le</tspan>
			<tspan y="1822" x="877">complexe d'attaque</tspan>
			<tspan y="1897" x="877">membranaire</tspan>
		</text>
		<text y="693" x="82">
			<tspan y="693" x="82">Voie</tspan>
			<tspan y="768" x="82">classique</tspan>
		</text>
		<text y="880" x="82">
			<tspan y="880" x="82">Voie</tspan>
			<tspan y="955" x="82">alterne</tspan>
		</text>
		<text y="1323" x="640">
			<tspan y="1323" x="640">C3b sépare C5</tspan>
			<tspan y="1398" x="660">en C5a et C5b</tspan>
		</text>
		<text y="318" x="978" font-size="100">Complexe C1</text>
	</g>
</switch>
</g>
</svg>
