<?xml version="1.0" encoding="utf-8"?>
<!-- Generator: Adobe Illustrator 15.1.0, SVG Export Plug-In . SVG Version: 6.00 Build 0)  -->
<!DOCTYPE svg PUBLIC "-//W3C//DTD SVG 1.1//EN" "http://www.w3.org/Graphics/SVG/1.1/DTD/svg11.dtd">
<svg version="1.1" id="Layer_1" xmlns="http://www.w3.org/2000/svg" xmlns:xlink="http://www.w3.org/1999/xlink" x="0px" y="0px"
	 width="328px" height="496px" viewBox="0 0 328 496" enable-background="new 0 0 328 496" xml:space="preserve">
<g>
	<ellipse cx="113.968" cy="135.406" rx="5.068" ry="3.375"/>
	<g>
		
			<ellipse fill="#EE145A" stroke="#000000" stroke-width="0.5" stroke-miterlimit="10" cx="113.968" cy="131.163" rx="3.105" ry="5.243"/>
		<g>
			
				<radialGradient id="SVGID_1_" cx="109.6748" cy="115.7119" r="36.3409" gradientTransform="matrix(1 0 0 0.3713 0 72.7487)" gradientUnits="userSpaceOnUse">
				<stop  offset="0" style="stop-color:#17FFC6"/>
				<stop  offset="0.0952" style="stop-color:#23EFC2"/>
				<stop  offset="0.2601" style="stop-color:#34DABD"/>
				<stop  offset="0.4447" style="stop-color:#3FCBB9"/>
				<stop  offset="0.6629" style="stop-color:#46C3B7"/>
				<stop  offset="1" style="stop-color:#48C0B6"/>
			</radialGradient>
			<path fill="url(#SVGID_1_)" stroke="#000000" stroke-width="0.5" stroke-miterlimit="10" d="M124.135,105.899
				c0,0-16.772,2.493-27-5.375c-1.625-1.25-6.25,2.25-3.5,4.25c0,0-10.75,1.375-6.125,5s7.375,2.75,3.875,4.5s-3.5,3-3.25,4.25
				s2.625,3.75,5.125,2.5s3.875-0.75,2.625,1s0.875,3.875,2,4.125s3.625-2.75,3.875,0.75s2,4.375,5.875,4.25
				s11.375,0.011,11.375,0.011s4.875,0.239,5.75-3.886s5.75-1.375,6.125-2s3.375-3,1.5-4.75s-3.625-2.249-1.5-4.812
				s-0.25-4.938-2.125-5.188s-1.375-0.75-1.375-2.5S125.025,105.792,124.135,105.899z"/>
			<path fill="#EAD700" stroke="#000000" stroke-width="0.5" stroke-miterlimit="10" d="M110.635,110.149c0,0.552-0.448,1-1,1
				h-2.375c-0.552,0-1-0.448-1-1v-1.25c0-0.552,0.448-1,1-1h2.375c0.552,0,1,0.448,1,1V110.149z"/>
			<path fill="#EAD700" stroke="#000000" stroke-width="0.5" stroke-miterlimit="10" d="M120.239,115.061
				c0.188,0.519,0.047,1.047-0.317,1.18l-1.565,0.569c-0.364,0.133-0.812-0.181-1.001-0.7l-0.428-1.175
				c-0.188-0.519-0.047-1.047,0.317-1.179l1.565-0.57c0.364-0.132,0.813,0.181,1.001,0.7L120.239,115.061z"/>
			<path fill="#EAD700" stroke="#000000" stroke-width="0.5" stroke-miterlimit="10" d="M106.487,125.191
				c-0.212,0.652,0.125,1.387,0.753,1.641l2.701,1.091c0.628,0.254,1.309-0.069,1.521-0.721l0.479-1.477
				c0.212-0.652-0.125-1.387-0.753-1.64l-2.701-1.092c-0.628-0.254-1.309,0.069-1.521,0.721L106.487,125.191z"/>
			<path fill="#EAD700" stroke="#000000" stroke-width="0.5" stroke-miterlimit="10" d="M113.88,119.094
				c0.189,0.519,0.06,1.042-0.288,1.169l-1.498,0.545c-0.348,0.126-0.783-0.191-0.972-0.71l-0.428-1.175
				c-0.188-0.519-0.06-1.042,0.289-1.168l1.497-0.545c0.348-0.126,0.783,0.191,0.972,0.71L113.88,119.094z"/>
			<path fill="#EAD700" stroke="#000000" stroke-width="0.5" stroke-miterlimit="10" d="M103.763,116.313
				c0.095,0.259-0.25,0.623-0.769,0.812l-2.232,0.812c-0.519,0.189-1.016,0.132-1.111-0.128l-0.213-0.587
				c-0.095-0.259,0.25-0.623,0.769-0.812l2.231-0.813c0.519-0.189,1.016-0.131,1.111,0.128L103.763,116.313z"/>
		</g>
	</g>
</g>
<g>
	<ellipse cx="182.467" cy="171.551" rx="5.068" ry="3.375"/>
	<g>
		
			<ellipse fill="#EE145A" stroke="#000000" stroke-width="0.5" stroke-miterlimit="10" cx="182.468" cy="167.308" rx="3.104" ry="5.243"/>
		<g>
			
				<radialGradient id="SVGID_2_" cx="178.1748" cy="151.8574" r="36.3405" gradientTransform="matrix(1 0 0 0.3713 0 95.4736)" gradientUnits="userSpaceOnUse">
				<stop  offset="0" style="stop-color:#17FFC6"/>
				<stop  offset="0.0952" style="stop-color:#23EFC2"/>
				<stop  offset="0.2601" style="stop-color:#34DABD"/>
				<stop  offset="0.4447" style="stop-color:#3FCBB9"/>
				<stop  offset="0.6629" style="stop-color:#46C3B7"/>
				<stop  offset="1" style="stop-color:#48C0B6"/>
			</radialGradient>
			<path fill="url(#SVGID_2_)" stroke="#000000" stroke-width="0.5" stroke-miterlimit="10" d="M192.635,142.044
				c0,0-16.772,2.493-27-5.375c-1.625-1.25-6.25,2.25-3.5,4.25c0,0-10.75,1.375-6.125,5s7.375,2.75,3.875,4.5s-3.5,3-3.25,4.25
				s2.625,3.75,5.125,2.5s3.875-0.75,2.625,1s0.875,3.875,2,4.125s3.625-2.75,3.875,0.75s2,4.375,5.875,4.25
				s11.375,0.011,11.375,0.011s4.875,0.239,5.75-3.886s5.75-1.375,6.125-2s3.375-3,1.5-4.75s-3.625-2.249-1.5-4.812
				s-0.25-4.938-2.125-5.188s-1.375-0.75-1.375-2.5S193.525,141.937,192.635,142.044z"/>
			<path fill="#EAD700" stroke="#000000" stroke-width="0.5" stroke-miterlimit="10" d="M179.135,146.294c0,0.552-0.447,1-1,1
				h-2.375c-0.553,0-1-0.448-1-1v-1.25c0-0.552,0.447-1,1-1h2.375c0.553,0,1,0.448,1,1V146.294z"/>
			<path fill="#EAD700" stroke="#000000" stroke-width="0.5" stroke-miterlimit="10" d="M188.739,151.206
				c0.188,0.519,0.047,1.047-0.317,1.18l-1.565,0.569c-0.364,0.133-0.812-0.181-1.001-0.7l-0.428-1.175
				c-0.188-0.519-0.047-1.047,0.317-1.179l1.565-0.57c0.363-0.132,0.813,0.181,1.001,0.7L188.739,151.206z"/>
			<path fill="#EAD700" stroke="#000000" stroke-width="0.5" stroke-miterlimit="10" d="M174.986,161.336
				c-0.212,0.652,0.125,1.387,0.754,1.641l2.701,1.091c0.629,0.254,1.309-0.069,1.521-0.721l0.479-1.477
				c0.212-0.652-0.125-1.387-0.753-1.64l-2.701-1.092c-0.628-0.254-1.309,0.069-1.521,0.721L174.986,161.336z"/>
			<path fill="#EAD700" stroke="#000000" stroke-width="0.5" stroke-miterlimit="10" d="M182.381,155.239
				c0.188,0.519,0.06,1.042-0.289,1.169l-1.497,0.545c-0.349,0.126-0.783-0.191-0.972-0.71l-0.428-1.175
				c-0.189-0.519-0.061-1.042,0.288-1.168l1.497-0.545c0.348-0.126,0.783,0.191,0.973,0.71L182.381,155.239z"/>
			<path fill="#EAD700" stroke="#000000" stroke-width="0.5" stroke-miterlimit="10" d="M172.263,152.458
				c0.095,0.259-0.249,0.623-0.769,0.812l-2.232,0.812c-0.519,0.189-1.016,0.132-1.11-0.128l-0.214-0.587
				c-0.094-0.259,0.25-0.623,0.77-0.812l2.23-0.813c0.52-0.189,1.017-0.131,1.111,0.128L172.263,152.458z"/>
		</g>
	</g>
</g>
<g>
	
		<ellipse fill="#EE145A" stroke="#000000" stroke-width="0.5" stroke-miterlimit="10" cx="44.415" cy="92.01" rx="3.105" ry="5.243"/>
	
		<radialGradient id="SVGID_3_" cx="40.1221" cy="76.5596" r="36.3405" gradientTransform="matrix(1 0 0 0.3713 0 48.1334)" gradientUnits="userSpaceOnUse">
		<stop  offset="0" style="stop-color:#17FFC6"/>
		<stop  offset="0.0952" style="stop-color:#23EFC2"/>
		<stop  offset="0.2601" style="stop-color:#34DABD"/>
		<stop  offset="0.4447" style="stop-color:#3FCBB9"/>
		<stop  offset="0.6629" style="stop-color:#46C3B7"/>
		<stop  offset="1" style="stop-color:#48C0B6"/>
	</radialGradient>
	<path fill="url(#SVGID_3_)" stroke="#000000" stroke-width="0.5" stroke-miterlimit="10" d="M62.832,81.372
		c-1.875-1.75-3.625-2.249-1.5-4.812s-0.25-4.938-2.125-5.188s-1.375-0.75-1.375-2.5s-2.36-2.232-3.25-2.125
		c0,0-2.295,0.34-5.701,0.372c-0.055,0.578-0.056,1.219,0.004,1.937c0.25,3,2.5,3.25,4.583,8s-6.083,6.75-9.053,7.5
		s-9.78-0.75-7.546-4s0.266-3.25,0.016-6.5s2.5-1.5,4.425-2c1.154-0.3-0.125-3.287-1.336-5.638
		c-4.258-0.753-8.741-2.237-12.392-5.045c-1.625-1.25-6.25,2.25-3.5,4.25c0,0-10.75,1.375-6.125,5s7.375,2.75,3.875,4.5
		s-3.5,3-3.25,4.25s2.625,3.75,5.125,2.5s3.875-0.75,2.625,1s0.875,3.875,2,4.125s3.625-2.75,3.875,0.75s2,4.375,5.875,4.25
		s11.375,0.011,11.375,0.011s4.875,0.239,5.75-3.886s5.75-1.375,6.125-2S64.707,83.122,62.832,81.372z"/>
</g>
<polygon fill="#EAD700" points="48.54,76.06 46.281,76.06 48.237,74.93 47.737,74.064 45.781,75.193 46.911,73.237 46.044,72.737 
	44.915,74.693 44.915,72.435 43.915,72.435 43.915,74.693 42.786,72.737 41.919,73.237 43.049,75.193 41.093,74.064 40.593,74.93 
	42.549,76.06 40.29,76.06 40.29,77.06 42.549,77.06 40.593,78.189 41.093,79.055 43.049,77.926 41.919,79.882 42.786,80.382 
	43.915,78.426 43.915,80.685 44.915,80.685 44.915,78.426 46.044,80.382 46.911,79.882 45.781,77.926 47.737,79.055 48.237,78.189 
	46.281,77.06 48.54,77.06 "/>
<g>
	<circle fill="#0095DB" stroke="#000000" stroke-width="0.5" stroke-miterlimit="10" cx="35.135" cy="39.316" r="18.333"/>
	<path fill="#A85FA9" stroke="#000000" stroke-width="0.5" stroke-miterlimit="10" d="M42.968,10.212h-2
		c0,3.217-2.617,5.833-5.833,5.833s-5.833-2.617-5.833-5.833h-2c0,3.98,2.986,7.269,6.833,7.762v3.008h2v-3.008
		C39.982,17.481,42.968,14.192,42.968,10.212z"/>
	<radialGradient id="SVGID_4_" cx="35.1343" cy="42.3818" r="11.7005" gradientUnits="userSpaceOnUse">
		<stop  offset="0" style="stop-color:#B9D6FF"/>
		<stop  offset="0.2819" style="stop-color:#B7D5FF"/>
		<stop  offset="0.4327" style="stop-color:#AFD2FD"/>
		<stop  offset="0.5524" style="stop-color:#A1CEFA"/>
		<stop  offset="0.6558" style="stop-color:#8EC7F7"/>
		<stop  offset="0.7487" style="stop-color:#75BEF2"/>
		<stop  offset="0.8341" style="stop-color:#56B3EC"/>
		<stop  offset="0.9137" style="stop-color:#32A6E5"/>
		<stop  offset="0.9868" style="stop-color:#0898DD"/>
		<stop  offset="1" style="stop-color:#0095DB"/>
	</radialGradient>
	<ellipse fill="url(#SVGID_4_)" cx="35.134" cy="42.382" rx="12.017" ry="11.375"/>
</g>
<g>
	<circle fill="#0095DB" stroke="#000000" stroke-width="0.5" stroke-miterlimit="10" cx="182.468" cy="199.566" r="18.333"/>
	<path fill="#A85FA9" stroke="#000000" stroke-width="0.5" stroke-miterlimit="10" d="M190.301,170.462h-2
		c0,3.217-2.616,5.833-5.833,5.833s-5.833-2.617-5.833-5.833h-2c0,3.98,2.985,7.269,6.833,7.762v3.008h2v-3.008
		C187.315,177.731,190.301,174.442,190.301,170.462z"/>
	<radialGradient id="SVGID_5_" cx="182.4668" cy="202.6318" r="11.7007" gradientUnits="userSpaceOnUse">
		<stop  offset="0" style="stop-color:#B9D6FF"/>
		<stop  offset="0.2819" style="stop-color:#B7D5FF"/>
		<stop  offset="0.4327" style="stop-color:#AFD2FD"/>
		<stop  offset="0.5524" style="stop-color:#A1CEFA"/>
		<stop  offset="0.6558" style="stop-color:#8EC7F7"/>
		<stop  offset="0.7487" style="stop-color:#75BEF2"/>
		<stop  offset="0.8341" style="stop-color:#56B3EC"/>
		<stop  offset="0.9137" style="stop-color:#32A6E5"/>
		<stop  offset="0.9868" style="stop-color:#0898DD"/>
		<stop  offset="1" style="stop-color:#0095DB"/>
	</radialGradient>
	<ellipse fill="url(#SVGID_5_)" cx="182.467" cy="202.632" rx="12.017" ry="11.375"/>
</g>
<g>
	<path fill="#0095DB" stroke="#000000" stroke-width="0.5" stroke-miterlimit="10" d="M194.484,265.899
		c-1.65-2.5,1.15-5.75,1.4-8.75s-5-2.75-6.75-5.358s-2.25-5.642-3.563-5.642s-2.188,4.5-4.854,4.25s-2.583-2.5-4.333-2.5
		s-1.5,7-3.5,5.75s-5.5,1.5-6.096,4.5c-0.788,3.967,2.759,6.029,2.096,9.25s-7.834,7.511-6.5,12.006
		c0,6.631,8.208,12.006,18.333,12.006c10.126,0,18.334-5.375,18.334-12.006C198.717,272.661,196.135,268.399,194.484,265.899z"/>
	<path fill="#A85FA9" stroke="#000000" stroke-width="0.5" stroke-miterlimit="10" d="M188.469,239.555h-2
		c0,3.217-2.617,5.833-5.834,5.833s-5.832-2.617-5.832-5.833h-2c0,3.98,2.984,7.269,6.832,7.762v3.009h2v-3.009
		C185.482,246.824,188.469,243.535,188.469,239.555z"/>
	
		<radialGradient id="SVGID_6_" cx="180.6348" cy="276.7451" r="11.7007" gradientTransform="matrix(1 0 0 0.7849 0 62.0998)" gradientUnits="userSpaceOnUse">
		<stop  offset="0" style="stop-color:#B9D6FF"/>
		<stop  offset="0.2819" style="stop-color:#B7D5FF"/>
		<stop  offset="0.4327" style="stop-color:#AFD2FD"/>
		<stop  offset="0.5524" style="stop-color:#A1CEFA"/>
		<stop  offset="0.6558" style="stop-color:#8EC7F7"/>
		<stop  offset="0.7487" style="stop-color:#75BEF2"/>
		<stop  offset="0.8341" style="stop-color:#56B3EC"/>
		<stop  offset="0.9137" style="stop-color:#32A6E5"/>
		<stop  offset="0.9868" style="stop-color:#0898DD"/>
		<stop  offset="1" style="stop-color:#0095DB"/>
	</radialGradient>
	<ellipse fill="url(#SVGID_6_)" cx="180.635" cy="279.328" rx="12.017" ry="8.929"/>
</g>
<g>
	<path fill="#0095DB" stroke="#000000" stroke-width="0.5" stroke-miterlimit="10" d="M248.484,314.601
		c-1.65-2.5,1.15-5.75,1.4-8.75s-5-2.75-6.75-5.358s-2.25-5.642-3.563-5.642s-2.188,4.5-4.854,4.25s-2.583-2.5-4.333-2.5
		s-1.5,7-3.5,5.75s-5.5,1.5-6.096,4.5c-0.787,3.967,2.759,6.029,2.096,9.25s-7.834,7.511-6.5,12.006
		c0,6.631,8.207,12.006,18.332,12.006c10.126,0,18.334-5.375,18.334-12.006C252.717,321.362,250.135,317.101,248.484,314.601z"/>
	<path fill="#A85FA9" stroke="#000000" stroke-width="0.5" stroke-miterlimit="10" d="M242.469,288.257h-2
		c0,3.217-2.617,5.833-5.834,5.833s-5.832-2.616-5.832-5.833h-2c0,3.979,2.984,7.269,6.832,7.762v3.009h2v-3.009
		C239.482,295.525,242.469,292.236,242.469,288.257z"/>
	
		<radialGradient id="SVGID_7_" cx="234.6348" cy="338.7891" r="11.7007" gradientTransform="matrix(1 0 0 0.7849 0 62.0998)" gradientUnits="userSpaceOnUse">
		<stop  offset="0" style="stop-color:#B9D6FF"/>
		<stop  offset="0.2819" style="stop-color:#B7D5FF"/>
		<stop  offset="0.4327" style="stop-color:#AFD2FD"/>
		<stop  offset="0.5524" style="stop-color:#A1CEFA"/>
		<stop  offset="0.6558" style="stop-color:#8EC7F7"/>
		<stop  offset="0.7487" style="stop-color:#75BEF2"/>
		<stop  offset="0.8341" style="stop-color:#56B3EC"/>
		<stop  offset="0.9137" style="stop-color:#32A6E5"/>
		<stop  offset="0.9868" style="stop-color:#0898DD"/>
		<stop  offset="1" style="stop-color:#0095DB"/>
	</radialGradient>
	<ellipse fill="url(#SVGID_7_)" cx="234.635" cy="328.029" rx="12.017" ry="8.929"/>
</g>
<g>
	<path fill="#0095DB" stroke="#000000" stroke-width="0.5" stroke-miterlimit="10" d="M293.984,323.149
		c-1.65-2.5,1.15-5.75,1.4-8.75s-5-2.75-6.75-5.358s-2.25-5.642-3.563-5.642s-2.188,4.5-4.854,4.25s-2.583-2.5-4.333-2.5
		s-1.5,7-3.5,5.75s-5.5,1.5-6.096,4.5c-0.787,3.967,2.759,6.029,2.096,9.25s-7.834,7.511-6.5,12.006
		c0,6.631,8.207,12.006,18.332,12.006c10.126,0,18.334-5.375,18.334-12.006C298.217,329.911,295.635,325.649,293.984,323.149z"/>
	<path fill="#A85FA9" stroke="#000000" stroke-width="0.5" stroke-miterlimit="10" d="M287.969,296.806h-2
		c0,3.217-2.617,5.833-5.834,5.833s-5.832-2.616-5.832-5.833h-2c0,3.979,2.984,7.269,6.832,7.762v3.009h2v-3.009
		C284.982,304.074,287.969,300.785,287.969,296.806z"/>
	
		<radialGradient id="SVGID_8_" cx="280.1348" cy="349.6797" r="11.7007" gradientTransform="matrix(1 0 0 0.7849 0 62.0998)" gradientUnits="userSpaceOnUse">
		<stop  offset="0" style="stop-color:#B9D6FF"/>
		<stop  offset="0.2819" style="stop-color:#B7D5FF"/>
		<stop  offset="0.4327" style="stop-color:#AFD2FD"/>
		<stop  offset="0.5524" style="stop-color:#A1CEFA"/>
		<stop  offset="0.6558" style="stop-color:#8EC7F7"/>
		<stop  offset="0.7487" style="stop-color:#75BEF2"/>
		<stop  offset="0.8341" style="stop-color:#56B3EC"/>
		<stop  offset="0.9137" style="stop-color:#32A6E5"/>
		<stop  offset="0.9868" style="stop-color:#0898DD"/>
		<stop  offset="1" style="stop-color:#0095DB"/>
	</radialGradient>
	<ellipse fill="url(#SVGID_8_)" cx="280.135" cy="336.578" rx="12.017" ry="8.929"/>
</g>
<ellipse fill="#EAD700" stroke="#000000" stroke-width="0.5" stroke-miterlimit="10" cx="202.093" cy="175.101" rx="3.042" ry="2.549"/>
<ellipse fill="#EAD700" stroke="#000000" stroke-width="0.5" stroke-miterlimit="10" cx="164.134" cy="172.552" rx="3.042" ry="2.549"/>
<ellipse fill="#EAD700" stroke="#000000" stroke-width="0.5" stroke-miterlimit="10" cx="157.896" cy="177.649" rx="3.042" ry="2.549"/>
<ellipse fill="#EAD700" stroke="#000000" stroke-width="0.5" stroke-miterlimit="10" cx="154.364" cy="186.101" rx="2.271" ry="2.549"/>
<ellipse fill="#EAD700" stroke="#000000" stroke-width="0.5" stroke-miterlimit="10" cx="158.156" cy="193.806" rx="1.521" ry="2.549"/>
<ellipse fill="#EAD700" stroke="#000000" stroke-width="0.5" stroke-miterlimit="10" cx="165.261" cy="181.233" rx="3.042" ry="2.549"/>
<ellipse fill="#EAD700" stroke="#000000" stroke-width="0.5" stroke-miterlimit="10" cx="195.089" cy="180.198" rx="2.437" ry="2.549"/>
<ellipse fill="#EAD700" stroke="#000000" stroke-width="0.5" stroke-miterlimit="10" cx="200.801" cy="183.782" rx="2.438" ry="2.549"/>
<ellipse fill="#EAD700" stroke="#000000" stroke-width="0.5" stroke-miterlimit="10" cx="205.997" cy="192.158" rx="1.576" ry="1.647"/>
<ellipse transform="matrix(0.5 -0.866 0.866 0.5 -172.9375 270.2929)" fill="#EAD700" stroke="#000000" stroke-width="0.5" stroke-miterlimit="10" cx="147.619" cy="284.919" rx="3.042" ry="2.549"/>
<ellipse transform="matrix(0.5 -0.866 0.866 0.5 -179.1756 275.3902)" fill="#EAD700" stroke="#000000" stroke-width="0.5" stroke-miterlimit="10" cx="148.915" cy="292.871" rx="3.042" ry="2.549"/>
<ellipse transform="matrix(0.5 -0.866 0.866 0.5 -182.7085 283.8546)" fill="#EAD700" stroke="#000000" stroke-width="0.5" stroke-miterlimit="10" cx="154.468" cy="300.155" rx="2.271" ry="2.549"/>
<ellipse transform="matrix(0.5 -0.8661 0.8661 0.5 -178.9166 291.5736)" fill="#EAD700" stroke="#000000" stroke-width="0.5" stroke-miterlimit="10" cx="163.036" cy="300.724" rx="1.521" ry="2.549"/>
<ellipse transform="matrix(0.5 -0.866 0.866 0.5 -171.8118 278.9972)" fill="#EAD700" stroke="#000000" stroke-width="0.5" stroke-miterlimit="10" cx="155.701" cy="288.285" rx="3.042" ry="2.549"/>
<ellipse transform="matrix(0.5 0.8661 -0.8661 0.5 355.5468 -37.5667)" fill="#EAD700" stroke="#000000" stroke-width="0.5" stroke-miterlimit="10" cx="210.305" cy="289.11" rx="3.042" ry="2.548"/>
<ellipse transform="matrix(0.5001 0.866 -0.866 0.5001 348.4875 -32.4944)" fill="#EAD700" stroke="#000000" stroke-width="0.5" stroke-miterlimit="10" cx="202.389" cy="285.594" rx="2.437" ry="2.549"/>
<ellipse transform="matrix(0.5001 0.866 -0.866 0.5001 354.1987 -28.9112)" fill="#EAD700" stroke="#000000" stroke-width="0.5" stroke-miterlimit="10" cx="202.141" cy="292.332" rx="2.437" ry="2.549"/>
<ellipse transform="matrix(0.5 0.866 -0.866 0.5 359.4431 -20.5121)" fill="#EAD700" stroke="#000000" stroke-width="0.5" stroke-miterlimit="10" cx="197.485" cy="301.02" rx="1.575" ry="1.648"/>
<ellipse transform="matrix(0.2588 0.9659 -0.9659 0.2588 330.5574 109.9546)" fill="#EAD700" stroke="#000000" stroke-width="0.5" stroke-miterlimit="10" cx="93.631" cy="270.372" rx="3.042" ry="2.548"/>
<ellipse transform="matrix(0.2586 0.966 -0.966 0.2586 321.2067 112.8439)" fill="#EAD700" stroke="#000000" stroke-width="0.5" stroke-miterlimit="10" cx="87.094" cy="265.666" rx="3.041" ry="2.549"/>
<ellipse transform="matrix(0.259 0.9659 -0.9659 0.259 313.2273 120.5985)" fill="#EAD700" stroke="#000000" stroke-width="0.5" stroke-miterlimit="10" cx="78.015" cy="264.44" rx="2.271" ry="2.549"/>
<ellipse transform="matrix(0.259 0.9659 -0.9659 0.259 313.9089 131.0392)" fill="#EAD700" stroke="#000000" stroke-width="0.5" stroke-miterlimit="10" cx="71.555" cy="270.098" rx="1.522" ry="2.549"/>
<ellipse transform="matrix(0.2588 0.9659 -0.9659 0.2588 327.7794 120.2449)" fill="#EAD700" stroke="#000000" stroke-width="0.5" stroke-miterlimit="10" cx="85.537" cy="273.707" rx="3.042" ry="2.549"/>
<radialGradient id="SVGID_9_" cx="71.5547" cy="289.1104" r="36.3403" gradientTransform="matrix(1 0 0 0.3713 0 181.7652)" gradientUnits="userSpaceOnUse">
	<stop  offset="0" style="stop-color:#17FFC6"/>
	<stop  offset="0.0952" style="stop-color:#23EFC2"/>
	<stop  offset="0.2601" style="stop-color:#34DABD"/>
	<stop  offset="0.4447" style="stop-color:#3FCBB9"/>
	<stop  offset="0.6629" style="stop-color:#46C3B7"/>
	<stop  offset="1" style="stop-color:#48C0B6"/>
</radialGradient>
<path fill="url(#SVGID_9_)" stroke="#000000" stroke-width="0.5" stroke-miterlimit="10" d="M86.014,279.297
	c0,0-16.772,2.493-27-5.375c-1.625-1.25-6.25,2.25-3.5,4.25c0,0-10.75,1.375-6.125,5s7.375,2.75,3.875,4.5s-3.5,3-3.25,4.25
	s2.625,3.75,5.125,2.5s3.875-0.75,2.625,1s0.875,3.875,2,4.125s3.625-2.75,3.875,0.75s2,4.375,5.875,4.25s11.375,0.012,11.375,0.012
	s4.875,0.238,5.75-3.887s5.75-1.375,6.125-2s3.375-3,1.5-4.75s-3.625-2.249-1.5-4.813c2.125-2.563-0.25-4.938-2.125-5.188
	s-1.375-0.75-1.375-2.5S86.905,279.189,86.014,279.297z"/>
<g>
	<path fill="#0095DB" stroke="#000000" stroke-width="0.5" stroke-miterlimit="10" d="M196.316,402.649
		c-1.65-2.5,1.15-5.75,1.4-8.75s-5-2.75-6.75-5.358s-2.25-5.642-3.563-5.642s-2.188,4.5-4.854,4.25s-2.583-2.5-4.333-2.5
		s-1.5,7-3.5,5.75s-5.5,1.5-6.096,4.5c-0.787,3.967,2.759,6.029,2.096,9.25s-7.834,7.511-6.5,12.006
		c0,6.631,8.207,12.006,18.332,12.006c10.126,0,18.334-5.375,18.334-12.006C200.549,409.411,197.967,405.149,196.316,402.649z"/>
	<path fill="#A85FA9" stroke="#000000" stroke-width="0.5" stroke-miterlimit="10" d="M190.301,376.306h-2
		c0,3.217-2.617,5.833-5.834,5.833s-5.832-2.616-5.832-5.833h-2c0,3.979,2.984,7.269,6.832,7.762v3.009h2v-3.009
		C187.314,383.574,190.301,380.285,190.301,376.306z"/>
	
		<radialGradient id="SVGID_10_" cx="182.4668" cy="450.9619" r="11.7007" gradientTransform="matrix(1 0 0 0.7849 0 62.0998)" gradientUnits="userSpaceOnUse">
		<stop  offset="0" style="stop-color:#B9D6FF"/>
		<stop  offset="0.2819" style="stop-color:#B7D5FF"/>
		<stop  offset="0.4327" style="stop-color:#AFD2FD"/>
		<stop  offset="0.5524" style="stop-color:#A1CEFA"/>
		<stop  offset="0.6558" style="stop-color:#8EC7F7"/>
		<stop  offset="0.7487" style="stop-color:#75BEF2"/>
		<stop  offset="0.8341" style="stop-color:#56B3EC"/>
		<stop  offset="0.9137" style="stop-color:#32A6E5"/>
		<stop  offset="0.9868" style="stop-color:#0898DD"/>
		<stop  offset="1" style="stop-color:#0095DB"/>
	</radialGradient>
	<ellipse fill="url(#SVGID_10_)" cx="182.467" cy="416.078" rx="12.017" ry="8.929"/>
</g>
<ellipse transform="matrix(0.5001 0.866 -0.866 0.5001 441.5081 55.364)" fill="#FFDFF4" stroke="#000000" stroke-width="0.5" stroke-miterlimit="10" cx="172.803" cy="410.077" rx="3.043" ry="2.548"/>
<ellipse transform="matrix(0.5001 0.866 -0.866 0.5001 448.0636 61.8657)" fill="#EAD700" stroke="#000000" stroke-width="0.5" stroke-miterlimit="10" cx="170.449" cy="419.006" rx="3.043" ry="2.548"/>
<ellipse transform="matrix(0.4998 0.8661 -0.8661 0.4998 454.5579 56.7244)" fill="#D5FF5F" stroke="#000000" stroke-width="0.5" stroke-miterlimit="10" cx="178.165" cy="421.934" rx="3.042" ry="2.549"/>
<path fill="#F49AC1" stroke="#000000" stroke-width="0.5" stroke-miterlimit="10" d="M125.885,414.178
	c0,0,6.667,13.406,22.667,17.073s21.138-7,21.07-10.333c-0.07-3.333,1.756-15.594-11.49-13.297
	c-13.247,2.297-16.58,2.308-22.247-0.864S124.089,411.293,125.885,414.178z"/>
<radialGradient id="SVGID_11_" cx="157.1758" cy="425.7021" r="5.5448" gradientTransform="matrix(1 0 0 0.6707 0 140.1934)" gradientUnits="userSpaceOnUse">
	<stop  offset="0" style="stop-color:#FFFFFF"/>
	<stop  offset="0.3588" style="stop-color:#FFFDFE;stop-opacity:0.6412"/>
	<stop  offset="0.5353" style="stop-color:#FEF5F9;stop-opacity:0.4647"/>
	<stop  offset="0.6719" style="stop-color:#FCE8F1;stop-opacity:0.3281"/>
	<stop  offset="0.7881" style="stop-color:#FAD5E5;stop-opacity:0.2119"/>
	<stop  offset="0.8913" style="stop-color:#F8BDD7;stop-opacity:0.1087"/>
	<stop  offset="0.9839" style="stop-color:#F5A0C5;stop-opacity:0.0161"/>
	<stop  offset="1" style="stop-color:#F49AC1;stop-opacity:0"/>
</radialGradient>
<ellipse fill="url(#SVGID_11_)" cx="157.176" cy="425.703" rx="6.875" ry="3.77"/>
<path fill="#F49AC1" stroke="#000000" stroke-width="0.5" stroke-miterlimit="10" d="M41.751,308.2c0,0,6.667,13.406,22.667,17.073
	c16,3.667,21.138-7,21.07-10.333c-0.07-3.333,1.756-15.594-11.49-13.297c-13.247,2.297-16.58,2.308-22.247-0.864
	S39.955,305.315,41.751,308.2z"/>
<radialGradient id="SVGID_12_" cx="73.041" cy="319.7256" r="5.5444" gradientTransform="matrix(1 0 0 0.6707 0 105.2929)" gradientUnits="userSpaceOnUse">
	<stop  offset="0" style="stop-color:#FFFFFF"/>
	<stop  offset="0.3588" style="stop-color:#FFFDFE;stop-opacity:0.6412"/>
	<stop  offset="0.5353" style="stop-color:#FEF5F9;stop-opacity:0.4647"/>
	<stop  offset="0.6719" style="stop-color:#FCE8F1;stop-opacity:0.3281"/>
	<stop  offset="0.7881" style="stop-color:#FAD5E5;stop-opacity:0.2119"/>
	<stop  offset="0.8913" style="stop-color:#F8BDD7;stop-opacity:0.1087"/>
	<stop  offset="0.9839" style="stop-color:#F5A0C5;stop-opacity:0.0161"/>
	<stop  offset="1" style="stop-color:#F49AC1;stop-opacity:0"/>
</radialGradient>
<ellipse fill="url(#SVGID_12_)" cx="73.041" cy="319.726" rx="6.875" ry="3.77"/>
<g>
	<circle fill="#84CFA0" stroke="#000000" stroke-width="0.5" stroke-miterlimit="10" cx="35.801" cy="330.694" r="18.667"/>
	<path fill="#BFE2CA" stroke="#000000" stroke-width="0.5" stroke-miterlimit="10" d="M32.468,316.387c0,0-5.667,5.978-6,10.466
		s-3,3.154-3,8.154s3.333,6.617,7.667,5.309s9.595,1.95,9.297,3.154s5.036-2.463,5.036-6.796s-3.739-6.574-5.036-5.287
		s-3.297,5.288-4.297,5.954s-3.667-0.334-5.333-2.334s-5.333-1.572-3.333-5.619s5.667-3.047,7-5.047s4.333-9.333,0-9
		S34.104,314.478,32.468,316.387z"/>
	
		<ellipse fill="#FECCB7" stroke="#000000" stroke-width="0.5" stroke-miterlimit="10" cx="41.134" cy="317.673" rx="2.167" ry="2.4"/>
	
		<ellipse fill="#FECCB7" stroke="#000000" stroke-width="0.5" stroke-miterlimit="10" cx="31.384" cy="330.695" rx="2.167" ry="2.4"/>
	
		<ellipse fill="#FECCB7" stroke="#000000" stroke-width="0.5" stroke-miterlimit="10" cx="36.634" cy="325.894" rx="2.167" ry="2.4"/>
	
		<ellipse fill="#FECCB7" stroke="#000000" stroke-width="0.5" stroke-miterlimit="10" cx="35.801" cy="331.475" rx="2.167" ry="2.4"/>
	
		<ellipse fill="#FECCB7" stroke="#000000" stroke-width="0.5" stroke-miterlimit="10" cx="41.134" cy="328.294" rx="2.167" ry="2.4"/>
	
		<ellipse fill="#FECCB7" stroke="#000000" stroke-width="0.5" stroke-miterlimit="10" cx="44.509" cy="322.475" rx="2.167" ry="2.4"/>
	
		<ellipse fill="#FECCB7" stroke="#000000" stroke-width="0.5" stroke-miterlimit="10" cx="47.134" cy="329.073" rx="2.167" ry="2.4"/>
	
		<ellipse fill="#FECCB7" stroke="#000000" stroke-width="0.5" stroke-miterlimit="10" cx="49.301" cy="324.272" rx="2.167" ry="2.4"/>
	
		<ellipse fill="#FECCB7" stroke="#000000" stroke-width="0.5" stroke-miterlimit="10" cx="48.842" cy="333.937" rx="2.167" ry="2.4"/>
	
		<ellipse fill="#FECCB7" stroke="#000000" stroke-width="0.5" stroke-miterlimit="10" cx="46.676" cy="340.673" rx="2.167" ry="2.4"/>
	
		<ellipse fill="#FECCB7" stroke="#000000" stroke-width="0.5" stroke-miterlimit="10" cx="38.968" cy="346.102" rx="2.167" ry="2.4"/>
	
		<ellipse fill="#FECCB7" stroke="#000000" stroke-width="0.5" stroke-miterlimit="10" cx="34.468" cy="343.073" rx="2.167" ry="2.4"/>
	
		<ellipse fill="#FECCB7" stroke="#000000" stroke-width="0.5" stroke-miterlimit="10" cx="30.135" cy="344.799" rx="2.167" ry="2.4"/>
	
		<ellipse fill="#FECCB7" stroke="#000000" stroke-width="0.5" stroke-miterlimit="10" cx="20.187" cy="333.097" rx="2.167" ry="2.4"/>
	
		<ellipse fill="#FECCB7" stroke="#000000" stroke-width="0.5" stroke-miterlimit="10" cx="21.301" cy="326.673" rx="2.167" ry="2.4"/>
	
		<ellipse fill="#FECCB7" stroke="#000000" stroke-width="0.5" stroke-miterlimit="10" cx="24.52" cy="342.398" rx="2.167" ry="2.4"/>
	
		<ellipse fill="#FECCB7" stroke="#000000" stroke-width="0.5" stroke-miterlimit="10" cx="25.093" cy="322.475" rx="2.167" ry="2.4"/>
	
		<ellipse fill="#FECCB7" stroke="#000000" stroke-width="0.5" stroke-miterlimit="10" cx="27.968" cy="316.798" rx="2.167" ry="2.4"/>
</g>
<g>
	<g>
		<line fill="none" stroke="#000000" stroke-miterlimit="10" x1="66.135" y1="92.01" x2="81.405" y2="100.299"/>
		<g>
			<polygon points="84.508,101.983 79.166,101.396 81.173,100.173 81.105,97.824 			"/>
		</g>
	</g>
</g>
<g>
	<g>
		<line fill="none" stroke="#000000" stroke-miterlimit="10" x1="134.135" y1="128.011" x2="149.065" y2="136.965"/>
		<g>
			<polygon points="152.093,138.781 146.781,137.966 148.839,136.83 148.872,134.48 			"/>
		</g>
	</g>
</g>
<g>
	<g>
		<line fill="none" stroke="#000000" stroke-miterlimit="10" x1="180.788" y1="221.983" x2="180.788" y2="232.786"/>
		<g>
			<polygon points="180.788,236.316 178.756,231.341 180.788,232.521 182.82,231.341 			"/>
		</g>
	</g>
</g>
<g>
	<g>
		<line fill="none" stroke="#000000" stroke-miterlimit="10" x1="195.854" y1="304.562" x2="209.925" y2="312.639"/>
		<g>
			<polygon points="212.986,314.396 207.66,313.683 209.695,312.508 209.684,310.157 			"/>
		</g>
	</g>
</g>
<g>
	<g>
		<line fill="none" stroke="#000000" stroke-miterlimit="10" x1="144.938" y1="276.72" x2="103.999" y2="276.72"/>
		<g>
			<polygon points="100.468,276.72 105.443,274.687 104.263,276.72 105.443,278.752 			"/>
		</g>
	</g>
</g>
<line fill="none" stroke="#000000" stroke-miterlimit="10" x1="144.938" y1="338.271" x2="144.938" y2="409.251"/>
<line fill="none" stroke="#000000" stroke-miterlimit="10" x1="119.802" y1="319.101" x2="84.508" y2="319.101"/>
<text transform="matrix(1 0 0 1 80.5479 47.3164)"><tspan x="0" y="0" font-family="'LucidaSans'" font-size="10">T-cells are mobilized when they encounter a cell</tspan><tspan x="0" y="12" font-family="'LucidaSans'" font-size="10">such as a dendritic cell or B-cell that has digested</tspan><tspan x="0" y="24" font-family="'LucidaSans'" font-size="10">an antigen and is displaying antigen fragments</tspan><tspan x="0" y="36" font-family="'LucidaSans'" font-size="10">bound to its MHC molecules.</tspan></text>
<text transform="matrix(1 0 0 1 224.4688 145.6694)"><tspan x="0" y="0" font-family="'LucidaSans'" font-size="10">Cytokines help</tspan><tspan x="0" y="12" font-family="'LucidaSans'" font-size="10">the T-cell mature.</tspan></text>
<text transform="matrix(1 0 0 1 223.4688 201.3159)"><tspan x="0" y="0" font-family="'LucidaSans'" font-size="10">The MHC-antigen</tspan><tspan x="0" y="12" font-family="'LucidaSans'" font-size="10">complex activates</tspan><tspan x="0" y="24" font-family="'LucidaSans'" font-size="10">the T-cell receptor</tspan><tspan x="0" y="36" font-family="'LucidaSans'" font-size="10">and the T cell</tspan><tspan x="0" y="48" font-family="'LucidaSans'" font-size="10">secretes cytokines.</tspan></text>
<text transform="matrix(1 0 0 1 232.8018 363.3164)"><tspan x="0" y="0" font-family="'LucidaSans'" font-size="10">Some cytokines</tspan><tspan x="0" y="12" font-family="'LucidaSans'" font-size="10">spur the growth</tspan><tspan x="0" y="24" font-family="'LucidaSans'" font-size="10">of more T-cells.</tspan></text>
<text transform="matrix(1 0 0 1 163.1348 447.6494)"><tspan x="0" y="0" font-family="'LucidaSans'" font-size="10">Some T-cells become</tspan><tspan x="0" y="12" font-family="'LucidaSans'" font-size="10">cytotoxic cells and track down</tspan><tspan x="0" y="24" font-family="'LucidaSans'" font-size="10">cells infected with viruses.</tspan></text>
<text transform="matrix(1 0 0 1 9.8018 370.6494)"><tspan x="0" y="0" font-family="'LucidaSans'" font-size="10">Some T-cells become</tspan><tspan x="0" y="12" font-family="'LucidaSans'" font-size="10">helper cells and</tspan><tspan x="0" y="24" font-family="'LucidaSans'" font-size="10">secrete some cytokines</tspan><tspan x="0" y="36" font-family="'LucidaSans'" font-size="10">that attract fresh</tspan><tspan x="0" y="48" font-family="'LucidaSans'" font-size="10">macrophages,</tspan><tspan x="0" y="60" font-family="'LucidaSans'" font-size="10">neutrophils, other</tspan><tspan x="0" y="72" font-family="'LucidaSans'" font-size="10">lymphocytes, and other</tspan><tspan x="0" y="84" font-family="'LucidaSans'" font-size="10">cytokines to direct the</tspan><tspan x="0" y="96" font-family="'LucidaSans'" font-size="10">recruits once they arrive</tspan><tspan x="0" y="108" font-family="'LucidaSans'" font-size="10">on the scene.</tspan></text>
<text transform="matrix(1 0 0 1 126.5566 321.8711)"><tspan x="0" y="0" font-family="'LucidaSans'" font-size="9">Infected</tspan><tspan x="7.871" y="10.8" font-family="'LucidaSans'" font-size="9">cells</tspan></text>
</svg>
